<svg xmlns="http://www.w3.org/2000/svg" width="24" height="24" viewBox="0 0 24 24">
    <path fill="#4A4A4A" d="M16 2c-2.003 0-3.887.785-5.304 2.21l-7.5 7.55C1.78 13.186 1 15.083 1 17.1v4.403c0 .348.28.63.625.63h13.75c.162 0 .328-.07.442-.185l2.5-2.516 2.5-2.516v-.001l2.5-2.516c.118-.118.183-.278.183-.445V9.55C23.5 5.386 20.136 2 16 2zm-2.5 3.775c3.446 0 6.25 2.822 6.25 6.29v4.144l-1.25 1.258v-2.885c0-4.163-3.364-7.55-7.5-7.55-.483 0-.959.048-1.424.137 1.109-.903 2.479-1.394 3.924-1.394zM7.25 20.873V15.84h2.5v5.033h-2.5zm3.125-6.29h-3.75c-.346 0-.625.28-.625.628v5.662H2.25V17.1c0-.223.013-.446.035-.665.149-1.43.773-2.753 1.796-3.783 1.024-1.03 2.34-1.659 3.759-1.808.218-.023.438-.035.66-.035 3.446 0 6.25 2.822 6.25 6.29v3.775H11v-5.662c0-.348-.28-.629-.625-.629zM8.5 9.548c-.483 0-.959.048-1.424.136C8.185 8.783 9.555 8.291 11 8.291c3.446 0 6.25 2.822 6.25 6.291v4.144L16 19.984v-2.885c0-4.163-3.364-7.55-7.5-7.55zm13.75 4.144L21 14.95v-2.885c0-4.163-3.364-7.55-7.5-7.55-.483 0-.959.048-1.424.136C13.185 3.75 14.555 3.258 16 3.258c3.446 0 6.25 2.822 6.25 6.291v4.144z"/>
</svg>
