<svg width="161" height="165" viewBox="0 0 161 165" fill="none" xmlns="http://www.w3.org/2000/svg">
    <g clip-path="url(#clip0_1810_22759)">
        <path d="M42.8494 53.2995L128.528 52.6933L123.47 165H33.8985L42.8494 53.2995Z" fill="#C2D5D4"/>
        <path d="M128.528 52.0872L126.868 65.7797L109.105 159.374L47.3482 159.716L26.5453 135.517L26.5608 135.47L41.6549 52.0872H128.528Z" fill="#49A876"/>
        <path d="M50.8386 135.563L47.3792 159.778L26.5453 135.921L26.5143 135.874H26.5608L50.8386 135.563Z" fill="#004E4D"/>
        <path d="M128.652 52.0406L126.93 65.8108L39.2039 65.7331L41.7015 51.9007L128.652 52.0406Z" fill="#004E4D"/>
        <path d="M57.4471 59.9204C60.8656 59.9204 63.6368 56.7543 63.6368 52.8487C63.6368 48.9432 60.8656 45.7771 57.4471 45.7771C54.0287 45.7771 51.2575 48.9432 51.2575 52.8487C51.2575 56.7543 54.0287 59.9204 57.4471 59.9204Z" stroke="#004E4D" stroke-width="2" stroke-miterlimit="10"/>
        <path d="M76.3574 59.9204C79.7759 59.9204 82.5471 56.7543 82.5471 52.8487C82.5471 48.9432 79.7759 45.7771 76.3574 45.7771C72.939 45.7771 70.1678 48.9432 70.1678 52.8487C70.1678 56.7543 72.939 59.9204 76.3574 59.9204Z" stroke="#004E4D" stroke-width="2" stroke-miterlimit="10"/>
        <path d="M95.2678 59.9204C98.6862 59.9204 101.457 56.7543 101.457 52.8487C101.457 48.9432 98.6862 45.7771 95.2678 45.7771C91.8493 45.7771 89.0781 48.9432 89.0781 52.8487C89.0781 56.7543 91.8493 59.9204 95.2678 59.9204Z" stroke="#004E4D" stroke-width="2" stroke-miterlimit="10"/>
        <path d="M114.194 59.9204C117.612 59.9204 120.383 56.7543 120.383 52.8487C120.383 48.9432 117.612 45.7771 114.194 45.7771C110.775 45.7771 108.004 48.9432 108.004 52.8487C108.004 56.7543 110.775 59.9204 114.194 59.9204Z" stroke="#004E4D" stroke-width="2" stroke-miterlimit="10"/>
        <path d="M95.7487 93.9419L33.0142 99.8323L31.8042 106.515L95.7487 93.9419Z" fill="#004E4D"/>
        <path d="M95.2686 73.1334L21.9927 78.8854L23.6892 100.578L96.9651 94.8258L95.2686 73.1334Z" fill="#FEC14F"/>
        <path d="M40.7482 83.0608L29.814 83.9191L30.6331 94.3934L41.5673 93.5351L40.7482 83.0608Z" fill="#AB4369"/>
        <path d="M47.5809 84.6011L88.8764 81.3528" stroke="#004E4D" stroke-width="2" stroke-miterlimit="10"/>
        <path d="M48.1238 91.6106L89.4349 88.3623" stroke="#004E4D" stroke-width="2" stroke-miterlimit="10"/>
        <path d="M132.134 116.61L59.8436 108.946L57.5829 130.352L129.873 138.016L132.134 116.61Z" fill="#FEC14F"/>
        <path d="M77.3053 116.39L66.522 115.247L65.43 125.587L76.2133 126.73L77.3053 116.39Z" fill="#AB4369"/>
        <path d="M83.6796 119.135L124.432 123.456" stroke="#004E4D" stroke-width="2" stroke-miterlimit="10"/>
        <path d="M82.9505 126.036L123.703 130.357" stroke="#004E4D" stroke-width="2" stroke-miterlimit="10"/>
        <path d="M128.233 85.2072L131.568 78.7728L106.577 79.0992L119.825 101.371L123.176 94.9521L135.943 102.272L141 92.5275L128.233 85.2072Z" fill="#004E4D"/>
        <path d="M57.5712 130.341L113.496 136.263L112.301 142.48L57.5712 130.341Z" fill="#004E4D"/>
    </g>
    <path d="M34.0889 1.83462C34.0889 1.83462 30.1502 21.7732 51.9054 23.4176C51.9054 23.4176 31.5374 21.9 33.7215 42.5747C33.7215 42.5747 31.0713 22.6899 16.0003 23.1725C16.0003 23.1725 31.9702 23.1676 34.0889 1.83462Z" fill="#C2D5D4"/>
    <path d="M12.5326 33.1445C12.5326 33.1445 10.0754 45.5834 23.6476 46.6093C23.6476 46.6093 10.9409 45.6625 12.3034 58.5606C12.3034 58.5606 10.6501 46.1553 1.24793 46.4564C1.24793 46.4564 11.2109 46.4533 12.5326 33.1445Z" fill="#C2D5D4"/>
    <path d="M151.055 131.918C151.055 131.918 149.084 141.898 159.973 142.722C159.973 142.722 149.778 141.962 150.871 152.311C150.871 152.311 149.545 142.357 142.001 142.599C142.001 142.599 149.995 142.596 151.055 131.918Z" fill="#C2D5D4"/>
    <defs>
        <clipPath id="clip0_1810_22759">
            <rect width="119" height="120" fill="white" transform="translate(22 45)"/>
        </clipPath>
    </defs>
</svg>
