<svg width="215" height="186" viewBox="0 0 215 186" fill="none" xmlns="http://www.w3.org/2000/svg">
    <path d="M39.7244 41.0645L30.7923 33.6865C30.3833 35.04 30.0727 36.4214 29.863 37.8199C28.9439 43.8029 30.1211 49.1865 33.0434 53.3199L28.851 49.8892C27.5448 46.0308 25.2224 42.5965 22.1287 39.9485C16.2738 35.1332 8.26074 34.5752 8.26074 34.5752C9.39471 39.2306 11.9501 43.4167 15.5716 46.5515C18.9417 49.1123 22.8816 50.8178 27.0543 51.5219L31.794 55.3969C26.9097 52.9582 20.6934 52.3795 14.0021 53.9399C12.5199 54.2763 11.0609 54.7078 9.63412 55.2315L18.6591 62.4649L37.5353 60.0365L43.7309 65.0895C38.8467 62.6509 32.62 62.0619 25.9287 63.6222C24.4484 63.9699 22.9899 64.4046 21.5608 64.9242L30.5858 72.1575L49.4619 69.8119L55.2032 74.4929C50.319 72.0542 44.1027 71.4755 37.4114 73.0359C35.9297 73.3741 34.4708 73.8055 33.0434 74.3275L42.0684 81.5609L60.9239 79.1842L72.3652 88.4842C73.0025 88.8378 73.6012 89.2568 74.1517 89.7345C74.4408 90.0032 74.6783 90.2925 74.9364 90.5715L108.187 118.833L109.901 117.077L69.4636 82.9765L69.5565 82.8732C69.0362 82.5807 68.5627 82.2114 68.1522 81.7779V81.8605L62.5864 77.3242L63.1544 60.1605L54.2223 52.7929C53.8116 54.146 53.501 55.5275 53.2929 56.9262C52.3636 62.9092 53.5407 68.2929 56.4734 72.4262L51.1141 68.0449L51.6304 50.7985L42.719 43.3999C42.3095 44.7533 41.9989 46.1347 41.7896 47.5332C40.8603 53.5265 42.0375 58.8999 44.9597 63.0332L39.1565 58.3005L39.7244 41.0645Z" fill="#C2D5D4"/>
    <path d="M149.058 36.7456C146.765 50.3546 139.341 51.0676 130.584 49.5796C121.828 48.0916 115.095 45.002 117.356 31.3826C119.618 17.7633 138.907 0.279297 138.907 0.279297C138.907 0.279297 151.36 23.1263 149.058 36.7456Z" fill="#C2D5D4"/>
    <path d="M55.9262 93.9605C80.7089 87.8742 86.76 97.3705 89.8888 110.132C93.0176 122.894 92.0779 134.106 67.254 140.202C61.9051 141.396 56.426 141.903 50.949 141.711L56.7936 131.285L40.53 141.019C34.2305 140.306 27.9715 139.272 21.7778 137.919L15.324 136.441C6.19567 134.261 0 132.194 0 132.194C0 132.194 4.44023 127.616 11.2968 121.582L16.4598 117.159C20.6522 113.666 25.4126 109.977 30.4207 106.557L37.649 117.593L39.7762 100.698C44.8399 97.7509 50.2702 95.4856 55.9262 93.9605Z" fill="#C2D5D4"/>
    <path d="M188.472 65.9785C199.831 63.6638 208.092 62.7441 208.092 62.7441C208.092 62.7441 207.059 70.7421 204.705 81.8401L190.31 88.1021L202.794 90.0551C201.097 97.0117 199.028 103.873 196.599 110.608L191.436 122.894C188.162 129.549 184.321 135.511 179.85 139.934C158.526 160.993 144.524 152.789 130.945 139.025C117.366 125.261 109.343 111.125 130.666 90.0758C135.39 85.656 140.777 82.0053 146.631 79.2568L148.84 95.0668L158.186 74.2968C165.476 71.6548 172.917 69.4499 180.469 67.6938" fill="#C2D5D4"/>
    <path d="M79.8832 161.851L84.1478 169.663L91.9544 173.93L84.1478 178.198L79.8832 186L75.6185 178.198L67.8223 173.93L75.6185 169.663L79.8832 161.851Z" fill="#C2D5D4"/>
    <path d="M93.6478 0L97.9228 7.80167L105.719 12.0693L97.9228 16.337L93.6478 24.149L89.3831 16.337L81.5869 12.0693L89.3831 7.80167L93.6478 0Z" fill="#C2D5D4"/>
    <path d="M70.5896 13.8467L72.975 18.2073L77.3326 20.5943L72.975 22.9813L70.5896 27.342L68.2043 22.9813L63.8467 20.5943L68.2043 18.2073L70.5896 13.8467Z" fill="#C2D5D4"/>
    <path d="M84.1218 60.4304L68.333 65.0117L72.9111 80.8116L88.7 76.2303L84.1218 60.4304Z" fill="#49A876"/>
    <path d="M91.2175 84.9294L75.4287 89.5107L80.0068 105.311L95.7957 100.729L91.2175 84.9294Z" fill="#49A876"/>
    <path d="M98.325 109.435L82.5361 114.017L87.1142 129.816L102.903 125.235L98.325 109.435Z" fill="#49A876"/>
    <path d="M67.3164 40.6001L68.5659 141.35L68.9066 141.34L104.005 167.586L161.997 166.832L160.417 39.4531L67.3164 40.6001Z" fill="#49A876"/>
    <path d="M68.5762 141.277L104.005 167.586L107.268 167.513L99.1415 136.575L68.5762 141.277Z" fill="#004E4D"/>
    <path d="M131.73 142.899L132.216 171.378L138.195 165.178L144.194 171.171L143.698 141.566C143.698 141.566 131.741 143.271 131.73 142.899Z" fill="#AB4369"/>
    <path d="M137.771 128.825L142.263 133.176L148.521 133.062L148.624 139.324L153.116 143.674L148.769 148.169L148.882 154.421L142.625 154.535L138.277 159.03L133.785 154.679L127.528 154.783L127.424 148.531L122.933 144.181L127.28 139.686L127.177 133.424L133.424 133.32L137.771 128.825Z" fill="#FEC14F"/>
    <path d="M137.988 150.029C141.358 150.029 144.09 147.295 144.09 143.922C144.09 140.55 141.358 137.815 137.988 137.815C134.617 137.815 131.885 140.55 131.885 143.922C131.885 147.295 134.617 150.029 137.988 150.029Z" fill="#004E4D"/>
    <path d="M85.8101 69.0788L80.1514 63.6228L82.547 61.1428L85.7171 64.2015L97.8193 51.6465L100.308 54.0335L85.8101 69.0788Z" fill="white"/>
    <path d="M86.2749 94.5915L80.6162 89.1252L83.0119 86.6555L86.182 89.7142L98.2842 77.1592L100.762 79.5462L86.2749 94.5915Z" fill="white"/>
    <path d="M86.7398 120.094L81.0811 114.638L83.4664 112.158L86.6468 115.227L98.749 102.662L101.227 105.059L86.7398 120.094Z" fill="white"/>
    <path d="M145.851 57.1343L109.69 58.0439L109.777 61.4942L145.938 60.5845L145.851 57.1343Z" fill="white"/>
    <path d="M126.994 81.729L111.128 82.4277L111.28 85.8757L127.146 85.177L126.994 81.729Z" fill="white"/>
    <path d="M148.91 108.211L112.024 109.423L112.138 112.872L149.023 111.661L148.91 108.211Z" fill="white"/>
    <path d="M160.798 71.5787C151.98 71.9094 143.987 65.5647 139.692 58.3314C137.947 55.3942 136.865 52.1107 136.522 48.711C136.522 48.3287 136.449 47.936 136.429 47.5537C138.014 52.653 141.279 57.0641 145.692 60.0669C150.105 63.0697 155.405 64.4869 160.726 64.087L160.798 71.5787Z" fill="#004E4D"/>
    <path d="M161.201 99.8303L130.46 89.4453L161.387 117.19L161.201 99.8303Z" fill="#004E4D"/>
    <path d="M159.311 66.5365C172.331 66.5365 182.885 55.9744 182.885 42.9455C182.885 29.9165 172.331 19.3545 159.311 19.3545C146.291 19.3545 135.736 29.9165 135.736 42.9455C135.736 55.9744 146.291 66.5365 159.311 66.5365Z" fill="#AB4369"/>
    <path d="M135.324 77.4277L204.354 106.206L199.459 117.965L130.512 89.3937L135.324 77.4277Z" fill="#FEC14F"/>
    <path d="M204.065 106.082L215 110.474L210.105 122.233L199.294 118.048C199.294 118.048 204.25 105.648 204.065 106.082Z" fill="#AB4369"/>
    <path d="M135.303 77.541L132.856 83.5447L130.398 89.5587L127.527 85.5184L128.994 81.9327L130.563 78.0783L135.303 77.541Z" fill="#F0DDBC"/>
    <path d="M130.564 78.0791L128.994 81.9334L127.528 85.5191L126.63 84.2481L122.84 78.9368L129.077 78.2444L130.564 78.0791Z" fill="#004E4D"/>
    <path d="M161.036 33.1602H157.587V52.7315H161.036V33.1602Z" fill="white"/>
    <path d="M169.09 41.2197H149.532V44.6711H169.09V41.2197Z" fill="white"/>
</svg>
