<?xml version="1.0" standalone="no"?>
<!DOCTYPE svg PUBLIC "-//W3C//DTD SVG 20010904//EN" "http://www.w3.org/TR/2001/REC-SVG-20010904/DTD/svg10.dtd">
<!-- Created using Karbon, part of Calligra: http://www.calligra.org/karbon -->
<svg xmlns="http://www.w3.org/2000/svg" xmlns:xlink="http://www.w3.org/1999/xlink" width="2834.65pt" height="2834.65pt">
<defs/>
<g id="layer0">
  <path id="shape0" transform="matrix(3.54331 0 0 3.54331 303.108 -6.64112)" fill="#9b9b9b" fill-rule="evenodd" d="M413.096 0C369.396 0.000504672 333.97 32.3729 333.97 72.306C333.992 74.5057 334.123 76.7033 334.364 78.892C252.381 98.903 179.028 150.688 140.836 235.453C97.7424 331.098 95.5024 384.449 88.7544 436.888C82.0064 489.328 70.6624 547.84 4.98039 681.687C-2.5915 697.115 -1.95245 713.174 9.82574 725.689C61.0108 780.61 276.662 856.838 437.502 852.23C517.923 849.925 596.847 836.054 662.866 818.267C726.681 793.865 777.441 762.937 819.388 728.013C829.36 715.267 830.958 697.869 823.476 683.52C751.096 544.663 740.855 483.356 736.526 430.483C732.196 377.609 734.284 323.099 690.381 231.786C650.825 149.516 575.44 98.01 491.887 78.408C492.093 76.3796 492.205 74.3441 492.222 72.307C492.223 32.3735 456.797 0.000504673 413.096 0ZM411.149 109.372C493.426 110.077 600.007 163.963 635.515 237.817C674.022 317.906 682.996 374.916 687.885 434.62C692.391 489.67 716.853 577.771 778.293 702.536C757.584 719.1 700.87 752.431 655.912 765.932C598.09 783.297 505.416 801.301 431.546 803.418C297.352 807.263 124.584 754.005 53.3759 698.677C109.046 579.423 131.471 491.325 138.271 438.478C145.65 381.133 147.605 328.078 186.783 241.125C222.138 162.654 328.871 108.669 411.149 109.372Z"/>
  <path id="shape1" transform="matrix(3.54331 0 0 3.54331 1310.56 3222.81)" fill="#9b9b9b" d="M0 0C36.7499 57.5514 83.7501 82.0912 131.235 82.184C178.617 82.1041 223.546 57.7114 260.264 0.395C217.281 4.8872 173.802 7.18784 130.244 7.275C86.5941 7.06488 43.0405 4.63212 0 0Z"/>
 </g>
</svg>
