<svg xmlns="http://www.w3.org/2000/svg" width="33" height="29"><path fill="#FFAF13" d="M17.017 20.575h-1.062c-.31 0-.576.113-.797.337a1.154 1.154 0 0 0-.345.8v.952c0 .309.108.572.325.787.216.217.48.324.79.324h1.115c.31 0 .573-.108.79-.324.217-.215.325-.478.325-.787v-.978c0-.3-.113-.56-.338-.78a1.11 1.11 0 0 0-.803-.331zm15.394 4.419L18.8 1.514C18.256.576 17.418.038 16.5.038c-.918 0-1.756.538-2.3 1.476L.59 24.994c-.545.938-.593 1.93-.135 2.722.46.792 1.346 1.246 2.434 1.246h27.222c1.088 0 1.975-.454 2.434-1.246.458-.791.41-1.784-.134-2.722zM3.08 26.207L16.5 3.057l13.42 23.15H3.08zM15.15 9.709a.97.97 0 0 0-.31.78l.544 7.275c.017.3.13.56.339.78.207.22.476.33.803.33.292 0 .544-.105.757-.317.212-.212.332-.476.358-.794l.545-7.248c.017-.291-.087-.553-.312-.787a1.084 1.084 0 0 0-.803-.35h-1.116c-.31 0-.577.11-.804.33z"/></svg>