<svg xmlns="http://www.w3.org/2000/svg" width="40" height="39" viewBox="0 0 40 39">
    <path fill="#4685FF" d="M13.438 25.187c.402 0 .728.318.73.711v4.266c0 .393-.327.711-.73.711H9.063c-.403 0-.73-.318-.73-.711v-4.266c0-.392.327-.71.73-.71zm8.75 0c.402 0 .729.318.729.711v4.266c0 .393-.326.711-.73.711h-4.375c-.403 0-.729-.318-.729-.711v-4.266c0-.392.326-.71.73-.71zm8.75 0c.402 0 .729.318.729.711v4.266c0 .393-.327.711-.73.711h-4.375c-.403 0-.73-.318-.73-.711v-4.266c0-.392.327-.71.73-.71zm-18.23 1.421H9.793v2.844h2.917v-2.844zm8.75 0h-2.917v2.844h2.917v-2.844zm8.75 0h-2.917v2.844h2.917v-2.844zm-16.77-9.952c.402 0 .728.318.73.71v4.266c0 .393-.327.711-.73.711H9.063c-.403 0-.73-.318-.73-.71v-4.266c0-.393.327-.711.73-.711zm8.75 0c.402 0 .729.318.729.71v4.266c0 .393-.326.711-.73.711h-4.375c-.403 0-.729-.318-.729-.71v-4.266c0-.393.326-.711.73-.711zm8.75 0c.402 0 .729.318.729.71v4.266c0 .393-.327.711-.73.711h-4.375c-.403 0-.73-.318-.73-.71v-4.266c0-.393.327-.711.73-.711zm-18.23 1.421H9.793v2.844h2.917v-2.844zm8.75 0h-2.917v2.844h2.917v-2.844zm8.75 0h-2.917v2.844h2.917v-2.844zm-16.77-9.952c.402 0 .728.318.728.711l.001 4.266c0 .392-.326.71-.73.71H9.064c-.403 0-.73-.318-.73-.71V8.836c0-.393.327-.711.73-.711zm8.75 0c.402 0 .729.318.729.711v4.266c0 .392-.326.71-.73.71h-4.375c-.403 0-.729-.318-.729-.71V8.836c0-.393.326-.711.73-.711zm8.75 0c.402 0 .729.318.729.711v4.266c0 .392-.327.71-.73.71h-4.375c-.403 0-.73-.318-.73-.71V8.836c0-.393.327-.711.73-.711zm-18.23 1.422H9.793v2.844h2.917V9.547zm8.75 0h-2.917v2.844h2.917V9.547zm8.75 0h-2.917v2.844h2.917V9.547z"/>
</svg>
