<svg xmlns="http://www.w3.org/2000/svg" width="30" height="30" viewBox="0 0 30 30">
    <g fill="none" fill-rule="evenodd">
        <g fill="#4A4A4A" stroke="#4A4A4A" stroke-width=".3">
            <g>
                <path d="M17.914 3.597c2.3 0 4.171 2.015 4.171 4.491 0 1.389-.61 2.701-1.618 3.546.055.123.108.246.154.374 2.41.113 4.337 2.158 4.337 4.655 0 2.57-2.04 4.66-4.547 4.66h0H5.112c-2.507 0-4.547-2.091-4.547-4.66 0-2.387 1.762-4.361 4.022-4.63-.016-.173-.024-.347-.024-.519 0-3.054 2.426-5.54 5.41-5.54 1.446 0 2.8.597 3.799 1.608.234-2.239 2.002-3.985 4.142-3.985zM9.974 7.15c-2.378 0-4.312 1.96-4.312 4.366 0 .31.036.628.106.948.038.177-.001.363-.11.505-.107.141-.262.225-.44.216l-.079-.004h0c-1.93 0-3.476 1.561-3.476 3.483 0 1.922 1.548 3.485 3.45 3.485h0l15.3-.001c1.9 0 3.447-1.563 3.447-3.485s-1.547-3.485-3.448-3.485h0l-.158.008c-.255.008-.48-.163-.551-.423-.103-.38-.26-.733-.452-1.06-.078-.134-.163-.262-.253-.384-.015-.02-.027-.042-.042-.06-.102-.134-.213-.258-.327-.378-.039-.04-.082-.078-.121-.117-.083-.078-.168-.154-.255-.225-.048-.039-.096-.079-.146-.116-.108-.08-.219-.155-.333-.226l-.127-.075c-.123-.07-.25-.134-.38-.192l-.17-.068c-.104-.04-.208-.076-.314-.11-.059-.017-.117-.036-.176-.051-.14-.036-.28-.065-.421-.087-.057-.008-.115-.014-.172-.02-.124-.014-.25-.024-.378-.027-.076-.001-.15.002-.227.004-.091.004-.183.009-.277.02h0l-.112.013c-.152.022-.306.051-.471.091h0-.015c-.048.013-.096.02-.143.033-.243.069-.496-.047-.619-.278-.753-1.418-2.21-2.3-3.798-2.3zm12.111 3.534c.152-.28.488-.375.751-.211h0l.979.61c.263.161.351.52.198.801-.102.187-.286.292-.475.292-.094 0-.19-.026-.276-.08h0l-.978-.61c-.263-.162-.352-.52-.199-.802zm-4.17-5.912c-1.694 0-3.072 1.488-3.07 3.319 0 .117.004.234.017.352l.01-.001c.217-.029.433-.047.647-.048l.03-.003c.045 0 .088.007.133.008.138.003.273.011.409.025.07.008.14.018.21.028.124.017.246.04.367.067.067.015.135.027.2.045.17.046.34.097.503.157.067.025.131.055.197.083l.153.065h0l.152.071c.082.04.162.084.242.128.081.045.16.092.238.142.081.05.163.099.24.154.091.064.179.133.266.203.109.087.213.177.315.271.074.07.148.138.218.211.061.062.119.127.177.193.077.086.15.177.223.27h0l.094.115c.687-.625 1.1-1.556 1.1-2.537 0-1.83-1.378-3.318-3.072-3.318zm6.493 2.729c.304 0 .55.263.55.587 0 .325-.246.588-.55.588h0-1.13c-.304 0-.55-.263-.55-.588 0-.324.246-.587.55-.587h0zM11.814 4.29c.153-.28.49-.375.752-.211h0l.98.61c.263.163.351.522.198.803-.102.187-.286.292-.475.292-.094 0-.19-.026-.276-.08h0l-.98-.61c-.261-.163-.35-.522-.2-.803zm11.448-.21c.262-.165.6-.068.751.211.153.28.065.638-.198.802h0l-.979.61c-.086.053-.181.08-.275.08-.19 0-.374-.105-.476-.292-.153-.28-.064-.639.199-.802h0zm-8.867-2.566c.264-.16.598-.063.75.22h0l.564 1.054c.15.281.06.64-.204.801-.085.053-.18.077-.272.077-.19 0-.376-.106-.478-.296h0l-.565-1.055c-.15-.28-.06-.64.205-.8zm6.29.22c.15-.283.485-.38.749-.22.264.161.355.52.204.801h0l-.565 1.055c-.102.19-.287.296-.478.296-.092 0-.185-.024-.271-.077-.264-.16-.356-.518-.205-.8h0zM17.914.5c.303 0 .549.263.549.588h0v1.219c0 .323-.246.586-.549.587-.304 0-.55-.263-.55-.587h0v-1.22c0-.324.245-.587.55-.587z" transform="translate(2 4)"/>
            </g>
        </g>
    </g>
</svg>
