<?xml version="1.0" encoding="UTF-8"?>
<svg width="24px" height="24px" viewBox="0 0 24 24" version="1.1" xmlns="http://www.w3.org/2000/svg" xmlns:xlink="http://www.w3.org/1999/xlink">
    <!-- Generator: Sketch 57.1 (83088) - https://sketch.com -->
    <title>cards-future planned</title>
    <desc>Created with Sketch.</desc>
    <g id="cards-future-planned" stroke="none" stroke-width="1" fill="none" fill-rule="evenodd">
        <path d="M20.47435,9.37722083 C20.4704812,9.35788057 20.465323,9.3411202 20.4575855,9.32049033 C20.137775,8.41663779 19.6851544,7.5811444 19.1203072,6.82556289 L19.1203072,6.82298399 C19.1138595,6.81266905 19.1074114,6.8062223 19.0996742,6.79977555 C18.8327369,6.44005656 18.53486,6.09964714 18.217608,5.78376251 C17.8939284,5.46013095 17.5573541,5.17001551 17.2104567,4.91215859 L17.2091669,4.9082904 C17.2052984,4.9082904 17.2052984,4.90442222 17.2027192,4.90442222 C16.456071,4.33708418 15.6307536,3.89098379 14.7473999,3.57120424 C14.7409522,3.57120424 14.7306357,3.56733606 14.724188,3.56475749 C14.7048445,3.5583104 14.6880787,3.55444255 14.6713149,3.54799547 C13.657726,3.18438156 12.5912509,3 11.5015678,3 L11.4590111,3 C9.30674841,3.01031494 7.20730598,3.75558151 5.51672581,5.12616432 C5.51027777,5.1300325 5.50640934,5.1326114 5.50383006,5.13647925 C5.49093464,5.14292634 5.47803889,5.14937309 5.46772077,5.15968803 C5.24075848,5.3479348 5.00864622,5.55551754 4.78425892,5.78373346 C4.55600584,6.01195268 4.35096728,6.23887799 4.16269587,6.46709391 L4.15882712,6.47096209 C4.15495869,6.47483028 4.15237941,6.47740885 4.15237941,6.48127703 C2.77254774,8.15744603 2.01041663,10.2837754 2.00005744,12.4586592 C1.99624791,13.5649486 2.181944,14.6441385 2.54819346,15.670483 C2.5546415,15.6872447 2.55850992,15.7040057 2.56495796,15.7233483 C2.56882639,15.7297951 2.57140567,15.74011 2.57140567,15.7465571 C2.89121617,16.6310671 3.33739926,17.456262 3.90482149,18.2027994 C3.90482149,18.2066672 3.90869025,18.2066672 3.90869025,18.2092461 L3.912559,18.2131143 C4.17047069,18.5599603 4.46063579,18.8964748 4.78429226,19.2201162 C5.10797185,19.5437478 5.45745415,19.8467363 5.82366399,20.1213942 C6.57935762,20.6861246 7.41754998,21.1348326 8.32282414,21.4584741 C9.34285043,21.818193 10.4054631,22 11.4886757,22 L11.6111825,22 C14.1064802,21.9742127 16.4548053,20.9865616 18.2203243,19.2201162 C19.9857443,17.4510963 20.9735171,15.1043739 20.9993331,12.6083242 C21.0122288,11.5059297 20.8381387,10.4202702 20.4744972,9.37715779 L20.47435,9.37722083 Z M4.65136466,6.90807248 L5.88547829,5.67028005 C5.891926,5.66641186 5.89450528,5.65996511 5.90224246,5.65738621 L5.9086905,5.65093946 C7.25240628,4.55498153 8.89660362,3.87805761 10.6196023,3.70658209 L2.70678909,11.6182213 C2.87829995,9.88917376 3.55917691,8.23492194 4.65143498,6.90800845 L4.65136466,6.90807248 Z M2.66416541,12.5953161 L11.5970709,3.66373599 C12.4185258,3.67018274 13.2244978,3.79267105 14.0007913,4.01959306 L3.0201083,14.9986469 C2.79314601,14.2224355 2.6706359,13.4178705 2.66416541,12.5952831 L2.66416541,12.5953161 Z M3.25862503,15.6949464 L14.6968971,4.25840448 C15.3378055,4.50209446 15.9451731,4.82313491 16.5061579,5.2125279 L4.21289003,17.5039718 C3.82601424,16.9431033 3.50622025,16.3357928 3.25862503,15.6949794 L3.25862503,15.6949464 Z M5.24843229,18.7520297 C5.02147,18.5212326 4.80612818,18.2826918 4.61138628,18.0389952 L17.0400062,5.61221933 C17.2837323,5.80691253 17.5222887,6.0209549 17.7531464,6.24917081 C17.9878469,6.48641436 18.2083585,6.73398935 18.4172629,6.99570819 L5.99491537,19.4148923 C5.73442539,19.2073029 5.48295448,18.9855268 5.24826722,18.7521617 L5.24843229,18.7520297 Z M6.53279123,19.8105898 L18.8132171,7.53201889 C19.2000929,8.09674931 19.5160244,8.70019788 19.7636197,9.3474478 L8.34848953,20.7582437 C7.70114357,20.5145537 7.09760546,20.1973752 6.53279123,19.8105568 L6.53279123,19.8105898 Z M17.7545,18.7520297 C16.311482,20.1909716 14.4570928,21.0754816 12.4556321,21.2869296 L20.2895449,13.454179 C20.078059,15.4539895 19.1934244,17.3094899 17.7542689,18.7522607 L17.7545,18.7520297 Z M11.4678922,21.3359131 C10.6464373,21.3359131 9.83402785,21.2198709 9.04868882,20.9929291 L19.9956989,10.0475432 C20.2226612,10.8327657 20.3387338,11.6450546 20.3387338,12.4663877 L11.4678922,21.3359131 Z" id="Shape" fill="#000000"></path>
    </g>
</svg>