<svg xmlns="http://www.w3.org/2000/svg" width="24" height="24" viewBox="0 0 24 24">
    <path fill="#4A4A4A" fill-rule="evenodd" d="M15.823 3.1c.256 0 .46.18.46.395v1.549l.1.1h2.657l.153.005c.956.068 1.706.775 1.706 1.627l.001 12.492-.006.133c-.078.835-.877 1.499-1.853 1.499H4.96l-.153-.005C3.85 20.826 3.1 20.12 3.1 19.268V6.776l.006-.133c.078-.836.877-1.5 1.853-1.5h2.658l.1-.1V3.496l.007-.07c.038-.183.224-.325.452-.325.257 0 .46.18.46.395v1.549l.1.1h6.527l.1-.1v-1.55l.007-.07c.039-.182.224-.324.453-.324zm3.977 7.212H4.2l-.1.1v8.79l.007.106c.058.415.453.733.924.733h13.937l.116-.006c.457-.052.815-.403.815-.832l.001-8.791-.1-.1zM12 15.806c.94 0 1.7.67 1.7 1.488s-.76 1.488-1.7 1.488-1.7-.67-1.7-1.488.76-1.488 1.7-1.488zm4.8 0c.94 0 1.7.67 1.7 1.488s-.76 1.488-1.7 1.488-1.7-.67-1.7-1.488.76-1.488 1.7-1.488zm-9.6 0c.94 0 1.7.67 1.7 1.488s-.76 1.488-1.7 1.488-1.7-.67-1.7-1.488.76-1.488 1.7-1.488zm4.8.859c-.383 0-.7.279-.7.63 0 .35.317.629.7.629.383 0 .7-.28.7-.63s-.317-.63-.7-.63zm4.8 0c-.383 0-.7.279-.7.63 0 .35.317.629.7.629.383 0 .7-.28.7-.63s-.317-.63-.7-.63zm-9.6 0c-.383 0-.7.279-.7.63 0 .35.317.629.7.629.383 0 .7-.28.7-.63s-.317-.63-.7-.63zm0-5.094c.94 0 1.7.67 1.7 1.488s-.76 1.488-1.7 1.488-1.7-.67-1.7-1.488.76-1.488 1.7-1.488zm9.6 0c.94 0 1.7.67 1.7 1.488s-.76 1.488-1.7 1.488-1.7-.67-1.7-1.488.76-1.488 1.7-1.488zm-4.8 0c.94 0 1.7.67 1.7 1.488s-.76 1.488-1.7 1.488-1.7-.67-1.7-1.488.76-1.488 1.7-1.488zm-4.8.858c-.383 0-.7.28-.7.63s.317.63.7.63c.383 0 .7-.28.7-.63s-.317-.63-.7-.63zm9.6 0c-.383 0-.7.28-.7.63s.317.63.7.63c.383 0 .7-.28.7-.63s-.317-.63-.7-.63zm-4.8 0c-.383 0-.7.28-.7.63s.317.63.7.63c.383 0 .7-.28.7-.63s-.317-.63-.7-.63zM7.662 6.076H5.03l-.116.007c-.456.048-.815.379-.815.786v2.484l.1.1h15.599l.1-.1.001-2.484-.007-.1c-.058-.393-.454-.693-.924-.693h-2.63l-.1.1v1.557l-.01.071c-.041.163-.222.29-.444.29-.255 0-.454-.166-.454-.361V6.176l-.1-.1H8.769l-.1.1v1.557l-.009.071c-.041.163-.222.29-.445.29-.254 0-.453-.166-.453-.361V6.176l-.1-.1z"/>
</svg>
