<svg xmlns="http://www.w3.org/2000/svg" width="41" height="41" viewBox="0 0 41 41">
    <g fill="none" fill-rule="evenodd">
        <circle cx="20.5" cy="20.5" r="15.375" fill="#FF5D6E"/>
        <path fill="#FFF" fill-rule="nonzero" d="M20.5 11.958c.968 0 1.842.595 2.55 1.765l5.377 9.847c.391.594.615 1.114.615 1.709 0 1.393-1.154 2.396-2.587 2.396h-11.91c-1.414 0-2.587-1.022-2.587-2.396 0-.595.205-1.115.615-1.71l5.378-9.846c.707-1.17 1.581-1.765 2.549-1.765zm0 .93c-.614 0-1.21.446-1.75 1.3l-5.359 9.828-.019.037-.037.037c-.316.464-.446.799-.446 1.17 0 .837.706 1.468 1.656 1.468h11.91c.949 0 1.656-.632 1.656-1.468 0-.372-.13-.706-.446-1.17l-.037-.038-.02-.037-5.36-9.827c-.538-.855-1.134-1.3-1.748-1.3zm1.025 11.028c0 1.367-2.05 1.367-2.05 0 0-1.366 2.05-1.366 2.05 0zm-.295-7.62c.22.175.33.42.286.666v.053l-.659 4.93c-.022.158-.175.263-.351.263-.153 0-.307-.14-.33-.263l-.701-4.93c0-.036 0-.07.021-.106-.022-.228.088-.438.286-.614.395-.316 1.053-.316 1.448 0z"/>
    </g>
</svg>
