<svg xmlns="http://www.w3.org/2000/svg" width="24" height="24" viewBox="0 0 24 24">
    <g fill="none" fill-rule="evenodd">
        <g fill="#4A4A4A" fill-rule="nonzero">
            <path d="M18.268 3c1.371 0 2.519 1.018 2.705 2.356l.02.184.006.19L21 18.27c0 1.37-1.019 2.519-2.356 2.704l-.184.02-.19.006H5.73c-1.37 0-2.519-1.019-2.704-2.356l-.02-.184L3 18.27V5.73c0-1.37 1.019-2.519 2.356-2.704l.184-.02L5.73 3h12.538zm-9.882 8.861L4.28 16.378v1.89c0 .694.494 1.283 1.152 1.42l.144.021.154.008h12.537c.694 0 1.283-.494 1.419-1.152l.022-.143.009-.162.042-1.746-2.538-2.115-3.072 2.563-.156-.003-5.608-5.098zm9.883-7.58H5.731c-.695 0-1.284.494-1.42 1.153l-.022.143-.008.154v8.777l3.937-4.373.167-.008 5.72 5.202 3.042-2.533h.152l2.419 2.048V5.731c0-.75-.571-1.368-1.3-1.442l-.149-.007zm-3.731 2.525c1.465 0 2.656 1.191 2.656 2.656s-1.192 2.656-2.656 2.656c-1.465 0-2.656-1.191-2.656-2.656s1.19-2.656 2.656-2.656zm0 1.253c-.775 0-1.404.63-1.405 1.404 0 .775.63 1.405 1.405 1.405s1.404-.63 1.404-1.405c0-.774-.63-1.404-1.404-1.404z"/>
        </g>
    </g>
</svg>
