<?xml version="1.0" encoding="UTF-8"?>
<svg width="24px" height="24px" viewBox="0 0 24 24" version="1.1" xmlns="http://www.w3.org/2000/svg" xmlns:xlink="http://www.w3.org/1999/xlink">
    <!-- Generator: Sketch 57.1 (83088) - https://sketch.com -->
    <title>cards-weather-partlycloudy</title>
    <desc>Created with Sketch.</desc>
    <g id="cards-weather-partlycloudy" stroke="none" stroke-width="1" fill="none" fill-rule="evenodd">
        <path d="M9.3545539,19.8810409 C9.57121217,19.8810409 9.75185874,20.0416156 9.75185874,20.2342007 L9.75185874,21.6468401 C9.75185874,21.8394253 9.57121217,22 9.3545539,22 C9.13789563,22 8.95724907,21.8394253 8.95724907,21.6468401 L8.95724907,20.2342007 C8.95724907,20.0416156 9.13789563,19.8810409 9.3545539,19.8810409 Z M6.21678702,18.6484452 C6.3391406,18.7707835 6.33913522,18.9844804 6.21678702,19.1068241 L5.26950793,20.0540267 C5.2080717,20.1149324 5.1167071,20.1459108 5.05526146,20.1459108 C4.96336992,20.1459108 4.87199994,20.1154579 4.81109201,20.0540267 C4.6887438,19.9316883 4.6887438,19.7179915 4.81109201,19.5956478 L5.7583711,18.6484452 C5.8807193,18.5261069 6.09443344,18.5261069 6.21678702,18.6484452 Z M12.9507354,18.6484471 L13.8980157,19.5956485 C14.020364,19.7179866 14.020364,19.9316832 13.8980157,20.0540268 C13.8670347,20.1149324 13.7751431,20.1459108 13.6837689,20.1459108 C13.5918773,20.1459108 13.5005072,20.115458 13.4395992,20.0540268 L12.4923189,19.1068254 C12.3699705,18.9844872 12.3699705,18.7707906 12.4923189,18.6484471 C12.6146672,18.5261035 12.8283817,18.5261089 12.9507354,18.6484471 Z M12.2601076,3 C15.097281,3 17.4658798,5.05224241 17.9209026,7.83402681 C19.6965477,8.08387409 21.035316,9.60471885 21.035316,11.4541588 C21.035316,13.3932388 19.5503938,14.9811282 17.6402172,15.1023322 C17.6088135,15.1095744 17.5747178,15.1131954 17.5406244,15.1131954 L12.5732128,15.113834 C12.4449217,17.7871687 11.1619521,19.1492953 8.77555261,19.0545972 C6.92246454,18.8905245 5.94299471,17.5230214 5.84343649,15.0825101 C3.66548646,14.8379817 2,12.9881817 2,10.745495 C2,8.33647684 3.94251747,6.37658592 6.33018083,6.37658592 C6.55808037,6.37658592 6.78956772,6.39650186 7.02194858,6.435429 C7.93713914,4.36418327 9.99441146,3 12.2601076,3 Z M11.8807042,15.1148164 L6.537,15.113 L6.54421619,15.2474255 C6.66482832,17.2402246 7.42573713,18.2402188 8.81974325,18.3640225 C10.7679717,18.4410138 11.7669676,17.4049779 11.8807042,15.1148164 Z M14.336477,16.2966624 L15.6362994,16.6206871 C15.8041812,16.6625373 15.9142431,16.845711 15.8723817,17.013594 C15.8771946,17.0817567 15.8143831,17.155638 15.7360602,17.2026992 C15.6572936,17.2500269 15.5632898,17.2709828 15.4794421,17.2496959 L14.1796196,16.9256713 C14.0117378,16.8838211 13.9016759,16.7006473 13.9435373,16.5327644 C13.9853987,16.3648815 14.1685905,16.254815 14.336477,16.2966624 Z M4.63104089,15.1133829 C4.82362602,15.1133829 4.98420074,15.2940295 4.98420074,15.5106877 C4.98420074,15.727346 4.82362602,15.9079926 4.63104089,15.9079926 L3.21840149,15.9079926 C3.02581636,15.9079926 2.86524164,15.727346 2.86524164,15.5106877 C2.86524164,15.2940295 3.02581636,15.1133829 3.21840149,15.1133829 L4.63104089,15.1133829 Z M12.259786,3.92598067 C10.2445936,3.92598067 8.42597273,5.21236622 7.73505485,7.12780792 C7.65430382,7.35231357 7.41743475,7.47814103 7.18774131,7.41749263 C6.89793709,7.34145155 6.60902867,7.3034287 6.32997411,7.3034287 C4.44935902,7.3034287 2.91856706,8.84691522 2.91856706,10.7453466 C2.91856706,12.5930021 4.35325529,14.1010544 6.18457816,14.1789216 C6.20790582,14.1798269 6.23033768,14.1825427 6.25276955,14.1861638 L17.4609828,14.1863918 C17.4807219,14.1827707 17.5004625,14.1809603 17.5210981,14.1800549 C18.9764128,14.1194019 20.1168638,12.921734 20.1168638,11.4533106 C20.1168638,9.97230327 18.9666049,8.77453807 17.4988179,8.72563929 C17.2682286,8.71839717 17.0798111,8.53915418 17.0564742,8.30740408 C16.8133208,5.80985833 14.7515005,3.92598067 12.259786,3.92598067 Z" id="Combined-Shape" fill="#000000" fill-rule="nonzero"></path>
    </g>
</svg>