<svg xmlns="http://www.w3.org/2000/svg" width="26" height="26" viewBox="0 0 26 26">
    <g fill="none" fill-rule="evenodd">
        <g fill="#4A4A4A">
            <g>
                <g>
                    <path d="M3.695 3.096l.097.028L9.641 5.47l6.613-2.356.302.011 6.028 2.424c.17.069.29.225.32.407l.009.093v16.328c0 .175-.082.34-.222.441-.114.081-.253.112-.386.087l-.098-.028-5.864-2.364-6.554 2.361c-.056.021-.114.032-.172.032l-.086-.008-.087-.026-6.028-2.423c-.17-.07-.29-.225-.32-.406l-.009-.093V3.623c0-.14.053-.274.146-.373l.076-.067c.114-.081.253-.112.386-.087zM15.85 4.375L10.15 6.43V21.62l5.701-2.052V4.375zm-11.729.03V19.58l4.993 2.008V6.414L4.121 4.406zm12.764 0V19.58l4.993 2.008V6.414l-4.993-2.008z" transform="translate(-423 -183) translate(404 167) translate(19 16)"/>
                </g>
            </g>
        </g>
    </g>
</svg>
