<?xml version="1.0" encoding="UTF-8"?>
<svg width="24px" height="24px" viewBox="0 0 24 24" version="1.1" xmlns="http://www.w3.org/2000/svg" xmlns:xlink="http://www.w3.org/1999/xlink">
    <!-- Generator: Sketch 56.3 (81716) - https://sketch.com -->
    <title>menu-report</title>
    <desc>Created with Sketch.</desc>
    <g id="cards-financial-results" stroke="none" stroke-width="1" fill="none" fill-rule="evenodd">
        <path d="M20.5704121,22 L5.10128601,22 C3.94106295,22 3,21.0104753 3,19.790444 L3,3.55186801 C3,3.24739471 3.23526188,3 3.52482604,3 C3.8153837,3 4.05065588,3.24738388 4.05065588,3.55186801 L4.05065588,19.790444 C4.05065588,20.0832797 4.16125001,20.3645048 4.35830365,20.571709 C4.55535728,20.7789132 4.82279953,20.8952085 5.10128601,20.8952085 L20.5704121,20.8952085 C20.8599659,20.8952085 21.0952381,21.1425924 21.0952381,21.448132 C21.0952381,21.7526053 20.8599762,22 20.5704121,22 Z M20.0301537,3.95 C21.1181345,3.95 22,4.88801474 22,6.04638283 C22,7.20365567 21.1181602,8.14168602 20.0301537,8.14168602 C19.8431389,8.14489512 19.6571049,8.11708661 19.478119,8.05718991 L19.4791244,8.05718991 L18.2443119,9.6219794 C18.4655274,9.96854517 18.5841805,10.3771297 18.585186,10.7953251 C18.5711309,11.9461907 17.6972969,12.8756523 16.6153397,12.8916962 C16.0270861,12.8938319 15.4679981,12.6178826 15.0919349,12.1365732 L13.5685301,12.5836559 C13.5262877,13.6928197 12.6675641,14.5688056 11.6248118,14.5677361 C11.1984489,14.5656003 10.784159,14.4190772 10.4422811,14.1484728 L9.47093674,15.2383875 C9.58456143,15.5111332 9.6469057,15.8052637 9.65495004,16.1047609 C9.65495004,16.9518578 9.17429755,17.715551 8.43823407,18.0407046 C7.70219634,18.3647903 6.85452634,18.1850865 6.2914123,17.5861194 C5.72829826,16.9871523 5.55936456,16.0855118 5.86404552,15.3025694 C6.16973041,14.519627 6.8876716,14.0083624 7.68407405,14.0083624 C8.07725561,14.0137018 8.46137603,14.1399134 8.78716533,14.3720142 L9.78566733,13.2543074 C9.70220699,13.0029466 9.6579639,12.7387603 9.65494746,12.4724329 C9.66200074,11.5151534 10.2773863,10.6862241 11.1501906,10.4551939 C12.022995,10.2252453 12.9309885,10.6520111 13.3583553,11.4937686 L13.3583553,11.4948384 L14.6716033,11.1033672 C14.6484766,11.0028256 14.6394268,10.8990777 14.6454599,10.795327 C14.6454599,10.2401975 14.8526048,9.70648017 15.2226444,9.31394111 C15.5916801,8.92139931 16.0924628,8.69999644 16.6153319,8.69999644 C16.8968967,8.70534402 17.1734186,8.77165891 17.4298309,8.8957293 L18.5590502,7.47105018 C18.2372767,7.0753075 18.0603012,6.56940964 18.0603012,6.04637106 C18.0603012,4.88803035 18.942141,3.95 20.0301475,3.95 Z M7.68408178,17.0823702 C8.19186621,17.0823702 8.60414825,16.6448983 8.60414825,16.1047738 C8.60414825,15.5646492 8.19186621,15.1261095 7.68408178,15.1261095 C7.17629734,15.1261095 6.76501923,15.5646492 6.76501923,16.1047738 C6.76501923,16.6448983 7.1762716,17.0823702 7.68408178,17.0823702 Z M11.6238774,13.44996 L11.6248831,13.44996 C12.1326675,13.44996 12.5439456,13.0124882 12.5439456,12.4723636 C12.5439456,11.9322391 12.1326933,11.4936993 11.6248831,11.4936993 C11.1170987,11.4936993 10.7048166,11.9322391 10.7048166,12.4723636 C10.7048166,13.0124882 11.1170729,13.44996 11.6248831,13.44996 L11.6238774,13.44996 Z M16.6144567,11.7739201 L16.6154622,11.7739201 C17.1232466,11.7739201 17.5345247,11.3353804 17.5345247,10.7952558 C17.5345247,10.2551313 17.1232466,9.81765941 16.6154622,9.81765941 C16.1076778,9.81765941 15.6963997,10.2551313 15.6963997,10.7952558 C15.6963997,11.3353804 16.107652,11.7739201 16.6154622,11.7739201 L16.6144567,11.7739201 Z M20.0293753,7.02380318 L20.0303807,7.02380318 C20.5381652,7.02380318 20.9494433,6.58529083 20.9494433,6.04620677 C20.9494433,5.50608223 20.5381909,5.06754249 20.0303807,5.06754249 C19.5225963,5.06754249 19.1113182,5.50605484 19.1113182,6.04620677 C19.1113182,6.58526345 19.5225706,7.02380318 20.0303807,7.02380318 L20.0293753,7.02380318 Z" id="reports-copy" fill="#000000"></path>
    </g>
</svg>