<?xml version="1.0" encoding="UTF-8"?>
<svg width="24px" height="24px" viewBox="0 0 24 24" version="1.1" xmlns="http://www.w3.org/2000/svg" xmlns:xlink="http://www.w3.org/1999/xlink">
    <!-- Generator: Sketch 57.1 (83088) - https://sketch.com -->
    <title>cards-rain status-amount mm</title>
    <desc>Created with Sketch.</desc>
    <g id="cards-rain-status-amount-mm" stroke="none" stroke-width="1" fill="none" fill-rule="evenodd">
        <path d="M20.6040873,3 L2.44056632,3 C2.17605724,3 2,3.1580857 2,3.39558 C2,3.6330743 2.17606359,3.79116 2.44056632,3.79116 L3.80691441,3.79116 L3.80691441,15.23049 L3.80774116,20.41692 C3.80774116,21.2875 4.6012684,22 5.57085287,22 L17.4299587,22 C18.3995432,22 19.1930704,21.2875 19.1930704,20.41692 L19.1930704,15.23125 L19.1930704,3.79192 L20.5594185,3.79192 C20.8239276,3.79192 20.9999887,3.6338343 20.9999887,3.39634 C21.0008116,3.158099 20.8685576,3 20.6040465,3 L20.6040873,3 Z M18.3557601,20.41692 C18.3557601,20.85259 17.9589965,21.20884 17.4737811,21.20884 L5.57087255,21.2080977 C5.0856571,21.2080977 4.68889348,20.8518477 4.68889348,20.4161777 L4.68889348,15.7856877 C5.30636347,15.9437734 6.01143887,16.0625177 6.67271157,16.0625177 C7.59849334,16.0625177 8.52427511,15.904432 9.27399964,15.6268477 C10.5080932,15.1518477 12.5365604,15.1518477 13.770654,15.6268477 C15.0493967,16.1411777 16.9009602,16.2205977 18.3557601,15.8250177 L18.3557601,20.41692 Z M18.3557601,14.95442 C17.1216666,15.35 15.270103,15.31067 14.1236149,14.8750057 C12.668815,14.2812557 10.3766851,14.2812557 8.92188516,14.8750057 C7.77539701,15.3500057 5.92383347,15.3500057 4.68973991,14.95442 L4.68891316,13.29192 L6.54047671,13.29192 C6.80498579,13.29192 6.98104303,13.1338343 6.98104303,12.89634 C6.98104303,12.6588457 6.80497944,12.50076 6.54047671,12.50076 L4.68891316,12.5000179 L4.68891316,11.1143479 L5.83540131,11.1143479 C6.09991039,11.1143479 6.27596763,10.9562622 6.27596763,10.7187679 C6.27596763,10.4812736 6.09990404,10.3231879 5.83540131,10.3231879 L4.68891316,10.3231879 L4.68891316,8.93751786 L6.54047671,8.93751786 C6.80498579,8.93751786 6.98104303,8.77943216 6.98104303,8.54193786 C6.98104303,8.30444356 6.80497944,8.14635786 6.54047671,8.14635786 L4.68891316,8.14561553 L4.68891316,6.80003553 L5.83540131,6.80003553 C6.09991039,6.80003553 6.27596763,6.64194983 6.27596763,6.40445553 C6.27596763,6.16696123 6.09990404,6.00887553 5.83540131,6.00887553 L4.68891316,6.0081332 L4.68891316,3.7919732 L18.3111307,3.7919732 L18.3111307,14.9544732 L18.3557601,14.95442 Z" id="Shape" stroke="#000000" stroke-width="0.4" fill="#000000" fill-rule="nonzero"></path>
    </g>
</svg>