<?xml version="1.0" encoding="UTF-8"?>
<svg width="24px" height="24px" viewBox="0 0 24 24" version="1.1" xmlns="http://www.w3.org/2000/svg" xmlns:xlink="http://www.w3.org/1999/xlink">
    <!-- Generator: Sketch 57.1 (83088) - https://sketch.com -->
    <title>cards-precipitation</title>
    <desc>Created with Sketch.</desc>
    <g id="cards-precipitation" stroke="none" stroke-width="1" fill="none" fill-rule="evenodd">
        <path d="M10.674642,19.6699204 C10.8716093,19.7818181 10.984958,20.0352363 10.8716093,20.2315992 L10.1387496,21.7476826 C10.0815315,21.9155291 9.91317323,22 9.77231971,22 C9.71620591,22 9.66008648,22 9.57535803,21.9440512 C9.37839071,21.8321535 9.26504196,21.5787353 9.37839071,21.3823724 L10.1112504,19.8662889 C10.2234893,19.6699204 10.4776803,19.5569162 10.674642,19.6699204 Z M4.3454395,18.8787782 C4.53904499,18.9919824 4.65045911,19.2483595 4.53904499,19.4470151 L3.79166944,20.9807999 C3.73542798,21.1228591 3.56994322,21.2083333 3.43149378,21.2083333 C3.37633773,21.2083333 3.32117614,21.2083333 3.23789383,21.1517313 C3.04428834,21.0385271 2.93287422,20.78215 3.04428834,20.5834944 L3.7916639,19.0774395 C3.90198707,18.8787782 4.15183955,18.7644546 4.3454395,18.8787782 Z M14.6329753,18.8782537 C14.8299426,18.9901514 14.9432914,19.2435696 14.8299426,19.4399325 L14.0970829,20.956016 C14.0409635,21.1238625 13.9001156,21.2083333 13.730653,21.2083333 C13.6745392,21.2083333 13.6184198,21.2083333 13.5336914,21.1523845 C13.336724,21.0404869 13.2233753,20.7870686 13.336724,20.5907057 L14.0695838,19.0746223 C14.1818226,18.8782537 14.4360136,18.7652496 14.6329753,18.8782537 Z M8.29964197,17.2949204 C8.49660929,17.4068181 8.60995804,17.6602363 8.49660929,17.8565992 L7.76374957,19.3726826 C7.70653153,19.5405291 7.56568364,19.625 7.39731971,19.625 C7.34120591,19.625 7.28508648,19.625 7.20035803,19.5690512 C7.00339071,19.4571535 6.89004196,19.2037353 7.00339071,19.0073724 L7.73625043,17.4912889 C7.84848929,17.2949204 8.10268029,17.1819162 8.29964197,17.2949204 Z M12.2579753,16.5032537 C12.4549426,16.6151514 12.5682914,16.8685696 12.4549426,17.0649325 L11.7220829,18.581016 C11.6659635,18.7499577 11.4965066,18.8333333 11.355653,18.8333333 C11.2995392,18.8333333 11.2434198,18.8333333 11.1586914,18.7773845 C10.961724,18.6654869 10.8483753,18.4120686 10.961724,18.2157057 L11.6945838,16.6996223 C11.8068226,16.5032537 12.0610136,16.3902496 12.2579753,16.5032537 Z M5.92464197,14.9199204 C6.12160929,15.0318181 6.23495804,15.2852363 6.12160929,15.4815992 L5.38874957,16.9976826 C5.33263014,17.1655291 5.16317323,17.25 5.02231971,17.25 C4.96620591,17.25 4.91008648,17.25 4.82535803,17.1940512 C4.62839071,17.0821535 4.51504196,16.8287353 4.62839071,16.6323724 L5.36125043,15.1162889 C5.47348929,14.9199204 5.72768029,14.8069162 5.92464197,14.9199204 Z M16.2163086,14.9199204 C16.413276,15.0318181 16.5266247,15.2852363 16.413276,15.4815992 L15.7090365,16.9976826 C15.6243081,17.1655291 15.4834602,17.25 15.3140145,17.25 C15.2578726,17.25 15.2017531,17.25 15.1170247,17.1940512 C14.9200574,17.0821535 14.8067086,16.8287353 14.9200574,16.6323724 L15.6529171,15.1162889 C15.765156,14.9199204 16.019347,14.8069162 16.2163086,14.9199204 Z M10.674642,14.1282534 C10.8716093,14.2401503 10.984958,14.4935667 10.8716093,14.6899282 L10.1387496,16.1774959 C10.0826301,16.3464365 9.94178225,16.4583333 9.77231971,16.4583333 C9.71620591,16.4583333 9.66008648,16.4583333 9.57535803,16.4023681 C9.37839071,16.2904712 9.26504196,16.0370547 9.37839071,15.8406932 L10.1112504,14.3246205 C10.2234893,14.1282534 10.4776803,14.0152501 10.674642,14.1282534 Z M12.3876495,3 C14.9835667,3 17.150754,4.877732 17.5670843,7.42297011 C19.1917393,7.65157187 20.4166667,9.0430931 20.4166667,10.7352677 C20.4166667,12.50946 19.0580134,13.9623247 17.3102667,14.0732224 C17.2815334,14.0798486 17.250337,14.0831618 17.2191427,14.0831618 L6.81073162,14.0833333 C6.77543076,14.0833333 6.74095163,14.079192 6.7089335,14.070909 C4.62209097,13.9383832 3,12.2039487 3,10.0868644 C3,7.8826948 4.77733741,6.08946127 6.96196818,6.08946127 C7.1704885,6.08946127 7.38229155,6.10768368 7.59491214,6.14330068 C8.43228037,4.24818129 10.3146146,3 12.3876495,3 Z M12.3873552,3.84724082 C10.5435227,3.84724082 8.87954648,5.02423984 8.24738012,6.77680384 C8.17349567,6.98221888 7.95676853,7.09734672 7.74660684,7.0418555 C7.48144584,6.9722805 7.21710447,6.93749088 6.96177903,6.93749088 C5.24108019,6.93749088 3.84045761,8.34972855 3.84045761,10.0867287 C3.84045761,11.7772706 5.15314854,13.1570872 6.82874668,13.2283331 C6.8500907,13.2291613 6.87061509,13.2316462 6.89113948,13.2349594 L6.89101339,13.235168 L17.1462734,13.235168 C17.164334,13.2318549 17.182396,13.2301984 17.2012769,13.22937 C18.5328403,13.1738745 19.5763141,12.0780491 19.5763141,10.7344917 C19.5763141,9.37942033 18.5238664,8.28350592 17.1808912,8.2387652 C16.9699099,8.23213891 16.7975142,8.06813766 16.7761618,7.85609421 C16.5536846,5.5709248 14.6671893,3.84724082 12.3873552,3.84724082 Z" id="Combined-Shape" stroke="#000000" stroke-width="0.3" fill="#000000"></path>
    </g>
</svg>