<?xml version="1.0" encoding="UTF-8"?>
<svg width="24px" height="24px" viewBox="0 0 24 24" version="1.1" xmlns="http://www.w3.org/2000/svg" xmlns:xlink="http://www.w3.org/1999/xlink">
    <!-- Generator: Sketch 57.1 (83088) - https://sketch.com -->
    <title>cards-NDVI</title>
    <desc>Created with Sketch.</desc>
    <g id="cards-NDVI" stroke="none" stroke-width="1" fill="none" fill-rule="evenodd">
        <path d="M3.1412424,8.38722087 C2.9612424,8.56722087 2.9522424,8.84922087 3.1202424,9.01822087 L6.7852424,12.6822209 C6.9542424,12.8512209 7.2362424,12.8422209 7.4162424,12.6622209 L8.2312424,11.8462209 L8.9942424,12.6102209 L7.3642424,14.2402209 C6.3772424,15.2272209 6.3262424,16.7872209 7.2512424,17.7122209 C8.1762424,18.6372209 9.7352424,18.5862209 10.7232424,17.5992209 L12.3532424,15.9692209 L13.1162424,16.7322209 L12.3012424,17.5472209 C12.1212424,17.7272209 12.1122424,18.0102209 12.2812424,18.1792209 L15.9452424,21.8432209 C16.1142424,22.0122209 16.3962424,22.0022209 16.5762424,21.8222209 L18.8582424,19.5402209 C19.0272424,19.3722209 19.0492424,19.1112209 18.9082424,18.9372209 C18.8982424,18.9272209 18.8892424,18.9172209 18.8792424,18.9082209 L15.2152424,15.2442209 C15.0462424,15.0752209 14.7642424,15.0852209 14.5832424,15.2652209 L13.7682424,16.0802209 L13.0052424,15.3172209 L14.6812424,13.6412209 C14.6852424,13.6422209 14.6902424,13.6442209 14.6952424,13.6452209 C15.4832424,13.7522209 16.2912424,13.5572209 16.8652424,12.9832209 C17.0452424,12.8032209 17.0552424,12.5212209 16.8862424,12.3522209 L15.0542424,10.5202209 L15.5432424,10.0312209 C15.6312424,9.94522087 15.6832424,9.82922087 15.6892424,9.70922087 C15.6932424,9.59022087 15.6502424,9.47722087 15.5682424,9.39522087 C15.4862424,9.31322087 15.3732424,9.27022087 15.2532424,9.27422087 C15.1342424,9.27922087 15.0182424,9.33222087 14.9322424,9.42022087 L14.4432424,9.90922087 L12.6112424,8.07722087 C12.4422424,7.90822087 12.1602424,7.91822087 11.9802424,8.09822087 C11.4062424,8.67222087 11.2112424,9.48022087 11.3182424,10.2672209 C11.3192424,10.2732209 11.3212424,10.2772209 11.3222424,10.2822209 L9.6462424,11.9582209 L8.8832424,11.1952209 L9.6982424,10.3802209 C9.8782424,10.1992209 9.8872424,9.91722087 9.7192424,9.74822087 L6.0552424,6.08422087 C6.0442424,6.07222087 6.0332424,6.06122087 6.0212424,6.05122087 C5.8472424,5.91422087 5.5892424,5.93722087 5.4232424,6.10522087 L3.1412424,8.38722087 Z M4.0782424,8.67222087 L5.7082424,7.04222087 L8.7612424,10.0952209 L7.1312424,11.7252209 L4.0782424,8.67222087 Z M15.5772424,3.27022087 C15.4432424,3.42422087 15.4202424,3.64122087 15.5222424,3.80422087 C15.6242424,3.96722087 15.8252424,4.03622087 16.0172424,3.97522087 C16.7662424,3.74222087 18.3552424,4.04122087 19.6392424,5.32422087 C20.9222424,6.60822087 21.2162424,8.19322087 20.9842424,8.94122087 C20.9312424,9.06122087 20.9312424,9.19422087 20.9822424,9.30622087 C21.0342424,9.41922087 21.1332424,9.50122087 21.2552424,9.53222087 C21.3762424,9.56322087 21.5092424,9.53922087 21.6182424,9.46822087 C21.7282424,9.39522087 21.8052424,9.28222087 21.8292424,9.15522087 C22.2142424,7.91222087 21.7552424,6.13722087 20.2902424,4.67322087 C18.8262424,3.20822087 17.0462424,2.74422087 15.8032424,3.12922087 C15.7172424,3.15422087 15.6382424,3.20222087 15.5772424,3.27022087 L15.5772424,3.27022087 Z M14.7262424,5.34322087 C14.5862424,5.49422087 14.5592424,5.71422087 14.6582424,5.88122087 C14.7592424,6.04822087 14.9612424,6.11922087 15.1562424,6.05722087 C15.6592424,5.91022087 16.8642424,6.13622087 17.8462424,7.11722087 C18.8272424,8.09922087 19.0482424,9.30022087 18.9012424,9.80322087 C18.8662424,9.91822087 18.8782424,10.0402209 18.9332424,10.1412209 C18.9892424,10.2422209 19.0842424,10.3152209 19.1982424,10.3422209 C19.3112424,10.3692209 19.4342424,10.3492209 19.5392424,10.2852209 C19.6442424,10.2232209 19.7232424,10.1222209 19.7562424,10.0062209 C20.0522424,8.99722087 19.6532424,7.62122087 18.4972424,6.46622087 C17.3422424,5.31022087 15.9612424,4.90622087 14.9522424,5.20222087 C14.8662424,5.22622087 14.7872424,5.27522087 14.7252424,5.34222087 L14.7262424,5.34322087 Z M12.3502424,9.12022087 L15.8382424,12.6082209 C15.5582424,12.7352209 15.2452424,12.8082209 14.8682424,12.7582209 C14.2912424,12.6802209 13.6502424,12.3762209 13.1192424,11.8452209 C12.5872424,11.3132209 12.2782424,10.6672209 12.2012424,10.0912209 C12.1492424,9.71322087 12.2232424,9.40022087 12.3502424,9.12022087 L12.3502424,9.12022087 Z M14.3482424,7.55222087 C14.1952424,7.70522087 14.1632424,7.93622087 14.2692424,8.10922087 C14.3762424,8.28222087 14.5942424,8.34922087 14.7922424,8.27222087 C15.0432424,8.18122087 15.7072424,8.23922087 16.2162424,8.74722087 C16.7242424,9.25622087 16.7772424,9.91522087 16.6862424,10.1662209 C16.6462424,10.2812209 16.6512424,10.4042209 16.7022424,10.5082209 C16.7512424,10.6132209 16.8422424,10.6902209 16.9542424,10.7232209 C17.1872424,10.7942209 17.4452424,10.6572209 17.5312424,10.4192209 C17.7872424,9.71222087 17.5802424,8.80822087 16.8682424,8.09522087 C16.1552424,7.38322087 15.2462424,7.17222087 14.5392424,7.42822087 C14.4672424,7.45322087 14.4022424,7.49622087 14.3482424,7.55222087 L14.3482424,7.55222087 Z M7.9752424,14.8512209 L11.5972424,11.2292209 C11.7962424,11.6812209 12.0832424,12.1132209 12.4672424,12.4962209 C12.8492424,12.8792209 13.2832424,13.1672209 13.7342424,13.3662209 L10.1122424,16.9882209 C9.4742424,17.6262209 8.5002424,17.6582209 7.9032424,17.0602209 C7.3052424,16.4632209 7.3372424,15.4892209 7.9752424,14.8512209 L7.9752424,14.8512209 Z M13.2382424,17.8322209 L14.8682424,16.2022209 L17.9212424,19.2552209 L16.2912424,20.8852209 L13.2382424,17.8322209 Z" id="Fill-1" fill="#010202"></path>
    </g>
</svg>