<?xml version="1.0" encoding="UTF-8"?>
<svg width="24px" height="24px" viewBox="0 0 24 24" version="1.1" xmlns="http://www.w3.org/2000/svg" xmlns:xlink="http://www.w3.org/1999/xlink">
    <!-- Generator: Sketch 57.1 (83088) - https://sketch.com -->
    <title>cards-weather-excessive</title>
    <desc>Created with Sketch.</desc>
    <g id="cards-weather-excessive" stroke="none" stroke-width="1" fill="none" fill-rule="evenodd">
        <path d="M12.2928401,3.10339937 C15.8982195,6.34535207 19.0434783,10.5902265 19.0434783,14.6597786 C19.0434783,18.7215578 15.8940891,22 12.0218894,22 C8.75705711,22 6.00213672,19.662944 5.21962195,16.4950499 C5.16235469,16.2639568 5.29545511,16.0286319 5.51649059,15.9687589 C5.73752608,15.9088858 5.96260105,16.0480426 6.01987656,16.2791356 C6.70943789,19.0725048 9.1337447,21.1363429 12.0216829,21.1363429 C15.4494574,21.1363429 18.2172025,18.2569103 18.2172025,14.6597786 C18.2172025,11.1636948 15.4114582,7.13818925 12.0216829,4.01326208 C8.63190761,7.13905291 5.82616331,11.1639107 5.82616331,14.6597786 C5.82777621,14.7753273 5.78502093,14.8866592 5.70757694,14.9693133 C5.62932753,15.0511254 5.52364848,15.0975124 5.41312455,15.0975124 C5.30260061,15.0975124 5.19692363,15.0511254 5.11867215,14.9693133 C5.04122816,14.8866613 4.99847246,14.7753273 5.00004172,14.6597786 C5.00004172,10.5904425 8.14555107,6.34556798 11.7507239,3.10253571 C11.8160681,3.04434034 11.8975453,3.0089168 11.9830559,3.0013259 C12.0951969,2.9903812 12.2073296,3.02664832 12.2928401,3.10339937 Z M12.0217183,15.3203125 C12.9104238,15.3203125 13.630862,16.0513476 13.630862,16.953125 C13.630862,17.8549024 12.9104238,18.5859375 12.0217183,18.5859375 C11.1330127,18.5859375 10.4125745,17.8549024 10.4125745,16.953125 C10.4125745,16.0513476 11.1330127,15.3203125 12.0217183,15.3203125 Z M12.0217183,16.2109375 C11.6177612,16.2109375 11.2902893,16.5432262 11.2902893,16.953125 C11.2902893,17.3630238 11.6177612,17.6953125 12.0217183,17.6953125 C12.4256753,17.6953125 12.7531473,17.3630238 12.7531473,16.953125 C12.7531473,16.5432262 12.4256753,16.2109375 12.0217183,16.2109375 Z M9.68118723,13.984375 C9.68118723,15.171875 7.92575767,15.171875 7.92575767,13.984375 C7.92575767,12.796875 9.68118723,12.796875 9.68118723,13.984375 Z M16.1177623,13.984375 C16.1177623,15.171875 14.3623327,15.171875 14.3623327,13.984375 C14.3623327,12.796875 16.1177623,12.796875 16.1177623,13.984375 Z M8.51167567,10.71875 C9.41961024,10.71875 9.6554301,11.4767286 9.66400561,11.5091727 C9.69509152,11.5978355 9.68329984,11.6975028 9.63345482,11.7757425 C9.5836098,11.8539733 9.50107079,11.9003326 9.41316694,11.9003326 L9.41211579,11.9003207 C9.29098695,11.9003207 9.18540656,11.812238 9.15378005,11.6859107 L9.15378005,11.6905467 C9.14038084,11.650562 9.00906649,11.2988141 8.51061628,11.2988141 C8.01163096,11.2988141 7.88030893,11.651145 7.86745251,11.6905467 C7.85083686,11.763563 7.80420801,11.8302047 7.73935514,11.8696123 C7.67450228,11.9084384 7.59731714,11.9171303 7.52657256,11.8922119 C7.45582523,11.8678737 7.3979398,11.8128211 7.3663133,11.7398122 C7.33469091,11.6673759 7.33201123,11.5839262 7.35934572,11.5091727 C7.36899325,11.4767212 7.60428993,10.71875 8.51167567,10.71875 Z M15.5333939,10.71875 C16.4413285,10.71875 16.6771484,11.4767286 16.6857239,11.5091727 C16.7168098,11.5978355 16.7050181,11.6975028 16.6551731,11.7757425 C16.6053281,11.8539733 16.5227891,11.9003326 16.4348852,11.9003326 L16.4338341,11.9003207 C16.3127052,11.9003207 16.2071248,11.812238 16.1754983,11.6859107 L16.1754983,11.6905467 C16.1620991,11.650562 16.0307848,11.2988141 15.5323346,11.2988141 C15.0333492,11.2988141 14.9020272,11.651145 14.8891708,11.6905467 C14.8725551,11.763563 14.8259263,11.8302047 14.7610734,11.8696123 C14.6962206,11.9084384 14.6190354,11.9171303 14.5482908,11.8922119 C14.4775435,11.8678737 14.4196581,11.8128211 14.3880316,11.7398122 C14.3564092,11.6673759 14.3537295,11.5839262 14.381064,11.5091727 C14.3907115,11.4767212 14.6260082,10.71875 15.5333939,10.71875 Z" id="Combined-Shape" fill="#000000" fill-rule="nonzero"></path>
    </g>
</svg>