<?xml version="1.0" encoding="UTF-8"?>
<svg width="24px" height="24px" viewBox="0 0 24 24" version="1.1" xmlns="http://www.w3.org/2000/svg" xmlns:xlink="http://www.w3.org/1999/xlink">
    <!-- Generator: Sketch 59.1 (86144) - https://sketch.com -->
    <title>cards-phenostage</title>
    <desc>Created with Sketch.</desc>
    <g id="cards-phenostage" stroke="none" stroke-width="1" fill="none" fill-rule="evenodd">
        <path d="M18.2870358,3 C19.0648028,3 19.8375855,3.195694 20.54214,3.57104179 L20.7985459,3.71766973 C20.9479314,3.80864463 21.0400083,3.97874343 21.04206,4.16268688 C21.064959,6.1691648 20.1104051,8.05163317 18.5474936,9.07789544 C17.7539352,9.59899047 16.8469311,9.87477947 15.9258877,9.87477947 C15.2250837,9.87477947 14.5267802,9.71478389 13.8765878,9.40616155 L13.7025941,9.2966672 L13.5874993,9.31164116 C12.7108463,9.44980383 11.8724681,10.3155546 11.8033232,12.5448007 L11.7992497,12.8112129 L11.7984401,15.5082582 C14.7649981,15.7073927 17.4689271,17.5380428 18.9586308,20.3705718 C19.0251782,20.4967079 19.0395683,20.6469344 18.9985131,20.7857959 C18.9563028,20.9250899 18.8617127,21.0395124 18.7376562,21.0996457 C18.0009056,21.4601553 16.881501,21.8202911 15.7936167,21.8202911 C14.9240956,21.8202911 14.2226433,21.5682258 13.7149374,21.0702054 C12.5917955,19.9664954 11.5372051,19.9245862 10.617417,20.9363529 C10.3411677,21.239222 10.0142301,21.3954417 9.65091847,21.3954417 C9.37657296,21.3954417 9.1636951,21.3329645 8.78879742,21.1610694 L8.48613038,21.0182269 L8.27352823,20.9247853 C8.11995445,20.8630671 8.01816524,20.8397199 7.91414451,20.8397199 C7.76859898,20.8397199 7.63876551,20.8984213 7.48228016,21.0798466 L7.29019775,21.3205445 C6.90753172,21.7646338 6.41386935,22 5.85651229,22 C5.01320491,22 4.20648335,21.5185985 3.66882714,21.0218049 C3.49282816,20.8600886 3.44893647,20.587056 3.56266753,20.3706577 C5.03651296,17.5689977 7.70227231,15.7444522 10.6412487,15.514248 L10.8376869,15.5024575 L10.8376869,11.9004787 C10.8376869,10.662165 9.99135608,9.62875607 8.89343557,9.48754576 C8.18822131,10.622924 7.03468423,11.3419642 5.78212808,11.4196963 L5.5599672,11.426541 C4.12278072,11.426541 2.78340962,10.5757676 2.06305221,9.20791586 C1.97899251,9.04894222 1.97899251,8.85381435 2.06299275,8.69493023 C2.78381871,7.32746497 4.12330151,6.47619244 5.55912945,6.47619244 C6.91853792,6.47619244 8.1957845,7.24144201 8.86273161,8.4459261 C9.89872845,8.52676035 10.8182678,9.15915427 11.3442577,10.1151221 C11.7827832,9.165313 12.4457292,8.61660043 13.17787,8.36787248 L13.1943944,8.11242081 C13.3466268,6.33175654 14.2622623,4.71693371 15.664614,3.79685646 C16.459378,3.27554493 17.3655851,3 18.2870358,3 Z M11.2604331,16.5248206 C8.58981848,16.5248206 6.0803164,18.0262001 4.61946135,20.4871434 C5.03648039,20.7761662 5.46799767,20.9635629 5.85579465,20.9635629 C6.17688788,20.9635629 6.43429575,20.8252521 6.65063388,20.5337593 C7.00700402,20.0526883 7.43391919,19.804203 7.91342686,19.804203 C8.20800777,19.804203 8.44104118,19.8724638 8.83068719,20.0506113 L9.1310016,20.1922024 L9.32919679,20.2798595 C9.47148954,20.3378258 9.56293754,20.3599247 9.65101584,20.3599247 C9.72985114,20.3599247 9.79475722,20.338689 9.87118216,20.2708763 L10.0878821,20.0474071 C10.6705959,19.4724993 11.3361156,19.1683303 12.024509,19.1683303 C12.8103684,19.1683303 13.5964322,19.552021 14.3619045,20.3035216 C14.6860726,20.6210476 15.1663876,20.7838516 15.7937355,20.7838516 C16.3462645,20.7838516 16.9437528,20.6633309 17.5346678,20.4696699 L17.829339,20.3669638 L17.6736681,20.1229784 C16.1880431,17.8774737 13.7959783,16.5248206 11.2604331,16.5248206 Z M15.2257993,19.1008534 C15.4574342,19.1008534 15.6524432,19.2775739 15.6981585,19.5257473 L15.7063269,19.6195001 L15.7063269,19.6950693 C15.7063269,19.9792402 15.4931712,20.2137161 15.2257993,20.2137161 C14.9943511,20.2137161 14.799219,20.0365242 14.7534424,19.7885853 L14.7452716,19.6950693 L14.7452716,19.6195001 C14.7452716,19.334699 14.9581819,19.1008534 15.2257993,19.1008534 Z M5.94364461,19.1008321 C6.17527954,19.1008321 6.37028859,19.2775527 6.4160039,19.5257261 L6.42417228,19.6194789 L6.42417228,19.6950481 C6.42417228,19.9792189 6.21101652,20.2136948 5.94364461,20.2136948 C5.71219788,20.2136948 5.51706483,20.0365025 5.4712879,19.7885642 L5.46311694,19.6950481 L5.46311694,19.6194789 C5.46311694,19.3346741 5.67601977,19.1008321 5.94364461,19.1008321 Z M8.85753511,18.1875657 C9.08917004,18.1875657 9.28417908,18.3642863 9.3298944,18.6124597 L9.33806278,18.7062125 L9.33806278,18.7817817 C9.33806278,19.066875 9.12574562,19.3004284 8.85753511,19.3004284 C8.62608838,19.3004284 8.43095533,19.1232361 8.3851784,18.8752978 L8.37700743,18.7817817 L8.37700743,18.7062125 C8.37700743,18.4220416 8.5901632,18.1875657 8.85753511,18.1875657 Z M13.1370035,17.058685 C13.3690201,17.058685 13.563772,17.2357044 13.6093982,17.4838556 L13.6175311,17.5773317 L13.6175311,17.6529009 C13.6175311,17.9373608 13.4049615,18.1715477 13.1370035,18.1715477 C12.9055567,18.1715477 12.7104237,17.9943554 12.6646468,17.746417 L12.6564758,17.6529009 L12.6564758,17.5773317 C12.6564758,17.2931592 12.8696309,17.058685 13.1370035,17.058685 Z M10.5072956,16.7370977 C10.7387423,16.7370977 10.9338754,16.91429 10.9796523,17.1622284 L10.9878232,17.2557445 L10.9878232,17.3313137 C10.9878232,17.6154816 10.7746615,17.8499604 10.5072956,17.8499604 C10.2758474,17.8499604 10.0807153,17.6727685 10.0349388,17.4248297 L10.0267679,17.3313137 L10.0267679,17.2557445 C10.0267679,16.9715736 10.2399237,16.7370977 10.5072956,16.7370977 Z M5.55910672,7.5145476 C4.5647953,7.5145476 3.62487297,8.05511614 3.04828444,8.95329728 C3.55088648,9.7353955 4.33125404,10.2487064 5.18263188,10.3655369 L5.36608153,10.3844569 L5.55910672,10.3911821 C6.48771254,10.3911821 7.36848479,9.92044029 7.95003012,9.1279837 L8.06997536,8.95330167 L7.95006505,8.77853569 C7.36863829,7.98568632 6.48739594,7.5145476 5.55910672,7.5145476 Z M4.68566877,8.51914455 L4.82053457,8.60477398 C5.05020699,8.73511108 5.30308035,8.80316971 5.5599623,8.80316971 C5.82748523,8.80321774 6.04046356,9.03786159 6.04046356,9.32277432 C6.04046356,9.60694517 5.8273078,9.84142106 5.55993589,9.84142106 C5.06375822,9.84142106 4.57885083,9.68445849 4.15967197,9.38825123 C3.93922252,9.23270249 3.87604881,8.91651962 4.0155139,8.67737656 C4.15830403,8.43251193 4.46043449,8.35952338 4.68566877,8.51914455 Z M18.2887816,4.0372935 C17.5441288,4.0372935 16.8106028,4.26065327 16.1658964,4.6836344 C14.9754187,5.46463779 14.2119644,6.86600342 14.1380541,8.39527742 C14.696398,8.68563415 15.3095158,8.83728449 15.9262483,8.83728449 C16.6701506,8.83728449 17.4036622,8.61386368 18.0482755,8.19094359 C19.1727248,7.45325761 19.9161093,6.16301503 20.0581637,4.73300601 L20.0769451,4.47928463 L19.8651018,4.37693167 C19.3652763,4.15339654 18.8284126,4.0372935 18.2887816,4.0372935 Z M17.9735278,7.00693666 L18.0102528,7.09121605 C18.0874021,7.31918528 18.0082993,7.58171622 17.8086106,7.71290153 C17.2376734,8.08764354 16.5870193,8.28583421 15.9260252,8.28583421 C15.6580746,8.28583421 15.4454975,8.05164368 15.4454975,7.76718746 C15.4454975,7.48272753 15.6580671,7.24854071 15.9260252,7.24854071 C16.4102311,7.24854071 16.8880957,7.10300073 17.308124,6.82721722 C17.5375376,6.67576637 17.8371219,6.75878267 17.9735278,7.00693666 Z" id="Combined-Shape" fill="#000000"></path>
    </g>
</svg>