<?xml version="1.0" encoding="UTF-8"?>
<svg width="24px" height="24px" viewBox="0 0 24 24" version="1.1" xmlns="http://www.w3.org/2000/svg" xmlns:xlink="http://www.w3.org/1999/xlink">
    <!-- Generator: Sketch 57.1 (83088) - https://sketch.com -->
    <title>cards-rain status-raindate</title>
    <desc>Created with Sketch.</desc>
    <g id="cards-rain-status-raindate" stroke="none" stroke-width="1" fill="none" fill-rule="evenodd">
        <path d="M17.722734,6.37014874 C16.2791826,4.90260156 14.3945647,4.06494833 12.3773946,3.98701782 L12.3773946,3.32467499 C12.3773946,3.14285487 12.2387134,3 12.0622126,3 C11.8857118,3 11.7470306,3.14285819 11.7470306,3.32467499 L11.7470306,3.98701782 C9.72986046,4.06494168 7.84501671,4.90260156 6.40169115,6.37014874 C4.88251999,7.90911006 4.03150013,9.96745295 4,12.1557576 C4,12.3310813 4.132378,12.4804326 4.30887877,12.4869257 C4.47907629,12.4934191 4.62406079,12.3505606 4.63036405,12.1752369 C4.65557867,11.2661363 5.36790599,10.5583451 6.25039371,10.5583451 C7.14550084,10.5583451 7.87674921,11.3115847 7.87674921,12.2336848 C7.87674921,12.4155049 8.01543046,12.5583598 8.19193124,12.5583598 C8.36843523,12.5583598 8.50711326,12.4155016 8.50711326,12.2336848 C8.50711326,11.3116179 9.23832936,10.5583451 10.1334688,10.5583451 C11.0285759,10.5583451 11.7598243,11.3115847 11.7598243,12.2336848 L11.7598243,20.7013133 C11.7598243,21.0584505 11.4761585,21.3506567 11.1294667,21.3506567 C10.7827748,21.3506567 10.4991091,21.0584472 10.4991091,20.7013133 L10.4991091,19.8506606 C10.4991091,19.6688405 10.3604278,19.5259856 10.1839271,19.5259856 C10.0074231,19.5259856 9.86874504,19.6688438 9.86874504,19.8506606 L9.86874504,20.7013133 C9.86874504,21.4155877 10.4360701,22 11.1294602,22 C11.8228503,22 12.3901754,21.4155877 12.3901754,20.7013133 L12.3901754,12.2273679 C12.3901754,11.305301 13.1213915,10.5520282 14.0165309,10.5520282 C14.911638,10.5520282 15.6428864,11.3052678 15.6428864,12.2273679 C15.6428864,12.409188 15.7815677,12.5520429 15.9580684,12.5520429 C16.1345724,12.5520429 16.2732505,12.4091847 16.2732505,12.2273679 C16.2732505,11.305301 17.0044666,10.5520282 17.899606,10.5520282 C18.782126,10.5520282 19.4944291,11.2598194 19.5196356,12.16892 C19.5259392,12.3442437 19.6646201,12.4806088 19.8348177,12.4806088 L19.8411212,12.4806088 C20.0113187,12.474115 20.15,12.3312575 20.15,12.1494407 C20.0932675,9.96761919 19.2422734,7.90914331 17.7231023,6.37014874 L17.722734,6.37014874 Z M17.8803251,9.90262169 C17.054544,9.90262169 16.3359151,10.357172 15.9388069,11.0389975 C15.5479923,10.357172 14.8230698,9.90262169 13.9972887,9.90262169 C13.1715077,9.90262169 12.4528787,10.357172 12.0557706,11.0389975 C11.664956,10.357172 10.9400334,9.90262169 10.1142524,9.90262169 C9.28847136,9.90262169 8.56984241,10.357172 8.17273423,11.0389975 C7.78191962,10.357172 7.0569971,9.90262169 6.23121607,9.90262169 C5.70171698,9.90262169 5.21633744,10.0844418 4.83810998,10.3961372 C5.16589205,9.05196895 5.84669503,7.82469643 6.83007353,6.83108244 C8.22947319,5.40901688 10.08272,4.62977829 12.0495415,4.62977829 C14.0163631,4.62977829 15.8695776,5.41550001 17.2690095,6.83108244 C18.252388,7.82459669 18.9268652,9.05835234 19.2609731,10.3961372 C18.8890715,10.0909416 18.4036919,9.90262169 17.8804864,9.90262169 L17.8803251,9.90262169 Z" id="Shape" stroke="#000000" stroke-width="0.4" fill="#000000" fill-rule="nonzero"></path>
    </g>
</svg>