<svg xmlns="http://www.w3.org/2000/svg" width="24" height="24" viewBox="0 0 24 24">
    <g fill="none" fill-rule="evenodd">
        <g fill="#4A4A4A" fill-rule="nonzero">
            <g>
                <path d="M8.817.467c-2.14 0-4.281.814-5.91 2.444-.026.027-.048.055-.067.085l-.006.006c-3.177 3.266-3.16 8.5.072 11.732 1.075 1.075 2.373 1.8 3.745 2.166.31.081.626-.103.708-.411l1.9-7.225 7.218-1.893c.151-.039.28-.136.358-.27.079-.134.1-.295.06-.444-.367-1.373-1.091-2.67-2.166-3.746-1.63-1.63-3.77-2.444-5.912-2.444zm0 1.155c1.841 0 3.68.704 5.089 2.112.78.78 1.329 1.696 1.676 2.668L8.957 8.145 4.152 3.34c1.344-1.144 3.006-1.719 4.666-1.719zM3.336 4.164l4.798 4.798-1.737 6.631c-.974-.347-1.892-.894-2.674-1.676-2.679-2.679-2.805-6.922-.387-9.753zm15.29 4.527c-.03.004-.06.01-.09.018l-7.484 1.936c-.205.053-.365.213-.418.418L8.698 18.54c-.08.309.103.625.411.708 2.854.765 5.904-.053 7.993-2.142 2.09-2.089 2.9-5.133 2.136-7.987-.073-.272-.33-.453-.611-.43zm-.392 1.295c.416 2.283-.296 4.64-1.955 6.298-1.66 1.66-4.019 2.373-6.304 1.954l1.7-6.552 6.559-1.7z" transform="translate(2 2)"/>
            </g>
        </g>
    </g>
</svg>
