<?xml version="1.0" encoding="UTF-8"?>
<svg width="24px" height="24px" viewBox="0 0 24 24" version="1.1" xmlns="http://www.w3.org/2000/svg" xmlns:xlink="http://www.w3.org/1999/xlink">
    <!-- Generator: Sketch 57.1 (83088) - https://sketch.com -->
    <title>cards-rainstatus</title>
    <desc>Created with Sketch.</desc>
    <g id="cards-rainstatus" stroke="none" stroke-width="1" fill="none" fill-rule="evenodd">
        <path d="M20.8985537,3 C21.0506895,3 21.173913,3.14170859 21.173913,3.31666667 L21.173913,3.31666667 L21.1738249,21.6833333 C21.1738249,21.8582914 21.0506014,22 20.8984655,22 L20.8984655,22 L13.1884029,22 C13.036267,22 12.9130435,21.8582914 12.9130435,21.6833333 C12.9130435,21.5083753 13.036267,21.3666667 13.1884029,21.3666667 L13.1884029,21.3666667 L20.6231943,21.3666667 L20.6231943,20.1 L18.145048,20.1 C17.9929121,20.1 17.8696886,19.9582914 17.8696886,19.7833333 C17.8696886,19.6083753 17.9929121,19.4666667 18.145048,19.4666667 L18.145048,19.4666667 L20.6231943,19.4666667 L20.6231943,18.2 L19.2463974,18.2 C19.0942615,18.2 18.971038,18.0582914 18.971038,17.8833333 C18.971038,17.7083753 19.0942615,17.5666667 19.2463974,17.5666667 L19.2463974,17.5666667 L20.6231943,17.5666667 L20.6231943,16.3 L18.145048,16.3 C17.9929121,16.3 17.8696886,16.1582914 17.8696886,15.9833333 C17.8696886,15.8083753 17.9929121,15.6666667 18.145048,15.6666667 L18.145048,15.6666667 L20.6231943,15.6666667 L20.6231943,14.4 L19.2463974,14.4 C19.0942615,14.4 18.971038,14.2582914 18.971038,14.0833333 C18.971038,13.9083753 19.0942615,13.7666667 19.2463974,13.7666667 L19.2463974,13.7666667 L20.6231943,13.7666667 L20.6231943,12.5 L18.145048,12.5 C17.9929121,12.5 17.8696886,12.3582914 17.8696886,12.1833333 C17.8696886,12.0083753 17.9929121,11.8666667 18.145048,11.8666667 L18.145048,11.8666667 L20.6231943,11.8666667 L20.6231943,10.6 L19.2463974,10.6 C19.0942615,10.6 18.971038,10.4582914 18.971038,10.2833333 C18.971038,10.1083753 19.0942615,9.96666667 19.2463974,9.96666667 L19.2463974,9.96666667 L20.6231943,9.96666667 L20.6231943,8.7 L18.145048,8.7 C17.9929121,8.7 17.8696886,8.55829141 17.8696886,8.38333333 C17.8696886,8.20837525 17.9929121,8.06666667 18.145048,8.06666667 L18.145048,8.06666667 L20.6231943,8.06666667 L20.6231943,6.8 L19.2463974,6.8 C19.0942615,6.8 18.971038,6.65829141 18.971038,6.48333333 C18.971038,6.30837525 19.0942615,6.16666667 19.2463974,6.16666667 L19.2463974,6.16666667 L20.6231943,6.16666667 L20.6231943,4.9 L18.145048,4.9 C17.9929121,4.9 17.8696886,4.75829141 17.8696886,4.58333333 C17.8696886,4.40837525 17.9929121,4.26666667 18.145048,4.26666667 L18.145048,4.26666667 L20.6231943,4.26666667 L20.6231943,3.31666667 C20.6231943,3.14170859 20.7464178,3 20.8985537,3 Z M8.46021959,14.8600224 C8.60035444,14.9396334 8.68099781,15.119931 8.60035444,15.2596358 L8.07895226,16.3382722 C8.03824377,16.4576887 7.91846317,16.5177866 7.81825118,16.5177866 C7.77832832,16.5177866 7.73840145,16.5177866 7.67812033,16.4779811 C7.53798548,16.3983701 7.45734211,16.2180725 7.53798548,16.0783677 L8.05938766,14.9997313 C8.13924139,14.8600224 8.32008874,14.7796242 8.46021959,14.8600224 Z M3.95722969,14.2971545 C4.09497272,14.377695 4.17423968,14.5600976 4.09497272,14.7014336 L3.56324308,15.792664 C3.5232294,15.8937338 3.4054932,15.9545455 3.30699162,15.9545455 C3.26775016,15.9545455 3.22850477,15.9545455 3.16925253,15.9142752 C3.03150949,15.8337347 2.95224253,15.651332 3.03150949,15.509996 L3.56323914,14.4384945 C3.64172993,14.2971545 3.81949059,14.2158175 3.95722969,14.2971545 Z M11.2764251,14.2967813 C11.41656,14.3763923 11.4972033,14.5566899 11.41656,14.6963947 L10.8951578,15.7750311 C10.8552309,15.8944476 10.7550229,15.9545455 10.6344567,15.9545455 C10.5945339,15.9545455 10.554607,15.9545455 10.4943259,15.91474 C10.354191,15.835129 10.2735476,15.6548314 10.354191,15.5151266 L10.8755932,14.4364901 C10.9554469,14.2967813 11.1362943,14.2163831 11.2764251,14.2967813 Z M6.77049627,13.1702991 C6.91063112,13.2499101 6.99127449,13.4302076 6.91063112,13.5699125 L6.38922894,14.6485489 C6.34852045,14.7679654 6.24831247,14.8280632 6.12852786,14.8280632 C6.088605,14.8280632 6.04867813,14.8280632 5.98839701,14.7882578 C5.84826216,14.7086468 5.76761879,14.5283492 5.84826216,14.3886444 L6.36966434,13.3100079 C6.44951807,13.1702991 6.63036542,13.0899009 6.77049627,13.1702991 Z M9.5867018,12.607058 C9.72683665,12.686669 9.80748003,12.8669665 9.72683665,13.0066714 L9.20543448,14.0853078 C9.16550761,14.2055035 9.04494538,14.2648221 8.94473339,14.2648221 C8.90481053,14.2648221 8.86488366,14.2648221 8.80460255,14.2250166 C8.6644677,14.1454057 8.58382432,13.9651081 8.6644677,13.8254033 L9.18586987,12.7467668 C9.26572361,12.607058 9.44657096,12.5266598 9.5867018,12.607058 Z M5.08077295,11.4805758 C5.2209078,11.5601868 5.30155117,11.7404843 5.2209078,11.8801892 L4.69950562,12.9588256 C4.65957875,13.0782421 4.53901653,13.1383399 4.43880454,13.1383399 C4.39888168,13.1383399 4.35895481,13.1383399 4.29867369,13.0985344 C4.15853884,13.0189235 4.07789547,12.8386259 4.15853884,12.6989211 L4.67994102,11.6202846 C4.75979475,11.4805758 4.9406421,11.4001776 5.08077295,11.4805758 Z M12.4029073,11.4805758 C12.5430422,11.5601868 12.6236856,11.7404843 12.5430422,11.8801892 L12.0420023,12.9588256 C11.9817212,13.0782421 11.8815132,13.1383399 11.760959,13.1383399 C11.7210161,13.1383399 11.6810892,13.1383399 11.6208081,13.0985344 C11.4806732,13.0189235 11.4000299,12.8386259 11.4806732,12.6989211 L12.0020754,11.6202846 C12.0819291,11.4805758 12.2627765,11.4001776 12.4029073,11.4805758 Z M8.46021959,10.9173344 C8.60035444,10.9969449 8.68099781,11.1772411 8.60035444,11.316945 L8.07895226,12.3752935 C8.0390254,12.4954884 7.93881741,12.5750988 7.81825118,12.5750988 C7.77832832,12.5750988 7.73840145,12.5750988 7.67812033,12.5352816 C7.53798548,12.4556712 7.45734211,12.2753749 7.53798548,12.1356711 L8.05938766,11.0570423 C8.13924139,10.9173344 8.32008874,10.8369368 8.46021959,10.9173344 Z M9.6789601,3 C11.5258577,3 13.0677301,4.33593581 13.3639335,6.14677715 C14.5198145,6.30941872 15.3913043,7.29943383 15.3913043,8.50335254 C15.3913043,9.76562368 14.4246735,10.7992824 13.1812174,10.8781819 C13.1607748,10.8828963 13.1385797,10.8852534 13.1163861,10.8852534 L5.71119246,10.8853755 C5.68607722,10.8853755 5.66154662,10.8824291 5.63876692,10.876536 C4.15405682,10.7822489 3,9.54826388 3,8.04203793 C3,6.47385401 4.26450883,5.19803568 5.81879159,5.19803568 C5.96714597,5.19803568 6.11783589,5.21100024 6.26910745,5.23634041 C6.86486351,3.88803412 8.2040736,3 9.6789601,3 Z M9.67875077,3.60278003 C8.36693313,3.60278003 7.18307655,4.44017064 6.73331392,5.68705412 C6.68074791,5.8331992 6.52655469,5.91510834 6.37703254,5.87562842 C6.18838044,5.82612842 6.00031148,5.80137691 5.81865702,5.80137691 C4.59444441,5.80137691 3.59795403,6.80613098 3.59795403,8.04194138 C3.59795403,9.24469848 4.53188434,10.2263861 5.7240095,10.2770749 C5.73919497,10.2776642 5.7537973,10.2794321 5.76839963,10.2817893 L13.0645423,10.2819377 C13.0773918,10.2795805 13.0902422,10.278402 13.1036752,10.2778126 C14.0510326,10.2383297 14.7934251,9.45869109 14.7934251,8.50280039 C14.7934251,7.53871802 14.044648,6.75901607 13.0891716,6.72718473 C12.9390663,6.72247037 12.8164133,6.60578964 12.8012218,6.45492869 C12.6429377,4.82911646 11.3007671,3.60278003 9.67875077,3.60278003 Z" id="Combined-Shape" stroke="#000000" stroke-width="0.2" fill="#000000"></path>
    </g>
</svg>