<?xml version="1.0" encoding="UTF-8"?>
<svg width="24px" height="24px" viewBox="0 0 24 24" version="1.1" xmlns="http://www.w3.org/2000/svg" xmlns:xlink="http://www.w3.org/1999/xlink">
    <!-- Generator: Sketch 57.1 (83088) - https://sketch.com -->
    <title>cards-rain status-deficit</title>
    <desc>Created with Sketch.</desc>
    <g id="cards-rain-status-deficit" stroke="none" stroke-width="1" fill="none" fill-rule="evenodd">
        <path d="M12.2928401,3.10339937 C15.8982195,6.34535207 19.0434783,10.5902265 19.0434783,14.6597786 C19.0434783,18.7215578 15.8940891,22 12.0218894,22 C8.75705711,22 6.00213672,19.662944 5.21962195,16.4950499 C5.16235469,16.2639568 5.29545511,16.0286319 5.51649059,15.9687589 C5.73752608,15.9088858 5.96260105,16.0480426 6.01987656,16.2791356 C6.70943789,19.0725048 9.1337447,21.1363429 12.0216829,21.1363429 C15.4494574,21.1363429 18.2172025,18.2569103 18.2172025,14.6597786 C18.2172025,11.1636948 15.4114582,7.13818925 12.0216829,4.01326208 C8.63190761,7.13905291 5.82616331,11.1639107 5.82616331,14.6597786 C5.82777621,14.7753273 5.78502093,14.8866592 5.70757694,14.9693133 C5.62932753,15.0511254 5.52364848,15.0975124 5.41312455,15.0975124 C5.30260061,15.0975124 5.19692363,15.0511254 5.11867215,14.9693133 C5.04122816,14.8866613 4.99847246,14.7753273 5.00004172,14.6597786 C5.00004172,10.5904425 8.14555107,6.34556798 11.7507239,3.10253571 C11.8160681,3.04434034 11.8975453,3.0089168 11.9830559,3.0013259 C12.0951969,2.9903812 12.2073296,3.02664832 12.2928401,3.10339937 Z M15.9551808,17.25 C16.1746095,17.475537 16.3777842,17.7434063 16.3777842,17.9832301 C16.3777842,18.2230539 16.1884514,18.4170259 15.9551808,18.4170259 C15.7219102,18.4170259 15.5325774,18.2229218 15.5325774,17.9832301 C15.5325774,17.7435383 15.7357521,17.4755431 15.9551808,17.25 Z M15.3700376,16.0625 C15.5894663,16.2880431 15.792641,16.5560383 15.792641,16.7957301 C15.792641,17.0354218 15.6033082,17.2295259 15.3700376,17.2295259 C15.136767,17.2295259 14.9474342,17.0355539 14.9474342,16.7957301 C14.9474342,16.5559063 15.1506089,16.288037 15.3700376,16.0625 Z M12.0229848,14.875 C13.3848867,14.875 13.7386164,16.0119679 13.7514797,16.060634 C13.7981086,16.1936282 13.7804211,16.3431292 13.7056535,16.4604887 C13.630886,16.5778349 13.5070775,16.6473739 13.3752217,16.6473739 L13.373645,16.6473561 C13.1919517,16.6473561 13.0335811,16.5152321 12.9861414,16.3257411 L12.9861414,16.332695 C12.9660426,16.2727179 12.769071,15.7450962 12.0213957,15.7450962 C11.2729177,15.7450962 11.0759347,16.2735924 11.0566501,16.332695 C11.0317266,16.4422195 10.9617833,16.542182 10.864504,16.6012935 C10.7672247,16.6595327 10.651447,16.6725704 10.5453301,16.6351929 C10.4392091,16.5986855 10.352381,16.5161066 10.3049412,16.4065933 C10.2575076,16.2979389 10.2534881,16.1727643 10.2944899,16.060634 C10.3089612,16.0119568 10.6619062,14.875 12.0229848,14.875 Z M9.68118723,14.578125 C9.68118723,15.765625 7.92575767,15.765625 7.92575767,14.578125 C7.92575767,13.390625 9.68118723,13.390625 9.68118723,14.578125 Z M16.1177623,14.578125 C16.1177623,15.765625 14.3623327,15.765625 14.3623327,14.578125 C14.3623327,13.390625 16.1177623,13.390625 16.1177623,14.578125 Z" id="Combined-Shape" fill="#000000" fill-rule="nonzero"></path>
    </g>
</svg>