<svg xmlns="http://www.w3.org/2000/svg" width="24" height="24" viewBox="0 0 24 24">
    <g fill="none" fill-rule="evenodd">
        <g fill="#4A4A4A">
            <path d="M3.545 7.124c2.22-2.108 5.68-1.899 7.617.451l.08.105c.195.276.225.515.09.779-.137.268-.361.369-.651.3-.16-.039-.343-.154-.467-.29-1.746-1.94-4.162-2.016-5.995-.184L2.725 9.781c-.792.795-1.16 1.74-1.158 3.048.06 1.45.88 2.647 2.323 3.272 1.495.648 2.938.406 4.174-.689.201-.178.387-.356.641-.61l.48-.49.212-.215.091-.091.131-.13.095-.085c.342-.288.645-.287.918-.019.286.28.265.652-.086 1.014-.454.468-.775.795-1.06 1.076l-.469.451c-2.074 1.946-5.25 1.904-7.24-.09-2.01-2.015-2.04-5.206-.062-7.273l.604-.63.512-.514zM8.91 1.776c1.574-1.471 3.815-1.84 5.738-.95l.204.1c1.81.934 2.91 2.83 2.804 4.882-.067 1.307-.567 2.439-1.491 3.381L15.37 10l-.936.918c-2.209 2.142-5.616 1.987-7.627-.343l-.066-.078-.094-.125c-.22-.33-.174-.715.093-.924.256-.2.626-.152.95.127l.518.46c.494.43.8.646 1.19.804 1.463.592 2.888.303 4.065-.805.176-.165.31-.29.414-.39l.582-.562.817-.862c1.141-1.219 1.406-2.683.757-4.207-.64-1.505-1.872-2.301-3.563-2.35-1.044-.006-1.947.37-2.712 1.104l-.097.095L8.28 4.23c-.375.364-.718.384-1.014.086-.271-.273-.243-.664.106-1.019.436-.444.74-.752 1.004-1.01z" transform="translate(3 3)"/>
        </g>
    </g>
</svg>
