<svg xmlns="http://www.w3.org/2000/svg" width="41" height="41" viewBox="0 0 41 41">
    <g fill="none" fill-rule="evenodd">
        <circle cx="20.5" cy="20.5" r="15.375" fill="#A2A2A2"/>
        <path fill="#F7F7F7" fill-rule="nonzero" d="M17.934 15.375c.41 0 .744.41.744.744v9.147c0 .411-.333.744-.744.744h-.107c-.41 0-.744-.41-.744-.744V16.12c0-.41.334-.744.744-.744h.107zm5.159 0c.41 0 .744.41.744.744v9.147c0 .411-.334.744-.744.744h-.107c-.41 0-.744-.41-.744-.744V16.12c0-.41.333-.744.744-.744h.107z"/>
    </g>
</svg>
