<?xml version="1.0" encoding="UTF-8"?>
<svg width="24px" height="24px" viewBox="0 0 24 24" version="1.1" xmlns="http://www.w3.org/2000/svg" xmlns:xlink="http://www.w3.org/1999/xlink">
    <!-- Generator: Sketch 57.1 (83088) - https://sketch.com -->
    <title>cards-weather-thunderstorm</title>
    <desc>Created with Sketch.</desc>
    <g id="cards-weather-thunderstorm" stroke="none" stroke-width="1" fill="none" fill-rule="evenodd">
        <g id="Group" transform="translate(3.000000, 3.000000)" fill="#000000">
            <path d="M8.81307158,12.2256524 L6.7985372,12.2256524 L7.94907762,8.61557696 C7.97614984,8.52923384 7.96261373,8.44289312 7.91072627,8.37054823 C7.85883882,8.29820335 7.77762909,8.26086957 7.69190078,8.26086957 L4.60801492,8.26086957 C4.49070736,8.26086957 4.38692552,8.3355443 4.35083,8.44988626 L2.49188175,14.2534873 C2.46480954,14.3398304 2.47834564,14.4261712 2.5302331,14.4985161 C2.58212056,14.5708574 2.66333028,14.6081947 2.74905859,14.6081947 L4.55383467,14.6081947 L4.54932279,18.7153053 C4.54932279,18.8389905 4.62828131,18.9510026 4.7410853,18.9859982 C4.76815752,18.992999 4.79297276,19 4.82004382,19 C4.9080268,19 4.9937528,18.9556623 5.04563795,18.8763147 L9.04097905,12.6736519 C9.09737816,12.5873088 9.10188981,12.472962 9.05451516,12.3819544 C9.00488353,12.2862776 8.91464934,12.2256035 8.81313141,12.2256035 L8.81307158,12.2256524 Z M5.09067037,17.7865905 L5.09518226,14.3351839 C5.09518226,14.2605091 5.06585421,14.1858344 5.01622374,14.1321642 C4.9665921,14.0784916 4.89665227,14.0458211 4.82446122,14.0458211 L3.12340923,14.0458211 L4.80182211,8.81858949 L7.31718907,8.81858949 L6.16664865,12.4309351 C6.13957643,12.5172782 6.15311254,12.6036189 6.205,12.6759638 C6.25688746,12.7483087 6.33809718,12.7856425 6.42382549,12.7856425 L8.30760745,12.7856425 L5.09067037,17.7865905 Z" id="Shape" stroke="#000000" stroke-width="0.4"></path>
            <path d="M14.8367676,11.5652174 L3.9764156,11.5652174 C3.93957992,11.5652174 3.90360171,11.560896 3.87019148,11.5522529 C1.69261666,11.413965 0,9.60412036 0,7.39498897 C0,5.09498588 1.85461295,3.22378567 4.13422766,3.22378567 C4.35181409,3.22378567 4.57282597,3.24280036 4.79469092,3.27996593 C5.66846648,1.30245004 7.63264128,0 9.79580814,0 C12.5045913,0 14.7660042,1.95937252 15.2004358,4.61527316 C16.8957279,4.85381412 18.173913,6.30583628 18.173913,8.07158372 C18.173913,9.92291473 16.7561879,11.4389476 14.9324522,11.5546668 C14.9024697,11.5615812 14.8699169,11.5650384 14.8373663,11.5650384 L14.8367676,11.5652174 Z M4.06018788,10.6801753 L14.7613287,10.6801753 C14.7801746,10.6767181 14.7990219,10.6749896 14.8187237,10.6741252 C16.2081812,10.6162169 17.2970234,9.47274693 17.2970234,8.07077391 C17.2970234,6.65678644 16.1988171,5.51322357 14.7974517,5.4665376 C14.5772973,5.45962321 14.3974062,5.28849148 14.3751254,5.06722874 C14.1429753,2.68270413 12.1744584,0.884077379 9.79550113,0.884077379 C7.87150192,0.884077379 6.13517894,2.11225027 5.47552708,3.9410127 C5.39843027,4.15535883 5.17228021,4.27549223 4.95298105,4.21758835 C4.67629131,4.14498835 4.40045683,4.10868614 4.13403029,4.10868614 C2.33851846,4.10868614 0.876999249,5.58232544 0.876999249,7.39484736 C0.876999249,9.1588911 2.2467637,10.5986997 3.99521393,10.6730432 C4.01748595,10.6739074 4.0389027,10.6765004 4.06031946,10.6799576 L4.06018788,10.6801753 Z" id="Shape"></path>
        </g>
    </g>
</svg>