<?xml version="1.0" encoding="UTF-8"?>
<svg width="24px" height="24px" viewBox="0 0 24 24" version="1.1" xmlns="http://www.w3.org/2000/svg" xmlns:xlink="http://www.w3.org/1999/xlink">
    <!-- Generator: Sketch 57.1 (83088) - https://sketch.com -->
    <title>cards-rain status-adequate</title>
    <desc>Created with Sketch.</desc>
    <g id="cards-rain-status-adequate" stroke="none" stroke-width="1" fill="none" fill-rule="evenodd">
        <path d="M12.2928706,3.10339937 C15.898265,6.34535207 19.0435369,10.5902265 19.0435369,14.6597786 C19.0435369,18.7215578 15.8941346,22 12.0219187,22 C8.7570728,22 6.00214091,19.662944 5.21962286,16.4950499 C5.16235537,16.2639568 5.29545634,16.0286319 5.51649275,15.9687589 C5.73752916,15.9088858 5.96260507,16.0480426 6.01988082,16.2791356 C6.70944503,19.0725048 9.13376196,21.1363429 12.0217122,21.1363429 C15.449501,21.1363429 18.2172577,18.2569103 18.2172577,14.6597786 C18.2172577,11.1636948 15.4115017,7.13818925 12.0217122,4.01326208 C8.63192278,7.13905291 5.82616676,11.1639107 5.82616676,14.6597786 C5.82777967,14.7753273 5.78502421,14.8866592 5.70757989,14.9693133 C5.62933016,15.0511254 5.52365067,15.0975124 5.41312627,15.0975124 C5.30260187,15.0975124 5.19692445,15.0511254 5.11867265,14.9693133 C5.04122833,14.8866613 4.99847246,14.7753273 5.00004172,14.6597786 C5.00004172,10.5904425 8.1455642,6.34556798 11.7507521,3.10253571 C11.8160965,3.04434034 11.8975741,3.0089168 11.9830851,3.0013259 C12.0952265,2.9903812 12.2073597,3.02664832 12.2928706,3.10339937 Z M10.5453533,14.8960571 C10.6514706,14.8586796 10.7672488,14.8717173 10.8645285,14.9299565 C10.9618082,14.989068 11.0317518,15.0890305 11.0582832,15.2055089 C11.0759601,15.2576576 11.2729439,15.7861538 12.021425,15.7861538 C12.7691035,15.7861538 12.9660758,15.2585321 12.9861747,15.198555 L12.9861747,15.198555 C13.0336147,15.0160179 13.1919859,14.8838939 13.3736799,14.8838939 L13.3736799,14.8838939 C13.507113,14.8838761 13.630922,14.9534151 13.7056899,15.0707613 C13.7804577,15.1881208 13.7981453,15.3376218 13.7515163,15.470616 C13.7386529,15.5192821 13.3849217,16.65625 12.0230141,16.65625 C10.6619298,16.65625 10.3089833,15.5192932 10.294512,15.470616 C10.2535101,15.3584857 10.2575296,15.2333111 10.3049634,15.1246567 C10.3524033,15.0151434 10.4392318,14.9325645 10.5453533,14.8960571 Z M9.68120679,14.578125 C9.68120679,15.765625 7.92576989,15.765625 7.92576989,14.578125 C7.92576989,13.390625 9.68120679,13.390625 9.68120679,14.578125 Z M16.1178087,14.578125 C16.1178087,15.765625 14.3623718,15.765625 14.3623718,14.578125 C14.3623718,13.390625 16.1178087,13.390625 16.1178087,14.578125 Z" id="Path-2-Copy" fill="#000000" fill-rule="nonzero"></path>
    </g>
</svg>