<?xml version="1.0" encoding="UTF-8"?>
<svg width="24px" height="24px" viewBox="0 0 24 24" version="1.1" xmlns="http://www.w3.org/2000/svg" xmlns:xlink="http://www.w3.org/1999/xlink">
    <!-- Generator: Sketch 57.1 (83088) - https://sketch.com -->
    <title>cards-weather-wind</title>
    <desc>Created with Sketch.</desc>
    <g id="cards-weather-wind" stroke="none" stroke-width="1" fill="none" fill-rule="evenodd">
        <path d="M14.997303,16.3 C16.759822,16.3 18.0996302,17.5453435 18.0996302,19.1987435 C18.124836,20.77813 16.8586993,22 15.1717779,22 L15.1718772,21.9999056 C13.5838828,21.9999056 12.2430322,20.7779398 12.2430322,19.3174541 C12.2430322,18.9338292 12.5658727,18.6232119 12.962375,18.6232119 C13.3598699,18.6232119 13.6817178,18.9347873 13.6817178,19.3174541 C13.6817178,19.916269 14.2769675,20.5871334 15.1456191,20.5871334 C16.0142707,20.5871334 16.6347361,19.9883185 16.6347361,19.1499775 C16.6347361,18.2873007 15.9396163,17.665108 14.9963103,17.665108 L1.7193428,17.6641724 C1.32281575,17.6884986 1,17.3769328 1,16.9942421 C1,16.6106173 1.32284057,16.3 1.7193428,16.3 L14.997303,16.3 Z M19.9819473,6.8 C21.6213029,6.8 22.85,8.01699492 22.85,9.63828712 C22.8245761,11.2596986 21.5232665,12.5 19.8115226,12.5 L2.64866902,12.5 C2.26259798,12.5 1.95,12.1896921 1.95,11.808582 C1.95,11.4265177 2.26356219,11.117164 2.64866902,11.117164 L19.8114262,11.117164 C20.7511485,11.117164 21.4027639,10.4965481 21.4027639,9.63833483 C21.4027639,8.80340417 20.8001306,8.20702514 19.9564439,8.20702514 C19.1127571,8.20702514 18.5346148,8.8751605 18.5346148,9.47153954 C18.5346148,9.8536038 18.2210526,10.1629575 17.8359458,10.1629575 C17.4498747,10.1629575 17.1372768,9.8526496 17.1372768,9.47153954 C17.1372768,8.015993 18.4385791,6.8 19.9819473,6.8 Z M8.69941597,3 C10.2716274,3 11.45,4.21183197 11.45,5.82624604 C11.449097,7.46488915 10.2010943,8.7 8.53666499,8.7 L1.67005318,8.7 C1.2997947,8.7 1,8.39096099 1,8.01146774 C1,7.60784047 1.30071942,7.29884897 1.67005318,7.29884897 L8.53587897,7.29884897 C9.43711252,7.29884897 10.0620393,6.68086598 10.0620393,5.82629355 C10.0620393,4.99490498 9.48408838,4.40105601 8.67495708,4.40105601 C7.86582579,4.40105601 7.31136279,5.06635689 7.31136279,5.66020587 C7.31136279,6.04064927 7.01064337,6.34869062 6.64130961,6.34869062 C6.27105113,6.34869062 5.97125643,6.03969912 5.97125643,5.66020587 C5.97125643,4.21083431 7.21926053,3 8.69941597,3 Z" id="Combined-Shape" fill="#000000" fill-rule="nonzero"></path>
    </g>
</svg>