<svg xmlns="http://www.w3.org/2000/svg" width="31" height="31" viewBox="0 0 31 31">
    <g fill="none" fill-rule="evenodd">
        <circle cx="15.375" cy="15.375" r="15.375" fill="#009BBD"/>
        <g fill="#FFF" stroke="#FFF" stroke-width=".3">
            <path d="M1.724 7.33c1.18 1.431 5.17 5.813 9.776 5.813 4.616 0 8.596-4.38 9.776-5.813-1.182-1.433-5.17-5.814-9.776-5.814-4.616 0-8.597 4.38-9.776 5.813m9.776 7.33C5.247 14.66.35 8.06.146 7.777c-.195-.267-.195-.628 0-.895C.351 6.602 5.247 0 11.5 0c6.253 0 11.148 6.601 11.354 6.882.195.267.195.629 0 .895-.206.281-5.101 6.882-11.354 6.882" transform="translate(4 8)"/>
            <path d="M11.5 4.297c-1.673 0-3.033 1.36-3.033 3.033 0 1.672 1.36 3.033 3.033 3.033 1.672 0 3.033-1.36 3.033-3.033 0-1.673-1.36-3.033-3.033-3.033m0 7.582c-2.509 0-4.55-2.04-4.55-4.55 0-2.508 2.041-4.549 4.55-4.549 2.508 0 4.55 2.041 4.55 4.55 0 2.508-2.042 4.55-4.55 4.55" transform="translate(4 8)"/>
        </g>
    </g>
</svg>
