<svg xmlns="http://www.w3.org/2000/svg" xmlns:xlink="http://www.w3.org/1999/xlink" width="13" height="13" viewBox="0 0 13 13">
    <defs>
        <path id="a" d="M12.634 1.912a1.1 1.1 0 0 0 .002-1.554l-.037-.036a1.097 1.097 0 0 0-1.554.001L6.682 4.687a.29.29 0 0 1-.406 0L1.912.323A1.1 1.1 0 0 0 .358.322L.322.358a1.097 1.097 0 0 0 .001 1.554l4.364 4.364a.29.29 0 0 1 0 .406L.323 11.045A1.1 1.1 0 0 0 .322 12.6l.036.037c.429.428 1.123.43 1.554-.002l4.364-4.363a.29.29 0 0 1 .406 0l4.363 4.363a1.1 1.1 0 0 0 1.554.002l.037-.037a1.097 1.097 0 0 0-.002-1.554L8.271 6.682a.29.29 0 0 1 0-.406l4.363-4.364z"/>
    </defs>
    <use fill="#C3C3C3" fill-rule="nonzero" xlink:href="#a"/>
</svg>
