<?xml version="1.0" encoding="UTF-8"?>
<svg width="24px" height="24px" viewBox="0 0 24 24" version="1.1" xmlns="http://www.w3.org/2000/svg" xmlns:xlink="http://www.w3.org/1999/xlink">
    <!-- Generator: Sketch 57.1 (83088) - https://sketch.com -->
    <title>crops-plum</title>
    <desc>Created with Sketch.</desc>
    <g id="crops-plum" stroke="none" stroke-width="1" fill="none" fill-rule="evenodd">
        <path d="M19.0353433,3 C19.2535409,3 19.4309228,3.1773838 19.4309228,3.39557956 C19.4309228,3.61451822 19.253539,3.79190013 19.0353433,3.79190013 C17.0952405,3.79190013 15.4473995,4.03757208 14.0646869,4.49436876 C14.2480286,4.73362564 14.4594161,5.06178085 14.6684622,5.47738827 C15.1255045,6.38491785 15.4196304,7.43602617 15.4794709,8.62552171 C15.7453371,8.56983465 16.0181081,8.5418949 16.2937204,8.5418949 C18.9100175,8.5418949 21.0000152,11.0364022 21.0000152,14.0830488 C21.0000152,17.1296955 18.9100175,19.6249627 16.2937204,19.6249627 C15.9202568,19.6249627 15.5520098,19.5736609 15.1950692,19.4733406 L15.039,19.423 L14.7974199,19.4953495 C14.4715255,19.5804693 14.134141,19.6249589 13.7897131,19.6249589 C13.5614854,19.6249589 13.3353524,19.6053378 13.1122439,19.5667207 L13.071,19.558 L12.9529237,19.7553595 C12.0984291,21.1148765 10.7269192,21.9999601 9.16872821,21.9999601 C8.79526463,21.9999601 8.42701767,21.9486583 8.07007707,21.848338 L7.914,21.798 L7.67239165,21.8703906 C7.34649724,21.9555103 7.00911272,22 6.66468487,22 C4.07061772,22 2,19.5039727 2,16.4580861 C2,13.4121994 4.07080772,10.9169322 6.66468487,10.9169322 C6.98374777,10.9169322 7.29709341,10.9550405 7.60111161,11.0284409 C7.62580397,10.777669 7.67513615,10.4651059 7.75703167,10.1063722 C7.88582569,9.54304697 8.07348172,8.9797279 8.32834261,8.42830285 C6.53637066,9.18638323 4.13061262,8.55502616 2.84019238,6.19805368 L2.861,6.234 C2.83604282,6.19735025 2.82080943,6.16476339 2.81020237,6.13103253 C2.80850118,6.12278078 2.8062654,6.11511005 2.80427179,6.10740925 C2.79988385,6.09256697 2.79701229,6.07712906 2.79506021,6.06159735 C2.79367199,6.04959205 2.79263865,6.03790993 2.79212584,6.02624025 C2.79177753,6.0146331 2.7918781,6.00254164 2.79252736,5.99047454 C2.79287038,5.97562539 2.79440008,5.96084676 2.79674435,5.94621829 C2.79859198,5.93908627 2.79996293,5.93206004 2.80152494,5.92506825 C2.80479403,5.90625594 2.81021085,5.88779476 2.8169361,5.86980304 C2.82018969,5.86452558 2.82265027,5.85851127 2.82526459,5.85254869 C2.85781204,5.77356981 2.91696432,5.70548953 2.997535,5.66145627 L2.946,5.696 L3.04284611,5.60722847 C4.74391266,4.14225653 8.36547714,4.70840124 9.20884344,6.94769352 C11.0441071,4.47106991 14.2294315,3 19.0353433,3 Z M9.16872821,11.7080514 L9.07492732,11.7105374 C9.57477643,12.0685799 10.0175367,12.5382112 10.3778508,13.0996498 C10.4958578,13.2837026 10.4416774,13.5286332 10.258358,13.6466402 C10.0743052,13.7646472 9.82937459,13.7112097 9.71136762,13.5271474 C8.97739842,12.3827027 7.86261265,11.7080514 6.66472097,11.7080514 C4.5435253,11.7080514 2.79195523,13.8202791 2.79195523,16.4580462 C2.79195523,19.0189696 4.44204276,21.0833811 6.4785542,21.2026017 L6.66472097,21.208041 C8.04526895,21.2079593 9.31062956,20.3092413 10.0060668,18.8597519 C10.1003067,18.6630728 10.3370654,18.5799487 10.5344942,18.6742057 C10.7311733,18.7692056 10.8142974,19.0052043 10.7200404,19.2026331 C10.3196889,20.0361722 9.75048482,20.7219765 9.07479362,21.2059166 L9.16872821,21.208041 C11.3137309,21.208041 13.0831039,19.0958133 13.0831039,16.4580462 C13.0831039,13.8210391 11.3136359,11.7080514 9.16872821,11.7080514 Z M12.8901781,19.5217947 L13.071,19.558 L13.0714415,19.5579597 L12.8901781,19.5217947 Z M16.2937204,9.33305403 L16.1999195,9.33554004 C16.6997686,9.69358249 17.1425289,10.1632138 17.5028429,10.7246524 C17.6208499,10.9087052 17.5666696,11.1536358 17.3833502,11.2716428 C17.1992974,11.3896498 16.9543668,11.3362123 16.8363598,11.15215 C16.1455652,10.0750256 15.1174384,9.41405035 14.0001825,9.34001564 L13.7897131,9.33305403 C12.5661804,9.33299893 11.4311609,10.0393441 10.7033659,11.2161449 C12.5573884,11.9680208 13.875023,14.0389859 13.875023,16.4580462 C13.875023,17.297827 13.7162292,18.0957151 13.4313896,18.8110004 L13.6094347,18.8277706 L13.7897131,18.8330436 C15.1702972,18.8329182 16.4356578,17.9342002 17.1310951,16.4847108 C17.225335,16.2880317 17.4620937,16.2049076 17.6595225,16.2991646 C17.8562015,16.3941645 17.9393257,16.6301632 17.8450687,16.827592 C17.4447172,17.6611311 16.8755131,18.3469355 16.1998219,18.8308755 L16.2937204,18.8330436 C18.438723,18.8330436 20.2080961,16.7208159 20.2080961,14.0830488 C20.2080961,11.4460417 18.438628,9.33305403 16.2937204,9.33305403 Z M13.27975,4.78883356 L13.2087598,4.818184 C11.6656599,5.48171077 10.5054261,6.44600721 9.67937355,7.64908589 C9.10416819,8.48622497 8.73456159,9.38499998 8.52898182,10.283053 C8.4749872,10.5185197 8.43560452,10.7406164 8.4086423,10.946225 L8.403,10.989 L8.65595441,10.9494538 C8.82532275,10.9278063 8.99647057,10.9168923 9.16872821,10.9168923 C9.42490079,10.9168923 9.67602764,10.9408076 9.92064087,10.9868149 C10.7750958,9.47808858 12.2094283,8.5419348 13.789677,8.5419348 C14.0951257,8.5419348 14.3953345,8.5768604 14.6871361,8.64424059 C14.6317048,7.57814377 14.3678557,6.64031266 13.9618993,5.83364624 C13.8015965,5.51598559 13.6308874,5.24286089 13.4609269,5.01501314 C13.3829648,4.9100884 13.3207457,4.83433053 13.27975,4.78883356 Z M3.7025482,6.09444501 C4.94973601,8.06573661 7.14270634,8.37197171 8.52799838,7.42558461 C8.05912316,5.64212367 5.1234594,5.07270788 3.7025482,6.09444501 Z" id="Combined-Shape" fill="#000000"></path>
    </g>
</svg>