<?xml version="1.0" encoding="UTF-8"?>
<svg width="24px" height="24px" viewBox="0 0 24 24" version="1.1" xmlns="http://www.w3.org/2000/svg" xmlns:xlink="http://www.w3.org/1999/xlink">
    <!-- Generator: Sketch 57.1 (83088) - https://sketch.com -->
    <title>crops-potateos</title>
    <desc>Created with Sketch.</desc>
    <g id="crops-potateos" stroke="none" stroke-width="1" fill="none" fill-rule="evenodd">
        <path d="M16.95322,7.46753247 C15.825095,7.46753247 15.02358,7.00486026 14.13286,6.44968519 C13.004735,5.77111377 11.72822,5 9.53125,5 C7.00786,5 3,6.75810701 3,11.477174 C3,15.9803221 6.47339,18.5714286 12.5,18.5714286 C18.79375,18.5714286 22,16.5974026 22,12.7109403 C22,9.7806961 19.77339,7.46753247 16.95322,7.46753247 L16.95322,7.46753247 Z M12.5,17.9545455 C9.175,17.9545455 3.59375,17.1217434 3.59375,11.4773714 C3.59375,7.22097662 7.24536,5.61688312 9.53125,5.61688312 C11.55,5.61688312 12.70786,6.29545455 13.83589,6.97402597 C14.756212,7.56007481 15.646818,8.08441558 16.95303,8.08441558 C19.44678,8.08441558 21.40625,10.1200312 21.40625,12.7111377 C21.40625,16.2272727 18.49697,17.9545455 12.5,17.9545455 Z M9.53125,7.15899221 C8.10625,7.15899221 6.74053,7.83756364 5.90947,8.97880727 C5.850095,9.07133974 5.612595,9.13302805 5.493845,9.04049558 C5.375095,8.94796312 5.3454075,8.73205403 5.43447,8.6086774 C6.38447,7.31322286 7.92822,6.54206961 9.53125,6.54206961 C9.709375,6.54206961 9.828125,6.66544623 9.828125,6.85051117 C9.828125,7.0355761 9.709375,7.15895273 9.53125,7.15895273 L9.53125,7.15899221 Z M5.34536,10.0584416 C5.167235,10.5211138 5.078182,10.9837662 5.078182,11.4772727 C5.078182,11.6623377 4.959432,11.7857143 4.781307,11.7857143 C4.603182,11.7857143 4.484432,11.6623377 4.484432,11.4772727 C4.484432,10.9220779 4.5734945,10.3668831 4.781307,9.81168831 C4.840682,9.65746753 5.018807,9.56493506 5.167235,9.62662338 C5.3156725,9.71915584 5.404735,9.87337662 5.34536,10.0584416 Z M8.28447,9.41072416 C8.551648,9.71916571 8.64072,10.0584416 8.64072,10.5519481 C8.64072,11.0454545 8.52197,11.3847501 8.254792,11.6931719 C8.136042,11.8165486 7.957917,11.8165486 7.839167,11.7240161 C7.720417,11.6006395 7.720417,11.4155745 7.8094795,11.2921979 C7.957917,11.1379771 8.0173015,10.9529023 8.0173015,10.5827725 C8.0173015,10.2434769 8.0173015,10.0275777 7.8094795,9.84251273 C7.6907295,9.74998026 7.720417,9.50321714 7.839167,9.37984052 C7.957917,9.2564639 8.165739,9.28730805 8.284489,9.41068468 L8.28447,9.41072416 Z M12.14375,8.17695792 C12.410928,8.48539948 12.5,8.82467532 12.5,9.31818182 C12.5,9.81168831 12.38125,10.1509839 12.114072,10.4594057 C11.995322,10.5827823 11.817197,10.5827823 11.698447,10.4902499 C11.579697,10.3668732 11.579697,10.1818083 11.6687595,10.0584317 C11.817197,9.90421091 11.8765815,9.7191361 11.8765815,9.34900623 C11.8765815,9.00971065 11.8765815,8.79381143 11.6687595,8.60874649 C11.5500095,8.51621403 11.579697,8.26945091 11.698447,8.14607429 C11.817197,8.02269766 12.025019,8.05354182 12.143769,8.17691844 L12.14375,8.17695792 Z M16.00303,9.41072416 C16.270208,9.71916571 16.35928,10.0584416 16.35928,10.5519481 C16.35928,11.0454545 16.24053,11.3847501 15.973352,11.6931719 C15.854602,11.8165486 15.676477,11.8165486 15.557727,11.7240161 C15.438977,11.6006395 15.438977,11.4155745 15.5280395,11.2921979 C15.676477,11.1379771 15.7358615,10.9529023 15.7358615,10.5827725 C15.7358615,10.2434769 15.7358615,10.0275777 15.5280395,9.84251273 C15.4092895,9.74998026 15.438977,9.50321714 15.557727,9.37984052 C15.676477,9.2564639 15.884299,9.28730805 16.003049,9.41068468 L16.00303,9.41072416 Z M10.06553,13.1120229 C10.332708,13.4204644 10.42178,13.7597403 10.42178,14.2532468 C10.42178,14.7467532 10.30303,15.0860488 10.035852,15.3944706 C9.917102,15.5178473 9.738977,15.5178473 9.620227,15.4253148 C9.501477,15.3019382 9.501477,15.1168732 9.5905395,14.9934966 C9.738977,14.8392758 9.7983615,14.654201 9.7983615,14.2840712 C9.7983615,13.9447756 9.7983615,13.7288764 9.5905395,13.5438114 C9.4717895,13.451279 9.501477,13.2045158 9.620227,13.0811392 C9.738977,12.9577626 9.946799,12.9886068 10.065549,13.1119834 L10.06553,13.1120229 Z M13.62803,14.0373475 C13.895208,14.3457891 13.98428,14.6850649 13.98428,15.1785714 C13.98428,15.6720779 13.86553,16.0113735 13.598352,16.3197953 C13.479602,16.4431719 13.301477,16.4431719 13.182727,16.3506395 C13.063977,16.2272629 13.063977,16.0421979 13.1530395,15.9188213 C13.301477,15.7646005 13.3608615,15.5795257 13.3608615,15.2093958 C13.3608615,14.8701003 13.3608615,14.654201 13.1530395,14.4691361 C13.0342895,14.3766036 13.063977,14.1298405 13.182727,14.0064639 C13.301477,13.8830873 13.509299,13.9139314 13.628049,14.0373081 L13.62803,14.0373475 Z M18.08125,13.4204644 C18.348428,13.728906 18.4375,14.0681818 18.4375,14.5616883 C18.4375,15.0551948 18.31875,15.3944904 18.051572,15.7029122 C17.932822,15.8262888 17.754697,15.8262888 17.635947,15.7337564 C17.517197,15.6103797 17.517197,15.4253148 17.6062595,15.3019382 C17.754697,15.1477174 17.8140815,14.9626426 17.8140815,14.5925127 C17.8140815,14.2532171 17.8140815,14.0373179 17.6062595,13.852253 C17.4875095,13.7597205 17.517197,13.5129574 17.635947,13.3895808 C17.754697,13.2662042 17.962519,13.2970483 18.081269,13.4204249 L18.08125,13.4204644 Z" id="Shape" fill="#000000"></path>
    </g>
</svg>