<?xml version="1.0" encoding="UTF-8"?>
<svg width="24px" height="24px" viewBox="0 0 24 24" version="1.1" xmlns="http://www.w3.org/2000/svg" xmlns:xlink="http://www.w3.org/1999/xlink">
    <!-- Generator: Sketch 57.1 (83088) - https://sketch.com -->
    <title>crops-mushroom</title>
    <desc>Created with Sketch.</desc>
    <g id="crops-mushroom" stroke="none" stroke-width="1" fill="none" fill-rule="evenodd">
        <g id="np_mushroom_2003184_000000" transform="translate(3.000000, 3.000000)" fill="#000000" fill-rule="nonzero">
            <path d="M17.0512821,8.28205128 C17.0512821,8.11172846 17.0265431,7.91666667 17.0027541,7.74634872 C16.7591644,5.72435897 15.5412156,3.84891282 13.5440233,2.46069487 C9.28120282,-0.487228205 5.21349769,-0.609023077 2.65580538,2.14383333 C1.90028744,2.97164872 1.51112846,3.65389487 1.43785667,4.31139231 C1.26753385,5.04216154 1.55965154,6.89393077 1.55965154,6.89393077 C1.68144641,7.59995128 2.21714897,8.16040256 2.87464641,8.64758205 C1.33983615,9.91405385 0.487272051,10.9369359 0.170313077,11.8390949 C-0.170322821,12.5698641 0.170313077,14.932441 0.170313077,14.9572872 C0.316846923,15.8098513 0.974354103,16.3940769 1.68037462,17.0030513 C1.80216949,17.1001072 1.92396436,17.2219021 2.04575923,17.3436872 C2.87357462,18.0992051 3.77563615,18.7567026 4.87188744,18.7567026 C4.99368231,18.7567026 5.1402259,18.7567026 5.26202077,18.7319636 C6.67503615,18.5369018 8.13662333,17.1971533 9.86537974,14.5660918 C9.91390769,14.7849426 9.96243564,14.9562251 10.0357026,15.0285226 C10.6199282,15.7592918 11.4001949,16.5871072 12.4716,16.6118559 L12.5448669,16.6118559 C13.397431,16.6118559 14.2747438,16.0999277 15.2728285,15.0037738 C16.393731,13.7610764 16.8561618,12.8362149 17.0027054,11.4965687 C17.0512333,11.0350879 17.0997613,8.72086359 17.0512333,8.28240205 L17.0512821,8.28205128 Z M2.53284615,6.72346667 C2.50810718,6.62641077 2.50810718,6.5046159 2.48431821,6.33333333 C2.80117974,6.60167179 3.16656436,6.84526154 3.53194897,7.08885128 C3.75079974,7.23538513 4.01912846,7.2591741 4.26271821,7.13737923 C4.50630795,7.01558436 4.65285154,6.79674333 4.6766259,6.55315359 C4.70136487,6.43135872 4.77368179,6.18776897 5.13905667,5.79763564 C5.72328231,5.16391256 6.45405154,4.82327667 7.01450282,4.94507154 C7.20956462,4.99359949 7.37988744,5.11539436 7.50168231,5.28570744 C7.40462641,5.35897436 7.30662051,5.43224128 7.18482077,5.50455821 C6.96597,5.65109205 6.72239,5.8451941 6.35700538,6.08878385 C5.35789769,6.77103 4.48155923,7.40377872 3.72599256,7.98897872 C3.01997205,7.55127231 2.60604,7.16116333 2.53279256,6.72345692 L2.53284615,6.72346667 Z M6.86898718,6.91757846 C7.25912051,6.64924 7.52648462,6.45514769 7.7463,6.3086041 C7.98988974,6.11354231 8.16020769,5.99174256 8.33052564,5.91847077 L8.67116154,5.72340897 L8.57410564,5.35802436 C8.37904385,4.67577821 7.89185949,4.18859872 7.23436205,4.01828077 C7.08782821,3.96975282 6.91750051,3.96975282 6.77193128,3.96975282 C5.99263897,3.96975282 5.11532615,4.40840923 4.43308,5.16295282 C4.11621846,5.50358872 3.92115179,5.82045026 3.82410564,6.11256308 C3.02006462,5.57686051 2.50911077,5.11345538 2.45961333,4.60250154 C2.41108538,4.14007077 2.70320308,3.55487077 3.40922359,2.80032718 C5.60153128,0.437701538 9.20690308,0.608019487 13.0310185,3.26275795 C14.8094185,4.48070667 15.8807749,6.11251436 16.0758903,7.86611692 C16.2709521,9.54649641 15.6619826,11.227899 14.2974903,12.7130656 C13.5914697,13.4685836 13.0310185,13.8577426 12.5676133,13.8339682 C12.0804338,13.8092292 11.5685056,13.3715374 10.9595313,12.6160195 C11.2516441,12.4694856 11.5437569,12.2506349 11.8368441,11.909999 C12.7864544,10.8623682 13.1765877,9.62064513 12.8112031,8.79180667 C12.6646692,8.45117077 12.2507518,7.86597077 11.1793467,7.86597077 L10.8624851,7.86597077 L10.7406903,8.15808359 C10.6674233,8.35314538 10.5703674,8.47494513 10.4485774,8.67001179 C10.3020436,8.88886256 10.1079415,9.15719128 9.86435179,9.64437077 C7.59877231,13.7120759 5.9669159,15.7825887 4.87076205,15.9528579 C4.28653641,16.0499138 3.79935692,15.6122221 3.06858769,14.9052272 C2.94679282,14.7834323 2.82499795,14.6616374 2.67845436,14.5398426 C2.55665949,14.4180477 2.4101159,14.2962528 2.28832103,14.1992067 C1.50902872,13.5169605 1.04562359,13.0783041 1.09512103,12.4940785 C1.12081244,11.3750759 3.02004026,9.5481041 6.86892872,6.91709128 L6.86898718,6.91757846 Z M5.14006026,17.7573221 C4.31224487,17.8791169 3.58147564,17.3919374 2.72891154,16.6126451 C2.60711667,16.4908503 2.46057308,16.3690554 2.33877821,16.2720092 C1.75455256,15.760081 1.24262436,15.2976503 1.14557821,14.8104708 C1.12083923,14.7372038 1.12083923,14.6401479 1.09705026,14.5183579 C1.26737308,14.6648918 1.41391179,14.8104708 1.58422974,14.9570144 C1.70602462,15.0540703 1.82781949,15.1758651 1.94961436,15.2976503 C2.07140923,15.4194354 2.1932041,15.516501 2.31499897,15.6382862 C2.99724513,16.2957836 3.70326564,16.953281 4.62910154,16.953281 C4.72615744,16.953281 4.82416333,16.953281 4.94596308,16.9285421 C6.43225026,16.6849523 8.1374759,14.6629626 10.6454759,10.1080292 C10.8890656,9.66937282 11.0593836,9.40200872 11.2059272,9.20694205 C11.2791941,9.08514718 11.352461,8.98809128 11.4247779,8.86630615 C11.6683677,8.9148341 11.8149113,9.01284 11.8872087,9.18316769 C12.0575315,9.57330103 11.8386808,10.4258651 11.0831677,11.2536805 C10.7425318,11.6438138 10.4989421,11.74086 10.3771472,11.7893831 C10.1335574,11.837911 9.91471641,12.0082338 9.8166959,12.2518138 C9.79195692,12.2765528 9.79195692,12.3250808 9.76816795,12.3488697 C9.71964,12.4706646 9.71964,12.6895056 9.71964,12.9825928 C7.91651564,16.0035928 6.40633231,17.5632979 5.13990923,17.757439 L5.14006026,17.7573221 Z M14.5667397,14.3470656 C13.7626987,15.2481528 13.0804526,15.6620605 12.5209756,15.6382862 C12.0090474,15.6135472 11.4980936,15.2481528 10.8643705,14.4688605 C10.8396315,14.3470656 10.7911036,14.1282246 10.7673146,13.8846349 C11.2792428,14.3965631 11.8387197,14.7619477 12.4971915,14.7857221 C13.2764838,14.810461 14.0805249,14.3470656 14.9815633,13.3489323 C15.3221992,12.9835477 15.6152864,12.5934144 15.8588762,12.2042554 C15.6866509,12.9350246 15.2974749,13.543999 14.5667056,14.34709 L14.5667397,14.3470656 Z" id="Shape"></path>
        </g>
    </g>
</svg>