<?xml version="1.0" encoding="UTF-8"?>
<svg width="24px" height="24px" viewBox="0 0 24 24" version="1.1" xmlns="http://www.w3.org/2000/svg" xmlns:xlink="http://www.w3.org/1999/xlink">
    <!-- Generator: Sketch 57.1 (83088) - https://sketch.com -->
    <title>crops-sorghum</title>
    <desc>Created with Sketch.</desc>
    <g id="crops-sorghum" stroke="none" stroke-width="1" fill="none" fill-rule="evenodd">
        <path d="M15.4101143,13.9460341 L15.4103878,14.9008717 C15.410327,15.0013542 15.4101953,15.1009015 15.4099523,15.2004489 C15.4042802,17.3133658 15.4026596,19.4264453 15.3832934,21.5392809 C15.3818348,21.6934502 15.2511334,21.8463998 15.1804752,22 C15.074569,21.8903901 14.9669611,21.7822439 14.8633237,21.6705199 C14.799229,21.6014853 14.7435614,21.5244819 14.6797907,21.4552033 C13.7089701,20.4006557 12.7473058,19.3371637 11.7568759,18.3014807 C11.5788529,18.1154367 11.2934652,17.9877753 11.0362759,17.9312629 C10.1811661,17.7434299 9.31592753,17.6028399 8.45587489,17.4370428 C8.33862445,17.4144378 8.2291529,17.3510137 8,17.2608376 C8.22469625,17.1468369 8.33076454,17.0724355 8.44858219,17.0363326 C9.46640028,16.7250666 10.483327,16.4094911 11.5086809,16.1245705 C11.6921329,16.0735873 11.9722536,16.0846459 12.1058722,16.1931986 C12.5837062,16.5816306 13.0940332,16.9687615 13.449593,17.4601356 C13.9286425,18.122023 14.2765854,18.8796157 14.6785753,19.5974464 C14.7412925,19.7094143 14.7917742,19.8282939 14.8841485,19.9357896 C14.9640441,18.0280253 15.0697869,16.4306302 15.0697869,14.0989244 C15.3079341,14.0135458 15.1105463,14.0533672 15.4101143,13.9460341 Z M11.3825172,16.465597 C10.7362217,16.6951435 10.0719376,16.8735441 9.4159996,17.0760133 C9.32297714,17.1047168 9.23481648,17.1493576 9.04455799,17.2278246 C9.89415775,17.3897186 10.6334757,17.5189249 11.3662301,17.6787048 C11.5478994,17.7183042 11.743749,17.8227914 11.8718575,17.9564699 C12.5540492,18.6680394 13.2161455,19.3989615 13.8870741,20.1215083 C13.9609734,20.2011137 14.0467842,20.2696605 14.1270039,20.3434114 C14.1637105,20.3113741 14.2003361,20.2794181 14.2369617,20.2473808 C13.6335311,19.4430331 13.031154,18.637791 12.4261838,17.8347444 C12.0742704,17.3676828 11.6679859,17.0275508 11.0280919,17.2587235 C10.9917094,17.2718962 10.9422811,17.2773441 10.9084915,17.263277 C10.8189534,17.226117 10.7346011,17.1761908 10.6482231,17.1313061 C10.7224466,17.0721916 10.788243,16.9818529 10.8721901,16.9589227 C11.5517078,16.7731226 12.1373118,16.873788 12.5628004,17.5095739 C12.7268862,17.7548138 12.9594424,17.953136 13.1340621,18.19244 C13.5863717,18.8122073 14.0236907,19.4428705 14.4670869,20.0691428 C14.4905046,20.0581656 14.5140033,20.0471883 14.537421,20.0362924 L14.1536268,19.2138149 C14.0882266,19.0775043 14.0209086,18.9422267 13.9498723,18.8089548 C13.5085828,17.9807824 12.9866685,17.2136761 12.2337375,16.6288734 C11.9716864,16.4254284 11.7223571,16.344766 11.3825172,16.465597 Z M13.3362572,14.0545455 C13.5431412,14.8762893 13.5940051,14.8960951 14.2884816,14.4850678 L14.3764172,14.5634364 C14.2490979,14.6874747 14.1300698,14.9027747 13.9923864,14.9147358 C13.7733046,14.9336871 13.4946689,14.8741923 13.3279659,14.7431637 C13.132323,14.5895333 13.1001145,14.3239035 13.3362572,14.0545455 Z M14.8860602,13.0181818 C15.1246571,13.1689079 15.0861392,13.3563218 14.9957703,13.5438887 C14.8578302,13.8299777 14.6029373,13.9225382 14.2864816,13.8660542 C14.0454979,13.8229459 13.8805623,13.7011115 13.8594104,13.3820798 C14.5760241,13.8190478 14.6742941,13.7792262 14.8860602,13.0181818 Z M12.3047588,11.1181818 C12.2183411,11.3441521 12.0225484,11.6044652 12.0764979,11.7864734 C12.1297916,11.966794 12.4350413,12.0680503 12.6563329,12.2225505 C12.0113157,13.0751286 12.0154152,13.1081213 12.8253968,13.3744253 C12.6274724,13.5778661 12.446028,13.5889199 12.2137496,13.4115526 C11.9089099,13.1788319 11.8971853,12.8219878 12.1878407,12.3114873 C11.857502,12.1092279 11.6930296,11.8067247 11.8534025,11.4295449 C11.9221103,11.2680411 12.1225765,11.165941 12.3047588,11.1181818 Z M16.0630423,12.3808622 L16.1005989,12.4334246 C16.1273434,12.4708548 16.1548839,12.5033394 16.2214215,12.5780064 C16.4090358,12.7885436 16.4667072,12.8757886 16.4494502,13.0148338 C16.422972,13.2290311 16.154182,13.487872 15.9296354,13.5332533 C15.739355,13.5717754 15.4122119,13.2437783 15.3978464,13.030538 C15.3883771,12.8912185 15.4417725,12.7993965 15.606336,12.5899028 L15.607264,12.5887214 C15.665674,12.5143631 15.6906318,12.4809341 15.7148915,12.4424858 L15.7503056,12.386359 L15.816662,12.3851933 L15.9984501,12.3819984 L16.0630423,12.3808622 Z M15.9405393,12.6288226 L15.911906,12.629326 L15.8849731,12.6297992 C15.8642047,12.6588186 15.8387871,12.6918476 15.8005409,12.7405367 L15.799612,12.7417192 C15.6786994,12.8956442 15.6395903,12.9628985 15.6430598,13.0139458 C15.6452529,13.046499 15.694,13.1247495 15.7635463,13.1944774 C15.7981624,13.2291839 15.8340961,13.2581663 15.8643683,13.2762048 C15.8753385,13.2827416 15.8847098,13.287318 15.891643,13.2898647 C16.0171942,13.2569205 16.1931296,13.0850172 16.2055398,12.9846238 C16.2096816,12.9512517 16.1661553,12.8854053 16.038299,12.7419274 L16.0379292,12.7415125 C15.9930211,12.6911175 15.9640682,12.6579509 15.9405393,12.6288226 Z M13.6032654,10.9426909 C13.7321291,10.9378039 13.8161412,10.9934295 13.9976127,11.1557843 L14.0008459,11.158677 C14.0664645,11.2173898 14.0949673,11.2416743 14.1282318,11.2657156 L14.1846063,11.3064594 L14.183632,11.3797497 C14.1823835,11.4736695 14.1818145,11.515426 14.1810508,11.5676539 L14.1800023,11.6393564 L14.1244124,11.678505 C14.0906675,11.7022696 14.0610016,11.7271618 13.9925306,11.7875992 L13.9920701,11.7880056 C13.9128146,11.857962 13.8522242,11.908376 13.7996824,11.942239 L13.8510592,11.9408429 L13.9172882,11.940585 L13.953699,11.9961685 C13.9780246,12.033303 14.0030237,12.0656209 14.0615172,12.1375295 L14.0624391,12.1386628 C14.228554,12.3428724 14.2824496,12.4321436 14.2739967,12.5698674 C14.2618259,12.7682614 14.0005253,13.0198604 13.7856113,13.0683919 C13.4411298,13.1460803 13.1760818,12.8641508 13.2251519,12.5183705 C13.2435626,12.3883835 13.2995718,12.3048429 13.4532574,12.1271982 L13.4536006,12.1268015 C13.5123525,12.0588904 13.5369704,12.0290673 13.562417,11.9931725 L13.5657256,11.9879091 L13.5085479,11.9697927 C13.3330371,11.8909105 13.155357,11.6525677 13.130536,11.4571602 C13.1053615,11.2595703 13.4058485,10.9501704 13.6032654,10.9426909 Z M13.7881866,12.1868575 L13.723147,12.1871106 C13.7091413,12.2047646 13.6931835,12.2239467 13.6726889,12.2479645 L13.6378782,12.2884281 C13.5175802,12.4274802 13.4764065,12.4888928 13.4673227,12.5530282 C13.4412682,12.7366257 13.5634665,12.8666071 13.7320034,12.8285982 C13.8489695,12.8021851 14.0250673,12.6326255 14.029845,12.5547444 C14.0327559,12.5073171 13.9934707,12.4422461 13.8730343,12.2941904 L13.8721115,12.293056 C13.8342405,12.2464995 13.8089036,12.2147246 13.7881866,12.1868575 Z M15.4077128,11.0195624 C15.6736422,11.168095 15.8128216,11.4120707 15.7324137,11.7378191 C15.6746396,11.9717305 15.5830298,12.2161257 15.2646204,12.1405594 L15.292,12.09 L15.1962007,12.1801427 C15.151472,12.2219876 15.1092922,12.2647538 15.0601859,12.3171891 C15.0486575,12.3294991 14.9672701,12.4177248 14.9451856,12.4408558 C14.8481323,12.5425082 14.7830658,12.5919839 14.7040325,12.6053581 C14.6955337,12.6067963 14.6870173,12.6077152 14.6784132,12.6081064 C14.5700764,12.6129478 14.5120636,12.5543898 14.3747154,12.3691904 L14.3726836,12.3664509 C14.3304864,12.3095577 14.3106765,12.2842109 14.2894014,12.2611625 L14.1930739,12.1568063 L14.2722845,12.0291371 C14.2916068,11.997994 14.3079885,11.9667611 14.3449362,11.8924871 L14.345582,11.8911887 C14.4564912,11.6682355 14.5087268,11.5900844 14.6178263,11.5599531 C14.7032953,11.5363663 14.778359,11.5718278 14.8867068,11.6586989 C14.8887188,11.6603121 15.084924,11.8277952 15.1549469,11.8802704 C15.1646943,11.8875751 15.1744126,11.8947192 15.1841297,11.9017181 L15.3370517,12.0095474 C15.6730376,11.387739 15.5925114,11.2871732 14.893424,11.1632305 C15.0389717,10.9310803 15.1702484,10.8867973 15.4077128,11.0195624 Z M15.9251754,12.5758629 L15.9092486,12.5872426 C15.9139162,12.5937753 15.9185415,12.6001478 15.9231957,12.6064493 L15.9304776,12.5952312 L15.937756,12.5838007 L15.9251754,12.5758629 Z M14.6669878,11.8805325 C14.650455,11.8850985 14.6169626,11.9352074 14.5484727,12.0728882 L14.5285633,12.1127114 L14.5368121,12.1237679 L14.5476282,12.1383308 C14.6260394,12.24406 14.6629531,12.2813206 14.6702225,12.2809958 L14.6735092,12.2806353 C14.6956091,12.2768955 14.7309908,12.2499917 14.7950853,12.18286 C14.8147232,12.1622915 14.8912677,12.079334 14.9071621,12.0622991 C14.8322637,12.0001416 14.7594892,11.9379778 14.7615791,11.9396534 C14.7028636,11.8925764 14.6735411,11.878724 14.6669878,11.8805325 Z M13.7636327,12.1391009 C13.7627947,12.1466834 13.7660031,12.1515018 13.7692179,12.1562692 L13.7723407,12.1519279 L13.7754777,12.1475377 L13.7636327,12.1391009 Z M13.6120114,11.2122243 C13.5886648,11.2131088 13.5224656,11.2550032 13.4627678,11.3164716 C13.4324276,11.3477118 13.4069789,11.3803854 13.3909871,11.408098 C13.3856507,11.4173456 13.3818067,11.4252951 13.379505,11.4312957 C13.4012602,11.5426719 13.5427443,11.7133581 13.6218955,11.7268129 C13.64661,11.7310017 13.7054562,11.6927815 13.834232,11.5791151 C13.8776008,11.5408348 13.9070554,11.5153095 13.9325261,11.4946654 C13.9327269,11.4801173 13.9329413,11.46436 13.9331851,11.4462471 C13.9091683,11.4263539 13.8814403,11.401963 13.8417216,11.3664246 L13.838499,11.3635412 C13.710613,11.2491271 13.6525559,11.2106867 13.6120114,11.2122243 Z M14.0010777,11.4571151 C13.9903017,11.4641365 13.9800056,11.4710451 13.9697137,11.4781878 L13.9860337,11.4896276 L14.0027753,11.5009909 L14.0163951,11.480623 L14.0010777,11.4571151 Z M12.1220518,10.2559912 C12.2695029,10.2909448 12.4701073,10.4651755 12.480347,10.5933389 C12.4904935,10.721592 12.295009,10.8650814 12.1001761,11.1181818 C11.9401581,10.8446469 11.7824672,10.693898 11.791776,10.5535455 C11.7994092,10.4401701 12.0349215,10.2353775 12.1220518,10.2559912 Z M15.8553757,10.0175841 C15.8527466,10.0147873 15.991417,10.1704418 16.0725356,10.2560164 L16.130405,10.3143534 L16.2688739,10.4471644 L16.1182049,10.5584857 C16.1097162,10.5647575 16.1012232,10.5711435 16.0927063,10.5776549 C16.0230644,10.6308979 15.8260298,10.8021455 15.8229048,10.8047 C15.7145081,10.8933103 15.6369345,10.9326741 15.5474955,10.9205053 C15.3709734,10.896447 15.1217602,10.5693562 15.1585679,10.371181 C15.1995908,10.1507239 15.4052873,9.8992814 15.5816464,9.86990241 C15.6752867,9.85425767 15.7490089,9.90443279 15.8553757,10.0175841 Z M15.6142653,10.1647152 C15.5470477,10.1764219 15.4297032,10.3161192 15.4006255,10.4192959 C15.4018655,10.4226251 15.4034472,10.4265096 15.4053729,10.4308327 C15.4168306,10.4565537 15.4361116,10.4881499 15.4596253,10.5190115 C15.5056755,10.5794521 15.5580261,10.6226033 15.574565,10.6248574 C15.5893454,10.6268684 15.6236112,10.6094806 15.687085,10.5575931 C15.6855604,10.5588394 15.7713793,10.484225 15.8524321,10.4160329 C15.7740003,10.3308214 15.6896112,10.2360042 15.6950275,10.241766 C15.6622567,10.2069048 15.6381556,10.1846792 15.6200624,10.172365 C15.6109786,10.1661826 15.6093828,10.1655773 15.6142653,10.1647152 Z M13.236041,9.56363636 C13.3342143,10.4544145 13.3945457,10.4912615 14.1228376,10.1652019 L14.2040816,10.2439754 C14.0774438,10.3511301 13.9678183,10.5005337 13.8205998,10.5566508 C13.5071588,10.6761415 13.2522234,10.5382677 13.091976,10.269857 C12.9510644,10.0340201 12.9447574,9.79584501 13.236041,9.56363636 Z M13.8772208,8.35734659 C14.2010978,8.39483186 14.3531911,8.65682217 14.3018991,9.11469536 C14.7925359,9.16429626 14.9960023,9.32627165 14.9460878,9.6281053 C14.9031419,9.88757491 14.7427835,10.0384917 14.4702795,10.0267827 C14.171846,10.0139352 14.0386326,9.7958539 14.0581608,9.37375841 C13.5685775,9.3724574 13.3104968,9.18283561 13.3290527,8.83782478 C13.3439622,8.55786431 13.6082822,8.32628505 13.8772208,8.35734659 Z M11.8848682,8.00803231 C11.5322125,8.10904059 11.1238868,8.03895151 11.1616319,8.49982261 C11.2041148,9.0191985 11.5815654,8.72050736 11.8661536,8.67358685 C11.3893656,9.50115466 11.3914977,9.5080719 12.1360544,9.75959251 C11.8873951,10.0371152 11.493283,9.91218834 11.3380387,9.51757268 C11.2383065,9.26413524 11.116701,9.02036527 11.0058348,8.7718449 C10.8725427,8.47307042 10.9106825,8.19696446 11.1487607,7.98478041 C11.3504361,7.80501568 11.5803809,7.76126209 11.8848682,8.00803231 Z M14.5019623,9.38733762 C14.4290352,9.38750029 14.2979287,9.49865509 14.2976851,9.56159131 C14.2974425,9.64932798 14.3950837,9.73747121 14.4993693,9.90212992 C14.6046273,9.73828434 14.7022685,9.65119817 14.7028366,9.56338019 C14.7032408,9.5006066 14.5734307,9.38725635 14.5019623,9.38733762 Z M16.0845298,7.81944517 C16.2294609,8.00264309 16.2369833,8.30440025 16.2684101,8.55809063 C16.2894727,8.72859167 16.2125773,8.91178959 16.2379863,9.08072414 C16.297413,9.47614144 16.1304163,9.73890102 15.8351212,9.73636364 C15.8805062,9.51184113 16.0312045,9.22690322 15.9449479,9.06489425 C15.8567689,8.8994225 15.5358978,8.85473606 15.2380952,8.72199588 C15.4039219,8.6768972 15.5445903,8.60013876 15.6781543,8.61060957 C15.9398494,8.63122139 16.0942253,8.54803206 16.087873,8.28593205 C16.0815208,8.02325492 15.9158614,7.8965334 15.6510737,7.89678075 L15.3565309,7.89678075 C15.601426,7.60302097 15.909342,7.59790924 16.0845298,7.81944517 Z M12.7675254,9.04677099 C12.8495145,9.02997052 12.9689161,9.17688046 13.170068,9.3214549 C12.9583292,9.44523594 12.8382907,9.5702224 12.7273268,9.5633666 C12.633716,9.55764088 12.4644045,9.37818474 12.4819963,9.31256497 C12.5116079,9.2026462 12.651467,9.07057793 12.7675254,9.04677099 Z M13.8199326,8.48370691 C13.7047079,8.65861105 13.5770856,8.76846484 13.5784631,8.87677369 C13.5794355,8.96361591 13.7370389,9.04858794 13.8251185,9.1343731 C13.9162773,9.037692 14.0584039,8.95158159 14.0810923,8.84083336 C14.0969742,8.7631795 13.9499047,8.65194339 13.8199326,8.48370691 Z M12.8287433,7.66363646 C13.1616014,7.66479073 13.3350649,7.86390083 13.3624582,8.17339968 C13.3875343,8.45712747 13.0910904,8.73240171 12.8086328,8.71869545 C12.5206303,8.70474297 12.304794,8.46902812 12.3084354,8.11250121 C12.3307804,7.85027665 12.4952232,7.66249267 12.8287433,7.66363646 Z M12.7952258,7.7714041 C12.6777075,7.96854444 12.5440512,8.09272151 12.56201,8.18923985 C12.5823688,8.29880786 12.7383701,8.38358969 12.8352813,8.47920522 C12.9336822,8.36963721 13.0867042,8.27049253 13.1107044,8.14672582 C13.1262631,8.06654009 12.9533789,7.95040621 12.7952258,7.7714041 Z M14.5166178,6.8 C14.8017556,7.03662488 14.7361479,7.27877337 14.6332536,7.49366012 C14.4872913,7.7982612 14.2184088,7.88574825 13.9207025,7.81135753 C13.6859226,7.75273585 13.4958028,7.61918891 13.5162476,7.29204789 C14.3417478,7.7015087 14.4154831,7.66872333 14.5166178,6.8 Z M15.2814433,6.28181818 C15.4371621,6.38707194 15.6916108,6.47036175 15.7259405,6.60253907 C15.7814813,6.81564447 15.759248,7.09582259 15.6457811,7.28373637 C15.5134882,7.50266734 15.2326321,7.56470172 14.893424,7.38899013 C15.7416146,7.02623072 15.7416146,7.02623072 15.2161913,6.37573571 C15.2379988,6.34440363 15.2597211,6.31315027 15.2814433,6.28181818 Z M11.9977286,6.10965606 C12.2964253,6.1219218 12.5113857,6.3511968 12.5019674,6.64769749 C12.4927073,6.9397951 12.2552695,7.16883421 11.9660702,7.16458838 C11.6731511,7.16042117 11.447506,6.93075304 11.4467121,6.63613939 C11.4458439,6.31605074 11.6756046,6.0964468 11.9977286,6.10965606 Z M13.584109,5.96907956 L13.6968603,6.12382069 C13.7105753,6.14264321 13.7248614,6.16153293 13.7398476,6.18070628 C13.7894823,6.24420909 13.9511644,6.43090132 13.973227,6.45862341 C14.0635023,6.57205604 14.1025257,6.65460244 14.0818679,6.74768666 C14.0419581,6.9282818 13.7601776,7.12230083 13.5290348,7.15373714 C13.3317475,7.18063356 13.0278818,6.87988517 13.0317563,6.69565206 C13.0318851,6.68931131 13.0322566,6.68297387 13.0328673,6.67664068 C13.041693,6.58511421 13.0919857,6.50884894 13.1957901,6.39845424 C13.2211552,6.37147872 13.3194786,6.2711347 13.3225398,6.26797057 C13.3762754,6.2124278 13.4187879,6.16604491 13.4598278,6.11714959 L13.584109,5.96907956 Z M11.9662285,6.3511968 C11.8566905,6.36542821 11.7672556,6.53172334 11.6689563,6.63134317 C11.7789692,6.73426531 11.8787722,6.89953831 12.0023982,6.9196667 C12.0953155,6.93484162 12.2190206,6.76351439 12.41554,6.60578954 C12.2026374,6.47692064 12.0742627,6.33720128 11.9662285,6.3511968 Z M13.5683441,6.39802984 C13.5599129,6.4068795 13.5512495,6.41589827 13.5423155,6.42513278 C13.5375913,6.43001585 13.4413119,6.52827388 13.4180967,6.55296298 C13.3484592,6.62702166 13.3203922,6.66958327 13.3177536,6.69694592 L13.31757,6.70001867 C13.3172241,6.71669583 13.3549043,6.77749545 13.4115803,6.83359 C13.4404998,6.86221279 13.4707709,6.88644299 13.4958048,6.90150105 C13.4994486,6.90369276 13.5027824,6.90556868 13.5057226,6.90712098 C13.6255532,6.8804336 13.7867825,6.76627551 13.8010488,6.70171916 C13.8028847,6.69344658 13.7870072,6.65986065 13.737303,6.59740642 C13.7246976,6.58156757 13.6369066,6.47983662 13.5683441,6.39802984 Z M13.7564167,5.41837412 C14.0734832,5.41121953 14.2846309,5.60439347 14.3566522,5.88233376 C14.4145281,6.10575917 14.3558759,6.30258818 14.0385507,6.45454545 C14.178712,5.68286067 14.178712,5.68286067 13.2231137,5.71972236 C13.2054318,5.68433824 13.1877499,5.64895413 13.170068,5.61357001 C13.3653451,5.54451266 13.5592421,5.42280686 13.7564167,5.41837412 Z M14.6895949,5.07279631 C14.9751317,5.06880938 15.1714721,5.23771712 15.2233809,5.52799615 C15.265697,5.76475834 15.2317358,5.97690891 14.9200512,6.10909091 C15.0701302,5.30311807 15.063013,5.29568092 14.2484864,5.3406872 L14.2040816,5.24285412 C14.365842,5.18266684 14.5269835,5.07509646 14.6895949,5.07279631 Z M12.30839,4.84241797 C12.0631678,4.96532889 11.7560216,5.02389459 11.6854793,5.18132844 C11.61374,5.34138234 11.7751733,5.59891731 11.8684583,5.93636364 C11.6881126,5.77122377 11.4612442,5.66025718 11.4500723,5.53172087 C11.4312398,5.31618368 11.4918072,5.04624203 11.6257098,4.87879035 C11.7809188,4.68467588 12.0508788,4.68205583 12.30839,4.84241797 Z M13.8743883,3.69153642 C14.2030685,3.67778542 14.4333557,3.8911892 14.4528062,4.22433508 C14.4743269,4.59314757 14.2469153,4.79559632 13.7776518,4.84537374 L13.7082196,4.85273881 L13.6667553,4.79614708 C13.6550737,4.7802037 13.6389718,4.76114535 13.6137505,4.73312111 C13.6170804,4.73682115 13.6005732,4.71866839 13.5816827,4.69777801 L13.5822967,4.7173477 C13.5835688,4.78093297 13.5841458,4.8091733 13.5849111,4.84442916 L13.5864046,4.91322528 L13.5389786,4.95610495 C13.5100895,4.98222468 13.4844857,5.00967412 13.4255568,5.07605928 C13.2502671,5.27352825 13.1813681,5.33160268 13.0573086,5.31399065 C12.930804,5.29603432 12.8545613,5.22862686 12.6919861,5.03994018 L12.6911483,5.03896787 C12.6329205,4.9713875 12.6073063,4.94300114 12.5767308,4.91381485 L12.4807256,4.82217179 L12.5641435,4.71583536 C12.5827486,4.69211866 12.5991885,4.66837967 12.626279,4.62609707 L12.6578057,4.57629222 C12.7952752,4.35742514 12.857298,4.28378283 12.9807973,4.26534517 C13.1058079,4.24663428 13.1900786,4.29307642 13.3838806,4.44044494 L13.3949602,4.45054088 C13.3723435,4.40705367 13.3562072,4.36331736 13.3461415,4.31668425 C13.270447,3.96540148 13.5098783,3.70668744 13.8743883,3.69153642 Z M13.0126513,4.53981962 C12.9938381,4.54262831 12.9622319,4.57624991 12.904676,4.6622916 L12.8560267,4.73764404 C12.8425394,4.75911743 12.8309247,4.77748154 12.8205598,4.79361996 C12.8336087,4.80844587 12.8483165,4.825405 12.865555,4.84541236 L12.8663922,4.84638401 C12.9857221,4.98487965 13.0395477,5.03246777 13.0875833,5.03928605 C13.0869152,5.0391912 13.1017561,5.0323774 13.1284803,5.00985178 C13.1595946,4.98362574 13.1881364,4.95344726 13.2536128,4.87968619 C13.2915189,4.8369838 13.3172761,4.80849855 13.3396693,4.78535846 C13.3393937,4.77182448 13.3390829,4.75639895 13.3387081,4.73769812 C13.3148228,4.72082209 13.2870154,4.70002832 13.24834,4.67061925 C13.1111762,4.56631888 13.0523192,4.53388236 13.0126513,4.53981962 Z M13.3990018,4.74336799 L13.3739133,4.76388762 L13.3959063,4.77638129 L13.418345,4.78855316 L13.4250051,4.77600873 L13.3990018,4.74336799 Z M13.884476,3.93709429 C13.6615247,3.94636135 13.5434513,4.07394389 13.5845123,4.26449988 C13.5982415,4.32810573 13.6412872,4.39584667 13.7211039,4.48671536 C13.737841,4.50577006 13.7994196,4.57354748 13.7944565,4.56803288 L13.8166013,4.59297967 C14.1187073,4.54976131 14.2213061,4.44462383 14.2092939,4.238763 C14.1976055,4.03856673 14.079309,3.92894306 13.884476,3.93709429 Z M13.3082646,3.04541565 C13.5412658,3.1274231 13.7337379,3.28984905 13.6770798,3.60649137 C13.4468081,3.48679051 13.2200103,3.26892788 13.0267111,3.29876482 C12.8578948,3.32480594 12.7267954,3.62979596 12.5789881,3.81155413 L12.4807256,3.86363636 C12.5148032,3.6723445 12.5085998,3.45748322 12.5918913,3.29479245 C12.7440824,2.9973058 13.0304332,2.94778354 13.3082646,3.04541565 Z" id="Combined-Shape" fill="#000000"></path>
    </g>
</svg>