<?xml version="1.0" encoding="UTF-8"?>
<svg width="24px" height="24px" viewBox="0 0 24 24" version="1.1" xmlns="http://www.w3.org/2000/svg" xmlns:xlink="http://www.w3.org/1999/xlink">
    <!-- Generator: Sketch 57.1 (83088) - https://sketch.com -->
    <title>crops-oats</title>
    <desc>Created with Sketch.</desc>
    <g id="crops-oats" stroke="none" stroke-width="1" fill="none" fill-rule="evenodd">
        <path d="M14.8010609,3 C14.6221291,3 14.477202,3.14170844 14.477202,3.31666633 L14.477202,4.33632177 C13.9064019,4.47565496 13.3712315,4.73056882 12.9064914,5.08365431 C12.624729,4.55165488 12.2360983,4.08061751 11.7632746,3.69982752 C11.645875,3.6087857 11.4790871,3.6087857 11.3616895,3.69982752 C10.8888659,4.07903672 10.4994061,4.54928368 10.2184728,5.08049271 C9.75373262,4.72819762 9.21856224,4.47407416 8.6477622,4.33632177 L8.6477622,3.31666633 C8.6477622,3.14170844 8.50283508,3 8.32390328,3 C8.14497149,3 8.0000087,3.14170844 8.0000087,3.31666633 L8.0000087,5.2166643 C7.99842518,5.91491102 8.21297254,6.5965391 8.61538667,7.17365208 C8.53847096,7.15227685 8.46074482,7.13565212 8.38220825,7.12298547 C8.2882902,7.10556872 8.19113046,7.13011041 8.11665431,7.18948438 C8.04297614,7.249652 8.0000087,7.33910897 8.0000087,7.43331239 L8.0000087,8.06664505 C7.9984459,8.76489177 8.21299326,9.44651984 8.6154074,10.0236328 C8.53849168,10.0022576 8.46076554,9.98563287 8.38222898,9.97296622 C8.28831093,9.95554947 8.19115118,9.98009116 8.11667503,10.0394651 C8.04299687,10.0996327 8.00008582,10.1890897 8.00008582,10.2832931 L8.00008582,10.9166258 C7.99927623,11.6172437 8.21626813,12.3020334 8.62189494,12.879957 L8.38224971,12.8166238 C8.28833166,12.799207 8.19117191,12.8237487 8.11669576,12.8831227 C8.0405884,12.9448731 7.99767735,13.0367053 8.00010655,13.1332942 L8.00010655,13.7666268 C7.99929695,14.4609215 8.21222637,15.1401581 8.61219472,15.7141298 C8.53770613,15.6951298 8.45997999,15.6792955 8.38224971,15.6666288 C8.28833166,15.6492121 8.19117191,15.6737538 8.11669576,15.7331278 C8.0405884,15.7948782 7.99767735,15.8867104 8.00010655,15.9832992 L8.00010655,16.6166319 C7.99605837,17.4882597 8.32719887,18.3290012 8.92635341,18.9742507 C9.52629558,19.6194596 10.3513326,20.0208405 11.2386543,20.100002 L11.2386543,21.6833337 C11.2386543,21.8582916 11.3835814,22 11.5625132,22 C11.741445,22 11.8863721,21.8582916 11.8863721,21.6833337 L11.8863721,20.100002 C12.7737351,20.0208365 13.5987722,19.6194596 14.1986729,18.9742507 C14.7978067,18.3290418 15.1289615,17.4883003 15.1249198,16.6166319 L15.1249198,15.9832992 C15.1249198,15.8890917 15.0820087,15.7996327 15.0083306,15.7394712 C14.933842,15.680096 14.8366864,15.6555551 14.7427766,15.6729723 C14.6650505,15.6729723 14.5873243,15.7014713 14.5128316,15.7204733 C14.9136083,15.1441304 15.1273448,14.463313 15.1249198,13.7666471 L15.1249198,13.1333144 C15.1249198,13.0391069 15.0820087,12.9496479 15.0083306,12.8894864 C14.933842,12.8301112 14.8366864,12.8055703 14.7427766,12.8229875 L14.5031314,12.8736541 C14.9079499,12.2981219 15.124991,11.6157034 15.124991,10.9166663 L15.124991,10.2833337 C15.124991,10.1891262 15.0820295,10.0996672 15.0083513,10.0395057 C14.9338627,9.98013047 14.8367071,9.95558959 14.7427974,9.97300675 C14.6642608,9.9856734 14.5865346,10.0022981 14.5096189,10.0236734 C14.9120123,9.44654011 15.1265779,8.7649323 15.124991,8.06668558 L15.124991,7.43335292 C15.124991,7.33914545 15.0820502,7.24968645 15.008372,7.18952492 C14.9338834,7.13014973 14.8367278,7.10560885 14.7428181,7.123026 C14.6642815,7.13569266 14.5865554,7.15231738 14.5096397,7.17369261 C14.9120331,6.59655936 15.1265987,5.91495156 15.124991,5.21670484 L15.124991,3.31670686 C15.124991,3.23279079 15.0909773,3.15204037 15.0302535,3.0926591 C14.9695297,3.03327783 14.8869451,3 14.8011168,3 L14.8010609,3 Z M14.4772061,4.98550295 L14.4772061,5.2166643 C14.474773,6.30994847 13.8327175,7.30514207 12.8255111,7.7785709 C13.0716439,7.27585677 13.1938916,6.72407709 13.1817663,6.16674436 C13.1817663,6.01791017 13.1655733,5.86906787 13.1331864,5.7234115 C13.5218171,5.38615425 13.9800697,5.13442226 14.4772061,4.98558402 L14.4772061,4.98550295 Z M12.4692767,8.58607511 C12.5121877,8.72620072 12.5340485,8.87106467 12.5340485,9.01674132 L12.5340485,9.24790267 C12.5186651,9.50597813 12.4717059,9.76089199 12.3947881,10.0079019 C12.2085687,9.7854349 12.0004989,9.58197805 11.772979,9.39990251 C11.6555793,9.30886068 11.4887915,9.30886068 11.3713939,9.39990251 C11.1446823,9.58119373 10.9357959,9.7838541 10.7495848,10.0047403 C10.6710482,9.75773039 10.6240892,9.50281653 10.6103244,9.24474107 L10.6103244,9.01674132 C10.6176112,8.79982741 10.6621419,8.58528471 10.7431055,8.38340866 L10.7431055,8.35174202 C10.7892562,8.22745074 10.8467404,8.10791402 10.9147497,7.99391414 C10.9584712,7.91949705 11.0078594,7.8474552 11.0604852,7.77858104 C11.2102707,7.57908024 11.3778566,7.39383905 11.5624717,7.22440989 C11.7454515,7.39382689 11.9098143,7.58065698 12.0547373,7.78174263 C12.1089839,7.84824155 12.1575617,7.91949299 12.2004727,7.99391414 C12.2733405,8.10712159 12.3356831,8.22665629 12.3850713,8.35174202 C12.3915485,8.36282545 12.397216,8.37470008 12.4012642,8.38657633 C12.4279834,8.45149243 12.4506525,8.51799337 12.4692736,8.58607713 L12.4692767,8.58607511 Z M12.8222777,16.3222589 C13.0684105,15.8219159 13.1914665,15.271717 13.1817663,14.7167555 C13.1817663,14.5702966 13.1663829,14.4238417 13.136426,14.2797661 C13.5226317,13.9409281 13.9800759,13.6891758 14.4772123,13.5419386 L14.4772123,13.7667768 C14.4764027,14.8600609 13.8359613,15.8566732 12.8287756,16.3317234 C12.825537,16.3293483 12.8239178,16.3261817 12.8222984,16.3222234 L12.8222777,16.3222589 Z M12.534066,14.7167555 L12.534066,14.9542603 C12.5202845,15.210755 12.4725142,15.464088 12.3915505,15.7079363 C12.206952,15.4846789 11.9996864,15.2812221 11.7729748,15.099937 C11.6555752,15.0088951 11.4887873,15.0088951 11.3713898,15.099937 C11.1446782,15.2812282 10.9357918,15.4838886 10.7495807,15.7047747 C10.6645669,15.4609467 10.6119411,15.2076136 10.5908908,14.9510987 L10.5908908,14.7167758 C10.5908908,14.5695264 10.6127516,14.4238619 10.6556626,14.282948 C10.6726651,14.2172394 10.6937152,14.1523234 10.7204344,14.0897825 C10.8086857,13.8720782 10.9268937,13.6662502 11.070202,13.4786216 C11.2167479,13.2799132 11.3811066,13.0938796 11.5624676,12.9244504 C11.7438286,13.0938674 11.9081934,13.2799071 12.0547331,13.4786216 C12.1980415,13.6646633 12.315437,13.8681262 12.4045007,14.0834593 C12.4312199,14.1460002 12.4522702,14.2109183 12.4692725,14.2766248 C12.512994,14.4191236 12.5348547,14.5679578 12.5340443,14.716796 L12.534066,14.7167555 Z M10.2930484,16.3349255 C9.28584199,15.8583351 8.64703676,14.8608513 8.64784434,13.7667362 L8.64784434,13.5355749 C9.14415242,13.6812414 9.60242574,13.9321931 9.98863138,14.2702408 C9.95786427,14.4174901 9.94329113,14.5671066 9.94329113,14.7167352 C9.93357537,15.2716968 10.0566428,15.8218957 10.3027797,16.3222386 L10.2930484,16.3349255 Z M10.2930484,10.6349316 C9.28584199,10.1583412 8.64703676,9.16085743 8.64784434,8.06674233 L8.64784434,7.83558098 C9.14415242,7.98362274 9.60323409,8.23378002 9.99186479,8.57024686 C9.9594789,8.7167058 9.94328491,8.86632228 9.94328491,9.01674132 C9.93356915,9.57170286 10.0566366,10.1219017 10.3027735,10.6222447 L10.2930484,10.6349316 Z M10.2930484,13.4848272 C9.28584199,13.0082368 8.64703676,12.0107531 8.64784434,10.916638 L8.64784434,10.6854766 C9.14415242,10.8335184 9.60323409,11.0836756 9.99186479,11.4201425 C9.9594789,11.5666014 9.94328491,11.7162179 9.94328491,11.8666369 C9.93356915,12.4215985 10.0566366,12.9717974 10.3027735,13.4721403 L10.2930484,13.4848272 Z M12.8126189,13.4848272 C13.0644102,12.9813227 13.1907203,12.4271515 13.1818077,11.8666572 C13.1818077,11.717823 13.1656148,11.5689807 13.1332279,11.4233243 C13.5218586,11.0860671 13.9801112,10.8343351 14.4772476,10.6854969 L14.4772476,10.9166582 C14.4748186,12.0099424 13.8327631,13.005136 12.8255567,13.4785648 L12.8126189,13.4848272 Z M12.5340899,11.8666572 L12.5340899,12.0978186 C12.5187066,12.355894 12.4717473,12.6108079 12.3948295,12.8578178 C12.2086101,12.6353508 12.0005404,12.4318939 11.7730204,12.2498184 C11.6556208,12.1587766 11.4888329,12.1587766 11.3714354,12.2498184 C11.1455528,12.431902 10.9366457,12.6345604 10.7496263,12.8546562 C10.6710897,12.6076463 10.6241307,12.3527324 10.6103659,12.094657 L10.6103659,11.8666572 C10.6103659,11.7194079 10.6322266,11.5737434 10.6751377,11.4328294 C10.6937596,11.3647456 10.7164299,11.2982467 10.743147,11.2333286 L10.743147,11.201662 C10.7892977,11.0773707 10.8467819,10.957834 10.9147912,10.8438341 C10.9585127,10.769417 11.0079009,10.6973751 11.0605267,10.628501 C11.2103122,10.4290002 11.377898,10.243759 11.5625132,10.0743298 C11.7454929,10.2437468 11.9098557,10.4305769 12.0547787,10.6316626 C12.1090253,10.6981615 12.1576031,10.7694129 12.2005142,10.8438341 C12.2733819,10.957834 12.3357245,11.0789677 12.3851127,11.2048236 C12.3915899,11.2143236 12.3972575,11.2254064 12.4013057,11.2364902 C12.4280248,11.3014063 12.4506939,11.3679072 12.469315,11.435991 C12.5122261,11.5761166 12.5340899,11.7209806 12.5340899,11.8666572 L12.5340899,11.8666572 Z M12.8223181,10.6221636 C13.0684519,10.1218207 13.191508,9.57162179 13.1818077,9.01666025 C13.1818077,8.86782606 13.1656148,8.71898377 13.1332279,8.57332739 C13.5218586,8.23607015 13.9801112,7.98433815 14.4772476,7.83549991 L14.4772476,8.06666126 C14.4748186,9.15994543 13.8327631,10.155139 12.8255567,10.6285679 C12.8255567,10.6285679 12.8223181,10.6254012 12.8223181,10.6222345 L12.8223181,10.6221636 Z M11.5625132,4.37436227 C11.9211934,4.69974325 12.2069976,5.0939903 12.4013129,5.53337116 C12.4879455,5.73366236 12.5332857,5.94899952 12.5340941,6.16670382 L12.5340941,6.39786518 C12.5187107,6.65594063 12.4717515,6.9108545 12.3948337,7.15786436 C12.2086143,6.9353974 12.0005445,6.73194055 11.7730246,6.54986501 C11.6556249,6.45882319 11.4888371,6.45882319 11.3714395,6.54986501 C11.1447279,6.73115623 10.9358415,6.9338166 10.7496304,7.15470277 C10.6710938,6.9076929 10.6241348,6.65277904 10.61037,6.39470358 L10.61037,6.16670382 C10.6136086,5.94899952 10.6589499,5.73445682 10.7431511,5.53337116 C10.9326081,5.09638176 11.2111247,4.70211445 11.562509,4.37436227 L11.5625132,4.37436227 Z M10.3027113,7.77226798 C9.29630911,7.30044021 8.65346212,6.308469 8.64778293,5.2168467 L8.64778293,4.98568535 C9.14409024,5.13372711 9.60317191,5.38388439 9.99180261,5.72035123 C9.95941672,5.86681017 9.94322273,6.01642665 9.94322273,6.16684569 C9.93350697,6.72180723 10.0565744,7.27200611 10.3027113,7.77234904 L10.3027113,7.77226798 Z M8.64778293,16.6168345 L8.64778293,16.3856732 C9.14409024,16.533715 9.60317191,16.7838722 9.99180261,17.1203391 C9.95941672,17.266798 9.94322273,17.4164145 9.94322273,17.5668335 C9.93350697,18.1265375 10.0590015,18.681499 10.3091781,19.1850035 C9.2955049,18.7131758 8.64940378,17.714091 8.64778293,16.6168143 L8.64778293,16.6168345 Z M12.5340899,17.7979949 C12.5373285,18.36007 12.3219701,18.9023649 11.9317227,19.3148317 L11.8734281,19.359165 C11.6993547,19.5032486 11.445126,19.5032486 11.2710609,19.359165 L11.2160059,19.3179993 C10.8160375,18.9071336 10.5925801,18.3616569 10.5909634,17.7948394 L10.5909634,17.5668396 C10.591773,17.4219655 10.6128241,17.2786682 10.6524976,17.139335 C10.6719291,17.0696684 10.6978378,17.0000018 10.7237466,16.933507 C10.8119979,16.7189642 10.9269683,16.5155074 11.0670266,16.3286692 C11.2151913,16.1299608 11.3811646,15.9447176 11.5625256,15.7744981 C11.7438866,15.943915 11.9082515,16.1299547 12.0547912,16.3286692 C12.1972891,16.5147109 12.3138783,16.7181738 12.4013254,16.933507 C12.4304716,16.9992155 12.4531428,17.0665068 12.4693347,17.1361734 C12.5122458,17.2755066 12.5341259,17.421163 12.5341259,17.5668396 L12.5341259,17.798001 L12.5340899,17.7979949 Z M14.4772476,16.6168345 C14.4756242,17.714091 13.8295256,18.7132163 12.8158524,19.1850238 C13.0660269,18.6815193 13.1915287,18.1265577 13.1818077,17.5668538 C13.1818077,17.4180196 13.1656148,17.2691773 13.1332279,17.1235209 C13.5218586,16.7862637 13.9801112,16.5345317 14.4772476,16.3856935 L14.4772476,16.6168345 Z" id="Shape" fill="#000000"></path>
    </g>
</svg>