<?xml version="1.0" encoding="UTF-8"?>
<svg width="24px" height="24px" viewBox="0 0 24 24" version="1.1" xmlns="http://www.w3.org/2000/svg" xmlns:xlink="http://www.w3.org/1999/xlink">
    <!-- Generator: Sketch 57.1 (83088) - https://sketch.com -->
    <title>crops-textile</title>
    <desc>Created with Sketch.</desc>
    <g id="crops-textile" stroke="none" stroke-width="1" fill="none" fill-rule="evenodd">
        <g id="np_textile_2140357_000000" transform="translate(3.000000, 3.000000)" fill="#000000" fill-rule="nonzero">
            <path d="M0.4484,16.218 C0.273677188,16.218 0.1577,16.364876 0.18631875,16.54144 C0.18631875,16.718002 0.331664792,16.8352 0.506389583,16.80628 C1.05917083,16.776592 2.54354583,16.953156 3.1844,17.04144 C3.1844,17.30628 3.21377875,17.54144 3.1844,17.80628 C3.1844,17.982842 3.30113917,18.10004 3.4751,18.10004 C3.62044604,18.10004 3.7658,17.982072 3.7658,17.80628 L3.7658,17.12972 C4.61003333,17.33596 5.19218542,17.54144 5.83224792,17.7766 C5.83224792,18.07036 5.80286917,18.36488 5.77426427,18.62972 C5.74488552,18.776594 5.86162667,18.92348 6.03634552,18.95316 L6.06572427,18.95316 C6.21106833,18.95316 6.32780552,18.835192 6.35642427,18.68832 C6.38580302,18.45316 6.38580302,18.18832 6.41440792,17.95316 C6.70510792,18.041442 6.99656,18.071128 7.28726,18.071128 C7.66532042,18.071128 8.04413292,17.982846 8.480935,17.747688 C8.480935,17.953928 8.45155625,18.129728 8.45155625,18.335968 C8.45155625,18.51253 8.56829542,18.629728 8.7136375,18.659408 L8.74301625,18.659408 C8.88836229,18.659408 9.03371625,18.54144 9.03371625,18.394568 C9.063095,18.071128 9.063095,17.747688 9.063095,17.424248 C9.55788667,17.071128 9.90732833,16.659408 11.1002513,16.953928 C11.12963,17.218768 11.12963,17.483608 11.12963,17.747688 C11.12963,17.92425 11.2463692,18.041448 11.42033,18.041448 C11.565676,18.041448 11.71103,17.92348 11.71103,17.747688 L11.71103,17.129728 C12.3805425,17.364888 13.0786738,17.659408 13.7774779,17.688328 C13.7774779,17.953168 13.7480992,18.218008 13.7194943,18.482088 C13.6901155,18.65865 13.8362334,18.775848 13.9815755,18.805528 L14.0109543,18.805528 C14.1563003,18.805528 14.2730355,18.68756 14.3016543,18.540688 C14.331033,18.246928 14.3596379,17.952408 14.3596379,17.658648 C14.94179,17.570366 15.4365817,17.158648 16.4260858,17.335208 C16.4260858,17.600048 16.4260858,17.864888 16.3967071,18.128968 C16.3967071,18.30553 16.5134463,18.422728 16.6587883,18.452408 L16.6881671,18.452408 C16.8335131,18.452408 16.9788671,18.33444 16.9788671,18.187568 C17.0082458,17.952408 17.0082458,17.717248 17.0082458,17.481328 C17.0956082,17.511016 17.1829686,17.539922 17.2989458,17.56961 C17.7357479,17.716486 18.1431792,17.86337 18.6086,17.77585 C18.7539441,17.746162 18.8706813,17.599288 18.8706813,17.45241 C18.8413025,17.305534 18.6959584,17.18757 18.5506104,17.18757 C18.0851896,17.246164 17.6190167,17.011008 17.0082458,16.83445 C16.9502622,16.04069 16.8041542,15.21649 16.5134542,14.33445 C17.2703271,14.481326 17.8810979,14.86413 18.6093917,14.77585 C18.7547377,14.746162 18.8714729,14.599288 18.8714729,14.45241 C18.8420942,14.305534 18.6967501,14.18757 18.5514021,14.18757 C17.9112604,14.275852 17.2997375,13.80553 16.3394854,13.71725 C16.106775,13.01101 15.961425,12.30553 15.961425,11.27585 C16.4855875,11.246162 16.9216375,11.393818 17.3290688,11.54069 C17.7658708,11.687566 18.1733021,11.83445 18.6387229,11.74693 C18.784069,11.717242 18.9008042,11.570368 18.9008042,11.42349 C18.8714254,11.276614 18.7260814,11.15865 18.5807333,11.15865 C18.2312917,11.217244 17.9112208,11.100056 17.5331604,10.95241 C17.0963583,10.805534 16.6015667,10.65865 15.9907958,10.65865 C16.0487795,9.89381 16.1655186,9.07037 16.2814958,8.24685 C16.6595563,8.276538 17.0089979,8.393726 17.3290688,8.51169 C17.7658708,8.658566 18.1733021,8.80545 18.6387229,8.71793 C18.784069,8.688242 18.9008042,8.541368 18.9008042,8.39449 C18.8714254,8.247614 18.7260814,8.12965 18.5807333,8.12965 C18.2606625,8.188244 17.9112208,8.071056 17.5331604,7.92341 C17.2130896,7.805442 16.8342771,7.68825 16.3688563,7.62965 C16.4855954,6.86481 16.6015667,6.07105 16.6889271,5.27645 C16.9216375,5.335044 17.1257292,5.394418 17.3584396,5.48269 C17.7952417,5.629566 18.2026729,5.77645 18.6680938,5.68893 C18.8134398,5.659242 18.930175,5.512368 18.930175,5.36549 C18.930175,5.218612 18.7554522,5.10065 18.6101042,5.10065 C18.2606625,5.159244 17.9405917,5.042056 17.5625313,4.89441 C17.3298208,4.806128 17.0677396,4.717848 16.7476688,4.65925 C16.7770475,3.98269 16.7476688,3.27721 16.6309296,2.62965 C16.4848117,2.658556 16.4848117,2.511682 16.4562068,2.39371 C16.7469068,2.452304 17.008988,2.540586 17.2416984,2.62887 C17.6785005,2.775746 18.0859318,2.92263 18.5513526,2.83511 C18.6966986,2.805422 18.8134339,2.658548 18.8134339,2.51167 C18.7840551,2.364794 18.638711,2.24683 18.493363,2.24683 C18.1732922,2.305424 17.8238505,2.188236 17.4457901,2.04059 C17.1257193,1.95309 16.7762776,1.83513 16.3688464,1.77653 C16.3394676,1.48277 16.3108627,1.21793 16.3108627,0.95309 C16.3108627,0.776528 16.1655186,0.65933 16.0201627,0.65933 C15.8454399,0.65933 15.7294627,0.806206 15.7294627,0.95309 C15.7294627,1.18825 15.7588415,1.45309 15.7874464,1.71793 C14.7684922,1.776524 14.5651526,2.15933 13.778988,2.09997 C13.7496093,1.80621 13.7210044,1.54137 13.6916256,1.30621 C13.6916256,1.129648 13.5462796,1.01245 13.3715548,1.04137 C13.196832,1.04137 13.0808548,1.188246 13.1094735,1.36481 C13.1388523,1.57105 13.1388523,1.77653 13.1674572,2.01169 C12.4685739,1.835128 11.7704426,1.48201 11.0430197,1.33513 C11.0136409,1.04137 10.985036,0.71717 10.985036,0.45309 C10.985036,0.276528 10.83969,0.15933 10.694336,0.15933 C10.5196132,0.15933 10.403636,0.306206 10.403636,0.45309 C10.403636,0.71793 10.4330148,0.98277 10.4330148,1.27653 C9.38544188,1.246842 9.00662938,1.74685 8.45384813,2.09997 C8.39586448,1.71793 8.42446938,1.30621 8.07578771,1.33513 C7.93044167,1.364818 7.81370646,1.511692 7.81370646,1.65857 C7.84308521,1.92341 7.8716901,2.15857 7.90106885,2.36481 C7.20218552,2.62965 6.6787751,2.453092 5.80513135,2.15857 C5.7757526,1.86481 5.71776896,1.59997 5.71776896,1.27653 C5.71776896,1.129656 5.57242292,0.98277 5.39769812,1.01169 C5.22297531,1.01169 5.10699812,1.158566 5.13561687,1.33513 C5.16499562,1.54137 5.16499562,1.74685 5.19360052,1.95309 C4.64081927,1.776528 3.94193594,1.57105 3.09766302,1.42341 C3.06828427,1.12965 3.03967937,0.83513 3.03967937,0.54137 C3.03967937,0.394494 2.89433333,0.24761 2.74897937,0.24761 C2.57425656,0.24761 2.45827937,0.394486 2.45827937,0.54137 C2.45827937,0.80621 2.48765812,1.04137 2.48765812,1.30621 C2.31061573,1.335116 2.04852062,1.30621 1.75784042,1.276522 C1.26304875,1.217928 0.8556175,1.18824 0.44818625,1.217928 C0.302840208,1.217928 0.186105,1.364804 0.186105,1.541368 C0.186105,1.71793 0.331451042,1.835128 0.506175833,1.806208 C0.8556175,1.77652 1.23367792,1.806208 1.69985083,1.864802 C2.01992167,1.893708 2.31060187,1.923396 2.60207375,1.953084 C2.6314525,2.246844 2.68943615,2.571044 2.74741781,2.864804 C2.83478021,3.364804 2.86415698,3.864804 2.86415698,4.394484 C2.51471531,4.364796 2.16527365,4.306202 1.7578424,4.306202 C1.26305073,4.247608 0.855619479,4.21792 0.477559062,4.247608 C0.30283625,4.247608 0.186859062,4.394484 0.215477812,4.571048 C0.215477812,4.74761 0.360823854,4.864808 0.535548646,4.835888 C0.884990312,4.8062 1.26305073,4.835888 1.72922365,4.894482 C2.1366549,4.92417 2.51471531,4.953076 2.86415698,5.01245 C2.80617333,5.80621 2.71881094,6.60073 2.57345698,7.39445 C2.31137573,7.364762 2.04929448,7.335856 1.75859448,7.306168 C1.26380281,7.247574 0.856371562,7.217886 0.478311146,7.247574 C0.303588333,7.247574 0.187611146,7.39445 0.216229896,7.571014 C0.216229896,7.747576 0.361575937,7.864774 0.536300729,7.835854 C0.885742396,7.806166 1.26380281,7.835854 1.72997573,7.894448 C1.99205698,7.924136 2.25413823,7.924136 2.48684865,7.953042 C2.37010948,8.746802 2.2247674,9.541322 2.16677781,10.335042 C1.46789448,10.276448 1.08983406,10.188166 0.478311146,10.217074 C0.303588333,10.217074 0.187611146,10.363948 0.216229896,10.540514 C0.216229896,10.717076 0.361575937,10.834274 0.536300729,10.805354 C1.08908198,10.775666 1.43852365,10.835042 2.16602573,10.923322 C2.13664698,11.746762 2.19540448,12.570202 2.3701174,13.364722 C1.43852365,13.27644 1.0310924,13.217846 0.507681979,13.246754 C0.332959167,13.246754 0.216981979,13.39363 0.245600729,13.570194 C0.245600729,13.746756 0.390944792,13.863954 0.565671562,13.835034 C1.00247365,13.805346 2.19539656,13.923316 2.5741299,13.98191 C2.89420073,14.89363 3.0982924,15.71707 3.18565281,16.48191 C2.60195698,16.364722 1.11762156,16.18815 0.448069479,16.21785 L0.4484,16.218 Z M6.41459792,17.39378 C6.41459792,16.62894 6.29785875,15.83518 6.0365375,14.89378 C6.79341042,15.12894 7.3755625,15.2469 8.10298542,14.982062 C8.33569583,15.805502 8.42305625,16.511742 8.45242708,17.158662 C7.69555417,17.629762 7.14277292,17.629762 6.41447917,17.393822 L6.41459792,17.39378 Z M5.97856771,5.86478 C6.70606979,6.09994 7.28822188,6.24682 8.01572396,6.011656 C7.92836156,6.835096 7.78301354,7.658536 7.63766354,8.511656 C6.99752188,8.658532 6.35738021,8.393688 5.62920521,8.158536 C5.77455125,7.364776 5.89128646,6.629636 5.97864688,5.864736 L5.97856771,5.86478 Z M13.0216302,8.01158 C12.3521177,7.80534 11.7413469,7.54126 11.0718344,7.39362 C11.1885735,6.62878 11.3045448,5.83502 11.3339156,5.07022 C12.0034281,5.27646 12.6435698,5.57022 13.342374,5.7171 C13.2542397,6.48194 13.1382823,7.24678 13.0215313,8.0117 L13.0216302,8.01158 Z M15.2923281,11.42338 C15.2923281,12.21714 15.3796905,13.01166 15.6417698,13.77658 C14.6228156,13.864862 14.5354552,14.21798 13.7499635,14.15862 C13.5458719,13.54066 13.2845427,12.95238 13.2551719,11.65862 C14.3313438,11.89378 14.6521865,11.570338 15.2923281,11.42346 L15.2923281,11.42338 Z M7.9864125,12.01166 C9.00538646,11.68822 9.32545729,11.04134 10.0235885,10.8937 C9.99420979,11.71714 10.0235885,12.51166 10.2276802,13.2757 C9.35482813,13.305388 9.03400521,13.7757 8.45260521,14.12882 C8.2778824,13.54132 8.04517396,13.07022 7.9864125,12.01162 L7.9864125,12.01166 Z M8.19052396,8.95306 C9.26746771,8.54134 9.41281771,7.86478 10.4024406,7.89446 C10.2857015,8.68822 10.1403594,9.51242 10.0823698,10.33586 C9.06341562,10.453828 8.91806562,11.07102 7.98643229,11.42414 C7.9578274,10.6296 8.04518979,9.80618 8.19052396,8.95314 L8.19052396,8.95306 Z M10.8392427,13.33506 C10.6065323,12.5413 10.5771615,11.74678 10.6065323,10.89366 C11.246674,10.952254 11.9161865,11.2757 12.6436885,11.51162 C12.6436885,12.5999 12.8184114,13.27646 13.0804906,14.04122 C12.3522167,13.83498 11.6247146,13.48184 10.8392823,13.33498 L10.8392427,13.33506 Z M10.635151,10.30606 C10.6931347,9.54122 10.8392427,8.74746 10.9552219,7.95286 C11.537374,8.099736 12.2068865,8.39426 12.9050177,8.59974 C12.7882785,9.36458 12.6723073,10.15834 12.6429365,10.89354 C12.0035667,10.65838 11.3340542,10.39354 10.6350719,10.30604 L10.635151,10.30606 Z M10.489805,7.30606 C9.35487167,7.247466 9.03480083,7.86466 8.27788833,8.24746 C8.42323437,7.42402 8.53996958,6.5709 8.62733,5.71786 C9.41282167,5.24754 9.64628417,4.74754 10.7517675,4.9241 C10.7223887,5.71786 10.6064215,6.5116 10.4896863,7.3061 L10.489805,7.30606 Z M5.57118,8.71778 C6.27006333,8.95294 6.88083417,9.1881 7.57963833,9.09982 C7.46289917,9.92326 7.37554667,10.7467 7.40491552,11.54122 C6.82276344,11.570908 6.24061135,11.33498 5.33846379,11.01154 C5.33769454,10.27638 5.4544349,9.51154 5.57117802,8.71774 L5.57118,8.71778 Z M7.40422479,12.12958 C7.49158719,13.27646 7.75366646,13.80614 7.92838729,14.42338 C7.22950396,14.68822 6.67672271,14.511662 5.83244979,14.18822 C5.59973937,13.51166 5.33765812,12.92338 5.30828729,11.62962 C6.03656125,11.89368 6.70607375,12.15852 7.40422479,12.12962 L7.40422479,12.12958 Z M9.03472167,16.74678 C8.97673802,16.12882 8.85999885,15.48194 8.65666125,14.71718 C9.41353417,14.27578 9.588255,13.86406 10.4317362,13.86406 C10.5770823,14.39374 10.8971571,15.1875 11.0718779,16.36406 C10.3443758,16.246872 9.67486333,16.246872 9.03472167,16.74688 L9.03472167,16.74678 Z M11.6246592,16.54132 C11.5372968,15.74756 11.3339592,14.92336 11.0425071,13.98272 C11.7700092,14.159282 12.4975112,14.54132 13.2837154,14.68896 C13.5744154,15.65928 13.6911467,16.42412 13.7205175,17.15936 C13.0803758,17.099984 12.3521019,16.77654 11.62458,16.5414 L11.6246592,16.54132 Z M14.3313675,17.12962 C14.3019887,16.42336 14.1860215,15.65928 13.9239362,14.7476 C14.7387987,14.7476 14.9428904,14.39448 15.8451133,14.33588 C16.1358133,15.21792 16.3105342,16.01244 16.3692758,16.77728 C15.3503217,16.65853 14.6808092,17.04134 14.3313279,17.12962 L14.3313675,17.12962 Z M13.2258248,11.0702 C13.2552035,10.30536 13.342564,9.5116 13.487906,8.717 C14.5942206,8.86388 14.681581,8.48184 15.5838435,8.36388 C15.4671044,9.18732 15.3511331,10.01076 15.2931435,10.80528 C14.4481383,10.981842 14.3313873,11.33496 13.225904,11.07012 L13.2258248,11.0702 Z M15.6997831,7.7764 C14.6522102,7.864682 14.535479,8.2764 13.5753456,8.15844 C13.6920848,7.36468 13.8374269,6.57016 13.9247873,5.77644 C14.7976394,5.77644 15.0597206,5.36472 16.0207248,5.36472 C15.9619693,6.15848 15.8158415,6.953 15.6998821,7.77652 L15.6997831,7.7764 Z M15.8451292,2.335 C15.9324916,2.98188 16.0778396,3.51156 16.0492208,4.7468 C15.0016479,4.717112 14.6228354,5.12884 13.9532833,5.15852 C14.011267,4.12884 13.9826621,3.42336 13.8659209,2.74672 C14.7681439,2.74672 14.9428647,2.36468 15.8450876,2.335 L15.8451292,2.335 Z M13.2544,2.68812 C13.3711392,3.42328 13.4584917,3.98188 13.3711392,5.12952 C12.7309975,5.011552 12.0321142,4.6592 11.3339829,4.48264 C11.3633617,3.30608 11.2172437,2.95296 11.1012725,2.01224 C11.799384,2.188022 12.4982871,2.51146 13.2544079,2.68802 L13.2544,2.68812 Z M10.5191917,1.89358 C10.6359308,3.01154 10.7812729,3.21702 10.7812729,4.33498 C9.70432917,4.188104 9.26752708,4.59982 8.714825,4.98186 C8.77280865,4.04046 8.714825,3.3639 8.59808583,2.74666 C9.41294833,2.27634 9.58766917,1.80604 10.5192629,1.89354 L10.5191917,1.89358 Z M8.04523333,2.98186 C8.1619725,3.7467 8.1619725,4.54046 8.10321698,5.33506 C7.40433365,5.6585 6.8515524,5.5413 6.03676906,5.246778 C6.09475271,4.423338 6.09475271,3.628818 5.94940667,2.834978 C6.70627958,3.099818 7.31705042,3.246698 8.04534417,2.981854 L8.04523333,2.98186 Z M3.21329583,2.07014 C4.08614792,2.217016 4.78503125,2.45218 5.33773333,2.65842 C5.4544725,3.42326 5.541825,3.98186 5.4544725,5.07022 C4.90169125,4.893658 4.2607975,4.6585 3.41731625,4.51162 C3.44592115,3.30616 3.32995385,2.89366 3.21322458,2.07022 L3.21329583,2.07014 Z M3.4173875,5.09974 C4.23225,5.276302 4.87239167,5.48178 5.42584583,5.65834 C5.33848344,6.42318 5.22175417,7.18802 5.105775,7.92314 C4.5816125,7.746578 3.9121,7.57002 3.12660833,7.42314 C3.24257562,6.6583 3.35854687,5.89346 3.41730833,5.09974 L3.4173875,5.09974 Z M3.03855521,8.04114 C3.82404687,8.159108 4.46494062,8.36458 5.01772187,8.54114 C4.90098271,9.30598 4.78501146,10.07082 4.75564062,10.83494 C4.20285937,10.658378 3.53334687,10.5115 2.71848437,10.39354 C2.77724187,9.62948 2.92257604,8.83494 3.03855521,8.04114 Z M2.68988542,10.98174 C3.50474792,11.099708 4.17426042,11.2755 4.72704167,11.45206 C4.72704167,12.51066 4.87238771,13.24582 5.13447292,13.98166 C4.55232083,13.77542 3.82481875,13.59962 2.95125417,13.45198 C2.71854375,12.65822 2.66055417,11.8348 2.68994479,10.98158 L2.68988542,10.98174 Z M3.15530625,14.06994 C4.0869,14.216816 4.78503125,14.45198 5.36722292,14.65822 C5.65792292,15.62854 5.804025,16.45198 5.83264375,17.18782 C5.13376042,16.92298 4.52298958,16.74642 3.73670625,16.56986 C3.65011771,15.7761 3.44600625,14.98158 3.15530625,14.06986 L3.15530625,14.06994 Z" id="Shape"></path>
        </g>
    </g>
</svg>