<?xml version="1.0" encoding="UTF-8"?>
<svg width="24px" height="24px" viewBox="0 0 24 24" version="1.1" xmlns="http://www.w3.org/2000/svg" xmlns:xlink="http://www.w3.org/1999/xlink">
    <!-- Generator: Sketch 57.1 (83088) - https://sketch.com -->
    <title>crops-asparagus </title>
    <desc>Created with Sketch.</desc>
    <g id="crops-asparagus-" stroke="none" stroke-width="1" fill="none" fill-rule="evenodd">
        <path d="M21.8988818,6.20221247 C21.8812638,6.18165894 21.7638103,6.04952924 21.5602133,5.89195018 C22.1063776,4.64897175 21.6923482,3.60661273 21.6727738,3.5586565 C21.6297085,3.45491169 21.5474895,3.3717199 21.4437391,3.3286545 C21.3957777,3.30810097 20.3533649,2.88920604 19.1073877,3.43827233 C18.9498027,3.23567604 18.8176804,3.11921556 18.7980859,3.10157648 C18.6953127,3.01349136 18.5563274,2.98021264 18.4241875,3.01153202 C18.3654593,3.02523412 17.0989054,3.33843116 16.2483504,4.385676 C16.0545507,4.27116484 15.9136159,4.21537626 15.8910898,4.20656925 C15.7618916,4.15665367 15.6160407,4.17329303 15.5015309,4.25061181 C14.4395461,4.96213797 12.760812,6.75323057 13.610515,8.64509641 L3.48879828,18.7662667 C3.23041199,19.024639 3.04248557,19.4631103 3.02386833,19.8321027 C3.01310165,19.8673358 3.00625035,19.903551 3.00233522,19.9407409 C2.97492803,20.2461173 3.18732497,20.6013793 3.71587929,21.1299001 L3.87052769,21.2845401 C4.36873315,21.7827187 4.71326491,22 5.0069062,22 C5.02452418,22 5.04214115,21.9990213 5.05878141,21.9980424 C5.09597581,21.9941277 5.1331702,21.9872766 5.16742543,21.9765105 C5.53546052,21.9579145 5.97493271,21.769998 6.233319,21.5116056 L16.3540335,11.3914376 C18.2460265,12.2419466 20.0371407,10.5624512 20.7487554,9.50052384 C20.8260783,9.38601268 20.8417388,9.24017211 20.7928003,9.11098594 C20.7839913,9.08847507 20.7282012,8.94851604 20.6146611,8.75472175 C21.6619625,7.90323555 21.9741959,6.63577789 21.987902,6.5770478 C22.0202028,6.44394044 21.9869233,6.30497009 21.8988324,6.20219242 L21.8988818,6.20221247 Z M20.9377259,4.06074372 C20.9993883,4.3250041 21.0590963,4.85352487 20.8143985,5.46718424 C20.5129395,5.3487569 20.1449044,5.26654479 19.7230472,5.27926797 C19.7357716,4.85450204 19.6515951,4.48453249 19.5321841,4.18308973 C20.1468539,3.93840772 20.6754032,3.99908713 20.9377234,4.06074873 L20.9377259,4.06074372 Z M17.2849375,6.32553565 C17.3612832,6.28638643 17.4405631,6.25213054 17.5345263,6.21787466 C17.8046643,6.12000286 18.0836223,6.07008728 18.3655119,6.07008728 C18.5769291,6.07008728 18.7511619,6.09847016 18.8734895,6.12685303 C18.9322153,6.38131672 18.9938802,6.8814496 18.780506,7.46476676 C18.7501647,7.54893821 18.7129703,7.63604367 18.6699026,7.7231391 C18.527978,8.01283082 18.3234164,8.2927509 18.0610962,8.55505695 C18.0121576,8.60399286 17.9632191,8.65097192 17.9162375,8.69305765 C17.4464214,9.11489209 16.9550815,9.32826475 16.4578533,9.32826475 C16.1563943,9.32826475 15.9224635,9.2470298 15.8030425,9.1951574 C15.6797152,8.92012314 15.4213264,8.07156844 16.3080885,7.08403086 C16.3521334,7.03509496 16.399115,6.98615905 16.4480536,6.93722065 C16.7074421,6.67686892 16.9883295,6.47133863 17.2849024,6.32551561 L17.2849375,6.32553565 Z M18.394881,3.91101203 C18.4555662,3.98441714 18.5270158,4.08228894 18.596511,4.20170597 C18.7932474,4.5373996 18.884264,4.89170946 18.8725374,5.25874752 C18.7276787,5.23525798 18.5573722,5.21861862 18.3665142,5.21861862 C18.002413,5.21861862 17.6412435,5.28223705 17.2927778,5.40262122 C17.1880477,5.22840781 17.0637431,5.06397105 16.916925,4.91228504 C17.3916271,4.33189938 18.0533035,4.03338812 18.3948785,3.9110421 L18.394881,3.91101203 Z M18.8832893,10.2189854 C18.0337115,10.8434186 17.2291359,10.9383539 16.4911363,10.5028141 C16.323764,10.4039626 16.1103974,10.4303887 15.9733615,10.5683894 L10.9121272,15.6283481 C10.5274544,15.4864312 9.85209696,15.3386564 9.14639569,15.668477 C8.97706647,15.7477551 8.90463712,15.9493742 8.98391702,16.1186993 C9.06319941,16.2880194 9.26482942,16.3604448 9.43416365,16.2811692 C9.76694375,16.1245723 10.0997238,16.128486 10.3630213,16.1764447 L5.63153527,20.9086775 C5.5160382,21.0241684 5.24686243,21.1347633 5.09712266,21.1259563 C5.06580159,21.1239987 5.03643746,21.1259563 5.00609611,21.1308499 C4.93170732,21.0897439 4.76629449,20.9762099 4.4716835,20.6816048 L4.31703509,20.5269647 C4.02339381,20.2333393 3.91083841,20.0679479 3.86874289,19.9935581 C3.87363675,19.9641956 3.87461547,19.9338559 3.87363675,19.9035161 C3.86580648,19.7547491 3.97543022,19.4846132 4.09092729,19.3691324 L12.2088473,11.2516507 C12.2440823,11.4933962 12.2303807,11.8085593 12.0776897,12.1726408 C12.0052604,12.3448974 12.08552,12.5435875 12.2587656,12.6159979 C12.3018333,12.633615 12.3458782,12.642424 12.3899232,12.642424 C12.522058,12.642424 12.6473323,12.5641255 12.7021567,12.4349344 C13.0173218,11.6852236 12.90085,11.0696099 12.7608849,10.7006175 L14.4336305,9.02796228 C14.5716386,8.88996158 14.5980661,8.67758613 14.4992093,8.51021537 C13.5957844,6.98240599 15.2019789,5.54965719 15.7823959,5.10041202 C15.8685288,5.14934793 15.9752159,5.21688002 16.0858094,5.30398798 C16.2659055,5.44786169 16.4107717,5.60936445 16.5252815,5.78357536 C16.2884166,5.93821541 16.0593744,6.1202712 15.8440358,6.33557314 C15.7843303,6.39527539 15.7275615,6.45497764 15.6737268,6.51467989 C14.1683611,8.19026663 15.0884237,9.67994153 15.1285398,9.74157807 C15.1627975,9.79443015 15.2078222,9.83944987 15.2606746,9.87370576 C15.3105929,9.90502513 15.767675,10.1800594 16.4567385,10.1800594 C17.1712598,10.1800594 17.8534578,9.89329916 18.4857675,9.32561664 C18.545473,9.2717874 18.6051785,9.21501914 18.6639067,9.15629656 C18.8792403,8.94097458 19.0622606,8.71196228 19.2159343,8.47508756 C19.3901571,8.58959872 19.551646,8.73446212 19.6945703,8.91355885 C19.7826602,9.02513351 19.850196,9.13083767 19.899137,9.21695593 C19.7112106,9.45674461 19.3500411,9.87564004 18.8831567,10.219176 L18.8832893,10.2189854 Z M20.0901276,8.08633615 C19.9374362,7.93854877 19.7720309,7.81328128 19.5968083,7.70854928 C19.8180127,7.0743444 19.8013749,6.51059559 19.7406897,6.13082934 C20.1087248,6.11712699 20.464006,6.20717095 20.80072,6.40488643 C20.920131,6.47339819 21.0170308,6.54582363 21.0914296,6.60650555 C20.969082,6.94711005 20.6744585,7.60677133 20.0901326,8.08633615 L20.0901276,8.08633615 Z" id="asparaqus" fill="#000000"></path>
    </g>
</svg>