<?xml version="1.0" encoding="UTF-8"?>
<svg width="24px" height="24px" viewBox="0 0 24 24" version="1.1" xmlns="http://www.w3.org/2000/svg" xmlns:xlink="http://www.w3.org/1999/xlink">
    <!-- Generator: Sketch 57.1 (83088) - https://sketch.com -->
    <title>crops-nactarine</title>
    <desc>Created with Sketch.</desc>
    <g id="crops-nactarine" stroke="none" stroke-width="1" fill="none" fill-rule="evenodd">
        <path d="M13.8995914,8.19808512 C14.2579672,7.49733568 14.6658199,7.04087943 14.6749556,7.03147891 C14.8431144,6.84748333 14.8339846,6.55778504 14.6551726,6.38474737 C14.4763607,6.21171371 14.1948239,6.22032651 14.0266611,6.40432129 C14.0061165,6.42702685 13.8288317,6.6235598 13.6020759,6.9508341 C13.594467,6.08017382 13.2954365,5.2463339 12.7430102,4.57224265 C12.1152584,3.80651139 11.234902,3.3383095 10.2646887,3.25374493 L7.37243715,3.00163468 C7.12818916,2.98049454 6.91208841,3.16683925 6.89153799,3.41894549 L6.80327445,4.48767808 C6.72109617,5.4859569 7.02165425,6.45759757 7.64940609,7.22324866 C8.09985947,7.77288829 8.68119269,8.16827124 9.3317545,8.37967264 C6.79713855,9.4178786 5,11.9665012 5,14.939991 C5,18.8328875 8.07788708,22 11.8611111,22 C15.6443351,22 18.7222222,18.8328875 18.7222222,14.939991 C18.7222222,11.7768873 16.6905557,9.09363091 13.8995953,8.19787586 L13.8995914,8.19808512 Z M17.8326094,14.9402003 C17.8326094,15.626859 17.7207567,16.2860978 17.5183537,16.9030844 C17.5510726,16.648629 17.570094,16.3894634 17.570094,16.1256075 C17.570094,13.5121033 15.9166525,11.2038654 13.5494201,10.5133584 C13.4695248,10.4898691 13.3858271,10.4702964 13.2983155,10.4515054 C13.3409259,10.3818213 13.3660364,10.2996119 13.3660364,10.2111408 C13.3660364,9.80321042 13.4398445,9.41017258 13.5509356,9.04844308 C16.0230238,9.80008359 17.8324341,12.1560256 17.8324341,14.9403025 L17.8326094,14.9402003 Z M8.3297475,6.63306935 C7.85494529,6.05446651 7.62818949,5.32004358 7.68982125,4.56535642 L7.74004023,3.95308008 L10.1893379,4.1668266 C10.9228416,4.23102873 11.5878763,4.58491912 12.0626785,5.163542 C12.5374807,5.74214485 12.7642365,6.47656778 12.7026048,7.23125494 L12.6523858,7.84353128 L10.2030881,7.62978476 C9.46958447,7.56558263 8.80454971,7.21169224 8.3297475,6.63306935 Z M5.89029768,14.9402003 C5.89029768,11.5524062 8.56875563,8.79558921 11.8618864,8.79558921 C12.1388592,8.79558921 12.4112545,8.81672935 12.6783319,8.85431138 C12.5565878,9.27398735 12.4774638,9.7304436 12.4774638,10.2103911 C12.4774638,10.2330967 12.4805074,10.2550205 12.4843119,10.2761587 C12.2887615,10.221351 12.1168003,10.1508852 12.0216841,10.0530116 C11.8481996,9.87449801 11.5666726,9.87449801 11.3924129,10.0530116 C11.2189284,10.2315252 11.2189284,10.5212135 11.3924129,10.7005249 C11.766781,11.0857456 12.3480948,11.1969283 12.8609591,11.2955892 C13.0283582,11.3276857 13.1858699,11.3582203 13.3068543,11.3934532 C15.292745,11.9728378 16.6806284,13.9193662 16.6806284,16.1255815 C16.6806284,18.7743626 14.6520786,20.9446995 12.1090866,21.07779 C12.0269083,21.0809218 11.944732,21.0840537 11.8617999,21.0840537 C8.56866914,21.0840537 5.89029768,18.3280385 5.89029768,14.9402444 L5.89029768,14.9402003 Z" id="nectarine" fill="#000000" fill-rule="nonzero"></path>
    </g>
</svg>