<?xml version="1.0" encoding="UTF-8"?>
<svg width="24px" height="24px" viewBox="0 0 24 24" version="1.1" xmlns="http://www.w3.org/2000/svg" xmlns:xlink="http://www.w3.org/1999/xlink">
    <!-- Generator: Sketch 57.1 (83088) - https://sketch.com -->
    <title>crops-banana</title>
    <desc>Created with Sketch.</desc>
    <g id="crops-banana" stroke="none" stroke-width="1" fill="none" fill-rule="evenodd">
        <path d="M11.4904547,22 C10.2584939,22 8.33687149,21.5977508 7.7556385,20.8386125 C7.3617682,20.9000184 6.80652079,20.9240472 6.49851395,20.662403 C6.34148332,20.5289107 6.25993525,20.339346 6.26773092,20.1266479 C6.27553925,19.9103911 6.35362103,19.1664078 7.02686518,18.6555769 L7.03467329,18.6466773 C7.17695432,18.5176345 7.29754962,18.4170745 7.45457359,18.3992813 C7.61333881,18.3814824 7.7573611,18.4446688 7.8736077,18.496285 C7.895297,18.5060744 7.91698585,18.5167537 7.93694144,18.5238724 C7.9768504,18.5105232 8.07922248,18.4678067 8.12260285,18.4384377 C8.51127603,18.1785796 9.00666777,18.0103759 9.63478585,17.7985662 C10.2186618,17.600998 10.8806278,17.376724 11.6683684,17.0127496 C13.4425615,16.1931008 14.8861382,15.0878041 15.9455502,13.8026844 C15.9429474,13.8035743 15.9412124,13.8053541 15.9386096,13.8062442 C12.5420502,15.6920265 7.03910416,15.1696448 3.67896895,11.0429454 L3.27294983,10.7804217 C3.23737846,10.7572838 3.2052785,10.7279147 3.17838453,10.6949871 C3.11939061,10.6202329 3.04304187,10.5045384 3.01701631,10.3781726 C3.00140009,10.3016368 2.97363816,10.1058524 3.05952827,9.93942568 C3.14628457,9.77300579 3.27902424,9.69202967 3.37706316,9.63327341 C3.46642246,9.57898708 3.53062461,9.53982839 3.60002831,9.42235686 C3.76139653,9.14914819 4.20038402,9.17584937 4.3444152,9.24703809 C4.37391216,9.25949743 4.49623983,9.29687498 4.60382679,9.3253532 L4.86583693,9.38320044 C5.33260011,9.29509566 5.96504912,9.4535052 6.75194575,9.65018947 C7.28376172,9.7827909 7.88587201,9.93319465 8.47581127,10.0097213 C10.7983001,10.3114082 16.3161268,10.5143098 17.68781,5.97196512 C17.6617822,5.8785201 17.6340198,5.78596588 17.6045229,5.69251403 C17.5533357,5.63555759 17.4570358,5.53410449 17.3876299,5.46202269 C17.0397341,5.09713693 16.9668634,5.02061026 16.9373687,4.87466506 C16.9269578,4.82571897 16.9113409,4.73761419 16.8939905,4.63973113 C16.8879177,4.62104212 16.8827121,4.60146323 16.8792418,4.58099536 L16.8610228,4.48132159 C16.8566848,4.45907303 16.8549497,4.43771345 16.8540822,4.41546627 C16.8263199,4.25705673 16.8037635,4.12266458 16.8037635,4.12266458 C16.7994257,4.0995266 16.7976906,4.07727713 16.7976906,4.05413915 C16.7976906,3.54064263 17.3069636,3.1632948 18.1962256,3.01557257 C18.2526187,2.99955346 18.3202879,2.99332379 18.3983712,3.0093429 L20.2428364,3.0093429 C20.3495483,3.0093429 20.8831033,3.05740047 20.8831033,4.00608067 L20.8831033,4.08795669 C20.8831033,4.56586682 20.4250242,4.90136306 20.1517314,5.05977032 C20.9065126,5.8518294 23.5231937,11.0704977 20.7659683,15.9286545 C17.8908973,20.9968667 13.8540265,21.9045246 11.7032201,21.9954271 C11.6346826,21.998097 11.5644083,22 11.4906648,22 L11.4904547,22 Z M7.97329549,19.9922854 C8.05571419,19.9922854 8.13640052,20.0189843 8.20407852,20.0697097 C8.29517463,20.1382351 8.35243396,20.2441376 8.36110915,20.3589345 C8.48257063,20.6472708 10.1630647,21.2631294 11.6708279,21.199042 C13.6627891,21.1153867 17.4054231,20.2672802 20.0950416,15.529142 C22.7566756,10.8391206 19.9302019,5.91603344 19.6013822,5.62236602 C19.3116097,5.37941261 19.2682338,5.13112808 19.2829811,4.9664784 C19.3133465,4.63542476 19.5805493,4.46899803 19.6343417,4.43874277 C19.6430175,4.43429311 19.6516932,4.42895333 19.6612357,4.42539378 C19.8616444,4.33106024 20.0828683,4.15840475 20.1088983,4.07654695 L20.1071631,4.00891003 C20.1071631,3.92169605 20.1002225,3.85584073 20.0915468,3.80956248 L18.3598634,3.80956248 C18.342512,3.80956248 18.3260289,3.80867259 18.3112793,3.80689282 C17.8835611,3.87986769 17.6510457,4.00624037 17.5842605,4.07299332 C17.6076853,4.20737408 17.6527981,4.47079991 17.6822973,4.62831865 C17.7464972,4.700405 17.8653557,4.82588688 17.9434412,4.90776974 C18.229749,5.20767959 18.278322,5.26019343 18.3156347,5.36253277 C18.3685564,5.52628255 18.418009,5.69092084 18.4622555,5.85468201 C18.4665933,5.86714112 18.4700638,5.88049011 18.4726664,5.8938407 C19.7297909,10.6380846 17.1782514,15.342459 11.9884872,17.740781 C11.1634339,18.1216829 10.4511404,18.3628592 9.8794132,18.5568529 C9.30595368,18.7508602 8.85220549,18.9048112 8.54855179,19.1077356 C8.45919249,19.1682507 8.14599742,19.3391155 7.89180516,19.3248809 C7.77208049,19.3195414 7.66364289,19.2714831 7.56734078,19.2296566 C7.56126771,19.2349964 7.55606215,19.2403359 7.55172434,19.2438957 C7.52309356,19.2697038 7.5014056,19.2883923 7.49012741,19.2964027 C7.16390845,19.5437987 7.07542423,19.8828718 7.05199279,20.0653147 C7.21683242,20.0982423 7.5812102,20.0733241 7.88746246,20.0021295 C7.91522483,19.9959 7.94472179,19.99234 7.97335257,19.99234 L7.97329549,19.9922854 Z M3.89578062,10.2420257 L4.14564196,10.4031054 C4.18034492,10.4262433 4.21244488,10.453833 4.23847266,10.4867607 C7.34097308,14.3420285 12.4361454,14.8466625 15.5690734,13.1058458 C16.9250986,12.35295 17.3207013,11.3508811 17.7787804,10.1894481 L17.7874562,10.1671993 C18.0043492,9.25500766 18.0650799,8.3090067 17.958368,7.35400662 C16.4774122,10.1252793 13.0088926,11.4024706 8.37768506,10.8016941 C7.74434766,10.719818 7.11882814,10.5631833 6.56706768,10.4252575 C5.91898291,10.2632871 5.24835509,10.0959809 4.97159757,10.1760617 C4.91086683,10.1938606 4.8457985,10.1956404 4.78333316,10.1814013 L4.42242235,10.1013068 C4.34260442,10.0799482 4.23068876,10.0496906 4.13611458,10.0176515 C4.05456206,10.1191046 3.96954035,10.1894116 3.89578062,10.2419186 L3.89578062,10.2420257 Z M10.3566395,20.0893391 C10.1631713,20.0893391 9.99572865,19.9416078 9.97143102,19.739581 C9.94540324,19.5206541 10.0963617,19.3222042 10.3089104,19.2946145 C15.5428946,18.6280418 18.9230187,14.0965416 19.1919805,11.9552072 C19.2197429,11.7371711 19.4123449,11.5823247 19.6274944,11.6108029 C19.8400498,11.6392812 19.9910038,11.8386287 19.9632414,12.0575465 C19.6595877,14.4736388 16.1087139,19.3605017 10.4052125,20.0856711 C10.3887285,20.0874509 10.3722441,20.0892309 10.3566284,20.0892309 L10.3566395,20.0893391 Z M10.5405641,12.3735636 C8.00974637,12.3735636 6.64161676,11.8743062 6.58187213,11.8520477 C6.38059495,11.7764027 6.27648606,11.5476952 6.34935673,11.3412167 C6.42310025,11.1347496 6.64519255,11.0279563 6.84734703,11.1027059 C6.8733748,11.1124954 8.31442173,11.6259989 10.9370773,11.5725966 C13.2622314,11.5236505 14.468895,10.8161466 14.4811105,10.8081272 C14.6659035,10.6968844 14.9036093,10.7600696 15.0129265,10.9496275 C15.1213729,11.1382946 15.0615106,11.3821319 14.8775838,11.4942678 C14.8229275,11.5280862 13.5033465,12.3156936 10.9535393,12.3690732 C10.8112561,12.372633 10.6741832,12.3735229 10.5405685,12.3735229 L10.5405641,12.3735636 Z" id="banana" fill="#000000"></path>
    </g>
</svg>