<?xml version="1.0" encoding="UTF-8"?>
<svg width="24px" height="24px" viewBox="0 0 24 24" version="1.1" xmlns="http://www.w3.org/2000/svg" xmlns:xlink="http://www.w3.org/1999/xlink">
    <!-- Generator: Sketch 57.1 (83088) - https://sketch.com -->
    <title>crops-melon</title>
    <desc>Created with Sketch.</desc>
    <g id="crops-melon" stroke="none" stroke-width="1" fill="none" fill-rule="evenodd">
        <path d="M19.2942987,8.98480914 C21.151839,13.7663249 18.675988,16.3712827 18.2378889,16.7960962 C18.0850636,17.1119351 17.4228208,18.2020887 15.3577641,18.9490172 L15.358401,18.9490172 C14.4885766,19.2400291 13.575358,19.3788352 12.6585693,19.35973 C10.2462447,19.4201331 7.9480786,18.3337956 6.46383951,16.4324046 C4.03901179,13.2599964 5.34629958,9.78959927 5.39724134,9.65022262 L5.43206708,9.59523617 C5.43849637,9.53063818 5.44953757,9.46738717 5.46538104,9.40562067 C5.60101327,8.88283597 6.12061432,8.30209991 7.79533483,8.38678549 C7.95725931,7.45206496 8.73785532,4.9640273 12.1470779,5.03425167 C12.3919464,5.01086473 17.5254901,4.44439252 19.2942987,8.98480914 Z M14.285024,5.76347826 L14.4067141,5.85015714 C14.9111073,6.22858033 15.3850263,6.73558613 15.8198437,7.36485306 C17.4773663,9.76229449 18.2987919,13.6478873 17.5823471,15.6785481 C17.5454147,15.7804316 17.4619974,15.8587597 17.3582033,15.888689 C16.8608813,16.0064924 16.350828,16.0567886 15.8401389,16.0383306 C14.0548951,15.9955738 12.2967932,15.5874072 10.6748076,14.8391909 C8.66955469,13.9753577 6.59933553,12.3424102 5.78498464,10.8946669 C5.5921203,12.0774273 5.55133734,14.1255545 6.9936175,16.0077492 C9.26244118,18.9757384 13.171019,18.9693808 15.1002852,18.2695633 C17.0879745,17.5523761 17.5792884,16.5161178 17.6147702,16.4338058 L17.6162527,16.4286504 C17.6366294,16.3764355 17.669105,16.3299506 17.711769,16.2930182 C17.8238408,16.1943183 20.4288801,13.8548234 18.6357302,9.20518564 C17.7161886,6.83426511 15.7903713,6.02167921 14.285024,5.76347826 Z M12.1591282,5.69689761 C8.60657215,5.61220714 8.42318182,8.64124977 8.42318182,8.75340314 C8.428276,8.85019249 8.39197938,8.94443882 8.32320882,9.01256221 C8.25443663,9.08069702 8.15955944,9.11571887 8.0633977,9.10998894 C7.83925396,9.07241919 7.63866569,9.06223083 7.45209659,9.06223083 C6.68488599,9.06239548 6.20921223,9.23877622 6.12452665,9.57499183 C5.86280826,10.593827 8.162197,13.0116451 10.9435355,14.21762 C14.2070684,15.6267913 16.3943852,15.3720825 16.9986768,15.2568319 C17.4807081,13.5419285 16.8732329,10.0640327 15.2633967,7.73456797 C14.6317189,6.82079507 13.5651207,5.72754417 12.1591282,5.69689761 Z M12.689004,9.49413593 C14.8795811,11.0395866 15.1953385,13.6949971 15.2087056,13.8069875 C15.2195307,13.9018663 15.189602,13.9967517 15.1271988,14.0687059 C15.0660687,14.1381138 14.9788303,14.1801404 14.8858571,14.1839614 L14.8145387,14.2043344 C13.3072983,14.1489358 11.8485057,13.6554349 10.6169377,12.7849747 C8.1239703,11.0866987 8.0054594,10.5842907 8.09723607,10.2245196 L8.09723607,10.2238827 C8.15963932,9.98444832 8.36658349,9.80997484 8.61366324,9.78959813 C9.02119732,9.4196387 10.7054541,8.09132215 12.689004,9.49413593 Z M10.6104019,9.58829374 C10.0029153,9.64178178 9.43746989,9.91813552 9.02101898,10.3632442 C8.96689356,10.4116397 8.89939614,10.44093 8.82744029,10.4479347 L8.82704808,10.468388 C8.96988781,10.6659272 9.41269483,11.1268861 10.7962293,12.0898799 L11.0009825,12.2308914 C12.0312775,12.946619 13.2270966,13.388549 14.475129,13.5146237 C14.3051057,12.7638644 13.7791423,11.1069124 12.3119381,10.0709608 C11.823533,9.70608739 11.2179699,9.53415692 10.6104019,9.58829374 Z M12.9589208,11.5006001 C13.0467949,11.5286189 13.1193881,11.5903847 13.1601448,11.6731663 C13.2008982,11.7553105 13.2066298,11.8508186 13.1760641,11.9374277 C13.1454984,12.0240369 13.0811852,12.094074 12.9977598,12.1329137 L12.318319,12.472308 C12.271834,12.4945953 12.2208922,12.5066941 12.1693147,12.5060567 C12.0400516,12.507332 11.9216173,12.4347399 11.863666,12.3194893 C11.7802486,12.1513896 11.8483834,11.9482583 12.0164912,11.8641922 L12.6952951,11.5247978 C12.776802,11.4814982 12.8716759,11.4725829 12.9589208,11.5006001 Z M11.978364,10.486854 C12.0611439,10.5250612 12.1241846,10.5957423 12.1547447,10.6817042 C12.1846724,10.7676678 12.1789425,10.8625516 12.1388255,10.9440584 L11.7994311,11.6234992 L11.7987942,11.6234992 C11.7446688,11.7476699 11.6217777,11.8272662 11.4867698,11.8272662 C11.4339262,11.8279064 11.3810739,11.8164444 11.3339532,11.7928835 C11.2530837,11.7521301 11.1913162,11.6808117 11.1632942,11.5948546 C11.1352754,11.508891 11.1429175,11.4152788 11.1843083,11.3344077 L11.5237027,10.6556038 C11.5612724,10.5721865 11.630043,10.5072353 11.7160098,10.4753922 C11.8013377,10.443554 11.8955857,10.4480108 11.978364,10.486854 Z M10.4679433,9.78959927 C10.6551481,9.78959927 10.8073376,9.94115141 10.8073376,10.1289936 L10.8073376,10.8084345 C10.8073376,10.8982191 10.7716784,10.9848152 10.7080004,11.0485046 C10.6443224,11.112194 10.5577214,11.1478419 10.4679302,11.1478419 C10.2801027,11.1478419 10.1279131,10.9956409 10.1279131,10.8084345 L10.1279131,10.1289936 C10.1279131,9.94115304 10.280101,9.78959927 10.4679433,9.78959927 Z" id="Combined-Shape" fill="#000000"></path>
    </g>
</svg>