<?xml version="1.0" encoding="UTF-8"?>
<svg width="24px" height="24px" viewBox="0 0 24 24" version="1.1" xmlns="http://www.w3.org/2000/svg" xmlns:xlink="http://www.w3.org/1999/xlink">
    <!-- Generator: Sketch 57.1 (83088) - https://sketch.com -->
    <title>crops-olivesforoil</title>
    <desc>Created with Sketch.</desc>
    <g id="crops-olivesforoil" stroke="none" stroke-width="1" fill="none" fill-rule="evenodd">
        <path d="M16.4035097,11.8377085 C16.2589572,11.8516653 16.1193437,11.8812541 15.9841203,11.9220071 C15.1376588,10.7954158 13.7947967,10.2315771 12.5185472,9.95746109 C12.7037792,9.54713023 12.9610132,8.76387007 12.7015842,7.95947239 C12.4635854,7.22367518 11.8611591,6.66037957 10.9107543,6.2830484 C10.4369519,6.09546899 9.91314087,6 9.35420833,6 C7.22975248,6 5.23615793,7.34990005 5.15215341,7.40741011 C5.01419042,7.502316 4.96251709,7.68375567 5.0295814,7.83839256 C5.19667581,8.22304111 5.66223248,8.23756155 6.59006725,8.26658812 C7.30682134,8.28947781 8.28901281,8.32018224 9.47689572,8.52618373 C10.967026,8.78466459 11.4733045,9.43169565 11.6446906,9.80909828 C10.6195822,9.67846297 9.73791477,9.70805121 9.33773247,9.73317328 C9.07115533,9.33736286 8.60724498,9.11293928 8.02406792,9.11293928 C7.61787725,9.11293928 7.16826314,9.21901132 6.68786145,9.42724376 C6.0546616,9.70191719 5.56986973,10.0703732 5.28459209,10.4929807 C4.9844835,10.9384835 4.91906692,11.4225027 5.10100634,11.8540426 C5.32361127,12.3843957 5.85182658,12.688653 6.55047116,12.688653 C6.97150684,12.688653 7.4337568,12.5803486 7.92459926,12.3676457 C8.55615279,12.0935297 9.03489409,11.7267458 9.30697303,11.3069252 C9.49165632,11.0227621 9.57795442,10.7196195 9.56530449,10.4237371 C9.84947052,10.4125715 10.271055,10.4064312 10.767948,10.4354607 C9.83354202,11.0914241 5.80464616,14.0848628 5.97546941,16.9142035 C5.98096586,17.010227 6.02603675,17.1001108 6.0985916,17.1615225 C6.12497493,17.1838533 6.36297364,17.3770137 6.70705444,17.3770137 C6.91316803,17.3770137 7.11105002,17.3094622 7.29298944,17.1771577 C7.73161401,16.8589372 10.910812,13.2413486 11.4785812,10.6776918 C11.4917728,10.6168404 11.4862764,10.5548713 11.4686875,10.49793 C12.0447305,10.5665977 12.6702334,10.6871816 13.2704928,10.8926257 C12.8280268,11.3749728 12.5257091,12.0007948 12.4531585,12.1587903 C12.4042389,12.1554407 12.3553206,12.1487415 12.3063968,12.1487415 C11.2301822,12.1487415 10.3557191,13.0129502 9.96707515,14.4600056 C9.51141046,16.1604398 10.0605157,17.5880442 11.3027328,17.9313324 C11.4687297,17.9771103 11.6380192,18 11.8067599,18 C12.8824258,18 13.7948667,17.0911295 14.1873099,15.6278529 C14.4143191,14.7826237 14.4011204,14.0138839 14.1488339,13.4047689 C13.9454642,12.9123747 13.5909426,12.542804 13.1352779,12.3345587 C13.2897365,12.0247132 13.6068852,11.4792823 13.9712987,11.1811704 C14.4973189,11.4390939 14.9755115,11.7818676 15.3476219,12.2351881 C15.1503028,12.3786631 14.9755115,12.5561954 14.8320425,12.7672276 C14.4533327,13.323263 14.6336117,14.0646483 14.7166158,14.9294287 C14.8721719,16.5589757 15.487234,17.6627286 16.7476395,17.6627286 C16.8174448,17.6627286 16.8888993,17.6593791 16.9603524,17.6521214 C17.6078485,17.5884788 18.1657398,17.2445775 18.5323765,16.6846404 C18.9066962,16.1124125 19.0611406,15.3514903 18.9781492,14.4849949 C18.8236907,12.8698826 17.9019346,11.8264409 16.6295406,11.8264409 C16.5547879,11.8264409 16.4794864,11.8303488 16.403629,11.8376063 L16.4035097,11.8377085 Z M9.59337495,7.83658608 C8.3583116,7.62276699 7.34861112,7.59093923 6.6115665,7.56805812 C6.5032851,7.56470841 6.39115667,7.56080061 6.28287949,7.55689267 C7.01007434,7.18284861 8.17530278,6.69994418 9.3543209,6.69994418 C9.82757446,6.69994418 10.2667478,6.77921916 10.6608514,6.93497224 C11.408379,7.23141203 11.8744844,7.64788834 12.0459831,8.17322502 C12.1581129,8.51711347 12.1328286,8.86716166 12.0641222,9.16081454 C11.7096006,8.65837327 11.0021897,8.0811146 9.59337635,7.8365968 L9.59337495,7.83658608 Z M8.73261714,10.9221781 C8.59410397,11.1348824 8.29509012,11.4469574 7.65419337,11.7249751 C7.25515083,11.8985914 6.87368309,11.9896014 6.55048382,11.9896014 C6.30974124,11.9896014 5.88375252,11.9365661 5.734247,11.5803853 C5.62376629,11.3185602 5.73754485,11.0600793 5.85297197,10.8892498 C6.0002824,10.6709717 6.31138052,10.3521939 6.95832784,10.071375 C7.3474784,9.90277508 7.71574743,9.81345155 8.02410169,9.81345155 C8.25880777,9.81345155 8.6754392,9.86872066 8.83044652,10.2371738 C8.94367532,10.504587 8.83979058,10.7574798 8.7326087,10.9221781 L8.73261714,10.9221781 Z M6.89296051,16.607585 C6.82920151,16.6544791 6.76818919,16.6768114 6.70717968,16.6768114 C6.69068974,16.6768114 6.67474999,16.6751366 6.65936042,16.6723452 C6.70828004,14.7222339 9.13165406,12.5690367 10.4684093,11.5278816 C9.51751198,13.7258121 7.22164189,16.3692169 6.89294081,16.6076035 L6.89296051,16.607585 Z M13.5141203,13.6754865 C13.7059517,14.1394115 13.7086956,14.7512705 13.5229147,15.4440924 C13.215658,16.5896631 12.5582699,17.3008785 11.8069431,17.3008785 C11.6992119,17.3008785 11.5909235,17.2863637 11.4837438,17.2562167 C10.6196934,17.0172727 10.2772589,15.967171 10.6317805,14.6441109 C10.9335354,13.5197492 11.5596012,12.8482077 12.3065237,12.8482077 C12.4214017,12.8482077 12.5379231,12.8643974 12.6533484,12.8962195 C13.0512934,13.0067577 13.3492069,13.276409 13.5141062,13.6755637 L13.5141203,13.6754865 Z M18.2922463,14.5530866 C18.3593036,15.2576277 18.2438769,15.8605544 17.9580575,16.2971107 C17.704665,16.6845461 17.3369448,16.9117709 16.8933812,16.9558753 C16.8444616,16.9608997 16.7955434,16.9631328 16.7477171,16.9631328 C15.8473914,16.9631328 15.5241921,16.1352108 15.4027162,14.86453 C15.3356589,14.1666918 15.1146947,13.5827303 15.3994184,13.1650963 C15.6500529,12.7971977 16.0205311,12.5789053 16.4712428,12.5348009 C16.5245596,12.5292181 16.5773263,12.5269849 16.6295428,12.5269849 C17.5353703,12.5264268 18.1724397,13.3029851 18.2921848,14.5529857 L18.2922463,14.5530866 Z" id="Shape" fill="#000000" fill-rule="nonzero"></path>
    </g>
</svg>