<?xml version="1.0" encoding="UTF-8"?>
<svg width="24px" height="24px" viewBox="0 0 24 24" version="1.1" xmlns="http://www.w3.org/2000/svg" xmlns:xlink="http://www.w3.org/1999/xlink">
    <!-- Generator: Sketch 57.1 (83088) - https://sketch.com -->
    <title>crops-unrooted</title>
    <desc>Created with Sketch.</desc>
    <g id="crops-unrooted" stroke="none" stroke-width="1" fill="none" fill-rule="evenodd">
        <path d="M19.508879,3.1252394 C19.6887237,3.30938555 19.7069277,3.62936493 19.549678,3.83997071 L6.11566216,21.8269469 C5.95832091,22.0375527 5.6850777,22.0588704 5.50523298,21.8747242 C5.32547975,21.6905781 5.30718425,21.3704916 5.46443403,21.1599929 L18.8985413,3.1730167 C19.0557911,2.96251805 19.3290343,2.94109325 19.508879,3.1252394 Z M13.6095425,12.3248341 C13.6645205,12.6608821 13.7881065,12.9796831 13.9791115,13.2890572 C14.0195445,13.3555812 14.0636367,13.4208197 14.1105646,13.4870223 C14.5498394,14.1010571 14.6703153,14.8120391 14.3563646,15.5280559 C14.1999381,15.8870284 14.212379,16.1856901 14.293611,16.5335217 C14.4834268,17.3356662 14.3549009,18.0876767 14.011403,18.7995156 C13.8835175,19.0640048 13.7136439,19.2995704 13.428783,19.1136032 C13.1461176,18.9295642 13.2190252,18.6511489 13.3537715,18.376483 C13.611555,17.8507184 13.723249,17.3008509 13.5359031,16.6379676 C13.3192845,16.8578932 13.1590159,17.0861744 12.9522769,17.207653 C12.8104868,17.2906741 12.6040221,17.2252213 12.4271047,17.2251142 C12.4410093,17.0018678 12.3806341,16.700528 12.4812593,16.5681227 C12.7738043,16.185583 13.1436477,15.8860643 13.4595194,15.5252706 C13.8735465,15.0526396 13.908125,14.4541378 13.4971167,14.0160006 L13.4971167,14.0160006 L13.4638189,13.9788286 C13.237961,13.7324434 13.0734845,13.4683827 12.9691087,13.1823617 L12.9691087,13.1823617 Z M15.6405254,10.3696069 C15.9102924,10.2786586 16.1871033,10.2118132 16.2826057,10.6005662 C16.3761872,10.9862126 16.1061457,11.1543973 15.8433309,11.2082806 C15.5198666,11.2743762 15.1849675,11.2694484 14.8527214,11.2955867 C15.0047569,12.0319571 15.5666116,12.4485623 16.1847248,12.2251016 C16.8942241,11.9666114 17.5105993,12.083698 18.1297189,12.5699338 C18.8898967,13.165329 19.8559903,13.0498493 20.5952197,12.3477586 C20.8056179,12.1477581 21.0153758,11.9197982 21.2568763,12.2466336 C21.5172212,12.5998214 21.272153,12.8348514 21.0584617,13.042672 C20.429554,13.6524218 19.7048695,13.9023421 18.8142448,13.7681157 C19.4010728,14.9579419 20.2210769,15.6538194 21.2599865,16.0255397 C21.37598,16.0668896 21.5236246,16.049964 21.6097964,16.1301998 C21.7666803,16.2768526 22.0047046,16.4803882 21.9999292,16.6514652 C21.9887876,17.018472 21.6938642,17.0566082 21.4417523,16.9775507 C21.0178457,16.8433243 20.6029953,16.6739613 20.0794697,16.4809238 C20.1863154,16.843967 20.2589485,17.1689812 20.3778693,17.4689284 C20.4871848,17.7438086 20.5408821,17.9960856 20.2863918,18.1621278 C20.011502,18.3414534 19.7975362,18.1757326 19.7154809,17.8621806 C19.5793624,17.3402725 19.4963008,16.8014388 19.3682324,16.2767455 C19.3118823,16.0438579 19.227723,15.8067925 19.1083449,15.611077 C18.7654873,15.0496401 18.3487159,14.5421937 18.0517801,13.9502265 C17.5819518,13.0122488 17.2615977,12.8118198 16.3434383,13.0941986 C16.2551625,13.1215152 16.1640509,13.1317991 16.0597666,13.1529026 C16.2041181,13.6086081 16.3619167,14.04396 16.4792823,14.493238 C16.6404656,15.1161641 16.5945439,15.7414469 16.326149,16.3067402 C16.2566261,16.4549998 16.0083563,16.5688726 15.85504,16.5498045 C15.7644773,16.5375924 15.5976224,16.1845117 15.6389702,16.0739597 C16.1014803,14.8298216 15.6161009,13.8264983 14.9489557,13.0122488 C14.6256743,12.6188894 14.384997,12.1921074 14.1887779,11.7426151 L14.1887779,11.7426151 L15.1674039,10.4334528 C15.314957,10.4477003 15.4731216,10.4256327 15.6405254,10.3696069 Z M11.4895246,5.10381964 L12.2061591,5.01876318 C12.3420947,5.53520798 12.4477511,5.9736665 12.5731668,6.4039836 C12.7156887,6.89204053 12.8690049,7.37602675 13.031103,7.85508527 C13.2151633,8.40066779 13.5471916,8.70366281 13.9722283,8.72966251 L14.0904121,8.72985984 L13.0241507,10.1575014 C12.8221684,9.71914995 12.665559,9.2569099 12.517274,8.77999387 C12.4556182,8.58299284 12.3938709,8.38492056 12.3232503,8.1596388 C12.0054772,9.0787627 12.0659144,9.85351679 12.4863979,10.5737875 L12.5898157,10.7390775 L12.0864151,11.4129946 C12.0716873,11.3959619 12.0570509,11.3798933 12.0414082,11.3628606 C11.4771752,10.7617878 11.2739122,10.0605541 11.412775,9.20045556 C11.4270455,9.11336375 11.4189955,9.02166561 11.414879,8.93296694 C11.4141472,8.90500757 11.3934733,8.87876219 11.3689573,8.82059386 C11.1524301,9.15417799 10.9748724,9.51282914 10.7293468,9.78856631 C10.2812902,10.2918348 9.83744145,10.8344179 9.30970791,11.19564 C8.8139,11.535116 8.69607702,11.9770025 8.70403556,12.5496873 C8.71464695,13.3455115 8.96730773,14.04396 9.38042,14.6633509 L9.44640956,14.7660695 L9.44640956,14.7660695 L9.50492084,14.8693504 L9.03820277,15.4943118 C8.94654234,15.430573 8.86430409,15.3232348 8.78810336,15.2089335 C8.2072214,14.3321235 7.91595713,13.3426192 7.95904302,12.1377956 C6.97840451,12.946796 6.33998322,13.9534402 6.00453533,15.2079693 C5.85579296,15.7650141 5.78389166,16.3524821 5.69122498,16.9288092 C5.63780214,17.2615364 5.58575146,17.6187949 5.2083154,17.528168 C4.87469706,17.4479321 4.89079709,17.120347 4.9529103,16.7966182 C5.1165635,15.9366268 5.26987974,15.0743857 5.43618579,14.1647959 C4.68213698,14.479419 3.96714905,14.8338923 3.72290419,15.8546769 C3.64679493,16.1751919 3.50290087,16.4323966 3.22645595,16.2812447 C3.09216702,16.2079719 2.97919234,15.8517846 3.00325091,15.6469635 C3.0889653,14.933839 3.45807691,14.3788296 3.97419281,14.0432101 C4.55324522,13.6670978 5.19285571,13.4206054 5.80008317,13.1035184 C5.96922502,13.0151411 6.1569368,12.9134804 6.27146659,12.7541871 C6.86131334,11.940366 7.55233417,11.2946226 8.37334449,10.8201704 C8.80996647,10.5681076 9.21072928,10.2328095 9.66884847,9.90597421 C8.96136169,9.84652039 8.34754785,9.82273886 7.74096072,9.73168346 C7.47741412,9.69333307 7.20060329,9.56574839 6.98416759,9.38835105 C6.84850649,9.27662072 6.81337914,8.9979912 6.73297045,8.79391999 C6.91647426,8.73339493 7.1095832,8.59691896 7.28082903,8.62648518 C7.814966,8.71668358 8.34699898,9.00998909 8.86741433,8.97345981 C10.154045,8.88133317 10.9019648,8.29986411 11.1844472,6.87340096 C11.2742781,6.42412291 11.3939307,5.98202217 11.4875121,5.53349399 C11.5059677,5.44672356 11.4981807,5.35290302 11.4929021,5.23305135 L11.4895246,5.10381964 L12.2061591,5.01876318 Z" id="Combined-Shape" fill="#000000"></path>
    </g>
</svg>