<?xml version="1.0" encoding="UTF-8"?>
<svg width="24px" height="24px" viewBox="0 0 24 24" version="1.1" xmlns="http://www.w3.org/2000/svg" xmlns:xlink="http://www.w3.org/1999/xlink">
    <!-- Generator: Sketch 57.1 (83088) - https://sketch.com -->
    <title>crops-guayava</title>
    <desc>Created with Sketch.</desc>
    <g id="crops-guayava" stroke="none" stroke-width="1" fill="none" fill-rule="evenodd">
        <path d="M14.1673449,3.01043768 C18.7373232,2.79368169 19.2396286,6.02440337 19.2466811,6.05672706 C19.2607857,6.15290899 19.2294411,6.25066513 19.1620496,6.3208303 C19.0938697,6.39099546 18.9990534,6.42568267 18.9018841,6.41543399 C18.8979522,6.41464487 18.5555183,6.37759251 18.1151286,6.37759251 C17.4498398,6.37759251 16.9302912,6.45958843 16.6129329,6.61410679 C16.4640434,6.68664537 16.3151579,6.77257681 16.1615701,6.86087359 C15.685914,7.13444224 15.1475685,7.44347895 14.4579864,7.48920357 C14.3796178,7.49472217 14.3020396,7.49708731 14.2244613,7.49708731 C12.7152445,7.49708731 11.399552,6.54632776 10.7985173,6.03230931 C10.727208,6.5124218 10.720939,6.93814346 10.7334769,7.24244949 C11.0038332,7.13365372 11.2961157,7.0816222 11.5233618,7.0816222 C11.6119032,7.0816222 11.6941816,7.08950574 11.7662753,7.1044845 L11.7662753,7.1044845 C11.8352339,7.11867455 11.8947877,7.14074976 11.951208,7.16755363 C12.4260818,7.38277577 13.1430867,8.03948182 13.9541355,8.80735098 L13.9541355,8.80735098 L14.2127363,9.05094919 C16.3434497,11.032228 17.8511219,12.6405413 17.8511219,15.3027649 C17.8511219,19.3716824 15.7072488,22 12.3886288,22 L12.3886288,22 L10.4624931,22 C7.14407368,22 5,19.3714805 5,15.3027649 C5,13.1291504 6.32660547,11.1724332 7.49653789,9.4459133 C7.68773518,9.16366634 7.87501865,8.88694927 8.05211536,8.61654921 C8.18690433,8.41079248 8.27545169,8.19950586 8.36164995,7.99611044 C8.52622686,7.60508184 8.69704261,7.20064626 9.15937856,7.10367722 C9.23146421,7.08869866 9.31374264,7.08081491 9.402292,7.08081491 C9.60446242,7.08081491 9.85834899,7.12653953 10.1028472,7.21247096 C10.0824857,6.59522097 10.1318548,5.58847621 10.5393251,4.58173146 C10.6043815,4.42011767 10.7869568,4.34206877 10.9475978,4.40829236 C11.0149893,4.43509624 11.0627896,4.48634066 11.0964853,4.54546822 C11.7556757,3.90137601 12.848736,3.07437524 14.1675579,3.01051699 Z M11.5228535,7.7106745 C11.2642527,7.7106745 10.8661768,7.8210485 10.6749735,7.99843118 C10.6671374,8.00552641 10.657734,8.00789155 10.6498977,8.01419846 C10.6350088,8.02602458 10.6193371,8.03548495 10.6020974,8.0441568 C10.5817239,8.05440609 10.5613504,8.06228963 10.5401925,8.06780823 C10.5307887,8.07017338 10.5229526,8.07648029 10.5127657,8.07805692 C10.4955256,8.08042206 10.4790702,8.08199869 10.4626143,8.08199869 C10.4242163,8.08199869 10.3866028,8.07490386 10.3521247,8.06150172 C10.3442876,8.05834827 10.3380187,8.05204135 10.3301824,8.04809958 C10.30354,8.03548576 10.2776819,8.0212949 10.2557396,8.00158585 C10.2541723,8.00000902 10.2518216,8.00000902 10.2502543,7.99843239 C10.0582546,7.82104769 9.66097505,7.7106745 9.40237425,7.7106745 C9.34516953,7.7106745 9.30834033,7.71540579 9.28718244,7.72013608 C9.15867443,7.74772504 9.08657274,7.89198684 8.93925192,8.24123845 C8.84679276,8.4603961 8.74256205,8.7087371 8.57643646,8.96258783 C8.39777703,9.2361363 8.20813243,9.51600177 8.01458003,9.80139715 C6.89564158,11.4522947 5.62697104,13.3238433 5.62697104,15.3026398 C5.62697104,18.9881361 7.52478598,21.3690209 10.4626564,21.3690209 C13.3995639,21.3690209 15.2982567,18.9883379 15.2982567,15.3018716 C15.2982567,13.3222074 14.0296463,11.4506587 12.9106477,9.79982173 C12.7170833,9.51444654 12.5274567,9.23458106 12.3487913,8.96179951 C12.1826637,8.70873589 12.078443,8.46039489 11.9859758,8.24123724 C11.8394333,7.89199774 11.7665573,7.74693874 11.6380453,7.72013487 C11.6168874,7.71619289 11.5800582,7.7106745 11.5228535,7.7106745 Z M12.9470127,8.72540754 C13.1021611,8.96192182 13.2628022,9.2000103 13.4289278,9.44518271 C14.5988,11.1715614 15.9254656,13.1290253 15.9254656,15.3026398 C15.9254656,18.1446861 14.8769398,20.2794903 13.1153811,21.3114627 C15.6338451,20.94657 17.2245881,18.6728522 17.2245881,15.3026398 C17.2245881,13.0848265 16.164387,11.7241478 13.7876107,9.5136001 L13.7876107,9.5136001 L13.5253188,9.26544074 C13.3795587,9.12747576 13.1726941,8.93195137 12.9470127,8.72540754 Z M9.91163383,10.6 C9.98733622,10.605237 10.3796675,10.6492924 10.5855997,10.9658415 C10.7209204,11.1735853 10.7353436,11.4299118 10.628867,11.7298275 L10.5758321,11.861017 L10.4716319,12.0894148 C10.1916289,12.6948949 10.0744163,12.9480081 10.2941886,13.430305 C10.3951195,13.6013661 11.102444,14.9085792 10.289305,16.3293616 C10.0418563,16.7616399 10.163151,17.0162247 10.4293075,17.5754323 C10.475702,17.6732334 10.5261682,17.7777546 10.5766344,17.8897452 C10.7377984,18.2458774 10.7410553,18.5467539 10.5864019,18.7841753 C10.3804864,19.0999771 9.98814679,19.1447737 9.94419232,19.1485069 C9.93279633,19.15 9.92221529,19.15 9.91163383,19.15 C8.78676682,19.15 6.9,18.6505779 6.9,15.303513 C6.9,13.1280737 8.21615462,10.6 9.91163383,10.6 Z M11.4565239,10.6 C13.1854499,10.6 14.5,13.1284694 14.5,15.302911 C14.5,18.6504424 12.613254,19.15 11.4883662,19.15 C11.4769702,19.15 11.4663891,19.1492533 11.4558077,19.1485067 C11.4110489,19.144779 11.0195302,19.0999712 10.8135981,18.784118 C10.6589458,18.547405 10.6622006,18.2457359 10.8233656,17.889548 C10.8745473,17.7766896 10.9241988,17.6721482 10.971408,17.5735824 C11.2367602,17.015052 11.3588551,16.7596626 11.1114106,16.3280622 C10.2990765,14.9070575 11.0064093,13.6002974 11.1065269,13.4285519 C11.3063086,12.9907093 11.2276196,12.7410879 11.0012832,12.2448891 L10.9290837,12.0881974 L10.8240818,11.8597042 C10.6629178,11.5027708 10.6596609,11.2018472 10.8143142,10.9643886 C11.0003883,10.6801225 11.3361157,10.6154048 11.4334433,10.6025821 L11.4565239,10.6 L11.4581519,10.6 Z M8.84510903,11.7503816 C8.09352843,12.5399586 7.55197049,14.0401004 7.55197049,15.3036831 C7.55197049,16.0074918 7.64431579,16.7754613 7.95007504,17.3880055 C8.01421946,17.2978548 8.10502348,17.2448749 8.2062032,17.2503928 L8.47038884,17.2644264 C8.6590979,17.2749647 8.80663211,17.4913052 8.79977,17.7497571 C8.7940068,17.9381006 8.70814121,18.0958891 8.58873865,18.1639794 C8.91502668,18.4040366 9.33980776,18.5486523 9.88722132,18.5528895 C9.9246641,18.545424 9.99954966,18.5222801 10.0288513,18.4759904 C10.0679214,18.4125353 10.0483863,18.2796332 9.97513028,18.1183674 C9.92547885,18.009347 9.87826956,17.9085623 9.83268769,17.8137447 C9.79967908,17.7444162 9.76746999,17.6767723 9.73691421,17.6102959 C9.74665142,17.6507389 9.75052546,17.6937127 9.74994269,17.7379803 C9.74694689,17.9627959 9.6290769,18.147918 9.47502559,18.1906858 L9.40701784,18.2 L9.40015934,18.2 L9.13611269,18.1929282 C8.9475161,18.1870141 8.79662807,17.9725033 8.80005731,17.7120197 C8.80435896,17.4527311 8.97067258,17.2641439 9.14985163,17.25 L9.41388731,17.2570718 C9.5017925,17.2592799 9.58150548,17.307317 9.64121833,17.3843584 C9.4720415,16.963858 9.41704286,16.5672339 9.71222233,16.051012 C10.4024699,14.8444288 9.7236177,13.7178129 9.717106,13.706614 C9.7105943,13.6969085 9.70571063,13.6872023 9.70082676,13.67675 C9.65176221,13.5717035 9.61409143,13.4725629 9.58649247,13.3779328 C9.55360955,13.4085917 9.51500355,13.4298459 9.47382935,13.4410169 L9.40671011,13.45 L9.39298772,13.45 L9.12883707,13.4359709 C8.93929454,13.4266329 8.79177943,13.2091629 8.80035582,12.9496182 C8.80808428,12.6924109 8.95730711,12.4866475 9.15628186,12.5006772 L9.42043251,12.5147063 C9.47960317,12.5180101 9.53472511,12.541547 9.58230707,12.5802703 C9.59729122,12.5178267 9.61809392,12.453615 9.6418846,12.3884283 C9.57592896,12.4616592 9.48694547,12.5 9.39641811,12.5 C9.35398953,12.5 9.31156095,12.4912925 9.27070397,12.4738768 L9.21079364,12.441222 L8.96771749,12.2746813 C8.80586756,12.1640068 8.75302082,11.9325198 8.84510903,11.7503816 Z M8.20620319,15.3506772 L8.46953246,15.3647066 C8.6590979,15.3752417 8.80663212,15.5915175 8.79977001,15.8498919 C8.79375606,16.0708524 8.67611607,16.249746 8.52382789,16.2910169 L8.45666463,16.3 L8.44379834,16.3 L8.18046754,16.2859706 C7.9909021,16.2754355 7.84336788,16.0591597 7.85022999,15.8007853 C7.85795946,15.5424108 8.01749413,15.3366478 8.20620319,15.3506772 Z M8.20628187,14.4003928 L8.47043252,14.4144264 C8.65911657,14.4249647 8.80663123,14.6413052 8.79977003,14.8997571 C8.79300764,15.1207837 8.67594517,15.299731 8.52382935,15.3410142 L8.45671012,15.35 L8.44298772,15.35 L8.17883708,15.3359664 C7.98929455,15.3266256 7.84177923,15.1090905 7.85035584,14.8494681 C7.85808429,14.5921839 8.01330985,14.3898676 8.20628187,14.4003928 Z M12.2441025,14.4003148 C12.438615,14.3909617 12.5928549,14.5911886 12.59971,14.8499799 C12.6064663,15.0764249 12.4944626,15.271488 12.3394926,15.3229915 L12.2706672,15.335948 L12.006753,15.35 L11.9930429,15.35 C11.8096696,15.35 11.6571451,15.1521024 11.65029,14.8991657 C11.6435337,14.6727208 11.7555374,14.4776576 11.9105074,14.4261541 L11.9793328,14.4131977 L12.2441025,14.4003148 Z M12.2437817,13.4510286 C12.4384696,13.4334749 12.5928485,13.6429272 12.5997097,13.9003556 C12.6064721,14.1266303 12.4943675,14.3215468 12.3392578,14.3730115 L12.2703704,14.3859582 L12.0070746,14.4 L11.9933521,14.4 C11.8098135,14.4 11.6571515,14.2034194 11.6502903,13.950673 C11.6435279,13.7243983 11.7556325,13.5294818 11.9107422,13.4780171 L11.9796296,13.4650704 L12.2437817,13.4510286 Z M8.20628139,13.4509047 L8.47043168,13.464948 C8.65997176,13.4743252 8.80662996,13.6919837 8.79976877,13.9506142 C8.79300638,14.1707713 8.67594406,14.3497145 8.52382845,14.3910103 L8.4567093,14.4 L8.44298693,14.4 L8.17883663,14.3859567 C7.98929435,14.3765795 7.84177944,14.158921 7.85035582,13.9002905 C7.85722799,13.6428284 8.01073859,13.4345207 8.20628139,13.4509047 Z M9.88805482,11.1982152 C9.58714391,11.2052716 9.29459,11.3449988 9.02408606,11.5783042 C9.1030402,11.5428553 9.19213127,11.5403128 9.27456385,11.5738177 L9.33895963,11.6085261 L9.58203578,11.7750643 C9.69573771,11.8528137 9.75564406,11.9906435 9.74958086,12.1286198 L9.80382088,12.0046989 L9.87258928,11.8559769 L9.97514903,11.6327373 C10.0484051,11.471462 10.0679402,11.3378279 10.02887,11.2751144 C9.99956841,11.2288266 9.9254976,11.2056811 9.88805482,11.1982152 Z M14.4778535,3.62897531 L14.1965053,3.63791658 C13.1598152,3.68758478 12.257872,4.32299868 11.6654633,4.87171019 C12.2963481,4.73689948 13.1387316,4.63362373 14.0508656,4.73453434 C14.2232581,4.75425227 14.3470699,4.90955773 14.3282632,5.08299884 C14.308664,5.25643592 14.1511584,5.38178627 13.9818974,5.36207721 C12.8729892,5.23908737 11.8613547,5.45273328 11.2869604,5.61828924 C11.8857684,6.11180265 13.1018402,6.94825269 14.4144032,6.85837968 C14.9605723,6.82289951 15.4119351,6.56275197 15.848413,6.31204966 C16.0145346,6.21666088 16.1767484,6.12442052 16.3373894,6.04558511 C16.7456621,5.84691231 17.342785,5.74600171 18.1130708,5.74600171 L18.1130708,5.74600171 C18.2595932,5.74590766 18.3943741,5.74984943 18.5111326,5.75300288 C18.2274762,5.01046228 17.2627634,3.49128136 14.1965053,3.63791658 Z M11.7609786,16.1957826 C11.9699687,16.6436971 11.9109343,17.0047989 11.7596658,17.3856589 C11.8020676,17.3276661 11.8564778,17.2869889 11.9171345,17.2683566 L11.9861129,17.2570718 L12.2501481,17.25 C12.2559889,17.2502942 12.261802,17.2507668 12.2675836,17.2514144 L12.243247,17.2501796 C12.4394727,17.2431725 12.5919981,17.4420138 12.59971,17.7005236 L12.599,17.708 C12.6029568,17.9409883 12.4884631,18.1338478 12.3328655,18.1816434 L12.2638871,18.1929282 L12.013,18.199 L11.9847597,18.1998674 C11.9122023,18.1999735 11.840096,18.1631335 11.781927,18.1009057 L11.7411243,18.0496552 C11.6874539,17.9705744 11.6534449,17.8659378 11.65029,17.749656 L11.65,17.741 L11.6526551,17.6716213 L11.662,17.606 L11.6267683,17.6871058 L11.5665096,17.8141049 C11.5217425,17.9089392 11.4729058,18.0105005 11.4240671,18.1195207 C11.350811,18.2815668 11.3312759,18.4159674 11.3719735,18.4786907 C11.404534,18.5272262 11.4859292,18.5481344 11.511976,18.5533615 C13.4418972,18.5392157 13.8480604,16.7799156 13.8480604,15.3036466 C13.8480604,14.0393536 13.3060297,12.5382568 12.5537659,11.7476755 L12.5472266,11.7358815 C12.6368861,11.8970175 12.6088684,12.1016787 12.4892104,12.226455 L12.4323937,12.2746798 L12.188599,12.4412197 C12.1302994,12.4813843 12.0666993,12.5 12.0030992,12.5 C11.9109949,12.5 11.82049,12.4602525 11.7536507,12.3858357 C11.7796182,12.4514147 11.8006275,12.5162828 11.8179474,12.580921 C11.8449693,12.5555162 11.876717,12.5374623 11.9105074,12.5262332 L11.9793328,12.5132778 L12.2441025,12.5003963 C12.4394727,12.4898451 12.5928549,12.6912539 12.59971,12.950023 C12.6064663,13.1764486 12.4944626,13.3714951 12.3394926,13.4229941 L12.2706672,13.4359495 L12.006753,13.45 L11.9930429,13.45 C11.9262539,13.45 11.8635573,13.4237493 11.8105009,13.3781499 L11.7659555,13.5149401 L11.6975577,13.6772082 C11.692674,13.6876627 11.6877902,13.6973694 11.6812785,13.7070769 C11.6548071,13.7507777 11.0563824,14.7603378 11.6041945,15.8962416 L11.6861623,16.0518418 L11.7134068,16.103243 C11.6758831,16.0315059 11.652804,15.9445168 11.6502307,15.8497988 C11.6442167,15.6236718 11.7564293,15.4288825 11.9115704,15.3774514 L11.9804682,15.3645131 L12.2437961,15.3504808 C12.4333638,15.338776 12.5920495,15.5422541 12.5997693,15.800682 C12.6057833,16.026809 12.4935707,16.2215983 12.3384296,16.2730294 L12.2695318,16.2859677 L12.0062025,16.3 L11.993336,16.3 C11.9015551,16.3 11.8174943,16.2505951 11.7555209,16.1696174 L11.717,16.11 L11.7609786,16.1957826 Z M11.6528719,12.1331235 C11.6440095,12.0190846 11.6830689,11.9043375 11.7607896,11.8232923 L11.8176063,11.7750675 L12.061401,11.6085276 C12.1596689,11.5412754 12.2758892,11.5337222 12.375635,11.5769344 C12.1054332,11.3443689 11.8128819,11.2046095 11.511976,11.1975362 C11.4745332,11.2050029 11.4004624,11.2274049 11.3719735,11.2737018 C11.340065,11.3237383 11.3467072,11.4192921 11.3873143,11.5384759 L11.4240664,11.6319523 L11.5266262,11.8559724 C11.5713903,11.9526295 11.6139256,12.0444781 11.6528719,12.1331235 Z" id="guava" fill="#000000"></path>
    </g>
</svg>