<?xml version="1.0" encoding="UTF-8"?>
<svg width="24px" height="24px" viewBox="0 0 24 24" version="1.1" xmlns="http://www.w3.org/2000/svg" xmlns:xlink="http://www.w3.org/1999/xlink">
    <!-- Generator: Sketch 58 (84663) - https://sketch.com -->
    <title>crops-cabbage</title>
    <desc>Created with Sketch.</desc>
    <g id="crops-cabbage" stroke="none" stroke-width="1" fill="none" fill-rule="evenodd">
        <path d="M14.9034601,3.0282399 C15.4195623,3.1345046 15.7885693,3.48592258 15.9509621,4.02177059 L15.9900836,4.17243798 L15.951438,4.17243798 C16.6303837,4.52176524 17.2123372,4.92866709 17.6972984,5.43333712 C18.2019684,5.16130104 18.8612053,5.16130104 19.4431587,5.5106283 C20.1031638,5.89859727 20.6070656,6.73288574 20.2774472,7.74144986 C20.9563929,8.98256259 21.3057202,10.5541473 21.3057202,12.3772911 C21.3057202,16.6169932 19.459311,19.21304 15.8200645,20.1491618 L15.5437602,20.2162584 L15.5437602,20.2935495 C15.5746767,20.6196918 15.6055932,20.9079931 15.6167231,21.1693389 L15.6210514,21.3604642 L15.6210514,21.6514409 L15.3497835,21.7287321 C14.8262194,21.8833067 13.4288328,22 12.0906502,22 C10.9859422,22 9.89840276,21.915509 9.38003989,21.7465269 L9.27787519,21.7090233 L9.045249,21.612031 L9.04586733,21.1473547 C9.04834065,20.8599423 9.06070723,20.5528447 9.12254018,20.1957891 C5.28145342,19.3228589 3.34160858,16.7040684 3.34160858,12.3592039 C3.34160858,11.5634796 3.39995523,10.8072505 3.53559306,10.108596 C2.6240173,8.77049099 3.01198626,7.74221804 3.69093196,7.21861512 C4.04025922,6.94657904 4.5055116,6.79199669 4.99047281,6.77229562 C5.57250386,6.05470822 6.2908672,5.47275477 7.14408855,5.02643527 C7.14408855,4.07622168 7.68740029,3.5715594 8.24964492,3.39727598 C8.85130719,3.2032915 9.49083524,3.37756716 9.89851303,3.76553613 C10.3639378,3.40315587 10.9365302,3.17908798 11.5077329,3.13376895 L11.7216568,3.12523214 L11.7413579,3.12523214 C12.3036025,3.12523214 12.8272054,3.31921663 13.2348832,3.64883506 C13.6812027,3.16387773 14.3215067,2.9115466 14.9034601,3.0282399 Z M14.7496266,20.3692578 C14.0124972,20.4859627 13.1979175,20.5443094 12.2871022,20.5443094 C11.4140944,20.5443094 10.5987388,20.4867193 9.84250971,20.370026 C9.80386412,20.622361 9.78416306,20.8549872 9.78416306,21.0876134 C10.8115049,21.3202473 13.682708,21.2816056 14.8079732,21.0679123 C14.7882721,20.854219 14.7693276,20.6215928 14.7496266,20.3692578 Z M17.8516208,6.32483938 C17.5992858,6.63474899 17.5022935,6.92572571 17.4053013,7.23641126 C17.2302497,7.77894707 17.0362652,8.38060934 16.0860516,8.86557055 C15.5040982,9.15655503 14.9418535,8.94286173 14.3985418,8.74887724 C13.7582766,8.49653835 13.1376815,8.28362098 12.4200941,8.8072239 C12.0321251,9.09820062 11.8767862,9.62180354 11.7411484,10.2423987 C12.167759,10.3007492 12.6527202,10.4174503 13.1763232,10.6887182 C14.0106078,11.1153677 14.0878989,12.0663572 14.1462456,12.8809369 C14.2398933,14.0602234 14.2966502,14.9330275 16.0642739,14.9045181 L16.2602885,14.8979875 L16.2989341,15.6739254 L15.9693156,15.6739254 C13.564296,15.6739254 13.4476027,14.0834467 13.3703115,12.9195398 C13.311961,12.1049601 13.2536105,11.5813572 12.8269998,11.3676639 C11.7403763,10.8054193 10.887155,10.999396 10.111217,11.1736794 C9.49062186,11.3282618 8.88895958,11.4646639 8.30700613,11.1539783 C7.298442,10.630453 6.96882357,9.8355822 6.67784684,9.13692768 C6.52328001,8.74895872 6.36793723,8.37992263 6.11560221,8.0503042 C5.65038863,7.46834299 4.68046621,7.46834299 4.13715447,7.87602078 C3.76415399,8.16081587 3.66748559,8.59205092 3.84832669,9.11019802 L3.90452827,9.25362099 L4.11822158,9.31196764 C4.57465566,9.1472132 5.08277741,8.98314609 5.90096048,9.53045559 L6.05806642,9.64158608 L5.59281403,10.2621812 C5.03814972,9.85019401 4.7972692,9.88501149 4.44284307,9.99948865 L4.35162371,10.029555 L4.33192265,10.029555 C4.17658763,10.747996 4.09929645,11.5239339 4.09929645,12.3771553 C4.09929645,17.2498405 6.67640373,19.6759451 11.995141,19.7657616 L12.305,19.768 L12.6147451,19.7655291 C17.8318538,19.6774534 20.4276183,17.3427742 20.4708177,12.6927002 L20.4704152,12.4164953 C20.4704152,10.6235355 20.1324511,9.13568972 19.456523,7.98295556 L19.3065083,7.74108129 L19.4618472,7.64408905 C19.7331151,6.94543454 19.4034967,6.46047333 19.0155277,6.22784713 C18.6472676,6.01415383 18.1228887,5.97551212 17.8516208,6.32483938 Z M5.61268192,12.7266494 L6.38861986,12.8039405 C6.31057214,13.5413143 6.3302732,14.2013272 6.42726545,14.7635718 C7.06094809,14.6009145 7.96459644,13.7788217 8.2560071,13.4807985 L8.30875975,13.4253892 L8.8907132,13.9300593 L8.85379554,13.9678552 C8.64083119,14.1839412 7.55163092,15.2573122 6.62128873,15.5205768 C6.85391492,16.2184554 7.24188389,16.7617672 7.68820339,17.2080867 C8.55285236,17.0095779 9.50130302,16.343344 10.37802,15.379169 L10.5789951,15.1514554 L11.1806574,15.6561254 C10.6570932,16.2767206 9.6485291,17.3049935 8.42627167,17.7899548 C8.81424064,18.0536495 9.23905735,18.2799999 9.65185633,18.4694033 L9.95843872,18.6045344 L9.64775317,19.3221218 C8.52244918,18.856947 5.089079,17.4208799 5.61268192,12.7266494 Z M19.3272685,10.7670259 C20.025923,12.7848525 19.8902891,14.5693545 18.9006579,16.0424339 L18.9006579,16.0424339 L18.2603539,15.6158232 C18.5513306,15.1695037 18.7453228,14.7042513 18.8620161,14.1995813 C18.4740472,13.8313212 17.6586916,13.1523755 17.096447,13.0553832 L17.096447,13.0553832 L17.2320848,12.2991541 C17.8337471,12.4158552 18.4929839,12.8811076 18.9779451,13.2887853 C18.997654,12.5909456 18.8612441,11.8150076 18.5899762,11.0193609 L18.5899762,11.0193609 Z M18.5391495,8.42744251 L18.6878142,8.43921205 L18.5710821,9.21515775 C18.3770976,9.19622486 18.2604159,9.2932171 17.9504869,9.564485 C17.4843422,9.99109568 16.8448918,10.5730491 15.4672916,10.5730491 C15.2632587,10.5730491 15.048576,10.5623928 14.814929,10.5324497 L14.5746526,10.495758 L14.6913459,9.71982002 C16.3402916,9.97215504 16.922245,9.44777618 17.4269151,8.98252379 C17.6966029,8.72832653 17.9926777,8.47464349 18.3993721,8.43313137 L18.5391495,8.42744251 Z M8.46413356,4.15192218 C8.13269943,4.25695314 7.94242859,4.51911153 7.90768876,4.90966189 L7.90188893,5.04456118 L8.07609476,5.45232045 C7.20320338,5.8016477 6.46592655,6.3055612 5.86350774,6.9269129 C6.17419329,7.04283802 6.46517001,7.25653133 6.69779621,7.54750806 C7.02741464,7.95518585 7.20245848,8.38179653 7.3767419,8.8084072 C7.64878574,9.46764407 7.88141193,10.0298887 8.65734987,10.4375665 C8.98774424,10.6126142 9.41435492,10.5156142 9.93795783,10.3989209 C10.2486434,10.3216297 10.5979706,10.243582 10.9662308,10.2049364 C11.1412824,9.38950324 11.315558,8.63327413 11.9945037,8.14831292 C12.3824727,7.87627684 12.7507328,7.74063901 13.1000601,7.70199342 C12.8674339,7.29431951 12.4211144,7.23597286 11.7808104,7.15868168 C11.315558,7.10033115 10.8305968,7.06168944 10.4812696,6.77071271 C9.74397335,6.18875926 9.6856267,5.66515634 9.64698111,5.21883684 C9.62803658,4.96650183 9.60833552,4.73387563 9.47269769,4.48154062 C9.29842203,4.17162325 8.85210253,4.03522888 8.46413356,4.15192218 Z M9.20151514,6.46081086 C9.70540923,7.37238275 10.113087,7.5080167 10.6950405,7.72171 C10.7728412,7.76060777 10.8590548,7.79074951 10.948075,7.82380993 L11.0830094,7.8770489 L10.7920327,8.5946363 C10.6563988,8.53628965 10.5404659,8.49764406 10.4237726,8.45899847 C9.82113353,8.24004522 9.23595282,8.03789046 8.6353677,7.02807705 L8.52256945,6.829071 L9.20151514,6.46081086 Z M13.6630729,4.38532819 C13.4107379,4.77329716 13.2364584,5.29767602 13.0811195,5.7629284 C12.9841272,6.07361395 12.887135,6.32594897 12.7901427,6.55857516 C13.2940368,6.71391793 13.778998,7.02382755 13.9926913,7.76112377 C14.2647352,7.81946654 14.4973614,7.91645879 14.7299876,7.99374996 C15.2149488,8.16878992 15.5445672,8.28472669 15.7969022,8.14908886 C16.456915,7.7997616 16.572844,7.45043434 16.7281829,6.96547313 C16.8251752,6.67449641 16.9221674,6.34487797 17.1547936,5.99555071 C16.6628296,5.50290772 16.0513371,5.08511849 15.3345593,4.75434675 L15.0209643,4.61795051 L15.1952477,4.17163101 C15.0982555,3.95870976 14.9626215,3.84201645 14.768637,3.80337086 C14.4390108,3.74502421 13.9540496,3.92007581 13.6630729,4.38532819 Z M11.7428671,3.90035146 L11.5683161,3.90813088 C11.1040613,3.9492607 10.6539636,4.15058498 10.3266213,4.44290667 C10.4236135,4.69524168 10.442558,4.92786788 10.4622591,5.12185236 C10.5009008,5.50982133 10.5206096,5.76215634 11.0055708,6.15012531 C11.1806224,6.28652744 11.5299497,6.32517303 11.8982098,6.36381862 C11.9179109,6.38351968 11.9565565,6.38351968 11.9952021,6.38351968 C12.0921943,6.26681862 12.2475371,5.80156623 12.3445293,5.49088068 C12.4604545,5.10291171 12.6157972,4.67630104 12.8097817,4.28833207 C12.4604545,3.97765428 12.0338438,3.90035146 11.7428671,3.90035146 Z" id="Combined-Shape" fill="#000000"></path>
    </g>
</svg>