<?xml version="1.0" encoding="UTF-8"?>
<svg width="24px" height="24px" viewBox="0 0 24 24" version="1.1" xmlns="http://www.w3.org/2000/svg" xmlns:xlink="http://www.w3.org/1999/xlink">
    <!-- Generator: Sketch 57.1 (83088) - https://sketch.com -->
    <title>crops-assorted crops</title>
    <desc>Created with Sketch.</desc>
    <g id="crops-assorted-crops" stroke="none" stroke-width="1" fill="none" fill-rule="evenodd">
        <path d="M21.5778938,7 C19.0675559,7 17.216311,7.18807625 15.3903996,7.63086477 C14.4379236,7.85942614 13.4928577,8.1706375 12.5023816,8.57041477 C11.5144387,8.1706375 10.5561783,7.85774205 9.61035239,7.63086477 C7.78374432,7.18807841 5.93235164,7 3.42222486,7 C3.18966341,7 3,7.19398136 3,7.43181818 L3,16.0681818 C3,16.3060273 3.18967185,16.5 3.42222486,16.5 L18.6197864,16.5 L18.6222605,16.5 L18.6247345,16.5 L21.5777751,16.5 C21.8103366,16.5 22,16.3060186 22,16.0681818 L22,7.43181818 C22,7.19397273 21.8103281,7 21.5777751,7 L21.5778938,7 Z M18.6833313,15.6363852 C17.4529469,15.2905636 16.2703162,14.6909193 15.128198,14.1098216 C14.9104988,13.9993366 14.6911319,13.8871761 14.4734116,13.7792216 C12.7589465,12.9240273 11.1699243,12.3243614 9.61128128,11.9465205 C7.88691496,11.5315648 6.14354852,11.3401182 3.84453416,11.3207295 L3.84453416,10.025275 C6.0736703,10.0446729 7.76088084,10.2302202 9.41600229,10.6299932 C10.9127472,10.9926557 12.4458879,11.5695432 14.1024871,12.3985909 C14.3201862,12.5065455 14.5354365,12.6170261 14.7506656,12.7266648 C16.0090857,13.36595 17.3095594,14.0263295 18.717257,14.3830977 C19.5212998,14.5863567 20.3467917,14.6698466 21.1532834,14.74155 L21.1532834,15.6363852 L18.6833313,15.6363852 Z M13.8492789,15.6363636 C12.3714919,14.9388693 10.9844832,14.4378955 9.6122524,14.1081375 C7.88706274,13.6906557 6.14367519,13.4992091 3.84466083,13.4797989 L3.84466083,12.1843443 C6.07379697,12.2037422 7.76100751,12.3892895 9.41612895,12.7890625 C10.9128739,13.151725 12.4460145,13.7286125 14.1026138,14.5576602 C14.3203129,14.6656148 14.5355631,14.7760955 14.7524389,14.8857341 C15.2530076,15.140442 15.7618097,15.3976761 16.280534,15.6388898 L13.8493633,15.6388898 L13.8492789,15.6363636 Z M3.84444972,14.3434352 C6.07358586,14.3628331 7.7607964,14.5483805 9.41591784,14.9481534 C10.1482246,15.1252658 10.8871181,15.353825 11.6433651,15.6372057 L3.84466083,15.6363623 L3.84444972,14.3434352 Z M21.1556689,11.7127989 C20.4044042,11.6478577 19.6415917,11.5660476 18.9225216,11.3821989 C18.0714852,11.1662898 17.2459934,10.8255636 16.4394173,10.4426489 C17.8330971,10.1702364 19.3084352,10.0411875 21.1556689,10.023483 L21.1556689,11.7127989 Z M15.5842008,8.46984432 C17.23928,8.07006705 18.9256883,7.88453636 21.1556689,7.86512614 L21.1556689,9.16058068 C18.8564435,9.17997882 17.1132881,9.37227307 15.3903996,9.78891932 C15.3293754,9.80410032 15.2700001,9.81928045 15.2106247,9.83446318 C15.1834102,9.8218122 15.1553723,9.80663034 15.12816,9.79313602 C14.9104608,9.68265102 14.6935639,9.57049057 14.4733736,9.46253602 C14.1905252,9.32000148 13.9093023,9.18843943 13.6330406,9.06107466 C14.2919436,8.82407125 14.9384754,8.6258883 15.5841839,8.4698508 L15.5842008,8.46984432 Z M14.1022971,10.238442 C14.3199962,10.3463966 14.5352465,10.4568773 14.7504756,10.5665159 C16.0088957,11.2058011 17.3093694,11.8661807 18.717067,12.2229489 C19.5211098,12.4262078 20.3466017,12.5096977 21.1530934,12.5814011 L21.1530934,13.8743295 C20.4018287,13.8093884 19.6390161,13.7275783 18.9199461,13.5437295 C17.6004934,13.2114239 16.3420522,12.5721386 15.1264668,11.952242 C14.9087677,11.841757 14.6918708,11.7295966 14.4716805,11.621642 C12.7572154,10.764742 11.1681932,10.1667818 9.60955016,9.78894091 C7.88683052,9.37230114 6.1435063,9.18085455 3.84428083,9.16146591 L3.84428083,7.86601136 C6.07341697,7.88540928 7.76062751,8.07095659 9.41574895,8.47072955 C10.9124939,8.83086591 12.4447901,9.4094375 14.1022338,10.2384852 L14.1022971,10.238442 Z" id="assorted-field-crop" fill="#000000"></path>
    </g>
</svg>