<?xml version="1.0" encoding="UTF-8"?>
<svg width="24px" height="24px" viewBox="0 0 24 24" version="1.1" xmlns="http://www.w3.org/2000/svg" xmlns:xlink="http://www.w3.org/1999/xlink">
    <!-- Generator: Sketch 57.1 (83088) - https://sketch.com -->
    <title>crops-assortedgreenhousecrops</title>
    <desc>Created with Sketch.</desc>
    <g id="crops-assortedgreenhousecrops" stroke="none" stroke-width="1" fill="none" fill-rule="evenodd">
        <path d="M15.6667089,3 C13.97535,3 12.3845644,3.7412594 11.1879867,5.08647978 L4.85465333,12.211462 C3.65889889,13.5576086 3,15.3471666 3,17.2500119 L3,21.4062515 C3,21.7346657 3.23585333,22 3.52777778,22 L15.1388889,22 C15.2757818,22 15.4159722,21.9350582 15.51245,21.8255852 L17.6227378,19.4515174 L17.6235624,19.4505897 L19.7338502,17.0765219 L19.7346748,17.0755942 L21.8449625,14.7015264 C21.9447463,14.5901985 22,14.4389708 22,14.2812712 L22,10.1250316 C22,6.19607891 19.1590761,3 15.666665,3 L15.6667089,3 Z M13.5555978,6.56248159 C16.4657644,6.56248159 18.8333756,9.22604693 18.8333756,12.4999763 L18.8333756,16.410404 L17.77782,17.597901 L17.77782,14.8749703 C17.77782,10.9460176 14.9368978,7.74998813 11.4444867,7.74998813 C11.0362822,7.74998813 10.6346856,7.79451926 10.2421456,7.87801455 C11.1781278,7.02636543 12.3351222,6.56248159 13.5555344,6.56248159 L13.5555978,6.56248159 Z M8.27782,20.8124555 L8.27782,16.0624673 L10.3889311,16.0624673 L10.3889311,20.8124555 L8.27782,20.8124555 Z M10.9167089,14.8749703 L7.75004222,14.8749703 C7.45811778,14.8749703 7.22226444,15.1403046 7.22226444,15.4687188 L7.22226444,20.8124982 L4.05559778,20.8124982 L4.05559778,17.2499644 C4.05559778,17.0393689 4.06631821,16.8297092 4.08528422,16.6228234 C4.21063144,15.2738981 4.73757533,14.0243424 5.601822,13.0520199 C6.46606867,12.0796973 7.57769533,11.4869463 8.77587756,11.3459191 C8.95977433,11.3245812 9.14614533,11.312522 9.33333756,11.312522 C12.2435042,11.312522 14.6111153,13.9760778 14.6111153,17.2500071 L14.6111153,20.8124982 L11.4444487,20.8124982 L11.4444487,15.4687616 C11.4444487,15.1403474 11.2085953,14.8750131 10.9166709,14.8750131 L10.9167089,14.8749703 Z M9.33337556,10.1249822 C8.92517111,10.1249822 8.52357444,10.1695133 8.13103444,10.2530086 C9.06701667,9.4013595 10.2240111,8.93747566 11.4444233,8.93747566 C14.35459,8.93747566 16.7222011,11.6010315 16.7222011,14.8749608 L16.7222011,18.7853885 L15.6666456,19.9728856 L15.6666456,17.2499549 C15.6666456,13.3210022 12.8257233,10.1249727 9.33331222,10.1249727 L9.33337556,10.1249822 Z M20.9444867,14.0354099 L19.8889311,15.2229069 L19.8889311,12.4999763 C19.8889311,8.57102357 17.0480089,5.37499406 13.5555978,5.37499406 C13.1473933,5.37499406 12.7457967,5.4195252 12.3532567,5.50302049 C13.2892389,4.65137137 14.4462333,4.18748753 15.6666456,4.18748753 C18.5768122,4.18748753 20.9444867,6.85104337 20.9444867,10.1249727 L20.9444867,14.0354099 Z" id="greenhouse" fill="#000000"></path>
    </g>
</svg>