<?xml version="1.0" encoding="UTF-8"?>
<svg width="24px" height="24px" viewBox="0 0 24 24" version="1.1" xmlns="http://www.w3.org/2000/svg" xmlns:xlink="http://www.w3.org/1999/xlink">
    <!-- Generator: Sketch 57.1 (83088) - https://sketch.com -->
    <title>crops-pomegranate</title>
    <desc>Created with Sketch.</desc>
    <g id="crops-pomegranate" stroke="none" stroke-width="1" fill="none" fill-rule="evenodd">
        <path d="M13.3581463,6.95724161 C13.4382795,7.2414684 13.690034,7.47454982 14.0310325,7.56820445 C16.9996865,8.38359397 19,10.8264561 19,13.6471981 C19,15.3469394 18.2687752,16.945238 16.9438852,18.145185 C15.6217339,19.3416004 13.8658372,20 12.000028,20 C11.8510064,20 11.7003411,19.9957596 11.548986,19.9872925 C8.21830311,19.7974199 5.42228716,17.3967943 5.04575543,14.3915278 C4.66113388,11.3234354 6.73581459,8.4543687 9.97143776,7.56696629 C10.3057942,7.47549474 10.5597619,7.24258308 10.6342203,6.97946458 C10.6898177,6.72714833 10.6474387,6.38649917 10.4917599,6.10689877 L10.1154048,5.60707381 C9.98548837,5.43453596 10.1417496,5.19700789 10.3575971,5.23892454 L11.4377204,5.44867984 L11.8285169,5.06874999 C11.9227221,4.9771643 12.0755545,4.97707155 12.1698775,5.06854283 L12.5619039,5.44871679 L13.6422175,5.23892454 C13.8584552,5.19693212 14.014679,5.43528691 13.8839289,5.60771013 L13.5042075,6.10845798 C13.3488825,6.38711889 13.3061671,6.71882561 13.3581463,6.95724161 Z M10.871276,5.81670811 L10.8907148,5.84252424 L10.906848,5.86700311 C11.127055,6.25175317 11.1863214,6.71434481 11.1030945,7.09029266 C10.9791209,7.53070935 10.5943964,7.88353697 10.1025099,8.01810474 C7.09130955,8.84395697 5.1697482,11.5012756 5.52497695,14.3349042 C5.8725645,17.1091544 8.4736598,19.3424236 11.5770167,19.5193371 C11.7188944,19.5272739 11.8603007,19.5312537 12.000028,19.5312537 C13.7447954,19.5312537 15.3828079,18.9170565 16.6146759,17.8023385 C17.8425982,16.6902146 18.5172433,15.2155871 18.5172433,13.6471981 C18.5172433,11.0409766 16.6648551,8.77876676 13.8996325,8.01925301 C13.4005472,7.88218013 13.0187384,7.52869072 12.8892661,7.06801741 C12.8095945,6.7053432 12.8697216,6.25154664 13.0893927,5.86809323 L13.1059599,5.84305979 L13.1254943,5.8172993 L12.5300022,5.93294131 C12.4509162,5.94829947 12.3691557,5.92428988 12.3120904,5.86894985 L11.9995172,5.56582695 L11.6879376,5.86874269 C11.630868,5.92422538 11.5490032,5.94831982 11.4698124,5.93294131 L10.871276,5.81670811 Z" id="pomegranate" stroke="#000000" stroke-width="0.3" fill="#000000"></path>
    </g>
</svg>