<?xml version="1.0" encoding="UTF-8"?>
<svg width="24px" height="24px" viewBox="0 0 24 24" version="1.1" xmlns="http://www.w3.org/2000/svg" xmlns:xlink="http://www.w3.org/1999/xlink">
    <!-- Generator: Sketch 57.1 (83088) - https://sketch.com -->
    <title>crops-unknown</title>
    <desc>Created with Sketch.</desc>
    <g id="crops-unknown" stroke="none" stroke-width="1" fill="none" fill-rule="evenodd">
        <path d="M12.5,3 C17.7465534,3 22,7.25364532 22,12.5 C22,17.7473484 17.7463547,22 12.5,22 C7.25265162,22 3,17.7465534 3,12.5 C3,7.25344658 7.25364532,3 12.5,3 Z M12.5,4.07379553 C7.84986716,4.07379553 4.07379553,7.84986716 4.07379553,12.5 C4.07379553,17.1501328 7.84986716,20.9262045 12.5,20.9262045 C17.1501328,20.9262045 20.9262045,17.1501328 20.9262045,12.5 C20.9262045,7.84986716 17.1501328,4.07379553 12.5,4.07379553 Z M12.4433908,16.4117647 L12.5566092,16.4117647 C12.8011892,16.4117647 12.9947783,16.5720858 13.0463282,16.7808617 L13.0588235,16.8612055 L13.0588235,17.0788384 C13.0588235,17.298496 12.8794038,17.483212 12.6462958,17.5215482 L12.5566092,17.528845 L12.4433908,17.5294118 C12.1982495,17.5294118 11.9921036,17.3686436 11.9493199,17.1597683 L11.9411765,17.0794051 L11.9411765,16.8617723 C11.9411765,16.6421146 12.1205962,16.4573979 12.3537042,16.4190616 L12.4433908,16.4117647 L12.5566092,16.4117647 Z M12.5468272,7.47058824 C13.3830397,7.47058824 14.0380529,7.73616021 14.5481501,8.26732316 C15.0397874,8.78076738 15.2941176,9.46399232 15.2941176,10.2807629 C15.2941176,10.7933715 15.2031815,11.1917295 15.0213092,11.4958914 C14.8394369,11.7992937 14.4756922,12.2555367 13.911597,12.8631009 C13.5116234,13.3000489 13.2565693,13.6605765 13.1294006,13.9647385 C13.0384644,14.1731851 12.9844702,14.4395167 12.9659992,14.762214 C12.9290427,15.066376 12.6931907,15.2941176 12.401904,15.2941176 C12.0743884,15.2941176 11.8015762,15.0092507 11.8378088,14.6672584 C11.8562798,14.2874358 11.928745,13.9454435 12.0196812,13.6798715 C12.1471191,13.3313083 12.3996556,12.9242358 12.7896697,12.4715801 L12.9652717,12.2748317 L13.4746597,11.7243927 C13.6203031,11.5723117 13.7474682,11.4009434 13.8384043,11.2303194 C14.0017984,10.9261575 14.0927346,10.6034602 14.0927346,10.2807629 C14.0927346,9.82451995 13.9833202,9.42616198 13.72899,9.08416969 C13.4924104,8.742185 13.0746861,8.57156108 12.5105909,8.57156108 C11.8015799,8.57156108 11.3284209,8.85642805 11.0556124,9.44545697 C10.9469182,9.67319862 10.8737437,9.97736057 10.8375111,10.3378882 C10.8005546,10.6227552 10.5647026,10.8504968 10.2734159,10.8504968 C9.92742201,10.8504968 9.67308813,10.5277995 9.70932073,10.1858072 C9.79015287,9.54486921 9.98606124,9.00824831 10.3095128,8.56346007 L10.385,8.465 L10.394,8.453 L10.4,8.446 L10.426,8.413 L10.428,8.411 L10.43681,8.40094476 C10.9038157,7.82702011 11.5391103,7.52361253 12.3279567,7.47703019 L12.5468272,7.47058824 Z M10.394,8.453 L10.385,8.465 L10.3415221,8.51732099 L10.318,8.542 L10.3622309,8.4913186 L10.394,8.453 Z" id="Combined-Shape" fill="#000000" fill-rule="nonzero"></path>
    </g>
</svg>