<?xml version="1.0" encoding="UTF-8"?>
<svg width="24px" height="24px" viewBox="0 0 24 24" version="1.1" xmlns="http://www.w3.org/2000/svg" xmlns:xlink="http://www.w3.org/1999/xlink">
    <!-- Generator: Sketch 57.1 (83088) - https://sketch.com -->
    <title>crops-soybeans</title>
    <desc>Created with Sketch.</desc>
    <g id="crops-soybeans" stroke="none" stroke-width="1" fill="none" fill-rule="evenodd">
        <path d="M21.1238544,3.00095117 C21.1123439,3.00095117 21.1017925,3.00285107 21.0902818,3.00380126 C19.4145472,3.11210185 18.5052962,4.25211205 18.1178063,4.8591703 C18.0813557,4.83637005 18.0468254,4.81167038 18.008457,4.78981862 C17.1950472,4.32335585 16.2751637,4.0640045 15.3888478,4.09440483 C14.502532,4.12480517 13.6488508,4.44306022 12.9726095,5.13465572 C12.628264,5.48710507 12.4613585,5.87282454 12.327063,6.19202808 C12.1937325,6.51218011 12.089179,6.76012526 11.9107691,6.95488198 C11.6853545,7.20093014 11.5193993,7.2531944 11.2680956,7.28072495 C11.0167919,7.30827495 10.6848961,7.27597495 10.2877803,7.33297461 C9.89162208,7.39092495 9.43697207,7.56287655 9.00243323,7.96948471 C8.60627505,8.34092818 8.19958245,8.91853459 7.80342427,9.75551666 C6.9593198,9.72796666 6.28978228,9.85716809 5.77661588,10.1573605 C5.19724713,10.4955581 4.8087749,11.0266155 4.419345,11.695423 C4.41167133,11.7087232 4.40591619,11.722973 4.40016081,11.7372246 C3.73543622,13.297151 3.22705819,14.0153529 2.15465876,14.8142251 C1.89566909,15.0061267 1.97624639,15.4089287 2.28990701,15.487775 C4.79066625,15.9903291 6.56703039,17.7411939 9.14342139,17.3497835 C9.1405437,17.4485846 9.13478832,17.5445353 9.13478832,17.6480959 C9.13478832,17.6632961 9.13574771,17.6775453 9.13766601,17.6927455 C9.34965103,19.3733248 9.27195658,20.2483194 8.74629621,21.4708994 C8.62063944,21.7653935 8.89593413,22.0722667 9.20575915,21.9848596 C11.2287368,21.4167624 11.0292212,21.6191071 12.8333825,21.4319626 L12.8074835,21.4319626 C14.3403036,21.3692625 15.3944335,20.8761958 16.0449158,20.107651 C16.6501663,19.3922946 16.8947663,18.4603418 16.979189,17.5170559 C18.9388619,16.1841835 19.2515551,14.9777765 19.2314193,14.0095866 C19.220868,13.5127235 19.1287836,13.100422 19.1211099,12.823025 C19.1259059,12.5665191 19.1489267,12.4458662 19.3311771,12.3261619 C20.9723863,11.2526408 21.3589432,9.43715704 20.967598,7.94194687 C20.8227582,7.38904986 20.5196517,6.97769682 20.284653,6.5283312 C20.2414889,6.33262842 20.382493,5.87567245 20.7441159,5.44247981 C21.1086217,5.00641737 21.6515252,4.60552205 22.1963685,4.42691399 C22.4956542,4.33096323 22.5570436,3.93766313 22.3009221,3.7562096 L21.3359541,3.07315051 C21.2745647,3.02850092 21.2007059,3.00285034 21.1239691,3 L21.1238544,3.00095117 Z M21.0068315,3.77521127 L21.0471176,3.80371219 L21.3157086,3.99561371 C20.8476266,4.2511711 20.4725618,4.57606558 20.1521827,4.95891527 C19.7004058,5.4994819 19.3896034,6.11033411 19.5344579,6.71454688 C19.5421316,6.74304781 19.5517235,6.77059781 19.5651526,6.7962484 C19.8385319,7.34250597 20.121488,7.73676186 20.2250888,8.13481171 C20.5492986,9.37458609 20.2634572,10.8061501 18.9052164,11.6945696 C18.4332791,12.0033154 18.3421526,12.4479386 18.3527116,12.8440914 C18.3642221,13.2411928 18.4572652,13.623094 18.463021,14.0278076 C18.4735724,14.8372105 18.1944301,15.8328337 16.4016872,16.9880708 C16.3000116,17.0536212 16.2357443,17.1628727 16.2290307,17.2825649 C16.1686014,18.2154662 15.9527784,19.0343783 15.455917,19.6224424 C14.9580979,20.2105065 14.1638662,20.6199626 12.7768829,20.676945 L12.7538619,20.676945 C11.2431174,20.8336964 11.0483902,20.7168448 9.71213908,21.0664584 C10.0373065,20.1078993 10.0862216,19.1065852 9.9020632,17.6312203 C9.90302259,16.9168124 9.97304409,16.4218463 10.2023066,16.0200025 C10.433477,15.6143404 10.8507261,15.2524061 11.6612629,14.852435 C11.8051449,14.7821348 11.8895554,14.6320325 11.8732479,14.4743277 C11.769652,13.4587619 11.8291236,12.8004122 11.9576583,12.3710135 C12.0871507,11.9416149 12.2674784,11.7345034 12.4900273,11.5597137 C12.7125762,11.3849239 12.9955323,11.2614012 13.2890474,11.0467019 C13.5825625,10.8320001 13.8712892,10.4928564 13.9796783,9.99409632 C14.0727226,9.56944009 14.0065374,9.19704812 13.9624127,8.86643838 C13.9182884,8.53677713 13.8895115,8.24797393 13.973923,7.9154672 C14.3470478,6.43820539 15.7829954,5.69434562 17.4156592,5.69624261 C17.6631322,5.69624261 17.8923848,5.73424303 18.1149337,5.79694311 C18.2933461,5.84824429 18.4832702,5.76559185 18.565753,5.60124034 C18.7489612,5.23833327 19.563331,3.91117617 21.00694,3.77437465 L21.0068315,3.77521127 Z M15.4454415,4.84112004 C15.8176087,4.83162006 16.2003349,4.88861996 16.5821034,5.00072181 C15.0195463,5.2353735 13.6305003,6.14168293 13.2297501,7.73018566 C13.1098493,8.20613333 13.1568514,8.62130466 13.2019334,8.96424478 C13.2470153,9.30720922 13.2853837,9.57699397 13.2297501,9.83444834 C13.2278318,9.84394857 13.223995,9.84964851 13.2220765,9.85914801 C13.0964197,9.73564725 12.9573408,9.62544481 12.8029095,9.537099 C12.3079635,9.25303825 11.7391537,9.19700435 11.2250051,9.33189672 C10.7108565,9.46774732 10.2494782,9.7954897 9.96460673,10.2857134 C9.39483929,11.2651636 9.73919216,12.5267776 10.7291014,13.0939749 C10.8346151,13.1547756 10.9449245,13.2051258 11.0600395,13.2469275 C11.0475698,13.5585188 11.0514066,13.9005347 11.0888164,14.2938421 C10.3348807,14.688098 9.828418,15.1317484 9.53490292,15.6466571 C9.36704216,15.9411513 9.26729418,16.2546639 9.20877779,16.5928615 C8.64284104,16.722063 7.86395669,16.7695629 6.51623801,16.2983674 C5.16758622,15.8271622 4.7033349,15.3664147 3.19065058,14.9455524 C4.03092435,14.1988472 4.50286162,13.432175 5.08412117,12.0755174 L5.08412117,12.0745675 C5.44958464,11.4466181 5.76036241,11.0523622 6.16513967,10.8157989 C6.56991692,10.5792454 7.11380259,10.4709375 8.01738112,10.5260473 C8.17661053,10.5355475 8.32624355,10.4462476 8.39146366,10.3018435 C8.81448585,9.37083931 9.19912737,8.83122117 9.52716786,8.52342384 C9.85616601,8.21562651 10.1151557,8.12632248 10.396221,8.08546443 C10.6772863,8.04460637 10.9890217,8.07501425 11.35063,8.03511417 C11.7132204,7.99521434 12.1314297,7.84416114 12.4776905,7.4660685 C12.7740786,7.14496799 12.9064587,6.78967317 13.0349836,6.48185152 C13.1635183,6.17405419 13.2834143,5.90898757 13.5241836,5.6629394 C14.058468,5.11573334 14.7308785,4.85922745 15.4445182,4.84118181 L15.4454415,4.84112004 Z M11.6690102,10.0215807 C11.9203139,10.0054303 12.1802612,10.060532 12.4171998,10.1963826 C12.5476523,10.2714325 12.6608397,10.3692851 12.7577146,10.4823403 C12.558199,10.6143921 12.2963364,10.7445371 12.0143379,10.9659002 C11.6997295,11.2119484 11.3927824,11.5872102 11.2210639,12.1553073 C11.1932471,12.2474593 11.1721439,12.3519586 11.1510407,12.4555167 C11.138571,12.4488666 11.1251417,12.4450666 11.1136324,12.4384167 C10.4815179,12.0764581 10.2676126,11.2879463 10.6292208,10.6656879 C10.8555955,10.277123 11.2498187,10.0491204 11.6690102,10.0225384 L11.6690102,10.0215807 Z M7.5097545,11.6252106 C6.77308151,11.6062101 6.04792517,11.975763 5.65655537,12.6483643 C5.08678792,13.6278145 5.4311408,14.8922983 6.42105004,15.4595443 C7.40998442,16.026693 8.6857547,15.6903971 9.25552215,14.7118906 C9.82528959,13.7324403 9.48093671,12.4679566 8.49102747,11.9007106 C8.18216504,11.7230583 7.84452326,11.633747 7.5097545,11.6252106 Z M7.36011657,12.3842705 C7.61142028,12.3671705 7.87136762,12.4232219 8.10830621,12.5590725 C8.74042075,12.921031 8.95336835,13.7076458 8.59176014,14.3298799 C8.23012737,14.9521383 7.43687789,15.1620952 6.80476336,14.8001367 C6.17360649,14.4381781 5.95970121,13.6515633 6.32130943,13.0293292 C6.54768413,12.6407642 6.94190731,12.4118132 7.36014112,12.3842827 L7.36011657,12.3842705 Z M14.9205915,17.8677617 C14.7805475,17.8744118 14.6558557,17.9570633 14.5944663,18.081515 C13.9345301,19.387781 12.2290585,19.4058266 12.2290585,19.4058266 C11.7178074,19.4058266 11.7178074,20.1658394 12.2290585,20.1658394 C12.2290585,20.1658394 14.393993,20.1810352 15.2833047,18.4206611 C15.4185529,18.1594128 15.2161594,17.8516155 14.9207142,17.8677641 L14.9205915,17.8677617 Z" id="Shape" fill="#000000"></path>
    </g>
</svg>