<?xml version="1.0" encoding="UTF-8"?>
<svg width="24px" height="24px" viewBox="0 0 24 24" version="1.1" xmlns="http://www.w3.org/2000/svg" xmlns:xlink="http://www.w3.org/1999/xlink">
    <!-- Generator: Sketch 57.1 (83088) - https://sketch.com -->
    <title>crops-wheat</title>
    <desc>Created with Sketch.</desc>
    <g id="crops-wheat" stroke="none" stroke-width="1" fill="none" fill-rule="evenodd">
        <path d="M21.3215757,3 C21.6961516,3 22,3.30395735 22,3.67857722 C22,7.24663948 19.2343548,10.1736606 15.7362812,10.4456485 L15.5020135,10.4598255 L14.2486786,11.71361 C16.3472175,11.4361624 18.3186141,12.1942689 19.7662465,13.6424205 C20.0312263,13.9074954 20.0312263,14.3368991 19.7662465,14.601974 C17.3507285,17.0193943 13.7500477,17.244948 11.1110254,15.2230623 L10.9047186,15.0587695 L8.84498028,17.1192466 C10.9568598,16.8418216 12.9141471,17.6228866 14.339711,19.049844 C14.6046908,19.3149189 14.6046908,19.7443226 14.339711,20.0093975 C11.9272773,22.4233796 8.34621012,22.6555666 5.70568169,20.6307383 L5.49921139,20.466193 L4.33421814,21.6316042 C4.06923831,21.896679 3.63998862,21.896679 3.37500879,21.6316042 C3.13652694,21.3930368 3.11267876,21.0213631 3.30346424,20.7561744 L3.37500879,20.6720507 L4.54000204,19.5066396 C2.34432566,16.8592837 2.49627245,13.1642046 4.99751564,10.6620642 C5.25189085,10.4075977 5.70234978,10.4075977 5.95672499,10.6620642 C7.43466655,12.1414859 8.08612666,14.0378414 7.92259014,15.8878345 L7.89368483,16.1517538 L9.94546398,14.0992387 C7.74347909,11.4460018 7.89542588,7.74210116 10.4020957,5.23362738 C10.656471,4.97916093 11.1069299,4.97916093 11.3613051,5.23362738 C12.8443187,6.71801505 13.4975958,8.62030519 13.3319131,10.4761983 L13.3026741,10.7409601 L14.5427589,9.50043044 C14.6990018,5.89107823 17.675531,3 21.3215757,3 Z M6.49907555,19.5298922 C8.40948992,21.015162 10.9285055,21.0133977 12.8372014,19.5298922 C10.926787,18.0446224 8.40777148,18.0463867 6.49907555,19.5298922 Z M5.47614804,12.1672389 C3.99936992,14.0713266 3.99936992,16.6026458 5.47614804,18.5067335 C6.95292615,16.6026458 6.95292615,14.0704444 5.47614804,12.1672389 Z M11.9044018,14.1224008 C13.8193384,15.6076706 16.350677,15.6059063 18.2637821,14.1224008 C16.3488455,12.637131 13.8175069,12.6388953 11.9044018,14.1224008 Z M10.8817004,6.73758069 C9.39872685,8.64777555 9.39872685,11.1889794 10.8817004,13.0992421 C12.364674,11.1890472 12.364674,8.64784341 10.8817004,6.73758069 Z M21.8144502,10.7855498 C22.0618499,11.0329495 22.0618499,11.4337206 21.8144502,11.6811204 L21.1811204,12.3144502 C20.9337206,12.5618499 20.5329495,12.5618499 20.2855498,12.3144502 C20.0381501,12.0670505 20.0381501,11.6662794 20.2855498,11.4188796 L20.9188796,10.7855498 C21.1662794,10.5381501 21.5670505,10.5381501 21.8144502,10.7855498 Z M20.5945374,4.40585366 C18.1771363,4.72998737 16.2578357,6.6501347 15.9328007,9.06926248 C18.3502019,8.74512876 20.2703842,6.82498143 20.5945374,4.40585366 Z M14.2144502,3.1855498 C14.4618499,3.43294954 14.4618499,3.83372065 14.2144502,4.08112038 L13.5811204,4.7144502 C13.3337206,4.96184993 12.9329495,4.96184993 12.6855498,4.7144502 C12.4381501,4.46705046 12.4381501,4.06627935 12.6855498,3.81887962 L13.3188796,3.1855498 C13.5662794,2.93815007 13.9670505,2.93815007 14.2144502,3.1855498 Z" id="Combined-Shape" fill="#000000"></path>
    </g>
</svg>