<?xml version="1.0" encoding="UTF-8"?>
<svg width="24px" height="24px" viewBox="0 0 24 24" version="1.1" xmlns="http://www.w3.org/2000/svg" xmlns:xlink="http://www.w3.org/1999/xlink">
    <!-- Generator: Sketch 57.1 (83088) - https://sketch.com -->
    <title>crops-aralia</title>
    <desc>Created with Sketch.</desc>
    <g id="crops-aralia" stroke="none" stroke-width="1" fill="none" fill-rule="evenodd">
        <path d="M21.770806,12.5937486 C21.5970112,12.4666617 20.037307,11.3508192 18.8645923,11.3508192 C18.7353594,11.3508192 18.4315978,11.3759563 18.0513278,11.4129666 L18.0513278,11.4122683 C18.2823038,11.2809913 18.5006739,11.131563 18.7049169,10.9653708 C19.5233911,10.1860886 19.7915005,7.73930648 19.8375512,7.25683585 C19.8531482,7.09204147 19.7900174,6.9293493 19.6652413,6.81202975 C19.5404652,6.69541808 19.3666723,6.63606472 19.1913869,6.65142548 C18.6870918,6.69611524 16.1157629,6.95586999 15.2943796,7.73794076 C15.2126805,7.81544889 15.0307194,7.98791739 14.8049341,8.19949659 C14.8613814,7.99560403 14.8977732,7.78681348 14.9126284,7.57662861 C14.9126284,6.47615225 13.2860804,4.56489642 12.9599419,4.19272011 L12.9606845,4.19272011 C12.8440785,4.06982328 12.6769651,4 12.5016796,4 C12.3271413,4 12.160026,4.06982685 12.0434162,4.19272011 C11.7181142,4.56489642 10.0914901,6.47600924 10.0914901,7.57662861 C10.1063444,7.78681348 10.1427372,7.994889 10.199926,8.19879943 C9.97414069,7.98722023 9.79069843,7.81475352 9.70973894,7.7372436 C8.8897817,6.95517283 6.31620922,6.69890388 5.80892901,6.65491128 L5.80892901,6.65560952 C5.63364734,6.6402475 5.46060166,6.69890317 5.33581605,6.81481767 C5.21103995,6.93142934 5.14716599,7.09412866 5.16202124,7.25892662 C5.20807004,7.741433 5.47768339,10.1875359 6.29539704,10.9674615 C6.49964008,11.1329531 6.71801014,11.2823813 6.94898615,11.4143591 C6.56871613,11.3773506 6.26493741,11.3522117 6.13498013,11.3522117 C4.9629689,11.3522117 3.40178931,12.4694557 3.22952699,12.5951412 C3,12.7627278 2.93318256,13.0622922 3.07207238,13.3024907 C3.58528481,14.1921029 4.91400533,16.2604164 6.13571786,16.2604164 C7.06485063,16.2597182 7.98805119,16.1179669 8.86890868,15.8400466 C9.46085601,15.64452 10.083244,15.5390879 10.7108416,15.5279155 C11.291647,15.5279155 11.5582734,15.067754 11.7350419,14.7633095 C11.7944591,14.6571713 11.8501629,14.5677829 11.902895,14.4937766 L11.902895,19.0891351 L11.902895,19.0884368 C11.902895,19.3970822 12.1695213,19.6470588 12.4970669,19.6470588 C12.825354,19.6470588 13.0912388,19.3970822 13.0912388,19.0884368 L13.0912388,14.4630469 C13.1603111,14.5587115 13.2219566,14.6578585 13.2769171,14.7612169 C13.4447702,15.0656614 13.6972866,15.5258229 14.2870093,15.5258229 C14.8135883,15.5237282 15.3364595,15.6179947 15.8251636,15.8016481 C16.7981225,16.1340327 17.829757,16.2890525 18.8642816,16.2583238 C20.0882758,16.2583238 21.4147527,14.1915119 21.9279271,13.3003981 C22.066815,13.0601817 22,12.7613324 21.7704725,12.5937458 L21.770806,12.5937486 Z M19.0628622,15.1725634 L19.0628622,15.1718384 C18.130935,15.2044561 17.2013032,15.0645628 16.3269199,14.7601191 C15.7390995,14.5448331 15.1167878,14.4266874 14.4875898,14.4121952 C14.4569343,14.3621813 14.42168,14.2962205 14.3917916,14.2425827 L14.3917916,14.2433075 C14.0944381,13.4988986 13.3403029,13.0074444 12.4995868,13.0103577 C11.676489,13.0212304 10.9415221,13.4996223 10.6364974,14.2222836 C10.6012431,14.2831694 10.5575602,14.3592784 10.5215388,14.4136325 L10.5207723,14.4136325 C9.79959788,14.4390022 9.08532957,14.563674 8.40166772,14.7840277 C7.60768529,15.039172 6.77462078,15.1703625 5.93627862,15.1718099 C5.609025,15.1406414 4.79818941,14.2258835 4.11764706,13.1523664 L4.11764706,13.1530912 C4.6533581,12.7732695 5.27411976,12.5152306 5.93245281,12.3992559 C6.23900784,12.3992559 8.27070741,12.6312052 9.48240907,12.7732695 C9.77287609,12.8073364 10.0480006,12.642799 10.139977,12.3804031 C10.2327106,12.1187271 10.1162197,11.8309801 9.86177214,11.6939816 C8.62943074,11.030755 7.17173952,10.2029743 6.96789269,10.0268412 C6.678956,9.74850207 6.39462989,8.66412976 6.23522127,7.60306372 C7.33881937,7.75527999 8.45693591,8.02491457 8.7443619,8.29891165 C9.06547461,8.60697745 10.9231098,10.3530548 10.9231098,10.3530548 L10.9238761,10.3530548 C11.1238971,10.5407852 11.4342976,10.574854 11.674931,10.4364118 C11.9155841,10.2972422 12.0251787,10.0210741 11.9401085,9.76665349 C11.6550172,8.96425732 11.4205051,8.14590304 11.2381024,7.31745433 C11.2381024,6.92531154 11.8305138,5.97431937 12.4995788,5.11764706 C13.1686437,5.97296478 13.7610552,6.92468064 13.7610552,7.31318646 C13.5801867,8.14386189 13.3456706,8.9629213 13.059049,9.76683905 C12.9739808,10.0212596 13.0835735,10.2981514 13.3242265,10.4365973 C13.5656447,10.5757669 13.8760256,10.5409745 14.0760466,10.3525166 C14.0760466,10.3525166 15.9337798,8.60710734 16.2542059,8.29837353 C16.5415926,8.02292908 17.659768,7.75256897 18.7633465,7.6025256 C18.604705,8.66587402 18.3219073,9.74796395 18.0352857,10.0220353 C17.8275934,10.2032452 16.3691567,11.0302911 15.1374823,11.6935177 C14.8838019,11.8305125 14.7673208,12.1182818 14.8600427,12.3806629 C14.9520092,12.6430625 15.2271435,12.8068744 15.5176106,12.7728056 C16.7285078,12.6285629 18.763268,12.398792 19.066782,12.398792 C19.7258802,12.5125919 20.3474071,12.7706346 20.8823529,13.1526273 C20.201791,14.2246599 19.3924857,15.141639 19.0644865,15.1720708 L19.0628622,15.1725634 Z" id="aralia" fill="#000000"></path>
    </g>
</svg>