<?xml version="1.0" encoding="UTF-8"?>
<svg width="24px" height="24px" viewBox="0 0 24 24" version="1.1" xmlns="http://www.w3.org/2000/svg" xmlns:xlink="http://www.w3.org/1999/xlink">
    <!-- Generator: Sketch 57.1 (83088) - https://sketch.com -->
    <title>crops-onion</title>
    <desc>Created with Sketch.</desc>
    <g id="crops-onion" stroke="none" stroke-width="1" fill="none" fill-rule="evenodd">
        <path d="M11.8902021,5.00000796 C12.2390246,5.00818458 12.5680309,5.16510456 12.7943571,5.43109795 C13.0294341,5.69943588 13.1595155,6.04360553 13.1600988,6.40002054 L13.1600988,6.40002054 L13.1665154,6.40002054 L13.1665154,7.1000228 C13.1670993,7.31119575 13.196849,7.52118896 13.2557646,7.72419335 C13.3426753,7.88169573 13.4873473,7.99894368 13.6600039,8.05086107 C13.8361698,8.10510808 14.0100062,8.16810753 14.1797508,8.23985795 C14.8394658,8.52102366 15.4385373,8.92645003 15.9454417,9.43336367 L15.9454417,9.43336367 L18.7665713,9.43321882 C18.8284078,9.43321882 18.8879073,9.45771404 18.9316568,9.50146885 C18.9754064,9.54522366 18.9999534,9.60472422 18.9999534,9.66655738 C19.0034149,10.9324601 18.8138241,12.1912247 18.4375844,13.3999028 L18.4375844,13.3999028 L18.7665758,13.3999028 C18.8284123,13.3999028 18.8879118,13.424398 18.9316613,13.4681528 C18.9754108,13.5119076 18.9999534,13.5714082 18.9999534,13.6332413 C18.9999534,16.5424134 16.019112,19.000008 12.4899701,19.000008 L12.4899701,19.000008 L11.2999804,19.000008 C7.88507685,19.000008 5,16.2220924 5,12.9333137 C5,12.8043968 5.10441529,12.6999797 5.23332984,12.6999797 L5.23332984,12.6999797 L6.20281721,12.6999797 C5.71749114,11.5554853 5.46665969,10.3246909 5.46665969,9.08102397 L5.46665969,9.08102397 L5.46665969,7.80002357 C5.46665969,7.67110667 5.57107498,7.56668948 5.69998953,7.56668948 L5.69998953,7.56668948 L9.56915833,7.56668948 C9.63099485,7.56668948 9.69049433,7.59118471 9.73424386,7.63493952 C9.7779934,7.67869433 9.80249266,7.73819489 9.80249266,7.80002805 L9.80249266,7.80002805 L9.80249266,8.25328605 C9.97982334,8.17628057 10.1606484,8.10861443 10.3449827,8.05086406 C10.5118154,7.99777589 10.6523897,7.88461072 10.7398888,7.7335297 C10.8011384,7.52819571 10.8326374,7.31469315 10.8332207,7.10002579 L10.8332207,7.10002579 L10.8332207,6.15968569 C10.833804,6.13343579 10.8367207,6.10776979 10.8431372,6.08268619 C10.8518731,5.81085384 10.9522086,5.55068447 11.1277921,5.34360327 C11.3202949,5.12426624 11.5979611,4.99884943 11.8902021,5.00000796 Z M15.966481,13.8666776 L15.2402391,13.8666776 C14.9841362,15.8407213 14.2724242,17.0954091 12.7435724,18.2959185 L12.7435724,18.2959185 L12.5499049,18.447582 C12.5440722,18.4534155 12.538239,18.4586655 12.5318224,18.4633322 C14.4697354,18.0952139 15.9530645,16.1789624 15.966481,13.8666776 L15.966481,13.8666776 Z M8.73733408,13.1667306 L8.03314834,13.1667306 C8.03314834,15.8099391 9.45298844,18.0108209 11.3149979,18.452401 L11.3149979,18.452401 L11.0373317,18.195726 C9.62982633,16.8936845 8.80208255,15.0830119 8.73733408,13.1667306 L8.73733408,13.1667306 Z M11.7472664,7.50419657 C11.7011828,8.1243351 11.5180282,8.72632958 11.2111976,9.26708226 C10.4861204,10.5573264 10.113956,12.0156906 10.1332062,13.4956186 C10.1332062,13.8047844 10.1495401,14.1133678 10.1816224,14.4207864 C10.1822057,14.4242863 10.1822057,14.4283697 10.1816224,14.4324529 C10.1822057,14.4371196 10.1833724,14.441203 10.1833724,14.4458697 C10.2212875,14.8466219 10.2877817,15.2444621 10.3828638,15.635881 C10.3857804,15.6452143 10.3875304,15.6551306 10.3886971,15.6650474 C10.5502734,16.3476074 10.8057639,17.0038549 11.1481802,17.6151977 L11.1481802,17.6151977 L11.1960124,17.7003653 C11.2485142,17.7516928 11.2998453,17.8036102 11.3535119,17.8531935 L11.3535119,17.8531935 L11.766502,18.2341142 L11.766502,7.51015424 C11.7600848,7.5078209 11.7536682,7.50665415 11.7472517,7.50432081 Z M7.56645879,13.1669098 L6.63316928,13.1669098 C6.63376661,14.1106995 6.88341834,15.0377041 7.35649926,15.8543211 C7.82958019,16.6709381 8.50970868,17.3481969 9.32811778,17.8183594 C8.2588623,16.752116 7.56645879,15.0638972 7.56645879,13.1669098 L7.56645879,13.1669098 Z M6.16642,13.167089 L5.47173172,13.167089 C5.59761784,15.1230633 6.72700895,16.8741815 8.45596442,17.7964372 C7.01341106,16.6939057 6.16700328,14.9823908 6.16642,13.167089 L6.16642,13.167089 Z M18.525928,13.8670166 L17.7921,13.8670166 C17.7822441,15.4398003 16.9462886,16.8473312 15.6396415,17.7894186 C17.2822836,16.9540452 18.4255954,15.5004298 18.525928,13.8670166 L18.525928,13.8670166 Z M17.3260675,13.866912 L16.4330675,13.866912 C16.442326,15.3223194 15.8677746,16.721189 14.8382114,17.7501886 C16.3279982,16.9130232 17.3149843,15.4862879 17.3260675,13.866912 L17.3260675,13.866912 Z M12.256455,7.55158138 C12.2488719,7.55274798 12.2412886,7.55391457 12.233122,7.55391457 L12.233122,7.55391457 L12.233122,17.395909 C12.6198597,16.0781874 12.8467712,14.7184284 12.909771,13.3464239 C12.9255209,13.0652582 12.933104,12.7782536 12.933104,12.4667582 L12.933104,12.4667582 L12.933104,11.5334218 C12.933104,11.4045049 13.0375193,11.3000877 13.1664339,11.3000877 L13.1664339,11.3000877 L13.597508,11.3000877 C13.4289281,10.5867201 13.1565034,9.90189015 12.7884321,9.26780384 L12.7884321,9.26780384 L12.6670211,9.03868339 C12.4388829,8.57373417 12.2994546,8.06908705 12.256455,7.55158138 Z M14.0997989,11.7665633 L13.3998009,11.7665633 L13.3998009,12.4665655 C13.3998009,12.7874092 13.3928018,13.0825675 13.3764679,13.370737 C13.3134801,14.71952 13.0958897,16.0558785 12.7295656,17.3549632 L12.73,17.352 L12.9395691,16.9914197 C13.2086339,16.5008603 13.433709,15.987465 13.6120336,15.4572692 L13.7369681,15.0565664 C13.7387181,15.0466492 13.7410514,15.036733 13.7439682,15.0268161 C13.7748842,14.928226 13.8011336,14.8290623 13.8233003,14.7304781 C13.8250502,14.7217272 13.8273835,14.7123942 13.8308835,14.7036443 C14.0087996,13.9750446 14.0992157,13.2284353 14.0997989,12.4782718 L14.0997989,12.4782718 L14.0997989,11.7665633 Z M15.2664509,11.7666335 L14.5664613,11.7666335 L14.5664613,12.4782987 C14.5658789,13.2717092 14.4696201,14.0621033 14.2794619,14.8326956 C14.2782952,14.8379458 14.2765453,14.8431957 14.2747953,14.8484459 C14.2514623,14.9511129 14.2240466,15.0537813 14.1925467,15.1558645 C14.1902134,15.1663641 14.1878801,15.177448 14.1843801,15.1885312 C14.009379,15.7969769 13.7766315,16.386741 13.4884673,16.9508196 C14.252042,16.0524273 14.6434538,15.0257723 14.8009533,13.6076835 C14.8143781,13.4892707 14.9141194,13.4000198 15.0331183,13.4000198 L15.0331183,13.4000198 L15.1941122,13.4000198 C15.2407838,13.0948831 15.2652843,12.7868821 15.2664509,12.4782987 L15.2664509,12.4782987 L15.2664509,11.7666335 Z M10.05,16.194 L10.0514479,16.1989762 L10.0520312,16.1989762 L10.05,16.194 Z M11.2565936,7.69457209 L11.2207287,7.80387614 L11.2207287,7.80387614 L11.1743545,7.90924169 C10.9981886,8.45465359 10.6785304,8.9423181 10.2497859,9.32149159 L10.2497859,9.32149159 C10.0835356,9.47432071 9.93828271,9.61898784 9.80645172,9.76365498 C9.03587338,10.5751349 8.52371251,11.597071 8.33413667,12.7001551 L8.33413667,12.7001551 L8.96646428,12.7001551 C9.0283008,12.7001551 9.08780028,12.7246504 9.13154982,12.7684052 C9.17529935,12.81216 9.19979861,12.8716605 9.19979861,12.9334937 C9.20096339,14.0767934 9.49436914,15.2008887 10.0520312,16.1989762 L10.05,16.194 L9.99012659,15.9861322 L9.99012659,15.9861322 L9.93361671,15.7702239 C9.92953355,15.7573902 9.92661697,15.744557 9.92545024,15.7311403 C9.8274532,15.3251464 9.75803813,14.9127312 9.7189552,14.4968067 L9.7189552,14.4968067 C9.71603861,14.4781398 9.7142886,14.4629735 9.7142886,14.4472232 C9.68220631,14.1310537 9.66645635,13.8137193 9.66645635,13.4958026 C9.64778997,11.9325762 10.0421137,10.3919141 10.8097651,9.02982547 C11.0442597,8.61799268 11.1959279,8.16473468 11.2565936,7.69457209 L11.2565936,7.69457209 Z M16.4330451,11.7666812 L15.7330556,11.7666812 L15.7330556,12.4783465 C15.7313054,12.7869299 15.7079724,13.0949309 15.6630566,13.4000198 L15.6630566,13.4000198 L16.3373806,13.4000198 C16.3997951,13.0966781 16.4324618,12.7880947 16.4330451,12.4783465 L16.4330451,12.4783465 L16.4330451,11.7666812 Z M17.5996451,11.7669052 L16.8996555,11.7669052 L16.8996555,12.4785705 C16.8996555,12.7877363 16.8710721,13.0963197 16.8139066,13.4002486 L16.8139066,13.4002486 L17.4718969,13.4002486 C17.5057294,13.2783325 17.5331466,13.1552426 17.5541455,13.0304085 L17.5541455,13.0304085 L17.5557497,13.0243563 C17.584479,12.8396596 17.5996451,12.6593988 17.5996451,12.4785705 L17.5996451,12.4785705 L17.5996451,11.7669052 Z M18.5306601,9.90035784 L17.7933378,9.90035784 L17.7933378,10.0310249 C17.7933378,10.4521911 17.7682547,10.877449 17.7280054,11.3003624 L17.7280054,11.3003624 L17.8330031,11.3003624 C17.8948396,11.3003624 17.9543391,11.3248576 17.9980887,11.3686124 C18.0418382,11.4123672 18.0663375,11.4718678 18.0663375,11.5337009 L18.0663375,11.5337009 L18.0663375,12.4787002 C18.0657536,12.6805249 18.0494212,12.8817821 18.0179213,13.0806947 L18.0179213,13.0806947 C18.0161713,13.0847781 18.0161713,13.0894448 18.0161713,13.0929447 C18.0045056,13.1728682 17.9870055,13.2522003 17.9695053,13.3327002 L17.969,13.332 L18.0945336,12.9146783 C18.3290713,12.0735103 18.4703394,11.2089954 18.515879,10.3369405 L18.5306601,9.90035784 Z M10.313479,8.55718305 C10.0947388,8.63126756 9.88124017,8.72052288 9.67532752,8.82435618 C9.22498972,9.05244865 8.81083485,9.34702453 8.44742268,9.69703313 C8.00585062,10.1205438 7.64243845,10.6181241 7.3741054,11.1670453 L7.3741054,11.1670453 L7.24537021,11.4612623 C7.08537945,11.8586509 6.97534298,12.2748215 6.91794369,12.699957 L6.91794369,12.699957 L7.86292582,12.699957 C8.05426376,11.479153 8.61192582,10.3450971 9.46241124,9.44851179 C9.60240914,9.29451876 9.75816148,9.14052573 9.93607455,8.97718441 C10.0748927,8.84884692 10.2014807,8.70826407 10.313479,8.55718305 Z M6.75674077,8.03373906 L5.93309015,8.03373906 L5.93309015,9.0813755 C5.93309015,10.162851 6.13258157,11.2344854 6.52166375,12.243071 C6.60973923,11.8265641 6.74507801,11.4211377 6.92415586,11.034393 C6.81332381,10.3892411 6.75732405,9.73590562 6.75674077,9.08140537 L6.75674077,9.08140537 L6.75674077,8.03373906 Z M12.742,7.694 L12.7803629,7.9275726 C12.8554785,8.31436758 12.9938628,8.68705708 13.1897603,9.02976574 C13.6004208,9.73671202 13.9002478,10.502675 14.0787433,11.3001027 L14.0787433,11.3001027 L15.2360653,11.3001027 C15.0873166,10.9827683 14.9099859,10.6800089 14.7064028,10.3953488 C14.4275867,10.0033475 14.1067488,9.64342319 13.7497579,9.32201202 C13.3175041,8.94050892 12.9966812,8.4499324 12.8210976,7.90101116 C12.7884315,7.83451431 12.762182,7.76509648 12.7429318,7.69392996 L12.742,7.694 Z M17.3266544,9.90030722 L16.364753,9.90030722 C16.7065719,10.323803 16.9836558,10.7957277 17.1878212,11.3003117 L17.1878212,11.3003117 L17.2595719,11.3003117 C17.3009873,10.8779808 17.3266544,10.4521405 17.3266544,10.0309743 L17.3266544,10.0309743 L17.3266544,9.90030722 Z M13.6703675,8.54696862 C13.787025,8.70214138 13.9182795,8.84622014 14.062944,8.97630334 C14.4450226,9.32047298 14.7880212,9.70547049 15.086101,10.1248894 C15.3474304,10.4918026 15.5679178,10.885566 15.7440837,11.3003108 L15.7440837,11.3003108 L16.6808974,11.3003108 C16.4883947,10.8686465 16.2369809,10.4667295 15.9336595,10.1044755 L15.9336595,10.1044755 C15.8519903,10.0064836 15.7709065,9.91781213 15.6851576,9.83206166 L15.6851576,9.83206166 C15.2062528,9.33563484 14.6334336,8.94130397 13.9993588,8.67121883 C13.8780273,8.62046923 13.7718664,8.58196948 13.6703675,8.54696862 Z M8.04492758,8.03335079 L7.22360653,8.03335079 L7.22360653,9.0810171 C7.22418892,9.50976942 7.24985595,9.93793934 7.30060463,10.364362 C7.51701526,10.0295258 7.7684291,9.71919516 8.0507609,9.43744705 C8.04726088,9.318428 8.04492758,9.20001823 8.04492758,9.0810171 L8.04492758,9.0810171 L8.04492758,8.03335079 Z M9.33500194,8.03373906 L8.51135133,8.03373906 L8.51135133,9.02424039 C8.76917147,8.81890639 9.04509054,8.63633087 9.33500194,8.4799933 L9.33500194,8.4799933 L9.33500194,8.03373906 Z M11.8899824,5.46703423 C11.7313181,5.46528703 11.5802413,5.53353408 11.4764099,5.6537015 C11.2185793,6.01304346 11.251253,6.50421732 11.5539919,6.82621089 C11.6642431,6.97612711 11.8334053,7.07121093 12.0189044,7.08812747 C12.2038211,7.10444966 12.3875656,7.04145617 12.5228969,6.91370557 C12.7807275,6.55436361 12.7480538,6.06318976 12.4453149,5.74119619 C12.3070642,5.57495181 12.1052282,5.4757843 11.8899824,5.46703423 Z M12.2327128,5.76728723 L12.2327128,6.23271277 L11.7672872,6.23271277 L11.7672872,5.76728723 L12.2327128,5.76728723 Z" id="Combined-Shape" fill="#000000"></path>
    </g>
</svg>