<?xml version="1.0" encoding="UTF-8"?>
<svg width="24px" height="24px" viewBox="0 0 24 24" version="1.1" xmlns="http://www.w3.org/2000/svg" xmlns:xlink="http://www.w3.org/1999/xlink">
    <!-- Generator: Sketch 57.1 (83088) - https://sketch.com -->
    <title>crops-blacksapote</title>
    <desc>Created with Sketch.</desc>
    <g id="crops-blacksapote" stroke="none" stroke-width="1" fill="none" fill-rule="evenodd">
        <path d="M12.0105139,3.00060736 C12.9612287,3.02802045 12.8787323,3.9773145 13.2362165,4.5235744 C14.7300695,3.92695449 15.1745093,4.12408239 15.2712753,5.54694542 C17.2552157,5.1823979 19.6012332,6.58957843 19.7505248,6.68074361 L19.7580367,6.68535905 C24.7677209,10.2744729 23.7774674,18.5378281 17.7550846,21.0767739 C15.2926798,22.1149295 12.7302389,22.0884404 10.1545688,21.8948547 C9.27044568,21.828478 8.39078181,21.652141 7.51825277,21.477498 C4.22404685,20.8185055 1.64213381,17.9972665 1.13169689,14.5338216 C1.11044107,14.3887478 1.04488991,14.2504503 1,14.1089186 L1,12.2608445 C1.10226576,11.8157667 1.18074878,11.3628345 1.31393209,10.9279211 C1.42585958,10.5629265 1.45439886,9.99063954 2.01477952,10.1438757 C2.57709253,10.2974198 2.33703557,10.7726829 2.23462117,11.1640126 C1.27320415,14.8373678 3.12008208,18.8667853 6.48221742,20.0942145 C7.83842782,20.5893444 9.3178625,20.8109592 10.7595421,20.9457146 C13.3979391,21.1924325 16.0088374,21.0094732 18.3952861,19.6169494 C22.4258649,17.2649671 23.2637603,11.3831634 19.9860537,8.17767887 C18.0731787,6.30696588 15.8063869,5.94366532 13.3866423,6.97165653 C12.4268604,7.37946487 11.5739521,7.42043051 10.6152106,6.98274497 C8.12694211,5.84694944 5.46892432,6.46744032 3.63854567,8.53297111 C3.55486018,8.62737689 3.49005223,8.77291273 3.38778647,8.8097202 C3.1572426,8.89303754 2.90886167,8.92322275 2.66776421,8.97512283 C2.66925063,8.70345594 2.56118783,8.34200345 2.68931731,8.17444474 C3.70498869,6.84598749 5.01868744,5.96599622 6.63412964,5.63734704 C7.28473605,5.50505574 7.95570643,5.47964472 8.4970609,5.4191203 C8.78929124,4.98836503 8.97687756,4.41777216 9.32826745,4.27269834 C9.71102082,4.11468801 10.2455378,4.35124149 10.7952162,4.42701253 C11.1173236,3.99625726 10.9981126,2.97150019 12.0105139,3.00060736 Z M10.1755848,7.62216057 C11.4511788,8.20936977 12.5987488,8.22816426 13.8649079,7.62500344 C14.5234616,7.31134086 15.3139582,7.29207256 16.0511842,7.230951 C16.2462682,7.21468351 16.4651571,7.53576912 16.6730145,7.70207662 C16.4757532,7.86948968 16.2989583,8.13119103 16.0776018,8.18852211 C15.0159616,8.46333222 13.942419,8.68302238 12.8729406,8.92245464 C12.8652475,8.99842226 12.8574093,9.07438988 12.8498614,9.15035751 C13.6241011,9.69713487 13.9511281,10.4558635 13.8307972,11.2281747 C14.5847156,11.3756877 15.3307959,11.4240164 15.9999456,11.6966154 C16.303458,11.8204378 16.5536997,12.3586866 16.6554511,12.7606359 C16.9578023,13.9547964 16.3872106,14.7842807 14.9912858,15.3218977 C15.8891948,16.66673 15.8797599,17.2771559 14.9394666,18.6151969 C17.9687845,18.184661 19.9473486,15.8329814 19.8563384,12.7241525 C19.8113413,11.192323 19.195172,9.96325846 18.0895508,8.99747464 C17.8818386,8.8160052 17.6511924,8.31913588 17.7363965,8.15314425 C17.9873639,7.66369797 18.3560495,7.9814669 18.649111,8.20542135 C21.6507048,10.4988223 21.4789903,15.8320338 18.324987,18.2263564 C16.9189016,19.2940094 15.318458,19.7444453 13.6390517,19.9184917 C11.3989241,20.1506589 9.19551994,20.0009348 7.08777078,19.0608947 C3.92810659,17.65194 2.44784862,14.163273 3.57567804,10.8266992 C4.58332177,7.84564121 7.48795427,6.38472538 10.1755848,7.62216057 Z M12.073,18.025 L12.1685189,17.9324359 C11.8197192,18.2745271 11.4707743,18.6166183 11.153037,18.9280698 L12.7407073,18.9280698 C12.5924451,18.7277156 12.3867147,18.4496017 12.1645647,18.1493283 L12.073,18.025 Z M7.78246725,8.26069925 C5.19789446,8.65206675 3.63373875,11.3660535 4.2773418,14.2525074 C4.89394661,17.0181395 6.83128756,18.0737894 9.24225882,18.7377559 C8.1508625,17.3708125 8.13054125,16.6514101 9.03773994,15.3297946 C7.6077045,14.7629592 7.05627284,13.9702742 7.37328435,12.7833788 C7.4863576,12.360108 7.74734052,11.802433 8.07001295,11.6645542 C8.71361599,11.3897441 9.44677769,11.3628948 10.1617954,11.229912 C10.0462546,10.4448079 10.4274232,9.71229681 11.1833737,9.11971776 C10.5905738,8.87223072 10.0899453,8.59347218 9.55868972,8.46033142 C8.98055014,8.31566127 8.35683289,8.17367604 7.78246725,8.26069925 Z M11.8927305,17.7819221 C11.9384741,17.8437431 11.9842176,17.9055673 12.0296328,17.9669499 L12.073,18.025 L12.1685189,17.9324359 C12.1225058,17.9074029 12.0765653,17.8823304 12.0306247,17.8572382 Z M13.1847266,15.5523276 C12.6563741,15.5823356 12.7456425,16.0087651 12.749997,16.3628595 C12.7617543,17.309533 13.2400295,17.9965582 13.8522797,17.9163263 C14.377584,17.8474659 14.65584,17.484527 14.6826931,16.9710743 C14.6622267,16.2832593 13.8093148,15.5167918 13.1847266,15.5523276 Z M9.29465861,16.9322218 C9.2733213,17.4241951 9.74143583,17.9161684 10.2365486,17.9223279 C10.7961087,17.9292772 11.2613202,17.251886 11.3068979,16.099105 C11.2425957,16.0193469 11.0853963,15.6358762 10.8601207,15.5807562 C10.2745784,15.4371916 9.32093109,16.3221118 9.29465861,16.9322218 Z M12.4258731,13.6346584 L11.5639617,13.6346584 C11.4757094,13.9530591 11.4000853,14.225974 11.3209776,14.5115238 C11.5434953,14.6925194 11.7693515,14.8763579 12.0026104,15.0660401 C12.2373209,14.8829912 12.4679671,14.7031012 12.7198054,14.5066277 C12.6020873,14.1579032 12.504255,13.8674573 12.4258731,13.6346584 Z M9.11597676,12.2685047 C8.50880682,12.2590285 8.25943604,12.6440785 8.24288873,13.2511877 C8.22561567,13.878355 8.64887829,14.2640367 9.46448621,14.4538768 C9.83157509,14.165958 10.3509282,13.9579551 10.523804,13.568167 C10.7033567,13.163059 9.67495631,12.2771912 9.11597676,12.2685047 Z M14.9233548,12.2719793 C14.3767131,12.2560277 13.4028898,13.1043065 13.4744496,13.5926472 C13.5772171,14.2927812 14.184387,14.213339 14.6241969,14.2611939 C15.3104746,14.3357401 15.7857016,13.8938328 15.7970234,13.198121 C15.7575421,12.6993564 15.5264605,12.2893523 14.9233548,12.2719793 Z M12.007981,10.0014792 C11.4397118,10.031803 11.1372155,10.3838443 11.1250227,11.004694 C11.110943,11.7207797 11.6484401,12.6267054 12.0515266,12.5872212 C12.4241312,12.5507378 12.9071964,11.6411795 12.8971809,10.9953758 C12.8878912,10.4091142 12.5174638,9.97431404 12.007981,10.0014792 Z M19.7580367,6.68535905 C19.6953098,6.64023524 19.8045617,6.75527785 19.7580367,6.68535905 Z M11.9758803,4.15411359 C11.7371611,4.7031456 11.6421788,5.40048555 11.282465,5.61039596 C10.943561,5.80798588 10.3255072,5.49211922 9.86100069,5.40772384 C10.6983016,6.534433 13.5776474,6.51102406 14.0696527,5.33811305 C12.7687372,5.83632302 12.7687372,5.83632302 11.9758803,4.15411359 Z" id="black-sapote" fill="#000000"></path>
    </g>
</svg>