<?xml version="1.0" encoding="UTF-8"?>
<svg width="24px" height="24px" viewBox="0 0 24 24" version="1.1" xmlns="http://www.w3.org/2000/svg" xmlns:xlink="http://www.w3.org/1999/xlink">
    <!-- Generator: Sketch 57.1 (83088) - https://sketch.com -->
    <title>crops-field crops </title>
    <desc>Created with Sketch.</desc>
    <g id="crops-field-crops-" stroke="none" stroke-width="1" fill="none" fill-rule="evenodd">
        <path d="M9.67967671,8.82025594 L9.64846143,8.52097801 L10.2564012,3.48494079 L21.728537,5.24319328 L21.728537,11.7647291 L12.3845356,16.6771769 L9.67967671,8.82025594 Z M12.9316988,15.1000376 L20.7161836,11.0074788 L20.7161836,6.27275651 L11.119647,4.80196373 L10.6696743,8.52943691 L12.9316988,15.1000376 Z M10.9282179,18.2279034 L3,15.5795922 L3,2 L8.85538383,2.95215014 L8.28023344,8.84510322 L10.9282179,18.2279034 Z M9.37127321,16.4855999 L7.28381115,9.08894037 L7.26189609,8.84012935 L7.7385335,3.95653386 L4.01235335,3.35061578 L4.01235335,14.6955271 L9.37127321,16.4855999 Z M11.827804,18.8568686 L21.728537,13.4985042 L21.728537,21 L11.827804,18.8568686 Z M20.7161836,19.5860807 L20.7161836,15.3424216 L15.1152559,18.3736933 L20.7161836,19.5860807 Z" id="crops" fill="#000000"></path>
    </g>
</svg>