<?xml version="1.0" encoding="UTF-8"?>
<svg width="24px" height="24px" viewBox="0 0 24 24" version="1.1" xmlns="http://www.w3.org/2000/svg" xmlns:xlink="http://www.w3.org/1999/xlink">
    <!-- Generator: Sketch 57.1 (83088) - https://sketch.com -->
    <title>crops-cochia</title>
    <desc>Created with Sketch.</desc>
    <g id="crops-cochia" stroke="none" stroke-width="1" fill="none" fill-rule="evenodd">
        <path d="M17.9578017,13.6633376 C18.0810661,13.8544812 18.0203077,14.1087306 17.8220939,14.2312196 C16.7254676,14.9088952 16.0707579,15.7814622 15.8367253,16.8668009 C17.1546189,16.3324948 18.5774632,16.5659987 20.0704148,17.5374947 C20.2604068,17.6611266 20.3105849,17.919859 20.1824906,18.1153897 C20.0543963,18.3109204 19.7965364,18.3692058 19.6065444,18.2455738 C18.2234415,17.3455587 16.9987869,17.1932071 15.8866754,17.7519492 C15.8702593,17.7601969 15.8535959,17.7672732 15.8367789,17.7732096 C16.8346618,18.4554983 17.5268665,19.6163553 17.9170889,21.2274584 C17.9704478,21.4477603 17.8294107,21.670455 17.6020737,21.7248608 C17.3747367,21.7792666 17.1471877,21.6447813 17.0938288,21.4244794 C16.7533273,20.0186582 16.1834944,19.0431222 15.3873586,18.4739819 C15.0112463,20.0639086 14.2585305,21.2258745 13.1281224,21.9381544 C12.9351455,22.0597509 12.6822468,21.9965209 12.5632574,21.7969265 C12.4442679,21.597332 12.5042466,21.3369553 12.6972235,21.2153589 C13.6271457,20.6294069 14.2569197,19.6624797 14.5853618,18.2907803 C12.7574809,17.9849806 11.396608,18.4521236 10.438432,19.6894936 C10.2960974,19.8733017 10.0373372,19.9056813 9.86047488,19.7618155 C9.68361254,19.6179496 9.65562224,19.3523174 9.79795679,19.1685093 C10.8407095,17.8219184 12.2955551,17.2253532 14.1161763,17.377926 L14.3771186,17.4040115 L14.2402419,17.2422279 C13.385819,16.2877256 12.3535104,15.8573363 11.1252445,15.9270189 C10.8931428,15.9401866 10.6989437,15.7661408 10.6914885,15.5382766 C10.6840333,15.3104124 10.8661452,15.1150174 11.0982468,15.1018497 C12.6488669,15.013879 13.9535888,15.5937397 14.9898766,16.8144812 L14.9756259,16.8807311 C15.224022,15.4900104 16.0321037,14.3693303 17.375714,13.5390275 C17.5739277,13.4165385 17.8345372,13.472194 17.9578017,13.6633376 Z M11.250683,9.86069461 C11.3739475,10.0518382 11.313189,10.3060876 11.1149753,10.4285766 C10.018349,11.1062522 9.36363932,11.9788191 9.12960667,13.0641579 C10.4475003,12.5298518 11.8703446,12.7633557 13.3632962,13.7348517 C13.5532882,13.8584836 13.6034663,14.117216 13.475372,14.3127467 C13.3472777,14.5082773 13.0894178,14.5665628 12.8994257,14.4429308 C11.5163229,13.5429157 10.2916683,13.3905641 9.17955674,13.9493062 C9.16314065,13.9575539 9.14647725,13.9646302 9.12966027,13.9705666 C10.1275432,14.6528553 10.8197479,15.8137123 11.2099703,17.4248154 C11.2633292,17.6451173 11.1222921,17.867812 10.8949551,17.9222178 C10.6676181,17.9766236 10.4400691,17.8421383 10.3867101,17.6218364 C10.0462087,16.2160152 9.47637582,15.2404792 8.68023999,14.6713389 C8.30412768,16.2612656 7.55141188,17.4232315 6.42100377,18.1355114 C6.22802686,18.2571078 5.97512817,18.1938779 5.85613873,17.9942834 C5.7371493,17.794689 5.79712799,17.5343123 5.9901049,17.4127159 C6.92002711,16.8267639 7.54980105,15.8598367 7.87824318,14.4881373 C6.05036224,14.1823376 4.68948937,14.6494805 3.73131337,15.8868506 C3.58897882,16.0706587 3.33021861,16.1030383 3.15335626,15.9591725 C2.97649392,15.8153066 2.94850362,15.5496744 3.09083818,15.3658663 C4.1335909,14.0192754 5.58843647,13.4227102 7.40905768,13.575283 L7.67,13.6013685 L7.53312333,13.4395849 C6.67870036,12.4850826 5.64639176,12.0546932 4.41812583,12.1243759 C4.18602422,12.1375436 3.99182506,11.9634977 3.98436986,11.7356335 C3.97691466,11.5077693 4.15902656,11.3123744 4.39112817,11.2992067 C5.94174832,11.211236 7.24647021,11.7910967 8.282758,13.0118382 L8.26850724,13.0780881 C8.51690339,11.6873674 9.32498513,10.5666873 10.6685953,9.73638445 C10.8668091,9.61389548 11.1274186,9.66955103 11.250683,9.86069461 Z M14.3787483,17.4048182 L14.3771186,17.4040115 L14.3951186,17.4240115 L14.3787483,17.4048182 Z M7.67,13.6013685 L7.688,13.6213685 L7.67162969,13.6021752 L7.67,13.6013685 Z M18.3198842,3.21521328 C18.4624351,3.43353361 18.3906121,3.7249369 18.159463,3.86608075 C16.872771,4.65175845 16.1056523,5.66134676 15.8328578,6.91579601 C17.3670802,6.26082652 19.0179639,6.51132831 20.7438402,7.63214581 C20.9613367,7.77339226 21.0165858,8.07235781 20.8672425,8.29990407 C20.7178992,8.52745033 20.4205168,8.59741016 20.2030203,8.45616371 C18.6196907,7.42791877 17.2114949,7.26346927 15.9259471,7.92093528 C15.9100215,7.9290801 15.8939034,7.93627172 15.8776563,7.94253112 C17.0218216,8.72338846 17.8138242,10.0432507 18.2582361,11.8715887 C18.3194875,12.1235807 18.1545136,12.3790545 17.8897565,12.4422055 C17.6249995,12.5053564 17.3607174,12.3522706 17.2994661,12.1002787 C16.9036045,10.4716797 16.232321,9.34923079 15.2893715,8.70450965 C14.8621443,10.5538467 14.0030089,11.9051266 12.7110352,12.7323107 C12.4904491,12.8735406 12.200974,12.7994756 12.0644744,12.566882 C11.9279749,12.3342885 11.9961405,12.0312446 12.2167266,11.8900148 C13.2764132,11.2115521 13.9941197,10.091734 14.3684623,8.50310762 C12.2655816,8.14915795 10.6978958,8.697456 9.59119927,10.1465206 C9.42739538,10.3609989 9.13095382,10.3998262 8.92907852,10.2332438 C8.72720322,10.0666614 8.69634025,9.75775063 8.86014414,9.54327231 C10.0651912,7.96543139 11.7426762,7.26560937 13.8389,7.44297043 L14.1139358,7.471 L14.0130755,7.35184611 C13.0230917,6.23482283 11.8170928,5.73561201 10.3736275,5.82718296 C10.1042936,5.84426904 9.88050712,5.64601476 9.87378635,5.38436964 C9.86706558,5.12272452 10.0799556,4.89676824 10.3492894,4.87968216 C12.0618767,4.77103857 13.5109692,5.35910586 14.6742257,6.61736069 L14.8549358,6.821 L14.8912556,6.64991412 C15.2381775,5.17712623 16.1634232,3.97907643 17.6432405,3.07547291 C17.8743896,2.93432906 18.1773333,2.99689296 18.3198842,3.21521328 Z" id="Combined-Shape" fill="#000000"></path>
    </g>
</svg>