<?xml version="1.0" encoding="UTF-8"?>
<svg width="24px" height="24px" viewBox="0 0 24 24" version="1.1" xmlns="http://www.w3.org/2000/svg" xmlns:xlink="http://www.w3.org/1999/xlink">
    <!-- Generator: Sketch 58 (84663) - https://sketch.com -->
    <title>crops-clementine</title>
    <desc>Created with Sketch.</desc>
    <g id="crops-clementine" stroke="none" stroke-width="1" fill="none" fill-rule="evenodd">
        <path d="M12.5,3 C17.738005,3 22,7.2617832 22,12.5 C21.9991727,17.738005 17.7373696,22 12.5,22 C7.26114777,22 3,17.7382168 3,12.5 C3,7.2617832 7.26093597,3 12.5,3 Z M12.5,3.75721261 C7.67883261,3.75721261 3.75721261,7.67904441 3.75721261,12.5 C3.75721261,17.3209556 7.67904441,21.2427874 12.5,21.2427874 C17.3211674,21.2427874 21.2419402,17.3209556 21.2419402,12.5 C21.2419402,7.67967984 17.3201084,3.75721261 12.5,3.75721261 Z M7.72548248,16.9333333 C7.16089038,16.9333333 6.38611497,16.6598121 5.85695469,15.3768119 C5.8403692,15.3536038 5.82615373,15.3287408 5.8150962,15.3013889 C5.43836368,14.370626 5.4391522,13.5931833 5.81904508,12.9905543 C5.94240614,12.794848 6.09646867,12.6331343 6.26778409,12.4995255 C6.09650165,12.3674058 5.94234145,12.2054791 5.81894145,12.0094462 C5.43958033,11.4069023 5.43800546,10.6294599 5.81499803,9.69861256 C5.82682851,9.67043317 5.84102573,9.64391088 5.85837551,9.61987533 C6.3868038,8.34018569 7.15972004,8.06666667 7.72285597,8.06666667 C7.85317848,8.06666667 7.98227904,8.08122762 8.10880721,8.10709867 C8.05919688,7.87329438 8.05001269,7.62844101 8.10041841,7.38305784 C8.23552202,6.72974292 8.74693051,6.21627238 9.62220125,5.85524536 C9.6445806,5.83865575 9.6702743,5.82522584 9.69845484,5.81337698 C10.7966915,5.36783663 11.6926717,5.45867987 12.3068677,6.0519517 C12.3774611,6.12016365 12.4420312,6.19314985 12.5010914,6.26966293 C12.557342,6.19247152 12.6223001,6.1191003 12.6933595,6.05056321 C13.2994255,5.46606161 14.1823864,5.37060681 15.2625868,5.79656904 C15.3123328,5.80919 15.3579316,5.83206522 15.3968977,5.86204049 C16.260799,6.22172758 16.7665368,6.73209875 16.89919,7.37970512 C16.9501447,7.62577164 16.9408923,7.87133417 16.8924458,8.10772467 C17.016898,8.08098562 17.1451351,8.06666667 17.2745653,8.06666667 C17.8385159,8.06666667 18.6133388,8.34018592 19.1433202,9.62235911 C19.1599067,9.64556507 19.174123,9.67043027 19.1851812,9.69860969 C19.5619369,10.6293729 19.5603597,11.406816 19.1812321,12.0094453 C19.0577192,12.2050003 18.9035287,12.3666181 18.7321054,12.500171 C18.9035734,12.6328418 19.0576782,12.7946725 19.18108,12.9905538 C19.5604126,13.5930977 19.5619874,14.3705401 19.1850232,15.3013874 C19.1739822,15.3295668 19.1589974,15.3560891 19.1424363,15.3792972 C18.6140478,16.6598355 17.8404023,16.9333333 17.2780961,16.9333333 L17.2772363,16.9332251 C17.1472692,16.9331308 17.0185071,16.9185742 16.8922931,16.8927754 C16.941003,17.1264545 16.9498329,17.3709608 16.8991759,17.6159661 C16.7648925,18.2692002 16.2526181,18.7826071 15.3772854,19.1435895 C15.3540748,19.1601768 15.329209,19.1743939 15.301854,19.1854527 C14.842628,19.3718645 14.4140863,19.4666667 14.0311256,19.4666667 C13.4997276,19.4666667 13.0504538,19.2913136 12.6931908,18.9469305 C12.6227435,18.878873 12.5582941,18.8060622 12.4993326,18.7297374 C12.4426234,18.8058797 12.37742,18.8795134 12.3060695,18.9482801 C11.9942216,19.2491857 11.6113019,19.4202616 11.1650857,19.4583289 L10.9691933,19.4666667 C10.5854458,19.4658778 10.1586047,19.3720161 9.69859991,19.185875 C9.67042038,19.1748325 9.64389796,19.1598453 9.61986229,19.1424942 C8.74627759,18.7820244 8.23490421,18.2701339 8.10061592,17.6186148 C8.04990899,17.3730688 8.05915897,17.127995 8.10746588,16.8920301 C7.98313401,16.9190144 7.85490475,16.9333333 7.72548248,16.9333333 Z M13.133,13.759 L13.1330936,16.6450135 C13.1307149,16.8145596 13.1069091,17.3796348 12.9052768,17.9597821 C12.9872406,18.13911 13.0948644,18.3067044 13.2344753,18.441349 C13.6116216,18.8054858 14.163686,18.838648 14.9030822,18.5606196 C14.9271204,18.5432422 14.9536456,18.5298152 14.9818281,18.5179658 C15.6723118,18.2525673 16.0668799,17.9018571 16.1547315,17.4769163 C16.2198817,17.1611121 16.1179042,16.8160459 15.9557872,16.5021775 C15.4303656,16.1814518 15.0666748,15.7933046 15.0414978,15.7654171 L13.133,13.759 Z M9.96145358,15.7696623 C9.93801854,15.7952197 9.57238215,16.1849462 9.04526756,16.5064348 C8.88214595,16.8210721 8.77961271,17.1661942 8.84489769,17.480537 C8.93275266,17.9041072 9.32809366,18.2535117 10.0176764,18.5185334 C10.0475131,18.5303647 10.0748651,18.5453505 10.0997304,18.5627036 C10.3589966,18.6599202 10.5975642,18.7182247 10.8129082,18.7376596 L10.9708509,18.7449476 C11.2949124,18.7449476 11.555999,18.645564 11.7673508,18.4412783 C11.9048211,18.3087688 12.012633,18.1400191 12.0967214,17.9573181 C11.8945894,17.3799617 11.8696553,16.8178807 11.8669644,16.6409429 L11.866,13.769 L9.96145358,15.7696623 Z M17.9641162,12.9045813 L17.8299488,12.9503666 C17.2797378,13.1183251 16.7650135,13.1333333 16.6015893,13.1333333 L13.77,13.133 L15.7701984,15.0386185 C15.7987357,15.0645567 16.1874609,15.4295076 16.5077841,15.9559097 C16.7489375,16.0833476 17.0149994,16.1747939 17.2772579,16.1747939 L17.2780467,16.1747939 C17.8048605,16.1747939 18.2102168,15.7844283 18.5185645,14.9821185 C18.5303939,14.952282 18.5445903,14.9249301 18.5619388,14.9008946 C18.7985346,14.2684972 18.8040462,13.7670563 18.5792888,13.4090267 C18.4358719,13.1809944 18.2112629,13.0192726 17.9641162,12.9045813 Z M7.03524939,12.9073937 L6.96008315,12.94268 C6.74399902,13.0542655 6.55101701,13.2049567 6.42257592,13.4084536 C6.19669411,13.7673321 6.20302252,14.2696007 6.44074109,14.9028258 C6.45797923,14.9259286 6.47140497,14.9532784 6.48325305,14.9814578 C6.79205119,15.7837467 7.19801975,16.1741337 7.72637129,16.1741337 C7.98828327,16.1741337 8.25398493,16.0831948 8.49573531,15.9579388 C8.81575181,15.4333342 9.2034001,15.0696462 9.23361105,15.0416959 L11.239,13.132 L8.39405017,13.1333333 C8.21780702,13.1333333 7.63241219,13.1160918 7.03524939,12.9073937 Z M7.72210973,8.82422587 C7.1952563,8.82422587 6.78908206,9.21459147 6.48071108,10.0169012 C6.46966924,10.0467398 6.45547283,10.0740896 6.43812103,10.0997844 C6.2014725,10.7322178 6.19596047,11.2336588 6.42073491,11.5908609 C6.56400507,11.8182751 6.78789818,11.9797379 7.03429093,12.0943728 C7.63363524,11.8839483 8.22102501,11.8666667 8.39772086,11.8666667 L11.231,11.866 L9.23014362,9.96072445 C9.2020652,9.93438171 8.81403917,9.56984781 8.49370426,9.04402427 C8.25169269,8.91609291 7.98499062,8.82422587 7.72210973,8.82422587 Z M17.2736522,8.82511341 C17.0111123,8.82511341 16.7449267,8.91630583 16.5028814,9.04183191 C16.1830963,9.56685162 15.796026,9.92969327 15.7658434,9.95761062 L13.759,11.866 L16.5950611,11.8666667 C16.7783393,11.8666667 17.3657994,11.8841558 17.9635334,12.0926442 C18.2104423,11.979449 18.4343411,11.8180839 18.5776646,11.590902 C18.8035603,11.2328509 18.7972315,10.730582 18.5594984,10.0973567 C18.5421221,10.0733211 18.5279049,10.0467988 18.5168467,10.0177897 C18.2080296,9.21465184 17.8020361,8.82511341 17.2736522,8.82511341 Z M10.0978804,6.43831452 C10.0739301,6.4549648 10.0474067,6.46997415 10.0183965,6.4810343 C9.32796175,6.7464656 8.93342153,7.09721917 8.84557618,7.52221261 C8.78043057,7.83805586 8.88240087,8.18316477 9.04450641,8.49713353 C9.56947216,8.81801512 9.93311529,9.20623962 9.95876266,9.2336472 L11.866,11.239 L11.866906,8.35398969 C11.8692822,8.18438625 11.8930795,7.61901396 12.0947222,7.03866249 C12.0136055,6.85963029 11.9059828,6.69209476 11.7663693,6.55759985 C11.3884221,6.19341799 10.8363968,6.16104043 10.0978804,6.43831452 Z M14.0307097,6.25401096 C13.7065286,6.25401096 13.445361,6.35261191 13.2339436,6.55691385 C13.0938446,6.6916431 12.9859502,6.85957755 12.9028588,7.03883105 C13.1053291,7.61723154 13.1303404,8.18096891 13.1330356,8.35822473 L13.133,11.23 L15.038457,9.2303382 C15.0618791,9.20479651 15.4271024,8.81553367 15.9537262,8.494159 C16.1181442,8.17953312 16.2215129,7.83305693 16.1556464,7.51770161 C16.0677642,7.09410202 15.6731284,6.74467325 14.9825039,6.47963323 C14.952658,6.46780103 14.9261274,6.45360175 14.9012543,6.43624946 C14.5770924,6.31556083 14.2844275,6.25401096 14.0307097,6.25401096 Z M8.394,12.686 L8.395,12.624 L8.394,12.624 L8.394,12.686 Z" id="citrus" fill="#000000"></path>
    </g>
</svg>