<?xml version="1.0" encoding="UTF-8"?>
<svg width="24px" height="24px" viewBox="0 0 24 24" version="1.1" xmlns="http://www.w3.org/2000/svg" xmlns:xlink="http://www.w3.org/1999/xlink">
    <!-- Generator: Sketch 57.1 (83088) - https://sketch.com -->
    <title>crops-coffee</title>
    <desc>Created with Sketch.</desc>
    <g id="crops-coffee" stroke="none" stroke-width="1" fill="none" fill-rule="evenodd">
        <path d="M20.5841616,3.94291287 C20.3707364,3.7492603 20.1042093,3.58264963 19.8647662,3.44417206 C17.3598884,2.16973531 14.6675926,3.66595219 12.5354188,7.57024968 C12.0825451,8.40111508 11.7358536,9.28714995 11.4693319,10.2294621 C10.1367233,9.09350292 8.51040771,8.20746805 7.01868562,8.06899048 C6.03276846,7.93051292 5.01977269,8.29077062 4.30043056,9.01019482 C4.11407324,9.20384739 3.9537391,9.39748888 3.82047824,9.61927455 C1.92774756,12.5835254 3.60705297,16.1839421 5.84543034,18.5663102 C7.52473042,20.3665186 9.8432562,22 11.9223922,22 C12.4825142,22 13.0155577,21.88965 13.5215225,21.6397368 C13.7880442,21.5012592 14.0274874,21.334643 14.240918,21.140996 C15.1466654,20.3934386 15.6797088,19.2574795 15.7067874,18.0393754 C18.2116652,17.5687732 20.0513581,15.0211183 21.0372219,12.4720232 C22.1563999,9.50998806 22.6363523,5.7428443 20.5843482,3.94263591 L20.5841616,3.94291287 Z M4.48571646,10.2026529 L4.53881292,10.3411304 C4.56588086,10.424433 4.59190938,10.479608 4.64500583,10.5629106 L4.72517024,10.7013881 L4.83136315,10.8950407 L4.91152756,11.0335183 L5.01772047,11.2271708 L5.09788488,11.3375208 L5.23114574,11.5311734 L5.31235224,11.6426035 C5.3654487,11.7259061 5.41854516,11.7810811 5.47268105,11.8643837 L5.52577751,11.9195587 C5.60594191,12.0028612 5.68610632,12.1132112 5.76523129,12.1965138 L5.79229923,12.2516888 L6.24621238,12.7233711 L6.3524053,12.8066737 L6.51273411,12.9732788 L6.61892702,13.0565814 L6.77925583,13.1950589 L6.88544875,13.2783615 L7.04577755,13.4168391 L7.15197047,13.5001416 L7.33832779,13.6667468 L7.41849219,13.7500493 L7.63191746,13.9166545 L7.68501392,13.9718295 L7.95153564,14.1936096 L8.2982271,14.4987034 L8.37839151,14.5538784 L8.67199184,14.8027059 L8.77818475,14.8860085 L9.01763853,15.1077886 L9.15089939,15.2181387 L9.36432466,15.4117912 L9.49758552,15.5502688 L9.71101079,15.7439214 L9.84427165,15.8823989 L10.0576969,16.0760515 L10.1909578,16.2426566 L10.3773151,16.4644368 L10.510576,16.6310419 L10.6969333,16.852822 L10.8301941,17.0464746 C10.8832906,17.1297772 10.9363871,17.2130797 11.0165515,17.2682547 L11.1498123,17.4619073 C11.2029088,17.5452099 11.2560052,17.6285124 11.3101411,17.7107349 C11.3632376,17.7940374 11.3903055,17.8492124 11.443402,17.932515 C11.4964985,18.0158176 11.5495949,18.0991201 11.6037308,18.1813426 C11.6568273,18.2646452 11.6838952,18.3479477 11.7369917,18.4031227 C11.7900881,18.4582977 11.8431846,18.5967753 11.8702525,18.6800779 C11.8973205,18.7633804 11.9504169,18.846683 12.0035134,18.9289054 C12.0566098,19.012208 12.0836778,19.122558 12.1367743,19.2339992 C12.1898707,19.3443492 12.2169387,19.4276518 12.2429672,19.5109543 C12.2700351,19.5942569 12.3231316,19.7327345 12.376228,19.8430789 C12.4293245,19.9534289 12.4563924,20.0367315 12.4824209,20.1481727 C12.5094889,20.2585227 12.5625853,20.3699529 12.5886139,20.4802973 C12.6156818,20.5906473 12.6417103,20.7020775 12.6948068,20.8124219 C12.7218747,20.8675969 12.7218747,20.9227719 12.7479032,21.0060745 C10.7489903,21.6984623 8.05658785,19.8701153 6.32419664,17.9878174 C2.53985468,13.9168539 3.84533139,11.0088249 4.37837484,10.1497101 L4.48571646,10.2026529 Z M13.7348199,20.505107 C13.6817234,20.560282 13.6286269,20.5884095 13.574491,20.615457 C12.455313,16.7931991 10.3490451,15.0763542 8.45754046,13.553101 C6.99167098,12.3349415 5.68624758,11.3093213 5.04579587,9.42702338 C5.57883932,8.98345203 6.27222224,8.789805 6.96453907,8.8731131 C9.12379147,9.06676567 11.6558545,11.1168928 12.9612779,12.9440766 C14.0273648,14.5224994 16.2666803,18.2895877 13.7348039,20.5052288 L13.7348199,20.505107 Z M19.5180747,4.219868 L19.6784036,4.30317057 C16.7727837,6.90610572 16.1333981,9.62043223 15.573436,12.0028003 C15.3870786,12.8888352 15.1465748,13.7478392 14.8540405,14.5787046 C14.5073491,13.8581782 14.081554,13.1387595 13.6016016,12.5015411 C13.1747404,11.8924614 12.6958542,11.3385511 12.1628108,10.8398103 C12.4022645,9.84232868 12.7489453,8.90112435 13.2288977,7.98689544 C13.9753717,6.60211976 15.7879326,3.8325684 18.0793265,3.8325684 C18.5852914,3.8325684 19.0652437,3.97104597 19.5181174,4.21986246 L19.5180747,4.219868 Z M15.6535097,17.1816453 C15.5733453,16.6558737 15.4671524,16.1289942 15.2808058,15.6302534 L15.3078737,15.5750784 L15.3609702,15.4917759 C15.4140666,15.3814259 15.4671631,15.2699957 15.494231,15.1596513 L15.521299,15.1044763 C15.5483669,15.0211737 15.6014634,14.9108237 15.6274919,14.8275211 L15.6805884,14.7171711 C15.7076563,14.6338686 15.7336848,14.5786936 15.7607528,14.495391 L15.8138492,14.3569134 L15.8669457,14.1632609 L15.9200421,14.0247833 L15.9731386,13.8311307 L16.026235,13.6926531 L16.0793315,13.4990006 L16.132428,13.360523 L16.1855244,13.1387429 L16.2125924,13.0002653 L16.2656888,12.7514377 L16.2927568,12.6410877 L16.3729212,12.2808245 L16.4791141,11.8102223 L16.506182,11.6998723 C16.53325,11.5895223 16.5592785,11.4510447 16.5863464,11.3396091 L16.6394429,11.1730039 C16.6665108,11.0626539 16.6925394,10.9793514 16.7196073,10.8679102 L16.7727038,10.701305 C16.7997717,10.6180025 16.8258002,10.5076525 16.8528682,10.4243499 C16.8799361,10.3410473 16.9059646,10.2858723 16.9059646,10.2306973 C16.9059646,10.1755223 16.9590611,10.0370448 16.986129,9.95374219 C17.013197,9.87043963 17.0392255,9.81526463 17.0662934,9.76008962 C17.0933614,9.70491462 17.1193899,9.59348449 17.1464578,9.48313449 C17.1735258,9.37278448 17.1995543,9.34465692 17.2266222,9.26135435 C17.2536902,9.17805179 17.2797187,9.09474922 17.3328152,8.98439922 C17.3859116,8.87404921 17.3859116,8.84592165 17.4129796,8.76261908 C17.4400475,8.67931652 17.493144,8.59601395 17.5191725,8.51379151 C17.5462404,8.43048895 17.5993369,8.37531394 17.6253654,8.29201138 C17.6524333,8.20870881 17.7055298,8.12540625 17.7586263,8.04318381 C17.8117227,7.95988124 17.8387907,7.90470624 17.8648192,7.82140367 C17.8918871,7.73810111 17.9710121,7.65479854 18.025148,7.5725761 C18.0782444,7.48927353 18.1053124,7.43409853 18.1584088,7.35079596 C18.2115053,7.2674934 18.2646018,7.18419083 18.3187376,7.10196839 L18.4790665,6.88018826 C18.5321629,6.79688569 18.5852594,6.71358313 18.6654238,6.63136069 L18.8517811,6.40958055 C18.9048776,6.32627799 18.985042,6.24297542 19.0652064,6.16075298 L19.2515637,5.93897285 L19.7044374,5.46837068 L19.9709591,5.21954311 L20.2104129,4.99776297 L20.3707417,4.8592854 C21.8095326,6.46584676 21.2764891,9.76111436 20.3436738,12.1985965 C18.9048829,15.7688252 17.0121522,16.8766457 15.6534245,17.1816453 L15.6535097,17.1816453 Z" id="Shape" fill="#000000"></path>
    </g>
</svg>