<?xml version="1.0" encoding="UTF-8"?>
<svg width="24px" height="24px" viewBox="0 0 24 24" version="1.1" xmlns="http://www.w3.org/2000/svg" xmlns:xlink="http://www.w3.org/1999/xlink">
    <!-- Generator: Sketch 57.1 (83088) - https://sketch.com -->
    <title>crops-medical cannabis</title>
    <desc>Created with Sketch.</desc>
    <g id="crops-medical-cannabis" stroke="none" stroke-width="1" fill="none" fill-rule="evenodd">
        <g id="np_medicinal-cannabis_2091837_000000" transform="translate(3.000000, 3.000000)" fill="#000000" fill-rule="nonzero">
            <path d="M18.1727528,10.5467471 C16.6925461,10.7216301 15.3682247,10.9656207 14.2275843,11.2744253 C14.9239022,9.81649195 15.4984708,7.88762069 15.9379472,5.53402299 L16.0880515,4.8089 L15.5293234,5.27383218 C13.7881121,6.66437011 12.431256,7.99170575 11.4863796,9.22626897 C11.4621962,7.01593563 10.8267593,4.2024069 9.59504697,0.851418391 L9.34403348,0.124591954 L9.09302,0.848011494 C7.9188627,4.04372414 7.28592787,6.7522069 7.20753685,8.91318391 C6.2785436,7.76833563 5.00524472,6.54757471 3.41564921,5.27741379 L2.85359079,4.80992644 L3.00286247,5.5307908 C3.44317146,7.88875632 4.01774,9.81758391 4.71322539,11.2755609 C3.57241416,10.9667345 2.24898944,10.7227701 0.772113034,10.5487345 L0.0532725843,10.4480694 L0.547784944,10.9846556 C2.46247258,13.14382 3.9468636,14.4815292 5.2920209,15.2526671 C4.4255782,15.8157005 3.47325124,17.1499372 3.42654112,17.2156292 L3.22389865,17.5014154 L3.56414809,17.5594244 C4.91009528,17.787206 6.50786719,17.5056806 7.28088966,16.904252 L7.02238292,16.5561807 C6.47949528,16.9784611 5.24112225,17.29836 3.99348404,17.1755152 C4.44713573,16.5894416 5.26353798,15.6501864 5.82642899,15.4659301 L6.32928854,15.3012831 L5.85561213,15.0624072 C4.53218742,14.3944371 3.07862337,13.1472291 1.17478067,11.0383383 C2.65248966,11.2311359 3.96009528,11.4973084 5.06657843,11.8300049 L5.5602582,11.978443 L5.31509416,11.516066 C4.58540876,10.1443097 3.97915933,8.26160621 3.51133236,5.91128437 C5.12746382,7.23527862 6.38161326,8.49528437 7.24472562,9.66236483 L7.63834584,10.1946924 L7.62833882,9.5267223 C7.59664938,7.41617172 8.17289163,4.68980276 9.3437186,1.41306713 C10.5845894,4.88504414 11.1583253,7.73700966 11.0465883,9.89536598 L11.0073949,10.6614372 L11.4351938,10.0318602 C12.2974735,8.7633154 13.6391938,7.37884874 15.4305308,5.91148092 C14.9635365,8.25918207 14.357287,10.1436763 13.626769,11.5162625 L13.3807724,11.9786395 L13.8744522,11.8302015 C14.9802308,11.4983567 16.2870252,11.232182 17.7662499,11.0385348 C15.693969,13.3445233 14.2747331,14.6026728 13.060441,15.215259 L12.7302039,15.3816116 L13.0354207,15.5914721 C13.3781679,15.8269192 14.1295219,16.6689249 14.6006792,17.2183089 C13.4473792,17.2643762 12.3275106,17.0314821 11.7195106,16.6040847 L11.4768443,16.9640801 C12.108114,17.4076755 13.1646848,17.662756 14.299732,17.662756 C14.551578,17.662756 14.8067544,17.6499596 15.0627634,17.6243672 L15.4680398,17.583419 L15.2045162,17.2652236 C15.1561495,17.2072124 14.1713005,16.0205707 13.5425072,15.4489983 C14.8017162,14.7298374 16.2776533,13.3683236 18.390069,10.9872741 L18.8870792,10.4481109 L18.1727528,10.5467471 Z" id="Path"></path>
            <polygon id="Path" points="9.23976404 17.5505402 9.66673034 17.5505402 9.66673034 18.956431 9.23976404 18.956431"></polygon>
            <path d="M12.5829101,14.0298621 C12.5829101,12.2801805 11.1919393,10.8572989 9.48249438,10.8572989 C7.77296404,10.8572989 6.38122472,12.280246 6.38122472,14.0298621 C6.38122472,15.7795437 7.77219551,17.2024253 9.48249438,17.2024253 C11.1920247,17.2024253 12.5829101,15.7794782 12.5829101,14.0298621 Z M6.8071236,14.0298621 C6.8071236,12.5216115 8.00630112,11.2940805 9.48142697,11.2940805 C10.9557843,11.2940805 12.1548764,12.5208253 12.1548764,14.0298621 C12.1548764,15.5381126 10.9556989,16.7656437 9.48142697,16.7656437 C8.00715506,16.7656437 6.8071236,15.5380471 6.8071236,14.0298621 L6.8071236,14.0298621 Z" id="Shape"></path>
            <path d="M10.2354494,15.9971264 L10.2354494,14.8010874 L11.4046112,14.8010874 L11.4037774,13.2587023 L10.2346156,13.2587023 L10.2346156,12.0626632 L8.72689085,12.0626632 L8.72689085,13.2587023 L7.55772906,13.2587023 L7.55772906,14.8010874 L8.72689085,14.8010874 L8.72689085,15.9971264 L10.2354482,15.9971264 L10.2354494,15.9971264 Z M7.98640449,14.3643057 L7.98640449,13.6954839 L9.15556629,13.6954839 L9.15556629,12.4994448 L9.80935843,12.4994448 L9.80935843,13.6954839 L10.9785202,13.6954839 L10.9785202,14.3643057 L9.80935843,14.3643057 L9.80935843,15.5603448 L9.15556629,15.5603448 L9.15556629,14.3643057 L7.98640449,14.3643057 Z" id="Shape"></path>
        </g>
    </g>
</svg>