<?xml version="1.0" encoding="UTF-8"?>
<svg width="24px" height="24px" viewBox="0 0 24 24" version="1.1" xmlns="http://www.w3.org/2000/svg" xmlns:xlink="http://www.w3.org/1999/xlink">
    <!-- Generator: Sketch 57.1 (83088) - https://sketch.com -->
    <title>crops-rice</title>
    <desc>Created with Sketch.</desc>
    <g id="crops-rice" stroke="none" stroke-width="1" fill="none" fill-rule="evenodd">
        <path d="M22.314023,13.1682637 C22.235222,13.0282609 22.0710637,12.9657594 21.9208375,13.0182617 L20.0706532,13.6716082 C17.7721857,14.4832939 15.7210483,15.9050399 14.1391446,17.7826244 C14.0209431,17.9226272 14.0373589,18.1334581 14.1752628,18.2526285 C14.3131645,18.3726309 14.5200119,18.355965 14.6382134,18.21596 C16.1444681,16.4284254 18.0972619,15.0741368 20.2864586,14.3007878 L20.4686864,14.2366202 L19.7151598,14.8832892 C18.2524242,16.1399758 16.9859136,17.605904 15.9499431,19.241777 C15.2144672,20.4026324 14.0225969,21.148482 12.6928353,21.3026612 C13.0359453,20.5459739 13.4488416,19.8209673 13.9241061,19.143471 C14.0291741,18.993469 13.9946992,18.7851278 13.8469463,18.678459 C13.6991934,18.5717901 13.4939809,18.6059583 13.3889129,18.7567944 C13.0761675,19.2034807 12.7896891,19.6693035 12.5303182,20.1501451 C12.6296411,17.7626837 13.1426755,15.4509571 14.0332739,13.3067006 C14.3969142,14.1083808 15.193939,14.666728 16.1182221,14.666728 L16.7748971,14.666728 C16.9563033,14.666728 17.1032346,14.5175581 17.1032346,14.333388 C17.1032346,13.8175376 16.9357814,13.3417093 16.6550566,12.9550349 C16.8003467,12.9842024 16.9497303,13.0000363 17.1032346,13.0000363 L17.7599096,13.0000363 C17.9413158,13.0000363 18.088247,12.8508664 18.088247,12.6666963 C18.088247,12.3033609 18.0037009,11.9616794 17.8575808,11.6550066 C17.933919,11.6625069 18.0102572,11.6666736 18.088247,11.6666736 L18.744922,11.6666736 C18.9263282,11.6666736 19.0732595,11.5175036 19.0732595,11.3333335 C19.0732595,10.9699982 18.9887134,10.6283166 18.8425932,10.3216438 C18.9189314,10.3291441 18.9952696,10.3333108 19.0732595,10.3333108 L19.7299345,10.3333108 C19.9113407,10.3333108 20.0582719,10.1841409 20.0582719,9.99997076 C20.0582719,9.63663544 19.9737258,9.29495389 19.8276057,8.98828105 C19.9039439,8.99578136 19.9802821,8.99994806 20.0582719,8.99994806 L20.7149469,8.99994806 C20.8963531,8.99994806 21.0432844,8.85077812 21.0432844,8.66660801 C21.0432844,7.43658857 20.1009506,6.42826959 18.9108244,6.34165451 C19.2046785,6.07165441 19.506749,5.80831043 19.8186749,5.554972 L20.5919123,4.92662868 C20.733918,4.81162689 20.756081,4.60163013 20.6428051,4.45828857 C20.5295292,4.31495129 20.322684,4.2907844 20.1814936,4.40662033 L19.4082562,5.03496366 C19.1981202,5.20496815 18.9978396,5.38413336 18.7950794,5.5616516 C18.9789484,4.83498096 19.0733414,4.08996329 19.0733414,3.33334005 C19.0733414,3.14916994 18.9264102,3 18.745004,3 C18.5635978,3 18.4166665,3.14916994 18.4166665,3.33334005 C18.4166665,3.92417862 18.3493578,4.50669702 18.2286935,5.07754585 C17.8757281,4.24836648 17.0630902,3.6666801 16.1182978,3.6666801 C15.9368916,3.6666801 15.7899603,3.81585003 15.7899603,4.00002014 L15.7899603,4.66670024 C15.7899603,4.81837049 15.8055564,4.96754897 15.8326431,5.1117012 C15.6126518,5.04003256 15.3770683,5.00003175 15.1332895,5.00003175 C14.9518833,5.00003175 14.8049521,5.14920169 14.8049521,5.3333718 L14.8049521,6.0000519 C14.8049521,6.15172215 14.8205481,6.30090062 14.8476349,6.44505286 C14.6276435,6.37338422 14.3920601,6.33338341 14.1482813,6.33338341 C13.9668751,6.33338341 13.8199438,6.48255335 13.8199438,6.66672346 L13.8199438,7.33340356 C13.8199438,7.70258432 13.9069527,8.05092201 14.0579859,8.36175494 C13.7033814,8.13425169 13.2847485,8.00008365 12.8349314,8.00008365 L11.5215814,8.00008365 C11.0717643,8.00008365 10.6531314,8.13425382 10.2985269,8.36175494 C10.4495622,8.05092201 10.536569,7.70258432 10.536569,7.33340356 L10.536569,6.66672346 C10.536569,6.48255335 10.3896377,6.33338341 10.2082315,6.33338341 C9.96443172,6.33338341 9.72886927,6.37338422 9.5088779,6.44505286 C9.53596653,6.30088356 9.55156073,6.15171362 9.55156073,6.0000519 L9.55156073,5.3333718 C9.55156073,5.14920169 9.40462944,5.00003175 9.22322324,5.00003175 C8.97942347,5.00003175 8.74386102,5.04003256 8.52386966,5.1117012 C8.55095829,4.9675319 8.56655248,4.81836196 8.56655248,4.66670024 L8.56655248,4.00002014 C8.56655248,3.81585003 8.41962119,3.6666801 8.23821499,3.6666801 C7.29342257,3.6666801 6.48078467,4.24836648 6.12781925,5.07754585 C6.00715496,4.50669702 5.9398463,3.92419995 5.9398463,3.33334005 C5.9398463,3.14916994 5.79291502,3 5.61150882,3 C5.43010262,3 5.28317134,3.14916994 5.28317134,3.33334005 C5.28317134,4.09002729 5.37756863,4.83504496 5.56061388,5.56079825 C5.35868581,5.38329494 5.15757306,5.20411906 4.94743707,5.03411031 L4.1750192,4.406599 C4.03383513,4.29159722 3.82699197,4.3157641 3.71370766,4.45826724 C3.60043175,4.60243654 3.62341432,4.81159702 3.76460049,4.92660734 L4.53783789,5.55495066 C4.84976376,5.8082891 5.15183424,6.07163307 5.44568841,6.34163318 C4.25545715,6.42830159 3.31322839,7.43665257 3.31322839,8.66658668 C3.31322839,8.85075679 3.46015967,8.99992672 3.64156587,8.99992672 L4.29824084,8.99992672 C4.3762202,8.99992672 4.45256051,8.99576003 4.52890711,8.98825972 C4.38279746,9.29493256 4.29824084,9.63661411 4.29824084,9.99994943 C4.29824084,10.1841195 4.44517213,10.3332895 4.62657832,10.3332895 L5.28325329,10.3332895 C5.36123265,10.3332895 5.43757296,10.3291228 5.51391957,10.3216225 C5.36780991,10.6282953 5.28325329,10.9699769 5.28325329,11.3333122 C5.28325329,11.5174823 5.43018458,11.6666522 5.61159077,11.6666522 L6.26826574,11.6666522 C6.34624511,11.6666522 6.42258541,11.6624855 6.49893202,11.6549852 C6.35282236,11.9616581 6.26826574,12.3033396 6.26826574,12.6666749 C6.26826574,12.850845 6.41519703,13.000015 6.59660322,13.000015 L7.25327819,13.000015 C7.40677623,13.000015 7.55616821,12.9841813 7.70145623,12.9550135 C7.42073556,13.341688 7.25327819,13.8175376 7.25327819,14.3333666 C7.25327819,14.5175367 7.40020948,14.6667067 7.58161568,14.6667067 L8.23829064,14.6667067 C9.16255278,14.6667067 9.95959859,14.1083594 10.3240584,13.3075113 C11.2138583,15.4517678 11.7277038,17.7634944 11.8270141,20.1509558 C10.2000992,17.1350017 7.51838576,14.8132483 4.28670437,13.6716786 L2.43652003,13.0183321 C2.28630641,12.9649977 2.12213557,13.0283321 2.04333458,13.1683341 C1.96453358,13.3075028 1.99572617,13.4841805 2.11639045,13.5883532 L4.21859089,15.3942136 C5.63127211,16.6075714 6.85516715,18.0242399 7.85583474,19.6042184 C8.80472481,21.104238 10.4209648,22 12.178332,22 C13.9356993,22 15.5520654,21.1041526 16.5016699,19.6042184 C17.5022744,18.0241972 18.7261695,16.6074647 20.1389137,15.3942136 L22.2411142,13.5883532 C22.3617785,13.4841847 22.3921494,13.3075156 22.3141701,13.1683341 L22.314023,13.1682637 Z M9.74767854,10.6664533 L10.2081727,10.6664533 C10.2385436,10.6664533 10.268095,10.6631199 10.298466,10.6614531 C10.1909352,10.8164557 10.1031047,10.9847876 10.0349765,11.1648019 C9.94304197,10.9964657 9.8437191,10.8322939 9.74767854,10.6664665 L9.74767854,10.6664533 Z M9.03437403,9.51893153 C9.18458764,9.46226478 9.3282282,9.39059614 9.46204279,9.30476188 C9.37503389,9.48393135 9.30772313,9.67477466 9.26832263,9.87561071 C9.19198443,9.75644244 9.11318343,9.63726991 9.03437403,9.51893153 L9.03437403,9.51893153 Z M6.94286951,6.89637203 C6.95107784,6.89387193 6.95928617,6.89053853 6.96831488,6.88803842 C6.9666733,6.89803884 6.9650315,6.90887234 6.96338992,6.91887211 C6.95600238,6.91137201 6.94943563,6.9038717 6.94286888,6.89637139 L6.94286951,6.89637203 Z M6.75489656,7.66639288 L6.59647294,7.66639288 C6.51849358,7.66639288 6.44215327,7.67055957 6.36580666,7.67805988 C6.41177391,7.5813902 6.4536372,7.48138819 6.48647095,7.37721116 C6.57676429,7.47304669 6.66705762,7.56888222 6.75487765,7.66639032 L6.75489656,7.66639288 Z M7.51254187,8.55641358 C7.62910221,8.70225161 7.74238862,8.85141941 7.85483239,8.99975307 L7.58148749,8.99975307 C7.50350813,8.99975307 7.42716782,9.00391976 7.35082122,9.01142008 C7.41977104,8.86725077 7.4739483,8.71475277 7.51252716,8.55641358 L7.51254187,8.55641358 Z M8.49509573,9.8997793 C8.59113419,10.0431192 8.68717264,10.186465 8.77911554,10.3331133 L8.56652096,10.3331133 C8.48854159,10.3331133 8.41220129,10.33728 8.33585468,10.3447803 C8.40316334,10.2039433 8.45651897,10.0547691 8.49509784,9.8997793 L8.49509573,9.8997793 Z M16.0204879,10.3447854 C15.9441476,10.3372825 15.8678094,10.3331158 15.7898195,10.3331158 L15.5772249,10.3331158 C15.6691594,10.1872803 15.7651979,10.0439367 15.8612447,9.89978442 C15.8998236,10.054787 15.9531792,10.2039612 16.0204879,10.3447854 L16.0204879,10.3447854 Z M17.0054982,9.0114252 C16.92916,9.00392232 16.8528218,8.99975563 16.774832,8.99975563 L16.5014871,8.99975563 C16.6139434,8.85058569 16.7263956,8.7022563 16.8437776,8.5564187 C16.8823565,8.71475575 16.9365337,8.86725162 17.0054835,9.0114252 L17.0054982,9.0114252 Z M17.8698506,7.37721372 C17.9026844,7.48138222 17.943726,7.58055008 17.9905149,7.67806244 C17.9141767,7.67056213 17.8378385,7.66639544 17.7598486,7.66639544 L17.601425,7.66639544 C17.6892555,7.56889374 17.7795489,7.47305821 17.8698317,7.37721372 L17.8698506,7.37721372 Z M17.392947,6.91887915 C17.3913054,6.90887895 17.3904846,6.89804545 17.388022,6.88804546 C17.3962304,6.89054557 17.4044389,6.89387897 17.4134674,6.89637907 C17.4069006,6.90387917 17.4003339,6.91137948 17.3929464,6.91887979 L17.392947,6.91887915 Z M15.0879653,9.87552537 C15.0485648,9.6746872 14.9812562,9.48385882 14.8942451,9.30467654 C15.0280429,9.39051081 15.1708682,9.46217945 15.3219139,9.51884619 C15.2431129,9.63718244 15.1643119,9.75635497 15.0879695,9.87552537 L15.0879653,9.87552537 Z M13.6523162,12.5364937 C13.7590254,12.2673176 13.8197694,11.9739783 13.8197694,11.6664735 C13.8197694,11.4823033 13.6728381,11.3331334 13.4914319,11.3331334 L12.8347569,11.3331334 C12.804386,11.3331334 12.7748346,11.3364668 12.7444636,11.3381336 C12.931617,11.0681335 13.0629457,10.7564472 13.123696,10.4189471 C13.4323438,10.575618 13.7795515,10.6664614 14.148109,10.6664614 L14.608601,10.6664614 C14.2580942,11.273151 13.9387925,11.8964809 13.6523141,12.5364937 L13.6523162,12.5364937 Z M12.1780862,10.3331346 L12.4735794,10.3331346 C12.320903,11.0931499 11.6576634,11.6664948 10.8647362,11.6664948 L10.569243,11.6664948 C10.7219194,10.9064795 11.385159,10.3331346 12.1780862,10.3331346 Z M12.8347611,11.9998348 L13.1302544,11.9998348 C12.977578,12.7598501 12.3143384,13.333195 11.5214112,13.333195 L11.225918,13.333195 C11.3785944,12.5731797 12.041834,11.9998348 12.8347611,11.9998348 Z M12.1780862,9.66634783 C12.1477152,9.66634783 12.1181638,9.66968123 12.0877928,9.67134804 C12.119805,9.62551458 12.1493564,9.57717867 12.1780862,9.5288449 C12.2059943,9.5755125 12.2339025,9.62218011 12.2650951,9.6663474 L12.1780862,9.66634783 Z M10.8647362,12.3330682 C10.8951072,12.3330682 10.9246586,12.3297348 10.9550296,12.328068 C10.8811542,12.4347368 10.8171278,12.5480618 10.7613094,12.6664002 C10.7120598,12.5547307 10.665271,12.443057 10.6143781,12.3330601 L10.8647362,12.3330682 Z M11.5214112,13.9997685 C12.4399366,13.9997685 13.2320443,13.4489307 13.5997822,12.6564027 C12.9463854,14.1414246 12.4662036,15.7064908 12.1780862,17.3248701 C11.9753386,16.1873538 11.6790132,15.0756515 11.2940441,13.9997898 L11.5214112,13.9997685 Z M14.9312879,11.4230765 C15.0076261,11.6480837 15.1167981,11.8564079 15.2530481,12.0447637 C15.107758,12.0155962 14.9583744,11.9997623 14.8048701,11.9997623 L14.6365974,11.9997623 C14.734277,11.8072592 14.8278548,11.6130878 14.9312711,11.4230893 L14.9312879,11.4230765 Z M16.11822,13.9997685 C15.3252929,13.9997685 14.6620407,13.4264236 14.5093769,12.6664083 L14.8048701,12.6664083 C15.5977972,12.6664083 16.2610495,13.2397531 16.4137133,13.9997685 L16.11822,13.9997685 Z M17.1032325,12.3330682 C16.3103053,12.3330682 15.6470531,11.7597233 15.4943893,10.999708 L15.7898826,10.999708 C16.5828097,10.999708 17.2460619,11.5730529 17.3987257,12.3330682 L17.1032325,12.3330682 Z M18.0882449,10.999708 C17.2953178,10.999708 16.6320656,10.4263631 16.4794018,9.66634783 L16.774895,9.66634783 C17.5678222,9.66634783 18.2310744,10.2396927 18.3837382,10.999708 L18.0882449,10.999708 Z M19.0732574,9.66634783 C18.2803303,9.66634783 17.617078,9.09300295 17.4644142,8.33298764 L17.7599075,8.33298764 C18.5528346,8.33298764 19.2160868,8.90633252 19.3687506,9.66634783 L19.0732574,9.66634783 Z M20.3537841,8.33298764 L20.0582909,8.33298764 C19.2653637,8.33298764 18.6021115,7.75964275 18.4494477,6.99962745 L18.7449409,6.99962745 C19.5378681,6.99962745 20.2011203,7.57297233 20.3537841,8.33298764 Z M16.4465155,4.36618773 C17.195125,4.52119032 17.7598654,5.19453508 17.7598654,5.9995433 L17.7598654,6.29953868 C17.011256,6.14453609 16.4465155,5.47119132 16.4465155,4.66618311 L16.4465155,4.36618773 Z M15.4614938,5.69954792 C16.2101125,5.85455051 16.774853,6.52789528 16.774853,7.33290349 L16.774853,7.60456763 C16.7682862,7.61206773 16.7625403,7.61956783 16.7559735,7.62790037 C16.0172194,7.46456481 15.4614938,6.79788898 15.4614938,5.9995369 L15.4614938,5.69954792 Z M14.4764864,7.03290812 C15.2251001,7.1879107 15.7898405,7.86125547 15.7898405,8.66626368 L15.7898405,8.85209996 C15.7668559,8.8837678 15.7430517,8.91376734 15.7208907,8.94543517 C15.0075841,8.76376538 14.4764864,8.11209572 14.4764864,7.33290136 L14.4764864,7.03290812 Z M12.8348032,8.66626368 C13.6277303,8.66626368 14.2909825,9.23960857 14.4436463,9.99962387 L14.1481531,9.99962387 C13.355226,9.99962387 12.6919737,9.42627899 12.5393099,8.66626368 L12.8348032,8.66626368 Z M11.8169465,8.66626368 C11.6642701,9.42627899 11.0010305,9.99962387 10.2081033,9.99962387 L9.91261008,9.99962387 C10.0652865,9.23960857 10.7285261,8.66626368 11.5214532,8.66626368 L11.8169465,8.66626368 Z M9.87974481,7.33290349 C9.87974481,8.11207652 9.34866812,8.76375898 8.63534049,8.94543731 C8.61235582,8.91376947 8.58937325,8.88293578 8.56639067,8.85210209 L8.56639067,8.66626582 C8.56639067,7.8612576 9.13113114,7.18790004 9.87974481,7.03291025 L9.87974481,7.33290349 Z M8.89473236,5.9995433 C8.89473236,6.79789538 8.33902773,7.46457548 7.60025264,7.62707475 C7.59368589,7.61957465 7.58793993,7.61207456 7.58137318,7.60373988 L7.58137318,7.33290776 C7.58137318,6.52789954 8.14611365,5.85454198 8.89473236,5.69955219 L8.89473236,5.9995433 Z M6.59626491,5.9995433 C6.59626491,5.19453508 7.16100538,4.52117752 7.90961484,4.36618773 L7.90961484,4.66618311 C7.90961484,5.47119132 7.34487437,6.14454889 6.59626491,6.29953868 L6.59626491,5.9995433 Z M4.00234625,8.3330303 C4.15502265,7.57301499 4.81826227,6.99967011 5.61118941,6.99967011 L5.90668264,6.99967011 C5.75400624,7.75968542 5.09076662,8.3330303 4.29783948,8.3330303 L4.00234625,8.3330303 Z M4.9873587,9.6663905 C5.14003511,8.90637519 5.80327472,8.3330303 6.59620186,8.3330303 L6.89169509,8.3330303 C6.73901869,9.09304561 6.07577907,9.6663905 5.28285193,9.6663905 L4.9873587,9.6663905 Z M5.97237115,10.9997507 C6.12504756,10.2397354 6.78828717,9.6663905 7.58121432,9.6663905 L7.87670754,9.6663905 C7.72403114,10.4264058 7.06079152,10.9997507 6.26786438,10.9997507 L5.97237115,10.9997507 Z M6.9573836,12.3331109 C7.11006001,11.5730956 7.77329962,10.9997507 8.56622677,10.9997507 L8.86172,10.9997507 C8.70904359,11.759766 8.04580398,12.3331109 7.25287683,12.3331109 L6.9573836,12.3331109 Z M8.2379103,13.9998111 L7.94241707,13.9998111 C8.09509347,13.2397958 8.75833309,12.6664509 9.55126023,12.6664509 L9.84675346,12.6664509 C9.69407706,13.4264662 9.03083744,13.9998111 8.2379103,13.9998111 Z M9.55126023,11.9997708 C9.3977622,11.9997708 9.24837022,12.0156045 9.10308219,12.0447723 C9.23934277,11.8564357 9.34852103,11.6480923 9.42484242,11.4230851 C9.52826925,11.6122558 9.62266654,11.8064315 9.71951612,11.999758 L9.55126023,11.9997708 Z M8.40700673,19.2432234 C7.37109934,17.6073505 6.10370615,16.1406542 4.64179007,14.8847356 L3.88826342,14.2380666 L4.07049125,14.3022343 C7.4391813,15.4922529 10.1808256,18.0290293 11.6641755,21.3048287 C10.3344139,21.1498261 9.14254363,20.4039679 8.40706767,19.2431125 L8.40700673,19.2432234 Z" id="Shape" fill="#000000" fill-rule="nonzero"></path>
    </g>
</svg>