<?xml version="1.0" encoding="UTF-8"?>
<svg width="24px" height="24px" viewBox="0 0 24 24" version="1.1" xmlns="http://www.w3.org/2000/svg" xmlns:xlink="http://www.w3.org/1999/xlink">
    <!-- Generator: Sketch 57.1 (83088) - https://sketch.com -->
    <title>crops-peach&amp;nacarine</title>
    <desc>Created with Sketch.</desc>
    <g id="crops-peach&amp;nacarine" stroke="none" stroke-width="1" fill="none" fill-rule="evenodd">
        <path d="M18.9996989,13.1199587 C19.0004541,12.0600884 18.6953423,11.0222342 18.1228611,10.1319029 C17.6576451,9.38167187 16.9741477,8.79192912 16.1652884,8.44370377 C15.5331616,8.16964685 14.8375804,8.07578802 14.1555137,8.17268956 C13.7839326,8.23401079 13.4244546,8.35362216 13.0906329,8.52773678 C11.855071,7.96070776 10.4594618,7.84640271 9.14822647,8.20522909 C7.83714579,8.56407486 6.6929953,9.37182667 5.91499308,10.4899735 C4.99210148,11.9578767 4.75344195,13.7565242 5.26246885,15.4152847 C5.84626053,17.1330194 7.04559039,18.5721429 8.62852717,19.4533655 C9.8429376,20.2550706 11.21755,20.7812266 12.6561967,20.9947006 C12.6803643,20.9984858 12.7052878,21 12.7294554,21 C12.7876083,21 12.8450073,20.9901585 12.8993843,20.9697183 C13.8849762,20.5949807 14.8101299,20.0764024 15.6446262,19.4306506 C16.6347423,18.7038891 17.4587016,17.7734793 18.0613826,16.7015157 C18.6912474,15.6151526 19.0160014,14.3766541 18.9993935,13.120035 L18.9996989,13.1199587 Z M17.1888038,16.240907 C16.651865,17.1910516 15.9174334,18.0137483 15.0366269,18.6539603 C14.3164598,19.2112211 13.5227016,19.6644312 12.6772104,20 C11.4231228,19.7994077 10.2260934,19.3333989 9.16490386,18.6328605 C7.78839497,17.878791 6.74089327,16.637555 6.22414012,15.1513073 C5.79608857,13.7728554 5.98683354,12.2753339 6.74756416,11.0491167 C7.60589729,9.85013809 8.95318502,9.09975574 10.4211638,9.00555014 C10.4834933,9.00555014 10.5691017,9.00102576 10.672735,9.00102576 L10.6719841,9.00027173 C11.4349639,8.99197681 12.1881586,9.17371042 12.8639556,9.52888484 C12.8767217,9.5356715 12.8902392,9.54245816 12.9037559,9.54773677 C13.1898734,9.70986306 13.4549593,9.90743614 13.6930156,10.1351705 C14.4830251,10.9186599 14.938856,11.9804033 14.9628865,13.0956973 C14.9816603,13.3588745 15.2046916,13.5602004 15.468278,13.550413 C15.7326142,13.5360855 15.9353744,13.3091077 15.9211099,13.042919 C15.8873171,11.6825553 15.3255942,10.3893325 14.3568743,9.43762432 C14.2720156,9.35693761 14.1811513,9.2770057 14.0895391,9.19631899 C14.1541217,9.17972915 14.2224588,9.16540102 14.2930491,9.15333576 L14.2930491,9.15408979 C14.7969411,9.08546834 15.3105991,9.15786013 15.7761768,9.36371655 C16.4047201,9.63820619 16.9333924,10.1019564 17.287103,10.6908959 C17.7571984,11.42763 18.0050208,12.2857696 17.9997533,13.1605111 C18.0095156,14.2418678 17.7294191,15.305812 17.1887123,16.2409184 L17.1888038,16.240907 Z M13.9786948,7.99255926 L14.0105096,7.99255926 C14.8680162,7.90545398 15.6604232,7.47840507 16.2256355,6.80006885 C16.7383627,6.15334556 17.0128527,5.33701355 16.9995374,4.49836304 C16.9995374,4.23241578 16.7982914,4.01428258 16.543784,4.00502761 C15.5812128,3.95261171 14.6408024,4.31182305 13.9394248,4.99941424 C13.2794518,5.69239266 12.6476058,7.05524167 13.229145,7.70348443 L13.229145,7.70425521 C13.4266975,7.90930515 13.6997101,8.01643788 13.9786323,7.99794766 L13.9786948,7.99255926 Z M14.6470745,5.6774716 C15.0161159,5.2962963 15.4919421,5.05864691 16,5 C15.9369399,5.42052346 15.7699751,5.81481481 15.5155885,6.14042469 C15.1264779,6.61882469 14.5868853,6.92592593 14,7 C14.0831237,6.49767901 14.3088523,6.0354963 14.6470745,5.6774716 L14.6470745,5.6774716 Z M10.0523372,4.2846901 C10.1757002,4.03377997 10.4817165,3.92930669 10.7356364,4.05041546 C11.2563342,4.30053535 11.7161257,4.65749923 12.085419,5.09757975 C12.6373493,5.77193491 12.9569742,6.60302025 12.999424,7.46889625 C13.0058325,7.60345118 12.9585696,7.73484112 12.8672491,7.83457299 C12.7759286,7.93430282 12.6477608,7.99366577 12.5123724,8 L12.4875402,8 C12.2135848,8.00078924 11.9884775,7.78866026 11.9748607,7.5187642 C11.9436201,6.86973713 11.7041044,6.24682837 11.2907617,5.74184717 C11.017606,5.41416256 10.6755463,5.14821768 10.2886373,4.96220823 C10.1660741,4.90363755 10.0723481,4.79915819 10.0282986,4.67172551 C9.98343919,4.54508509 9.99225113,4.40578063 10.052331,4.28467187 L10.0523372,4.2846901 Z" id="apricot" fill="#000000"></path>
    </g>
</svg>