<?xml version="1.0" encoding="UTF-8"?>
<svg width="24px" height="24px" viewBox="0 0 24 24" version="1.1" xmlns="http://www.w3.org/2000/svg" xmlns:xlink="http://www.w3.org/1999/xlink">
    <!-- Generator: Sketch 57.1 (83088) - https://sketch.com -->
    <title>crops-afghanmulberry</title>
    <desc>Created with Sketch.</desc>
    <g id="crops-afghanmulberry" stroke="none" stroke-width="1" fill="none" fill-rule="evenodd">
        <path d="M13.8145953,5.07729125 C13.8558813,5.12639603 13.897838,5.17482324 13.9465763,5.23185973 C13.9802609,5.21683334 14.0139082,5.20483615 14.04491,5.18745816 C14.6168027,4.86652329 15.2723107,4.94811217 15.7604019,5.40161403 C16.3499194,5.94937954 16.5535174,6.84645866 16.2589263,7.63321144 C16.2162989,7.74716484 16.2262851,7.81946686 16.2992435,7.91560383 C16.6539378,8.38285662 16.7629655,8.91440002 16.6476778,9.50465393 C16.6330339,9.57958656 16.6573658,9.69074992 16.7037567,9.74770669 C17.1984431,10.3547806 17.3129484,11.0324825 17.0656797,11.7889832 C17.046788,11.8466973 17.0461545,11.9411602 17.0779388,11.9833297 C17.4514502,12.4792403 17.5604034,13.0330243 17.4118037,13.6347573 C17.8988143,13.9249219 18.1508525,14.3539112 18.2244816,14.9015173 C18.2758655,15.2837136 18.2207927,15.6545504 18.0417875,16.0000377 C18.0157415,16.0503382 18.0157415,16.1464353 18.0439487,16.1940654 C18.5077452,16.9766729 18.3166299,18.0957998 17.5539199,18.5505372 C17.5174779,18.5722597 17.4989216,18.6836224 17.5141989,18.7402204 C17.6061608,19.0804464 17.6205811,19.4187593 17.5326434,19.7614565 C17.2914111,20.7018212 16.3963103,21.1389415 15.5753975,20.7166882 C15.5481219,20.7026582 15.5201011,20.6902226 15.480641,20.6714097 C15.266796,21.011835 15.0044363,21.2880495 14.6234353,21.3927559 C14.251787,21.4948715 13.8975399,21.4301026 13.5513041,21.2336835 C13.5242893,21.2676821 13.4944427,21.2990901 13.4713032,21.3353607 C12.9398394,22.1679499 11.8651371,22.2283344 11.250207,21.4597967 C11.0523101,21.2124393 10.9286012,20.9281736 10.8598533,20.6112245 C10.8481159,20.556978 10.7769833,20.484676 10.7264564,20.4777407 C9.81548209,20.3525474 9.19995587,19.4666684 9.36047932,18.4921854 C9.38507205,18.3429977 9.35772195,18.2415198 9.25674272,18.1250952 C8.88904414,17.7011679 8.73865587,17.1961299 8.84038035,16.6205835 C8.86340809,16.4902486 8.8262209,16.4233672 8.72833438,16.3443292 C8.21822154,15.9323592 7.97997016,15.3847531 8.05889046,14.6972063 C8.07450312,14.5611717 8.05289133,14.4736042 7.94554034,14.3759526 C7.39783043,13.8778499 7.19143781,13.2402449 7.33303232,12.4854182 C7.35591101,12.3633338 7.33396386,12.2925066 7.25992484,12.2059355 C6.87549576,11.7566585 6.72365428,11.2277059 6.82373924,10.6259729 C6.84330164,10.5083925 6.79385535,10.4614002 6.72138132,10.4005772 C6.12105788,9.89625665 5.86678396,9.07267528 6.06777363,8.29756097 C6.25508826,7.57521837 6.76035707,7.15918283 7.56289982,7.07791281 C7.59423692,6.95152378 7.62259308,6.81768134 7.66060003,6.68706739 C7.93026304,5.76029422 8.94683706,5.27036235 9.68912762,5.73135747 C9.98379324,5.91438441 10.171406,6.18254757 10.2961582,6.51025826 C10.3589069,6.67503034 10.3044675,6.82645005 10.1673444,6.89440757 C10.0304822,6.96220566 9.89745785,6.90182112 9.80944569,6.74677435 C9.72679921,6.60105429 9.65536851,6.43528577 9.53952185,6.32643417 C9.23881983,6.0439222 8.77409176,6.06919203 8.4737251,6.37836886 C8.36067307,6.49471373 8.26763057,6.64545586 8.20048497,6.79811117 C8.05460537,7.12968807 8.09257505,7.15974084 8.34457601,7.39083626 C8.5546948,7.58354864 8.72662034,7.64034598 9.00735008,7.53504172 C9.43224538,7.37565045 9.85229666,7.49741597 10.2428739,7.7781742 C10.710173,7.20250824 11.2831091,7.02035817 11.9263953,7.2737341 C12.1209387,7.04542871 12.2741589,6.79990477 12.4840168,6.63875975 C12.6772933,6.49040909 12.9271331,6.41746934 13.1608386,6.34253671 C13.2564521,6.31188608 13.3096246,6.28577923 13.3384279,6.18286643 C13.3720007,6.06285465 13.4043439,5.93311756 13.4723465,5.83562543 C13.5835727,5.67627401 13.5262642,5.568937 13.4175718,5.46040426 C13.1681791,5.21141269 12.8922934,5.03647688 12.5314137,5.10877889 C12.1426623,5.186661 11.9458087,5.47694524 11.8245963,5.84694504 C11.8001899,5.92151895 11.7973208,6.00390499 11.7753736,6.07963477 C11.7279767,6.24333069 11.620812,6.31455655 11.4620771,6.28829027 C11.3210043,6.26493361 11.2259869,6.13121075 11.2552001,5.96647853 C11.2907478,5.76599388 11.3477582,5.56989359 11.4055884,5.32990988 C11.2492382,5.26888761 11.0807035,5.19499128 10.9073248,5.13799465 C10.7658048,5.09152047 10.6769356,5.00777927 10.675855,4.84531895 C10.6746254,4.66109628 10.8213993,4.52976488 11.0112477,4.5826163 C11.2310545,4.64383786 11.4389749,4.7526496 11.6551301,4.83112958 C11.7089732,4.85065989 11.7975071,4.86054462 11.8314152,4.82833953 C12.3194691,4.36483337 13.249596,4.40512959 13.8145953,5.07729125 Z M11.8810478,19.9545675 C11.7796214,20.047476 11.6987635,20.1296627 11.6103042,20.2011277 C11.3561793,20.406475 11.3434358,20.4435428 11.4665485,20.7597744 C11.4972149,20.8385733 11.5356318,20.9157379 11.5810165,20.9859275 C11.9019889,21.4822366 12.5100628,21.5794896 12.884543,21.1970143 C13.116199,20.9603388 13.1291661,20.8716154 12.9773246,20.5728813 C12.9537007,20.5264071 12.9397276,20.4721208 12.9086886,20.4328609 C12.8806305,20.3973476 12.8366617,20.3569717 12.7973133,20.3539425 C12.4529033,20.3273573 12.1463512,20.2039975 11.8810478,19.9545675 Z M14.1494663,19.3068785 C14.0131257,19.7180514 13.7647391,20.0035128 13.4092624,20.2151975 C13.4436922,20.2848689 13.4664964,20.3388364 13.4955605,20.3886187 C13.718013,20.76942 14.1312453,20.9518491 14.5035644,20.8351853 C14.8631399,20.7225472 15.1324303,20.304758 15.1151408,19.8681957 C15.1126443,19.8054994 15.0605524,19.694057 15.0261599,19.6916655 C14.6985549,19.6687872 14.4122732,19.5441519 14.1494663,19.3068785 Z M13.8473111,6.42241171 C13.9268648,6.46780972 14.0108155,6.51013869 14.0892887,6.56195381 C14.1682462,6.61412764 14.2452662,6.67112427 14.316995,6.73398 C14.5238347,6.9152532 14.5704491,7.08987014 14.4571735,7.23786209 C14.3387931,7.39255015 14.1896717,7.37425542 13.978137,7.17915158 C13.9593198,7.16181344 13.9405772,7.14431587 13.9208657,7.12821333 C13.4406368,6.73621203 12.7878488,6.87208722 12.5124848,7.41953387 C12.463113,7.51770359 12.4331173,7.59678143 12.5193037,7.70328142 C12.609328,7.8145245 12.5968453,7.95617906 12.4979155,8.0647118 C12.3928747,8.17986094 12.268197,8.18799192 12.144898,8.09193467 C12.0798018,8.04119571 12.022307,7.97921686 11.9569499,7.92891633 C11.5010529,7.5782077 10.9123551,7.71181099 10.6204468,8.22525895 C10.4351071,8.5512159 10.4067509,8.89471027 10.4847397,9.26012643 C10.5254295,9.45076621 10.441218,9.59517095 10.290867,9.6281732 C10.1350013,9.66241103 9.9850974,9.5720933 9.97060259,9.38276883 C9.94709045,9.07554504 9.95730016,8.7647739 9.96408179,8.45579637 C9.96613119,8.36221029 9.99135737,8.28632107 9.89522215,8.2168091 C9.5250643,7.9492438 9.00913864,7.98212647 8.72628499,8.34770206 C8.58647904,8.52837739 8.50785683,8.7701547 8.42830308,8.99511203 C8.36130652,9.18439664 8.24944686,9.2861137 8.08568164,9.24175199 C7.93384016,9.20061876 7.84668502,9.05298553 7.90242854,8.86995859 C7.9766166,8.62650725 8.08322236,8.39461467 8.1654217,8.15367437 C8.18550576,8.09480443 8.19113228,7.99396424 8.15878911,7.95665735 C7.80379679,7.5469592 7.12794386,7.57689239 6.8010096,8.0083529 C6.25896347,8.7238001 6.58437,9.87066795 7.40971692,10.1350048 C7.62158701,10.2028826 7.83461222,10.1837907 8.03344072,10.0540138 C7.99912268,9.93962191 7.96499095,9.84025646 7.93969025,9.73837997 C7.89780808,9.56986126 7.96253168,9.45291853 8.10874664,9.38914607 C8.24154738,9.331153 8.37662108,9.40002725 8.44261157,9.55395801 C8.46053446,9.59588839 8.47055786,9.64168499 8.48512719,9.68532926 C8.6886134,10.2953526 9.13605203,10.5938476 9.73503405,10.5198715 C9.76577496,10.516085 9.7970748,10.5139726 9.82796476,10.5153277 C9.96423084,10.5213861 10.0494484,10.5971956 10.0729978,10.7398865 C10.097516,10.8881973 10.0479206,11.004861 9.9121017,11.0593068 C9.84354015,11.0867688 9.76782436,11.0992044 9.694307,11.1064585 C9.20964391,11.1540886 8.78892192,11.0021507 8.43392959,10.6421951 C8.39938799,10.6071999 8.32941049,10.5641535 8.29982469,10.5791002 C7.9996816,10.7305996 7.68727941,10.7758382 7.3657481,10.7134209 C7.2494543,11.1376273 7.43602369,11.6606411 7.78464427,11.9421168 C8.0375395,12.1463481 8.42472595,12.2555983 8.70329451,12.0385726 C8.67881356,11.9591361 8.64840801,11.8790219 8.62966537,11.7958786 C8.5890501,11.6157214 8.65463071,11.4795274 8.80002591,11.4279514 C8.94516028,11.376495 9.08302862,11.4431372 9.13560489,11.6191093 C9.238559,11.9637994 9.42121591,12.2298501 9.71957044,12.410366 C9.86094137,12.4959008 9.89317275,12.6760182 9.80914759,12.8067517 C9.71811723,12.9484461 9.59470644,12.9765458 9.4510998,12.9009755 C9.41775057,12.8834779 9.37922196,12.86889 9.35507637,12.8410294 C9.151851,12.6067453 8.92503896,12.5172247 8.64736468,12.6941534 C8.62791407,12.7065891 8.59873815,12.7041976 8.57403363,12.7042773 L7.84836179,12.7046759 C7.74891028,13.1095911 7.9300022,13.6436057 8.29248414,13.9367597 C8.57381006,14.1642281 8.87570445,14.2368091 9.22346801,14.0664171 C9.19760838,13.9917634 9.17517683,13.9318173 9.15598705,13.8706755 C9.0848917,13.6438847 9.13534406,13.4850514 9.29676179,13.4234712 C9.4649239,13.35934 9.58572637,13.4435595 9.66311895,13.6789595 C9.8632516,14.2875879 10.2591573,14.5588201 10.8591081,14.498316 C11.0419513,14.4798618 11.1578353,14.555193 11.1852971,14.7103594 C11.2170441,14.8897593 11.1346212,15.0159889 10.9386991,15.0586766 C10.4480742,15.1654954 10.0202725,15.0215291 9.64392916,14.6760817 C9.59724024,14.6331947 9.52644299,14.5788686 9.47658682,14.5883946 C9.18914997,14.6432389 8.9046568,14.7157003 8.5928508,14.7883212 C8.50480137,15.1051507 8.67862726,15.5922926 9.00705198,15.8511689 C9.30574187,16.0865689 9.59817178,16.1196907 9.85177499,15.9435193 C9.83511901,15.8884359 9.8171216,15.8322364 9.80113633,15.7754789 C9.74237461,15.5667437 9.80557047,15.4042037 9.96486429,15.3527074 C10.1121226,15.3051571 10.2436564,15.3970293 10.3124043,15.5956406 C10.327458,15.6391255 10.3411331,15.6831284 10.3571929,15.726135 C10.519244,16.1600268 11.0238049,16.4830742 11.4042842,16.3526595 C11.5835503,16.2912386 11.7277904,16.4009671 11.7562583,16.5735115 C11.7847636,16.746295 11.6874732,16.8856776 11.4980347,16.9176436 C11.0454912,16.9939712 10.6365812,16.89062 10.2808809,16.5684097 C10.2328133,16.5248451 10.154042,16.4875781 10.0953548,16.4957489 C9.89484953,16.5236494 9.6952758,16.5658986 9.49920467,16.6189493 C9.44521245,16.6335771 9.37020463,16.6996613 9.36334847,16.751038 C9.3102878,17.1500144 9.41197501,17.5028355 9.68864322,17.7828763 C9.9712733,18.0689356 10.3026417,18.1317515 10.6223472,17.9647872 C10.596972,17.870683 10.5686903,17.7898514 10.5540465,17.7062298 C10.5250196,17.5401424 10.5794962,17.414431 10.737933,17.3679169 C10.8940223,17.3220805 11.0170232,17.3916323 11.0620354,17.5519802 C11.1565311,17.888619 11.3391507,18.1352988 11.6277427,18.3061293 C11.767027,18.3886349 11.7909863,18.5425258 11.7132211,18.6874886 C11.6348224,18.8336072 11.5045927,18.8804002 11.3623648,18.7945067 C11.2443942,18.7233207 11.1400242,18.6267852 11.0255934,18.5481856 C10.9834504,18.519209 10.9164911,18.4789925 10.8834027,18.4955335 C10.5649269,18.6548849 10.2371356,18.6597077 9.88791885,18.5664405 C9.83549162,19.0092206 9.9402343,19.372604 10.242464,19.658743 C10.6372146,20.0325293 11.0909505,19.9504621 11.3883735,19.664921 C11.4790312,19.5779114 11.5396933,19.4876734 11.4783978,19.335616 C11.4219463,19.1955557 11.4936751,19.077776 11.6179056,19.0081046 C11.7408693,18.9391506 11.8499716,18.9776532 11.9348537,19.0827582 C11.9826605,19.1419869 12.0114266,19.2185537 12.0502533,19.2863518 C12.2598876,19.6519672 12.6687604,19.8466725 13.0211444,19.7492999 C13.3965562,19.64559 13.6746031,19.266662 13.6905883,18.8454051 C13.695246,18.723241 13.6738578,18.6524536 13.5400138,18.6269844 C13.4084054,18.601874 13.2795171,18.5407721 13.1589382,18.4753654 C13.072193,18.4282934 13.0272553,18.4434394 12.950608,18.5059364 C12.7801729,18.6450799 12.5998262,18.7766504 12.4080402,18.87765 C12.2337299,18.9694027 12.0732065,18.8948287 12.0191397,18.7409378 C11.9583659,18.5678355 12.0373234,18.4292101 12.2257559,18.3385337 C12.3421988,18.2824936 12.4513756,18.2059667 12.5564163,18.1273273 C12.6439068,18.0618808 12.6573956,17.9855133 12.5887968,17.8756254 C12.5143106,17.7563709 12.464529,17.6164302 12.4200385,17.4795187 C12.3569544,17.2854512 12.4237274,17.1355859 12.582276,17.0792669 C12.7285655,17.0272923 12.8577145,17.1097979 12.9278411,17.2929444 C12.9722571,17.4089306 13.0088481,17.5334065 13.0759191,17.6334096 C13.2830943,17.9424669 13.5559245,18.1360163 13.9289515,18.0898211 C14.2882289,18.0453398 14.5275609,17.8154003 14.6180323,17.4554845 C14.6719873,17.240651 14.6532819,17.0013449 14.6465748,16.773757 C14.6411719,16.5904909 14.7033617,16.4554527 14.8471546,16.4219323 C14.9949718,16.387535 15.1316478,16.4746243 15.1687604,16.6470889 C15.3156834,17.3292947 15.145919,18.0955208 14.453112,18.5092446 C14.4070565,18.5367464 14.3621189,18.5663608 14.3176657,18.5943409 C14.5459309,19.0599197 14.9388557,19.2132526 15.467115,19.0465673 C15.6246575,18.9968647 15.7564522,19.0168733 15.8329505,19.1783372 C15.9044184,19.3292786 15.8579903,19.4573018 15.7272762,19.5571455 C15.6191428,19.639691 15.6093802,20.0886889 15.7257113,20.1384713 C15.9098586,20.21731 16.1169592,20.3138455 16.3033796,20.2926412 C16.8387931,20.2316986 17.1644977,19.6319586 17.0298339,19.0393531 C16.9837039,18.836477 16.9181978,18.6786401 16.6848277,18.6890032 C16.6130617,18.6921918 16.5399914,18.6617404 16.4695668,18.6470728 C16.3110555,18.86645 16.195097,18.921653 16.0545459,18.8336869 C15.875168,18.7214474 15.9188387,18.557592 15.9527096,18.3783117 C15.9819228,18.2236237 15.958746,18.0576559 15.958746,17.9008952 C15.6832702,17.8623926 15.5908239,17.7945546 15.5787138,17.6291847 C15.5623186,17.4059811 15.7110301,17.3462742 15.8701749,17.2807081 C16.2360104,17.129966 16.4734048,16.6238917 16.3999619,16.1779628 C16.38815,16.1062188 16.3718666,16.0343951 16.3689602,15.9620931 C16.3622903,15.7958861 16.4494082,15.6956837 16.5937601,15.6702942 C16.7332307,15.6457418 16.8341727,15.7241421 16.881346,15.8655974 C16.9099257,15.9513713 16.9237125,16.0427652 16.9436103,16.1290972 C17.2957335,16.1281406 17.5775811,15.8489767 17.683218,15.4059176 C17.796978,14.9288598 17.5803384,14.3916964 17.2062681,14.168453 C17.0027819,14.3208691 16.8283971,14.5292456 16.6161544,14.5926594 C16.2791595,14.6934198 16.0413179,14.8383826 15.9357928,15.2176693 C15.8898118,15.3830392 15.7065587,15.4189909 15.575472,15.3439786 C15.4387961,15.2658175 15.3904676,15.0958639 15.481498,14.9320484 C15.6400838,14.6467862 15.6710483,14.3508821 15.6014807,14.0317408 C15.5615361,13.8484348 15.6551376,13.696218 15.8052277,13.6672414 C15.9651177,13.6363117 16.0847651,13.7266295 16.1305597,13.9153561 C16.1484826,13.9892922 16.1620832,14.0643843 16.1785156,14.1430636 C16.5952506,14.0775772 16.8103997,13.8043123 16.9054916,13.4191267 C16.9993911,13.0385247 16.9122359,12.6907655 16.7108364,12.4216458 C16.4270512,12.5330483 16.1783665,12.6447696 15.9210371,12.7245251 C15.8231134,12.754817 15.7817156,12.7875402 15.751869,12.8904929 C15.604946,13.3976433 15.2975369,13.750584 14.829418,13.9346871 C14.6457923,14.0068695 14.4941371,13.9452095 14.4408529,13.7894055 C14.3811224,13.6148284 14.4557948,13.4661987 14.6514188,13.3931792 C15.0772829,13.2342264 15.2498419,12.878695 15.2891158,12.4342408 C15.303387,12.2726175 15.260387,12.1058127 15.2495066,11.9408812 C15.2387752,11.7783013 15.3114728,11.668812 15.4610786,11.6396759 C15.6090821,11.6108986 15.7167684,11.6835594 15.7638672,11.8367727 C15.7943473,11.9357794 15.809103,12.0402865 15.8303421,12.139652 C16.244208,12.1471054 16.4876015,11.803053 16.5992376,11.4659359 C16.7420244,11.0347145 16.6155582,10.4527112 16.3467149,10.2197026 C16.1566802,10.353824 15.9811775,10.504327 15.7841376,10.6079174 C15.6379972,10.6847632 15.4253819,10.6530364 15.3127397,10.7569058 C15.1942475,10.8661958 15.1684623,11.0845766 15.0857413,11.245602 C14.9959034,11.4204183 14.8484588,11.4658163 14.7116338,11.3829918 C14.5755913,11.3006855 14.5292377,11.1341198 14.6203798,10.969547 C14.7882811,10.666309 14.8242759,10.3512731 14.7473305,10.0118442 C14.7065289,9.83176675 14.7996832,9.6766004 14.949289,9.64447503 C15.1024719,9.6115525 15.2313974,9.70840692 15.2755152,9.89298831 C15.2951149,9.97493591 15.3091626,10.058438 15.3266383,10.1458062 C15.7456463,10.1026402 15.9769297,9.83643011 16.0978067,9.45403454 C16.2357123,9.01783097 16.1361117,8.62160474 15.9005805,8.29532893 C15.6215648,8.41274996 15.3721721,8.55081732 15.1070923,8.61634352 C14.958269,8.65317211 14.9091954,8.70984988 14.8671269,8.84871439 C14.7120064,9.36012961 14.3912203,9.71119696 13.9212756,9.90048157 C13.7302721,9.97740709 13.5740337,9.91000758 13.5186255,9.74423906 C13.4634782,9.5792677 13.5454167,9.43346793 13.745363,9.35897373 C13.9726968,9.27427594 14.1412315,9.12321494 14.2608788,8.89833733 C14.4294881,8.58138824 14.4658928,8.25148537 14.3863763,7.89962086 C14.3409915,7.69893693 14.4197255,7.55481118 14.5814041,7.51602956 C14.7407352,7.47780595 14.8652265,7.57729097 14.9097915,7.77972865 C14.9293539,7.86845208 14.9467552,7.95773351 14.9669137,8.05546479 C15.2112015,8.03748893 15.4126383,7.94633418 15.564368,7.75557484 C16.0848024,7.10138904 15.8948422,6.08091022 15.1810195,5.6775096 C14.6173616,5.3589662 13.9364038,5.73625997 13.8473111,6.42241171 Z M17.6036643,16.5346103 C17.4061772,16.6010532 17.2286997,16.6804898 17.0438443,16.7155646 C16.9313139,16.7368885 16.8991943,16.791135 16.8552628,16.8877502 C16.7671016,17.0816185 16.6838216,17.2942598 16.5451336,17.4415741 C16.3606136,17.637515 16.4941223,17.8148423 16.5271734,17.9881838 C16.5395816,18.0533114 16.6875851,18.1145329 16.781112,18.1315921 C17.1268634,18.1948065 17.4318133,18.0320273 17.6105949,17.7062298 C17.8285014,17.3092463 17.7973506,16.9170058 17.6036643,16.5346103 Z M14.4307473,14.7790807 C14.4658017,14.9215029 14.4851119,15.0718313 14.4813561,15.2179282 C14.4779417,15.3508111 14.5255154,15.4215211 14.6533271,15.4305408 C14.7772692,15.4392265 14.9041324,15.4432352 15.0267846,15.4274971 C15.2237565,15.4021455 15.3630254,15.4689952 15.3944377,15.6251511 C15.4292644,15.7983071 15.3319924,15.9401726 15.1283435,15.9551312 C14.8740859,15.9738016 14.6173244,15.9596225 14.3162517,15.9596225 C14.2552102,16.0360858 14.1721648,16.1616564 14.0678365,16.2670719 C13.4667156,16.8744357 12.4358378,16.8009789 11.9259568,16.1179313 C11.8318716,15.9919153 11.832251,15.8631525 11.9453808,15.7492741 C12.052251,15.6417058 12.2112853,15.651505 12.3338995,15.7650864 C12.3613284,15.7904752 12.3841289,15.8205409 12.4100023,15.8475629 C12.7004145,16.1507066 13.1064604,16.2335913 13.4599627,16.0621427 C13.7752998,15.9092532 14.0001938,15.4678074 13.9454499,15.1076132 C13.9333478,15.0282547 13.9092954,14.9497127 13.9062224,14.8701686 C13.9005318,14.7225498 13.9674157,14.6186933 14.1256534,14.594715 C14.2782383,14.5715533 14.3949343,14.6338375 14.4307473,14.7790807 Z M11.9212456,13.8065491 C12.142321,14.3238141 12.731094,14.640344 13.1978524,14.4940959 C13.4720016,14.4081926 13.662524,14.2297659 13.7719396,13.9607416 C13.7969016,13.8993133 13.816194,13.8354777 13.8408411,13.773889 C13.9080889,13.6055733 14.0462069,13.5296205 14.1981839,13.5756014 C14.3455543,13.620178 14.4163063,13.7653829 14.3791783,13.9470596 C14.2525964,14.5666382 13.5872442,15.117125 12.970635,15.1124707 C12.3223704,15.1075757 11.6461515,14.6415477 11.3970037,14.0279475 C11.3068412,13.8059071 11.3522768,13.6369494 11.5204752,13.5688608 C11.6901697,13.5002104 11.8243111,13.5797742 11.9212456,13.8065491 Z M13.7027477,12.5315479 C13.7988631,12.5881155 13.9174697,13.1027399 13.8731111,13.2576989 C13.8369527,13.3841234 13.7610706,13.478152 13.7251499,13.545 C13.5531524,13.5318611 13.4835096,13.4174722 13.4514811,13.2315214 C13.4119356,13.0018912 13.2997763,12.7512487 13.4604836,12.5527608 C13.5164295,12.4836561 13.6301636,12.4888214 13.7027477,12.5315479 Z M13.415558,11.1408607 C13.452189,11.3172248 13.4699801,11.5021133 13.4702694,11.683331 C13.4704864,11.8120147 13.5102995,11.884045 13.6137557,11.8944865 C13.755904,11.9089252 13.9009452,11.9182655 14.0423703,11.9025624 C14.2338782,11.8813122 14.3588501,11.9524452 14.3840542,12.129217 C14.4105962,12.3149213 14.3287642,12.457799 14.1373648,12.4743994 C13.9192064,12.4932839 13.6962024,12.4789676 13.4784418,12.4493968 C13.3760342,12.4355292 13.3216121,12.4349174 13.261115,12.5439824 C12.852642,13.2805591 12.1663452,13.5155344 11.4617148,13.1604407 C11.3695408,13.1139841 11.3224594,13.1324607 11.2420376,13.1926219 C11.073528,13.3186136 10.8922537,13.4280866 10.7060614,13.517329 C10.5484363,13.592867 10.403829,13.5067244 10.3535654,13.3441872 C10.3070626,13.193927 10.3748642,13.0503152 10.5255826,12.9714327 C10.6645488,12.898709 10.8019962,12.8221514 10.9349235,12.7500803 C10.8249222,12.4940181 10.7251544,12.2926515 10.6507715,12.0800276 C10.5764971,11.8678117 10.6431054,11.6970355 10.7945832,11.6421359 C10.9491347,11.586135 11.0778673,11.6741946 11.142523,11.8952615 C11.2767882,12.3541994 11.5461866,12.6613681 11.9697748,12.7277697 C12.5373556,12.8167267 13.0099779,12.2498249 12.9567491,11.5813221 C12.9487214,11.4804553 12.9261209,11.3811384 12.9131391,11.2806794 C12.8921297,11.1182646 12.9758421,10.9677189 13.1070336,10.9404323 C13.2578244,10.9090669 13.3800481,10.9696767 13.415558,11.1408607 Z M13.2629541,9.91414057 C13.3329242,9.9616698 13.3868466,10.11686 13.3747739,10.2140789 C13.3066808,10.7615452 12.7460359,11.3432583 12.2309214,11.4265145 C12.1521911,11.4392369 12.0728351,11.4474785 12.0152321,11.455 C11.6146242,11.4373966 11.2729445,11.3103719 10.9806597,11.0428799 C10.8301557,10.9051331 10.8048693,10.7457422 10.9063831,10.6088756 C11.0046947,10.4762098 11.1690382,10.4625671 11.3130641,10.595673 C11.5906629,10.8521629 11.8968975,10.9533025 12.2506868,10.8285983 C12.552983,10.7219776 12.7396315,10.4908926 12.8429121,10.1689101 C12.8703333,10.0833334 12.9027235,9.96667078 12.9639336,9.93482459 C13.0509455,9.8896158 13.191806,9.86581118 13.2629541,9.91414057 Z M13.1238163,8.32037669 C13.1489799,8.34797409 13.2205305,8.38596843 13.2467389,8.46344237 C13.3023495,8.62787687 13.3484082,8.80826611 13.3719897,8.99090722 C13.3944967,9.16530745 13.3303191,9.30166542 13.2220827,9.34876307 C13.1167419,9.39451917 13.0218485,9.34550504 12.9728347,9.17704592 C12.9334028,9.04159828 12.8993737,8.89910755 12.8774638,8.75407747 C12.8412258,8.51437299 12.9441488,8.31002767 13.1238163,8.32037669 Z M6.42629423,3.00147732 C7.75799994,3.16478534 9.06722112,3.60074677 10.1108747,4.73020345 C10.5299665,5.18374868 10.8645802,5.7036613 11.0439635,6.32640367 C11.0742209,6.4314053 11.0679268,6.58435517 11.0181423,6.6749055 C10.9104593,6.87095866 10.6418583,6.82810597 10.5632952,6.60544738 C9.92546265,4.79790737 8.57601198,4.06001405 6.97464364,3.70169702 C6.74653756,3.65065804 6.51270609,3.63157064 6.2825146,3.59093158 C6.07230514,3.55375916 5.98445246,3.44265959 6.00223533,3.2530385 C6.01948736,3.06918123 6.12971083,2.98777782 6.42629423,3.00147732 Z" id="Combined-Shape" fill="#000000"></path>
    </g>
</svg>