<?xml version="1.0" encoding="UTF-8"?>
<svg width="24px" height="24px" viewBox="0 0 24 24" version="1.1" xmlns="http://www.w3.org/2000/svg" xmlns:xlink="http://www.w3.org/1999/xlink">
    <!-- Generator: Sketch 57.1 (83088) - https://sketch.com -->
    <title>crops-pineapple</title>
    <desc>Created with Sketch.</desc>
    <g id="crops-pineapple" stroke="none" stroke-width="1" fill="none" fill-rule="evenodd">
        <g id="np_pineapple_2011059_000000" transform="translate(6.000000, 3.000000)" fill="#000000" fill-rule="nonzero">
            <path d="M12.0770396,12.8112673 C11.6633287,9.9520495 10.6286752,8.05167327 8.99226733,7.11107921 C9.25533267,5.85083366 10.2525129,3.98793069 10.7419228,3.32951485 L11.2122198,2.69021188 L10.4031584,2.74679426 C9.85791485,2.78427129 9.27444554,2.89743604 8.71008911,3.10391901 C8.80414851,2.53956257 8.91732079,2.06926554 9.02974059,1.61808139 C9.06721762,1.48654495 9.10469465,1.35501604 9.1238,1.22273089 L9.31191881,0.432782376 L8.40879802,0.865606139 C7.99508713,1.05372495 7.5431505,1.27931703 7.09196634,1.54313485 C6.82890099,1.09195069 6.49013663,0.583427921 6.47102376,0.545954653 L6.15137228,0.0756576238 L5.85008119,0.565067525 C5.83097584,0.602544554 5.47384356,1.16689723 5.22913861,1.73125366 C4.77795446,1.42996257 4.32601782,1.16689723 3.85572079,0.978778416 L3.17819208,0.696600198 L3.34720554,1.41160218 C3.4603703,1.86278634 3.53532436,2.42714277 3.5919105,3.08555861 C2.97096792,2.87832693 2.36913822,2.76590713 1.86136792,2.72843386 L1.05230653,2.67185149 L1.52260356,3.31115446 C2.01201347,3.9695703 2.93349465,6.34024356 2.97096792,7.35570891 C1.5791897,8.3712495 0.676106535,10.1774911 0.299868911,12.7737188 C-0.0388954455,15.1060158 0.186704158,16.5735307 0.99575802,17.5141248 C1.99293822,18.6619505 3.78010455,18.905903 6.16902535,18.905903 C8.55794614,18.905903 10.3450749,18.661198 11.3422927,17.5141248 C12.1902947,16.611004 12.4158867,15.1434515 12.0771224,12.8111545 L12.0770396,12.8112673 Z M9.27444554,17.7772277 L9.27444554,17.9087642 C8.99226733,17.9837182 8.67261584,18.0403006 8.31473861,18.0777776 C8.23978455,17.5883677 8.1266198,17.1180707 7.97597426,16.6668865 C8.31473861,16.4596549 8.70933663,16.2906489 9.1238,16.1774766 C9.21785941,16.6859806 9.27444554,17.2319766 9.27444554,17.7772202 L9.27444554,17.7772277 Z M3.1039604,17.7772277 C3.1039604,17.2319842 3.16054277,16.6859881 3.27297386,16.1782178 C3.66832436,16.2913826 4.04456198,16.460396 4.36421347,16.6676277 C4.1952,17.1188119 4.08203525,17.5891089 4.00708871,18.0785188 C3.66832436,18.0410418 3.36778574,17.9844594 3.1039604,17.9095053 L3.1039604,17.7772352 L3.1039604,17.7772277 Z M1.80624158,10.177604 C1.97525505,10.1584986 2.16336634,10.1401269 2.33312475,10.1584986 C2.61530297,10.177604 2.89748119,10.215081 3.17965941,10.252558 C2.63441584,10.8543877 2.16411881,11.5128036 1.78788119,12.2278055 C1.5806495,12.2278055 1.39253069,12.2469109 1.18605149,12.2843879 C1.33595772,11.4944394 1.54244257,10.7794374 1.8062604,10.1776453 L1.80624158,10.177604 Z M10.6096376,10.177604 C10.872703,10.7794337 11.0799347,11.4753228 11.2305802,12.2843465 C11.0424614,12.2652412 10.8352297,12.2468695 10.6471109,12.2468695 C10.2708733,11.5318675 9.81968911,10.8734517 9.27369307,10.2908101 C9.55587129,10.2342277 9.85716238,10.1967507 10.157701,10.1776453 C10.3090783,10.1394347 10.4597257,10.15854 10.6096188,10.1776453 L10.6096376,10.177604 Z M9.8013099,12.2653465 C9.2935396,12.3219289 8.8041297,12.43436 8.33383267,12.6041109 C7.92012178,12.0588673 7.43071188,11.5503446 6.90382871,11.1182733 C7.39323861,10.836095 7.90100891,10.6288634 8.44625248,10.4598574 C8.95475644,11.005101 9.42505347,11.6069495 9.8013099,12.2653653 L9.8013099,12.2653465 Z M6.18886436,14.9930693 C6.52762871,15.4067802 6.82816733,15.8770772 7.05451188,16.3848475 C6.67827426,16.6861386 6.37698317,17.0623762 6.15139109,17.4569743 C5.92579901,17.0616238 5.64362079,16.6853861 5.28574356,16.3848475 C5.53044851,15.8770772 5.83172079,15.4067802 6.18886436,14.9930693 Z M6.18886436,13.9018297 C5.77515347,13.5064792 5.30485644,13.1684673 4.79708614,12.9046495 C5.21079703,12.3968792 5.68109406,11.9265822 6.2270901,11.5503446 C6.75397327,11.945695 7.2242703,12.3968792 7.61886832,12.9046495 C7.09198515,13.1875614 6.62168812,13.5255921 6.18886436,13.9018297 Z M6.22707505,10.6479386 C5.73766515,10.3282871 5.21153446,10.0644693 4.66553842,9.8579901 C5.15494832,9.44427921 5.68107901,9.06804158 6.24543545,8.72927723 C6.79067901,9.04892871 7.33667505,9.44427921 7.82533248,9.8579901 C7.24259683,10.0835822 6.71573248,10.3466663 6.22705624,10.6479386 L6.22707505,10.6479386 Z M5.54954634,11.1182356 C5.00430277,11.5510594 4.49578,12.0397168 4.08206911,12.6040733 C3.63088495,12.4350598 3.14147505,12.321895 2.63370475,12.2653089 C3.00994238,11.6068931 3.49935228,11.0050634 4.02548297,10.4590673 C4.5714602,10.6097091 5.07924931,10.8360386 5.54954634,11.1182168 L5.54954634,11.1182356 Z M2.25746713,12.9803109 C2.72776416,12.9994162 3.19806119,13.0934756 3.63088495,13.2433762 C3.23553446,13.8826792 2.91588297,14.5602079 2.70940376,15.3126832 C2.50217208,15.2935778 2.31405327,15.2752061 2.10757406,15.2752061 C1.93856059,15.2752061 1.78792257,15.2943115 1.61816416,15.2943115 C1.71222356,14.466156 1.91872158,13.6953016 2.25746713,12.980262 L2.25746713,12.9803109 Z M4.34596218,13.5255545 C4.81625921,13.7702594 5.26744337,14.070798 5.66279386,14.4470356 C5.26744337,14.8982198 4.94779188,15.4067426 4.66561366,15.9519861 C4.28937604,15.7263941 3.89402554,15.5566356 3.44284139,15.4442158 C3.66843347,14.7674208 3.96972455,14.109005 4.34596218,13.5255921 L4.34596218,13.5255545 Z M4.98526515,17.1564319 C5.28655624,17.4577267 5.51214832,17.8148515 5.64368099,18.1910891 C5.3240295,18.1910891 5.02273842,18.1719838 4.7405602,18.1536121 C4.81624792,17.8148477 4.89120198,17.4760834 4.98526515,17.1564319 L4.98526515,17.1564319 Z M7.3367503,17.1564356 C7.4308097,17.4760871 7.50576376,17.8148515 7.56234238,18.1536158 C7.28016416,18.1727212 6.97887307,18.1910929 6.64086119,18.1910929 C6.79150297,17.8148552 7.03547802,17.4577305 7.3367503,17.1564356 L7.3367503,17.1564356 Z M7.67551465,15.9527762 C7.41244931,15.4075327 7.09204535,14.8990099 6.69744733,14.4478257 C7.09279782,14.0715881 7.56309485,13.770297 8.05175228,13.5263446 C8.4279899,14.1098139 8.72928099,14.7491168 8.9357602,15.4267208 C8.48457604,15.5575217 8.05175228,15.7456386 7.67551465,15.9528703 L7.67551465,15.9527762 Z M8.76675426,13.2434891 C9.21793842,13.0928473 9.68823545,12.9987842 10.1776453,12.9804238 C10.4972968,13.6954257 10.7228889,14.4662614 10.7985879,15.2752851 C10.6479461,15.2561798 10.4972968,15.2561798 10.3474038,15.2561798 C10.1218117,15.2561798 9.8962196,15.2752851 9.68898792,15.2936568 C9.46266218,14.5793885 9.16137109,13.8834994 8.76675426,13.243538 L8.76675426,13.2434891 Z M10.2151186,9.40624158 L10.1019539,9.40624158 C9.59418356,9.44371861 9.10477366,9.51940634 8.63447663,9.63183366 C8.12670634,9.14242376 7.5623499,8.71035248 6.97888059,8.33411485 C7.48665089,8.0894099 7.99442119,7.88293069 8.52130436,7.73228515 C9.21792713,8.10852277 9.78228356,8.65376634 10.2151186,9.40624158 L10.2151186,9.40624158 Z M6.22718792,7.88217822 C5.83183743,7.67494653 5.43723941,7.48682772 5.02352851,7.31782178 C5.39976614,7.24286772 5.77600376,7.20465703 6.20882752,7.20465703 C6.64165129,7.20465703 7.05536218,7.24213406 7.4315998,7.33619347 C7.01715525,7.48757079 6.62180475,7.67569149 6.22720673,7.88217069 L6.22718792,7.88217822 Z M7.99520376,6.69761287 C7.8261903,6.0583099 7.41173446,5.45572772 6.84737802,4.92959703 C7.65643941,4.30865446 8.69109287,3.81999703 9.68834832,3.61276535 C9.19893842,4.44018713 8.08933842,6.73516139 7.99527901,6.69753762 L7.99520376,6.69761287 Z M7.9202497,3.42396931 C7.71301802,3.51802871 6.86648337,3.14179109 6.58430515,2.87872574 C7.07371505,2.46501485 7.65643188,2.1262505 8.22078832,1.84407228 C8.08925188,2.29525644 7.99519624,2.80304554 7.92023089,3.42396931 L7.9202497,3.42396931 Z M4.25193287,2.01307822 C5.17341406,2.52084851 6.07653485,3.31079703 6.66004178,4.13900891 C6.5094,4.23306832 5.04191901,3.66871188 4.40261604,3.40564653 C4.36440535,2.89714257 4.32692832,2.42684554 4.25197426,2.01313465 L4.25193287,2.01307822 Z M2.57724277,3.59370891 C4.25119921,3.93247327 6.43367842,5.07954653 7.1295299,6.49036238 C6.82823881,6.45288535 5.04103485,6.49036238 4.72142099,6.49036238 C3.78156059,6.50946772 3.04746455,4.53430297 2.57724277,3.59370891 Z M3.91318733,7.71313465 C4.4400705,7.86377644 4.96695366,8.07025941 5.47472396,8.33407723 C4.89125465,8.71031485 4.32689822,9.14313861 3.81912792,9.61343564 C3.34883089,9.50027089 2.87853386,9.42531683 2.37076356,9.40620396 L2.2017501,9.40620396 C2.65293426,8.65372871 3.21729069,8.08937228 3.91319861,7.71313465 L3.91318733,7.71313465 Z M1.63657347,17.0998871 C1.59909644,16.7611228 1.57999109,16.403998 1.57999109,16.0461208 C1.74900455,16.0270154 1.91875545,16.0086438 2.10687426,16.0086438 C2.25751604,16.0086438 2.38905248,16.0086438 2.53969802,16.0277491 C2.44563861,16.5355194 2.37068455,17.0624026 2.37068455,17.6076461 C2.06939347,17.4761097 1.82470733,17.3070887 1.63658851,17.0998758 L1.63657347,17.0998871 Z M10.0270487,17.6458644 C10.0270487,17.1006208 9.95209465,16.5737376 9.85803525,16.0468545 C10.008677,16.0277491 10.1776867,16.0277491 10.3474451,16.0277491 C10.5164586,16.0277491 10.6862095,16.0468545 10.836855,16.0468545 C10.836855,16.4039792 10.8177497,16.7427436 10.7802727,17.1006208 C10.5723073,17.3071188 10.3276212,17.4952376 10.0270638,17.6458644 L10.0270487,17.6458644 Z" id="Shape"></path>
        </g>
    </g>
</svg>