<?xml version="1.0" encoding="UTF-8"?>
<svg width="24px" height="24px" viewBox="0 0 24 24" version="1.1" xmlns="http://www.w3.org/2000/svg" xmlns:xlink="http://www.w3.org/1999/xlink">
    <!-- Generator: Sketch 57.1 (83088) - https://sketch.com -->
    <title>crops-brussel sprouts </title>
    <desc>Created with Sketch.</desc>
    <g id="crops-brussel-sprouts-" stroke="none" stroke-width="1" fill="none" fill-rule="evenodd">
        <path d="M7.56704226,10.9166667 C7.57990614,10.9166667 7.59448697,10.9175245 7.60820932,10.9192397 L7.60820932,10.9192397 L7.64851791,10.9192397 C7.69911936,10.9192397 7.7471476,10.9209551 7.79689058,10.9235278 C10.7634872,11.06165 13.0833333,13.4930265 13.0833333,16.4579272 C13.0833333,16.9150672 13.0275855,17.3661695 12.9178066,17.79929 C12.8852177,17.927933 12.8551998,18.0342821 12.8226086,18.1303384 L12.8226086,18.1303384 L12.816605,18.1500643 C12.0808674,20.4528023 9.96147738,22 7.54129342,22 C5.11671831,22 2.994013,20.449487 2.26159064,18.1423798 C2.25901765,18.1355186 2.25730246,18.1286574 2.25558706,18.1217963 C2.08576361,17.5883381 2,17.0291698 2,16.458826 C2,13.4724088 4.33543471,11.0401672 7.31746669,10.9218126 L7.31746669,10.9218126 L7.33976497,10.9218126 C7.36463646,10.9200975 7.39036642,10.9192397 7.41695265,10.9192397 C7.44268261,10.9175245 7.47012732,10.9166667 7.49757203,10.9166667 L7.49757203,10.9166667 Z M10.6056826,12.7734774 C10.0799518,12.6259547 9.71717668,12.6319706 9.39212158,12.9913199 C8.87581399,13.5625199 8.8749564,14.1165506 8.87324099,14.6525776 C8.87152844,15.1397092 8.87067217,15.6422976 8.39983079,15.9613362 C7.98387882,16.2435023 7.58079294,16.1903277 7.25573784,16.147446 C6.92297627,16.1037058 6.7248694,16.0882688 6.4950145,16.266659 C6.24886403,16.4587716 6.11850189,16.9347716 6.12793607,17.6071656 C6.15281195,19.3360689 5.53616233,20.1414047 5.01471292,20.5119075 C5.58929529,20.5153326 6.76763923,20.3300702 7.94690532,19.54276 C7.5232381,18.8797851 7.449481,18.2597138 7.44605041,18.2305544 C7.42804668,18.0684553 7.5446779,17.9217979 7.70763139,17.9037874 C7.8697308,17.8857837 8.01553069,18.0024169 8.03439904,18.1645116 C8.03525531,18.1696712 8.09699493,18.6593716 8.42376257,19.1885484 C9.34309436,18.4348084 10.2127622,17.2743388 10.7359242,15.5041588 C10.7831071,15.3472083 10.9477666,15.2580132 11.1047152,15.3043266 C11.2616659,15.3506531 11.3508612,15.5153123 11.3045477,15.6722605 C11.1544801,16.1799866 10.9760785,16.6388173 10.7771044,17.0582155 C10.9331879,17.0727941 11.1072993,17.0659329 11.2436644,17.0024677 C11.3911852,16.9329976 11.567861,16.9973213 11.6373313,17.1456936 C11.7068015,17.2940704 11.6424777,17.4698896 11.494105,17.5393597 C11.3028484,17.6285548 11.0952961,17.6577142 10.9057564,17.6577142 C10.7479603,17.6577142 10.6038734,17.6371307 10.4889482,17.613974 C9.93748522,18.5831215 9.26765874,19.2915229 8.57811599,19.8061211 C8.56611058,19.8198434 8.5575329,19.8361394 8.54209536,19.8481465 C8.51465066,19.8695863 8.48463274,19.8850245 8.45375854,19.8953162 C7.57388126,20.5205493 6.67419989,20.838736 5.95892498,20.9862521 C6.45721106,21.1586506 6.98981401,21.2538484 7.54127695,21.2538484 C9.63827205,21.2538484 11.4736423,19.9125075 12.1082956,17.9150419 L12.1082956,17.9150419 L12.1125838,17.9013195 C12.1443164,17.8086862 12.1700442,17.7134862 12.1940594,17.6182883 C12.2883834,17.2426303 12.3364116,16.8532676 12.3364116,16.4587452 C12.3364116,14.976734 11.6648726,13.6525625 10.6056826,12.7734774 Z M2.94254452,17.8061116 L2.96827448,17.9004532 L2.96827448,17.9004532 C2.97427806,17.9167489 2.97599325,17.9253255 2.97856624,17.9339018 C3.25644609,18.7984663 3.7607261,19.5394719 4.41511767,20.101231 C4.75903277,19.9433694 5.43401226,19.4262024 5.46574493,17.8206902 C5.18185689,18.0282355 4.80193433,18.1800395 4.2967761,18.1800395 C3.71356511,18.1800395 3.27359354,18.0188077 2.94254452,17.8061116 L2.94254452,17.8061116 Z M7.54131669,11.6636701 L7.47270493,11.6636701 C7.44868971,11.6662431 7.42896399,11.6653855 7.41009587,11.6653855 L7.3983037,11.6654927 L7.3983037,11.6654927 L7.38779759,11.6662431 C7.37664846,11.6671007 7.36549954,11.6679585 7.35435018,11.6679585 C4.76777929,11.7709436 2.74631333,13.8747408 2.74545574,16.4622226 C2.74545574,16.5325489 2.74974392,16.6037338 2.75317451,16.6740602 C2.90754549,16.952788 3.33893236,17.5239881 4.2952157,17.5239881 C5.15798943,17.5239881 5.4779003,16.9056271 5.59196708,16.5368369 C5.59453986,16.5291179 5.59797067,16.5222568 5.60054344,16.5153956 C5.70432834,16.1792096 5.86642776,15.9210476 6.0894105,15.7469453 C6.54824208,15.3901737 6.98821365,15.4484924 7.34156973,15.4948058 C7.64859915,15.5351144 7.83128209,15.5514099 8.03025621,15.4167598 C8.19749656,15.3035561 8.21379191,15.1165812 8.2146495,14.6517347 C8.21636205,14.084838 8.2180746,13.3095156 8.90419225,12.5505063 C9.01225853,12.4312889 9.12374331,12.3395206 9.2378101,12.2649063 C8.52681657,12.2786286 7.59284029,12.4741662 6.71289714,12.9638886 C6.89043146,13.2477761 7.14773106,13.7040379 7.24378754,14.0882631 C7.28410491,14.2469239 7.18718338,14.4081601 7.02851785,14.4476123 C7.00450483,14.4536159 6.98048961,14.4561887 6.95647659,14.4561887 C6.82353883,14.4561887 6.70261087,14.3661439 6.66916345,14.2314938 C6.59627031,13.9398999 6.38014216,13.5505371 6.2129007,13.2812283 C5.46844658,13.8146864 4.80806109,14.5908431 4.42126638,15.6869166 C4.37838677,15.8087006 4.26432438,15.8850319 4.14168167,15.8850319 C4.10909053,15.8850319 4.07564312,15.8798859 4.04305198,15.867879 C3.88867441,15.8129897 3.80805724,15.6440229 3.86208818,15.4896478 C4.02590014,15.0256575 4.23344798,14.6131315 4.47360014,14.2451975 L4.47360014,14.2451975 L4.26947959,14.2451975 C4.10566104,14.2451975 3.97272547,14.1122622 3.97272547,13.948444 C3.97272547,13.7846257 4.10566982,13.6516904 4.26947959,13.6516904 L4.26947959,13.6516904 L4.91785528,13.6516904 C5.90498647,12.5101686 7.23170747,11.9372582 8.3818163,11.7434309 C8.18111866,11.7082688 7.9770003,11.6799654 7.76773552,11.6705313 C7.72485371,11.6679585 7.68797461,11.6662431 7.64938077,11.6662431 L7.64938077,11.6662431 L7.58334222,11.6662431 C7.56961987,11.6662431 7.55503904,11.6653855 7.54131669,11.6636701 L7.54131669,11.6636701 Z M16.6706372,3.0006433 L16.6915427,3.00257299 L16.7318512,3.00257299 C16.7824527,3.00257299 16.8304809,3.00428839 16.8802239,3.00686116 C19.8468206,3.14498329 22.1666667,5.57635987 22.1666667,8.54126049 C22.1666667,8.99840056 22.1109188,9.44950281 22.00114,9.88262333 C21.968551,10.0112663 21.9385331,10.1176154 21.905942,10.2136717 C21.9042266,10.2205329 21.9025112,10.227394 21.8999384,10.2333976 C21.1642007,12.5361356 19.0448107,14.0833333 16.6246268,14.0833333 C14.2000516,14.0833333 12.0773463,12.5328203 11.344924,10.2257131 L11.344924,10.2257131 L11.3389204,10.2051296 C11.1690969,9.67167144 11.0833333,9.11250313 11.0833333,8.54215935 C11.0833333,5.55574213 13.418768,3.12350049 16.4008,3.00514598 L16.4008,3.00514598 L16.4230983,3.00514598 C16.4479698,3.0034308 16.4736998,3.00257299 16.500286,3.00257299 C16.5260159,3.00085781 16.5534607,3 16.5809054,3 L16.6706372,3.0006433 L16.6706372,3.0006433 Z M19.6890159,4.85681072 C19.1632851,4.70928804 18.80051,4.71530391 18.4754549,5.0746532 C17.9591473,5.64585324 17.9582897,6.19988392 17.9565743,6.7359109 C17.9548618,7.22304249 17.9540055,7.72563091 17.4831641,8.04466949 C17.0672122,8.32683564 16.6641263,8.27366108 16.3390712,8.23077936 C16.0063096,8.18703917 15.8082027,8.1716021 15.5783478,8.34999234 C15.3321974,8.5421049 15.2018352,9.01810494 15.2112694,9.69049891 C15.2361453,11.4194022 14.6194957,12.224738 14.0980463,12.5952408 C14.6726286,12.5986659 15.8509726,12.4134036 17.0302386,11.6260933 C16.6630604,11.051515 16.5587035,10.5091622 16.5351694,10.3557678 L16.5293837,10.3138877 C16.51138,10.1517886 16.6280112,10.0051312 16.7909647,9.9871207 C16.9530641,9.96911701 17.098864,10.0857502 17.1177324,10.2478449 C17.1185886,10.2530045 17.1803283,10.7427049 17.5070959,11.2718817 C18.4264277,10.5181418 19.2960955,9.35767213 19.8192575,7.58749209 C19.8664404,7.43054162 20.0310999,7.3413465 20.1880485,7.3876599 C20.3449993,7.43398647 20.4341946,7.5986456 20.3878811,7.75559388 C20.2378134,8.26331994 20.0594119,8.7221506 19.8604377,9.14154879 C20.0165213,9.15612739 20.1906327,9.14926623 20.3269977,9.08580102 C20.4745185,9.01633092 20.6511944,9.0806546 20.7206646,9.22902697 C20.7901348,9.37740374 20.725811,9.55322296 20.5774384,9.62269305 C20.3861817,9.71188817 20.1786295,9.74104757 19.9890897,9.74104757 C19.8312937,9.74104757 19.6872068,9.72046408 19.5722815,9.69730738 C19.0208186,10.6664549 18.3509921,11.3748562 17.6614493,11.8894544 C17.6494439,11.9031767 17.6408662,11.9194727 17.6254287,11.9314799 C17.597984,11.9529196 17.5679661,11.9683578 17.5370919,11.9786495 C16.6572146,12.6038826 15.7575332,12.9220693 15.0422583,13.0695854 C15.5405444,13.2419839 16.0731473,13.3371818 16.6246103,13.3371818 C18.7216054,13.3371818 20.5569756,11.9958409 21.1916289,9.99837521 L21.1916289,9.99837521 L21.1959171,9.98465288 C21.2276498,9.8920195 21.2533775,9.79681949 21.2773928,9.70162168 C21.3717167,9.32596368 21.4197449,8.93660091 21.4197449,8.54207856 C21.4197449,7.06006736 20.7482059,5.73589585 19.6890159,4.85681072 Z M12.0258779,9.88944497 L12.0516078,9.98378651 C12.0524654,9.9863595 12.0533232,9.98893249 12.0541808,9.99150526 C12.0576114,10.0000823 12.0593266,10.0086588 12.0618996,10.0172352 C12.3397794,10.8817997 12.8440594,11.6228053 13.498451,12.1845643 C13.8423661,12.0267027 14.5173456,11.5095357 14.5490783,9.90402357 C14.2651902,10.1115688 13.8852677,10.2633729 13.3801094,10.2633729 C12.7968984,10.2633729 12.3569269,10.102141 12.0258779,9.88944497 L12.0258779,9.88944497 Z M16.62465,3.74700346 L16.5560383,3.74700346 C16.532023,3.74957645 16.5122973,3.74871886 16.4934292,3.74871886 L16.481637,3.74882606 L16.481637,3.74882606 L16.4711309,3.74957645 L16.4711309,3.74957645 L16.4377432,3.75130459 C13.8511126,3.85427692 11.8296467,5.95807414 11.8287891,8.5455559 C11.8287891,8.61588227 11.8330773,8.68706711 11.8365078,8.75739349 C11.9908788,9.03612137 12.4222657,9.60732141 13.378549,9.60732141 C14.2413228,9.60732141 14.5612336,8.98896048 14.6753004,8.62017023 L14.6753004,8.62017023 L14.6838768,8.59872893 C14.7876617,8.26254292 14.9497611,8.00438096 15.1727438,7.83027868 C15.6315754,7.47350699 16.071547,7.53182578 16.4249031,7.57813918 C16.7319325,7.61844768 16.9146154,7.63474322 17.1135895,7.50009317 C17.2808299,7.38688947 17.2971252,7.19991455 17.2979828,6.73506802 C17.2996954,6.16817129 17.3014079,5.3928489 17.9875256,4.63383962 C18.0955919,4.51462224 18.2070766,4.42285392 18.3211434,4.34823959 C17.6101499,4.36196192 16.6761736,4.55749957 15.7962305,5.04722194 C15.9737648,5.33110942 16.2310644,5.78737126 16.3271209,6.17159638 C16.3674382,6.33025721 16.2705167,6.49149344 16.1118512,6.53094568 C16.0878382,6.53694925 16.0638229,6.53952202 16.0398099,6.53952202 C15.9068722,6.53952202 15.7859442,6.44947722 15.7524968,6.31482717 C15.6796036,6.02323323 15.4634755,5.63387047 15.296234,5.36456159 C14.5517799,5.89801975 13.8913944,6.67417646 13.5045997,7.77024998 C13.4617201,7.89203398 13.3476577,7.96836524 13.225015,7.96836524 C13.1924239,7.96836524 13.1589765,7.96321926 13.1263853,7.95121233 C12.9720077,7.89632303 12.8913906,7.72735619 12.9454215,7.57298112 C13.1092335,7.10899086 13.3167813,6.69646481 13.5569335,6.32853083 L13.5569335,6.32853083 L13.3528129,6.32853083 C13.1889944,6.32853083 13.0560588,6.19559553 13.0560588,6.0317773 C13.0560588,5.86795908 13.1890032,5.73502377 13.3528129,5.73502377 L13.3528129,5.73502377 L14.0011886,5.73502377 C14.9883198,4.59350191 16.3150408,4.02059151 17.4651496,3.8267642 C17.264452,3.79160212 17.0603336,3.76329878 16.8510689,3.75386462 C16.808187,3.75129185 16.7713079,3.74957645 16.7327141,3.74957645 L16.7327141,3.74957645 L16.6666756,3.74957645 L16.6666756,3.74957645 L16.62465,3.74700346 Z" id="brussel-sprouts" fill="#000000"></path>
    </g>
</svg>