<?xml version="1.0" encoding="UTF-8"?>
<svg width="24px" height="24px" viewBox="0 0 24 24" version="1.1" xmlns="http://www.w3.org/2000/svg" xmlns:xlink="http://www.w3.org/1999/xlink">
    <!-- Generator: Sketch 57.1 (83088) - https://sketch.com -->
    <title>crops-tangelo</title>
    <desc>Created with Sketch.</desc>
    <g id="crops-tangelo" stroke="none" stroke-width="1" fill="none" fill-rule="evenodd">
        <path d="M6.40130927,3.21930965 C8.84151359,2.61513402 9.99908372,3.23336388 11.0548466,5.39705653 L11.0310734,5.35347452 C11.2093746,5.21600005 11.4353398,5.11195785 11.7112529,5.11195785 C12.1751026,5.11195785 12.4995714,5.41971486 12.679007,5.67046442 L12.7334395,5.75143586 C12.7962518,5.84864985 12.8736901,5.95389156 12.9287576,6.0430687 C16.5966995,6.66649583 19.6930728,10.066287 19.4223275,14.0360871 C18.7797316,23.4581424 10.1675697,22.2359405 8.68300351,21.519877 C5.90473362,20.3060378 4,17.3611536 4,14.0361328 C4,9.9994393 6.67672526,6.56939143 10.4550225,6.05110556 C10.4755609,6.02626918 10.5008064,5.99027953 10.5306848,5.94660329 C10.4131737,5.9607004 10.2470649,5.98760426 9.92523807,6.04082495 C9.51738335,6.10827212 9.26085418,6.14263204 8.98378648,6.15946123 C7.41109532,6.25498706 6.41476754,5.55128144 6.13363368,3.62862651 L6.13363368,3.62862651 L6.08522595,3.29756943 Z M11.7086692,5.99124011 C11.4126699,6.08042638 11.3111473,6.33104842 11.1554161,6.57363818 C11.0693741,6.68690533 10.9446108,6.87330787 10.6641031,6.90540963 C7.28427493,7.32638562 4.88024436,10.343677 4.88024436,14.0002181 C4.88024436,17.923665 7.93209002,21.0950266 11.7095062,21.0950266 C15.4866801,21.0950266 18.538746,17.9234367 18.538746,14.0002181 C18.538746,10.4566953 16.0021127,7.43967789 12.7394683,6.90540963 C12.4899461,6.86527558 12.3333339,6.70295393 12.2318112,6.57363818 C12.083816,6.32301157 11.8807444,6.08042181 11.7086692,5.99124011 Z M10.0273236,8.29959863 C10.3000844,8.26747404 10.5263747,8.3646926 10.6046742,8.64742096 C10.6433977,8.86592298 10.5031472,9.10048501 10.3000844,9.16559268 C9.42580932,9.46528521 8.54386888,10.2091053 7.86499567,11.0991871 C7.19385395,11.9972144 6.73352857,13.0326674 6.63974187,13.8255535 C6.61650334,14.0690268 6.37471258,14.2545366 6.14842886,14.2304558 C5.91353917,14.1974635 5.73456951,13.9548738 5.75780142,13.712284 C5.88256255,12.6767397 6.42118963,11.5360313 7.17836895,10.5406941 C7.93563637,9.53734292 8.91912144,8.6793629 10.0273456,8.29941597 Z M10.1791695,5.26004332 C9.39861877,3.86841576 8.58798945,3.49629805 6.89412618,3.85394665 C7.1620557,5.11019886 7.80830046,5.4994514 8.94204256,5.4305875 C9.18927511,5.4155705 9.42685695,5.38374842 9.81282938,5.31991993 C9.96391395,5.29493499 10.0825237,5.27543465 10.1791695,5.26004332 Z" id="tangelo" fill="#000000"></path>
    </g>
</svg>