<?xml version="1.0" encoding="UTF-8"?>
<svg width="24px" height="24px" viewBox="0 0 24 24" version="1.1" xmlns="http://www.w3.org/2000/svg" xmlns:xlink="http://www.w3.org/1999/xlink">
    <!-- Generator: Sketch 58 (84663) - https://sketch.com -->
    <title>crops-celery</title>
    <desc>Created with Sketch.</desc>
    <g id="crops-celery" stroke="none" stroke-width="1" fill="none" fill-rule="evenodd">
        <path d="M12.5710501,11.2509099 C12.8231331,10.9142762 13.0469324,10.5836353 13.2474317,10.2623995 L12.6093226,9.33709956 C12.5178072,9.20381524 12.5485892,9.02012882 12.6775422,8.92529131 C12.8073279,8.831309 12.9861927,8.86292078 13.0785408,8.99534989 L13.5718874,9.71131182 C13.8913573,9.13887474 14.1334516,8.60659486 14.3164865,8.13498824 L13.8173042,7.43781446 C13.7232927,7.30624054 13.750748,7.12169673 13.8788682,7.0251532 C14.0069884,6.92860748 14.186688,6.95680283 14.2806974,7.08837674 L14.551906,7.46772677 C14.8164697,6.63299924 14.8680534,6.11097738 14.868884,6.09986635 C14.8830272,5.93753367 15.0227961,5.81791287 15.180857,5.83243595 C15.3389286,5.84696057 15.4554094,5.990497 15.4412675,6.15281875 C15.4371076,6.20322742 15.3763747,6.82691744 15.0569027,7.79237462 L15.4063175,7.78639391 C15.5677158,7.77785023 15.6958424,7.9136962 15.6983343,8.07687752 C15.7008302,8.24006321 15.5743736,8.3742071 15.4154757,8.37676614 L14.8414309,8.38616437 C14.6658886,8.83386476 14.4396017,9.33110551 14.1492462,9.8642384 L14.5427692,9.80015965 C14.7008407,9.77538291 14.8472666,9.88474351 14.8713972,10.045368 C14.8963563,10.2059924 14.7890336,10.3580736 14.6326254,10.3828548 L13.7657332,10.5238271 C13.5477696,10.875837 13.3023315,11.2397891 13.0252873,11.610609 C12.9687155,11.6866496 12.8830231,11.7259494 12.7973349,11.7259494 C12.7366015,11.7259494 12.6750375,11.7062986 12.6226253,11.6652892 C12.4986646,11.5661823 12.4745382,11.3807767 12.5710437,11.250922 L12.5710501,11.2509099 Z M21.0495676,13.5398271 C21.0004821,13.5722941 20.6951477,13.7465865 20.3923329,13.8610848 C20.425611,14.3130503 20.2550609,14.7274176 19.9056312,15.0144891 C19.4122845,15.4186203 18.6701773,15.5049058 17.9646813,15.2725145 C17.9189247,15.5749622 17.7899717,15.8406865 17.5844695,16.0405977 C17.1759741,16.4370298 16.5154168,16.5310143 15.7242178,16.3071751 C15.5461793,16.2567664 15.3689673,16.2029413 15.1909373,16.148261 C14.5203914,15.9440651 13.8856047,15.7509758 13.2375068,15.7509758 L13.2133805,15.7509758 C13.2000692,15.7526845 13.186758,15.753539 13.1734467,15.753539 C12.4138752,15.762937 11.7441598,16.4976941 11.2549663,17.035114 C10.8323289,17.4990435 10.4163578,17.9869011 10.013698,18.4585077 C9.29738265,19.2992282 8.55610605,20.16812 7.7358778,20.9499607 C7.25584236,21.4070442 6.54951577,21.9598402 5.90474037,21.9982914 C5.88144463,22 5.85731826,22 5.8331919,22 C5.11853779,22 4.32985186,21.3865527 4.00288509,21.0516468 C3.98957385,21.0379767 3.97792598,21.0217433 3.96711086,21.006365 C3.9521356,20.9952581 3.93632887,20.9832964 3.92301762,20.9687734 C3.5860834,20.6227564 2.95962427,19.7692189 3.00204987,19.0156588 C3.03948748,18.3535241 3.57775588,17.6281353 4.02286261,17.1360127 C4.78409543,16.2935861 5.63020074,15.5332019 6.44891684,14.7976645 C6.90899605,14.3841502 7.38402646,13.956944 7.83577816,13.5229355 C8.35574733,13.0231139 9.06705765,12.3387572 9.08288206,11.5647029 C9.06208329,11.2178329 8.98388047,10.8581241 8.89070176,10.4582799 C8.81998604,10.1566852 8.73179957,9.84997252 8.64694625,9.55264294 C8.60534914,9.40739895 8.56291928,9.26215934 8.52298555,9.11605359 C8.23763505,8.07627494 8.49885918,7.52091998 8.7684023,7.23813536 C8.9522636,7.04589912 9.19270089,6.92713571 9.467232,6.88868452 C9.24426333,6.16587662 9.32663118,5.42342755 9.71682317,4.94412195 C9.98553993,4.61348113 10.3699048,4.46055128 10.7892196,4.50497355 C10.8923829,4.20593795 11.0371496,3.91630735 11.0396414,3.91118928 C11.4098644,3.26784278 12.0779185,2.9243849 12.7875676,3.01408246 C13.3990542,3.09097608 13.9132091,3.46263587 14.2143627,4.01285088 C14.3067086,3.96158701 14.4032162,3.91459695 14.50721,3.88042177 C15.0296711,3.70527422 15.5812678,3.79925652 16.1436625,4.15808831 C17.374942,4.94325363 17.3599695,6.25730864 17.1195365,7.07320427 C17.481432,7.31071361 17.7135588,7.71399173 17.7351763,8.17962726 C17.7484875,8.46499279 17.6727795,8.7947806 17.4722738,9.09552223 C17.6702791,9.03827852 17.8774255,9.02717186 18.087083,9.06732688 C18.5321684,9.15020252 18.914872,9.45179498 19.1261907,9.86616227 C20.9198862,9.66196636 21.8176179,10.7367819 21.964787,11.5048651 C22.1162029,12.2977294 21.7734373,13.0572825 21.0496336,13.5400001 L21.0495676,13.5398271 Z M21.2550591,11.6499449 C21.1535614,11.118518 20.4405813,10.3752159 18.9606265,10.6443305 C18.7767652,10.6776505 18.5979004,10.56231 18.5479779,10.3769001 C18.4697738,10.0838574 18.2326611,9.85231918 17.95813,9.80105094 C17.7118826,9.75491389 17.4714283,9.85658643 17.2676065,10.0872695 C17.2825818,10.2017569 17.2884055,10.3247788 17.2775902,10.4589205 C17.2334969,11.0262395 16.6527923,11.7516065 15.8940513,12.1933139 L15.8041994,12.4692744 C16.3208461,12.2727666 16.804204,12.1198236 17.2443057,12.0019329 L17.4265036,11.3355113 C17.4689335,11.1783054 17.627005,11.0860379 17.7809235,11.1304602 C17.9340028,11.1740338 18.0230178,11.3372195 17.9805922,11.4944341 L17.8840867,11.845591 C18.9689638,11.6089346 19.6653016,11.5969706 19.7185466,11.5969706 L19.7210425,11.5969706 C19.8782813,11.5969706 20.006393,11.7268363 20.0080756,11.8891602 C20.0097394,12.0523459 19.8824515,12.1856368 19.7235557,12.1873428 C19.7110766,12.1873428 19.0596547,12.1993042 18.0330276,12.4205871 L18.3541587,12.8127542 C18.4564892,12.9374931 18.4406818,13.1237538 18.3192172,13.2288275 C18.2651395,13.2758175 18.199416,13.2980331 18.1345232,13.2980331 C18.0521596,13.2980331 17.9714615,13.2621497 17.9140464,13.1929441 L17.4057272,12.5726727 C16.9365111,12.6974116 16.4148807,12.8623033 15.8574697,13.0810245 L16.3940726,13.7687932 C16.4930742,13.8960955 16.4731073,14.0823519 16.3499794,14.1840135 C16.2967344,14.2275872 16.2335049,14.2489475 16.1702776,14.2489475 C16.0862506,14.2489475 16.0022236,14.2113537 15.9456476,14.1387317 L15.3008935,13.3134092 C15.0712799,13.4142265 14.8366612,13.5235871 14.5987201,13.64405 C14.5579536,13.6645551 14.5146931,13.6739535 14.4722632,13.6739535 C14.3657733,13.6739535 14.2642756,13.6132934 14.2135352,13.5090574 C14.1436523,13.3629583 14.2027199,13.1852407 14.3449843,13.1134783 C14.6028817,12.9836126 14.8557953,12.8648579 15.1037253,12.7563504 L15.1702815,12.5521544 C14.9897469,12.6324667 14.8017197,12.7144871 14.6062255,12.7982158 C13.9714388,13.0707642 13.3142041,13.3527177 12.9331617,13.6286782 C12.2393158,14.1310589 12.1012196,14.2429786 11.5180167,14.8419028 C11.4930576,14.8675347 9.02806848,17.4015968 6.91317791,19.6793593 C6.84162944,19.7562529 6.74678735,19.7946997 6.65110613,19.7946997 C6.56125416,19.7946997 6.47140432,19.7605245 6.40151496,19.6921741 C6.25675464,19.5503466 6.25093177,19.3153831 6.38903583,19.1667402 C8.50303188,16.8898527 10.9813088,14.3413134 11.0064404,14.3155043 C11.6229108,13.6824159 11.8001314,13.5397222 12.5164254,13.0202593 C12.9623628,12.6972956 13.6562087,12.3991349 14.3275853,12.1112103 C14.7851514,11.9147025 15.2169469,11.7293013 15.5156086,11.5592893 C16.155379,11.1944624 16.5364213,10.6425413 16.5555469,10.399039 C16.5913212,9.94108062 16.3350701,9.7838857 16.3051252,9.76680357 C16.1819972,9.697598 16.1046237,9.55918905 16.1129449,9.41564671 C16.1212643,9.27211093 16.2061236,9.14395125 16.3359135,9.09012397 C16.7760152,8.9107048 17.0289289,8.58347822 17.0122952,8.21694525 C16.9989839,7.93413876 16.822611,7.7017475 16.5622047,7.62401399 C16.460707,7.59411043 16.3775106,7.51978022 16.3334217,7.42067109 C16.2901612,7.32156415 16.2901612,7.20878494 16.3350855,7.10967144 C16.3625407,7.04901131 16.9981558,5.57862314 15.7618713,4.79013327 C15.3841727,4.54919001 15.0488785,4.48342055 14.733583,4.58764557 C14.069682,4.80807278 13.699459,5.71456273 13.6953059,5.72396774 C13.6570355,5.81880306 13.5829931,5.89313546 13.4898144,5.92987405 C13.3974684,5.96661265 13.2934724,5.96234103 13.2036119,5.91876717 C12.8350502,5.73678459 12.5754916,5.74618303 12.4323904,5.94610732 C12.2094217,6.25710698 12.2576808,6.9576928 12.6536978,7.39513518 L12.6545297,7.3959895 C12.7909689,7.54636032 12.7826499,7.78131061 12.6362268,7.9214234 C12.4939626,8.05726895 12.2743314,8.05299732 12.1370445,7.91544269 C12.0530175,7.86930565 11.7801328,7.85392736 11.6869541,7.88126751 C11.5155712,7.93423959 11.4107404,8.14441097 11.3533423,8.31188578 C11.1819595,8.80997953 11.2917783,9.39779272 11.4082507,10.020645 C11.5189001,10.6153042 11.6345418,11.2304357 11.5122445,11.8302129 C11.2609921,13.0622256 10.2901018,14.0747297 9.50891281,14.8879351 L9.3558335,15.0477043 C8.77595308,15.6551587 6.00310365,18.4396325 5.8848998,18.5575232 C5.74180285,18.701059 5.51301557,18.6984956 5.37325815,18.5515425 C5.23350073,18.4045894 5.2359862,18.1696334 5.37908187,18.0261086 C5.40820048,17.9970602 8.2643208,15.1298026 8.83915359,14.5274445 L8.99306566,14.36682 C9.74430972,13.5842138 10.5953988,12.696512 10.8033949,11.6789554 C10.8957409,11.2252839 10.7992352,10.7083801 10.6977377,10.1615772 C10.5687848,9.46866845 10.4348353,8.75270652 10.6711153,8.06493775 C10.8333463,7.59418414 11.1120476,7.28489051 11.4781175,7.17041184 C11.5272029,7.15503312 11.6004148,7.14136348 11.6869379,7.13367325 C11.5022438,6.56294218 11.546337,5.93070673 11.8499996,5.50693443 C12.1486613,5.0900081 12.6328711,4.95416038 13.1844465,5.11820126 C13.2859442,4.93621868 13.4373602,4.70298097 13.6370288,4.48255376 C13.4282084,4.01265316 13.0296953,3.79734403 12.6994274,3.7563338 C12.2742981,3.70336172 11.8874414,3.90328819 11.6636421,4.29202573 C11.6237084,4.37062975 11.4498316,4.81660662 11.407406,4.96527141 C11.405742,5.00371822 11.3982545,5.04302023 11.384943,5.08061184 C11.31506,5.27199288 11.1078987,5.36938942 10.9207107,5.29933303 C10.6428358,5.19424406 10.4248721,5.23696249 10.2717822,5.42492711 C10.0196991,5.73507375 9.96147043,6.43224753 10.3508169,7.11231731 C10.4248615,7.24218301 10.4157097,7.40450694 10.3275211,7.52497857 C10.2393347,7.64459281 10.0887494,7.69841791 9.94816131,7.66082411 C9.78010738,7.61639528 9.46978712,7.56940522 9.28592156,7.76249447 C9.09706801,7.96071054 9.07294165,8.38191286 9.22019809,8.91760479 C9.25929907,9.06028537 9.30089831,9.20297032 9.34166267,9.34564215 C9.42984913,9.65150186 9.52053172,9.96849447 9.59540694,10.2888773 C9.69440852,10.7126496 9.78426049,11.1278699 9.80672348,11.5397 C9.80755559,11.5482439 9.80755559,11.5567878 9.80755559,11.5653319 C9.79507625,12.6606439 8.91404095,13.5090415 8.33083805,14.0694708 C7.87075883,14.5120312 7.3907234,14.9435025 6.92649107,15.3612818 C6.12200204,16.0840897 5.29003859,16.8325318 4.55453375,17.6458246 C4.0545208,18.1985987 3.74503968,18.7283195 3.72591408,19.0623943 C3.70428384,19.4443033 4.0778208,20.0782448 4.43639379,20.4464838 C4.44970503,20.4601539 4.4613529,20.4763873 4.47216802,20.4917656 C4.48714307,20.5028725 4.50295001,20.5148342 4.51626125,20.5293594 C4.87483424,20.8975984 5.48382901,21.2837725 5.86401946,21.2589914 C6.18930369,21.2401952 6.70428913,20.9215046 7.24340519,20.4080348 C8.03626552,19.6527687 8.7650402,18.7983781 9.46883234,17.9712621 C9.87481465,17.4945155 10.2949601,17.0023928 10.7259037,16.5299332 C11.2641678,15.938708 12.0744925,15.0493001 13.1236316,15.014261 C13.1369428,15.0125523 13.1510868,15.0108435 13.1643981,15.0108435 C13.9439472,14.9946104 14.6827106,15.2210214 15.3964276,15.4380278 C15.5694738,15.4909999 15.7433506,15.543972 15.9163968,15.5926703 C16.4455241,15.7430411 16.8723145,15.7097211 17.0869557,15.5021066 C17.3024275,15.293639 17.2699864,14.9553036 17.231716,14.7716216 C17.200934,14.6272306 17.2575057,14.477704 17.3739802,14.3914185 C17.4912853,14.3051264 17.6460195,14.2982914 17.7699951,14.3734766 C18.4314042,14.7776077 19.1177533,14.7101104 19.4538569,14.4349919 C19.6668368,14.2598444 19.7258961,14.0171907 19.6293992,13.712184 C19.5678352,13.5173866 19.671829,13.3080529 19.8615047,13.2439895 C19.8939501,13.2328826 19.9263975,13.2269019 19.9588429,13.2260475 C20.067829,13.1969992 20.4205834,13.0739685 20.6560114,12.9176069 C21.1294018,12.5997832 21.3481961,12.1384127 21.2550174,11.6497021 L21.2550591,11.6499449 Z" id="Shape" fill="#000000"></path>
    </g>
</svg>