<?xml version="1.0" encoding="UTF-8"?>
<svg width="24px" height="24px" viewBox="0 0 24 24" version="1.1" xmlns="http://www.w3.org/2000/svg" xmlns:xlink="http://www.w3.org/1999/xlink">
    <!-- Generator: Sketch 57.1 (83088) - https://sketch.com -->
    <title>crops-lychee</title>
    <desc>Created with Sketch.</desc>
    <g id="crops-lychee" stroke="none" stroke-width="1" fill="none" fill-rule="evenodd">
        <path d="M12.286768,3 C12.7456705,3 13.124313,3.37143217 13.124313,3.82159607 L13.124313,3.82159607 L13.124313,5.48314068 C14.3607251,5.60084696 15.5176748,5.93330458 16.4946777,6.48129617 C17.0727736,6.22678374 17.671142,6.4423177 17.6913985,6.4423177 C17.7716466,6.48129617 17.8308604,6.52103769 17.8511169,6.59899462 C17.8713734,6.61809058 18.0108352,7.02927993 17.9111085,7.51841838 C18.1502931,7.75304831 18.3497465,8.00755683 18.5492,8.26206535 C19.207556,8.18411624 19.7256643,8.55555624 19.7459208,8.575427 C19.8059124,8.61440547 19.8456475,8.67325469 19.8456475,8.75121162 C19.8456475,8.77109021 19.865912,9.43600545 19.4070095,9.9251439 C19.5262108,10.2385056 19.5862025,10.5709632 19.6461941,10.9232994 C20.2445545,11.1388334 20.5234782,11.7059287 20.5437347,11.7257995 C20.584485,11.8037545 20.584485,11.8824744 20.625,11.922981 C20.6047355,11.9420769 20.3452865,12.4900685 19.7671905,12.7445771 C19.7274554,13.1939583 19.6674638,13.6640008 19.5879936,14.0942861 C20.0468921,14.5253541 20.0866272,15.1703985 20.0866272,15.1902693 C20.0866272,15.2682262 20.0671486,15.3270755 20.007157,15.3859247 C19.9876903,15.3859247 19.6285145,15.6992785 19.1298809,15.7772354 C18.9701585,16.1884248 18.8104362,16.5797355 18.6109827,16.9710463 C18.949894,17.596987 18.7309659,18.2626809 18.7107094,18.3016594 C18.6709743,18.3803794 18.6304613,18.4384656 18.5509911,18.4583363 C18.5307266,18.4782071 18.1115552,18.6150132 17.633186,18.5171855 C17.3940014,18.8106686 17.1548168,19.0850557 16.8953678,19.3586602 C17.0550901,20.043454 16.6561752,20.6105494 16.6359187,20.6304202 C16.5961836,20.6892694 16.5361919,20.7282479 16.4567217,20.7282479 C16.4372551,20.7282479 15.9783525,20.7672224 15.51945,20.5325925 C15.299732,20.6892733 15.0808119,20.8260716 14.861094,20.9628778 C14.6016449,21.5108694 14.0632721,21.7646031 14.0430156,21.7844739 C13.9627595,21.8234523 13.8832893,21.8234523 13.8232977,21.7844739 C13.803831,21.7653662 13.6838438,21.7263877 13.544382,21.6086892 C12.9460216,21.8631938 12.5073755,21.9610215 12.3873923,22 L12.3873923,22 L12.2674091,22 C12.1474178,21.9610254 11.7087798,21.8631978 11.1104194,21.6086892 C10.9709655,21.7256246 10.8517601,21.7844739 10.8315037,21.7844739 C10.7512476,21.8234523 10.6717773,21.8234523 10.6117857,21.7844739 C10.5915212,21.7844739 10.0531564,21.5108694 9.79370737,20.9628778 C9.57398943,20.8260755 9.3550693,20.6892694 9.13535137,20.5325925 C8.67644883,20.7672263 8.21833612,20.7282479 8.19807963,20.7282479 C8.13886589,20.7282479 8.05861778,20.6892694 8.01888266,20.6304202 C7.99861818,20.5914456 7.61997173,20.0235754 7.75943359,19.3586602 C7.49998452,19.1041517 7.24133326,18.8106686 7.02161532,18.5171855 C6.54244831,18.6150132 6.12406674,18.4583363 6.10381024,18.4583363 C6.02356214,18.4193579 5.96434839,18.3796163 5.9440919,18.3016594 C5.9238354,18.2626849 5.7049073,17.596987 6.04381863,16.9710463 C5.84436516,16.5988315 5.66438234,16.1884248 5.52492049,15.7772354 C5.00682016,15.6992863 4.66790085,15.4057954 4.64764436,15.3859247 C4.58843061,15.3270755 4.56817412,15.2682262 4.56817412,15.1902693 C4.56817412,15.1703907 4.60790525,14.54445 5.06680779,14.0942861 C4.98733755,13.6640008 4.92734593,13.2138369 4.88761081,12.7445771 C4.30871707,12.5099471 4.05005783,11.9428517 4.02980134,11.922981 C3.99006622,11.8442532 3.99006622,11.7662962 4.02980134,11.707447 C4.02980134,11.6875684 4.32898154,11.1204809 4.92734194,10.9049469 C4.98732957,10.5526107 5.06679981,10.2201531 5.16652654,9.90679142 C4.70763198,9.41765298 4.72788848,8.77183761 4.72788848,8.73285915 C4.72788848,8.67477298 4.7676236,8.59605299 4.82761521,8.55707453 C4.84787968,8.53719594 5.38624448,8.16575594 6.02433601,8.24371287 C6.20352501,7.98920435 6.42324295,7.73469584 6.66242755,7.5000659 C6.56270081,7.03080604 6.72241916,6.60051291 6.72241916,6.58064215 C6.76215428,6.50192216 6.80266727,6.44383599 6.88213751,6.42396523 C6.90240198,6.42396523 7.50076238,6.22831376 8.07885831,6.46294369 C9.0557814,5.91495211 10.2127711,5.58248666 11.449223,5.46478821 L11.449223,5.46478821 L11.449223,3.82159607 C11.449223,3.37143217 11.8278655,3 12.286768,3 Z M12.3474577,5.91357861 L12.2874661,5.91357861 C10.7915651,5.91357861 9.37508645,6.2857934 8.23836125,6.95070864 C8.17837363,6.98968711 8.07864689,6.98968711 7.99917665,6.95070864 C7.67973198,6.79403173 7.36029529,6.81390249 7.18109831,6.85288095 C7.14136319,7.00956178 7.12188457,7.24419171 7.20135481,7.49870023 C7.24108993,7.59653183 7.20135481,7.69435952 7.14136319,7.75320875 C6.84218299,8.02759585 6.58353173,8.34017489 6.36381379,8.65353654 C6.30381819,8.73149347 6.20409146,8.77123499 6.10436472,8.75136423 C5.76545339,8.67263642 5.42653807,8.81021346 5.26681972,8.88817039 C5.28628638,9.08382577 5.36654646,9.43616197 5.64546219,9.67079191 C5.72493243,9.74874101 5.76466755,9.8465687 5.72493243,9.94439639 C5.58547855,10.3166112 5.50600831,10.7270179 5.4460167,11.1382073 C5.4460167,11.2559135 5.36654646,11.3338705 5.26681972,11.3537412 C4.92790839,11.4316903 4.68872379,11.6862028 4.58899706,11.8428797 C4.68872379,11.9804645 4.90844173,12.254069 5.24735307,12.3518967 C5.3470798,12.3717753 5.42655004,12.469603 5.42655004,12.5674307 C5.44680653,13.1154223 5.52627677,13.6626312 5.62600351,14.1716483 C5.64626,14.2496013 5.60574701,14.347429 5.52627677,14.4062782 C5.24656722,14.6210295 5.14684048,14.954262 5.10710536,15.1300466 C5.22629876,15.2087744 5.46628117,15.3257098 5.7451969,15.3455805 C5.84493161,15.3646882 5.92517972,15.4235375 5.96491484,15.5213652 C6.12463717,16.0105036 6.32409064,16.4797635 6.56327524,16.9299274 C6.62326685,17.0078765 6.60301036,17.1255749 6.52354012,17.2035318 C6.32408665,17.5161109 6.36382177,17.8883178 6.40355689,18.0641025 C6.56327923,18.1030809 6.80246383,18.1221886 7.0619129,18.0442317 C7.16163165,18.0044902 7.28083701,18.0442317 7.34082863,18.1221886 C7.61974436,18.4745248 7.91892456,18.8260784 8.23836923,19.1394401 C8.29836084,19.218164 8.33809596,19.3159917 8.29836084,19.3939486 C8.17836964,19.7653808 8.31861734,20.0986132 8.39808758,20.2743978 C8.53754544,20.2545192 8.81646117,20.2155408 9.03617911,20.0588638 C9.13590585,20.0000146 9.25588907,20.0000146 9.33535931,20.0588638 C9.59480838,20.2545192 9.87452193,20.4302999 10.1534377,20.5869768 C10.1931728,20.6068476 10.2329079,20.6458261 10.2531644,20.7046753 C10.3528911,20.9981584 10.5920717,21.1739352 10.7315336,21.2717629 C10.7907473,21.2327844 10.8507389,21.1938059 10.9107306,21.1349567 C10.9504657,21.0959782 11.0104573,21.0761075 11.0704489,21.0761075 C11.110184,21.0761075 11.1304405,21.0761075 11.1701756,21.0959782 C11.7288049,21.331383 12.1479683,21.4681891 12.3271653,21.5071676 C12.5071521,21.4674104 12.9255257,21.3306082 13.484155,21.0959782 C13.5644071,21.0569998 13.6641338,21.0761075 13.7436041,21.1349567 C13.8028178,21.1938059 13.8830659,21.2327844 13.922801,21.2717629 C14.0622589,21.1938137 14.3014435,20.9981584 14.4011702,20.7046753 C14.4214267,20.6649338 14.4611618,20.6068476 14.500897,20.5869768 C14.7806105,20.430296 15.0595262,20.2545192 15.3189753,20.0588638 C15.418702,20.0000146 15.5386853,20.0000146 15.6181555,20.0588638 C15.8370756,20.2155486 16.0965287,20.2743978 16.256247,20.2743978 C16.3357173,20.098621 16.475957,19.7462848 16.3559738,19.3939486 C16.3162387,19.296117 16.3559738,19.1982893 16.4159654,19.1394401 C16.7354101,18.8268611 17.0345903,18.4936208 17.313506,18.1221886 C17.3727038,18.0442317 17.492695,18.0052532 17.5924217,18.0442317 C17.8518708,18.1229517 18.1113159,18.0839732 18.2507777,18.0641025 C18.2905128,17.8883257 18.3107693,17.5168935 18.1113159,17.2035318 C18.0318456,17.1255827 18.0318456,17.0277551 18.0715808,16.9299274 C18.3107654,16.4797635 18.5102228,16.0105036 18.6699412,15.5213652 C18.6902056,15.4235375 18.7899324,15.3455805 18.8896591,15.3455805 C19.1685748,15.3455805 19.4077674,15.2080035 19.5277506,15.1300466 C19.4872217,14.9542698 19.3874949,14.6218122 19.1085792,14.4062782 C19.029109,14.3474329 18.988596,14.2694759 19.0088525,14.1716483 C19.1085792,13.6435353 19.1685708,13.1154223 19.208306,12.5674307 C19.208306,12.4695952 19.2877762,12.3717675 19.3875029,12.3518967 C19.7264821,12.254069 19.9454202,11.9995566 20.0459267,11.8428797 C19.9462,11.7060774 19.7070154,11.4316981 19.3681041,11.3537412 C19.2683774,11.3139919 19.2091636,11.2360349 19.1889071,11.1382073 C19.1297093,10.7270179 19.0494532,10.3158286 18.9099914,9.94439639 C18.8897349,9.84657653 18.9099914,9.72964113 18.9894616,9.67079191 C19.2683774,9.43616197 19.3478476,9.08382577 19.3681041,8.88817039 C19.2083817,8.7903427 18.8897349,8.6734073 18.5305591,8.75136423 C18.4308284,8.77123499 18.3311016,8.73149347 18.27111,8.65353654 C18.0521899,8.3202963 17.7927408,8.02681323 17.4935606,7.75320875 C17.433569,7.69435561 17.3938339,7.59652792 17.433569,7.49870023 C17.5138171,7.24419171 17.474082,6.98968711 17.4538255,6.85288095 C17.2738387,6.83301019 16.9349274,6.79403173 16.6357472,6.95070864 C16.5562809,6.98968711 16.4760328,6.98968711 16.3965626,6.95070864 C15.2598772,6.28501078 13.8433587,5.91357861 12.3474577,5.91357861 L12.3474577,5.91357861 Z M13.2528129,18.3735112 C13.3024713,18.6978516 13.4894408,18.9200924 13.5892537,19.005517 C13.6890692,18.9200924 13.8882039,18.6978516 13.9256946,18.3735112 C13.9378599,18.25405 14.0128436,18.1853105 14.0999977,18.2026619 C14.1871754,18.2200031 14.2494977,18.3221164 14.2256395,18.4415776 C14.1379893,19.1249749 13.6769063,19.4319638 13.6520746,19.4493152 C13.6436353,19.4608828 13.6243758,19.4647387 13.608723,19.466024 L13.5734866,19.466024 C13.5605389,19.4647387 13.5439844,19.4608828 13.52743,19.4493152 C13.5021022,19.4326403 13.0410191,19.1249749 12.9538651,18.4415776 C12.9412012,18.3394746 12.9913557,18.2200134 13.0785098,18.2026619 C13.1529999,18.1853036 13.2401539,18.25405 13.2528129,18.3735112 Z M10.6951205,18.3735112 C10.744779,18.6978516 10.9317485,18.9200924 11.0315614,19.005517 C11.1313768,18.9200924 11.3305116,18.6978516 11.3680023,18.3735112 C11.3801676,18.25405 11.4551513,18.1853105 11.5423053,18.2026619 C11.6294831,18.2200031 11.6918054,18.3221164 11.6679472,18.4415776 C11.580297,19.1249749 11.119214,19.4319638 11.0943823,19.4493152 C11.085943,19.4608828 11.0666835,19.4647387 11.0510307,19.466024 L11.0157943,19.466024 C11.0028466,19.4647387 10.9862921,19.4608828 10.9697377,19.4493152 C10.9444099,19.4326403 10.4833268,19.1249749 10.3961728,18.4415776 C10.3835089,18.3394746 10.4336634,18.2200134 10.5208175,18.2026619 C10.5953076,18.1853036 10.6824616,18.25405 10.6951205,18.3735112 Z M15.4491714,14.5247729 C15.6369357,15.0736869 15.3285371,15.5796975 15.3149006,15.5943803 C15.2970676,15.62337 15.273174,15.645834 15.2433748,15.657589 L15.1942663,15.6666667 L15.1407675,15.6666667 C14.9797499,15.6666667 14.5501907,15.6378678 14.2680072,15.2617472 C14.2145084,15.1894608 14.2145084,15.0736854 14.2952803,15.0025282 C14.3760576,14.9443607 14.4835763,14.9590436 14.5370752,15.03133 C14.7117346,15.2481834 14.9666343,15.2911041 15.1009051,15.3057869 C15.154404,15.1753245 15.2482888,14.9149778 15.154404,14.6405208 C15.1220952,14.5709408 15.1498727,14.4829313 15.2036313,14.4357642 L15.2482888,14.408973 L15.2482888,14.4090019 C15.342175,14.3796363 15.4365835,14.4231209 15.4491714,14.5247729 Z M9.33773441,14.4000129 L9.38795897,14.4089398 C9.46735734,14.4386005 9.50731559,14.5549137 9.48084946,14.6427223 C9.38743554,14.9204119 9.48084946,15.1832653 9.53378171,15.3144089 C9.66663045,15.3001624 9.91883049,15.2562552 10.0916401,15.0373031 C10.1580645,14.9500638 10.2644498,14.9500638 10.3308741,15.0082234 C10.4102725,15.0812074 10.4102725,15.1980986 10.3573402,15.2710826 C10.0939171,15.5994884 9.723317,15.6678926 9.53569261,15.6666502 L9.48032604,15.6639177 L9.42739379,15.6639177 C9.38795365,15.6639177 9.33450329,15.6348379 9.30803717,15.5909337 C9.29454505,15.5618568 8.98941276,15.065799 9.17518843,14.5110036 C9.19138535,14.4586601 9.23597343,14.4219171 9.28631434,14.4071789 L9.33773441,14.4000129 Z M11.9749549,14.5735112 C12.0247764,14.8978516 12.2123599,15.1200924 12.3125006,15.205517 C12.4126439,15.1200924 12.6124326,14.8978516 12.6500464,14.5735112 C12.6622517,14.45405 12.7374816,14.3853105 12.8249219,14.4026619 C12.8948741,14.4160018 12.9410657,14.4844487 12.9502415,14.572458 L12.9499759,14.6415776 C12.8620629,15.3249749 12.3994644,15.6319638 12.3755278,15.6493152 C12.3670608,15.6608828 12.3477381,15.6647387 12.3320339,15.666024 L12.2966818,15.666024 C12.2836915,15.6647387 12.2670827,15.6608828 12.2504738,15.6493152 C12.2250629,15.6326403 11.7624656,15.3249749 11.6750253,14.6415776 C11.6623198,14.5394746 11.7126391,14.4200134 11.8000793,14.4026619 C11.8748141,14.3853036 11.9622544,14.45405 11.9749549,14.5735112 Z M6.99140215,13.1665322 C7.07679533,13.2217571 7.09065845,13.3186835 7.03409874,13.4020699 C6.863866,13.6240786 6.89214585,13.8872287 6.92042571,14.0258455 C7.04795618,14.0393828 7.33186196,14.0675442 7.55921371,13.9148439 C7.63019015,13.8596135 7.74386035,13.8731508 7.80042005,13.9565371 C7.85697834,14.0258455 7.84311664,14.1368499 7.78655694,14.2061583 C7.5736276,14.3583068 7.34627586,14.4 7.14776894,14.4 C6.920985,14.4 6.75074942,14.3447695 6.73633269,14.3447695 C6.67921936,14.3171543 6.63707639,14.2889984 6.62265965,14.233768 C6.60824292,14.2061555 6.4235906,13.6657717 6.75019581,13.2082254 C6.80674984,13.124839 6.90600897,13.1113017 6.99140215,13.1665322 Z M17.8789316,13.1861124 C18.1983587,13.6515836 18.018004,14.2025559 18.0038798,14.2306836 C17.9761738,14.2874895 17.9479254,14.3294056 17.8925134,14.3437447 C17.8789399,14.3437447 17.7121642,14.4 17.4894258,14.4 C17.3085203,14.4 17.0722084,14.3580952 16.8635997,14.2025616 C16.7799393,14.146312 16.7663575,14.0475871 16.8217695,13.9626536 C16.877176,13.8777201 16.974421,13.8639316 17.0580814,13.9201868 C17.2808199,14.0895033 17.544835,14.0613756 17.6839075,14.033248 C17.6974893,13.906404 17.7257432,13.6240264 17.572541,13.3978984 C17.517129,13.327304 17.5307108,13.2142457 17.6143712,13.1579904 C17.6974837,13.115518 17.7952711,13.1298572 17.8789316,13.1861124 Z M13.253565,12.0401779 C13.3033476,12.3645183 13.4907845,12.586759 13.590847,12.6721837 C13.6909119,12.586759 13.8905445,12.3645183 13.9281289,12.0401779 C13.9408369,11.9207167 14.0155195,11.852644 14.1038673,11.8693286 C14.1912392,11.8860035 14.2415141,11.988783 14.2288236,12.1082443 C14.1409543,12.7916415 13.6787187,13.0986304 13.6538249,13.1159819 C13.6411343,13.1333333 13.6040373,13.1333333 13.5913468,13.1333333 C13.5786562,13.1333333 13.5537624,13.1333333 13.5288686,13.1159819 C13.5034775,13.099307 13.0412419,12.7916415 12.95387,12.1082443 C12.9411744,12.0061413 12.9914543,11.8866801 13.0788262,11.8693286 C13.1535026,11.8519703 13.2408745,11.9207167 13.253565,12.0401779 Z M11.4918785,11.8689657 L11.5423303,11.8693286 C11.6294831,11.8866698 11.6918054,11.988783 11.6679472,12.1082443 C11.580297,12.7916415 11.119214,13.0986304 11.0943823,13.1159819 C11.0817234,13.1333333 11.0447189,13.1333333 11.03206,13.1333333 C11.0194011,13.1333333 10.9945694,13.1333333 10.9697377,13.1159819 C10.9444099,13.099307 10.4833268,12.7916415 10.3961728,12.1082443 C10.3835089,12.0061413 10.4336634,11.8866801 10.5208175,11.8693286 C10.5953076,11.8519703 10.6824616,11.9207167 10.6951205,12.0401779 C10.744779,12.3645183 10.9317485,12.586759 11.0315614,12.6721837 C11.1313768,12.586759 11.3305116,12.3645183 11.3680023,12.0401779 C11.3753015,11.9685012 11.4052153,11.9150842 11.4468037,11.8875669 L11.4918785,11.8689657 Z M17.0308006,10.6019111 C17.7163421,10.688218 18.0242942,11.1422354 18.0417001,11.1666866 C18.0758435,11.2160726 18.0758435,11.264975 18.0417001,11.3018911 C18.0262596,11.3249123 17.7620965,11.7135383 17.1823504,11.8406892 L17.0308006,11.8666667 L16.9966572,11.8666667 C16.8942304,11.8666667 16.8085377,11.8177643 16.7911318,11.7439321 C16.7737191,11.6705834 16.8426811,11.5847649 16.9625172,11.5723 C17.2878787,11.522887 17.5108168,11.3387912 17.5965095,11.227563 C17.5108168,11.1292771 17.2878787,10.9331939 16.9625206,10.8962777 C16.8426845,10.8842988 16.7737293,10.8104642 16.7911352,10.7246457 C16.8078625,10.6388272 16.9109645,10.5894461 17.0308006,10.6019111 Z M7.5942022,10.6016361 C7.69662581,10.5890297 7.81646222,10.651074 7.83386817,10.7257147 C7.85128097,10.7998665 7.78231874,10.8866247 7.66248232,10.8992261 C7.33712343,10.948659 7.11418472,11.1347794 7.0284918,11.234139 C7.11418472,11.3335011 7.31971063,11.5317315 7.66248232,11.5690518 C7.78231874,11.5811619 7.85127412,11.6558051 7.83386817,11.7425633 C7.82048636,11.8022758 7.76296214,11.8458586 7.68770111,11.8609032 L7.62834226,11.8666419 L7.5942022,11.8666667 C6.90865882,11.7799109 6.60003678,11.3209133 6.58329992,11.309281 C6.54915644,11.2593542 6.54915644,11.2099164 6.58329992,11.172596 C6.60002718,11.1473833 6.90865882,10.6883943 7.5942022,10.6016361 Z M11.978413,9.50684458 C12.0280582,9.83118492 12.2149777,10.0534257 12.314764,10.1388504 C12.4145527,10.0534257 12.6136343,9.83118492 12.6511149,9.50684458 C12.663277,9.38738332 12.7382407,9.31864381 12.8253714,9.33599526 C12.9125022,9.35267016 12.9626383,9.45544969 12.9499828,9.57491095 C12.8623561,10.2583082 12.4013963,10.5652971 12.3765712,10.5826485 C12.3639157,10.6 12.3269211,10.6 12.3142655,10.6 C12.30161,10.6 12.2767849,10.6 12.2519599,10.5826485 C12.2266388,10.5659737 11.765679,10.2583082 11.6785483,9.57491095 C11.6537506,9.4547885 11.7160525,9.35267972 11.8041565,9.33599526 C11.8786267,9.31863697 11.9657575,9.38738332 11.978413,9.50684458 Z M14.055784,8.12976688 C14.1117287,8.15732977 14.1530094,8.18543224 14.1671312,8.24055801 C14.1812529,8.26811813 14.3621271,8.80747741 14.0422045,9.26415633 C14.0145033,9.30577045 13.9585586,9.33333333 13.9031561,9.33333333 C13.8754549,9.33333333 13.8336319,9.33333333 13.8059307,9.30577045 C13.7222847,9.25065021 13.7087053,9.15390755 13.7641077,9.07067931 C13.9308573,8.84909153 13.9031561,8.58644027 13.8754549,8.44808626 C13.7505338,8.43457461 13.472437,8.40646661 13.2497371,8.55887739 C13.1666418,8.61454412 13.0688713,8.60049289 12.9852253,8.4891608 C12.9298229,8.41998379 12.9434023,8.30919544 13.0270483,8.25406966 C13.4854631,7.93629264 14.0280828,8.11571565 14.055784,8.12976688 Z M11.5979387,8.2585127 C11.6815992,8.31487358 11.695181,8.41379371 11.6397689,8.49889524 C11.5843625,8.58399677 11.4871175,8.59781255 11.403457,8.54144601 C11.1807186,8.37179467 10.9167034,8.39997794 10.777631,8.42816121 C10.7640492,8.55525612 10.7357952,8.83819226 10.8889974,9.06476752 C10.9444095,9.13550156 10.9308276,9.24878353 10.8471672,9.30515006 C10.8194612,9.31896584 10.777631,9.33333333 10.749925,9.33333333 C10.6945171,9.33333333 10.6385613,9.31896442 10.5826069,9.29133429 C10.2631797,8.82494236 10.4435345,8.27288019 10.4576587,8.24469693 C10.4853647,8.18777866 10.5136131,8.14577962 10.5690251,8.13141213 C10.5967283,8.11704463 11.1388884,7.93302296 11.5979387,8.2585127 Z M12.2867201,3.46937726 C12.0872627,3.46937726 11.9275443,3.62605808 11.9275443,3.82171346 L11.9275443,3.82171346 L11.947794,3.82171346 L11.947015,5.44580964 C12.0467417,5.42593888 12.1667329,5.42593888 12.2664597,5.42593888 L12.2664597,5.42593888 L12.3264513,5.42593888 C12.426178,5.42593888 12.5461692,5.44580964 12.6458959,5.44580964 L12.6458959,5.44580964 L12.6458959,3.82171346 C12.6458959,3.62605417 12.4861776,3.46937726 12.2867201,3.46937726 Z" id="Combined-Shape" stroke="#000000" stroke-width="0.2" fill="#000000"></path>
    </g>
</svg>