<?xml version="1.0" encoding="UTF-8"?>
<svg width="24px" height="24px" viewBox="0 0 24 24" version="1.1" xmlns="http://www.w3.org/2000/svg" xmlns:xlink="http://www.w3.org/1999/xlink">
    <!-- Generator: Sketch 57.1 (83088) - https://sketch.com -->
    <title>crops-winegrapes</title>
    <desc>Created with Sketch.</desc>
    <g id="crops-winegrapes" stroke="none" stroke-width="1" fill="none" fill-rule="evenodd">
        <path d="M17.8151974,4.73978029 C17.6581787,4.49987461 17.4330589,4.62996733 17.2552075,4.74991692 C17.0397022,4.89436419 16.8113789,5.01854035 16.5718579,5.11314891 C16.1664831,5.27364611 15.7290737,5.35052448 15.2964634,5.30743488 C15.385387,4.69923701 15.3164914,4.00741599 14.9455802,3.50818555 C14.5898774,3.0283742 13.9497807,2.819738 13.4474818,3.18718683 C12.9780173,3.53097811 12.9980543,4.21436545 13.2279773,4.70429722 C13.4795369,5.23985734 14.0186899,5.60138097 14.5394055,5.78975471 C14.1837028,6.7518859 13.3305207,7.56450313 12.1271732,8.08566112 L12.1271732,5.88771512 C12.1271732,5.4704211 11.5119125,5.46957773 11.5119125,5.88771512 L11.5119125,8.0940948 C11.1321735,8.15998344 10.7820902,8.34498588 10.5073147,8.62796819 C9.9112911,8.01471011 8.97718172,7.89644401 8.25853665,8.33062701 C7.50869786,8.78509408 7.14337653,9.74806863 7.39331596,10.6239384 L7.39331596,10.6256278 C6.5873859,10.8503312 6.01137878,11.6333873 6.00016052,12.511052 C5.98894473,13.4056056 6.56654906,14.2317384 7.39331596,14.4581285 C7.08968477,15.5098081 7.69052792,16.6703469 8.70554409,16.949307 C8.40111307,18.00436 9.00435573,19.1582817 10.0177722,19.4404855 C9.65567077,20.6948976 10.5785619,21.9991334 11.8178816,22 C13.0588216,22.0008432 13.9817537,20.6957626 13.6196112,19.4404855 C14.6346274,19.1575032 15.2378701,18.0078416 14.9318394,16.949307 C15.9460557,16.6663247 16.5500982,15.5175065 16.2440675,14.4581285 C17.0620157,14.2300516 17.6364231,13.4309499 17.6380228,12.5414565 C17.6388238,11.6528064 17.0612158,10.8528613 16.2440675,10.6256278 C16.4828092,9.79949503 16.1687616,8.87282854 15.4838103,8.39805577 C14.7531882,7.8912134 13.7606085,7.98160512 13.1300277,8.62866278 C13.0571255,8.55348195 12.9778143,8.48674994 12.8945059,8.42508462 C14.0072665,7.81773012 14.7955591,6.95105086 15.1416433,5.93823111 C15.6527609,6.00749755 16.1742969,5.94076532 16.6613784,5.76759836 C16.9441727,5.66707758 17.2157488,5.53193115 17.4721075,5.36974505 C17.6779942,5.24050219 18.0120603,5.04031265 17.8149923,4.73957637 C17.7188578,4.59259468 17.9119287,4.88740143 17.8149923,4.73957637 L17.8151974,4.73978029 Z M13.3881912,9.31299577 C13.7839474,8.68537882 14.6275314,8.52487946 15.2019388,8.98016828 C15.4574976,9.1829009 15.6345492,9.48277218 15.6906199,9.81475631 C15.721063,9.99721568 15.7162558,10.1805184 15.6770009,10.3621236 C15.6345418,10.5580985 15.4478778,10.7718057 15.5103678,10.9787768 C15.564843,11.1603906 15.7026368,11.1857327 15.8556522,11.207697 C16.0294961,11.2330391 16.2001367,11.2727401 16.3555515,11.3622798 C16.6391457,11.5244659 16.8522515,11.7897159 16.9563947,12.110693 C17.1790985,12.7957671 16.836226,13.4994169 16.228172,13.7781607 C15.9670144,13.8981114 15.3805888,13.8203961 15.5199864,14.3061089 C15.578469,14.5088415 15.6834161,14.6701843 15.7042447,14.8898059 C15.7218694,15.0739541 15.705847,15.255568 15.6545747,15.4329563 C15.5608438,15.7564851 15.343745,16.0377807 15.0617504,16.1974367 C14.9239566,16.2751519 14.7789561,16.3283684 14.6243411,16.3537106 C14.4464917,16.383276 14.2678385,16.3697601 14.2045487,16.5919295 C14.1476698,16.7912843 14.2974776,16.9543181 14.3487494,17.1401618 C14.4032246,17.3378255 14.4176463,17.5549257 14.3799923,17.7585017 C14.3207099,18.0828739 14.1588881,18.3827452 13.9057288,18.5846344 C13.7831566,18.6826208 13.6445711,18.7527327 13.4979545,18.7983481 C13.345741,18.8456524 13.1278341,18.8160872 12.9980551,18.9166099 C12.8258149,19.0483872 12.8754829,19.2443556 12.9523905,19.4090718 C13.042116,19.6050466 13.0925858,19.8238357 13.0901822,20.0426139 C13.0821711,20.8374988 12.3651589,21.4524436 11.6273383,21.3333558 C10.8262277,21.2041129 10.3391463,20.2858931 10.6523756,19.4977767 C11.1907287,19.4546958 11.8043898,19.1362315 12.075166,18.6201121 C12.2065488,18.3709294 12.0222926,18.0414753 11.7338809,18.1293369 C11.6065035,18.1681946 11.5520262,18.2872997 11.4719234,18.386975 C11.3821979,18.4984768 11.2764489,18.5939309 11.1578943,18.6691139 C10.1380586,19.3102464 8.87384129,18.1783388 9.33854774,17.0092365 C9.78075615,16.9737588 10.19335,16.7769428 10.5073791,16.4542573 C11.0865856,17.049783 11.9950591,17.1866248 12.7079617,16.782003 C12.9619209,16.6375557 13.4193672,16.3039 13.4393837,15.9668556 C13.4497982,15.7903085 13.3144079,15.6357365 13.1493703,15.6272812 C12.941084,15.6154552 12.8689755,15.8080517 12.7455952,15.9457498 C12.1992231,16.5556344 11.2771318,16.4745414 10.7988691,15.8241102 C10.7059381,15.6974018 10.6057983,15.6070187 10.4415667,15.6424964 C10.2765353,15.6771307 10.2084444,15.8502979 10.1010814,15.967712 C9.85594101,16.2346487 9.50505781,16.3824759 9.15335425,16.3672736 C8.28733372,16.3292615 7.68811076,15.373873 8.02777572,14.5198659 C8.46998413,14.4843882 8.88257799,14.2875721 9.19660708,13.9648867 C9.91681081,14.7048661 11.1008801,14.7048661 11.8211044,13.9648867 C12.2376769,14.3931661 12.8297218,14.5925036 13.4041293,14.5063503 C13.8968096,14.4320151 14.4543999,14.1135572 14.7019398,13.6388277 C14.8261138,13.4006088 14.6626841,13.0779233 14.3822913,13.141284 C14.2613229,13.1691606 14.2068456,13.2629236 14.1355513,13.3575322 C14.0490292,13.4732595 13.9488894,13.5746237 13.8319201,13.6565601 C13.3864918,13.9682601 12.7824493,13.9462893 12.3594575,13.6016525 C12.1848137,13.4597397 12.0678444,13.1446553 11.8203045,13.1446553 C11.5767638,13.1446553 11.471021,13.4377797 11.3019884,13.5822118 C10.8870155,13.9386752 10.2853725,13.9716314 9.83272518,13.6734426 C9.72377275,13.6016417 9.6244389,13.5104109 9.54111209,13.4073492 C9.46100103,13.3085174 9.41293276,13.19617 9.28635312,13.1581665 C9.0243956,13.0787624 8.9210523,13.3397803 8.76561692,13.5002711 C8.42033259,13.8558911 7.89959639,13.9707837 7.44776941,13.7959255 C6.8941988,13.5830573 6.55291366,12.9799348 6.62742173,12.3649684 C6.69792036,11.7863316 7.13533999,11.3166623 7.6808917,11.2262922 C8.30817055,12.1250627 9.55310967,12.2965475 10.3773745,11.5962711 C10.5384005,11.4594272 10.7098409,11.2659954 10.5616328,11.0421353 C10.3933979,10.786184 10.1698758,10.9357001 10.0032426,11.0809929 C9.66677704,11.3749606 9.19731258,11.4644874 8.78393939,11.3149734 C7.82099478,10.9669437 7.63352483,9.54106835 8.4883271,8.94381264 C8.89930078,8.6566135 9.44647268,8.64225462 9.86544474,8.92100495 C9.9792044,8.99618577 10.0785506,9.08910327 10.1658561,9.19721869 C10.2267423,9.27239951 10.2692014,9.36278258 10.3541197,9.41093239 C10.5688252,9.53426086 10.7114221,9.37292029 10.8356023,9.21157756 C11.1672688,8.78076804 11.7312578,8.60759653 12.2303574,8.7875366 C12.4979343,8.88383406 12.6813845,9.06459371 12.8584361,9.28761041 C12.9906207,9.45401983 13.2485729,9.53257629 13.3879705,9.31295253 C13.6234923,8.93789177 13.273411,9.49372299 13.3879705,9.31295253 L13.3881912,9.31299577 Z M14.6940206,5.16622161 C14.3751719,5.0437365 14.0571232,4.84016267 13.8560559,4.5453516 C13.7030426,4.32149153 13.546026,3.84507527 13.8584591,3.68457591 C14.1540714,3.53337089 14.443285,3.82395432 14.5650451,4.08413758 C14.7188603,4.41272662 14.7404908,4.80807145 14.6940263,5.16622161 L14.6940206,5.16622161 Z" id="Shape" fill="#000000"></path>
    </g>
</svg>