<?xml version="1.0" encoding="UTF-8"?>
<svg width="24px" height="24px" viewBox="0 0 24 24" version="1.1" xmlns="http://www.w3.org/2000/svg" xmlns:xlink="http://www.w3.org/1999/xlink">
    <!-- Generator: Sketch 57.1 (83088) - https://sketch.com -->
    <title>crops-assorted citruses</title>
    <desc>Created with Sketch.</desc>
    <g id="crops-assorted-citruses" stroke="none" stroke-width="1" fill="none" fill-rule="evenodd">
        <path d="M3.05700112,14.3520244 C4.43436693,16.1997757 6.56964296,17.2165358 8.77168467,17.2165358 C9.65876733,17.2165358 10.5557354,17.0493055 11.4191553,16.7073722 C13.8029491,18.0257966 16.7880428,17.921292 19.0949714,16.264661 C22.2540334,13.9951072 22.9442633,9.62399424 20.6334817,6.5205824 C20.5369449,6.39142711 20.3529919,6.36305721 20.2214843,6.457872 C20.0899806,6.55268488 20.0618557,6.73335284 20.1576317,6.86251195 C22.276192,9.70772023 21.6436985,13.7151312 18.7468149,15.7966227 C15.8430622,17.8825099 11.7748504,17.2628787 9.65025767,14.4110003 C9.55447976,14.281845 9.36976784,14.2534751 9.23826026,14.3482899 C9.10675657,14.4423574 9.0786317,14.6237707 9.17440961,14.7529299 C9.35380323,14.993321 9.55143823,15.2158042 9.75667801,15.4293238 C9.26487702,15.5166715 8.75861759,15.5316038 8.25693115,15.4823291 L8.84527093,11.7688612 C9.05658209,11.7621422 9.26333972,11.7128687 9.45641729,11.6225357 L10.7022755,13.2970746 L10.1663792,13.6815514 C9.99078797,13.8151865 10.0128317,14.0010854 10.0850442,14.097391 C11.1887699,15.5845364 12.9819861,16.499009 14.9043942,16.499009 C16.1715412,16.499009 17.3831506,16.1115507 18.4086684,15.3791585 C18.4124691,15.3769188 18.4155098,15.3746792 18.4193105,15.3724395 C18.422351,15.3701998 18.4253916,15.3701998 18.4284321,15.36796 C18.4307124,15.366467 18.4314727,15.3642273 18.4337531,15.3627342 C21.0432777,13.4858753 21.6963399,9.83209427 19.7214299,7.17743295 C19.7199095,7.17593992 19.7183894,7.17519341 19.7168692,7.17295367 C19.6142512,7.04155844 19.4333437,7.02588084 19.3094253,7.11472121 L15.8561351,9.59488967 C15.7413549,8.33842643 15.2837521,7.14625607 14.5175327,6.1187932 C14.4217548,5.98963791 14.2370428,5.96126801 14.1055353,6.0560828 C13.9740277,6.15089759 13.9459067,6.33156364 14.0416846,6.46072275 C14.8155127,7.49919415 15.2419491,8.72129396 15.2875428,10.003138 L14.7508876,10.3883601 C14.7881351,9.09457106 14.392871,7.83059679 13.6053628,6.77351028 C13.5589946,6.71154524 13.4898217,6.66973767 13.4122872,6.65779265 C13.3347526,6.64659434 13.256459,6.66451187 13.1926084,6.71005259 L7.5859253,10.7361934 C7.58516521,10.7361934 7.58516521,10.7361934 7.58440492,10.7369399 C7.58364483,10.7369399 7.58364483,10.7376866 7.58364483,10.7376866 L4.03150013,13.2895252 C3.89999644,13.3835927 3.87187156,13.565006 3.96764948,13.6941651 C4.90793453,14.9573558 6.29442686,15.7859771 7.87162269,16.0264064 C8.17643695,16.0726939 8.48580474,16.0965839 8.79367415,16.0965839 C9.2923249,16.0965839 9.78945781,16.0323789 10.2675787,15.9121834 C10.4363299,16.0555236 10.6111564,16.1913911 10.7920718,16.3183141 C8.13623354,17.1746287 5.21652393,16.2697867 3.53191143,14.0107273 C3.43613351,13.881572 3.2514216,13.8532021 3.11991402,13.9480169 C2.98916925,14.0413371 2.96104437,14.2227523 3.05682229,14.3519114 L3.05700112,14.3520244 Z M14.9037754,15.9205565 C14.7266624,15.9205565 14.5495534,15.9086039 14.3731915,15.8914336 L14.9607724,12.170512 C15.1698068,12.1630465 15.3773233,12.1160122 15.5734366,12.0249319 L17.8340515,15.0612605 C16.95989,15.621931 15.953462,15.9205565 14.9036392,15.9205565 L14.9037754,15.9205565 Z M19.4129403,7.75684422 C20.0848978,8.76993484 20.3737552,9.95855037 20.2498563,11.1574482 L16.4688674,10.5818511 C16.4620262,10.3720583 16.4110959,10.1675022 16.3191204,9.97863711 L19.4129403,7.75684422 Z M16.3784194,11.1536258 L20.1578516,11.7292228 C19.9039629,12.9125252 19.2586067,13.954819 18.3091951,14.7170069 L16.0509154,11.6837362 C16.196101,11.5306909 16.3070808,11.3515117 16.3785362,11.1536831 L16.3784194,11.1536258 Z M14.6817809,11.1536258 L15.8257879,10.3324008 C15.8751976,10.4772337 15.8911603,10.6280449 15.8691165,10.7758573 C15.8683564,10.7788434 15.8668361,10.7803366 15.866076,10.7833229 C15.8653159,10.7863091 15.8668361,10.7885489 15.866076,10.7907884 C15.8257889,11.0311796 15.6950441,11.2566442 15.4791619,11.4111841 C15.2655545,11.5649767 15.0086302,11.619467 14.764627,11.5851342 C14.7608264,11.5843877 14.7577856,11.5821481 14.753985,11.5814014 C14.7501843,11.5806549 14.7463837,11.5821481 14.7425831,11.5821481 C14.6939342,11.5739359 14.6468051,11.5612434 14.5996761,11.546313 C14.6308425,11.4201431 14.6582065,11.2909954 14.681772,11.1536181 L14.6817809,11.1536258 Z M13.7909037,15.7995697 C12.6012835,15.5547064 11.5135535,14.9126568 10.7419827,13.9869081 L13.8395525,11.7628409 C13.9125258,11.8292858 13.9892995,11.8882636 14.0713935,11.9390309 C14.1686912,11.998756 14.2713014,12.0480287 14.3777256,12.0853565 L13.7909037,15.7995697 Z M13.2960475,7.35300698 C13.9649693,8.36235164 14.2545856,9.55318416 14.1322046,10.7551399 L10.3504373,10.1787974 C10.3443562,9.96900465 10.2941875,9.76444857 10.2029709,9.57481898 L13.2960475,7.35300698 Z M10.2599699,10.7513175 L13.5490216,11.252263 L11.1772927,12.9551833 L9.93143443,11.2813897 C10.0781419,11.1283444 10.1891177,10.9484199 10.2598142,10.7513175 L10.2599699,10.7513175 Z M9.70963457,9.93009255 C9.75752256,10.0719401 9.77424609,10.2235005 9.74992166,10.3780404 C9.74992166,10.3787869 9.74916138,10.3795336 9.74916138,10.3802801 L9.74916138,10.3840129 C9.71039408,10.6341129 9.57357015,10.8558507 9.36376516,11.0081354 C9.15169507,11.1604354 8.89475129,11.2201643 8.63934481,11.1805909 C8.63782463,11.1805909 8.63706454,11.1798444 8.63554416,11.1798444 C8.63174352,11.1790977 8.62794268,11.1776047 8.62414204,11.1768582 C8.47287524,11.1522208 8.33452568,11.0910031 8.21290355,11.0044026 L9.70963457,9.93009255 Z M7.67319356,15.3965161 C6.4683755,15.1471614 5.40265425,14.5163114 4.62505098,13.5823637 L7.71872888,11.3598255 C7.87531787,11.503913 8.06002978,11.612907 8.26147495,11.682341 L7.67319356,15.3965161 Z" id="Assorted-citruses" fill="#000000"></path>
    </g>
</svg>