<?xml version="1.0" encoding="UTF-8"?>
<svg width="24px" height="24px" viewBox="0 0 24 24" version="1.1" xmlns="http://www.w3.org/2000/svg" xmlns:xlink="http://www.w3.org/1999/xlink">
    <!-- Generator: Sketch 57.1 (83088) - https://sketch.com -->
    <title>crops-chickpeas</title>
    <desc>Created with Sketch.</desc>
    <g id="crops-chickpeas" stroke="none" stroke-width="1" fill="none" fill-rule="evenodd">
        <path d="M14.3687465,13.1379373 C14.4317217,13.2214197 14.4815448,13.3163268 14.5240956,13.4116072 C14.5880764,13.5551252 14.6907399,13.6527951 14.8296101,13.7337386 C15.3163136,14.0171157 15.8054928,14.298178 16.2769554,14.6039565 C16.7123658,14.8862135 17.0942397,15.2320904 17.4156914,15.6356134 C17.820388,16.1436761 18.0344571,16.7113264 17.9954651,17.3587254 C17.9909005,17.4360848 17.9949235,17.5139668 17.9949235,17.5915502 C17.9829319,18.0578716 17.9563957,18.5218783 17.8411218,18.9779698 C17.6426031,19.7635106 17.1620888,20.3167493 16.3905272,20.6329071 C15.9743033,20.803456 15.5377324,20.907921 15.0894793,20.9391335 C14.608114,20.9726609 14.1330153,20.9093397 13.6738537,20.7553678 C13.6502574,20.7474526 13.615211,20.7420763 13.5968755,20.753053 C13.2476497,20.9623563 12.86624,20.9679566 12.4750824,20.9283809 C12.0627267,20.8866397 11.6630589,20.8035307 11.2937181,20.6137166 C10.7510797,20.3348944 10.4116019,19.8959026 10.2249974,19.339453 C10.0367683,18.7783738 10.0035787,18.197208 10.0005614,17.6139515 C9.99916885,17.3369961 9.99754419,17.0573526 10.0334416,16.7835334 C10.089918,16.3527554 10.3031361,15.9806689 10.5730628,15.6394217 C11.0112584,15.0855856 11.5718455,14.6651122 12.1754475,14.2956392 C12.5094324,14.0911895 12.8528559,13.9009274 13.1963567,13.7115613 C13.3190576,13.6439839 13.3969642,13.5495248 13.4561485,13.4308723 C13.5068226,13.3289462 13.5561041,13.2238092 13.624959,13.1336064 C13.8158186,12.8838313 14.1793569,12.8866688 14.3687465,13.1379373 Z M13.9865632,13.6713882 C13.9797551,13.6831116 13.9717865,13.6951336 13.9654426,13.7079771 C13.8556616,13.9310199 13.6844527,14.092907 13.4614867,14.215517 C13.0935385,14.4179506 12.7274471,14.6244164 12.3713358,14.8454431 C11.8936067,15.1421116 11.4516202,15.4829855 11.092569,15.9133155 C10.8033011,16.2597898 10.5891547,16.6409114 10.580954,17.0976003 C10.5747648,17.4407144 10.5848222,17.7845005 10.6015331,18.1273905 C10.619327,18.4917858 10.6704653,18.8521489 10.7921606,19.2006393 C10.9835617,19.7487257 11.3635014,20.1118516 11.9422693,20.2569377 C12.2125054,20.3245898 12.4959709,20.3433322 12.7737888,20.3819372 C12.8325862,20.3902257 12.8928536,20.3887323 12.974319,20.3928392 C12.9449203,20.3603573 12.9320003,20.345423 12.9183841,20.3312355 C12.8118524,20.2201248 12.6926329,20.1179746 12.6008779,19.9964846 C12.3221317,19.6276837 12.2013648,19.1995939 12.1345214,18.7552257 C12.0532881,18.2154278 12.0591679,17.6715976 12.061953,17.1280662 C12.0621078,17.1046194 12.0669818,17.080426 12.0742541,17.0579499 C12.1167275,16.92623 12.2521937,16.8422996 12.3894393,16.8611914 C12.5329514,16.8810539 12.6364658,16.9882071 12.6397152,17.1293356 C12.6468328,17.4398183 12.6456723,17.7505251 12.6566581,18.0608585 C12.6705065,18.455645 12.7111231,18.8476686 12.8438815,19.2246087 C12.96225,19.5605543 13.1507113,19.8509505 13.4682948,20.0430048 C13.7051092,20.1862988 13.9652105,20.2718719 14.2424094,20.3240671 C14.8997028,20.4479466 15.5292996,20.3600586 16.1412571,20.1208121 C16.46062,19.9959619 16.7418419,19.8160791 16.9491029,19.5406918 C17.1464611,19.278596 17.2535343,18.9825994 17.3148848,18.6686072 C17.4060982,18.202435 17.3999863,17.7302145 17.4128289,17.258442 C17.4249752,16.8113111 17.279529,16.4203328 17.0154047,16.0625085 C16.6782478,15.605745 16.2433016,15.2470246 15.7636383,14.9420676 C15.332715,14.6681737 14.8822183,14.4232522 14.4429396,14.1615298 C14.3629442,14.1138149 14.2855791,14.0548247 14.2243834,13.9865752 C14.1374251,13.8895774 14.0665587,13.7792134 13.9865632,13.6713882 Z M8.40563045,8.06558375 C9.13991827,8.24375564 9.81270502,8.56806007 10.4705156,8.92658493 C10.5848513,8.98893381 10.7031402,9.04564196 10.8117743,9.11656475 C10.9696702,9.21967731 11.1375247,9.2304323 11.3179988,9.20779417 C11.4222998,9.19478288 11.5332146,9.18620897 11.6346267,9.20689165 C11.9443367,9.27006784 12.0886247,9.58451979 11.9429683,9.86587945 C11.8933265,9.96184709 11.8311413,10.0517227 11.7710846,10.1419744 C11.7074549,10.2377164 11.6764383,10.3381967 11.6777307,10.455223 C11.6826721,10.9241558 11.6939992,11.393615 11.6780348,11.8619461 C11.657281,12.4682119 11.5658276,13.0651517 11.3431618,13.6353167 C11.1222445,14.200894 10.7788572,14.6653142 10.2359145,14.9752536 C9.79902122,15.2246491 9.36942598,15.4861534 8.90265641,15.6793672 C8.51852179,15.8383606 8.122984,15.9484677 7.70190312,15.9478709 C7.10050019,15.9468131 6.60187778,15.7077965 6.17327082,15.3053492 C5.91571132,15.0635498 5.70596911,14.7837696 5.52002149,14.4863902 C5.40211276,14.2979898 5.3579445,14.0854471 5.34076374,13.8679405 C5.33551828,13.802132 5.31172367,13.7603153 5.26215792,13.7173706 C4.44569129,13.0097973 4.05798367,12.1027677 4.00035968,11.2257469 C3.9881963,10.3409042 4.28521074,9.77269458 4.78831839,9.29624083 C5.15291559,8.95095289 5.57437658,8.68237888 6.001007,8.4209498 C6.23355555,8.27842733 6.46526787,8.13552881 6.73080957,8.05700984 C7.29024886,7.8915484 7.84854782,7.93043184 8.40563045,8.06558375 Z M6.7644109,8.65252061 C6.5410609,8.75066933 6.33382738,8.88672376 6.12492139,9.01458033 C5.77035898,9.23141003 5.42864413,9.46598923 5.13102152,9.75825431 C4.73639598,10.1455845 4.52452517,10.6084253 4.57439501,11.1620442 C4.6384808,11.8757847 4.89528008,12.5131121 5.38706059,13.0517643 C5.8590756,13.5689065 6.4192751,13.8094273 7.12528307,13.6266676 C7.49261703,13.5316025 7.83326758,13.3731356 8.16243895,13.1903759 C8.43793942,13.0374745 8.70743423,12.8740437 8.98126223,12.7182091 C9.11908849,12.6398405 9.28010118,12.6831613 9.36319224,12.8142519 C9.44225419,12.9390249 9.41336617,13.1150909 9.28914769,13.1909023 C8.7747129,13.5052791 8.26050617,13.820784 7.69399692,14.0390427 C7.22768349,14.2184931 6.74989087,14.3136334 6.24891181,14.2121003 C6.16437635,14.1950277 6.08128528,14.1708853 5.98511859,14.1468934 C6.19470877,14.4890226 6.42664915,14.7952015 6.73552288,15.0376025 C7.12627134,15.3442326 7.57327542,15.4503536 8.0556293,15.3492717 C8.3204108,15.2937669 8.58519229,15.2080278 8.82891595,15.0925056 C9.19229681,14.9204257 9.53461983,14.705401 9.89039858,14.517151 C10.3311689,14.2840008 10.6121429,13.9200608 10.7928451,13.4700809 C11.0171833,12.9116486 11.0938886,12.3248621 11.1110694,11.7306299 C11.1234608,11.3010318 11.1119056,10.8706065 11.1034673,10.4406323 C11.0992861,10.2244043 11.1630678,10.0326195 11.2767954,9.85286817 C11.2894149,9.83293758 11.3013502,9.81255574 11.3197473,9.78239663 C10.8680299,9.79074492 10.8299434,9.7798395 10.436078,9.55812117 C10.2619137,9.45997245 10.086533,9.36362877 9.90894773,9.27157204 C9.3187199,8.96584442 8.71572053,8.69155447 8.05433694,8.57039157 C7.61782378,8.4903684 7.17971417,8.46991135 6.7644109,8.65252061 Z M16.6822482,4.0885728 C17.19893,4.22049733 17.7203573,4.33702563 18.2165845,4.52864827 C18.6393391,4.69189356 19.0337027,4.89770488 19.3539391,5.20638412 C19.8136755,5.64947846 19.99703,6.18902563 19.9915482,6.85332752 C19.9777209,7.21317658 19.9289573,7.62940299 19.7519027,8.02245959 C19.6552755,8.23672375 19.5328755,8.43861054 19.3532845,8.60645959 C19.3343027,8.62427092 19.3152391,8.66200676 19.3230118,8.68155393 C19.4940118,9.11408224 19.41653,9.53023318 19.2330936,9.94095016 C19.0352573,10.3840445 18.7961027,10.8043464 18.4458391,11.1635162 C17.8912755,11.7322709 17.1879664,11.9618558 16.3722391,11.9360445 C15.7497664,11.9164219 15.1506936,11.7765728 14.5498209,11.6424596 C14.1066118,11.5435917 13.7246845,11.345403 13.3930755,11.0595917 C13.0646573,10.7764219 12.8111027,10.4415539 12.5953482,10.0803464 C12.1946027,9.4091011 11.95193,8.68366714 11.7353573,7.94925205 C11.7122027,7.87076148 11.69543,7.78902563 11.6588573,7.71596903 C11.61893,7.63611997 11.5698391,7.55581809 11.5058573,7.49181809 C11.4154482,7.40147846 11.3011482,7.33174261 11.2087755,7.24283695 C10.9428664,6.9869879 11.0383482,6.60925205 11.4003118,6.48925205 C11.5162482,6.45076148 11.6407755,6.43400676 11.76203,6.40985582 C11.8831209,6.38570488 11.9849027,6.33800676 12.0747391,6.25393129 C12.4187027,5.93166714 12.7602936,5.60638412 13.1191482,5.29853507 C13.6265845,4.8629879 14.1816391,4.48676148 14.8245664,4.23362941 C15.4262573,3.99672375 16.0408755,3.92479922 16.6822482,4.0885728 Z M15.6895482,4.58842186 C15.1426755,4.66932752 14.6736118,4.91000676 14.2292573,5.19906337 C13.6459755,5.57845959 13.14173,6.03913884 12.6581845,6.51921431 C12.4308118,6.74502563 12.1891209,6.93921431 11.81603,6.97393129 C11.8687209,7.01974261 11.8990755,7.04683695 11.9302482,7.0731011 C12.0854573,7.20434639 12.1957482,7.35966714 12.2535936,7.54902563 C12.3607755,7.9000445 12.4723755,8.24993129 12.5865118,8.59913884 C12.7840209,9.2035162 13.05803,9.77528978 13.4682664,10.2842709 C13.74833,10.6316671 14.0834573,10.9261577 14.5463845,11.04812 C15.1059391,11.1955917 15.6726936,11.3185351 16.2558118,11.362686 C17.1034482,11.4269879 17.7714936,11.1493275 18.2379391,10.4836671 C18.4428118,10.1913653 18.6063664,9.88064827 18.7313027,9.5520445 C18.9012391,9.10487469 18.7610845,8.76140299 18.4294755,8.51370488 C18.1320664,8.29166714 17.7892482,8.14532752 17.4290845,8.04547846 C16.7972845,7.87030865 16.1590209,7.71430865 15.5205118,7.56034639 C15.3906664,7.52895016 15.2474845,7.53068601 15.11183,7.53815771 C14.9469664,7.54713884 14.8183482,7.61808224 14.7776845,7.78215771 C14.7733482,7.79944073 14.7639391,7.81596903 14.7552664,7.83211997 C14.6830209,7.96706337 14.5266664,8.02819544 14.3776755,7.97989356 C14.2273755,7.93128978 14.1341845,7.78102563 14.1849118,7.63808224 C14.2241027,7.52789356 14.2713936,7.41234639 14.3481391,7.32344073 C14.4432118,7.21355393 14.5724027,7.12872375 14.6900573,7.03045959 C14.5278936,6.76427092 14.4856755,6.57000676 14.54753,6.34774261 C14.5899936,6.19506337 14.74463,6.09913884 14.9020482,6.12789356 C15.0733755,6.15921431 15.1861209,6.29400676 15.15053,6.45302563 C15.1133845,6.61891242 15.1889845,6.73853507 15.3248845,6.81513884 C15.4845936,6.90525205 15.6570664,6.98653507 15.8356755,7.03574261 C16.4022664,7.19166714 16.9780209,7.31974261 17.5430573,7.47996903 C18.0484482,7.62328978 18.5283936,7.82253507 18.9264391,8.15793129 C18.9324936,8.16306337 18.94403,8.16238412 18.9624391,8.16653507 C19.0085845,8.09883695 19.0625027,8.03347846 19.1009573,7.96117658 C19.3582755,7.47717658 19.4189845,6.9640445 19.3456755,6.43596903 C19.2900391,6.03491242 19.07723,5.7115162 18.7376845,5.45627092 C18.4573755,5.24555393 18.1391845,5.09483695 17.8014391,4.99023318 C17.3589664,4.85325205 16.90643,4.74374261 16.4574936,4.62487469 C16.2051664,4.55800676 15.9481755,4.55015771 15.6895482,4.58842186 Z" id="Combined-Shape" fill="#000000"></path>
    </g>
</svg>