<?xml version="1.0" encoding="UTF-8"?>
<svg width="24px" height="24px" viewBox="0 0 24 24" version="1.1" xmlns="http://www.w3.org/2000/svg" xmlns:xlink="http://www.w3.org/1999/xlink">
    <!-- Generator: Sketch 57.1 (83088) - https://sketch.com -->
    <title>crops-nuts</title>
    <desc>Created with Sketch.</desc>
    <g id="crops-nuts" stroke="none" stroke-width="1" fill="none" fill-rule="evenodd">
        <g id="np_nuts_82877_000000" transform="translate(1.000000, 3.000000)" fill="#000000" fill-rule="nonzero">
            <path d="M15.4917195,8.60676829 C15.8528585,7.36314878 16.0610244,6.06262195 16.0981439,4.731 C16.1316326,3.51453659 15.6899451,2.35785366 14.8545244,1.47342683 C14.0182,0.589139024 12.8886268,0.0840865854 11.6713293,0.0497012195 C10.4584805,0.0153065854 9.29818293,0.4579 8.4137561,1.29332073 C7.52946829,2.12964512 7.0235122,3.26012195 6.99003049,4.47651585 C6.92848439,6.66596463 5.71202561,8.70888171 3.81494512,9.80671098 C3.59319427,9.93523671 3.51808171,10.2185244 3.64568988,10.4402915 C3.77421561,10.6620423 4.05750329,10.7371549 4.27836671,10.6095467 C6.45152646,9.35144549 7.84550085,7.01275402 7.91501305,4.50359549 C7.94216683,3.53422476 8.34494598,2.63455159 9.04910451,1.96848573 C9.75328622,1.3023272 10.675574,0.952958902 11.6439948,0.977404024 C12.6133655,1.0045578 13.5130387,1.40733695 14.1791045,2.11149549 C14.845263,2.8156772 15.1973423,3.73706134 15.1701862,4.70638573 C15.0099815,10.4429955 11.477235,15.5630321 6.1697472,17.7517394 C4.31970329,18.5138479 2.19364963,17.6286449 1.43156427,15.7786126 C1.23515524,15.3043309 1.14373744,14.8065309 1.15821915,14.2969601 C1.18989817,13.1592309 1.76193256,12.0885113 2.68876183,11.4342162 C2.89784061,11.2866835 2.94762524,10.997054 2.80009024,10.7879613 C2.65255756,10.5788826 2.36292805,10.5290979 2.15383537,10.6766329 C0.989876829,11.4993793 0.270309756,12.8434671 0.231382927,14.2708768 C0.213280793,14.9098793 0.328229634,15.5362073 0.57442561,16.1317646 C1.29941463,17.8876659 3.00271829,18.9511793 4.79497439,18.9511793 C5.37153171,18.9511793 5.95802927,18.8407568 6.52462317,18.6081366 C8.14838171,17.9392671 9.61374512,17.0106305 10.884428,15.8846488 C11.8836659,17.0314146 13.9065866,18.4714293 16.5413305,18.4714293 C17.4907976,18.4714293 18.518072,18.284073 19.6061232,17.8297159 C19.8423488,17.7310595 19.9536841,17.4595171 19.8550232,17.2232915 C19.7563668,16.9870659 19.4848244,16.8757305 19.2485988,16.9743915 C15.6001354,18.5003927 12.7271963,16.6168671 11.5586963,15.2501646 C11.8745829,14.934278 12.1759878,14.6039098 12.4628878,14.2626976 C13.4123549,15.1388293 15.4940829,16.2285951 17.3197049,16.2919439 L17.3359967,16.2919439 C17.583993,16.2919439 17.7903516,16.0946312 17.7985077,15.8448183 C17.8075588,15.5886659 17.6075299,15.3741744 17.351382,15.3660183 C15.6651784,15.3071855 13.7455528,14.2237707 13.0411625,13.5340939 C13.9553174,12.3049561 14.6848479,10.9410573 15.2025516,9.48825244 C20.0783686,10.8097024 20.1571491,15.1342646 20.158076,15.3180085 C20.158981,15.5732573 20.3662511,15.7805195 20.6214906,15.7805195 C20.877643,15.7805195 21.0849052,15.5732504 21.0849052,15.3171049 C21.0849052,15.2655129 21.0188316,10.1345073 15.4912589,8.60662927 L15.4917195,8.60676829 Z" id="Path"></path>
            <path d="M9.78778049,12.8080854 C9.88643683,12.8080854 9.98509317,12.7773123 10.0692585,12.7130483 C12.4289659,10.9100873 13.5050146,7.16921902 13.508722,4.45662146 C13.508722,4.20046902 13.3014528,3.99320683 13.046211,3.99230317 L13.0453057,3.99230317 C12.7891533,3.99230317 12.5818911,4.19957232 12.5818911,4.45481415 C12.580081,6.53475805 11.7591447,10.25468 9.50713496,11.9753385 C9.30348509,12.131018 9.26456057,12.4215605 9.42024472,12.625208 C9.51075423,12.745587 9.64923643,12.8080854 9.78770935,12.8080854 L9.78778049,12.8080854 Z" id="Path"></path>
        </g>
    </g>
</svg>