<?xml version="1.0" encoding="UTF-8"?>
<svg width="24px" height="24px" viewBox="0 0 24 24" version="1.1" xmlns="http://www.w3.org/2000/svg" xmlns:xlink="http://www.w3.org/1999/xlink">
    <!-- Generator: Sketch 62 (91390) - https://sketch.com -->
    <title>crops-CR209</title>
    <desc>Created with Sketch.</desc>
    <g id="crops-CR209" stroke="none" stroke-width="1" fill="none" fill-rule="evenodd">
        <path d="M5.98418668,2.75916972 L18.0431185,6.32216972 L21.292952,4.07382239 C21.4496594,3.96543848 21.6623364,3.97917876 21.8015289,4.09678733 L21.8563063,4.15349705 C21.9884543,4.32139721 21.9504543,4.55802376 21.7713601,4.68189109 L21.7713601,4.68189109 L18.9941185,6.60316972 L21.4105943,7.31726918 L21.4105943,14.9471653 L21.3041151,15.1239529 L7.77464112,22.2810576 L5.31011851,16.0751697 L3.64212243,17.2310897 C3.48541503,17.3395435 3.27273804,17.325812 3.1335456,17.2081509 L3.07876817,17.151415 C2.94662019,16.9835148 2.98462019,16.7468883 3.16371436,16.623021 L3.16371436,16.623021 L5.01811851,15.3381697 L2.81411851,9.78876428 L2.81834882,9.6312702 L5.98418668,2.75916972 Z M17.7721185,7.44916972 L6.28811851,15.3991697 L8.37458396,20.6532559 L20.2522541,14.369957 L20.2522541,8.18285653 L17.7721185,7.44916972 Z M6.61696829,4.15398665 L4.04224666,9.74294811 L5.99511851,14.6621697 L16.8211185,7.16816972 L6.61696829,4.15398665 Z" id="Combined-Shape" fill="#000000"></path>
    </g>
</svg>