<?xml version="1.0" encoding="UTF-8"?>
<svg width="24px" height="24px" viewBox="0 0 24 24" version="1.1" xmlns="http://www.w3.org/2000/svg" xmlns:xlink="http://www.w3.org/1999/xlink">
    <!-- Generator: Sketch 58 (84663) - https://sketch.com -->
    <title>crops-wildtrees</title>
    <desc>Created with Sketch.</desc>
    <g id="crops-wildtrees" stroke="none" stroke-width="1" fill="none" fill-rule="evenodd">
        <path d="M12.2097917,22 L12.2097917,18.2623829 C13.2383916,18.1891165 14.20322,17.7190595 14.8882874,16.9378722 C15.6342762,16.0862635 15.9777843,14.9549182 15.8302916,13.8321229 L14.7350948,5.5167531 C14.5447915,4.08187255 13.3116142,3 11.8634337,3 C10.3923803,3 9.15546388,4.10184678 8.98690086,5.56425279 L8.0258724,13.8956994 C7.89741861,15.0080205 8.25138147,16.1260415 8.99642516,16.9615002 C9.69579119,17.7455619 10.6796682,18.2108397 11.7224205,18.2660368 L11.7224205,21.9997564 L12.2097917,22 Z M9.36102795,16.6381369 C8.7082847,15.9054724 8.39809951,14.9263697 8.5103693,13.9520901 L9.47139775,5.62064346 C9.61127096,4.40460253 10.6398659,3.48734688 11.8635068,3.48734688 C13.0671734,3.48734688 14.0938489,4.38747829 14.2518158,5.580695 L15.3470127,13.8960648 C15.4764189,14.8789918 15.1757409,15.8714188 14.5220526,16.6164576 C13.9292564,17.292975 13.0985719,17.7040301 12.2098648,17.7754014 L12.2098648,15.0150602 L13.8921335,13.3327915 C13.9872839,13.237641 13.9872839,13.0835033 13.8921335,12.9883334 C13.7969831,12.8931635 13.6428454,12.893183 13.5476755,12.9883334 L12.2098405,14.3261684 L12.2098405,11.7999154 L13.4877284,10.5220274 C13.5828788,10.426877 13.5828788,10.2727393 13.4877284,10.1775694 C13.392578,10.0823995 13.2384403,10.082419 13.1432704,10.1775694 L12.2098405,11.1109993 L12.2098405,8.3136326 C12.2098405,8.17946911 12.1013682,8.07004442 11.9662523,8.07004442 C11.8311363,8.07004442 11.7226641,8.17946911 11.7226641,8.3136326 L11.7226641,11.1109993 L10.7892342,10.1775694 C10.6940838,10.082419 10.539946,10.082419 10.4447761,10.1775694 C10.3496062,10.2727198 10.3496257,10.4268575 10.4447761,10.5220274 L11.7226641,11.7999154 L11.7226641,14.3261684 L10.3848291,12.9883334 C10.2896787,12.893183 10.1355409,12.893183 10.040371,12.9883334 C9.94520113,13.0834838 9.94522061,13.2376216 10.040371,13.3327915 L11.7226397,15.0150602 L11.7226397,17.7802732 C10.8187083,17.7241334 9.9670997,17.3178454 9.36097923,16.6384536 L9.36102795,16.6381369 Z" id="Shape" fill="#000000"></path>
    </g>
</svg>