<?xml version="1.0" encoding="UTF-8"?>
<svg width="24px" height="24px" viewBox="0 0 24 24" version="1.1" xmlns="http://www.w3.org/2000/svg" xmlns:xlink="http://www.w3.org/1999/xlink">
    <!-- Generator: Sketch 58 (84663) - https://sketch.com -->
    <title>crops-carrot</title>
    <desc>Created with Sketch.</desc>
    <g id="crops-carrot" stroke="none" stroke-width="1" fill="none" fill-rule="evenodd">
        <path d="M12.7779602,8.04324529 C13.6387954,8.04324529 14.4536838,8.43247416 14.9954019,9.10260819 C15.4954439,9.72045777 15.712304,10.5167061 15.6006856,11.2979204 L15.5659115,11.4927988 L13.4847561,21.2029977 C13.3955706,21.6182226 13.0578602,21.9288196 12.6454938,21.9896949 L12.5313099,21.9999968 L12.4986203,21.9999968 C12.2357654,22.0006601 11.9855027,21.8984011 11.7997711,21.7182122 L11.7125234,21.6217393 L11.6852821,21.5874924 C11.616985,21.5028515 11.5631359,21.407701 11.526032,21.3059842 L11.4945949,21.2022246 L11.4938166,21.2022246 L9.0904756,11.5868682 C8.87721944,10.7346604 9.06869769,9.83182353 9.60961877,9.13989166 C10.1081765,8.50118531 10.8534841,8.10720857 11.6557131,8.05037609 L11.8573463,8.04324529 L12.7779602,8.04324529 Z M12.7779781,8.58807963 L11.8572288,8.58807963 C10.6757864,8.58884197 9.69511784,9.47824203 9.56371491,10.6351961 L9.55112127,10.7945626 L11.1404505,10.7945626 C11.2914454,10.7945626 11.4128637,10.91676 11.4128637,11.0669758 C11.4128637,11.1964 11.323657,11.3040945 11.2030834,11.332223 L11.1404505,11.339389 L9.59393987,11.339389 L9.60551731,11.3972753 L9.61884599,11.4545788 L9.68578169,11.7215326 L10.3528074,11.7215326 C10.5030252,11.7215326 10.6252206,11.84373 10.6252206,11.9939458 C10.6252206,12.1227039 10.5354429,12.2308741 10.4151957,12.2591521 L10.3528074,12.2663589 L9.82198828,12.2663589 L10.3808218,14.5025301 L11.0945316,14.5025301 C11.2447494,14.5025301 11.3669448,14.6239504 11.3669448,14.7749432 C11.3669448,14.9037013 11.2771671,15.0118716 11.1569198,15.0401496 L11.0945316,15.0473564 L10.5170284,15.0473564 L10.6127616,15.4295159 L10.8625999,15.4295159 C11.0128176,15.4295159 11.135013,15.5509363 11.135013,15.7019291 C11.135013,15.8306872 11.0452354,15.9388574 10.9249881,15.9671355 L10.8625999,15.9743423 L10.7489662,15.9743423 L12.0230637,21.0699353 C12.0339599,21.1130023 12.0507371,21.1539935 12.0731645,21.1919869 L12.1110142,21.2466133 L12.1382555,21.2808582 C12.2293123,21.395271 12.3686311,21.4598711 12.5149556,21.4552011 C12.660487,21.4505307 12.7959225,21.3773684 12.8792026,21.2575082 C12.90307,21.2237807 12.9220955,21.1869405 12.9360477,21.1481399 L12.9531419,21.0886129 L13.4535955,18.7544113 L13.2808088,18.7544113 C13.129812,18.7544113 13.0083956,18.6322139 13.0083956,18.4819981 C13.0083956,18.35324 13.0976024,18.2450698 13.2181759,18.2167917 L13.2808088,18.2095849 L13.5703375,18.2095849 L13.6520614,17.8274254 L13.141486,17.8274254 C12.9912682,17.8274254 12.8690728,17.7060051 12.8690728,17.5550122 C12.8690728,17.4262541 12.9588505,17.3180839 13.0790978,17.2898058 L13.141486,17.282599 L13.7680243,17.282599 L14.5385599,13.68755 L13.9610567,13.68755 C13.8108389,13.68755 13.6886435,13.5661297 13.6886435,13.4151368 C13.6886435,13.2863787 13.7784212,13.1782085 13.8986685,13.1499304 L13.9610567,13.1427236 L14.6553198,13.1427236 L14.7370438,12.7605641 L14.0996065,12.7605641 C13.9493887,12.7605641 13.8271933,12.6391438 13.8271933,12.4881509 C13.8271933,12.3593928 13.916971,12.2512226 14.0372183,12.2229445 L14.0996065,12.2157377 L14.8538037,12.2157377 L15.0335362,11.3783422 C15.1790876,10.6973291 15.0094071,9.98672765 14.5719959,9.44500957 C14.1338076,8.90329149 13.4745724,8.58807963 12.7779781,8.58807963 Z M13.1655764,3.35083259 C13.4471585,3.63171164 13.5688456,4.03129388 13.4972958,4.41562976 L13.4613415,4.55877943 L12.5802825,7.77246595 C12.5475858,7.89076803 12.4401886,7.97249199 12.3172141,7.97249199 C12.2194578,7.97249199 12.1306686,7.92018993 12.0827244,7.83869742 L12.0549228,7.77246595 L11.1730855,4.55877943 C11.0384331,4.13304417 11.1520648,3.66682152 11.4696278,3.35083259 C11.9381629,2.8830558 12.6970225,2.8830558 13.1655764,3.35083259 Z M14.7408972,5.21728729 C15.1393866,5.21728729 15.4857291,5.4889234 15.5806832,5.87574534 C15.6668484,6.22388508 15.5285662,6.58400331 15.2430239,6.78701741 L15.1424949,6.84863817 L13.2924284,7.90248586 C13.1858103,7.96319503 13.0519349,7.94529251 12.9647635,7.85890015 C12.8956496,7.78916302 12.8703692,7.689543 12.8941047,7.59788988 L12.9211778,7.53123523 L12.9203993,7.53123523 L13.974247,5.68116876 C14.1229067,5.39553143 14.4186718,5.21651879 14.7408972,5.21728729 Z M9.89093316,4.75440077 L10.0064829,4.76581903 C10.2765449,4.81019177 10.5092657,4.97985226 10.6345754,5.22347397 L10.6345586,5.22344408 L10.6400069,5.23511868 L11.6969629,7.55298186 C11.7491103,7.66816769 11.7148654,7.80437029 11.6144618,7.88142385 C11.5148374,7.95847801 11.3739663,7.95691988 11.275898,7.87675405 L11.275898,7.87675405 L11.275898,7.87597579 L9.4414128,6.37304086 C9.20324653,6.23916548 9.04213382,6.00022613 9.00710984,5.72936709 C8.97208187,5.45773098 9.06782099,5.18609088 9.26473874,4.99619068 C9.46165649,4.80629048 9.73717796,4.72067718 10.0064829,4.76581903 Z M14.6910734,5.76598964 L14.6910734,5.76598964 C14.6157693,5.77766364 14.5474722,5.81604459 14.4983287,5.87292255 L14.4560194,5.93566209 L14.4505714,5.94578015 L13.8855212,6.93813961 L14.8771036,6.37308948 L14.8872042,6.36762587 C14.9782669,6.32014684 15.0413109,6.23297542 15.0576557,6.1317948 C15.073223,6.03061618 15.0397591,5.9286557 14.967372,5.85627333 C14.9311784,5.82008215 14.8873989,5.79361965 14.8400203,5.77815073 L14.7667512,5.76335066 Z M9.91073576,5.30207769 C9.81033222,5.28728943 9.70837453,5.32153634 9.63676844,5.3939195 C9.56516274,5.46708372 9.53325163,5.56903742 9.54881795,5.66944097 C9.56516235,5.77062557 9.62820671,5.85701793 9.71926946,5.9037179 C9.73561386,5.91227963 9.75195865,5.92317655 9.76674651,5.93562961 L9.76674651,5.93562961 L10.7147452,6.71238775 L10.1473439,5.4678588 C10.0998669,5.37757511 10.0119164,5.31608728 9.91073576,5.30207769 Z M11.9770838,3.64037979 C11.7473896,3.78013744 11.6296227,4.04349439 11.6707915,4.3020007 L11.6937717,4.39846232 L11.6960094,4.40429964 L11.6976632,4.41013711 L12.3172079,6.67041735 L12.9375297,4.40934012 C12.938308,4.40622685 12.9390863,4.40233532 12.940643,4.39844379 C13.0161273,4.16573355 12.95386,3.90967672 12.7802962,3.73611294 C12.56704,3.52285478 12.2347127,3.4831604 11.9770838,3.64037979 Z" id="Combined-Shape" fill="#000000"></path>
    </g>
</svg>