<?xml version="1.0" encoding="UTF-8"?>
<svg width="24px" height="24px" viewBox="0 0 24 24" version="1.1" xmlns="http://www.w3.org/2000/svg" xmlns:xlink="http://www.w3.org/1999/xlink">
    <!-- Generator: Sketch 57.1 (83088) - https://sketch.com -->
    <title>crops-pear</title>
    <desc>Created with Sketch.</desc>
    <g id="crops-pear" stroke="none" stroke-width="1" fill="none" fill-rule="evenodd">
        <path d="M6.37717198,3.65838783 C6.40973479,3.66742962 6.43928692,3.68140425 6.46792011,3.69905558 C7.42818983,4.16295793 8.47660435,4.92786242 9.39418313,6.19234214 C10.0397178,5.83394441 10.7656271,5.62957892 11.5204798,5.62957892 C13.0567286,5.62957892 14.5118771,6.39731529 15.4008759,7.69103935 C15.5221383,7.89340201 15.6434006,8.05482649 15.7245009,8.25718915 C16.0071878,8.82333894 16.5331755,9.22728817 17.2198116,9.38871265 C18.7151222,9.75249979 20.0490084,10.6414985 20.897845,11.8541223 C21.8277819,13.1880085 22.1506309,14.8045815 21.867944,16.4620927 C21.544319,18.1999281 20.4938958,19.7361769 18.9978091,20.7873762 C17.826104,21.5960508 16.4922373,22 15.118189,22 C13.0165665,22 11.0354303,20.9897195 9.90390676,19.3322083 C9.05507011,18.0794224 8.69128297,16.5833357 8.89364563,15.0478629 C8.97474009,14.4013889 8.81255117,13.7139768 8.36843402,13.2690894 C8.20700372,13.1076591 8.08574716,12.9454643 7.96448478,12.7438777 C7.23691051,11.6926784 6.95422366,10.4398926 7.19674841,9.22726877 C7.37776292,8.17849535 7.94626401,7.2595051 8.75852565,6.61457952 C8.23506117,5.89222068 7.65794009,5.35529661 7.08398022,4.95629172 C7.24918202,5.59465215 7.23923022,6.22705348 7.03376596,6.84295356 C6.34635378,8.82331372 3.9620444,9.83435092 3.88094412,9.87451302 C3.75968174,9.91468094 3.71951382,9.91468094 3.63841936,9.91468094 C3.59825726,9.91468094 3.5171628,9.91468094 3.47699488,9.87451302 C3.3557325,9.8343451 3.31556458,9.75325064 3.27463223,9.63198826 C3.23446431,9.50996727 2.50689586,7.08470224 3.59825726,5.30670474 C3.93863124,4.73008079 4.43180214,4.30655525 5.05589095,4.01385834 C4.14619909,3.77112569 3.49477834,3.81062384 3.4770007,3.81062384 C3.23447595,3.81062384 3.07305147,3.64919355 3.03211329,3.44683671 C3.03211329,3.20431195 3.19354359,3.04288747 3.39590042,3.0019493 L3.43482346,3.00116774 C3.68132915,2.99577121 4.91991335,2.98214695 6.37717198,3.65838783 Z M11.5204798,6.47839617 C10.7929055,6.47839617 10.1054933,6.68075882 9.49918144,7.08470806 C8.69050689,7.60991967 8.16529528,8.41859422 8.0038708,9.38869325 C7.80150815,10.3989544 8.04403872,11.4501537 8.65034479,12.2989903 C8.77160717,12.4604206 8.85270745,12.5816772 9.01413193,12.7438777 C9.62044382,13.3903517 9.86296858,14.2801266 9.7417062,15.1691253 C9.53934354,16.5030115 9.86296858,17.7967355 10.5905428,18.8880969 C11.600804,20.3432455 13.2984773,21.1920821 15.1583511,21.1920821 C16.3709749,21.1920821 17.5434366,20.828295 18.5938598,20.1408828 C19.927746,19.2518841 20.8576829,17.8770597 21.1403698,16.341587 C21.4230566,14.9266006 21.1002018,13.5123902 20.3316952,12.3399285 C19.6041209,11.2485671 18.4725974,10.4808307 17.1387113,10.1973678 C16.2497125,9.99500514 15.4812001,9.42963143 15.1174129,8.62095688 C15.0363185,8.45952658 14.9559826,8.29733184 14.8347261,8.13590737 C14.0268082,7.08470806 12.8142038,6.47839617 11.5204798,6.47839617 Z M13.1370586,14.4824892 C13.581946,14.4824892 14.0669955,14.6439195 14.5111069,14.9675387 C15.0363185,15.3313259 15.4001056,15.8565375 15.4812059,16.341587 C15.5213738,16.6242739 15.4812059,16.8667986 15.3197756,17.1093234 C15.1583453,17.3518481 14.8347261,17.5132726 14.4307769,17.5132726 C13.9858894,17.5132726 13.5008399,17.3518423 13.0567286,17.0282231 C12.531517,16.664436 12.1677298,16.1392243 12.0866296,15.6541748 C12.0464616,15.371488 12.0866296,15.1289632 12.2480599,14.8864385 C12.4504225,14.6037516 12.7732715,14.4824892 13.1370586,14.4824892 Z M13.1370528,15.2903877 C13.0157904,15.2903877 12.9346901,15.3305556 12.894528,15.3714821 C12.8543601,15.4116501 12.8543601,15.4927445 12.894528,15.5329124 C12.934696,15.7352751 13.1370528,16.0581241 13.541002,16.3817491 C13.8646271,16.5841118 14.187476,16.7053741 14.470939,16.7053741 C14.5922013,16.7053741 14.6733016,16.6652062 14.7134637,16.6242797 C14.7536316,16.5841118 14.7536316,16.5030173 14.7134637,16.4628494 C14.6732958,16.2604867 14.470939,15.9376378 14.0669897,15.6140127 C13.7433647,15.4116501 13.4205157,15.2903877 13.1370528,15.2903877 Z M16.128456,12.3800848 C16.77493,12.3800848 17.3812419,13.0265588 17.5836045,13.9564957 C17.7450348,14.6029697 17.664699,15.2092816 17.4221742,15.6140069 C17.2607439,15.8565317 17.0583871,16.0179561 16.8158623,16.0990564 C16.7347679,16.0990564 16.6945999,16.1392243 16.6134997,16.1392243 C15.9670257,16.1392243 15.3607138,15.4927503 15.1583511,14.5628134 C14.9969208,13.9163394 15.0772567,13.3100275 15.3197814,12.9053022 C15.4812117,12.6627775 15.6835686,12.501353 15.9260933,12.4202527 C16.0071878,12.4202527 16.0875236,12.3800848 16.128456,12.3800848 Z M16.1284502,13.1887652 C16.0473557,13.1887652 16.0071878,13.2698596 16.0071878,13.3100275 C15.8859254,13.4714578 15.8048251,13.8761773 15.9670199,14.3612268 C16.1284502,15.048639 16.5331696,15.3313259 16.654432,15.2911638 C16.6945999,15.2911638 16.7355265,15.2100693 16.7756944,15.1699014 C16.8969568,15.0084711 16.9780571,14.6037516 16.8158623,14.1187021 C16.6536734,13.5116335 16.289894,13.1887652 16.1284502,13.1887652 Z M6.02351065,4.53819811 C5.2148361,4.74056077 4.64946239,5.14451001 4.28567525,5.7508219 C3.63920126,6.8020212 3.80062574,8.21623156 3.96205022,8.94380583 C4.60852421,8.5800187 5.82114799,7.77134415 6.22587331,6.59965855 C6.42747929,5.95318455 6.34637707,5.22561028 6.02351065,4.53819811 Z" id="Combined-Shape" fill="#000000"></path>
    </g>
</svg>