<?xml version="1.0" encoding="UTF-8"?>
<svg width="24px" height="24px" viewBox="0 0 24 24" version="1.1" xmlns="http://www.w3.org/2000/svg" xmlns:xlink="http://www.w3.org/1999/xlink">
    <!-- Generator: Sketch 57.1 (83088) - https://sketch.com -->
    <title>crops-mango</title>
    <desc>Created with Sketch.</desc>
    <g id="crops-mango" stroke="none" stroke-width="1" fill="none" fill-rule="evenodd">
        <path d="M10.6663268,3 C11.762863,3 12.8593992,3.47701299 14.0397238,4.46979152 C14.3346026,4.19178835 14.630291,3.91378517 15.051662,3.5955221 C15.2208581,3.47626313 15.5157369,3.5165173 15.6422291,3.67527295 C15.7687275,3.8347861 15.7260297,4.11278927 15.5576372,4.23204252 C13.8705338,5.4648349 13.6175554,6.53811414 13.5756551,7.05462381 C16.8644541,7.21336038 19.4789036,10.5129547 19.4370033,14.4870453 C19.4370033,18.6214124 16.6960676,22 13.2807763,22 C9.9073792,22 7.12454924,18.6214124 7.12454924,14.4870453 C7.12454924,10.5911848 9.56979663,7.37134708 12.6902092,7.01358734 C12.6902092,6.73558417 12.7739976,6.29806785 12.985088,5.82105485 C12.6056111,6.02006467 12.2261343,6.1788146 11.8466575,6.37782442 C10.623629,6.97409066 9.4851986,7.53086023 8.22027589,7.53086023 C6.78615711,7.53086023 5.47934016,6.81534074 4.08792518,5.2650485 C4.00412455,5.18605515 3.9614329,5.02654773 4.04602486,4.86779208 C4.1306229,4.70903643 4.25710909,4.62928559 4.42550168,4.62928559 C5.73312818,4.58978891 6.78696059,4.15227259 7.79889876,3.75501617 C8.76894269,3.35775975 9.65438859,3 10.6663268,3 Z M13.3226908,7.84989988 C10.4133685,7.84989988 8.01001537,10.8707278 8.01001537,14.5675785 C8.01001537,18.2644292 10.3714743,21.2852571 13.3226908,21.2852571 C16.232013,21.2852571 18.6353662,18.2644292 18.6353662,14.5675785 C18.6353662,10.8707278 16.2739072,7.84989988 13.3226908,7.84989988 Z M13.2524978,9.70332439 C13.4456363,9.69353943 13.6484453,9.86180648 13.6614997,10.1293922 C13.6759934,10.3968986 13.5315623,10.5827702 13.3000704,10.5945022 C11.6796268,10.6766264 10.3900681,13.2903309 10.5471418,16.1886692 C10.5616392,16.4561753 10.4172026,16.6420472 10.1857163,16.6537796 C9.95422983,16.6655107 9.79049358,16.4952635 9.77597974,16.2277517 C9.58997319,12.7952434 11.169089,9.80891496 13.2525163,9.70332342 Z M10.6663328,3.79528942 C9.82278117,3.79528942 9.06382754,4.11355249 8.1364874,4.47131224 C7.2937453,4.78881209 6.36559561,5.18682601 5.3117632,5.34558165 C6.28180713,6.33910432 7.25104151,6.77662064 8.22108544,6.77662064 C9.2757274,6.77662064 10.3295598,6.26011097 11.4679902,5.7033414 C12.0577478,5.42457501 12.6483149,5.14657183 13.2807763,4.90806534 C12.3526266,4.15304917 11.5098845,3.79528942 10.6663328,3.79528942 Z" id="mango" fill="#000000"></path>
    </g>
</svg>