<?xml version="1.0" encoding="UTF-8"?>
<svg width="24px" height="24px" viewBox="0 0 24 24" version="1.1" xmlns="http://www.w3.org/2000/svg" xmlns:xlink="http://www.w3.org/1999/xlink">
    <!-- Generator: Sketch 57.1 (83088) - https://sketch.com -->
    <title>crops-dubium</title>
    <desc>Created with Sketch.</desc>
    <g id="crops-dubium" stroke="none" stroke-width="1" fill="none" fill-rule="evenodd">
        <path d="M19.4363134,9.93716438 C18.5089103,9.00976124 17.2051339,8.6939753 16.0184902,8.98150985 C16.3060247,7.79401516 15.9902366,6.49100461 15.0628356,5.56368657 L12.4991491,3 L9.93631343,5.56283562 C9.00973997,6.49023876 8.6939753,7.79316422 8.9806589,8.97980795 C7.79316422,8.69310309 6.49100461,9.00889328 5.56368657,9.93546249 L3,12.4991491 L5.56283562,15.0628356 C6.49023876,15.9902388 7.79316422,16.3060247 8.9806589,16.0184902 C8.69312436,17.2059848 9.00891242,18.5089954 9.93631343,19.4363134 L12.5,22 L15.0636866,19.4371644 C15.99026,18.5097612 16.3060247,17.2068358 16.0193411,16.020192 C17.2068358,16.3068969 18.5098463,15.9911067 19.4363134,15.0645375 L22,12.5008509 L19.4363134,9.93716438 Z M10.6892302,6.31639056 L12.5091264,4.49649433 L14.3090679,6.31722023 C15.3070996,7.31857055 15.3070996,8.93579279 14.3090679,9.93629216 C13.3077176,10.9343238 11.6904954,10.9343238 10.6891451,9.93629216 C9.69194311,8.93577152 9.69194311,7.3177196 10.6891451,6.31636928 L10.6892302,6.31639056 Z M13.3541793,11.6456505 C13.2187257,12.2074023 13.2178961,12.7932572 13.3541793,13.3541793 C12.7924275,13.2187257 12.2065727,13.2187257 11.6456505,13.3541793 C11.7811041,12.7924275 11.7811041,12.2065727 11.6456505,11.6456505 C12.2065727,11.7811041 12.7924275,11.7811041 13.3541793,11.6456505 Z M6.31558216,14.3091105 L4.49568593,12.4883846 L6.31641183,10.688443 C7.31776215,9.69041141 8.93498439,9.69041141 9.93633471,10.688443 C10.9343663,11.6897934 10.9343663,13.3070156 9.93633471,14.3083659 C8.93498439,15.3072272 7.31712394,15.3072272 6.31556089,14.3091971 L6.31558216,14.3091105 Z M14.3097912,18.6833967 L12.4890653,20.5041226 L10.6899535,18.6833967 C9.69192184,17.6820464 9.69192184,16.0648241 10.6899535,15.0643248 C11.6913038,14.0662931 13.308526,14.0662931 14.3098763,15.0643248 C15.307908,16.0640157 15.307908,17.6820464 14.3098763,18.6833967 L14.3097912,18.6833967 Z M18.6825883,14.3105996 C17.681238,15.3086313 16.0640157,15.3086313 15.0635164,14.3105996 C14.0654847,13.3092493 14.0654847,11.6920271 15.0635164,10.6906768 C16.0648667,9.69264514 17.6820889,9.69264514 18.6834393,10.6906768 L20.5041652,12.5114027 L18.6825883,14.3105996 Z" id="Shape" fill="#000000" fill-rule="nonzero"></path>
    </g>
</svg>