<?xml version="1.0" encoding="UTF-8"?>
<svg width="24px" height="24px" viewBox="0 0 24 24" version="1.1" xmlns="http://www.w3.org/2000/svg" xmlns:xlink="http://www.w3.org/1999/xlink">
    <!-- Generator: Sketch 57.1 (83088) - https://sketch.com -->
    <title>crops-lucerne</title>
    <desc>Created with Sketch.</desc>
    <g id="crops-lucerne" stroke="none" stroke-width="1" fill="none" fill-rule="evenodd">
        <path d="M7.37448678,11.3962758 C7.05255299,10.8074725 6.09046266,10.5569459 5.48648889,10.8939063 C5.76157065,11.4629658 6.69490032,11.7152474 7.37448678,11.3962758 M8.02345706,10.435412 C8.27302533,9.80799862 7.6579184,8.88749988 7.08548858,8.82739105 C6.83916748,9.51930073 7.4821073,10.3849556 8.02345706,10.435412 M12.2549845,19.5886268 C12.8751941,19.3025614 12.9962672,18.1635648 12.5778461,17.7787806 C12.0091273,18.1337298 11.8453771,19.0529123 12.2549845,19.5886268 M13.6958006,17.3150212 C13.7180669,17.9999109 14.4171364,18.6426805 15.0893007,18.6062642 C15.1560997,17.9652496 14.3178657,17.2281486 13.6958006,17.3150212 M14.1165411,16.251051 C14.6244914,16.7393804 15.667761,16.7363092 16.0699463,16.2453473 C15.5791596,15.7666704 14.6258831,15.7697416 14.1165411,16.251051 M7.55308117,12.502366 C6.91014135,12.2843069 5.91465156,12.8248477 5.85481084,13.4167222 C6.47130941,13.6185475 7.39211428,13.1407481 7.55308117,12.502366 M12.6353674,6.12731992 C12.6395423,6.1115249 12.6432534,6.09572988 12.6474283,6.07993486 C13.2305274,6.19137751 13.8113071,6.31291142 14.3971895,6.4081203 C14.579031,6.43795534 14.7863861,6.43356783 14.9594139,6.38047901 C15.1347611,6.32651269 15.2507315,6.16329747 15.217332,5.97244096 C15.1843965,5.78597196 15.0248212,5.70173185 14.8378769,5.69164058 C14.6592825,5.68154932 14.4765132,5.68111057 14.3007021,5.70743561 C14.1536517,5.72937313 14.0455673,5.71489437 14.0042818,5.57361668 C13.9606769,5.42312522 14.0641225,5.36389389 14.2000398,5.32747759 C14.3062687,5.29895881 14.4259501,5.27482752 14.5066655,5.21120869 C14.6676324,5.08440977 14.8295271,4.94664208 14.9445697,4.78386561 C15.0340988,4.65750544 15.0313155,4.48068896 14.8666376,4.38109257 C14.7154122,4.28983245 14.5901642,4.37582757 14.4825437,4.48112771 C14.453783,4.5096465 14.4199197,4.53509403 14.3967256,4.56712282 C14.320649,4.67066796 14.2264811,4.72638929 14.0956665,4.6623317 C13.9741295,4.60266162 13.9922209,4.50438149 14.003354,4.39074509 C14.0260842,4.16522728 14.0381452,3.93400572 14.0126317,3.70980417 C13.9950042,3.56150647 13.8980529,3.42022878 13.7087893,3.40092376 C13.5223089,3.38161873 13.3998442,3.49525513 13.3372201,3.63653282 C13.2602158,3.80940055 13.2189304,3.99630831 13.1711506,4.17970605 C13.1368233,4.31176998 13.1999112,4.49297397 12.9869896,4.53114527 C12.7842733,4.56756157 12.7685014,4.39337759 12.6989191,4.27886369 C12.6219148,4.15294227 12.5296024,4.00947082 12.3500802,4.05685589 C12.1575694,4.10818971 12.1218505,4.27403743 12.1450446,4.4420789 C12.1566416,4.52456402 12.1751969,4.6224054 12.229471,4.68032048 C12.378377,4.84046444 12.5379522,4.99490465 12.7128356,5.12828483 C12.8301976,5.2173512 12.9169435,5.29764255 12.8329809,5.43628774 C12.7494822,5.57273917 12.6311924,5.52359911 12.5045528,5.4819178 C12.3171446,5.42005397 12.1232421,5.36477139 11.9274841,5.33976261 C11.7688366,5.32001883 11.6250334,5.39153518 11.5549873,5.54114913 C11.4807662,5.69866059 11.5280821,5.84739704 11.6524024,5.95576844 C11.7396121,6.03211104 11.8588297,6.10669864 11.9720168,6.11986116 C12.1900411,6.14574744 12.413632,6.12731992 12.6353674,6.12731992 M8.90854304,6.5572955 C9.0402854,6.56387676 9.17202776,6.57221302 9.304234,6.57703927 C9.53339148,6.58449803 9.74492147,6.54193923 9.92119646,6.38793777 C10.0983992,6.23305881 10.1730841,5.9978885 10.0928326,5.81887826 C10.0172199,5.64995928 9.82053416,5.54071038 9.57096589,5.58063668 C9.35572485,5.61485923 9.14512263,5.69120183 8.93823146,5.76403443 C8.80973628,5.80922574 8.69330201,5.84476454 8.61629767,5.7039256 C8.53790169,5.56133166 8.62696695,5.48937656 8.74432898,5.39987144 C8.95771449,5.23884998 9.17295552,5.06642099 9.33624183,4.86240197 C9.47818958,4.68514673 9.4851478,4.45304767 9.36036367,4.24551864 C9.25413479,4.0673859 9.06023231,4.03228585 8.90807916,4.17619605 C8.80788075,4.27052742 8.75546214,4.40873386 8.66175806,4.51184025 C8.60655616,4.57282658 8.49939952,4.65180169 8.44234209,4.63600667 C8.36765716,4.61494664 8.31384691,4.51184025 8.26328382,4.43725265 C8.24380079,4.40829511 8.25957276,4.35959379 8.25493395,4.32054499 C8.22617329,4.05729464 8.18396007,3.79755429 8.00304627,3.5808115 C7.77713596,3.30878613 7.44592454,3.33072366 7.28495764,3.63872658 C7.22511692,3.75324048 7.18336758,3.88749816 7.17872877,4.01385833 C7.17223443,4.19593982 7.22233363,4.37933757 7.21862258,4.56185782 C7.21723093,4.64258792 7.16295679,4.75534683 7.09569397,4.79088562 C7.04513088,4.81764941 6.92359392,4.75973433 6.85493945,4.71278802 C6.7607715,4.64829168 6.69907525,4.53597153 6.60026848,4.48551521 C6.50702829,4.43725265 6.35719455,4.39688759 6.27926245,4.43637515 C6.18926943,4.48156646 6.11829556,4.61231413 6.09742089,4.71629802 C6.05567155,4.9242658 6.14659233,5.12345857 6.31869238,5.24104373 C6.53857224,5.39197393 6.79417097,5.49771282 7.03631713,5.61924674 C7.1476487,5.67496806 7.24784712,5.73814815 7.20145896,5.87459958 C7.15553469,6.00929601 7.04188371,6.00666351 6.911533,5.99393974 C6.69258091,5.97287971 6.46574283,5.93997342 6.25189344,5.97244096 C5.86037742,6.03079479 5.74069598,6.4133853 6.01113892,6.68848192 C6.23472982,6.91575473 6.51305875,6.94778352 6.81643728,6.86354341 C7.49927091,6.6735644 8.19230994,6.54457173 8.90854304,6.5572955 M17.7427032,12.4369921 C18.0674203,12.4045246 18.3369354,12.2202494 18.3791486,11.9793753 C18.4171869,11.7591225 18.22514,11.5498385 17.9032062,11.4620883 C17.8832593,11.4568233 17.8623846,11.4537521 17.8419738,11.4511196 C17.6772959,11.4278658 17.5070513,11.4226008 17.3502594,11.3756545 C17.2630497,11.3497682 17.1498626,11.2624568 17.13641,11.1887467 C17.1132159,11.0623866 17.2240836,10.9943802 17.3632481,10.9917477 C17.453705,10.9899927 17.5441619,10.9904315 17.6341549,10.9838502 C18.0873672,10.9483114 18.4607918,10.6876935 18.5057883,10.3481006 C18.5197048,10.243678 18.4839859,10.0901152 18.4083732,10.0300064 C18.3350799,9.97121384 18.1773602,9.9856926 18.0627814,10.0028039 C17.9806744,10.0155276 17.9055256,10.081779 17.8322323,10.130919 C17.7287867,10.2006804 17.6313716,10.2862368 17.5000931,10.1809366 C17.3748451,10.0804627 17.4291192,9.97823384 17.484785,9.86371994 C17.6132802,9.60003084 17.7250757,9.32888297 17.6554934,9.02833882 C17.5808085,8.70454088 17.2746467,8.58914948 16.9888957,8.77868973 C16.9160663,8.8269523 16.8390619,8.88530613 16.7977765,8.95638372 C16.6855171,9.15075023 16.6010907,9.35959551 16.4855842,9.55220702 C16.4429071,9.62328462 16.3403893,9.71278974 16.2735903,9.70752473 C16.2007609,9.70182097 16.1270038,9.60090834 16.0741213,9.52895324 C16.0421134,9.48463943 16.0509272,9.41443934 16.0346913,9.35784051 C15.9845921,9.18453403 15.902949,9.03053257 15.6863163,9.0169313 C15.530916,9.00684004 15.3509299,9.1990128 15.3184582,9.39469556 C15.3077889,9.45875315 15.3045418,9.52588199 15.3091806,9.59125582 C15.3342302,9.91988002 15.5253494,10.1673353 15.7651761,10.3845169 C15.8700134,10.4806033 15.9210403,10.5841484 15.8240891,10.6929586 C15.7150769,10.8158087 15.5986427,10.7548224 15.4757141,10.6793573 C15.2734617,10.5560684 15.0684261,10.4244432 14.8443713,10.3502943 C14.4895019,10.2331479 14.2051425,10.5091221 14.2942078,10.855735 C14.3790981,11.1834817 14.6217081,11.3602982 14.9529196,11.4094383 C15.7911535,11.5344822 16.5495998,11.8407301 17.2690801,12.2549107 C17.4124195,12.3378345 17.5840557,12.3773221 17.7427032,12.4369921 M10.6620153,11.5134222 C10.0316003,11.8780239 9.39608255,11.958754 8.72855701,11.8973289 C8.64923326,11.8903089 8.53882945,11.9328677 8.48455531,11.988589 C8.24240915,12.2360444 8.01278778,12.4773572 7.86991227,12.8116852 C7.52339275,13.6260062 6.43698218,14.0450131 5.58854283,13.7536827 C5.40809291,13.6913801 5.35613818,13.5935387 5.39649587,13.422426 C5.61080915,12.5098247 6.64340946,11.8968902 7.61106637,12.1004704 C7.69224564,12.1175817 7.80450497,12.0728292 7.8791899,12.0250053 C7.96176081,11.9719165 8.01789048,11.8819727 8.09582258,11.7964163 C7.88707588,11.6976974 7.71404807,11.6634749 7.49092105,11.7736013 C6.66474802,12.1794456 5.4888083,11.8104563 5.07502596,11.036939 C4.94699466,10.7969424 4.97482755,10.7069986 5.22068477,10.5718634 C6.02505537,10.1296028 7.14440153,10.3595081 7.66951544,11.0948541 C7.80589661,11.2861494 7.9821716,11.3458194 8.22014283,11.4050508 C8.15798271,11.228673 8.1153056,11.0777428 8.04897054,10.9364651 C8.02670423,10.8890801 7.95016377,10.8535413 7.89032306,10.834675 C6.94771576,10.5385183 6.39523284,9.50964821 6.70603347,8.62337202 C6.7909238,8.38074295 6.86096991,8.34432665 7.12352686,8.40619048 C8.00954061,8.61240326 8.66918017,9.58511332 8.45115584,10.4362895 C8.37600703,10.7293749 8.51099656,10.9483114 8.58243432,11.190063 C8.68124109,11.5270234 8.70629069,11.5318497 9.09270402,11.5265847 C9.62245674,11.5195647 10.1299432,11.4379571 10.5646002,11.0698453 C8.70397128,10.2967668 8.09628646,8.79097475 7.88753977,7.01008611 C7.59807768,7.07809245 7.31418218,7.13205877 7.03863654,7.21278888 C6.72922755,7.30361025 6.42399349,7.32247653 6.11783168,7.22551265 C5.48648889,7.02631988 5.21836536,6.32914519 5.60756198,5.88074209 C5.71796578,5.75438192 5.88310761,5.67145806 6.03062195,5.56308666 C5.68085526,5.18970991 5.51478567,4.76280559 5.84274992,4.27798618 C6.02088043,4.01473583 6.28019022,3.96252451 6.74175235,4.07308966 C6.81272623,3.58037275 6.9291605,3.10301211 7.55864775,3.01043573 C8.01417943,2.94330689 8.30874421,3.19865973 8.58892866,3.81642056 C8.80045864,3.77693301 9.00966922,3.68698914 9.20310783,3.71155917 C9.67394759,3.77122925 9.96433744,4.30299497 9.82238969,4.78913062 C9.78574304,4.91461329 9.72451068,5.0335147 9.67023654,5.16645613 C9.70270825,5.17259864 9.73332443,5.18049615 9.76486837,5.1844449 C10.1150989,5.22919746 10.3892529,5.37354641 10.4903791,5.71621062 C10.5961441,6.0759861 10.4968735,6.39539653 10.2255027,6.65952438 C9.97825389,6.90039846 9.66188667,6.98156732 9.31351163,6.97366981 C9.05652126,6.96796605 8.799067,6.96445604 8.54207662,6.96401729 C8.47527768,6.96401729 8.40847874,6.97805731 8.34446309,6.98551607 C8.35606013,8.55361068 9.22305473,10.3502943 11.1472354,10.8175637 C12.2345737,9.58950082 12.8849356,8.18637644 13.0537885,6.54632673 C12.7800984,6.54632673 12.5064083,6.53930672 12.2341098,6.54808174 C11.8476965,6.5608055 11.5146296,6.46603537 11.2961414,6.14399244 C11.0052876,5.71577187 11.1068777,5.03395345 11.8588297,4.92119455 C11.6658549,4.5131565 11.6301361,4.11477097 12.0160855,3.78921803 C12.2605511,3.5825665 12.5365606,3.60757528 12.8148895,3.77868801 C12.9944117,3.33554992 13.228208,2.92795062 13.8043489,3.01877199 C14.3368849,3.1021346 14.4254862,3.54000769 14.4839353,3.98182954 C14.8054052,3.89056941 15.0925479,3.94102573 15.2674313,4.2174386 C15.5202467,4.61670164 15.3945348,4.98481338 15.0879091,5.32703884 C15.3444356,5.43365524 15.5517906,5.56747417 15.6111675,5.83511203 C15.7336322,6.38618277 15.2637202,6.87495092 14.6249553,6.84687089 C14.481152,6.84072838 14.3392043,6.79948582 14.1977204,6.76701828 C13.9685629,6.71524571 13.741261,6.65733063 13.4870539,6.5954668 C13.4350992,6.87231842 13.3882471,7.13513002 13.3372201,7.39706413 C13.0964656,8.62951453 12.53888,9.72595226 11.7521369,10.7271811 C11.262278,11.3506457 10.8011797,11.9925378 10.5372311,12.7397301 C10.251944,13.5483474 10.173548,14.3837285 10.1939588,15.2296397 C10.1948866,15.2743922 10.2899823,15.3511736 10.3456481,15.3551223 C12.1148923,15.4762175 13.6248267,14.9729706 14.7812834,13.6641775 C15.033635,13.3785509 15.2470205,13.0595792 15.4580866,12.7432401 C15.601426,12.528691 15.7090465,12.2926432 15.8547053,12.0254441 C15.5313798,11.948224 15.2405261,11.8731976 14.9464252,11.8100176 C14.5850615,11.7327975 14.254314,11.6147735 14.0432479,11.3001894 C13.8219764,10.9715652 13.7946073,10.6275847 13.9991791,10.292818 C14.2014315,9.96331632 14.5317151,9.87424995 14.9385392,9.94883756 C14.9269422,9.88960623 14.9190562,9.84178241 14.9079231,9.79439735 C14.8109718,9.35564676 14.9900301,8.91865117 15.3458272,8.72691716 C15.6839969,8.54439692 15.9632536,8.60011824 16.2977122,8.92435493 C16.6298513,8.48823684 17.0028121,8.11442134 17.6406492,8.3838142 C18.0117545,8.54088691 18.1523106,8.98314751 18.0437623,9.5719508 C18.4566169,9.51315822 18.7762312,9.65048715 18.8903461,10.0348327 C19.0452825,10.5551909 18.7641703,10.9175989 18.3234829,11.195328 C18.8073113,11.5296559 18.9283844,11.9407652 18.6639719,12.331692 C18.3489963,12.7972064 17.7246118,12.9424328 17.1957868,12.66953 C16.8849862,12.509386 16.5783605,12.3435383 16.2420464,12.1649668 C15.3472189,13.9717417 14.0687613,15.3314298 11.8792405,15.695154 C12.1881856,15.8618793 12.4887808,16.0071057 12.7680375,16.1826059 C12.9104491,16.2716723 13.016678,16.2914161 13.1799643,16.2339398 C13.4777763,16.1290784 13.752858,16.0145645 14.0135594,15.8228304 C14.7237621,15.2998397 15.87558,15.4183024 16.4484737,16.032992 C16.619646,16.2163897 16.6173265,16.3089661 16.4378044,16.4888538 C15.8319751,17.0960847 14.692682,17.1838348 13.991757,16.6775166 C13.6934812,16.4620901 13.6934812,16.4620901 13.326087,16.606439 C13.4360269,16.780623 13.5301949,16.9113707 13.8011017,16.9170744 C14.7348952,16.9372569 15.5652432,17.8173906 15.5234939,18.6997181 C15.5123607,18.9427859 15.4580866,18.993681 15.1959935,19.0081597 C14.2640555,19.0599323 13.3989164,18.3531051 13.2875848,17.4238314 C13.2602158,17.193926 13.1377511,17.0403633 12.9624039,16.8420481 C12.9118408,17.1382047 12.7907677,17.3597738 12.9925562,17.6449616 C13.5185978,18.3860114 13.1920252,19.560108 12.3779131,20.0199186 C12.217874,20.1103012 12.1102535,20.0637936 12.0017052,19.9409435 C11.4186061,19.2801851 11.5007131,18.1354848 12.2002465,17.5576503 C12.3732743,17.4150563 12.4474953,17.2654424 12.4887808,17.0649334 C12.6028957,16.5195664 12.6149566,16.5143014 12.0949454,16.2567548 C11.5174128,15.9711281 10.9050892,15.7943117 10.2194723,15.7622829 C10.4217246,17.9139158 11.2608864,19.8659171 12.1032952,21.8438048 C11.9831499,21.8933836 11.8611491,21.9434012 11.7219846,22 C11.5072075,21.4923656 11.2956775,21.0084237 11.0971362,20.5196555 C10.686601,19.5070191 10.322454,18.4803428 10.0821634,17.4181276 C9.78110423,16.0891521 9.64472305,14.754034 9.9300102,13.4061922 C10.0589693,12.7972064 10.2630772,12.2132293 10.5915053,11.6718111 C10.6114522,11.6389048 10.6230492,11.601611 10.6620153,11.5134222" id="Fill-1" fill="#000000"></path>
    </g>
</svg>