<?xml version="1.0" encoding="UTF-8"?>
<svg width="24px" height="24px" viewBox="0 0 24 24" version="1.1" xmlns="http://www.w3.org/2000/svg" xmlns:xlink="http://www.w3.org/1999/xlink">
    <!-- Generator: Sketch 58 (84663) - https://sketch.com -->
    <title>crops-clover</title>
    <desc>Created with Sketch.</desc>
    <g id="crops-clover" stroke="none" stroke-width="1" fill="none" fill-rule="evenodd">
        <path d="M7.23122119,14.0116051 C7.67405267,15.3946761 8.51051214,16.2434758 9.45069258,16.2434758 C10.1041741,16.2434758 10.7069169,15.8313866 11.1628169,15.1164008 L11.1628169,21.5417973 C11.1628169,21.7947427 11.3680939,22 11.6210195,22 C11.8739452,22 12.0792222,21.794723 12.0792222,21.5417973 L12.0792222,15.17328 C12.5182158,15.777558 13.0732903,16.1219825 13.6706404,16.1219825 C14.6108799,16.1219825 15.4473394,15.2739897 15.8901118,13.8901118 C17.2731828,13.4472803 18.1219825,12.6108209 18.1219825,11.6706404 C18.1219825,10.8172746 17.4216002,10.0499953 16.2583902,9.58401848 C17.4946182,9.12428068 18.2434561,8.33393473 18.2434561,7.45055481 C18.2434561,6.51031532 17.3954633,5.67385585 16.0115854,5.23108342 C15.5687539,3.84801245 14.733062,3 13.792114,3 C12.9095214,3 12.1184275,3.7488182 11.6586503,4.98506593 C11.1927523,3.82185587 10.4254926,3.1214736 9.5720284,3.1214736 C8.63178892,3.1214736 7.79532945,3.96946636 7.35255701,5.35255701 C5.96948604,5.7953885 5.1214736,6.63184796 5.1214736,7.5720284 C5.1214736,8.42539419 5.82108829,9.19190597 6.98506593,9.65786309 C5.74883788,10.1191557 5,10.909482 5,11.792114 C5.00013777,12.7323732 5.84813054,13.5688327 7.23122119,14.0116051 Z M12.382237,5.7239647 C12.382237,5.72319594 12.3830059,5.72242699 12.3830059,5.72088948 C12.6789945,4.64148282 13.2456023,3.91573122 13.7930011,3.91573122 C14.3403998,3.91573122 14.9070076,4.64071524 15.2029962,5.72088948 L15.2721881,5.97227999 L15.5235786,6.04147192 C16.6029853,6.33746048 17.3287369,6.90406828 17.3287369,7.45146704 C17.3287369,7.9988658 16.6037529,8.5654736 15.5243462,8.86069459 C14.5479717,9.12670838 13.3340033,9.15054255 12.3200176,8.92450562 C12.2169973,8.46167784 12.1624071,7.95734198 12.1624071,7.45147098 C12.1616441,6.85026327 12.2377552,6.25291313 12.3822935,5.72397552 L12.382237,5.7239647 Z M12.1977239,10.1975467 C12.6705301,10.0922198 13.183329,10.0360983 13.703036,10.039942 C14.2942456,10.0422485 14.8808497,10.1183606 15.4020918,10.2605902 C16.4814985,10.5565788 17.2064825,11.1231866 17.2064825,11.6705853 C17.2064825,12.2179841 16.4814985,12.7845919 15.4013243,13.0805804 L15.1499338,13.1497724 L15.0807418,13.4011629 C14.7847533,14.4805695 14.2181455,15.2063211 13.6707467,15.2063211 C13.123348,15.2063211 12.5567401,14.4813371 12.2615192,13.4019305 C12.1169829,12.8714577 12.0401034,12.2733203 12.0401034,11.671345 C12.0401034,11.1639389 12.0939202,10.6603706 12.1977081,10.1975428 L12.1977239,10.1975467 Z M6.03803636,7.57283534 C6.03803636,7.02545627 6.76302038,6.45882878 7.84319461,6.16284022 L8.09458513,6.09364829 L8.16377705,5.84225778 C8.45976562,4.76285112 9.02637342,4.03709952 9.57377218,4.03709952 C10.1211709,4.03709952 10.6877787,4.76208355 10.9837673,5.8414902 C11.1283036,6.37196296 11.205183,6.97010036 11.205183,7.57284321 C11.205183,8.07948179 11.1513662,8.58305007 11.0475783,9.04587786 C10.5693794,9.15197241 10.0496723,9.20655877 9.52457261,9.20348257 L9.5030451,9.20348257 C8.924904,9.19810108 8.35213592,9.12198976 7.84319461,8.9828344 C6.76225281,8.68607826 6.03803636,8.11947046 6.03803636,7.57283928 L6.03803636,7.57283534 Z M7.72018587,10.3827487 C8.6965604,10.1167349 9.91052879,10.0929007 10.9245145,10.3189377 C11.0275348,10.7817655 11.0821192,11.2861013 11.0821192,11.7919723 C11.0821192,12.3924124 11.0060073,12.9897626 10.8622386,13.5194678 C10.8622386,13.5202365 10.8614698,13.5210053 10.8614698,13.522543 C10.5654813,14.6019497 9.99887347,15.3277012 9.45147472,15.3277012 C8.90407596,15.3277012 8.33746816,14.6027172 8.04147959,13.522543 L7.97228767,13.2711525 L7.72089715,13.2019606 C6.6414905,12.905972 5.9157389,12.3393642 5.9157389,11.7919654 C5.9157389,11.2453539 6.6414905,10.6787461 7.72012958,10.3827379 L7.72018587,10.3827487 Z" id="Shape" fill="#000000"></path>
    </g>
</svg>