<?xml version="1.0" encoding="UTF-8"?>
<svg width="24px" height="24px" viewBox="0 0 24 24" version="1.1" xmlns="http://www.w3.org/2000/svg" xmlns:xlink="http://www.w3.org/1999/xlink">
    <!-- Generator: Sketch 57.1 (83088) - https://sketch.com -->
    <title>crops-apricot</title>
    <desc>Created with Sketch.</desc>
    <g id="crops-apricot" stroke="none" stroke-width="1" fill="none" fill-rule="evenodd">
        <path d="M19.6467224,13.192895 C19.6475664,12.0083341 19.3065591,10.8483794 18.6667271,9.85330327 C18.1467798,9.01480973 17.382871,8.35568549 16.4788517,7.96649245 C15.772357,7.66019354 14.9949428,7.55529249 14.232633,7.66359421 C13.8173364,7.7321297 13.4155669,7.86581301 13.042472,8.0604117 C11.6615499,7.42667338 10.1017515,7.29892067 8.63625311,7.69996193 C7.17092764,8.10102484 5.89217122,9.00380628 5.02263932,10.2534998 C3.99117224,11.8940975 3.72443512,13.9043506 4.29334754,15.7582594 C4.94582059,17.6780806 6.28624809,19.2865126 8.05541272,20.2714084 C9.41269496,21.1674319 10.9490264,21.7554885 12.5569258,21.9940772 C12.5839366,21.9983077 12.6117923,22 12.6388031,22 C12.7037976,22 12.7679493,21.9890007 12.8287236,21.9661557 C13.9302675,21.5473313 14.9642628,20.9677439 15.8969352,20.2460212 C17.0035355,19.4337584 17.9244312,18.3938886 18.5980159,17.1958117 C19.3019823,15.9816412 19.6649428,14.597437 19.6463809,13.1929803 L19.6467224,13.192895 Z M17.6227807,16.6810137 C17.0226726,17.74294 16.2018373,18.6624246 15.2174065,19.3779556 C14.4125139,20.0007766 13.5253724,20.5073054 12.5804117,20.8823529 C11.1787843,20.6581616 9.84092788,20.1373281 8.65489255,19.3543735 C7.11644144,18.51159 5.94570425,17.1243262 5.36815661,15.4632258 C4.88974605,13.9226031 5.10293161,12.2489025 5.95315994,10.8784245 C6.91247344,9.53838963 8.41826561,8.69972701 10.0589478,8.59443839 C10.1286102,8.59443839 10.2242902,8.58938174 10.3401155,8.58938174 L10.3392763,8.588539 C11.1920185,8.5792682 12.0338243,8.78238223 12.7891268,9.17934188 C12.8033949,9.18692697 12.8185027,9.19451207 12.8336096,9.20041168 C13.1533879,9.38161165 13.4496604,9.60242863 13.7157233,9.85695522 C14.5986751,10.7326199 15.1081331,11.9192743 15.1349908,13.1657793 C15.1559733,13.4599186 15.4052436,13.6849298 15.6998401,13.673991 C15.9952747,13.6579779 16.2218891,13.4042968 16.2059463,13.1067918 C16.168178,11.5863854 15.5403699,10.1410187 14.457683,9.07734483 C14.362841,8.98716556 14.2612867,8.8978299 14.1588966,8.80765064 C14.2310772,8.78910905 14.307454,8.77309526 14.386349,8.75961055 L14.386349,8.76045329 C14.9495224,8.68375874 15.5236108,8.76466721 16.0439623,8.99474203 C16.7464519,9.30152456 17.3373209,9.81983364 17.7326445,10.4780601 C18.2580453,11.3014688 18.5350232,12.2605661 18.529136,13.2382183 C18.5400469,14.4467935 18.2269978,15.6359075 17.6226784,16.6810264 L17.6227807,16.6810137 Z M14.0350118,7.46227211 L14.0705696,7.46227211 C15.0289593,7.36491915 15.9145907,6.88762919 16.5462985,6.12948871 C17.1193466,5.40668033 17.4261295,4.49430926 17.4112476,3.55699399 C17.4112476,3.25975881 17.1863257,3.01596289 16.9018762,3.00561909 C15.8260614,2.94703661 14.7750145,3.34850811 13.9911218,4.11699239 C13.2535049,4.89149768 12.5473242,6.41468186 13.1972798,7.13918848 L13.1972798,7.14004994 C13.4180737,7.36922341 13.7232054,7.48895998 14.0349419,7.46829445 L14.0350118,7.46227211 Z M14.7820244,4.87482121 C15.1944824,4.44880174 15.7262882,4.18319361 16.2941176,4.11764706 C16.2236387,4.58764386 16.037031,5.02832244 15.7527165,5.39223936 C15.3178282,5.92692171 14.7147542,6.27015251 14.0588235,6.35294118 C14.1517265,5.7915236 14.4040114,5.27496645 14.7820244,4.87482121 L14.7820244,4.87482121 Z M9.64672977,3.31818305 C9.78460606,3.03775409 10.1266243,2.92098984 10.4104172,3.05634669 C10.9923735,3.33589245 11.5062582,3.73485208 11.9189977,4.22670678 C12.5358609,4.98039784 12.8930888,5.90925793 12.9405328,6.87700169 C12.9476952,7.02738662 12.894872,7.1742342 12.7928078,7.28569922 C12.6907437,7.39716198 12.5474973,7.4635088 12.3961809,7.47058824 L12.3684273,7.47058824 C12.0622418,7.47147033 11.8106513,7.234385 11.7954326,6.93273646 C11.7605165,6.20735326 11.4928226,5.51116112 11.0308513,4.94677037 C10.7255597,4.58053462 10.3432576,4.28330211 9.91082993,4.0754092 C9.77384751,4.00994785 9.6690949,3.8931768 9.61986319,3.75075204 C9.56972615,3.60921275 9.57957479,3.45351953 9.6467229,3.31816267 L9.64672977,3.31818305 Z" id="apricot" fill="#000000"></path>
    </g>
</svg>