<?xml version="1.0" encoding="UTF-8"?>
<svg width="24px" height="24px" viewBox="0 0 24 24" version="1.1" xmlns="http://www.w3.org/2000/svg" xmlns:xlink="http://www.w3.org/1999/xlink">
    <!-- Generator: Sketch 57.1 (83088) - https://sketch.com -->
    <title>crops-fruits</title>
    <desc>Created with Sketch.</desc>
    <g id="crops-fruits" stroke="none" stroke-width="1" fill="none" fill-rule="evenodd">
        <path d="M9.78571222,16.5714279 C10.1453661,16.5714279 10.4905929,16.6860964 10.7450497,16.8896716 C10.9995065,17.0932469 11.1428556,17.3694346 11.1428556,17.6571395 L11.1428556,17.6571395 L11.1428556,17.8742818 C11.4227745,17.7331393 11.7467952,17.657818 12.0784376,17.6571395 C13.060662,17.657817 13.8562941,18.2943219 13.8571423,19.0800992 C13.8562954,19.7925344 13.6484679,20.4955197 13.2515089,21.1327021 L13.2515089,21.1327021 L13.1327578,21.3227103 C12.8749006,21.7393457 12.3439209,22.0012735 11.7637367,21.9999164 C11.5262475,21.9999164 11.2912901,21.9551313 11.079237,21.8709878 L11.079237,21.8709878 L10.8035741,21.7603814 L10.528758,21.8709885 C10.315871,21.955132 10.0817692,21.9999171 9.84341144,21.9999171 C9.26407409,22.0012721 8.73309446,21.7393464 8.47523723,21.3233885 L8.47523723,21.3233885 L8.47608539,21.3233885 L8.35733426,21.1333803 C8.2826892,21.0146295 8.21822598,20.893174 8.15715453,20.7703531 C7.70506293,21.5215265 6.75590944,21.9992386 5.71429649,21.9999171 C4.77373187,22.0006738 3.89921041,21.6111726 3.4047108,20.9706028 C2.91019816,20.3300329 2.86609643,19.5299937 3.28765772,18.8568525 C3.70915388,18.1843888 4.53701133,17.734489 5.4742871,17.6679896 C6.41149773,17.6021695 7.32503978,17.9299154 7.88739655,18.5331715 C8.16390637,18.0032053 8.81110089,17.657811 9.52869315,17.6571325 C9.86035728,17.65781 10.1843563,17.7331323 10.4642752,17.8742748 L10.4642752,17.8742748 L10.4642752,17.6571325 C10.4642752,17.5132801 10.3930263,17.3748544 10.2657935,17.2730686 C10.1385695,17.1712827 9.96553263,17.1142837 9.78571222,17.1142837 L9.78571222,17.1142837 Z M18.0816678,3.04725833 L18.1342219,3.09262632 L19.0066509,4.04263204 C19.0475462,4.08716831 19.0749457,4.14372481 19.0860895,4.20462189 L19.0917125,4.26668139 L19.0917125,5.08527726 L19.4675782,4.67598946 C19.5084777,4.63145775 19.5604158,4.60162187 19.6163401,4.58948716 L19.6733318,4.58336416 L21.4181898,4.58336416 C21.5359673,4.58336416 21.6421123,4.66015502 21.6864606,4.77890624 C21.7225199,4.87326841 21.713912,4.97928868 21.6665917,5.06453605 L21.623936,5.12406992 L20.3756414,6.48336345 L21.418201,6.48336345 C21.5359784,6.48336345 21.6421235,6.56015431 21.6864717,6.67890553 C21.722531,6.7732677 21.7139231,6.87928797 21.6666029,6.96453534 L21.6239472,7.02406921 L20.2549549,8.51479286 L20.2549549,9.81709618 C21.283571,10.5957224 21.9211076,11.8435574 21.9931588,13.1955005 L21.999999,13.4501207 L21.999999,17.5667109 C21.999999,19.1507631 21.2241653,20.613782 19.9642383,21.406254 C18.7042182,22.1979153 17.15283,22.1979153 15.892903,21.406254 C14.6958839,20.6534442 13.935927,19.2954656 13.8629239,17.8033535 L13.8571423,17.5667109 L13.8571423,13.4501207 C13.8578254,12.0864758 14.4348964,10.8043356 15.4137912,9.9684968 L15.6020003,9.81709618 L15.6020003,8.51479286 L14.233008,7.02406921 C14.1501258,6.9330308 14.1254075,6.79686432 14.1704834,6.67890553 C14.205965,6.58390618 14.2809918,6.51575885 14.3698853,6.4922999 L14.4387542,6.48336345 L15.4813138,6.48336345 L14.2330191,5.12406992 C14.150137,5.03303151 14.1254186,4.89686503 14.1704946,4.77890624 C14.2059762,4.68390688 14.2810029,4.61575956 14.3698964,4.59230061 L14.4387653,4.58336416 L16.1836233,4.58336416 C16.2414256,4.58336416 16.2975894,4.60206711 16.3450623,4.63646767 L16.389377,4.67598946 L16.7652426,5.08527726 L16.7652426,4.26668139 C16.7652426,4.20373933 16.7824183,4.14258139 16.8140098,4.0908872 L16.8503042,4.04263204 L17.7227332,3.09262632 C17.8199348,2.98676767 17.9694968,2.971645 18.0816678,3.04725833 Z M12.4990578,18.2671016 C12.0885274,18.1307189 11.6152209,18.2060412 11.3005374,18.4577873 L11.3005374,18.4577873 L11.043527,18.6633951 C10.9112218,18.7692528 10.6957683,18.7692528 10.5634457,18.6633951 L10.5634457,18.6633951 L10.3064353,18.4577873 C10.1011701,18.292212 9.82042599,18.199248 9.52862931,18.1999228 C8.92131678,18.2006387 8.42935905,18.5942048 8.42851089,19.0800651 C8.42935775,19.7084229 8.61256124,20.327956 8.96287794,20.8898161 L8.96287794,20.8898161 L9.0816269,21.0798243 C9.22496295,21.3118991 9.52014706,21.457792 9.84332089,21.4571158 C9.9756478,21.4571158 10.1062636,21.4320066 10.2250147,21.3851855 L10.2250147,21.3851855 L10.6516572,21.214185 C10.7474976,21.1761851 10.8594608,21.1761851 10.9553099,21.214185 L10.9553099,21.214185 L10.9544615,21.214185 L11.3819725,21.3851855 C11.500728,21.4320066 11.6313438,21.4571158 11.7636664,21.4571158 C12.0859933,21.4577909 12.3820113,21.3118887 12.5253604,21.0811793 L12.5253604,21.0811793 L12.6441093,20.8911711 C12.994413,20.3285987 13.1776282,19.7083881 13.1784764,19.0800304 C13.1784764,18.7244555 12.9104351,18.4034948 12.4990578,18.2671016 Z M5.71427477,18.1999265 C4.59038636,18.2006213 3.6794079,18.9294031 3.67855974,19.8285113 C3.67855974,20.4874079 4.17477478,21.0811619 4.93562192,21.332908 C5.69566562,21.585349 6.57185909,21.4455615 7.15373702,20.9800604 C7.73560191,20.5145421 7.91032815,19.8135719 7.59479775,19.2055734 C7.28009249,18.5968974 6.53791965,18.1999265 5.71429649,18.1999265 Z M17.9285036,21.1815036 L17.7663779,21.3580456 C17.8201773,21.3604207 17.8739766,21.3667541 17.9285036,21.3667541 L18.0098394,21.3632905 L18.0098394,21.3632905 L18.0906293,21.3580456 L17.9285036,21.1815036 Z M16.1836457,19.2814839 L15.3817368,20.1546987 C15.7824121,20.623375 16.2853356,20.973196 16.8414886,21.1724754 L17.0524453,21.2400866 L17.5170149,20.7334169 L16.1836457,19.2814839 Z M19.6733616,19.2814839 L18.3399923,20.7334169 L18.8052878,21.2400866 C19.3746275,21.0789251 19.8957179,20.7632836 20.3210698,20.3253738 L20.4759963,20.1554892 L19.6733616,19.2814839 Z M17.9284031,17.3815738 L16.5950338,18.8335068 L17.9284031,20.2854398 L19.2617724,18.8335068 L17.9284031,17.3815738 Z M14.4386927,17.3815819 L14.4386927,17.5668325 C14.4380492,18.2275298 14.5971074,18.8751603 14.8974636,19.446283 L15.0166846,19.6567437 L15.7720639,18.8335149 L14.4386927,17.3815819 Z M21.418203,17.3813711 L20.0841058,18.8333041 L20.840211,19.6566424 C21.1756208,19.105728 21.3720044,18.4702957 21.4109951,17.8137863 L21.418203,17.5667311 L21.418203,17.3813711 Z M19.6732611,15.4815623 L18.3398918,16.9334953 L19.6732611,18.3854283 L21.0066304,16.9334953 L19.6732611,15.4815623 Z M16.1835451,15.4815623 L14.8501759,16.9334953 L16.1835451,18.3854283 L17.5169144,16.9334953 L16.1835451,15.4815623 Z M15.0495752,9.40618889 L15.2142851,9.60488474 L14.6659828,9.95380867 C13.6525474,8.6828552 12.0799412,7.86613384 10.3534323,7.70439797 L10.0643253,7.6835411 L10.0643253,8.28513409 C11.7008328,8.37267537 13.1967747,9.12515602 14.1312322,10.3192276 L14.281704,10.52229 L13.7132298,10.8433963 C12.9637437,9.77472704 11.7180949,9.06772484 10.3268837,8.91113211 L10.0644114,8.88826716 L10.0644114,14.892839 L9.39165448,14.892839 L9.39165448,7.6835411 C8.97286597,7.70459782 8.55743587,7.7655079 8.15210251,7.864019 C8.10753263,7.95802344 8.06043964,8.04826239 8.0125049,8.13699783 C7.80227966,8.47313912 7.69800169,8.85290312 7.70977504,9.23792264 C7.69799911,9.62294215 7.8022689,10.0034569 8.0125049,10.3388474 C8.26648195,10.7577102 8.39430534,11.2284543 8.38253198,11.7044732 C8.39428639,12.1804728 8.26647334,12.6504661 8.0125049,13.0685781 C7.80227966,13.4039686 7.69800169,13.7844833 7.70977504,14.1695029 C7.69799911,14.5545224 7.8022689,14.9350372 8.0125049,15.2711784 C8.18490291,15.5550662 8.29831507,15.8640069 8.34933651,16.1827826 L8.37243525,16.3751064 L7.70135751,16.4187214 C7.67696603,16.1081647 7.57605465,15.8066174 7.40702366,15.5351401 C7.15304661,15.1162774 7.02522322,14.6455333 7.03699658,14.1695144 C7.02524217,13.6935148 7.15305522,13.2235215 7.40702366,12.8054095 C7.6172489,12.4692682 7.72152687,12.0895042 7.70975352,11.7044847 C7.72152945,11.3194652 7.61725966,10.9389504 7.40702366,10.6028091 C7.15304661,10.1847164 7.02522322,9.71397232 7.03699658,9.23795344 C7.02689984,8.86421499 7.10511402,8.49272891 7.26573393,8.14830971 C6.6964201,8.37541347 6.16915089,8.67996391 5.70325863,9.0506992 C5.69821285,9.11236392 5.69148528,9.1710178 5.69148528,9.23794574 C5.67970934,9.62296525 5.78397913,10.00348 5.99421514,10.3388705 C6.24819218,10.7577333 6.37601557,11.2284774 6.36424222,11.7044963 C6.37515703,12.1804959 6.24734397,12.6504892 5.99337554,13.0686012 C5.78315029,13.4039917 5.67887232,13.7845064 5.69064568,14.169526 C5.67886974,14.5537947 5.78397913,14.9350603 5.99337554,15.2712015 C6.10122547,15.4522425 6.18684334,15.6430185 6.24951984,15.8400291 L6.30452293,16.0389882 L5.64438153,16.1532917 C5.59308408,15.937469 5.50646743,15.7291734 5.38873389,15.5351621 C5.13475684,15.1162993 5.00693345,14.6455552 5.01870681,14.1695364 C5.0069524,13.6935367 5.13476545,13.2235434 5.38873389,12.8054315 C5.59895913,12.4692902 5.7032371,12.0895262 5.69146375,11.7045067 C5.70323969,11.3194871 5.5989699,10.9382216 5.38873389,10.6020803 C5.21298179,10.3095617 5.09777351,9.99145858 5.04815742,9.66209363 C4.20552128,10.5788251 3.72366584,11.7172893 3.67657286,12.9031879 C3.63363328,14.0043437 3.96773723,15.0886681 4.63108733,16.0122306 L4.78999098,16.2224412 L4.24173777,16.5714284 C2.85079934,14.8186265 2.61030757,12.5354608 3.61186505,10.5811017 C4.61335794,8.62737794 6.70482472,7.29936863 9.09725604,7.09783016 C11.3984988,6.90476509 13.6430548,7.78023952 15.0495752,9.40618889 Z M21.418201,13.5814495 L20.0848317,15.0333825 L21.418201,16.4853156 L21.418201,13.5814495 Z M17.9283845,13.5815509 L16.5950152,15.0334839 L17.9283845,16.4854169 L19.2617538,15.0334839 L17.9283845,13.5815509 Z M14.4386946,13.5813685 L14.4386946,16.4852345 L15.7720639,15.0333015 L14.4386946,13.5813685 Z M16.1835451,11.680749 L14.8501759,13.1334724 L16.1835451,14.5854054 L17.5169144,13.1334724 L16.1835451,11.680749 Z M19.6732611,11.6815394 L18.3398918,13.1334724 L19.6732611,14.5854054 L21.0066304,13.1334724 L19.6732611,11.6815394 Z M17.9284031,9.78142663 L16.5950338,11.2333596 L17.9284031,12.6852927 L19.2617724,11.2333596 L17.9284031,9.78142663 Z M14.534,12.58 L14.5339499,12.5815875 L14.5346769,12.5815875 L14.534,12.58 Z M20.451,10.833 L20.0848317,11.2333799 L21.3222373,12.5815875 C21.1981919,12.0066339 20.9527962,11.4729083 20.6065111,11.0212238 L20.451,10.833 Z M15.7720639,11.2333799 L15.4049283,10.8327866 C15.0302352,11.2601802 14.7535114,11.7754763 14.5952102,12.3378211 L14.534,12.58 L15.7720639,11.2333799 L15.4049283,10.8327866 Z M20.4527129,10.8327866 L20.4519859,10.8327866 L20.451,10.833 L20.4527129,10.8327866 Z M18.726,9.754 L19.6732611,10.7853623 L20.0164258,10.4124951 C19.6965352,10.1505806 19.3382706,9.95134404 18.9572066,9.82302806 L18.726,9.754 Z M16.1835451,10.7853623 L17.1308495,9.75459482 C16.7412886,9.85422298 16.3714123,10.0264034 16.0367951,10.2629145 L15.841,10.412 L16.1835451,10.7853623 L17.1308495,9.75459482 Z M15.8403804,10.4116832 L15.8403804,10.4124751 L15.841,10.412 L15.8403804,10.4116832 Z M18.7259568,9.75382326 L18.7259568,9.75461488 L18.726,9.754 L18.7259568,9.75382326 Z M20.7158952,7.11674924 L19.7940276,7.11674924 L19.0917293,7.88149625 L19.0917293,9.20357995 C19.2245308,9.24739269 19.3553967,9.29858975 19.4834612,9.35717413 L19.6733486,9.45059157 L19.6733486,8.38342354 C19.6733486,8.32048148 19.6905243,8.25932353 19.7221157,8.20762935 L19.7584102,8.15937419 L20.7158952,7.11674924 Z M16.0635808,7.11666817 L15.140993,7.11666817 L16.0984724,8.15929312 C16.1393677,8.20382939 16.1667672,8.26038589 16.177911,8.32128297 L16.183534,8.38334247 L16.183534,9.4505105 C16.3085806,9.3845313 16.4368615,9.32594541 16.567511,9.27474985 L16.7651533,9.20349888 L16.7651533,7.88141518 L16.0635808,7.11666817 Z M17.9284031,7.24807803 L17.3467838,7.88141518 L17.3467838,9.06734659 C17.6550402,9.01351314 17.967954,9.00274645 18.2780733,9.03504652 L18.5100225,9.06734659 L18.5100225,7.88141518 L17.9284031,7.24807803 Z M20.7165354,5.21665672 L19.7939476,5.21665672 L18.3398993,6.79997933 L18.8008396,7.30190662 L19.4682408,6.57595024 L20.7165354,5.21665672 Z M16.0635808,5.21665672 L15.140993,5.21665672 L17.055963,7.30192689 L17.5176291,6.79999959 L16.0635808,5.21665672 Z M17.928485,3.7647237 L17.3468657,4.39806085 L17.3468657,5.71935415 L17.928485,6.3526913 L18.5101044,5.71935415 L18.5101044,4.39806085 L17.928485,3.7647237 Z" id="Combined-Shape" fill="#000000"></path>
    </g>
</svg>