<?xml version="1.0" encoding="UTF-8"?>
<svg width="24px" height="24px" viewBox="0 0 24 24" version="1.1" xmlns="http://www.w3.org/2000/svg" xmlns:xlink="http://www.w3.org/1999/xlink">
    <!-- Generator: Sketch 57.1 (83088) - https://sketch.com -->
    <title>crops-citrus</title>
    <desc>Created with Sketch.</desc>
    <g id="crops-citrus" stroke="none" stroke-width="1" fill="none" fill-rule="evenodd">
        <path d="M12,5 C15.8595826,5 19,8.1402613 19,12 C18.9993904,15.8595826 15.8591144,19 12,19 C8.1397931,19 5,15.8597387 5,12 C5,8.1402613 8.13963703,5 12,5 Z M12,5.55794613 C8.44756087,5.55794613 5.55794613,8.44771694 5.55794613,12 C5.55794613,15.5522831 8.44771694,18.4420539 12,18.4420539 C15.5524391,18.4420539 18.4414296,15.5522831 18.4414296,12 C18.4414296,8.44818514 15.5516588,5.55794613 12,5.55794613 Z M11.857692,7.24880651 C11.9098132,7.2991695 11.9574784,7.35306459 12.001068,7.40956708 C12.0421605,7.35245088 12.0900658,7.29833274 12.1424754,7.24778342 C12.5890503,6.81709803 13.2396532,6.74676291 14.0355903,7.06062982 C14.0722453,7.06992947 14.1058443,7.0867849 14.1345562,7.10887194 C14.7711151,7.37390453 15.1437639,7.7499675 15.2415084,8.22715114 C15.2790926,8.40864971 15.2722223,8.58977616 15.2364288,8.76412378 C15.3273154,8.74398771 15.4222642,8.73333333 15.5181007,8.73333333 C15.9336433,8.73333333 16.5045655,8.93487383 16.895078,9.87963303 C16.9072997,9.89673216 16.9177749,9.91505388 16.925923,9.93581766 C17.2035324,10.6216432 17.2023703,11.194496 16.9230131,11.6385386 C16.8316907,11.7831273 16.7176079,11.9025373 16.5907741,12.0011405 C16.7179511,12.0973886 16.8317847,12.2168275 16.9229011,12.3614607 C17.2024093,12.8054404 17.2035696,13.3782927 16.9258065,14.0641802 C16.9176711,14.084944 16.9066297,14.1044867 16.8944268,14.1215874 C16.5294215,15.0061698 16.0055842,15.2385775 15.6001322,15.2641731 L15.5200688,15.2665869 C15.4239834,15.2665172 15.3287918,15.2557197 15.2354937,15.2365909 C15.2723057,15.4086263 15.2788595,15.5889586 15.2414981,15.7696592 C15.1425524,16.2509896 14.765087,16.6292895 14.120105,16.8952765 C14.1030025,16.9074987 14.0846803,16.9179745 14.064524,16.926123 C13.7261469,17.0634791 13.4103794,17.1333333 13.1281978,17.1333333 C12.7366414,17.1333333 12.4055975,17.0041258 12.1423511,16.7503699 C12.0902568,16.7000427 12.0426137,16.646188 11.9990419,16.5897288 C11.9578625,16.6462796 11.9097545,16.7006203 11.8571038,16.7513643 C11.6320106,16.9685593 11.3566644,17.0939551 11.0364506,17.1253499 L10.8720372,17.1333333 C10.5892759,17.132752 10.2747613,17.0635908 9.93581046,16.9264342 C9.91504659,16.9182976 9.89550376,16.9072544 9.87779326,16.8944694 C9.23409928,16.6288601 8.85729784,16.2516776 8.75834857,15.7716109 C8.72096581,15.5905866 8.72780856,15.4099106 8.76345241,15.2359569 L8.63908444,15.2573928 L8.63908444,15.2573928 L8.481,15.266 L8.40226695,15.2641725 C7.99526529,15.2385683 7.47066286,15.0060392 7.10512451,14.1197562 C7.09290362,14.1026555 7.08242906,14.0843353 7.07428141,14.0641813 C6.79668902,13.378356 6.79727004,12.8055035 7.07719112,12.361461 C7.16840133,12.2167605 7.28238953,12.0972797 7.40914367,11.9986355 C7.28210439,11.9027942 7.16822978,11.7832844 7.07711475,11.6385393 C6.79758551,11.1945596 6.79642508,10.6217073 7.07420907,9.93581978 C7.08292627,9.91505602 7.09338738,9.89551328 7.10617143,9.87780287 C7.49553965,8.93487366 8.06505687,8.73333333 8.47999914,8.73333333 C8.57643133,8.73333333 8.67195552,8.74415316 8.76556401,8.76336702 C8.72784893,8.59136981 8.72100832,8.41069144 8.75820304,8.22962157 C8.85775307,7.74823163 9.23458038,7.36988491 9.87951671,7.103865 C9.89600676,7.09164108 9.91493896,7.08174535 9.93570356,7.07301462 C10.7449306,6.74472173 11.4051265,6.81165885 11.857692,7.24880651 Z M11.533,12.935 L10.1294921,14.4092248 C10.1122379,14.4280417 9.84323605,14.7147671 9.45533364,14.9515449 C9.33461625,15.1825927 9.25853383,15.4376312 9.30676672,15.6698694 C9.37150196,15.9819737 9.66280585,16.2394297 10.1709195,16.4347088 C10.1929044,16.4434266 10.2130585,16.4544688 10.2313803,16.4672553 C10.470175,16.5567891 10.6851461,16.6015404 10.8726479,16.6015404 L10.8732585,16.6015404 C11.1120407,16.6015404 11.3044203,16.5283103 11.4601532,16.377784 C11.5613499,16.2802392 11.6407349,16.1560423 11.7026688,16.0215695 C11.5598142,15.6132204 11.5372105,15.2147857 11.5338759,15.0681824 L11.533,12.935 Z M12.466,12.928 L12.4661234,15.0738629 C12.46279,15.218366 12.4402275,15.614764 12.2991407,16.0215121 C12.3583392,16.1540733 12.4378797,16.2781985 12.5411923,16.3778361 C12.8190896,16.6461474 13.2258739,16.6705827 13.7706921,16.4657197 C13.7884045,16.4529153 13.8079494,16.4430217 13.8287155,16.4342906 C14.3374929,16.2387338 14.6282273,15.9803158 14.69296,15.6672015 C14.7409202,15.4347231 14.6659658,15.1807239 14.5467073,14.9496272 C14.1593902,14.7128338 13.8912401,14.4266522 13.8726826,14.4060968 L12.466,12.928 Z M16.0256211,12.2978482 L15.9403475,12.3278394 C15.5756426,12.4412 15.2300333,12.4627213 15.072256,12.4661043 L12.936,12.466 L14.4096199,13.870561 C14.4306275,13.8896553 14.7165355,14.1580767 14.952435,14.5453608 C15.0925195,14.6205046 15.2441309,14.677933 15.3967094,14.6990177 L15.520666,14.7077428 C15.9088445,14.7077428 16.2075281,14.420105 16.4347318,13.8289294 C16.4434482,13.8069447 16.4539086,13.7867906 16.4666917,13.7690802 C16.6410255,13.3031032 16.6450867,12.9336204 16.479476,12.6698091 C16.3736901,12.5016102 16.2079538,12.3823735 16.0256211,12.2978482 Z M7.97389126,12.3003768 L7.89420451,12.3387358 C7.74463528,12.419607 7.61180681,12.526939 7.52189805,12.6693868 C7.35545882,12.9338236 7.36012186,13.3039163 7.53528291,13.7705032 C7.5479847,13.7875264 7.55787734,13.8076788 7.56660751,13.8284426 C7.79414298,14.4196028 8.09327771,14.7072564 8.48258937,14.7072564 C8.67640921,14.7072564 8.87304558,14.6396697 9.05179223,14.5467597 C9.28637583,14.1603862 9.57096871,13.8933843 9.59318709,13.8728286 L11.071,12.465 L8.97456328,12.4666667 C8.84475398,12.4666667 8.41371548,12.453973 7.97389126,12.3003768 Z M8.47944927,9.29153485 C8.09124148,9.29153485 7.7919552,9.57917266 7.56473448,10.1703483 C7.55659839,10.1923346 7.54613788,10.2124871 7.53335234,10.2314201 C7.35897974,10.6974237 7.35491824,11.0669065 7.52054151,11.330108 C7.62631074,11.4979966 7.79171363,11.6171035 7.97367646,11.7016007 C8.36916558,11.5620458 8.75723761,11.5375019 8.92723902,11.5338897 L11.064,11.533 L9.59063214,10.1289549 C9.569958,10.1095587 9.28444925,9.84133543 9.04851345,9.45434619 C8.87081319,9.35962129 8.67371522,9.29153485 8.47944927,9.29153485 Z M15.5174279,9.29218883 C15.3234136,9.29218883 15.1266973,9.35977551 14.9479325,9.45268555 C14.7137309,9.83885413 14.4286457,10.1060944 14.4064109,10.1266605 L12.927,11.533 L15.0689038,11.5338957 C15.2422386,11.53753 15.6295021,11.5620975 16.0232567,11.698971 C16.2066258,11.6172053 16.3723306,11.4980773 16.4782792,11.3301383 C16.6447286,11.0663112 16.6400653,10.6962184 16.4648935,10.2296312 C16.4520899,10.2119208 16.4416141,10.192378 16.433466,10.171003 C16.2059166,9.57921715 15.9067635,9.29218883 15.5174279,9.29218883 Z M10.2300172,7.53349491 C10.2123695,7.54576353 10.192826,7.55682306 10.1714501,7.56497264 C9.66270866,7.7605536 9.37199481,8.0190036 9.30726666,8.33215666 C9.25924304,8.56498795 9.33446826,8.81940283 9.45400805,9.05083164 C9.8409449,9.28725872 10.1086212,9.57302927 10.1275093,9.59321373 L11.533,11.071 L11.5338759,8.92540125 C11.5372054,8.78090237 11.5597455,8.38454079 11.7006976,7.9778066 C11.6420328,7.84460586 11.5625813,7.72075884 11.45943,7.62138936 C11.1809426,7.35304483 10.7741871,7.32918768 10.2300172,7.53349491 Z M13.1278914,7.39769229 C12.8890211,7.39769229 12.6965818,7.47034562 12.5408005,7.62088389 C12.4376229,7.72010688 12.3581506,7.84377163 12.296938,7.97577644 C12.4401403,8.38526192 12.4627863,8.78442717 12.4661242,8.9312022 L12.466,11.063 L13.870442,9.59077551 C13.8876825,9.57197476 14.1562567,9.28572219 14.5436491,9.04906147 C14.6658525,8.81699525 14.7422147,8.56142609 14.6936342,8.32883277 C14.6288789,8.01670675 14.3380946,7.75923292 13.8292134,7.56394027 C13.8072217,7.55522181 13.7876728,7.54475919 13.7693453,7.53197328 C13.5304891,7.44304482 13.3148413,7.39769229 13.1278914,7.39769229 Z M8.974,12.124 L8.975,12.091 L8.974,12.091 L8.974,12.124 Z" id="citrus" fill="#000000"></path>
    </g>
</svg>