<?xml version="1.0" encoding="UTF-8"?>
<svg width="24px" height="24px" viewBox="0 0 24 24" version="1.1" xmlns="http://www.w3.org/2000/svg" xmlns:xlink="http://www.w3.org/1999/xlink">
    <!-- Generator: Sketch 57.1 (83088) - https://sketch.com -->
    <title>crops-cacao</title>
    <desc>Created with Sketch.</desc>
    <g id="crops-cacao" stroke="none" stroke-width="1" fill="none" fill-rule="evenodd">
        <path d="M18.7024579,3 C18.4873849,3.57527691 17.8187082,3.88022283 17.3393594,4.09078319 C16.4124555,4.49335723 15.1151545,4.81606499 13.7656652,4.96854827 C12.4161953,5.12102743 11.0075581,5.10005194 9.84669874,4.83946517 C8.68653733,4.57888253 7.8066649,4.08351322 7.40594743,3.36791782 L6.73953897,3.78742757 C7.30825922,4.8023512 8.41464268,5.3662688 9.68918401,5.65266806 C9.99209695,5.72043565 10.3056143,5.775297 10.6282238,5.81402193 L10.1435631,7.36301915 C9.8777558,7.26701437 9.61421669,7.20327829 9.35598947,7.1693945 C8.27686333,7.02821063 7.28551894,7.40577147 6.47303374,8.11816562 C5.38937118,9.06774222 4.57225262,10.56744 3.99602981,12.2488249 C3.41972946,13.9301271 3.08502278,15.7954089 3.01459189,17.4960013 C2.94416487,19.1966763 3.12364055,20.7327859 3.66283527,21.7879628 C3.74537881,21.9468961 3.93393508,22.0332207 4.09902991,21.9880416 C7.40150794,21.1175464 10.0452351,18.2268698 11.3788275,15.2176845 C12.0459921,13.7130506 12.3837424,12.1738018 12.2875664,10.8030425 C12.2012367,9.57675303 11.7385427,8.47479641 10.8404083,7.7566813 L11.4280497,5.87851185 C12.1262713,5.91401074 12.8449262,5.88819308 13.5537715,5.82042445 L14.1595974,7.75667097 C13.2607069,8.47470347 12.798011,9.5767427 12.7124393,10.8030322 C12.6162652,12.1737295 12.9540136,13.7130816 13.6211781,15.2176742 C14.9547511,18.2268595 17.5992732,21.1174948 20.9009758,21.9880312 C21.0660628,22.0332103 21.254623,21.9468858 21.3371704,21.7879524 C21.8763457,20.7326929 22.0558253,19.1965834 21.9854138,17.495991 C21.9150023,15.7953986 21.5810323,13.9299928 21.0039759,12.2488145 C20.4276755,10.5675123 19.6098203,9.06779385 18.5269719,8.11815529 C17.7144092,7.4057818 16.723123,7.02821889 15.6440162,7.16938417 C15.385789,7.20326797 15.1222499,7.26700404 14.8564426,7.36300882 L14.3475488,5.73011792 C15.5758535,5.55262762 16.7276206,5.244435 17.6304466,4.85235283 C18.3975675,4.50141202 19.4585286,3.8963324 19.4774497,3 L18.7024579,3 Z M8.9751237,7.95683089 C7.15688999,8.83540296 5.8618572,10.9112864 4.9956716,13.2298254 C4.40120616,14.8207695 3.99984894,16.5399292 3.77797127,18.1413858 C3.82037908,16.0083134 4.19144501,14.1309288 4.72910821,12.5327767 C5.27510757,10.9402217 6.04754041,9.56056084 6.96378178,8.75714762 C7.5885482,8.27954015 8.3170514,7.95602691 8.97434824,7.95683089 L8.9751237,7.95683089 Z M18.0359525,8.75714762 C18.9530275,9.56068476 19.7246849,10.9410272 20.2706261,12.5327767 C20.8166254,14.4698287 21.2429718,15.8009543 21.221763,18.1413858 C20.9998853,16.5399499 20.5985281,14.8199227 20.0040627,13.2298254 C19.137722,10.9110799 17.8428637,8.83542361 16.0246106,7.95683239 C16.9310812,7.96328655 17.5520479,8.34166526 18.035177,8.75714762 L18.0359525,8.75714762 Z M9.82928973,8.49898142 C8.73804707,12.6602075 6.67376082,16.2819696 4.36619427,20.1559083 C4.46388442,18.1793259 4.90158926,15.6993401 5.71112773,13.5340485 C6.63198306,11.0692841 8.00938878,9.0652948 9.82996825,8.49980755 L9.82928973,8.49898142 Z M15.17122,8.49898142 C16.9909659,9.06453063 18.3692052,11.068458 19.2900605,13.5332224 C20.0988429,15.6985139 20.5373058,18.1785617 20.634994,20.1550822 C18.3276213,16.2809369 16.2631606,12.6602075 15.1718985,8.49815529 L15.17122,8.49898142 Z M10.423096,9.29285282 C11.0039328,11.2008663 10.3829603,13.4235121 9.16902676,15.5146583 C8.148215,17.2734104 6.71315404,18.9030381 5.3287692,20.0842001 C7.42114639,16.5578563 9.31733293,13.1645197 10.4221655,9.29202669 L10.423096,9.29285282 Z M14.578383,9.29285282 C15.6840104,13.1653459 17.5794021,16.5586824 19.6717793,20.0850262 C18.287472,18.9031 16.8531865,17.2743191 15.8315217,15.5154844 C14.6176018,13.4243382 13.9973912,11.2016305 14.5774525,9.29367895 L14.578383,9.29285282 Z M11.3561648,9.9124517 C11.4424945,10.2069264 11.4955048,10.5264122 11.5197378,10.8676667 C11.6022813,12.0431284 11.3008844,13.4646121 10.6776301,14.8692428 C9.91806987,16.5820206 8.68063416,18.2479155 7.15240203,19.4710037 C8.14066398,18.4391444 9.07666012,17.2330125 9.82327024,15.9471383 C10.9372338,14.028633 11.6377236,11.8931028 11.355244,9.9124517 L11.3561648,9.9124517 Z M13.6455081,9.9124517 C13.3630478,11.8930615 14.0642937,14.0286536 15.1774818,15.9471383 C15.9241695,17.2331365 16.8601656,18.4399912 17.84835,19.4710037 C16.3209127,18.2471307 15.0826822,16.5820206 14.3231219,14.8692428 C13.7006431,13.4638479 13.3984862,12.0430457 13.4810143,10.8676667 C13.5052473,10.5264122 13.5582575,10.2069264 13.6445873,9.9124517 L13.6455081,9.9124517 Z" id="Shape" fill="#000000"></path>
    </g>
</svg>