<?xml version="1.0" encoding="UTF-8"?>
<svg width="24px" height="24px" viewBox="0 0 24 24" version="1.1" xmlns="http://www.w3.org/2000/svg" xmlns:xlink="http://www.w3.org/1999/xlink">
    <!-- Generator: Sketch 57.1 (83088) - https://sketch.com -->
    <title>crops-tablegrapes</title>
    <desc>Created with Sketch.</desc>
    <g id="crops-tablegrapes" stroke="none" stroke-width="1" fill="none" fill-rule="evenodd">
        <path d="M19.7777778,11.0117792 C19.7777778,9.61229306 18.585417,8.47342593 17.1201957,8.47342593 C16.0876619,8.47342593 15.1939971,9.03932787 14.7539461,9.86119012 C14.3925655,9.18609328 13.725094,8.6824081 12.9260855,8.52509289 C12.896584,8.25857676 12.7675142,6.72874198 13.5837075,5.83528537 C13.9868778,5.39381694 14.5769061,5.17076839 15.3365794,5.17076839 L15.3365794,4.5449941 C14.3777755,4.5449941 13.6218154,4.84203551 13.0883354,5.4267287 C12.9826212,5.54296282 12.8928897,5.66741436 12.8117584,5.79540053 C12.6482718,5.06043134 12.2918097,4.14464283 11.508787,3.58577409 C10.0693696,2.55727408 7.82606614,3.19011162 7.73134693,3.21827447 L7.50025092,3.28519805 L7.49902177,3.51531587 C7.49779262,3.60924213 7.49779262,5.84468702 8.93843918,6.87201483 C9.57762081,7.32872186 10.3754021,7.45787422 11.0723593,7.45787422 C11.5542,7.45787422 11.9881462,7.39682365 12.2892967,7.33811749 C12.2266058,7.83005062 12.2450461,8.253906 12.2647122,8.48050121 C11.2862406,8.52394173 10.4454738,9.07342385 10.0238317,9.8624044 C9.58378071,9.03936995 8.69011592,8.47464021 7.65758205,8.47464021 C6.19236074,8.47464021 5,9.61350733 5,11.0129935 C5,12.4124797 6.19236074,13.5513468 7.65758205,13.5513468 C7.8075468,13.5513468 7.95259623,13.5372579 8.09517854,13.5137763 C7.64405074,13.9693111 7.36624966,14.581019 7.36624966,15.2549437 C7.36624966,16.6544299 8.5586104,17.793297 10.0238317,17.793297 C10.1602746,17.793297 10.2918021,17.780382 10.4233202,17.7615965 C9.99554182,18.2124425 9.73249932,18.8077096 9.73249932,19.4616467 C9.73249932,20.8611329 10.9248601,22 12.3900814,22 C13.8553027,22 15.0476634,20.8611329 15.0476634,19.4616467 C15.0476634,18.8065073 14.7846083,18.2112403 14.3568425,17.7615965 C14.4871397,17.7803817 14.6198976,17.793297 14.756331,17.793297 C16.2215523,17.793297 17.4139131,16.6544299 17.4139131,15.2549437 C17.4139131,14.581019 17.1361089,13.9693412 16.6849842,13.5137763 C16.8275728,13.5360839 16.9726222,13.5513468 17.1225807,13.5513468 C18.5853475,13.5501728 19.7777778,12.4113075 19.7777778,11.0118213 L19.7777778,11.0117792 Z M9.32939857,6.36956797 C8.39888454,5.70622319 8.20466294,4.3161146 8.16410046,3.75724586 C8.73446119,3.63631694 10.1837281,3.42028354 11.1166967,4.08480053 C12.0472107,4.74814532 12.2414323,6.13942611 12.2819948,6.69712264 C11.7104068,6.82040198 10.2623671,7.03642936 9.32939857,6.36956797 L9.32939857,6.36956797 Z M15.1916055,12.7529466 C15.0490169,12.730639 14.9039675,12.7153761 14.754009,12.7153761 C14.6040442,12.7153761 14.4589948,12.729465 14.3164125,12.7529466 C14.4909634,12.5768341 14.6384578,12.3784138 14.754009,12.1611962 C14.8707843,12.3784018 15.0182913,12.5779883 15.1916055,12.7529466 Z M12.3889866,9.09929039 C13.4928274,9.09929039 14.3914012,9.95755094 14.3914012,11.0118694 C14.3914012,12.0661879 13.4928274,12.9244484 12.3889866,12.9244484 C11.2851458,12.9244484 10.386572,12.0661879 10.386572,11.0118694 C10.386572,9.95755094 11.2839186,9.09929039 12.3889866,9.09929039 Z M11.9513901,13.5127724 C12.0939787,13.5350797 12.2390281,13.5503429 12.3889866,13.5503429 C12.5377241,13.5503429 12.6840008,13.536254 12.8265831,13.5127724 C12.6520322,13.6888849 12.5045377,13.8873053 12.3889866,14.1045229 C12.2722113,13.8873173 12.1247042,13.6889029 11.9513901,13.5127724 Z M12.7872479,16.9539299 C12.6569507,16.9351446 12.5241928,16.9222294 12.3877593,16.9222294 C12.2513259,16.9222294 12.1197889,16.935144 11.9882708,16.9539299 C12.1456117,16.7883852 12.2795969,16.6040433 12.3877593,16.4032966 C12.4959312,16.6040643 12.6311468,16.7883792 12.7872479,16.9539299 Z M10.4603334,12.7529466 C10.3177448,12.730639 10.1726954,12.7153761 10.0227369,12.7153761 C9.87277219,12.7153761 9.72772277,12.729465 9.58514045,12.7529466 C9.75846088,12.5768341 9.90595853,12.3784138 10.0227369,12.1611962 C10.1382849,12.3784018 10.285792,12.5779883 10.4603334,12.7529466 Z M7.65645581,12.9243613 C6.55261505,12.9243613 5.65404122,12.0661007 5.65404122,11.0117822 C5.65404122,9.95746378 6.55261505,9.09920323 7.65645581,9.09920323 C8.76029656,9.09920323 9.65887039,9.95746378 9.65887039,11.0117822 C9.65887039,12.0661007 8.76029656,12.9243613 7.65645581,12.9243613 Z M10.0227055,17.1662213 C8.91886471,17.1662213 8.02029088,16.3079607 8.02029088,15.2536422 C8.02029088,14.1993238 8.91886471,13.3410632 10.0227055,13.3410632 C11.1265462,13.3410632 12.0251201,14.1993238 12.0251201,15.2536422 C12.0251201,16.3079607 11.1265462,17.1662213 10.0227055,17.1662213 Z M14.3901739,19.4603663 C14.3901739,20.5146848 13.4916001,21.3729453 12.3877593,21.3729453 C11.2839186,21.3729453 10.3853448,20.5146848 10.3853448,19.4603663 C10.3853448,18.4060478 11.2839186,17.5477873 12.3877593,17.5477873 C13.4916001,17.5477873 14.3901739,18.4060478 14.3901739,19.4603663 Z M16.7564236,15.2536723 C16.7564236,16.3079908 15.859077,17.1662513 14.754009,17.1662513 C13.6501682,17.1662513 12.7515944,16.3079908 12.7515944,15.2536723 C12.7515944,14.1993538 13.6501682,13.3410933 14.754009,13.3410933 C15.8578498,13.3410933 16.7564236,14.1993538 16.7564236,15.2536723 Z M15.1178755,11.0118123 C15.1178755,9.95749384 16.0152221,9.09923328 17.1202901,9.09923328 C18.2241309,9.09923328 19.1227047,9.95749384 19.1227047,11.0118123 C19.1227047,12.0661308 18.2241309,12.9243913 17.1202901,12.9243913 C16.0164494,12.9243913 15.1178755,12.0661308 15.1178755,11.0118123 L15.1178755,11.0118123 Z" id="Shape" fill="#000000"></path>
    </g>
</svg>