<?xml version="1.0" encoding="UTF-8"?>
<svg width="24px" height="24px" viewBox="0 0 24 24" version="1.1" xmlns="http://www.w3.org/2000/svg" xmlns:xlink="http://www.w3.org/1999/xlink">
    <!-- Generator: Sketch 57.1 (83088) - https://sketch.com -->
    <title>crops-buttercup</title>
    <desc>Created with Sketch.</desc>
    <g id="crops-buttercup" stroke="none" stroke-width="1" fill="none" fill-rule="evenodd">
        <path d="M14.5722875,5 C13.7562266,5 12.5101147,5.38044153 12.0054759,7.52767742 C11.4981834,5.38039919 10.252015,5 9.43866431,5 C7.40669922,5 5.00264244,7.40094355 5.00264244,9.43235484 C5.00264244,10.2565202 5.38862405,10.9456815 6.11922807,11.4225565 C6.50520969,11.6733851 6.98216744,11.8663367 7.55014368,12.0014113 C6.22954282,12.3156492 5.598215,12.9000081 5.30037226,13.4182056 C4.82893377,14.2368669 4.91439064,15.2870363 5.54299411,16.3758468 C6.42247716,17.8973589 8.05729506,19 9.43315916,19 C10.2492201,19 11.495332,18.6196149 11.9999708,16.472379 C12.5072633,18.6196573 13.7534317,19 14.5667824,19 C16.5959243,19 19,16.5964315 19,14.5677016 C19,13.7435363 18.6139995,13.054375 17.8833955,12.5775 C17.5001805,12.3266714 17.0232087,12.1337198 16.457985,12.0014113 C17.0231663,11.8691028 17.5001241,11.6761512 17.8833955,11.4253226 C18.6139995,10.9484617 19,10.2593569 19,9.43512097 C19.0054951,7.4008871 16.6014295,5 14.5722875,5 L14.5722875,5 Z M13.4667404,13.4594718 C13.0752537,13.850879 12.5569367,14.0658891 12.0054759,14.0658891 C11.4540151,14.0658891 10.9330021,13.8508931 10.5442114,13.4594718 C9.73917493,12.6545988 9.73917493,11.3425363 10.5442114,10.5376774 C10.9356982,10.1462702 11.4540151,9.93126008 12.0054759,9.93126008 C12.5569367,9.93126008 13.0779498,10.146256 13.4667404,10.5376774 C14.2717769,11.3425504 14.2717769,12.6546129 13.4667404,13.4594718 L13.4667404,13.4594718 Z M6.36749624,11.0448952 C5.76095572,10.6479698 5.45493994,10.1077137 5.45493994,9.43235484 C5.45493994,7.64622581 7.6495187,5.45209274 9.43601054,5.45209274 C10.8944519,5.45209274 11.7188129,6.88271774 11.7738644,9.49304032 C11.2610667,9.5398994 10.7813563,9.73836492 10.3898555,10.069129 L9.46075549,9.14021774 L9.1409486,9.45995968 L10.0700486,10.388871 C9.73369802,10.7913145 9.54070721,11.2764456 9.49659543,11.7753508 C8.11258653,11.7395167 7.05936659,11.4969456 6.36741154,11.0448952 L6.36749624,11.0448952 Z M9.43598231,18.547879 C8.23117311,18.547879 6.72589564,17.5169738 5.93456557,16.1498145 C5.62026384,15.6040403 5.16812161,14.5511048 5.69194372,13.6442097 C6.20198883,12.7594012 7.51711277,12.271504 9.4965672,12.2300968 C9.54067898,12.72625 9.73366978,13.211381 10.0700204,13.6165766 L9.14092037,14.5454879 L9.46072726,14.8652298 L10.3898272,13.9363185 C10.7840807,14.2670968 11.263791,14.4655524 11.7738361,14.5124073 C11.7186971,17.1145444 10.8943531,18.5450282 9.43598231,18.547879 L9.43598231,18.547879 Z M17.6407736,12.9523952 C18.2473141,13.3493206 18.5533299,13.8895766 18.5533299,14.5649355 C18.5533299,16.3510645 16.3587511,18.5451976 14.5722593,18.5451976 C13.1138179,18.5451976 12.289457,17.1145726 12.2344055,14.50425 C12.7472032,14.4573909 13.2269135,14.2589254 13.6184144,13.9281613 L14.5475144,14.8570726 L14.8673212,14.5373306 L13.9382213,13.6084194 C14.2745718,13.2059758 14.4675626,12.7208448 14.5116744,12.2219395 C15.8956833,12.2577736 16.9489033,12.5003448 17.6408583,12.9523952 L17.6407736,12.9523952 Z M17.6407736,11.0448952 C16.9487762,11.4969456 15.895641,11.7422702 14.5115897,11.7698327 C14.4674779,11.2736794 14.2744871,10.7885484 13.9381366,10.3833528 L14.8672365,9.45444153 L14.5474297,9.1346996 L13.6183297,10.0636109 C13.2240762,9.73283266 12.7443659,9.53437702 12.2343208,9.48752218 C12.2894598,6.87988105 13.1165564,5.4465746 14.5721746,5.4465746 C16.3586665,5.4465746 18.5532452,7.64070766 18.5532452,9.42683669 C18.5532452,10.1049194 18.2472153,10.6479274 17.6406889,11.044881 L17.6407736,11.0448952 Z" id="Buttercup" stroke="#000000" stroke-width="0.3" fill="#000000"></path>
    </g>
</svg>