<?xml version="1.0" encoding="UTF-8"?>
<svg width="24px" height="24px" viewBox="0 0 24 24" version="1.1" xmlns="http://www.w3.org/2000/svg" xmlns:xlink="http://www.w3.org/1999/xlink">
    <!-- Generator: Sketch 57.1 (83088) - https://sketch.com -->
    <title>crops-cotton</title>
    <desc>Created with Sketch.</desc>
    <g id="crops-cotton" stroke="none" stroke-width="1" fill="none" fill-rule="evenodd">
        <path d="M11.6494064,3 C13.9185171,3 15.8586076,4.4048107 16.6231923,6.37566743 L16.5041211,6.32117962 C18.2059056,7.05051704 19.307495,8.6999617 19.307495,10.5289544 C19.3047311,10.9779775 19.2396285,11.4170962 19.1121867,11.8391041 L20.3178844,11.8380927 L20.3178844,12.4814094 C20.3178844,15.937365 17.4612203,18.7498889 13.9514599,18.7498889 L13.4158548,18.7498889 C13.3892642,18.7798104 13.3588752,18.8134718 13.3284862,18.8433933 L12.973,19.192 L12.6142696,22 L10.6997523,22 L10.342,19.209 L9.97420858,18.8471275 C9.94381957,18.8172061 9.91722894,18.7872846 9.88683993,18.7536231 L9.3664245,18.7536231 C5.85646962,18.7536231 3,15.9409077 3,12.4851436 L3,11.8418269 L4.18830389,11.8415194 C4.0600153,11.4183748 3.99509078,10.9787932 3.99509078,10.528897 C3.99509078,8.74702455 5.04071318,7.13557511 6.67184004,6.37926951 C7.43468038,4.40721641 9.37850396,3 11.6494064,3 Z M12.206,19.947 L11.6494064,20.496553 L11.109,19.964 L11.2847188,21.3455209 L12.0292447,21.3455209 L12.206,19.947 Z M11.6529752,10.6673248 L10.448812,11.8529625 C9.96258782,12.3317062 9.56754042,12.8927365 9.27502798,13.5248315 L9.10029069,13.8951111 L8.76981386,13.6482516 C7.75938173,12.8964707 6.566635,12.5000134 5.31314915,12.5000134 L3.6646334,12.5 C3.67223056,15.5894293 6.22489527,18.1028342 9.36629225,18.1028342 L10.1829932,18.1028342 L10.3539321,18.286103 C10.3843211,18.3197645 10.4147102,18.3534259 10.4450992,18.3833474 L11.6492624,19.5689851 L12.8534257,18.3833474 C12.8876131,18.3496859 12.9142037,18.3160245 12.9445927,18.2823631 L13.1117333,18.0990942 L13.9436239,18.0990942 C17.0813256,18.0990942 19.6376976,15.5895193 19.6452827,12.4962601 L18.0004837,12.4962601 C16.7431469,12.4962601 15.5466077,12.8964516 14.5399292,13.65572 L14.2094523,13.9063137 L14.0347151,13.5322999 C13.7384295,12.8964707 13.3433627,12.3317062 12.8571385,11.8529625 L11.6529752,10.6673248 Z M11.6494064,3.65453849 C9.08155939,3.65453849 6.99235147,5.71160475 6.99235147,8.23994638 L6.32758129,8.23994638 C6.32714848,7.91055858 6.35786012,7.58813119 6.4169751,7.27536273 C5.33210456,7.99765577 4.66378513,9.20890491 4.66378513,10.5288012 C4.66378513,10.9823345 4.73894985,11.4216435 4.89180635,11.841757 L5.3171498,11.8418269 C6.58209109,11.8418269 7.79378112,12.2046189 8.84227487,12.8965569 C9.14616496,12.3355266 9.52602272,11.8306051 9.97426303,11.3892608 L11.6494608,9.73983531 L13.3246586,11.3892608 C13.7766915,11.8343393 14.1565492,12.3430142 14.4604393,12.9040444 C15.5126673,12.2046381 16.7281887,11.8380927 18.0007346,11.8380927 L18.413,11.838 L18.4254946,11.8074468 C18.5688249,11.3974143 18.6426905,10.9683295 18.6426905,10.5288587 C18.6426905,9.20483383 17.9702406,7.99032593 16.8796732,7.26865575 C16.9397862,7.58401538 16.9712269,7.9084561 16.9712269,8.23994638 L16.3064612,8.23994638 C16.3064612,5.71160475 14.2172533,3.65453849 11.6494064,3.65453849 Z" id="Combined-Shape" fill="#000000" fill-rule="nonzero"></path>
    </g>
</svg>