<?xml version="1.0" encoding="UTF-8"?>
<svg width="24px" height="24px" viewBox="0 0 24 24" version="1.1" xmlns="http://www.w3.org/2000/svg" xmlns:xlink="http://www.w3.org/1999/xlink">
    <!-- Generator: Sketch 57.1 (83088) - https://sketch.com -->
    <title>crops-pecan</title>
    <desc>Created with Sketch.</desc>
    <g id="crops-pecan" stroke="none" stroke-width="1" fill="none" fill-rule="evenodd">
        <path d="M8.96395911,3.38864001 C8.4786374,3.15342132 7.26452371,2.76239118 6.00929203,3.19313276 C4.95641264,3.58414727 4.14700352,4.48379345 3.66168181,5.89050724 C1.47692469,8.78338898 5.36111721,15.6259865 5.84643892,16.447899 C8.23354831,19.6936322 10.7441735,21.5310876 13.3334733,21.9221021 C13.6575527,21.9618135 13.9816482,22 14.2646176,22 C16.1269061,22 17.2999018,21.1782439 17.2999018,21.1400809 C17.4216289,21.062183 19.8498643,19.5362958 20.4158032,16.3700949 C20.9422429,13.5551033 19.7676284,10.4270654 17.0169324,6.9857467 C16.8161625,6.82995088 12.6886171,2.72447059 8.96412099,3.38872604 L8.96395911,3.38864001 Z M19.1035507,16.1329877 C18.6599998,18.7191815 16.6074898,19.9934394 16.5272835,20.032816 C16.4863911,20.0720228 15.3193562,20.8818066 13.4665569,20.5726616 C11.33223,20.2258232 9.07855991,18.5655356 6.9832088,15.747097 C5.41354763,13.084003 3.43963347,8.29603919 4.80958401,6.67503552 L4.88979843,6.52121969 C4.88979843,6.52121969 5.05022727,6.21208244 5.29244084,6.17438126 C5.53465441,6.13517452 6.0175193,6.4066106 6.66078081,7.17871638 C8.51358013,9.41808719 11.6527414,16.9834916 12.0964534,17.9879811 C12.4582034,18.6831712 12.700417,18.9923162 13.3043806,18.9923162 L13.345273,18.9923162 C13.990145,18.9923162 13.5057018,17.9879811 13.345273,17.5642579 C13.022845,16.7529454 9.72149126,8.83886502 7.7082792,6.36894803 C7.06340712,5.5576355 6.4201456,5.09469014 5.81618199,4.94088974 C6.01750319,4.74786716 6.25973287,4.59405132 6.54126044,4.47794437 C6.98481132,4.32412854 7.4676601,4.32412854 7.87030251,4.43873763 C7.87030251,4.55485229 7.82941015,4.70866813 7.87030251,4.8247828 C7.99140929,6.09904069 9.35975732,7.75934375 11.8967266,9.766547 C11.937619,9.80575375 14.8756362,12.5080854 14.9165447,15.6340475 C14.7954379,17.6803958 16.2455868,15.5948408 16.2455868,15.5948408 C16.0835876,11.9636227 12.8624644,8.99153816 12.7020114,8.83596196 C9.52178062,6.32666836 9.15843611,5.09163266 9.07822974,4.74311108 C12.0980478,4.04792094 16.0032766,7.90837263 16.0032766,7.90837263 C18.4993374,10.9590174 19.5059434,13.7384268 19.103301,16.133065 L19.1035507,16.1329877 Z" id="Shape" fill="#000000"></path>
    </g>
</svg>