<?xml version="1.0" encoding="UTF-8"?>
<svg width="24px" height="24px" viewBox="0 0 24 24" version="1.1" xmlns="http://www.w3.org/2000/svg" xmlns:xlink="http://www.w3.org/1999/xlink">
    <!-- Generator: Sketch 58 (84663) - https://sketch.com -->
    <title>crops-cactus</title>
    <desc>Created with Sketch.</desc>
    <g id="crops-cactus" stroke="none" stroke-width="1" fill="none" fill-rule="evenodd">
        <path d="M9.24167256,3.2206435 L9.25854036,3.2868848 L9.33818651,3.76995207 C9.4715137,3.75783295 9.60569413,3.76389207 9.73728159,3.78726643 C9.96166841,3.83435646 10.1722105,3.93020736 10.3547161,4.06728019 L10.4861168,4.17769613 L10.4869826,4.17683048 L10.8679048,4.05736347 C11.0401708,4.00975706 11.2193757,4.10757392 11.2739144,4.27811792 C11.3199249,4.42503364 11.2590758,4.5802322 11.1344434,4.6591928 L11.0670113,4.69192863 L10.8964673,4.74473648 C10.9406186,4.83823394 10.9761134,4.93519313 11.0029495,5.03474971 C11.1215611,5.651122 10.9163844,6.28482506 10.4601554,6.71508005 C10.1207872,7.02414825 9.68534626,7.20854356 9.22738865,7.23537965 L9.27727637,7.32184175 L9.32521437,7.4102519 L9.3693657,7.50374937 C9.49054806,7.38082064 9.68620394,7.37043104 9.81865794,7.48124154 C9.93293078,7.57548112 9.96833677,7.73141129 9.91397184,7.86344641 L9.87925798,7.92707648 L9.65763699,8.2110173 C9.81000142,8.67331868 9.93466323,9.14339896 10.0316224,9.62039381 C10.9094631,8.98842605 12.1395926,8.73390764 13.4935639,8.91570555 C13.9350772,8.97197512 14.3679252,9.08451648 14.7817359,9.24986568 C14.5306836,8.72351583 14.3584043,8.16427743 14.2692373,7.58770826 L14.2433738,7.57688596 L14.2181604,7.56346736 L13.6909462,7.22237049 C13.5342535,7.12454699 13.4866382,6.9185126 13.5844639,6.76181992 C13.6683127,6.6275119 13.8322983,6.57334239 13.9761154,6.6222109 L14.0458788,6.65533768 L14.0450132,6.65447203 L14.2025724,6.75662601 C14.2017081,6.42765181 14.2372007,6.09867761 14.3090547,5.77750448 C14.4006186,5.26960827 14.6420049,4.80209195 15.00034,4.43450779 L15.1401334,4.30146436 L15.0206664,3.94478754 C14.988635,3.86255507 14.9903659,3.77079069 15.0258607,3.68941368 C15.0531301,3.62903082 15.0974444,3.57838655 15.1525928,3.54369088 L15.2111226,3.51454142 C15.625802,3.36649993 15.6959229,3.9318041 15.7340151,3.9915376 C16.1821898,3.86910214 16.6507336,3.85161136 17.104742,3.93906526 L17.3295076,3.9915376 L17.4714825,3.57254096 C17.4957234,3.48424051 17.5545903,3.40892262 17.6359673,3.36563782 C17.71648,3.32235236 17.8117084,3.31456172 17.8982779,3.3439952 C17.9848498,3.37256436 18.0558372,3.43662613 18.0947937,3.519734 C18.1233619,3.5820649 18.131965,3.65121356 18.1198722,3.71768355 L18.1008537,3.78290892 L17.9658023,4.18805425 C18.2982338,4.31826102 18.6090493,4.49666414 18.888513,4.7175107 L19.092,4.891 L19.6366016,4.44777189 C19.7597722,4.34833878 19.9312949,4.35067042 20.0508406,4.44386412 L20.1058176,4.49798234 C20.2052507,4.62041211 20.2029191,4.79182898 20.1097253,4.91135955 L20.0556071,4.96633398 L19.5309859,5.39831761 C20.0513284,6.10693152 20.1855771,7.02292672 19.8999112,7.84575286 L19.8322575,8.02053716 L19.9361423,8.02053716 C20.119725,8.03364249 20.2651793,8.18601136 20.2609303,8.36953126 C20.2570465,8.53011118 20.1399104,8.66153558 19.9877372,8.68898272 L19.9206029,8.69416169 L19.9206029,8.69329604 L19.9076173,8.69329604 L19.4816839,8.67338472 L19.3752017,8.82228743 C18.992573,9.30362606 18.5372084,9.7226227 18.0255742,10.0637196 C17.7165237,10.2974632 17.3745625,10.4853136 17.0109711,10.620365 C16.8309041,10.6800985 16.6439158,10.7164581 16.4543257,10.7285781 C17.4246662,12.4400432 17.5115458,15.5521555 16.7420528,20.8855298 L16.6759467,21.335137 L18.6843869,21.335137 C18.8679156,21.335137 19.0168184,21.4840397 19.0168184,21.6675685 C19.0168184,21.8281562 18.9028147,21.9622333 18.7513639,21.9932434 L18.6843869,22 L6.2000333,22 C6.01650453,22 5.86760182,21.8510973 5.86760182,21.6675685 C5.86760182,21.5069808 5.98160546,21.3729037 6.13305631,21.3418936 L6.2000333,21.335137 L8.52439424,21.335137 C8.0854916,18.3858049 7.71148402,14.6468372 8.48024291,12.058304 C7.8509976,11.7971079 7.25672679,11.457675 6.71216836,11.0492863 L6.44410007,10.8393886 C6.37743958,10.8748834 6.30818302,10.9077786 6.24412125,10.9476017 C6.1913134,10.9796335 6.13071336,10.9969478 6.069249,10.9969478 C5.92035072,10.9986986 5.78789893,10.8999975 5.74807586,10.7562896 C5.71416969,10.6365404 5.75060203,10.5101656 5.83783354,10.4272801 L5.89611203,10.3831685 L5.92381377,10.3658544 C5.74809048,10.1944305 5.57754205,10.017834 5.41825197,9.82911048 C5.27165707,9.65828502 5.13583985,9.47898871 5.01130855,9.29225251 L4.83303958,9.00669715 L4.68673427,9.00669715 C4.55688653,9.00669715 4.4278876,8.99977149 4.29889754,8.98678583 C4.11537763,8.96686211 3.98205842,8.80237944 4.00196974,8.61885067 C4.02102914,8.43533076 4.18637613,8.30201155 4.3699049,8.32192287 C4.42271275,8.333177 4.47638714,8.333177 4.52919499,8.333177 C4.16994737,7.25618764 4.50670046,6.26928721 5.13173813,5.77323295 C5.36113433,5.5950349 5.62722111,5.46974732 5.90943953,5.40688274 L6.08054191,5.37673084 L6.08054191,4.8910706 C6.08054191,4.70754183 6.22944462,4.55863912 6.4129734,4.55863912 C6.57356108,4.55863912 6.70763817,4.67264276 6.73864826,4.82409361 L6.74540488,4.8910706 L6.74540488,5.37413787 C6.89604067,5.39145312 7.04407463,5.42261968 7.18864686,5.46763534 C7.38083658,5.52909084 7.56696054,5.60960131 7.74269933,5.70915789 C7.71413239,5.31092714 7.80069976,4.91269638 7.99288727,4.5629563 C8.13284092,4.34148306 8.32088941,4.15547225 8.54150131,4.01745932 L8.6776518,3.94051159 L8.59367739,3.38645911 C8.56597477,3.20292147 8.69235857,3.03151094 8.87588956,3.00380831 C9.036485,2.97956852 9.18779562,3.07330114 9.24167256,3.2206435 Z M10.1448605,10.3847899 C7.96608527,12.4692432 8.80032286,18.686824 9.16805767,21.1447779 L9.19605676,21.3308722 L16.002,21.33 L16.0663853,20.9011568 C16.8553422,15.4866007 16.7582027,12.3654376 15.7408027,10.8651948 L15.6585691,10.7501099 C15.1599219,10.0947766 14.4483191,9.71991804 13.386954,9.57361273 C12.0615275,9.39008839 10.8781157,9.68703835 10.1448605,10.3847899 Z M9.75006491,19.2695753 C10.0781748,19.5024547 10.4253219,19.7058917 10.7871847,19.8790331 C10.9256956,19.9482918 10.9984138,20.1023871 10.9637856,20.2530207 C10.9300327,20.4027944 10.797572,20.5101412 10.6434767,20.5127383 C10.5932663,20.5127383 10.5447867,20.5014835 10.4997688,20.4798409 C10.1032667,20.2902442 9.72409536,20.0677588 9.36482558,19.8149779 C9.21419201,19.7084891 9.17869719,19.4998528 9.28517943,19.3492193 C9.33625642,19.2773653 9.41417171,19.2280205 9.5007413,19.2133036 C9.58817743,19.1985879 9.67821095,19.2184983 9.75006491,19.2695753 Z M13.5844848,18.868663 C13.7333742,18.9725545 13.7705999,19.1777356 13.666715,19.3275026 C13.4563524,19.6270234 13.2615653,19.9378247 13.0840956,20.2581335 C13.0252331,20.3628849 12.9135516,20.4278123 12.7932181,20.4269552 C12.7378128,20.4269552 12.6824076,20.4122288 12.633928,20.3845262 C12.4781018,20.2962324 12.4200992,20.0997077 12.5032071,19.9412842 C12.6919395,19.6010516 12.8988448,19.2703488 13.1213302,18.9509043 C13.1715406,18.878186 13.2494537,18.8288403 13.3360255,18.8132577 C13.4225973,18.7985399 13.5126308,18.817586 13.5844848,18.868663 Z M15.9485899,18.1120742 C16.0302123,18.2374673 16.0164314,18.3984928 15.9225114,18.5079069 L15.8689437,18.5579091 L15.8698094,18.5587748 L15.1538628,19.0262621 C15.0993241,19.0608899 15.0361266,19.0790796 14.9720649,19.0790796 C14.8595235,19.0799343 14.7556387,19.0227981 14.6950386,18.9284364 C14.6465588,18.8539894 14.6309762,18.7630894 14.6508873,18.6765198 C14.6651719,18.6115909 14.6989349,18.5529936 14.7466974,18.5080309 L14.7989235,18.4678836 L15.5079409,18.0021302 C15.6611696,17.9172893 15.8533616,17.9649045 15.9485899,18.1120742 Z M9.72595255,17.2283153 C9.90948428,17.2906454 10.0960891,17.3418187 10.2852615,17.3823466 L10.5708826,17.4352184 L10.5613639,17.4283016 C10.7448883,17.4412886 10.8834014,17.6014497 10.8695501,17.7849784 C10.8581865,17.9455622 10.7341427,18.0710214 10.5803594,18.0911778 L10.5128733,18.0931646 L10.4600654,18.0931646 C10.135435,18.0412211 9.81596834,17.963308 9.50432491,17.8585566 C9.33031697,17.7970789 9.23941912,17.6066312 9.30088349,17.4326232 C9.36149683,17.2586153 9.55194461,17.1677152 9.72595255,17.2283153 Z M11.8376778,15.894808 L11.9006519,15.9392546 L11.8997863,15.9392546 L12.7221996,16.6681882 C12.7888588,16.7261797 12.828681,16.8084211 12.834741,16.8967237 C12.8399358,16.9850153 12.8096357,17.0715871 12.7516331,17.1382463 C12.6867216,17.204921 12.5966903,17.2421464 12.5031929,17.2395492 C12.4415119,17.2401975 12.3817781,17.2233158 12.3302006,17.1918259 L12.2815719,17.1555748 L11.4574077,16.4353066 C11.3197612,16.3132378 11.3076407,16.1028729 11.4305717,15.9652263 C11.5352021,15.8479844 11.7047031,15.8223307 11.8376778,15.894808 Z M15.9589631,15.2509507 C16.0515851,15.2422942 16.1442161,15.2725876 16.2134726,15.3349252 C16.2827292,15.3972627 16.3225509,15.4864297 16.3234307,15.5799272 C16.3240684,15.6494037 16.3023147,15.7174167 16.262546,15.7737423 L16.2169344,15.8257935 L15.4637776,16.6767738 C15.3988404,16.7494982 15.3044786,16.7893153 15.2066529,16.7849869 C15.1244116,16.7849869 15.045632,16.7538203 14.9850319,16.6992816 C14.9201036,16.6404035 14.8811475,16.5572957 14.8768188,16.4698595 C14.8735726,16.4042858 14.8902923,16.3391969 14.9236895,16.2833592 L14.9625241,16.23093 L15.7252194,15.3825382 C15.7814934,15.3080869 15.8663322,15.2604736 15.9589631,15.2509507 Z M9.52688371,14.7177705 L10.5284998,14.8086706 C10.7120374,14.8181781 10.8531466,14.9748819 10.8427583,15.1584107 C10.8344392,15.3197624 10.7134247,15.4473055 10.5603497,15.4702906 L10.4930183,15.4735336 L10.4575234,15.4735336 L9.45590737,15.3670513 L9.45587634,15.3826335 C9.27235644,15.3627098 9.13903745,15.1982271 9.15894854,15.0146983 C9.17800795,14.8311784 9.34335272,14.6978592 9.52688371,14.7177705 Z M13.6519263,13.1412918 C13.7721354,13.2429588 13.8020295,13.4113982 13.7334289,13.5457658 L13.6908828,13.6096434 L12.9550346,14.4805474 C12.8987695,14.5489397 12.8173925,14.5913588 12.7299564,14.5991501 C12.6416426,14.6069401 12.5542065,14.5783732 12.4875473,14.5203705 C12.4200216,14.4641054 12.3776027,14.3827284 12.3698112,14.2952922 C12.3646169,14.2290569 12.3789011,14.1638027 12.4104721,14.1068279 L12.4477242,14.0528832 L13.1835724,13.1776576 L13.1835746,13.179384 C13.3021862,13.0391378 13.5116823,13.0218248 13.6519263,13.1412918 Z M15.7615919,12.1854117 C15.8855128,12.2766878 15.929292,12.4372829 15.8754868,12.5745284 L15.8403715,12.6407763 L15.2066684,13.5099517 C15.1434599,13.5956569 15.043039,13.6458687 14.9365568,13.6450141 C14.8664359,13.6450141 14.7980436,13.6224952 14.7409075,13.5809413 C14.6147621,13.4882024 14.5725718,13.322937 14.6306934,13.184387 L14.6681893,13.1177978 L15.3044986,12.2486091 C15.4153091,12.1074986 15.6170196,12.079796 15.7615919,12.1854117 Z M10.3337481,11.8608743 C10.5986517,12.1777258 10.8956016,12.4668747 11.2202321,12.7231129 C11.3474824,12.8408624 11.3630668,13.0365116 11.255718,13.1732939 C11.1483648,13.3092096 10.9544553,13.3403739 10.8098831,13.2442813 C10.4514776,12.959454 10.1216391,12.6400095 9.82557561,12.2911337 C9.70697293,12.150892 9.72428817,11.9413848 9.86453215,11.8219178 C10.0047739,11.7033151 10.2142811,11.7206303 10.3337481,11.8608743 Z M12.5683213,10.1321439 L12.6096428,10.1969683 L13.1368569,11.275642 C13.2173696,11.4409934 13.1489774,11.6409642 12.983626,11.7214769 C12.8418962,11.7904878 12.6753651,11.7500975 12.5799768,11.6330224 L12.5386553,11.568246 L12.0114412,10.4869793 C11.9309285,10.3216279 12.0001872,10.1225192 12.1646721,10.042873 C12.3064019,9.97386213 12.472933,10.0148874 12.5683213,10.1321439 Z M5.57049916,6.29610911 C5.15253305,6.62887303 4.91640957,7.31162497 5.18598035,8.12610937 L5.24673306,8.29069802 L5.33763312,8.28204106 C5.4242005,8.26299495 5.51423402,8.27857934 5.58868538,8.32619239 C5.66313673,8.37294112 5.71594525,8.44825902 5.73499069,8.53482861 C5.76442417,8.67766777 5.69776501,8.82397308 5.57050581,8.89582704 C5.68736656,9.070686 5.81376144,9.23863925 5.94967716,9.39879587 C6.0801085,9.54942427 6.21669598,9.69466974 6.3589274,9.83427291 L6.57644348,10.0394135 L6.79806447,9.9554391 C6.9452208,9.90609297 7.10625283,9.96409561 7.18762984,10.0965496 C7.26814032,10.2281482 7.24736335,10.3986899 7.13741939,10.506903 C7.61964273,10.878315 8.14512826,11.1890941 8.7017737,11.4332318 C8.84721025,11.0620078 9.04085736,10.7123998 9.27738191,10.3928273 L9.46273152,10.1589111 C9.39693875,9.84437182 9.32999316,9.52674954 9.2518889,9.21272245 L9.12511278,8.74521297 L9.0852897,8.74521297 C9.01170489,8.74521297 8.93985093,8.72097428 8.88184828,8.67422555 C8.81172519,8.62055338 8.76584344,8.54090723 8.75458908,8.4534711 C8.74614864,8.38853726 8.75767404,8.32263479 8.78697279,8.26415875 L8.82211478,8.2084691 L8.82124913,8.20760345 L8.90349046,8.10371861 C8.84981607,7.97298438 8.79267997,7.84227011 8.73034906,7.71847484 C8.318267,6.90556905 7.69150068,6.32467828 7.00412101,6.10305729 C6.52364671,5.92992475 5.98863148,6.00177428 5.57049916,6.29610911 Z M8.61747981,9.5099816 L8.68178082,9.52090571 C8.76748388,9.54254922 8.84107091,9.59795447 8.88608656,9.67413668 C8.93110421,9.75031447 8.94408921,9.84034799 8.92158138,9.92605326 L8.92158138,9.92605326 L8.81509915,10.323421 C8.77616034,10.4688664 8.64283093,10.570153 8.49133304,10.5692929 C8.4627661,10.5684217 8.43333261,10.5649589 8.40476345,10.5580332 C8.3199225,10.5355254 8.24720467,10.4801157 8.20305289,10.4039379 C8.15890111,10.3277601 8.14764764,10.2377266 8.17015547,10.1520213 L8.17015547,10.1520213 L8.27663771,9.75551923 C8.29914554,9.67067829 8.354553,9.59796023 8.430733,9.55380868 C8.506913,9.50965712 8.59694652,9.49753689 8.68178526,9.52091126 Z M15.9572431,4.63148372 C15.9754249,4.75355256 16.3277668,5.2634537 15.8845248,5.41841553 C15.84903,5.43140119 15.8118043,5.43832685 15.7737143,5.43832685 C15.6568351,5.43904712 15.5495825,5.37724564 15.4905261,5.27947334 L15.4611844,5.21670586 L15.4620503,5.21670586 L15.3841372,4.99508487 C15.170304,5.27211111 15.0240009,5.59414857 14.9564752,5.93697407 C14.6621403,7.2285812 15.1252839,8.94443739 16.0645801,10.0369624 C16.3069892,10.0897702 16.5597701,10.0724572 16.7935137,9.98848279 C17.0930345,9.87075772 17.3752688,9.71145877 17.631507,9.51667386 C17.9113478,9.32514346 18.1741474,9.11022651 18.4169792,8.87376488 L18.6530468,8.6301899 L18.6521811,8.62932425 L18.3422663,8.61633859 C18.1587354,8.60853753 18.016759,8.45358457 18.0245505,8.2700558 C18.0313764,8.10946812 18.1515273,7.98003071 18.3044083,7.95540011 L18.3716976,7.95147562 L19.1049528,7.98263997 L19.1163085,7.98522451 C19.5032742,7.29959566 19.458263,6.45118619 19.0011697,5.81056855 C18.9596158,5.82961289 18.9154644,5.84000137 18.8704488,5.8417329 C18.7700212,5.84086858 18.6747929,5.7958507 18.6107311,5.71793763 C18.5421687,5.63136361 18.5212523,5.51820357 18.5515312,5.41567795 L18.5838951,5.34135924 L18.5838951,5.34049359 C17.7942816,4.64879786 16.5978607,4.44102708 15.9572431,4.63148372 Z M17.6392713,8.87248813 C17.7093944,8.92876878 17.7526792,9.01187665 17.7596048,9.10191018 C17.7732373,9.26173964 17.6722044,9.405001 17.5243622,9.44991798 L17.4583332,9.46290861 L16.8687771,9.51831386 L16.8402079,9.51831386 C16.6566814,9.52697924 16.5008619,9.38498889 16.4921965,9.20146233 C16.4846143,9.04087659 16.5923762,8.90149779 16.7423851,8.86336261 L16.809048,8.85345089 L17.3899477,8.80063418 C17.4791146,8.78938026 17.5691482,8.81535203 17.6392713,8.87248813 Z M7.08458495,8.34168592 L7.08458495,8.34168592 C7.26810929,8.39622684 7.45771048,8.42479467 7.64903145,8.42566033 C7.83342454,8.42566033 7.98146071,8.57456304 7.98146071,8.75809181 C7.98146071,8.94162058 7.83342454,9.09052329 7.64902923,9.09052329 C7.3936332,9.08965897 7.13912366,9.05156676 6.89325733,8.97798194 C6.72704159,8.91823292 6.63614152,8.7381703 6.68721851,8.56935716 C6.72308945,8.4481653 6.82255883,8.36230277 6.93925262,8.33859104 L7.01096483,8.33203667 Z M15.7685739,6.79907315 L15.8360853,6.80951586 C15.9029622,6.82639839 15.9620465,6.86373169 16.0060352,6.91567411 L16.0447215,6.97226988 L16.4611164,7.63714171 C16.5078642,7.71158863 16.5234468,7.80162438 16.5044012,7.88819397 C16.4844907,7.97389924 16.4316829,8.04835059 16.3572315,8.09596364 C16.3044237,8.12972672 16.2420928,8.14704063 16.1797619,8.14704063 C16.0883494,8.14634918 16.0024715,8.10853461 15.940307,8.044237 L15.898414,7.99121448 L15.483739,7.32635152 C15.4291992,7.25275783 15.4084222,7.15926259 15.4257363,7.06836252 C15.4430516,6.97832678 15.496726,6.89868284 15.5746391,6.85020325 C15.6135967,6.82553107 15.6566665,6.80951563 15.7011428,6.80259003 L15.7685739,6.79907315 Z M6.80753655,6.11260206 C6.96812423,6.11260206 7.10220132,6.22594225 7.13321141,6.37780776 L7.13996803,6.44503354 L7.13996803,7.15577073 C7.13996803,7.3392995 6.99106532,7.48820221 6.80753655,7.48820221 C6.64694887,7.48820221 6.51287177,7.37419857 6.48186168,7.22274772 L6.47510506,7.15577073 L6.47510506,6.44503354 C6.47510506,6.26063823 6.62400777,6.11260206 6.80753655,6.11260206 Z M17.9545626,5.50994456 C18.0437229,5.50734716 18.1302947,5.5411089 18.1943565,5.60430634 C18.3056622,5.7156044 18.321563,5.88606604 18.2420589,6.01427356 L18.1943565,6.07438662 L17.6048003,6.66826439 C17.5424717,6.73232615 17.4567664,6.76868662 17.3675994,6.76782097 C17.2844915,6.76435703 17.2057119,6.73059529 17.1459784,6.67259265 C17.0346727,6.56129459 17.0187719,6.39083295 17.098276,6.26262542 L17.1459784,6.20251237 L17.1459784,6.20337802 L17.7199546,5.61815765 C17.7796903,5.55149849 17.8645291,5.51254173 17.9545626,5.50994456 Z M8.64432355,4.81663908 L8.57363421,4.91784331 C8.35635921,5.26583258 8.38319751,5.91684424 8.55806977,6.31853228 C8.62905719,6.4007847 8.70697248,6.48475689 8.77969076,6.57565696 C8.81778076,6.56786543 8.8567373,6.56786543 8.89482951,6.57565696 C9.29565323,6.63279085 9.70079856,6.51158633 10.0029345,6.24322547 C10.2920811,5.97400029 10.4228021,5.57576954 10.3492173,5.18793281 C10.267838,4.81481171 9.97955345,4.52221216 9.60816099,4.43477604 C9.23884291,4.38024398 8.8723378,4.52834619 8.64432355,4.81663908 Z M9.95539077,5.42606456 C9.9743366,5.58665611 9.87595478,5.73398967 9.72811187,5.78281267 L9.66192026,5.79745701 L9.66278613,5.79745701 L9.18838424,5.85286226 L9.15028604,5.85286226 C8.9658996,5.86409844 8.80834148,5.72386111 8.79795299,5.54033234 C8.78810194,5.37975242 8.89357802,5.23904882 9.0430509,5.19884259 L9.10959643,5.18799929 L9.58399832,5.13259404 C9.76753153,5.11094167 9.93374815,5.24253579 9.95539077,5.42606456 Z" id="Combined-Shape" fill="#000000"></path>
    </g>
</svg>