<?xml version="1.0" encoding="UTF-8"?>
<svg width="24px" height="24px" viewBox="0 0 24 24" version="1.1" xmlns="http://www.w3.org/2000/svg" xmlns:xlink="http://www.w3.org/1999/xlink">
    <!-- Generator: Sketch 57.1 (83088) - https://sketch.com -->
    <title>crops-rye</title>
    <desc>Created with Sketch.</desc>
    <g id="crops-rye" stroke="none" stroke-width="1" fill="none" fill-rule="evenodd">
        <path d="M19.0805183,6.36262703 C19.11039,6.38362829 19.1411653,6.40554165 19.0796132,6.36171399 C19.0253016,6.32336456 19.0515537,6.34162601 19.0787079,6.36171399 C18.7754732,6.1480502 18.3002526,7.02828255 18.2948302,7.23555087 C17.9852695,7.15976364 17.6204656,7.18533148 17.3054825,7.21089699 C17.6865534,6.31789242 17.2122505,5.26965282 16.7415578,4.50988715 C16.6347467,4.33274719 16.9280241,3.57670052 16.4600588,3.56300263 C16.2563939,3.5566109 16.2301441,3.84790015 16.2084292,3.99581871 C16.1550237,4.36288022 16.247352,4.41217862 15.9567996,4.68155497 C15.2607224,5.32710918 14.6189614,6.19271797 14.8407217,7.19813411 C14.5945144,7.04564802 14.1781287,6.99360069 14.2369635,6.68041913 C14.2623095,6.54528215 14.2912751,6.40283806 14.2840314,6.26405922 C14.2740747,6.05861183 13.9373484,5.33087259 13.8223898,5.85590402 C13.7517857,6.14809462 13.7119592,6.43663867 13.7074336,6.73794561 C13.7056232,6.85938703 13.5010552,7.18628286 13.4666487,7.36524375 C13.3824678,7.80444128 13.3435451,8.2600716 13.4069078,8.70476231 C13.2168219,8.55136224 13.250313,8.62988905 13.274753,8.35595686 C13.2847098,8.24273184 13.2847098,8.11855785 13.2575547,8.00806306 C13.1778994,7.69303485 12.8357466,7.23284635 12.7551759,7.81174838 C12.7144434,8.1021157 12.706296,8.42899516 12.7633225,8.71662758 C12.7868564,8.83532942 12.2645818,10.2853171 12.2129768,10.5227394 C12.2374168,10.2935522 12.2347009,10.0817187 12.1604773,9.85984081 C12.0228908,9.44895071 11.7775989,9.57038512 11.7078961,9.93106285 C11.6635418,10.1602501 11.673499,10.4150006 11.6870771,10.6469298 C11.7278096,11.31441 11.2145677,11.9380382 11.165697,12.6511703 C10.8416534,12.347105 10.9421199,12.2010098 10.7764693,11.8184271 C10.5510802,11.3025354 10.3374673,12.038484 10.3401784,12.2521548 C10.3465147,12.9022672 9.89482713,13.4537828 9.78167606,14.1075651 C9.65404684,14.844423 9.83689137,15.8506573 10.6252923,16.1419362 C10.5239128,16.2989898 10.3808924,16.2989898 10.2885734,16.4523829 C10.1446516,16.6925168 9.9962066,16.9290275 9.83960718,17.1609334 C9.53817995,17.6056007 9.20778716,18.0302121 8.84119901,18.4219111 C8.00662005,19.3121808 7.0018858,20.00888 6.01068425,20.7073792 C6.02607238,19.5313237 6.17723624,18.3626081 6.42162448,17.2130134 C7.21365882,17.6449179 8.13691874,17.092486 8.61758486,16.4441782 C8.93530232,16.0159436 9.79520877,14.5896795 8.86198469,14.5294181 C9.12538593,14.1778778 10.1292396,12.5836158 9.26569512,12.4649163 C9.65582648,12.1005897 9.94548211,11.6358196 10.1699536,11.1527935 C10.3527982,11.0806599 10.5591813,10.9920887 10.6714286,10.8204209 C10.8253076,10.5857568 10.796342,10.2753101 10.4596185,10.4013027 C10.1627331,10.5126998 10.1500578,10.4980903 9.81785752,10.4314357 C10.2233754,10.0835419 10.6723416,9.56491531 10.8542917,9.0517585 C11.1185966,9.05084523 11.4037336,8.94401264 11.5865874,8.75133982 C11.8916296,8.42901854 11.5657686,8.30209094 11.2751961,8.37422696 C10.9448033,8.45731895 10.7637801,8.70019478 10.4234232,8.59428387 C10.9556712,8.16696098 11.1584301,7.51773685 11.6173373,7.06484143 C11.8535804,6.84478452 12.0382417,6.63751854 12.1414286,6.3243136 C12.3351364,5.73902078 11.6824982,6.24944034 11.5503457,6.34257551 C11.3240529,6.50236636 11.5023718,6.59731895 11.1538883,6.50784552 C10.7230198,6.39736008 10.2731498,6.33161719 9.8277985,6.36631541 C9.9599533,5.94172741 9.95904957,5.48245055 9.90292822,5.0450763 C9.8748687,4.82410775 9.83051431,4.60496714 9.77620272,4.38947073 C9.6983572,4.08358225 9.70016928,4.08175898 9.78525458,3.82975043 C9.81874572,3.73113494 10.1744822,2.7285659 9.68296907,3.07096653 C9.45486411,3.22984575 9.24667818,3.60329104 9.15072107,3.85714622 C8.37861504,4.28264585 7.62370296,4.89442283 7.42998128,5.80021367 C7.18106283,5.59111507 6.98191879,5.55640984 7.00182393,5.2249722 C7.01087578,5.08435606 7.0235481,4.93186998 6.98100487,4.79582604 C6.85880727,4.40410364 6.57819817,4.17584435 6.46595083,4.6944733 C6.39987227,5.00127342 6.58362284,5.34916723 6.41163924,5.59297106 C5.99796466,6.18099878 5.92103213,7.31507229 6.04595481,7.99805027 C5.76445589,7.85834576 5.8024587,7.6373702 5.61962807,7.39083147 C5.36164919,7.04111439 5.10730838,7.11780858 5.17427676,7.55518751 C5.20957767,7.78528877 5.30462179,8.02269245 5.39604406,8.23545396 C5.49289795,8.45824811 5.30099994,8.95770235 5.28289762,9.21611571 C5.25845764,9.58958204 5.2819925,9.96942981 5.38880267,10.3291749 C5.16250979,10.3410451 5.21048371,10.1118575 5.11905218,9.91828477 C5.06021501,9.79501774 4.99957039,9.69183706 4.9153872,9.58591213 C4.64021436,9.2435115 4.3306536,9.29007499 4.45736055,9.7584869 C4.52977446,10.0269282 4.68546552,10.33464 4.85110682,10.5537829 C5.02037462,10.778405 4.82757288,11.2139467 4.79860732,11.4979326 C4.75696874,11.9142925 4.76602222,12.3471086 4.89183935,12.7497939 C4.52434747,12.642962 4.5895084,12.6320037 4.5288661,12.2905171 C4.50261635,12.1425962 4.42658059,11.991945 4.34873738,11.8650175 C4.01021106,11.3071204 3.97670369,12.304215 4.01021106,12.5005437 C4.21025418,13.6674828 4.05546917,16.1026693 5.90655167,15.9914031 C5.57435142,17.2852698 5.25844142,18.5865231 5.1634112,19.9478975 C5.13897122,20.293968 4.89185326,21.6416913 5.37612734,21.7238787 C5.52276492,21.7485326 5.77531913,21.6937457 5.89750746,21.6051768 C5.97625671,21.5485643 6.04414504,21.6389611 6.14371474,21.6581358 C7.4037167,21.922019 8.81665683,22.2580381 10.0332105,21.6891805 C10.5609167,21.4417301 11.0732595,21.0290167 11.6561857,20.9303966 C12.21105,20.8363486 12.7134287,21.092927 13.1841307,21.3549846 C13.6321932,21.6033466 14.1110287,21.8891557 14.63512,21.9137932 C15.198141,21.9402727 15.761162,21.7585675 16.2897719,21.5850905 C16.5341717,21.5047381 17.508133,21.3257655 17.0781682,20.8902145 C16.7586433,20.56607 15.8887727,20.5359393 15.455193,20.3706529 C14.9093659,20.1624683 14.3916239,19.8876268 13.8955712,19.5780917 C13.3497442,19.238426 12.822038,18.7928237 12.1721203,18.6777707 C11.4950445,18.5581549 11.0171127,19.0083201 10.4251261,19.2448075 C9.76797859,19.5068674 9.06916702,19.6456462 8.3776316,19.7743971 C9.23211569,19.0886608 9.95896592,18.3116208 10.5708576,17.3976019 C11.1031056,18.294253 12.3576621,17.9646387 13.0447484,17.4816079 C13.4258193,17.2140782 13.7580196,16.8789706 14.0513133,16.5173789 C14.1409258,16.4023283 14.5038944,16.3411506 14.6496259,16.2471143 C14.9311248,16.0635812 15.4280812,15.2874435 14.7582468,15.5705178 C14.5953166,15.6399142 14.4577233,15.7330482 14.3029545,15.8161449 C14.0178175,15.968631 14.1011016,15.9896336 13.8042138,15.8298411 C14.38714,15.5778326 14.8750359,15.1258488 15.2787463,14.6419111 C15.5331103,14.5926033 15.7566781,14.5378187 15.9675938,14.3780279 C16.3332782,14.1013585 16.0671635,13.9086997 15.7141335,13.9735192 C15.321291,14.0456529 15.2362017,14.1570523 14.8542271,13.9589097 C15.489662,13.7762906 16.035489,13.3306999 16.4790097,12.8504087 C16.6573287,12.6577453 16.7523751,12.5490784 16.9478811,12.4212626 C17.0746066,12.3381706 17.212186,12.3080375 17.3325901,12.2075988 C17.7055275,11.899887 17.5272016,11.6606647 17.0954432,11.7811875 C16.7424341,11.879803 16.5577729,12.0825178 16.2128973,11.9154128 C16.8655262,11.6040546 17.4303547,10.9831379 17.7616512,10.3430535 C18.0730426,10.2106537 18.369928,10.0581559 18.6179427,9.82533847 C18.6994078,9.74955125 19.094067,9.35327535 18.7654863,9.2966605 C18.5962185,9.26744144 18.4025131,9.40075282 18.2540704,9.47106089 C17.8847479,9.64454964 17.6575652,9.94679392 17.252951,9.80981497 C17.7019172,9.57241596 18.0268645,9.15970259 18.2513592,8.71045371 C18.3807982,8.45204035 18.8161877,7.63664159 18.5726916,7.37825161 C18.7636835,7.26594056 19.4805881,6.6495984 19.0804926,6.36287761 L19.0805183,6.36262703 Z M7.94337548,16.2678881 C8.00040057,16.1884497 8.04928053,16.1208789 7.94247037,16.2688014 C7.80126209,16.46603 7.87639181,16.3610238 7.94156502,16.2688014 C7.61842521,16.7180503 6.41996927,16.8677921 6.6525975,16.0268208 C6.85445039,15.297256 7.83112512,15.1657702 8.45842651,15.193166 C8.3407545,15.5739254 8.17692759,15.9446335 7.94337247,16.2678898 L7.94337548,16.2678881 Z M7.1124346,14.427999 C7.15769272,14.4517389 7.46092508,14.6124438 7.11152926,14.427999 C7.10428787,14.4243464 7.10519321,14.4243464 7.11062414,14.4270858 C6.61369095,14.1613793 7.05902836,13.683823 7.3387291,13.4729082 C7.79221395,13.2245462 8.33713728,13.2053784 8.83951599,13.250114 C8.5743073,13.8810587 7.93435375,14.8635437 7.11245013,14.4280161 L7.1124346,14.427999 Z M8.89200924,11.9764031 C8.56977315,12.3571625 7.29709586,12.5854451 7.46908178,11.7444762 C7.64287515,10.8925653 8.84584972,11.0067066 9.4496079,11.1317876 C9.29572893,11.4322063 9.11017785,11.7179921 8.89203241,11.9764054 L8.89200924,11.9764031 Z M10.760288,7.20084003 C10.4371482,7.76696514 9.59260509,8.84440042 8.87662273,8.12855685 C8.46839368,7.72040165 8.94632082,7.44464386 9.23688481,7.22732418 C9.62882363,6.93695686 10.3221897,7.08853365 10.760288,7.2008447 L10.760288,7.20084003 Z M9.17533878,4.69805228 C9.32016659,5.25412605 9.47766974,6.94700821 8.39146115,6.63656155 C7.23916473,6.30692381 8.76801346,4.93547467 9.17533878,4.69805228 Z M9.94021501,9.12392163 C9.84064531,9.28645207 9.85603413,9.28188688 9.8877155,9.23805829 C9.72659514,9.54668168 9.34459962,9.98861411 8.98162637,10.1876777 C8.63223217,10.3794272 7.98773682,10.3903855 7.94067358,9.8507469 C7.85377689,8.86917351 9.40976055,8.97691003 9.94021501,9.12391696 L9.94021501,9.12392163 Z M6.82908189,6.37733006 C7.20653792,6.68595345 7.55683585,7.05483823 7.77227011,7.4986173 C7.771365,7.48583408 7.78946824,7.5205316 7.84287425,7.65475694 C7.85283122,7.69493432 7.85826238,7.71776025 7.86097773,7.73328375 C7.95059023,8.16701147 7.96326324,8.99426147 7.29886044,8.61714861 C6.57652883,8.20717014 6.65438826,7.04114267 6.82908536,6.37733006 L6.82908189,6.37733006 Z M5.96463364,8.82635473 C6.40092453,9.06193048 6.89695399,9.37695869 7.13773892,9.8298541 C7.13864427,9.83168041 7.052652,9.67006325 7.04088503,9.64814896 C7.04631596,9.65819307 7.0725664,9.70750105 7.13773892,9.8298541 C7.37307832,10.3046521 7.02911806,11.0442683 6.42808264,10.7201238 C5.77364631,10.3658485 5.82976998,9.43630844 5.96463364,8.82635473 Z M5.58537016,11.2662631 C5.59442178,11.1877363 6.53036583,11.9949163 6.62180432,12.1574444 C6.73223495,12.4048947 6.86710788,12.8176081 6.69783776,13.0677934 C6.44891931,13.4375898 5.96918008,13.0403999 5.81438811,12.7965938 C5.51657579,12.3263539 5.52744367,11.8031457 5.58537942,11.2662397 C5.58718966,11.2571086 5.55098224,11.5912959 5.58537942,11.2662397 L5.58537016,11.2662631 Z M5.07395419,14.5661467 C5.09839417,14.6364548 5.11740253,14.6921533 5.07395419,14.5661467 C5.00878167,14.3734833 5.04408258,14.4794035 5.07395419,14.5652337 C4.95085055,14.2054653 4.92641056,13.8165012 4.93636777,13.4384766 C5.55912736,13.6603592 6.33394456,14.1461155 6.25972321,14.9259138 C6.16377536,15.9285015 5.22783084,15.0144849 5.0739426,14.5661453 L5.07395419,14.5661467 Z M9.67762481,20.118703 C10.2578398,19.9625634 10.864304,19.8018515 11.4037869,19.5306753 C11.8246913,19.3188371 12.1243111,19.2749968 12.5596983,19.5069354 C13.535467,20.0255854 14.2713776,20.8208814 15.367504,21.1030207 C14.7583235,21.207113 14.1581802,21.1368049 13.6060271,20.8473422 C13.0737791,20.5679379 12.5940398,20.1807736 11.9685691,20.1497313 C10.7800773,20.0903792 9.98804294,21.2737535 8.84121523,21.3787551 C8.86927475,21.1495678 8.79505107,20.8856776 8.59591167,20.7468988 C8.20035795,20.4729642 8.3080635,21.2445344 8.3080635,21.392453 C7.93874099,21.3778434 8.1985366,21.0820063 7.88625539,20.9432041 C7.64730109,20.8372862 7.5368612,21.1349536 7.5522477,21.3120889 C7.32142925,21.2737394 7.09241361,21.2280829 6.86430401,21.1787775 C7.55857378,20.3606438 8.69729114,20.3825698 9.67767115,20.1186633 L9.67762481,20.118703 Z M16.2618447,5.31749634 C16.4646037,5.71742345 17.0692656,7.38566811 16.1496043,7.48244163 C15.7169283,7.52809583 15.6010661,7.02772294 15.5974512,6.69626194 C15.5929254,6.15935588 15.91065,5.69552084 16.2618517,5.31749634 L16.2618447,5.31749634 Z M14.2559911,7.58928989 C14.6216755,7.80386765 14.9973241,8.07963245 15.2145658,8.45489868 C15.2878858,8.63203864 15.1521091,8.95435759 15.2236177,9.17899372 C15.2906,9.39357147 15.226333,9.5506134 14.981929,9.63920559 C14.0731287,9.96699668 14.1799537,7.94632342 14.2559825,7.58931326 L14.2559911,7.58928989 Z M13.215942,9.57436265 C13.5653362,9.87293469 13.9020551,10.2363497 14.0441717,10.6855985 C14.0215425,10.6152905 13.9328351,10.3203603 14.0486976,10.6992948 C14.1392138,11.1384923 13.9627069,12.1164192 13.339945,11.5101354 C12.8321439,11.0134114 12.9941657,10.1587656 13.2159353,9.57438439 L13.215942,9.57436265 Z M12.2093772,11.5073787 C12.4863575,11.7749084 12.7398177,12.0817086 12.8936828,12.4396537 C12.9914427,12.6670154 13.058425,13.2276567 12.9145018,13.4650557 C12.9244588,13.4540986 12.9298897,13.4513592 12.9009242,13.4906236 C12.7542866,13.5070592 12.6040387,13.5609316 12.465537,13.612065 C12.2419599,13.5417569 12.1107205,13.309823 12.0346685,13.1025547 C11.8391509,12.5629137 11.9776434,12.0123098 12.2093679,11.5073787 L12.2093772,11.5073787 Z M10.6913963,13.3025276 C10.9937273,13.5782854 12.2283786,15.1981199 11.1765811,15.3469501 C10.0767934,15.5012642 10.4397667,13.7946934 10.6913963,13.3025276 Z M11.2833829,16.9895054 C10.8706352,16.629737 11.3069168,16.2644987 11.6689956,16.1348596 C12.1795079,15.9522405 12.8131353,16.2362123 13.263909,16.4690555 C12.7751094,16.9703377 11.9495908,17.5711517 11.2833829,16.9895288 L11.2833829,16.9895054 Z M13.4811507,15.2062335 C13.0629575,15.439072 12.0790321,15.3824618 12.354205,14.6474248 C12.4899816,14.2849215 12.8547762,14.3077591 13.1326603,14.1242166 C13.5771078,14.0758229 14.0197248,14.2447441 14.4098562,14.4419798 C14.139202,14.7396402 13.8323524,15.0108398 13.4811507,15.2062335 L13.4811507,15.2062335 Z M14.9556832,13.2494681 C14.9774074,13.237598 14.994606,13.2275538 15.0027511,13.2229887 C14.9955097,13.2275541 14.9810269,13.2357719 14.9556832,13.2494681 C14.1817698,13.6813726 14.766501,13.3553861 14.9547781,13.2494681 C14.5311626,13.4859555 13.760864,13.3773027 13.7970593,12.7454511 C13.8549905,11.7319237 15.3666221,12.2660715 15.8400352,12.5190033 C15.5820563,12.8020542 15.2905933,13.0622908 14.9556818,13.2494798 L14.9556832,13.2494681 Z M16.1296922,11.244316 C15.9233138,11.4168908 15.6381814,11.5218971 15.3693578,11.4862966 C14.9303557,11.4296841 14.8887149,11.1356679 14.8633642,10.7713413 C15.1810817,9.96508225 16.2618679,10.1979231 16.8737596,10.4161544 C16.6610435,10.7220429 16.4148292,11.0060054 16.1297154,11.2443394 L16.1296922,11.244316 Z M16.1459852,9.29210887 C16.1821922,8.78624515 15.9721919,8.58720491 16.3903851,8.20644551 C16.7470323,7.88230095 17.2638706,7.82659774 17.7246084,7.8256861 C17.5906438,8.24204601 16.9525024,9.94315627 16.1459852,9.29210887 Z" id="Shape" fill="#000000" fill-rule="nonzero"></path>
    </g>
</svg>