<?xml version="1.0" encoding="UTF-8"?>
<svg width="24px" height="24px" viewBox="0 0 24 24" version="1.1" xmlns="http://www.w3.org/2000/svg" xmlns:xlink="http://www.w3.org/1999/xlink">
    <!-- Generator: Sketch 57.1 (83088) - https://sketch.com -->
    <title>crops-cucurbits</title>
    <desc>Created with Sketch.</desc>
    <g id="crops-cucurbits" stroke="none" stroke-width="1" fill="none" fill-rule="evenodd">
        <path d="M13.7465326,3 C14.5332455,3 15.166952,3.43134145 15.6844643,4.3185076 C15.7505102,4.43161885 15.7605437,4.56921766 15.7120542,4.69076947 C15.6635647,4.81232128 15.561569,4.90432897 15.4369894,4.9397724 C14.4337475,5.22255053 13.9137311,6.20509973 13.672953,6.85758984 C14.0382936,7.04160524 14.3844147,7.30749361 14.7079562,7.65274397 C15.0256548,7.51177844 15.3533698,7.44087214 15.6861144,7.44087214 C16.7069064,7.44087214 17.6775523,8.12798021 18.3916037,9.34265555 C18.6123062,9.25486813 18.8397291,9.21097334 19.0721388,9.21097334 C19.7320354,9.21097334 20.3344168,9.57050356 20.8189284,10.1850068 C20.8443375,10.217028 20.8699378,10.2504182 20.8951967,10.2846187 C20.8973575,10.2881011 20.8990764,10.2904439 20.9007936,10.2927901 C20.9326334,10.3355425 20.9644663,10.3809627 20.9957136,10.4276795 C21.0039999,10.4406449 21.0123171,10.4531906 21.0205914,10.4658177 C21.0443791,10.5017899 21.0678743,10.5390971 21.0910084,10.5771505 C21.6536501,11.4947519 22,12.8035812 22,14.2781171 L21.9999462,14.3663355 L22,14.3994664 C22,17.2409428 20.8144319,19.4664636 19.3021655,19.4664636 C19.029213,19.4666667 18.7650308,19.394965 18.5155028,19.2579463 C18.473808,19.2446587 18.4325764,19.229875 18.3916037,19.2135787 C17.6768032,20.4274113 16.706992,21.1153621 15.6861144,21.1153621 C15.3525351,21.1153621 15.0248201,21.0444558 14.7079562,20.9034903 C14.0332854,21.6218237 13.2557542,22 12.4448565,22 C11.6473139,22 10.8806766,21.6336591 10.2126191,20.9364163 C9.92000424,21.0545927 9.61904236,21.1145237 9.3138856,21.1145237 C8.29309364,21.1145237 7.32244772,20.4274156 6.60839631,19.2127403 C6.38769379,19.3005277 6.16027089,19.3444225 5.9278612,19.3444225 C4.28588325,19.3444225 3,17.1184577 3,14.2772787 C3,11.4360997 4.28581905,9.2101349 5.9278612,9.2101349 C6.15943619,9.2101349 6.38767239,9.25402753 6.60839631,9.34181495 C7.32319681,8.12798237 8.29300803,7.44003154 9.3138856,7.44003154 C9.61904236,7.44003154 9.92000424,7.49996253 10.2126191,7.61813898 C10.5946965,7.21886559 11.0068443,6.93018815 11.4424279,6.75377055 C11.4329719,6.50882715 11.4391804,6.25468346 11.4623752,5.99887315 L10.3287983,5.11689356 C10.0946682,4.95012084 9.72661854,4.95816529 9.50465809,5.13591114 L9.17032688,5.40435938 C8.97365765,5.56162331 8.94743381,5.80811782 9.10664451,5.98879982 C9.12724814,6.01220665 9.18062893,6.0677988 9.22277456,6.0685291 L9.22464773,6.0685291 C9.31642638,6.0685291 9.54305955,5.97197686 9.8024929,5.70426266 L9.80811216,5.69841095 C9.9645106,5.53748806 10.2576432,5.50531397 10.4636842,5.6274583 C10.6697205,5.74961198 10.7109143,5.97856074 10.5545279,6.13948737 L10.5489086,6.14533907 C10.1396556,6.56812259 9.67044106,6.8 9.22373908,6.8 L9.20029849,6.8 C8.96054861,6.79559821 8.61497312,6.72318253 8.33401023,6.40280109 C7.92288713,5.9353948 7.99217484,5.30048924 8.49883828,4.8937909 L8.83316949,4.62534265 C9.40912064,4.16304841 10.3681202,4.14550265 10.972194,4.58511287 C10.9759401,4.58803853 10.9796862,4.59023297 10.9834323,4.59315883 L11.6202667,5.08860056 C11.8302471,4.2916968 12.230285,3.56978814 12.8636819,3.16966688 C12.8962864,3.14940824 12.9314015,3.13336989 12.9690228,3.12239673 C13.2490959,3.03967451 13.5040852,3 13.7465326,3 Z M12.2985918,7.00861229 C12.3194926,7.21541892 12.1882341,7.40788568 11.9884269,7.46020158 C11.5102096,7.58681859 11.0545719,7.90504879 10.633221,8.40729006 C10.5044721,8.56091858 10.2870998,8.60143585 10.1123699,8.50351804 C9.85151625,8.35833007 9.58315038,8.28405489 9.31394981,8.28405489 C8.51888995,8.28405489 7.73050768,8.94499421 7.15037167,10.0963546 C7.0960286,10.2035557 6.99988645,10.2820598 6.88450989,10.3132894 C6.7691376,10.3436763 6.64707062,10.3234187 6.54759183,10.2575787 C6.34443507,10.1225212 6.13625729,10.0541475 5.92809663,10.0541475 C5.42479558,10.0541475 4.91231285,10.4702976 4.52021916,11.1945303 C4.07879272,12.010775 3.83634527,13.1056057 3.83634527,14.2773003 C3.83634527,15.4489949 4.07962742,16.5436743 4.52021916,17.3600703 C4.91147816,18.0851674 5.42481698,18.5004532 5.92809663,18.5004532 C6.13627013,18.5004532 6.34527405,18.4320795 6.54759183,18.2970219 C6.64707918,18.2311808 6.76998514,18.2109222 6.88450989,18.2413112 C6.99988217,18.2716981 7.09602646,18.3510449 7.15037167,18.4582461 C7.72973719,19.6096064 8.51895416,20.2705457 9.31394981,20.2705457 C9.58231568,20.2705457 9.85151625,20.197109 10.1123699,20.0510826 C10.1759096,20.0164733 10.2452986,19.9995922 10.3138551,19.9995922 C10.4334051,19.9994625 10.5512922,20.0509529 10.633221,20.1488707 C11.0194718,20.6080665 11.6465006,21.1559032 12.4448993,21.1559032 C13.2600347,21.1559032 13.897936,20.5861331 14.2900297,20.1083535 C14.4212869,19.9479721 14.6495274,19.9082997 14.8267615,20.0155009 C15.1076692,20.1851677 15.39778,20.2712675 15.6878694,20.2712675 C16.4485457,20.2712675 17.2031096,19.6662586 17.775029,18.6055791 C17.4409462,18.1807273 17.1591243,17.6105167 16.9525963,16.919665 C16.8863455,16.6985604 16.9965071,16.4597183 17.1983398,16.3871474 C17.4001646,16.3145679 17.6181804,16.4352529 17.6844233,16.6563661 C17.9478485,17.5362515 18.3465083,18.1745752 18.7883992,18.4582905 C18.883017,18.4868285 18.9783716,18.5011749 19.0737226,18.5011749 C19.5770236,18.5011749 20.0895064,18.0850247 20.4816001,17.360792 C20.9230265,16.5445473 21.1654739,15.4497167 21.1654739,14.2780221 C21.1654739,13.1063923 20.9221918,12.011648 20.4816001,11.1952521 C20.2758471,10.8139423 20.0363337,10.5183088 19.7822765,10.3236905 C19.6246608,10.2271502 19.4628528,10.1772942 19.3021576,10.1772942 C18.8491857,10.1772942 18.4016173,10.5570651 18.0410975,11.2474065 C17.9355586,11.4499524 17.6998254,11.5199955 17.51571,11.4043791 C17.3308256,11.2887583 17.26689,11.0305063 17.3724251,10.8288029 C17.5188569,10.5484398 17.6805806,10.3047192 17.854533,10.1000248 C17.8529042,10.0999301 17.8521721,10.0985057 17.8514475,10.0970763 C17.2712473,8.94571596 16.4828651,8.28477664 15.6878694,8.28477664 C15.3977586,8.28477664 15.1076692,8.37087638 14.8267615,8.54054326 C14.649521,8.64774439 14.4221259,8.60807204 14.2900297,8.44769064 C13.8962666,7.96822548 13.4707208,7.64832272 13.0242648,7.49723112 C12.8119114,7.42548206 12.6931896,7.19841896 12.7550642,6.98064133 C12.7735379,6.91540366 12.7957707,6.84174173 12.8221882,6.76141033 C12.6591633,6.80697084 12.4675986,6.77880782 12.3348336,6.67563858 L12.2761506,6.63057825 C12.2785275,6.75954511 12.2860361,6.88611167 12.2985918,7.00861229 Z M7.82289679,15.6839099 C8.0085508,15.7432261 8.10988589,15.9377261 8.04895059,16.1191141 C7.61030354,17.4219896 6.80247096,18.1999647 5.88764332,18.1999647 C5.69206624,18.2 5.53333333,18.0455032 5.53333333,17.8551456 C5.53333333,17.6647879 5.69206624,17.5102912 5.88764332,17.5102912 C6.47156273,17.5102912 7.04200345,16.8950586 7.37575979,15.903931 C7.43670235,15.7232316 7.63653528,15.6246009 7.82289679,15.6839099 Z M13.7482684,3.84482073 C13.6011262,3.84482073 13.4414422,3.86845689 13.2617041,3.91741471 C12.781993,4.25056582 12.4840791,4.92827686 12.3531817,5.65918224 L12.9950777,6.15703462 L13.0398765,6.20106123 C13.3344997,5.5486746 13.8431153,4.76552219 14.6829581,4.33524177 C14.3334982,3.91234952 14.0183036,3.84482073 13.7482684,3.84482073 Z" id="Combined-Shape" fill="#000000" fill-rule="nonzero"></path>
    </g>
</svg>