<?xml version="1.0" encoding="UTF-8"?>
<svg width="24px" height="24px" viewBox="0 0 24 24" version="1.1" xmlns="http://www.w3.org/2000/svg" xmlns:xlink="http://www.w3.org/1999/xlink">
    <!-- Generator: Sketch 57.1 (83088) - https://sketch.com -->
    <title>crops-castor beans</title>
    <desc>Created with Sketch.</desc>
    <g id="crops-castor-beans" stroke="none" stroke-width="1" fill="none" fill-rule="evenodd">
        <path d="M11.3356727,4.0000274 L11.598105,4.14189896 C11.7040359,4.19916544 11.8175964,4.26643987 11.9562431,4.35296293 C12.0101644,4.38661274 12.0657891,4.42183092 12.1401837,4.46929789 C12.1341203,4.46542918 12.2841202,4.56126983 12.326319,4.58810611 C12.5186167,4.71039745 12.6551364,4.79397649 12.7901163,4.87028208 C13.0512082,5.01788019 13.270109,5.11526321 13.4647538,5.16512456 C13.5274123,5.18115294 13.9264075,5.06864444 14.275079,4.91615454 C14.4620538,4.83438198 14.6183046,4.74996399 14.7133285,4.67870161 C14.7473154,4.65321344 14.769934,4.6318738 14.7796535,4.6196609 L14.7796535,4.6196609 C14.7696396,4.64077956 14.7705994,4.68981476 14.8016937,4.7264507 L14.8016937,4.7264507 L15.096544,4.48319284 C15.3459895,4.77707707 15.5590981,5.10104212 15.7298166,5.44542849 L15.7298166,5.44542849 L16.5664906,4.94649649 L16.6432496,5.17002116 C16.8053224,5.64198226 16.9137659,6.13131799 16.9660672,6.62625633 L16.9660672,6.62625633 L18.6637592,6.4731508 L17.9544586,6.89837988 C17.7212394,7.03819594 17.7359554,7.4777286 17.982858,7.78129117 C18.0784476,7.89881699 18.172727,7.98670894 18.3919354,8.17284285 L18.3919354,8.17284285 C18.6849694,8.42166304 18.8092304,8.54215787 18.9348776,8.72437862 C19.0778879,8.9316753 19.1493113,9.11116114 19.2770605,9.51822616 L19.2770605,9.51822616 C19.3327034,9.69551355 19.3590874,9.77498925 19.3941942,9.86615507 C19.6399582,10.5039399 20.1361469,11.0460503 20.7543022,11.3520402 L20.7543022,11.3520402 L21.1741018,11.5598431 L20.7269778,11.7018162 C20.5721845,11.7509669 20.4108931,11.8022525 20.2156227,11.864397 C20.1047535,11.899681 19.9599429,11.9457837 19.7041105,12.0272309 C19.6938844,12.0304832 19.6852116,12.033431 19.6779414,12.0358639 L19.667898,12.0380274 L19.6702436,12.0419095 L19.6837073,12.0603663 C20.0811098,12.5976993 20.4077024,13.0394244 20.7212582,13.4637239 L20.7212582,13.4637239 L20.8257295,13.605093 L20.691166,13.7190814 C20.4721463,13.9046123 20.2072809,13.9407351 19.8271818,13.8963862 C19.7719964,13.8899473 19.7222797,13.8830713 19.6360902,13.8703995 C19.5772312,13.8617185 19.5506974,13.8578523 19.520629,13.8536805 C19.1766683,13.8056168 18.8887666,13.8980684 18.8424719,14.0737146 C18.808869,14.2006652 18.8844667,14.3517324 19.084263,14.5839131 L19.084263,14.5839131 L19.4989982,15.0658716 L18.8837089,14.8884276 C18.678561,14.8292648 18.420146,14.9703541 18.3391653,15.1870348 C18.2577798,15.404072 18.3368721,15.6828459 18.5272682,15.8585971 C18.5998821,15.9256531 18.6799399,15.9796925 18.8442735,16.0781159 L18.8442735,16.0781159 L18.8798546,16.0994096 C19.2635083,16.3291127 19.4227156,16.471748 19.4927831,16.7499632 L19.4927831,16.7499632 L19.5568117,17.0041999 L19.2918552,16.9846312 C19.0004466,16.9631062 19.0004466,16.9631062 18.70911,16.9415815 L18.5850221,16.9324135 C18.4096777,16.9194587 18.3691906,16.9164682 18.1262682,16.8985246 C18.1199351,16.8980534 18.1141791,16.8976651 18.1089663,16.8973417 C18.121347,16.9247596 18.1418465,16.9636143 18.1771146,17.0280692 C18.194266,17.0594145 18.2055241,17.0804043 18.2168504,17.10248 C18.3265194,17.3162304 18.3542809,17.4784164 18.2343366,17.637543 L18.2343366,17.637543 L18.1898195,17.6966024 L17.4890204,17.8302196 C17.6782511,18.0996614 17.8123316,18.4063415 17.8792084,18.7271952 L17.8792084,18.7271952 L17.929851,18.9701622 L17.6787659,18.9544919 C17.4407204,18.9396354 17.2012088,18.9493233 16.965638,18.9832387 C17.1061484,19.5104872 17.3300042,20.016295 17.6267636,20.4756637 L17.6267636,20.4756637 L18.0922379,21.1961948 L17.3613708,20.7373427 C16.343318,20.0981901 15.0689963,19.8651508 13.8861051,20.1017244 C13.7107608,20.1370429 13.6095351,20.1725862 13.5339567,20.2315623 C13.4979867,20.2595646 13.4690871,20.2902758 13.4049249,20.3660298 L13.4049249,20.3660298 C13.3430521,20.4390801 13.3133527,20.4720692 13.2711091,20.5113846 C12.8898939,20.8663823 12.3078097,20.8545116 11.6800469,20.6054461 L11.6800469,20.6054461 L11.663603,20.5989895 C11.5903397,20.5702819 11.5527838,20.5585152 11.5198454,20.5548014 C11.5045616,20.5530782 11.4930093,20.5536577 11.4848445,20.5557352 C11.4585377,20.5626007 11.4271331,20.5863466 11.3618067,20.6516225 C10.8601686,21.1504558 10.6417873,21.4964533 10.6684578,21.8753301 L10.6684578,21.8753301 L10.7476294,23.0000274 L10.2998077,21.9626741 C9.95829895,21.1715887 9.5927902,20.7453399 9.1225913,20.7404581 C9.06949378,20.7398729 9.01952335,20.7435581 8.91381308,20.7544335 L8.91381308,20.7544335 C8.55291173,20.7915935 8.39248835,20.7785386 8.21384297,20.6293797 C8.08110061,20.5183056 8.01897533,20.3767964 7.97043692,20.1597081 C7.95870562,20.1077116 7.94762498,20.055876 7.93146785,19.9782924 C7.9209106,19.9274864 7.9209106,19.9274864 7.91034173,19.8767718 C7.90228784,19.8382652 7.89551017,19.8063445 7.88888318,19.7758492 C7.76670858,19.2136392 7.63018966,18.938761 7.35714,18.8091391 C7.23944135,18.7532905 7.12772497,18.7351617 6.85674146,18.7165518 L6.85674146,18.7165518 L6.82453957,18.7143296 C6.62301162,18.7002844 6.50915599,18.6858343 6.38228446,18.6504389 C5.77595329,18.4814448 5.47860358,18.046085 5.11923263,17.1022988 C5.10192521,17.0568458 5.03890714,16.8898634 5.04464646,16.9050362 C4.98805775,16.7554353 4.9502209,16.6586831 4.91047229,16.5639852 C4.55411071,15.7140466 3.89022509,14.9914492 3.06726077,14.5574588 C2.54789913,14.2839432 2.22981692,13.9039322 2.49085713,13.5209551 C2.5978177,13.3642592 2.73957643,13.3012547 3.00838944,13.2372089 C3.03214375,13.231582 3.03214375,13.231582 3.05521111,13.2261654 C3.26502714,13.1768214 3.31532397,13.1499626 3.32226286,13.1076371 C3.3327303,13.0430159 3.17567179,12.9523511 2.93025234,12.9242638 C2.50266747,12.8753284 2.13289586,12.6245525 2.24825158,12.2520431 C2.30708315,12.0631458 2.440512,11.9777705 2.68481013,11.8954253 C2.70087361,11.8900108 2.71917179,11.8839785 2.7511679,11.8734476 C2.77164211,11.8666385 2.77164211,11.8666385 2.79073345,11.8600792 C3.14706024,11.7362155 3.39149385,11.4716305 3.77975779,10.87667 C3.83331656,10.7947742 3.8480721,10.7532721 3.84416521,10.7426486 C3.84189794,10.7364265 3.81968722,10.7178956 3.77269549,10.695359 C3.67237561,10.6478613 3.57789566,10.6215432 3.36549993,10.5755123 L3.36549993,10.5755123 C2.91802714,10.4785577 2.72145506,10.3995452 2.51972145,10.1680817 C2.31907381,9.93815919 2.30740122,9.59087564 2.51384746,9.37106998 C2.67337971,9.20092486 2.82329626,9.17758011 3.13062595,9.20050933 L3.13062595,9.20050933 L3.15348389,9.20220006 C3.21935331,9.20698915 3.25823866,9.20836835 3.29455542,9.20649539 C3.53426195,9.19394033 3.77201956,9.00005093 3.94142124,8.69952993 C3.99763103,8.59997273 4.03911076,8.51181791 4.12334116,8.32015398 L4.12334116,8.32015398 C4.25122997,8.02912684 4.31368311,7.90281822 4.41509221,7.75263609 C4.66111116,7.38807711 4.93565334,7.17854702 5.58183256,6.78728911 L5.58183256,6.78728911 L5.61128806,6.76945434 C5.91198591,6.58736094 6.05538956,6.49480402 6.2104056,6.37583091 C6.24348978,6.35050384 6.27137086,6.32835679 6.32967616,6.28144142 L6.32967616,6.28144142 C6.52087477,6.12759086 6.61065135,6.0624609 6.7388609,5.99594286 C7.04003523,5.84029888 7.31158608,5.80571019 7.86709582,5.80223977 L7.86709582,5.80223977 L7.89803041,5.8020535 C8.0787006,5.80098599 8.15797569,5.79955475 8.25426776,5.79425079 C8.70023758,5.76987159 9.061599,5.68311505 9.84559131,5.44369869 C10.7558794,5.16576216 11.2761584,4.80652345 11.3139551,4.29432903 L11.3139551,4.29432903 L11.3356727,4.0000274 Z M11.6424219,4.60659572 C11.4608381,5.16614755 10.865233,5.52918498 9.95933623,5.80578071 C9.14545897,6.05432337 8.76338574,6.14605245 8.2756332,6.17271571 C8.17089424,6.17848496 8.08742471,6.17999193 7.90033447,6.18109737 L7.90033447,6.18109737 L7.86953194,6.18128284 C7.37411609,6.18437783 7.14618238,6.21341081 6.91762809,6.33152517 C6.81998821,6.3821832 6.74414302,6.43720639 6.57681413,6.57184985 L6.57681413,6.57184985 C6.51209874,6.62392316 6.48252101,6.64741791 6.44638493,6.67508114 C6.2768103,6.805228 6.12505442,6.9031757 5.81250881,7.09244374 L5.81250881,7.09244374 L5.78303523,7.11028946 C5.18402917,7.47298428 4.93982461,7.65936076 4.73515441,7.96264779 C4.6506326,8.08782063 4.59493168,8.20047321 4.47974762,8.46258919 L4.47974762,8.46258919 C4.38690951,8.67384018 4.34172568,8.76986712 4.27741277,8.88377625 C4.05019438,9.28686506 3.70996053,9.56432301 3.31479565,9.5850204 C3.25803661,9.58794773 3.20610264,9.58610571 3.12520848,9.58022425 L3.12520848,9.58022425 L3.10161494,9.57847933 C2.90612822,9.56389448 2.8481592,9.57292132 2.79605459,9.62849208 C2.72845524,9.7004659 2.73284669,9.83112031 2.81124177,9.92095343 C2.94114291,10.0699984 3.07861856,10.125257 3.440499,10.203666 L3.440499,10.203666 C3.68908884,10.2575407 3.80329494,10.2893537 3.93999302,10.3540777 C4.06970421,10.4162783 4.16174469,10.4930697 4.20579272,10.6139533 C4.26498737,10.774875 4.21876773,10.9048746 4.10298122,11.0819215 C3.66966316,11.7459213 3.38313144,12.0560751 2.91860133,12.2175516 C2.89585517,12.2253655 2.89585517,12.2253655 2.87359136,12.232768 C2.84059966,12.2436291 2.82380985,12.2491641 2.80918481,12.2540937 C2.67545275,12.2991706 2.62587667,12.3308922 2.6158711,12.3630174 C2.5988428,12.4180057 2.75269538,12.5223472 2.97458379,12.5477414 C3.41438478,12.5980749 3.76166682,12.7985495 3.70186046,13.167765 C3.65922533,13.4278414 3.50542815,13.50997 3.14441757,13.5948715 C3.12128365,13.6003041 3.12128365,13.6003041 3.09869892,13.6056539 C2.92106974,13.6479748 2.84427891,13.6821044 2.80989089,13.7324824 C2.73831635,13.8374908 2.91344354,14.0467142 3.24849964,14.2231675 C4.15001718,14.6985829 4.87540369,15.4881202 5.26574906,16.4191118 C5.30762062,16.5188673 5.34682042,16.6191047 5.40487666,16.7725852 C5.39932353,16.7579047 5.4620956,16.9242352 5.47917021,16.9690768 C5.79699711,17.8037593 6.04133679,18.1615053 6.48691998,18.2856965 C6.58120773,18.3120014 6.67510389,18.3239183 6.85164945,18.3362224 L6.85164945,18.3362224 L6.88345731,18.3384174 C7.20307008,18.3603669 7.34719921,18.3837555 7.52390213,18.4676019 C7.93969883,18.6649886 8.11922225,19.0264555 8.26481736,19.6964395 C8.27167809,19.7280104 8.27864753,19.7608343 8.28688492,19.8002182 C8.29757587,19.8515184 8.29757587,19.8515184 8.30807716,19.9020555 C8.32384525,19.9777711 8.33455923,20.0278914 8.34580927,20.0777565 C8.37766559,20.220233 8.41171096,20.2977817 8.46246575,20.3402516 C8.5297905,20.3964639 8.61874435,20.4037028 8.86741351,20.3780986 L8.86741351,20.3780986 C8.99416684,20.3650579 9.05420837,20.3606301 9.12676432,20.3614298 C9.66313903,20.3669986 10.0567214,20.6956823 10.3943072,21.2872352 C10.5199029,21.0043431 10.7507354,20.720905 11.0884575,20.3850716 C11.2004842,20.2731302 11.2717533,20.2192415 11.3875453,20.1890257 C11.4450103,20.174381 11.5035583,20.1714438 11.563528,20.1782053 C11.6406146,20.1868967 11.7018096,20.2060699 11.8056007,20.2467395 L11.8056007,20.2467395 L11.8229549,20.2535547 C12.3269606,20.4535185 12.7637728,20.4624266 13.0071541,20.2357835 C13.0347903,20.210063 13.0575884,20.1847397 13.1074508,20.1258694 L13.1074508,20.1258694 C13.1908621,20.0273887 13.2320388,19.9836308 13.2955258,19.934207 C13.430565,19.8288315 13.579063,19.7766896 13.8094098,19.7302925 C14.8691535,19.5183477 15.9939776,19.6540458 16.9749414,20.0991759 C16.7840222,19.7085826 16.6385224,19.2962257 16.5429302,18.8728615 L16.5429302,18.8728615 L16.5005088,18.6849833 L16.6917038,18.6460678 C16.9370117,18.5961382 17.1875986,18.5702758 17.438512,18.5687589 C17.3462397,18.2967563 17.1959511,18.0433675 16.999463,17.8312801 L16.999463,17.8312801 L16.7681399,17.5815921 L17.914591,17.3630049 C17.9065426,17.3416054 17.8936659,17.3123356 17.8737795,17.273576 C17.8643419,17.2551815 17.8544124,17.2366688 17.838746,17.2080373 C17.7583605,17.0611273 17.7363392,17.015754 17.7178853,16.9364572 C17.6831006,16.7869863 17.7314275,16.6484779 17.8732867,16.5668182 C17.9606971,16.5167031 18.031554,16.5113484 18.1550954,16.5205409 C18.446504,16.5420659 18.446504,16.5420659 18.7378406,16.5635906 C18.8134459,16.5691766 18.8694306,16.5733129 18.9159795,16.5767519 C18.8553633,16.5315671 18.7782932,16.4820732 18.6802928,16.4233979 L18.6802928,16.4233979 L18.6446632,16.4020751 C18.4582343,16.2904183 18.3624995,16.225797 18.2644716,16.1352722 C17.9653664,15.8591735 17.8412582,15.4217335 17.9784824,15.055787 C18.0755938,14.7959449 18.3051262,14.5989395 18.5657544,14.5262294 C18.4552966,14.3396495 18.4197103,14.1697502 18.4704146,13.9781918 C18.5803631,13.5610366 19.0611707,13.4066386 19.5743927,13.4783543 C19.6058182,13.4827144 19.6337976,13.4867912 19.6927956,13.4954944 C19.7753609,13.5076333 19.8220962,13.514097 19.8723657,13.5199623 C20.047389,13.5403836 20.1790058,13.5393105 20.2814043,13.5122267 C20.0066327,13.1404602 19.716277,12.7477657 19.373244,12.2839459 C19.2818626,12.1608171 19.2411086,12.0670968 19.2747623,11.9370118 C19.3135641,11.7861161 19.4178789,11.7199788 19.5860311,11.6665002 C19.8417914,11.5850759 19.986627,11.5389652 20.0975196,11.5036738 C20.1343079,11.491966 20.1698912,11.4806433 20.204453,11.4696474 C19.6780124,11.1096011 19.2626636,10.5921267 19.0347767,10.000735 C18.9958853,9.89974104 18.9677597,9.81501955 18.9124219,9.63870462 L18.9124219,9.63870462 C18.7933034,9.25914101 18.7312474,9.10319532 18.6169518,8.93752118 C18.516556,8.7919215 18.4086719,8.68730719 18.1489136,8.46674189 L18.1489136,8.46674189 L18.1410396,8.46005608 C17.9040706,8.2588413 17.7981415,8.16008895 17.682918,8.01842365 C17.4312414,7.70899147 17.3381343,7.29028982 17.4468323,6.96353195 L17.4468323,6.96353195 L16.6147392,7.03857387 L16.6001161,6.84647217 C16.565878,6.39669273 16.4824303,5.95035694 16.3518976,5.51745752 L16.3518976,5.51745752 L15.556395,5.99183796 L15.4688852,5.79267467 C15.3385914,5.49613911 15.1746061,5.21388003 14.9813118,4.95288948 C14.9699667,4.96212953 14.9582154,4.97129833 14.9460893,4.98039218 C14.8232167,5.07253948 14.6428905,5.16996475 14.4309755,5.2626448 C13.9952304,5.45321595 13.5504263,5.57864162 13.3681338,5.53201027 C13.1347898,5.47223549 12.8870686,5.36203107 12.5988757,5.19911249 C12.4568385,5.1188173 12.3153823,5.03221605 12.1179191,4.90663973 C12.075312,4.87954383 11.9249234,4.78345479 11.9312996,4.78752309 C11.8578952,4.74068788 11.8032472,4.7060881 11.7506183,4.67324485 C11.7125953,4.64951644 11.6766552,4.62736738 11.6424219,4.60659572 Z M12.8788274,6.19742228 C13.6140463,6.33605965 13.950559,6.41969353 14.3448249,6.59274413 C15.09976,6.92425599 15.6053896,7.38608738 16.543776,8.45418938 C17.7990753,9.88298537 18.3238392,10.7876286 18.2675706,11.9232015 C18.2451164,12.3748475 18.1414552,12.7328063 17.8707002,13.4445721 L17.8547823,13.4863988 C17.7305517,13.8127699 17.6771252,13.9601059 17.6206452,14.1423585 C17.514581,14.4845257 17.454064,14.7678754 17.3365021,15.4125661 L17.3332355,15.430479 C17.2288931,16.0026089 17.1730008,16.2711745 17.0814561,16.5932834 C16.8029019,17.5730745 16.2926484,18.3331692 15.5524469,18.6954075 C15.3100181,18.8140636 15.1065374,18.8737857 14.6516942,18.9800165 C14.3906891,19.0409344 14.3906891,19.0409344 14.1297028,19.1018449 C13.7015175,19.2017691 13.3919385,19.2739484 13.085534,19.3452617 C11.4359606,19.7301363 10.6070325,19.8168033 9.65833922,19.5570416 C9.28617923,19.4549486 8.99186234,19.305797 8.77394412,19.0791985 C8.65660377,18.9571204 8.57924357,18.8409599 8.44400559,18.6065441 L8.42915896,18.5807958 C8.4136321,18.5538778 8.4136321,18.5538778 8.39814191,18.5271896 C8.15742359,18.1124838 7.93243777,17.8149463 7.66642627,17.586311 C7.47616074,17.4227531 7.30187782,17.3132177 6.890535,17.0821239 C6.45453854,16.8371795 6.26491151,16.7178622 6.04795571,16.5305641 C5.54040875,16.0917034 5.19743857,15.450154 5.0233429,14.6975385 C4.89373846,14.1352177 4.86197492,13.6748282 4.84530607,12.6567362 C4.84190264,12.45313 4.83853473,12.2456725 4.83407878,11.9667255 L4.83041324,11.7367787 C4.82675175,11.5068373 4.82511659,11.4044612 4.82306063,11.2769097 C4.80716032,10.3000247 4.8330849,9.85045392 4.98734194,9.31225468 C5.38293855,7.9300428 6.86318165,7.03313325 8.49238692,6.96585381 C8.6162728,6.9607141 8.71479666,6.96016429 8.93551145,6.96154921 C9.48553703,6.96499224 9.72401348,6.9463537 9.99318561,6.85386128 C10.1673382,6.79403388 10.3029376,6.72093623 10.6030609,6.53743786 L10.6111106,6.53251622 C10.9635168,6.31706148 11.1341589,6.2278101 11.3694787,6.15906297 C11.7920471,6.03575042 12.1557867,6.06060707 12.8788274,6.19742228 Z M11.4786518,6.5225104 C11.2871699,6.57845059 11.1372137,6.65688258 10.8137282,6.85465571 L10.8056852,6.8595732 C10.4815958,7.05772474 10.3294338,7.13975076 10.1197037,7.21180025 C9.8311727,7.31094474 9.58710821,7.33853045 9.12489309,7.34086051 L8.646136,7.34071005 L8.61067571,7.34134111 L8.5084942,7.34457168 C7.03067824,7.40559339 5.70212367,8.2105877 5.35733928,9.41526197 C5.21666114,9.90608484 5.19217498,10.3307112 5.2074773,11.2708572 C5.20953427,11.3984706 5.21116988,11.5008752 5.21483156,11.7308285 L5.2184968,11.9607565 C5.2229514,12.2396191 5.22631796,12.4469933 5.22972062,12.6505543 C5.24596188,13.6425294 5.27651395,14.0853596 5.3982175,14.6134007 C5.55554351,15.2935207 5.86083621,15.8645918 6.30134547,16.2454871 C6.49223454,16.4102816 6.66732263,16.5204508 7.08081476,16.7527521 C7.51442697,16.9963569 7.70309837,17.1149354 7.91907987,17.3005995 C8.22291958,17.561748 8.47165741,17.8906968 8.73172013,18.3387291 C8.74767839,18.3662242 8.74767839,18.3662242 8.76339212,18.3934665 L8.77819454,18.4191382 C8.89854662,18.6277513 8.96363537,18.7254857 9.05297384,18.8184312 C9.21557655,18.9875108 9.45055267,19.1065902 9.76130969,19.1918388 C10.6262224,19.4286605 11.4096816,19.3467475 12.9970987,18.976375 C13.3035172,18.9050585 13.6130296,18.8328947 14.0411465,18.7329865 C14.3021129,18.6720806 14.3021181,18.6720794 14.5631165,18.6111631 C14.9894109,18.5115997 15.1741315,18.4573832 15.3814999,18.3558873 C16.0081664,18.0492106 16.4593185,17.3771558 16.7112534,16.4909959 C16.7984332,16.1842454 16.8526287,15.9238329 16.954838,15.3633989 L16.9581032,15.3454936 C17.0783577,14.6860375 17.1409683,14.392885 17.2529627,14.0315869 C17.3125567,13.8392858 17.367789,13.6869699 17.4948291,13.3532178 L17.5107186,13.3114656 C17.7678192,12.6355952 17.8636836,12.3045597 17.8835644,11.904675 C17.9333299,10.900344 17.4456951,10.0597078 16.2531708,8.7023631 C15.3513593,7.67589175 14.8743919,7.24023992 14.1884294,6.93901573 C13.8300777,6.78172851 13.5130369,6.70293403 12.8064825,6.56970176 C12.1428992,6.44413723 11.8222985,6.42222853 11.4786518,6.5225104 Z M12.8730016,13.8216637 C12.9940094,13.860343 13.1078214,13.8950145 13.3056404,13.9540791 C13.5262308,14.0199428 13.497334,14.011301 13.5655601,14.031939 C14.5324869,14.3244279 15.0751539,14.5655174 15.5646809,14.9991024 C15.872637,15.2714489 16.0406388,15.5948911 15.9452974,15.9176838 C15.8983869,16.0774558 15.7976025,16.2040621 15.6392743,16.3400446 C15.1067998,16.7977897 14.5196502,17.003502 13.382093,17.2390683 C11.7458392,17.5774392 10.8223635,17.6760697 9.80580275,17.5236212 C9.11054325,17.4195569 8.56813662,17.0808024 8.51251504,16.535699 C8.47524409,16.1713482 8.63676589,15.8903829 9.01207594,15.4729752 C9.63682416,14.7795201 9.93890217,14.4781885 10.3703998,14.1672921 C11.1589544,13.5465605 11.8150807,13.4834907 12.8730016,13.8216637 Z M10.7410405,14.3652857 L10.6072424,14.4659059 C10.1967445,14.7614822 9.90772845,15.0496056 9.29964793,15.7245599 C8.99332585,16.0652415 8.87233505,16.2757036 8.89504504,16.4977104 C8.92813216,16.8219713 9.32169629,17.0677677 9.86356354,17.1488727 C10.8212534,17.2924927 11.7098015,17.1975925 13.3031166,16.8681012 C14.3784458,16.6454211 14.9195741,16.4558327 15.3866711,16.0542898 C15.4943332,15.9618226 15.5541508,15.8866792 15.5760789,15.8119954 C15.6199277,15.6635381 15.5177277,15.4667795 15.3078525,15.2811726 C14.8713439,14.8945472 14.3696544,14.6716626 13.4527889,14.3943169 C13.3852484,14.3738864 13.4139979,14.3824841 13.1942051,14.3168586 C12.9941359,14.2571221 12.8784586,14.2218824 12.7544276,14.1822367 C11.8717752,13.9000897 11.3573539,13.9255041 10.7410405,14.3652857 Z M11.8602638,15.1480026 C12.0754044,15.1557902 12.2421118,15.1839291 12.6042147,15.2615087 C12.648597,15.2710175 12.6754842,15.2767607 12.6993387,15.281796 L12.7346535,15.2892004 C13.0439908,15.3536556 13.3571485,15.4050039 13.6727074,15.4430593 L14.1476694,15.4901498 L14.1174167,15.8680251 L13.9655468,15.855209 C13.5748159,16.0984264 13.1138774,16.2295719 12.6512941,16.2284395 C12.5986148,16.2283026 12.5574373,16.2271548 12.4627028,16.2237453 C12.427972,16.2224963 12.427972,16.2224963 12.3938071,16.2213787 C12.1110828,16.2125813 11.9666799,16.2340929 11.8521795,16.31525 C11.8334222,16.3285271 11.8166962,16.3423419 11.7914803,16.3657084 L11.745974,16.4090488 C11.6718874,16.4807618 11.6358431,16.5127318 11.5813694,16.5495892 C11.3093842,16.7336323 11.0119528,16.7233585 10.5933644,16.5855273 L10.4305276,16.5279917 L10.2421383,16.4574346 L10.3225096,16.2752335 C10.531073,15.8024223 10.6683013,15.5788389 10.9299228,15.3913927 C11.1813688,15.2115288 11.5057409,15.1351696 11.8602638,15.1480026 Z M11.8461577,15.5267981 C11.5710205,15.5168387 11.3298797,15.5736047 11.1558211,15.6981119 C10.9996891,15.8099772 10.8958131,15.9556359 10.7601722,16.2400319 C11.0422615,16.3265989 11.2278211,16.3290843 11.3638162,16.2370611 C11.3936241,16.2168927 11.4185277,16.1948041 11.4766251,16.138568 C11.5451791,16.0722105 11.5784713,16.0423656 11.6278566,16.0074089 C11.8319738,15.862732 12.0434008,15.8312359 12.4059351,15.8425166 C12.441662,15.8436855 12.441662,15.8436855 12.4767282,15.8449469 C12.5670623,15.8481981 12.605461,15.8492684 12.6522782,15.8493901 C12.8508055,15.8498761 13.0493008,15.8213294 13.2397892,15.7661037 L12.9456482,15.7166385 L12.9456482,15.7166385 L12.6529815,15.6595998 C12.6175529,15.6522241 12.5898862,15.6463363 12.5225726,15.6319145 C12.1826333,15.5590833 12.0310007,15.533489 11.8461577,15.5267981 Z M9.96860968,7.99544315 C10.2956945,8.1767663 10.5171231,8.50079901 10.6736626,8.9396219 C10.9774763,9.79274378 10.9759999,10.7708418 10.7050903,11.7396181 C10.4770676,12.5566086 10.0741092,13.3527634 9.47947682,14.239268 C9.21881922,14.6280225 9.0338026,14.8467623 8.77482841,15.0233098 C8.0155606,15.5407429 6.84064418,15.2472692 6.42267379,14.4358055 C6.25995966,14.1198611 6.20586411,13.7900794 6.19046766,13.2686599 C6.14418533,11.683081 6.43350121,10.3295831 7.15533697,9.25877779 L7.16315051,9.24704289 L7.21136511,9.16954598 C7.23924301,9.12246671 7.26950576,9.06779545 7.30448642,9.00184164 C7.33288819,8.94829192 7.43439572,8.75193415 7.45059142,8.72103734 C7.64729466,8.34578343 7.78821874,8.13354246 7.97149461,7.98849095 C8.42085173,7.63278767 9.40417956,7.6825977 9.96860968,7.99544315 Z M8.21218317,8.28407309 C8.08525149,8.38453167 7.96415991,8.56690358 7.79214155,8.89506574 C7.7768119,8.92431036 7.67471742,9.12180355 7.64518399,9.17748695 C7.60713314,9.2492294 7.57372199,9.30956407 7.54203323,9.36295734 L7.49542721,9.4383995 L7.47559862,9.46849369 C6.8039761,10.4648104 6.53058647,11.7437861 6.57477332,13.2577244 C6.58863435,13.7270866 6.63526649,14.0113571 6.76547538,14.2641856 C7.07799902,14.8709309 7.9885378,15.0983677 8.55619336,14.7115163 C8.76367947,14.5700692 8.92345747,14.3811683 9.15877252,14.0302106 C9.73289105,13.1742891 10.1186272,12.4121613 10.3344278,11.6389622 C10.58565,10.740588 10.5870087,9.84049997 10.3109404,9.0652883 C10.1824749,8.70516458 10.0105292,8.45354381 9.78018895,8.32585209 C9.33931494,8.08148982 8.52050206,8.04001322 8.21218317,8.28407309 Z M8.80576596,9.9286302 C8.96482002,9.94721384 9.01835763,10.0640262 9.04069151,10.2488482 C9.05174796,10.339967 9.05981334,10.4113562 9.07797156,10.5760737 C9.11780584,10.9374199 9.13794344,11.0988254 9.17129321,11.2971763 C9.24201842,11.7188049 9.22448353,11.9676564 9.01032539,12.1724 C8.98925672,12.1925558 8.97074811,12.2080442 8.94511396,12.2271503 L8.90010788,12.2595585 C8.84945752,12.2952549 8.83209146,12.3094587 8.82055317,12.3239724 C8.80898121,12.3385627 8.79940185,12.3590594 8.78935978,12.3930925 L8.77364274,12.4552483 L8.76756125,12.4827154 L8.76293082,12.5035982 C8.62222385,13.1331767 8.23455212,13.7030172 7.70130307,14.0743634 L7.53706243,14.1796737 L6.99725976,14.4972562 L7.26456988,13.9363291 C7.48566991,13.4723699 7.57020754,13.2612126 7.62090826,12.9937114 C7.63378214,12.9261082 7.6426204,12.8636902 7.65303524,12.7681839 L7.66418346,12.6602305 L7.66559452,12.6459994 C7.68895317,12.4103148 7.7032051,12.3041222 7.735713,12.1697848 C7.82199484,11.8128671 8.02216721,11.5214372 8.32097962,11.3979245 L8.34881655,11.3868424 L8.38451351,11.3736029 L8.39602832,11.3694035 C8.45968822,11.3461401 8.47812831,11.3355436 8.47995706,11.3324826 C8.48133563,11.3301799 8.48298288,11.3090006 8.47741741,11.2625553 C8.47149436,11.2136019 8.46433003,11.1708788 8.45028356,11.100641 L8.43373412,11.0199817 L8.42870138,10.9958292 C8.3925579,10.8219606 8.37732457,10.7242547 8.37451203,10.6087171 C8.37126339,10.4777613 8.43887147,10.2553731 8.5197872,10.1142146 C8.59212071,9.9880279 8.66879375,9.91262656 8.80576596,9.9286302 Z M8.81445014,11.5193796 C8.81336656,11.5212542 8.81226343,11.5231292 8.81114054,11.5250048 C8.76140903,11.6082498 8.70369659,11.6523474 8.60851786,11.693729 L8.52964816,11.7248251 L8.51786286,11.7291233 C8.49391511,11.7378545 8.48201212,11.7423549 8.46992689,11.7473734 C8.300911,11.8172355 8.17015307,12.0076053 8.10969304,12.2577072 C8.08802386,12.3472541 8.07555199,12.4258009 8.06034364,12.5654972 L8.04823781,12.6828623 L8.04682192,12.6971422 C8.02963803,12.8702934 8.01865653,12.9592375 7.99880201,13.0634969 C7.97975283,13.1640021 7.95713517,13.2562444 7.92723893,13.3518571 C8.10588533,13.1360078 8.24466659,12.8877956 8.33191472,12.6231737 L8.38750605,12.4218797 L8.39184427,12.4023127 L8.39827949,12.3732553 C8.42659843,12.2472377 8.45508189,12.1694179 8.5178228,12.0903122 C8.54569263,12.055255 8.57127296,12.0302452 8.60826815,12.0012308 L8.6740351,11.9529493 C8.71387129,11.9248733 8.72923702,11.913141 8.74263556,11.900323 C8.81429202,11.8318166 8.83533362,11.7182709 8.81445014,11.5193796 Z M13.0734737,6.79981638 C13.2867222,6.84696893 13.4398012,6.94189048 13.7012902,7.15138495 C14.1892888,7.54364523 14.6635402,7.95204629 15.1236971,8.37627684 C15.9460113,9.13379921 16.4261914,9.69640981 16.745974,10.3786202 C17.1547446,11.2496389 17.1730605,12.2314473 16.7274078,12.9642935 C16.6498666,13.0912616 16.5767767,13.1741725 16.4665879,13.2297795 C16.3561274,13.2852996 16.2589202,13.2935242 16.0907721,13.2848237 C15.0667575,13.2291094 14.1607082,13.0059268 13.3987894,12.5833512 C12.5252657,12.0988772 11.8609429,11.3405443 11.5984738,10.4708555 C11.4505279,9.98109656 11.4074456,8.99389281 11.5405447,8.25032866 C11.7275095,7.20584204 12.2311624,6.61371149 13.0734737,6.79981638 Z M11.9191596,8.31620569 C11.7961348,9.00348865 11.8366272,9.93128429 11.9669663,10.362732 C12.1993156,11.1326438 12.7965961,11.8144516 13.5872891,12.252986 C14.2927995,12.6442764 15.1426255,12.8536098 16.1114385,12.9063214 C16.2139133,12.9116234 16.2610168,12.9076379 16.2916887,12.8922218 C16.3220554,12.8768971 16.3544356,12.8401661 16.3978519,12.7690756 C16.7719077,12.1539652 16.7560274,11.3027138 16.3970115,10.5377137 C16.1031573,9.91081792 15.6500319,9.37990633 14.8611593,8.65319055 C14.4072999,8.23476593 13.939602,7.83200839 13.4585888,7.44536271 C13.2421233,7.27193955 13.1259093,7.19987737 12.9893688,7.16968612 C12.4228747,7.04452182 12.0732063,7.45561712 11.9191596,8.31620569 Z M19.6546021,12.0230528 L19.6499449,12.0425998 L19.6601878,12.0414078 L19.6601878,12.0414078 L19.667898,12.0380274 L19.6608684,12.0293847 C19.6583159,12.0262274 19.6562815,12.0241023 19.6546021,12.0230528 Z M13.1116479,8.63995392 C13.1488904,8.65527774 13.1874085,8.67271237 13.2279766,8.69234273 C13.2806232,8.71781777 13.4449377,8.80351655 13.399992,8.78048946 L13.404898,8.7830274 L13.4882784,8.82879563 C13.6583888,8.92846122 13.7973993,9.05186968 14.0434582,9.29663965 C14.1570822,9.40966895 14.2072748,9.45830229 14.2698077,9.51433844 C14.4585644,9.68369387 14.6369792,9.80903825 15.0245269,10.0580987 L15.0521383,10.0758414 C15.6400094,10.4536041 15.8956236,10.648625 16.1500456,10.9642097 C16.2268311,11.0594019 16.2646158,11.1499796 16.219203,11.2693616 C16.1764137,11.3795155 16.0936609,11.4242816 15.9825071,11.4494553 C15.5714635,11.5444726 15.1201645,11.4900008 14.6925772,11.3123839 C14.3364022,11.1646931 14.0034996,10.9404421 13.6463129,10.6280979 C13.2409226,10.2739016 12.9404406,9.91623156 12.7460032,9.52124749 L12.7064287,9.44128908 C12.6877203,9.40306734 12.6712004,9.36820536 12.6553575,9.33310391 C12.6312353,9.2796589 12.6102029,9.22893362 12.5923254,9.18002001 C12.5271924,9.00181378 12.5050547,8.86178756 12.5544552,8.74035726 C12.6461505,8.51373409 12.8442532,8.52993159 13.1116479,8.63995392 Z M12.9296479,8.97644727 C12.9359371,8.99871659 12.9439816,9.02404141 12.9540246,9.05151955 C12.9684516,9.09099248 12.9860429,9.13341849 13.0066156,9.17899929 C13.020671,9.21014038 13.0355744,9.24159111 13.0526845,9.27654731 L13.0918631,9.35569938 C13.2613254,9.69994838 13.5307584,10.0206602 13.9013657,10.344466 C14.2297256,10.6316025 14.5295535,10.8335735 14.8417423,10.9630252 C15.1525913,11.0921497 15.4731953,11.1426536 15.7670319,11.1035159 C15.5669897,10.8807488 15.3279207,10.705513 14.8422073,10.3933963 L14.8145815,10.3756443 C14.4100512,10.1156699 14.2199374,9.98210641 14.0111291,9.79476033 C13.9593615,9.7483711 13.9163765,9.70766398 13.8498657,9.64220849 L13.7703885,9.56346921 C13.5483197,9.34256365 13.4277497,9.23534905 13.2922313,9.15510262 L13.2226873,9.11682525 C13.262635,9.13729174 13.1050739,9.0551152 13.0585832,9.03261894 C13.0245875,9.01616885 12.9929997,9.00187115 12.9635734,8.98976337 C12.951762,8.98490344 12.9404303,8.98046129 12.9296479,8.97644727 Z" id="Combined-Shape" fill="#000000"></path>
    </g>
</svg>