<?xml version="1.0" encoding="UTF-8"?>
<svg width="24px" height="24px" viewBox="0 0 24 24" version="1.1" xmlns="http://www.w3.org/2000/svg" xmlns:xlink="http://www.w3.org/1999/xlink">
    <!-- Generator: Sketch 57.1 (83088) - https://sketch.com -->
    <title>crops-asparagus virgatus</title>
    <desc>Created with Sketch.</desc>
    <g id="crops-asparagus-virgatus" stroke="none" stroke-width="1" fill="none" fill-rule="evenodd">
        <path d="M11.83032,7.38137366 C11.9679525,8.16157263 12.083426,9.06171021 12.1768221,10.0820767 C13.3922221,8.32125416 14.6806154,7.20662331 16.0233903,6.76088155 L16.5199428,4.09831131 C16.5761331,3.79667688 16.8662075,3.59770515 17.1678419,3.65389552 C17.4694763,3.71008588 17.6684481,4.00016019 17.6122577,4.30179462 L17.6122577,4.30179462 L17.1941623,6.54285015 C18.2096015,6.49891034 19.2518799,6.8246749 20.3134602,7.52933573 C20.5690924,7.69902043 20.6387665,8.04380785 20.4690818,8.29943999 C20.2993971,8.55507212 19.9546097,8.62474628 19.6989776,8.45506158 C17.1104033,6.73680552 14.7366251,7.78445964 12.3691933,11.8540508 C12.3528972,11.8820636 12.3345284,11.9081208 12.3143941,11.9321412 C12.3833948,13.0990264 12.4299777,14.388921 12.454211,15.8019806 C13.741533,13.2941642 15.8009424,11.8278395 18.6097166,11.4494309 C18.9137929,11.4084646 19.1935053,11.6217574 19.2344716,11.9258338 C19.2754379,12.2299102 19.0621451,12.5096226 18.7580687,12.5505889 C17.608869,12.7054134 16.6078353,13.0647192 15.7527292,13.6332209 L18.1888956,14.6509624 C18.47203,14.769181 18.6057206,15.0945418 18.4875021,15.3776761 C18.3811054,15.632497 18.1069234,15.7662686 17.8467461,15.7042933 L17.7607883,15.6762826 L14.7892766,14.4355717 C14.7864803,14.4344041 14.7836984,14.4332163 14.7809313,14.4320086 C13.7027499,15.5139448 12.9349677,17.0491054 12.4709907,19.0515635 C12.4679348,19.8227098 12.4588178,20.6238524 12.4444549,21.454055 C12.4391475,21.7608326 12.1861526,22.0052226 11.879375,22 C11.5725974,21.9946078 11.3282074,21.7416129 11.3335148,21.4348352 C11.3464212,20.6888197 11.3550554,19.9666812 11.3594247,19.2684453 C11.3306181,19.1812436 11.3250984,19.0842947 11.3465044,18.9869987 L11.3612472,18.9229044 C11.3758634,15.507702 11.2861163,12.6776594 11.0928746,10.4358709 L11.0071411,10.3903901 C9.45440556,9.35941483 8.15401135,8.87002173 7.07117366,8.91813537 L7.0155956,8.97371146 L6.95170973,9.0201063 L6.95139754,9.05262721 C6.95139754,9.36120814 7.03347158,9.87921224 7.20005802,10.5879337 C7.27026417,10.8866172 7.08504675,11.1856612 6.78636333,11.2558674 C6.48767991,11.3260735 6.18863583,11.1408561 6.11842968,10.8421727 C5.96099267,10.1723763 5.86979978,9.64449221 5.84636329,9.24691902 C5.13138703,9.63153569 4.54143604,10.3462259 4.06020043,11.3900042 C3.93173536,11.6686391 3.60171562,11.7903758 3.32308071,11.6619107 C3.0444458,11.5334456 2.92270909,11.2034259 3.05117415,10.924791 C4.61441754,7.53418688 7.35011367,6.91905526 10.9501359,9.0432956 C10.8864783,8.51131643 10.8150034,8.02163073 10.7361088,7.57440002 C10.2609062,4.88061221 9.61965784,3.91477713 8.96162703,4.18158582 C8.67728754,4.29687563 8.35332398,4.15983378 8.23803417,3.87549429 C8.12274435,3.5911548 8.2597862,3.26719124 8.54412569,3.15190143 C10.1980932,2.48127491 11.2437369,4.05620197 11.83032,7.38137366 Z" id="icon/asparagus-virgatus" fill="#000000"></path>
    </g>
</svg>