<?xml version="1.0" encoding="UTF-8"?>
<svg width="24px" height="24px" viewBox="0 0 24 24" version="1.1" xmlns="http://www.w3.org/2000/svg" xmlns:xlink="http://www.w3.org/1999/xlink">
    <!-- Generator: Sketch 57.1 (83088) - https://sketch.com -->
    <title>crops-peas</title>
    <desc>Created with Sketch.</desc>
    <g id="crops-peas" stroke="none" stroke-width="1" fill="none" fill-rule="evenodd">
        <path d="M3.81120743,3.00393867 C4.5748817,3.07963923 5.40535729,3.0878032 6.28490791,3.09670814 C8.91516208,3.12342677 11.8963321,3.15385404 13.7004996,5.15907517 C13.963962,5.46929469 14.1955246,5.80622713 14.3914448,6.16322277 C14.6051862,6.57957202 14.8886928,6.95585188 15.229349,7.27572301 C15.5091508,7.50282087 15.801549,7.71211645 16.1065818,7.90284978 C16.4821206,8.1358944 16.8390973,8.39787486 17.1745478,8.68582728 C17.7586223,9.22388563 18.2195057,9.88144917 18.5267614,10.6132997 C18.6276948,10.8626647 18.7130432,11.1179574 18.7835551,11.377715 C18.8703873,11.7940642 19.0447945,12.1874054 19.2963824,12.5310256 C19.5479703,12.817496 19.8129336,13.06612 20.0697083,13.3073153 C20.6552648,13.8572482 21.2608654,14.4257433 21.6260117,15.3890616 C22.0870618,16.6084793 22.0409523,17.7412551 21.9108808,18.8808301 L21.8761163,19.1659196 C21.798189,19.7670745 21.7937375,20.375639 21.8620155,20.9782757 C21.8968961,21.2216939 21.8152602,21.467354 21.6408453,21.641767 C21.4671809,21.8154314 21.2215322,21.8970788 20.978095,21.8629371 C20.3754583,21.7939167 19.7668937,21.7991111 19.164998,21.8770382 C18.6276806,21.951253 18.0858984,21.9920728 17.5426342,21.9994939 C16.8078967,22.0091364 16.0776231,21.8822271 15.3888818,21.6261915 C14.4255636,21.2610451 13.8563275,20.6554445 13.3063756,20.0698881 C13.0659213,19.8130944 12.8165563,19.5481501 12.5300858,19.2965622 C12.1872066,19.0457153 11.7938655,18.8705613 11.3775162,18.7837348 C11.1177587,18.7139715 10.8624659,18.6278822 10.613101,18.5276821 C9.88058544,18.2196855 9.2230409,17.758802 8.68505854,17.1747275 C8.39710613,16.839277 8.13586664,16.4823004 7.90208104,16.1067615 C7.71208869,15.8024698 7.50279311,15.5093306 7.27643621,15.2302698 C6.95582411,14.8896135 6.57954425,14.6053659 6.163195,14.3916245 C5.80547739,14.1964454 5.46928592,13.9648827 5.15830643,13.7006793 C3.15293711,11.8964929 3.1232983,8.91591182 3.09650938,6.28584763 C3.08760368,5.40639202 3.0794399,4.57591643 3.00373991,3.81214716 C2.98147471,3.59247799 3.05940198,3.3735308 3.21674034,3.2169391 C3.371852,3.05960263 3.5907973,2.9809306 3.81120743,3.00393867 Z M3.88095286,3.88200735 C3.94709756,4.63753095 3.95525963,5.43534685 3.9634236,6.276861 C3.98939936,8.84840754 4.01611608,11.5067806 5.73867418,13.0565482 L5.73867418,13.0558059 C6.0066014,13.2806809 6.29677673,13.4781019 6.60403237,13.6450862 C7.10572618,13.9055847 7.55695803,14.2529098 7.93842468,14.67 C8.18778965,14.9757737 8.41785139,15.2971268 8.62788794,15.6310953 C8.83718352,15.9695097 9.07169109,16.2916227 9.3299667,16.5951545 C9.78342145,17.0849738 10.3363372,17.4716463 10.9515895,17.7291809 C11.1705176,17.8160131 11.3931697,17.8902298 11.6202676,17.951833 C12.1293901,18.1002645 12.6563149,18.2538828 13.1023599,18.6450011 C13.4207491,18.9240618 13.6842115,19.2045856 13.9387633,19.4762176 C14.4656881,20.0372841 14.9199028,20.5211756 15.6954516,20.8150748 C16.8324419,21.2447805 17.8915732,21.1601769 19.0588863,21.0154597 L19.0596284,21.0154597 C19.6993706,20.9353076 20.3465226,20.9264008 20.9884308,20.9894839 C20.9253476,20.3475188 20.9342526,19.7003478 21.0151475,19.0599216 C21.1598685,17.8917726 21.2437273,16.8334012 20.8140216,15.6957269 C20.5208634,14.9201781 20.0362309,14.4659634 19.4751645,13.9390386 C19.2035324,13.6837269 18.9230087,13.4202645 18.6439479,13.1026352 C18.2528296,12.6565902 18.0992018,12.1296654 17.9507798,11.6205429 C17.8899233,11.394186 17.8157066,11.170793 17.7288687,10.9526057 C17.4713341,10.3366125 17.0846806,9.78371578 16.5948424,9.33098299 C16.2920325,9.07270738 15.9691975,8.83743985 15.6307831,8.62816327 C15.2960736,8.41812672 14.9754615,8.18806497 14.6689468,7.93870001 C14.2518566,7.55723335 13.9052726,7.10600151 13.6440331,6.60430769 C13.4770469,6.29705205 13.2803687,6.00687673 13.0554937,5.73894951 C11.5066191,4.01714378 8.84754304,3.99043085 6.27580651,3.9644589 C5.43493834,3.95555301 4.63712244,3.94813134 3.88095286,3.88200735 Z M18.3551945,14.4028911 C19.3222176,14.7249851 20.0762592,15.4901603 20.3858328,16.4608883 C20.6953113,17.4316352 20.5223898,18.4915266 19.9212445,19.3145735 C19.3193487,20.1368794 18.3612362,20.6222528 17.3422882,20.6215127 C16.65273,20.622026 15.98181,20.3978909 15.4310601,19.9837645 C14.6161639,19.3722171 14.141183,18.4088989 14.1537985,17.3899889 C14.1664153,16.3710029 14.6651439,15.4195782 15.4956195,14.8288919 C16.3260951,14.2381297 17.3888554,14.0800561 18.3551945,14.4028911 Z M15.4897298,16.0408323 C15.1164328,16.5313925 14.9553763,17.1511096 15.0422028,17.761897 C15.129035,18.3726845 15.4570701,18.9226363 15.9520952,19.2900055 L15.9521332,19.2898555 C16.703192,19.8531448 17.7192141,19.9095535 18.5267196,19.4316068 C19.3349281,18.9536621 19.7757673,18.036341 19.6436657,17.1072404 C19.5115621,16.1780637 18.8324933,15.4195763 17.9233419,15.1866076 C17.0141904,14.952822 16.0538551,15.2897678 15.4897298,16.0408323 Z M15.2191465,10.55243 C15.8953293,11.5023918 16.0273549,12.7365821 15.5679534,13.808329 C15.1085519,14.8799999 14.1237075,15.6355235 12.969618,15.8009688 C12.8115386,15.823234 12.6527107,15.8344265 12.4931551,15.8344265 C11.3270922,15.8344265 10.2450288,15.2266029 9.63876317,14.229884 C9.03242157,13.2339061 8.98862833,11.993674 9.52298563,10.9576457 C10.0580801,9.92159836 11.0941274,9.23880383 12.2571656,9.15568217 C13.4201278,9.07330339 14.5429637,9.6024682 15.2191465,10.55243 Z M12.5048929,10.033752 C12.3868905,10.033752 12.2696253,10.0419158 12.153103,10.0582439 C11.1652948,10.1985115 10.3593092,10.9206382 10.1106852,11.8861794 C9.86280216,12.8524615 10.2212664,13.8736894 11.0183357,14.4725453 C11.6521312,14.9482672 12.475938,15.0900205 13.2328866,14.8547529 C13.9891511,14.6187444 14.5865821,14.033929 14.83817,13.2828702 C15.0897579,12.5318114 14.9650792,11.7050406 14.5027195,11.0616695 C14.0759207,10.4670344 13.4100795,10.0956252 12.6866988,10.0408233 L12.5048929,10.033752 Z M8.75387377,4.42149064 C9.76469011,4.75916406 10.5543553,5.5584809 10.8779883,6.57372405 C11.2016213,7.58896721 11.0204826,8.69783859 10.3918739,9.55793399 C9.76252419,10.4180864 8.75987753,10.9264679 7.69493238,10.9250257 C6.9735694,10.9257661 6.27223162,10.6919794 5.69699176,10.2585688 C4.8435081,9.61956751 4.34774204,8.61171506 4.36035753,7.54604793 C4.37371647,6.48030481 4.89545201,5.48501085 5.76377407,4.8675357 C6.63209614,4.25007867 7.74311444,4.0845582 8.75387377,4.42149064 Z M5.72678142,6.11137385 C4.94589797,7.1534968 5.11294665,8.61249989 6.08046029,9.45386833 L6.21732268,9.56464072 C7.01513859,10.1642946 8.09572011,10.2236862 8.95435257,9.71604183 C9.81302302,9.20840125 10.2813352,8.23320849 10.1410638,7.24538123 C10.0007963,6.25757297 9.27866952,5.4515874 8.31238739,5.20372337 C7.34610527,4.95509937 6.32563733,5.31356175 5.72678142,6.11137385 Z" id="Combined-Shape" fill="#000000"></path>
    </g>
</svg>