<?xml version="1.0" encoding="UTF-8"?>
<svg width="24px" height="24px" viewBox="0 0 24 24" version="1.1" xmlns="http://www.w3.org/2000/svg" xmlns:xlink="http://www.w3.org/1999/xlink">
    <!-- Generator: Sketch 57.1 (83088) - https://sketch.com -->
    <title>crops-figs</title>
    <desc>Created with Sketch.</desc>
    <g id="crops-figs" stroke="none" stroke-width="1" fill="none" fill-rule="evenodd">
        <path d="M11.4204667,3.25253867 C11.4490055,3.41652635 11.330091,3.57087173 11.1548863,3.59757994 C11.0272491,3.61093633 10.9115087,3.67475073 10.837777,3.77269922 C10.6633659,3.9893663 10.630078,4.31734927 10.5951909,4.66313138 C10.5785427,4.9428838 10.5254269,5.21965386 10.4366362,5.48677401 C10.2638122,5.94831705 9.71204397,6.30448992 9.41395106,6.44249503 C4.42097596,8.74137717 2.64374309,12.5804458 2.64374309,15.4047541 C2.64374309,19.2631985 5.44851164,21.2817013 10.9788983,21.403275 C11.1271471,21.2852935 11.3197933,21.2281557 11.5132249,21.2429972 C11.7034905,21.2385452 11.8897986,21.2964232 12.0396366,21.4062441 C17.5716468,21.2845526 20.3764153,19.2661675 20.3764153,15.4077232 C20.3764153,12.7365217 18.2754773,8.80665273 13.6632363,6.46920894 C13.5807879,6.42765544 12.8593718,6.04772822 12.6691062,5.46005249 C12.5977571,5.17141 12.5819006,4.87235777 12.6231258,4.5785294 C12.6437374,4.24461972 12.661179,3.95523639 12.4994522,3.76972256 C12.4011473,3.65545091 12.3694384,3.65248185 12.2774655,3.63912585 C12.1022629,3.61463825 11.9817674,3.46178215 12.0079277,3.29778877 C12.0340879,3.13379538 12.1973997,3.02101871 12.3726085,3.0455044 C12.6215469,3.07295916 12.8458878,3.19761966 12.9909767,3.38832316 C13.308086,3.7534051 13.2811343,4.20603907 13.2557655,4.60673829 C13.2264332,4.83083276 13.236739,5.05789059 13.2874765,5.2790217 C13.374682,5.5491242 13.7631506,5.8266351 13.9755986,5.937951 C18.8431506,8.40437685 21.0218186,12.4677869 21.0218186,15.3988521 C21.0218186,18.3299173 19.4568916,21.8515646 12.0238288,21.9999623 C11.8961915,22.0014065 11.7709328,21.9613381 11.6718324,21.8856509 C11.6282306,21.8500336 11.5703574,21.8337085 11.5132777,21.8396447 C11.474431,21.8374186 11.4347929,21.8411287 11.3975333,21.8515171 C11.3119128,21.9457538 11.1858565,21.9999623 11.0534722,21.9999623 L11.037565,21.9999623 C3.57123865,21.858916 2,18.3357851 2,15.4047199 C2,12.4010904 3.86935186,8.32875233 9.11745536,5.90677685 C9.35529243,5.79695783 9.72947129,5.53278584 9.82144821,5.28644719 C9.89121226,5.0638344 9.93243749,4.8352949 9.94512186,4.60377304 C9.98634506,4.18971971 10.0307404,3.76083059 10.3129687,3.41653015 C10.4873778,3.18873149 10.7553387,3.03957579 11.0518283,3.0039585 C11.227031,2.97724649 11.3919319,3.08854908 11.4204667,3.25253867 Z M9.96268617,7.14156833 C10.0942789,7.25064651 10.1061779,7.43837905 9.98963995,7.56154838 C3.34465211,14.5841375 6.71240388,18.5316726 7.90311134,19.5823351 C7.99824413,19.6654421 8.02916153,19.7945571 7.98159615,19.9080765 C7.93323723,20.0216073 7.81590576,20.0958091 7.68589804,20.0958091 L7.68587166,20.0885355 C7.60500828,20.0885355 7.527317,20.0603381 7.46865431,20.0083957 C6.17326526,18.8730876 2.49008866,14.5901991 9.51398408,7.16679677 C9.63052201,7.04361985 9.83109341,7.03249016 9.96268617,7.14156833 Z M17.2641766,17.8743181 C17.4132169,17.961135 17.4584058,18.1444206 17.3656515,18.2839074 C16.8384484,19.0912325 16.0464768,19.7182487 15.1078332,20.0706984 C15.0737436,20.0825708 15.0380691,20.0885071 15.001601,20.0885071 C14.8454331,20.0900195 14.7114516,19.98391 14.6860828,19.8399554 C14.6607141,19.6952599 14.7518833,19.5557579 14.9001342,19.5097499 C15.6992497,19.1981034 16.3731044,18.6593801 16.8265758,17.9692975 C16.9193301,17.8297955 17.1151504,17.7875012 17.2641766,17.8743181 Z M12.2553015,7.01099251 C12.306039,7.18165915 13.5237388,11.2227604 13.5237388,14.7086954 C13.5237388,18.2362315 12.6215654,19.6476258 12.5835122,19.7055633 C12.5224689,19.7931229 12.4178219,19.8443225 12.306039,19.8406126 C12.1910748,19.8406392 12.0856443,19.7820198 12.029346,19.688524 C11.9730598,19.5942873 11.9762299,19.4792653 12.0364809,19.3880091 C12.0364809,19.3761366 12.8815849,18.0345522 12.8815849,14.7028637 C12.8815849,11.2999407 11.6559497,7.20841676 11.6432653,7.16681577 C11.597285,7.00876429 11.6971729,6.84551935 11.8660435,6.80247467 C12.034904,6.75943759 12.2093131,6.85293154 12.2553015,7.01099251 Z M14.7081678,8.1344662 C14.8080578,8.23983449 17.1642684,10.758178 17.9395372,13.6713871 C17.9601488,13.7478151 17.9474651,13.8286958 17.9038627,13.8969632 C17.8602609,13.9644879 17.7897033,14.0127204 17.7080484,14.0320126 C17.6826797,14.0379488 17.6565174,14.0409167 17.6303572,14.0409167 L17.6304201,14.0410052 C17.4845498,14.0410052 17.3576959,13.9475094 17.3228291,13.8154291 C17.1954258,13.3356078 17.0201412,12.8641549 16.8172637,12.4124305 C16.4122901,11.718825 15.9190262,10.8621849 15.4893783,10.1130514 C14.8204336,9.15689015 14.2435589,8.54023823 14.2325099,8.52773424 C14.1167655,8.40455731 14.1286564,8.21682857 14.2602573,8.10849503 C14.3918581,8.00015959 14.5924255,8.01128928 14.7081678,8.1344662 Z M7.115056,8.83050207 C7.22921536,8.95812973 7.2101888,9.14809429 7.07383281,9.25494615 C6.43167881,9.78401957 5.87833573,10.400626 5.43119636,11.0833002 C5.37411668,11.173827 5.26946959,11.2294792 5.15688918,11.2287438 C5.0443378,11.2279223 4.93969476,11.1715285 4.88339644,11.0795162 C4.8279018,10.9875039 4.8279018,10.8747216 4.88418937,10.7834463 C5.36382103,10.0384467 5.96394408,9.36618226 6.66158459,8.79191762 C6.79794262,8.68506576 7.00089665,8.70287441 7.115056,8.83050207 Z" id="fig" fill="#000000"></path>
    </g>
</svg>