<?xml version="1.0" encoding="UTF-8"?>
<svg width="24px" height="24px" viewBox="0 0 24 24" version="1.1" xmlns="http://www.w3.org/2000/svg" xmlns:xlink="http://www.w3.org/1999/xlink">
    <!-- Generator: Sketch 57.1 (83088) - https://sketch.com -->
    <title>crops-watermelon</title>
    <desc>Created with Sketch.</desc>
    <g id="crops-watermelon" stroke="none" stroke-width="1" fill="none" fill-rule="evenodd">
        <path d="M12.2491306,3 C12.3910655,3.00123994 12.5216633,3.07234064 12.6043763,3.1887196 L12.6479655,3.26378371 L19.9951539,18.9269427 C20.0945111,19.1378094 20.0313421,19.3934057 19.8461227,19.5267893 C17.6833612,21.0856112 15.2995773,21.9147441 12.7544289,21.9937604 L12.3512311,22 C7.78098841,22 4.34474936,19.6319461 4.20068517,19.5306045 C4.03297373,19.4131628 3.96256665,19.1959536 4.01937433,18.9997173 L4.05159634,18.9172521 L11.8446195,3.25409307 C11.9090845,3.12369551 12.0272601,3.03417369 12.161785,3.00795525 L12.244163,3 Z M5.61289361,17.821924 L5.04586238,18.9620236 C5.97401849,19.5188619 8.67284241,20.9537138 12.0037534,21.0487519 L12.3505385,21.0537132 C14.6032249,21.0536231 16.7248444,20.4295453 18.670064,19.1970035 L19.0114977,18.9731831 L18.4941368,17.8718461 C16.3721527,19.0596358 14.2679728,19.4799004 12.3561886,19.4799004 C9.4777026,19.4799004 7.03649427,18.5305613 5.61289361,17.821924 Z M12.2320228,4.51935065 L6.0315778,16.9813147 C8.23156562,18.0706566 12.9471435,19.7308468 17.786934,17.1874193 L18.0960025,17.019318 L12.2320228,4.51935065 Z M10.5512411,16.0189655 L10.6310439,16.023078 C10.8780043,16.0565947 11.0525847,16.2935574 11.0206496,16.5528774 L11.0206496,16.5528774 L10.9092309,17.460478 C10.8801445,17.6989363 10.6864044,17.8733029 10.4628512,17.8733029 C10.4436897,17.8733029 10.4245283,17.8718127 10.4046583,17.868832 C10.1576979,17.8353154 9.98311744,17.5983526 10.0150526,17.3390327 L10.0150526,17.3390327 L10.1264713,16.4321761 C10.1583919,16.1728676 10.3897572,15.9865766 10.6310421,16.0230901 Z M15.6945541,14.5722415 C15.9159736,14.5722415 16.0998269,14.7394552 16.1379496,14.96031 L16.1452032,15.0454231 L16.1452032,16.0975821 C16.1452032,16.3583899 15.943651,16.5707636 15.6945541,16.5707636 C15.4731346,16.5707636 15.2892813,16.4029622 15.2511586,16.1824993 L15.243905,16.0975821 L15.243905,15.0454231 C15.243905,14.7838713 15.4454571,14.5722415 15.6945541,14.5722415 Z M8.47290422,14.5722415 C8.69432374,14.5722415 8.878177,14.7394552 8.91629971,14.96031 L8.92355334,15.0454231 L8.92355334,16.0975821 C8.92355334,16.3583899 8.72200118,16.5707636 8.47290422,16.5707636 C8.2514847,16.5707636 8.06763145,16.4029622 8.02950874,16.1824993 L8.0222551,16.0975821 L8.0222551,15.0454231 C8.0222551,14.7838713 8.22380726,14.5722415 8.47290422,14.5722415 Z M12.6728216,14.2212802 C12.8828883,14.212005 13.0811734,14.3740583 13.1286245,14.5938808 L13.1390767,14.6788004 L13.1724307,15.7309593 C13.1800047,15.9627885 13.026648,16.1616428 12.8175264,16.2092509 L12.7366973,16.2197833 L12.7217942,16.2197833 C12.5066728,16.2197833 12.3246497,16.0608293 12.2808749,15.8454676 L12.271145,15.7622631 L12.2377966,14.7108482 C12.2299845,14.4485524 12.4251417,14.2302221 12.6728216,14.2212802 Z M10.6134613,11.1835351 L10.6934952,11.1989546 C10.9067175,11.2612188 11.0419952,11.4742075 11.022572,11.6976597 L11.0078868,11.7816709 L10.7850421,12.625939 C10.7296852,12.8360713 10.5487171,12.9731804 10.3507258,12.9731804 C10.310984,12.9731804 10.2705337,12.9679643 10.2300815,12.9560417 C10.0174826,12.893785 9.88283548,12.6807971 9.90139452,12.457345 L9.91568268,12.3733338 L10.1385273,11.5290657 C10.1898631,11.3331678 10.3519594,11.19993 10.5343266,11.183344 L10.6134613,11.1835351 Z M14.0127131,11.0563843 L14.0282733,11.1401299 L14.1389835,12.3092824 C14.1638187,12.5693272 13.9828505,12.8010783 13.7351706,12.8271591 C13.7195573,12.8286495 13.7046545,12.8301541 13.6897514,12.8301541 C13.4897867,12.8301541 13.3148328,12.6903686 13.2585292,12.4916917 L13.2419364,12.4031747 L13.1305177,11.2347663 C13.1056825,10.9739584 13.2866507,10.7422072 13.5343306,10.7161264 C13.7532309,10.6969317 13.9530652,10.8413935 14.0127131,11.0563843 Z M12.0212324,7.32398874 C12.2426519,7.32398874 12.4265051,7.49120239 12.4646278,7.71205717 L12.4718815,7.79717032 L12.4718815,9.08331618 C12.4718815,9.34486799 12.2703293,9.55649776 12.0212324,9.55649776 C11.799183,9.55649776 11.6152589,9.38928411 11.5776253,9.16842933 L11.5705814,9.08331618 L11.5705814,7.79717032 C11.5705814,7.53561851 11.7721354,7.32398874 12.0212324,7.32398874 Z" id="Combined-Shape" fill="#000000"></path>
    </g>
</svg>