<?xml version="1.0" encoding="UTF-8"?>
<svg width="24px" height="24px" viewBox="0 0 24 24" version="1.1" xmlns="http://www.w3.org/2000/svg" xmlns:xlink="http://www.w3.org/1999/xlink">
    <!-- Generator: Sketch 57.1 (83088) - https://sketch.com -->
    <title>crops-corn&amp;maze</title>
    <desc>Created with Sketch.</desc>
    <g id="crops-corn&amp;maze" stroke="none" stroke-width="1" fill="none" fill-rule="evenodd">
        <path d="M11.6499265,3 C15.9718128,8.38925066 18.0179509,14.7422662 18.1793019,15.2590335 C18.7243721,16.4426515 19.0157578,17.457412 19.0510772,18.2607023 C19.1602392,18.4201727 19.4636816,18.8550763 19.7630962,19.2089676 C19.8136679,19.2678069 19.8642416,19.3249412 19.9132084,19.377812 C20.1315447,19.6123242 20.2230575,19.6541088 20.239112,19.660078 C20.3627248,19.70614 20.4462105,19.811873 20.4622653,19.9431954 C20.4808816,20.0906964 20.5226188,20.4352006 18.5711631,21.8345677 L18.5711631,21.8345677 L18.3399747,22 L18.2035099,21.7416164 C18.2027064,21.7399136 18.1384874,21.6188186 18.0381455,21.4431522 C17.7138448,20.8735119 17.4232564,20.4462926 17.2241776,20.2416334 C15.5859256,20.1110881 13.1889648,18.4756043 11.0536065,16.4494888 C11.1017758,16.9781973 11.2326182,17.5930263 11.527224,18.2189452 L11.527224,18.2189452 L12.1180387,19.4741885 L11.1274634,18.5455486 C11.0374541,18.4610653 8.92872868,16.4528943 7.75190807,12.7792884 C4.54259664,8.62126765 3.19801138,4.84608523 4.48239109,3.58828778 C5.5226359,2.57099495 7.94692828,3.48175583 10.8656555,5.95731391 C10.8126774,4.61680139 11.2397347,3.25923721 11.2614088,3.19272242 C11.2943136,3.08953923 11.3826152,3.01705668 11.4845621,3.00852911 C11.5295154,3.00511703 11.5728637,3.01620312 11.6113951,3.03496344 L11.6113951,3.03496344 Z M19.6116853,19.8235369 C19.4053831,20.0452456 19.2038896,20.2951155 19.0112327,20.5722513 C18.8988443,20.734276 18.7896679,20.9073882 18.6829041,21.0864645 L18.683,21.085 L18.8508752,20.9571286 C19.2392814,20.6546591 19.5969792,20.3519563 19.7974493,20.1449133 L19.87337,20.0623169 C19.7955119,20.0043182 19.7072103,19.9216031 19.6116853,19.8235369 Z M18.9852697,19.0691532 C18.9090084,19.3812612 18.7717462,19.6396361 18.5710624,19.8357684 C18.3768025,20.0259258 18.1416069,20.1470164 17.8742915,20.2075606 C18.0043324,20.3849319 18.1343856,20.5861747 18.2555982,20.784012 C18.3663631,20.5981268 18.4803502,20.4173369 18.5983529,20.2484924 C18.8102858,19.9440687 19.0326376,19.6686355 19.2614216,19.4255986 C19.1634779,19.3062086 19.0703594,19.1834218 18.9852697,19.0691532 Z M11.4221737,15.0701883 L11.0944744,15.0807759 C11.0719967,15.2189181 11.0455071,15.4312616 11.0342688,15.6930508 C14.1704158,18.7783515 17.2497624,20.3857833 18.2226852,19.4341124 C18.6433391,19.0221743 18.6465449,18.1029214 18.2580251,16.874966 C16.6413507,16.1109049 13.7033065,14.9426314 11.0944744,15.0807759 Z M11.9324289,15.6666667 C14.1351845,16.851018 16.8295515,17.997767 17.3351821,17.7809208 C17.3859209,17.7592362 17.3736736,17.6540003 17.368425,17.6227477 L17.368425,17.6227477 L17.9239288,17.5742745 C17.978169,17.905936 17.7874591,18.0615522 17.6168732,18.1336236 C17.5101753,18.1789522 17.3754524,18.1993622 17.2188633,18.2 C15.8173947,18.2 12.6287738,16.5487298 11.6,15.9951279 L11.6,15.9951279 Z M8.43647594,12.9076501 L8.33879376,12.9079475 C8.65988869,13.8416957 9.04440115,14.6594813 9.43131797,15.3544713 C9.34943804,14.468466 9.4168688,13.7734782 9.42088243,13.7308414 L9.42088243,13.7308414 L9.9314285,13.7896806 C9.93062705,13.8032154 9.794154,15.220527 10.1618154,16.5337516 C10.331179,16.7800928 10.4941309,17.0009479 10.6418345,17.1928168 C10.3592607,15.8549457 10.6209633,14.8060666 10.6354126,14.7497859 L10.6354126,14.7497859 L10.6835758,14.5638876 L10.8641925,14.549391 C12.9954408,14.3797039 15.3490615,15.0798022 17.0966194,15.7781978 C13.6696888,13.0844653 9.53406834,12.8985673 8.33879376,12.9079475 Z M12.5152974,5.03553746 C12.8709164,6.03492943 13.209669,7.26465308 13.1936142,8.29305755 C13.1936142,8.30584793 13.1920089,8.31863962 13.1904033,8.33143088 C13.1855946,8.3604652 12.7810047,11.1931673 14.0774267,13.4521686 C15.3159798,13.9406875 16.6019624,14.6433618 17.790027,15.6582249 C17.7611274,15.5917101 17.7330313,15.5269024 17.7017254,15.4603876 C17.6840523,15.4014458 16.0568973,10.1075936 12.5152974,5.03553746 Z M12.8847004,11.8190578 C12.6800011,12.1132432 12.3516725,12.4389952 11.8331119,12.7630444 C12.3187719,12.8730474 12.8301194,13.0111918 13.3567151,13.1877096 C13.1488099,12.7332024 12.9954776,12.2701595 12.8847004,11.8190578 Z M10.1408749,12.0049692 C9.94018283,12.1414086 9.72344119,12.2761323 9.49064994,12.4066033 C9.82699302,12.4330377 10.2082997,12.473116 10.6249113,12.5353673 C10.4779989,12.3793024 10.3158505,12.2010884 10.1408543,12.0049561 Z M11.8290225,10.4323851 C11.518367,10.8468337 11.1089684,11.2766071 10.5703303,11.6953126 C10.8560997,12.0150831 11.0977151,12.2751783 11.2847537,12.4602252 C12.1340472,12.0014392 12.477628,11.5546162 12.6156999,11.2459137 C12.431078,11.0404031 12.1621597,10.7632454 11.8290225,10.4323851 Z M8.96797932,10.6499417 C8.53529749,10.9484058 8.03599231,11.2357801 7.45721999,11.5009748 L7.45721999,11.5009748 C7.65951493,11.7849503 7.87303021,12.0731978 8.09860839,12.3656805 C8.16763609,12.3639751 8.26156637,12.3614168 8.38037047,12.3614168 C8.91900849,12.1217854 9.38218664,11.8642749 9.78274871,11.598207 C9.52749622,11.3057026 9.25294722,10.9859321 8.96797932,10.6499417 Z M10.5591717,9.20281423 C10.2565307,9.57460638 9.87442259,9.96004247 9.39519484,10.3369647 C9.68579345,10.6797662 9.96112336,11.0012613 10.2147935,11.2911898 C10.7518286,10.8792953 11.1507878,10.4571843 11.4461951,10.0555501 C11.1764754,9.79205818 10.8770608,9.50553525 10.5591717,9.20281423 Z M7.87561952,9.34515008 C7.48950415,9.60949341 7.04157416,9.86702567 6.52862373,10.1117654 C6.71887633,10.4179138 6.92357563,10.7308732 7.14192018,11.0497923 C7.70865016,10.796517 8.1975159,10.5210838 8.61815539,10.2354123 C8.3749247,9.94548384 8.12526183,9.64616834 7.87561952,9.34515008 Z M12.6222143,8.92556919 C12.5218682,9.23767724 12.3669412,9.59925281 12.1309442,9.98724305 C12.3284098,10.1833666 12.5082209,10.3641479 12.6631541,10.5253167 C12.5981316,9.89088403 12.6013436,9.3323335 12.6222143,8.92556919 Z M9.32857149,8.04480317 C9.06125611,8.36712781 8.72331013,8.70226686 8.30106773,9.03312716 C8.5539364,9.33755095 8.80357872,9.63686644 9.04600796,9.92509214 C9.51239192,9.56011105 9.87925186,9.18746751 10.1666241,8.83187346 C9.89690438,8.57689534 9.61594375,8.3134034 9.32857149,8.04478134 Z M6.76061353,7.99186683 C6.43629224,8.23062502 6.07828938,8.4514889 5.68574184,8.63824072 C5.85433466,8.96314135 6.0405615,9.29913177 6.24525874,9.64619017 C6.73652885,9.41679719 7.16277851,9.17546302 7.52963845,8.92816918 C7.27035815,8.61350697 7.0118793,8.29969614 6.76061353,7.991845 Z M11.5931076,7.32252526 C11.4855279,7.67384057 11.2760199,8.19231063 10.8778622,8.7755949 C11.183709,9.06637474 11.4742871,9.34608661 11.7416024,9.60617302 C12.1791012,8.85575583 12.2706142,8.23835077 12.289077,8.00129534 C12.0578886,7.76766728 11.8258988,7.54167982 11.5931076,7.32252526 Z M8.0201071,6.8296185 C7.7752735,7.10760577 7.49351142,7.39242594 7.17482085,7.66445353 C7.43410115,7.98166989 7.69660781,8.30061084 7.95829247,8.61782719 C8.36448526,8.30061084 8.68395673,7.98252127 8.9352225,7.6772461 C8.63340355,7.3958533 8.32675532,7.1127359 8.0201071,6.8296185 Z M10.3030972,6.18145452 C10.2188008,6.53279167 10.0365832,7.04357745 9.64806351,7.6166233 C9.9314285,7.88183984 10.2115877,8.1444804 10.4837118,8.40116128 C10.9324432,7.73260779 11.1042295,7.17405726 11.1636316,6.92506065 C11.0881676,6.85682126 11.0119083,6.78689439 10.9364505,6.71952821 C10.7229352,6.5310889 10.5126052,6.35370883 10.3030972,6.18145452 Z M5.73711703,6.73319617 C5.51877248,6.87133842 5.27634324,7.00693308 5.00742496,7.13910911 C5.13023221,7.4606042 5.27553768,7.80000016 5.44571697,8.1564456 C5.79893166,7.98929085 6.1232324,7.79060876 6.42024264,7.57486409 C6.18184121,7.28235966 5.95305722,7.00011547 5.73711703,6.73319617 Z M11.5713451,4.0563822 C11.4356825,4.68147153 11.2952034,5.62803413 11.4300633,6.45007659 C11.8338312,6.8124817 12.2376196,7.19706642 12.6381817,7.60212797 C12.4840561,6.33334988 11.9237378,4.875936 11.5713451,4.05644769 Z M9.11663857,5.27669699 C8.97375389,5.53508063 8.72248812,5.95208337 8.35805309,6.42023454 C8.65265897,6.69226214 8.95289557,6.97027124 9.25311162,7.2491099 C9.68417411,6.5967545 9.81100712,6.05697805 9.84793355,5.81734665 C9.59989414,5.62375538 9.35586199,5.44468783 9.11663857,5.27669699 Z M6.88342078,5.78671871 C6.69318874,5.99904039 6.45957548,6.21649437 6.17220323,6.4330926 C6.38573906,6.69745776 6.60809087,6.97118812 6.8344705,7.24832401 C7.1331042,6.99507048 7.39719322,6.72815118 7.62677866,6.46806477 C7.37631434,6.23782041 7.12827493,6.01013019 6.88344133,5.78671871 Z M4.84288051,5.62375975 C4.765006,5.67918911 4.68553474,5.73376491 4.60445853,5.78578219 C4.65582756,6.04501722 4.72967836,6.32558047 4.82681035,6.62574734 C5.03471546,6.52256416 5.22415633,6.41767821 5.39754759,6.31193652 C5.19284829,6.05953438 5.00822436,5.8292922 4.84285996,5.6237794 Z M7.6652895,4.37875051 C7.60507778,4.63202586 7.47826326,4.97995747 7.21335224,5.3687991 C7.45417857,5.58882688 7.7062458,5.81990079 7.9655261,6.05868081 C8.31469243,5.61011144 8.55311235,5.21443692 8.68235383,4.98248979 C8.32915968,4.75139404 7.98878878,4.5484463 7.6652895,4.37875051 Z M5.79572585,4.79405048 C5.63759302,4.95948063 5.45777164,5.13003218 5.25788928,5.29972797 C5.43930534,5.52486404 5.63356931,5.76619821 5.8366616,6.01774897 C6.10557988,5.81904941 6.32231125,5.62122088 6.49570251,5.43105917 C6.25569818,5.21275598 6.02130402,4.99870971 5.79572585,4.79405048 Z M6.53906317,3.89440124 C6.45478731,4.01549401 6.32473822,4.19286098 6.15054345,4.40007873 C6.35524275,4.58513433 6.58160183,4.79149633 6.82403107,5.01320504 C7.07208897,4.63713415 7.15878357,4.32417689 7.1892881,4.14510061 C6.96050412,4.04192616 6.74456392,3.96006247 6.53906317,3.89440124 Z M4.87243768,3.95837498 C4.85959388,3.97031311 4.84273666,3.977988 4.82989286,3.98992634 C4.71429046,4.10333485 4.63080578,4.25854404 4.57862709,4.45211784 C4.68458328,4.58430042 4.79938422,4.72841763 4.92300525,4.88276453 C5.09798914,4.73438385 5.25934628,4.58344467 5.40143155,4.43677113 C5.21761113,4.26963821 5.04020438,4.11016992 4.87243151,3.95837498 Z M5.9876841,3.75713372 C5.77897754,3.72387654 5.58872905,3.71620188 5.41935122,3.73581489 C5.51566942,3.82278688 5.62966069,3.92681926 5.75809866,4.04279282 C5.84640233,3.93790251 5.92346512,3.84154349 5.9876841,3.75712128 Z" id="Combined-Shape" fill="#000000"></path>
    </g>
</svg>