<?xml version="1.0" encoding="UTF-8"?>
<svg width="24px" height="24px" viewBox="0 0 24 24" version="1.1" xmlns="http://www.w3.org/2000/svg" xmlns:xlink="http://www.w3.org/1999/xlink">
    <!-- Generator: Sketch 57.1 (83088) - https://sketch.com -->
    <title>crops-avocado</title>
    <desc>Created with Sketch.</desc>
    <g id="crops-avocado" stroke="none" stroke-width="1" fill="none" fill-rule="evenodd">
        <path d="M11.1512361,3.18706795 C11.2307058,3.03175287 11.4186901,2.96070501 11.586165,3.02183914 C11.7527846,3.08296058 11.8442131,3.25728148 11.7972181,3.42416205 C11.3110177,5.14256287 11.9826387,6.62630958 11.9894745,6.64118028 C11.9920377,6.64778943 11.9937468,6.65522468 11.9963103,6.66183383 C13.520585,6.77730894 14.7834823,8.27192914 15.6558995,11.0105505 C15.9173644,11.8292606 16.303579,12.6669627 16.8718106,13.6451173 C17.355618,14.4788478 17.6111111,15.4264205 17.6111111,16.3864079 C17.6111111,17.9362277 16.9386479,19.4323495 15.7663106,20.4906387 C14.6784961,21.4720926 13.2875022,22 11.8109793,22 C11.672558,22 11.533288,21.995043 11.3940092,21.9859554 C8.54355449,21.7958233 6.23131312,19.5743021 6.01684106,16.8200303 C5.92625912,15.6534355 6.20224858,14.5109721 6.81661334,13.5162999 C7.27973841,12.7662404 7.66595305,11.9136492 7.96416692,10.9817692 C8.76914531,8.46870508 9.90637416,7.00891776 11.2726719,6.7106705 C11.1333865,6.33222513 10.8727726,5.46891119 10.9351497,4.39905329 L10.9351497,4.39905329 L10.8650837,4.44118691 C10.9180636,5.35073319 10.623284,6.16694767 10.0131847,6.75682247 C9.45007172,7.30124745 8.68702658,7.59040052 7.83256826,7.59040052 C7.68474098,7.59040052 7.53350566,7.58131309 7.38055539,7.56396391 L7.38055539,7.56396391 L7.10883144,7.5325699 L7.07636106,7.26985345 C6.95417059,6.26777902 7.25067825,5.36396419 7.91202925,4.72453661 C8.54938402,4.10822732 9.44144445,3.82320682 10.4334928,3.9091258 C10.8983241,3.66127729 11.1486728,3.19202471 11.1512361,3.18706795 Z M11.8053904,7.32268564 C10.1161826,7.32268564 9.08911329,9.73994353 8.62769442,11.1807388 C8.31324973,12.1630598 7.9048107,13.0652038 7.41348951,13.8607766 C6.87259872,14.7365263 6.62907525,15.7427672 6.70939591,16.7704957 C6.89817209,19.1944156 8.93271123,21.1490391 11.4414876,21.3167467 C12.8753554,21.4117493 14.2450874,20.9449633 15.2918218,20.0006899 C16.3246222,19.0687888 16.9167626,17.7518649 16.9167626,16.387905 C16.9167626,15.5419758 16.6911717,14.7075518 16.2656488,13.9747713 C15.6735084,12.9536836 15.2684818,12.0746769 14.9924923,11.2088673 C14.529411,9.75739169 13.5006574,7.32268564 11.8053904,7.32268564 Z M11.8051914,13.5555556 C13.2602945,13.5555556 14.4437333,14.738814 14.4444444,16.1944444 C14.4444444,17.6493468 13.2603127,18.8333333 11.8051914,18.8333333 C10.3508166,18.8333333 9.16666667,17.6493468 9.16666667,16.1944444 C9.16666667,14.7395421 10.3500701,13.5555556 11.8051914,13.5555556 Z M11.8051914,14.1337227 C10.6687432,14.1337227 9.74418533,15.058153 9.74418533,16.1944444 C9.74418533,17.3307359 10.6686886,18.2551662 11.8051914,18.2551662 C12.9416396,18.2551662 13.8661975,17.3307359 13.8661975,16.1944444 C13.8661975,15.058153 12.9416396,14.1337227 11.8051914,14.1337227 Z M10.179509,4.56422627 C9.4771435,4.54688386 8.85166653,4.76662496 8.40306607,5.20035457 C7.95447218,5.63408417 7.72547464,6.2363313 7.74512748,6.91790941 C8.44749301,6.93692262 9.07296997,6.71551072 9.52157043,6.28178112 C9.97016432,5.84805152 10.1991619,5.24497956 10.179509,4.56422627 Z" id="avocado-icon" fill="#000000"></path>
    </g>
</svg>