<?xml version="1.0" encoding="UTF-8"?>
<svg width="24px" height="24px" viewBox="0 0 24 24" version="1.1" xmlns="http://www.w3.org/2000/svg" xmlns:xlink="http://www.w3.org/1999/xlink">
    <!-- Generator: Sketch 57.1 (83088) - https://sketch.com -->
    <title>crops-artichoke</title>
    <desc>Created with Sketch.</desc>
    <g id="crops-artichoke" stroke="none" stroke-width="1" fill="none" fill-rule="evenodd">
        <path d="M11.9686253,3.05435926 C12.0033715,3.07218648 12.7177878,3.46347232 13.4056211,4.22522446 C13.6120862,4.0786178 13.7541492,3.99640086 13.77459,3.98451393 C13.9309479,3.89635163 14.1251445,3.90724829 14.2692523,4.01324035 L14.3470413,4.07340033 C14.5965335,4.2715926 15.3873078,4.94160469 16.041465,5.95873995 C16.3215015,5.85473095 16.5085355,5.80718274 16.5340865,5.80123915 C16.6976133,5.76161607 16.8693113,5.81609686 16.9786703,5.9409102 C17.0532909,6.02611567 18.7427182,7.99649223 18.7273875,10.886885 C18.9430389,10.9413683 19.0718177,10.9859437 19.0861262,10.9908966 C19.2374003,11.0443782 19.3467592,11.1721687 19.3733317,11.3257084 C19.3978817,11.4679924 19.9405816,14.839999 17.37423,16.8389803 C15.7101805,18.1356478 13.2563616,18.3466404 12.2046875,18.3753668 C12.3232379,19.363091 12.7065188,20.5963387 13.8236036,21.1906976 C14.0382346,21.3055982 14.117952,21.5671182 13.9993963,21.7761302 C13.9186533,21.9187733 13.7663666,22 13.6089726,22 C13.5364059,22 13.4638419,21.9821677 13.3953646,21.9465082 C11.8980602,21.1502428 11.4309934,19.5731301 11.3052818,18.3775147 C10.296648,18.3567205 7.76496415,18.1655407 6.0632642,16.8391502 C3.49691261,14.8391038 4.03962562,11.4672748 4.06415465,11.3246317 C4.0907402,11.1710945 4.20111953,11.0433116 4.35136018,10.9898198 C4.36771287,10.9848673 4.53942917,10.9254339 4.8215065,10.8590649 C4.91347401,7.8140597 6.48947542,6.01419299 6.55897304,5.93692735 C6.66833982,5.81508555 6.83799176,5.76258579 7.00049561,5.80121735 C7.02501156,5.80616991 7.21308055,5.85371761 7.49209666,5.95772915 C8.25557095,4.76409177 9.17949519,4.04988986 9.22242035,4.01719987 C9.36548674,3.90724677 9.56274725,3.89436958 9.72116424,3.98352088 C9.74159856,3.99540654 9.88571676,4.07861628 10.0942148,4.22621193 C10.784089,3.46248181 11.5025842,3.07119901 11.537333,3.05336875 C11.6712157,2.98204619 11.833717,2.98204619 11.9686253,3.05435926 Z M6.50565019,11.5266868 C5.80659241,11.5266868 5.22809973,11.6445671 4.91229662,11.7257938 C4.85202558,12.4923869 4.83771371,14.7786323 6.62015669,16.1694088 C7.82920902,17.1114364 9.76392822,17.4799425 11.2632735,17.5165935 L11.2654453,17.4103548 L11.2654453,17.4103548 L11.2683836,17.311545 L11.2653174,17.1916843 C11.2642954,17.1659197 11.2632735,17.0361538 11.2724718,16.8340749 C11.2274954,15.9723838 10.977103,13.6782264 9.60245681,12.5598539 C8.7592599,11.8743809 7.71778991,11.5266868 6.50565019,11.5266868 Z M16.9305622,11.5267705 C15.7183963,11.5267705 14.6769525,11.8744646 13.8337556,12.5599376 C12.5009985,13.6445322 12.2250541,15.8367981 12.1688427,16.7560535 C12.1862173,16.8125148 12.1933717,16.8729422 12.1851954,16.9353476 C12.1841734,16.9393112 12.177019,16.993792 12.1708869,17.0888874 C12.1715682,17.1238876 12.1713411,17.1514035 12.171114,17.1693807 L12.1708869,17.1889354 L12.1637325,17.5158353 C13.6639935,17.4811699 15.6048875,17.1126815 16.8160068,16.1686505 C18.5985259,14.779809 18.5842167,12.4945525 18.5239158,11.7268664 C18.2070923,11.6456398 17.624518,11.5267705 16.9305622,11.5267705 Z M6.25043034,13.5603333 C6.2661193,13.6322268 6.61635761,15.1925248 8.64241027,15.7894601 C8.81077615,15.8387557 8.9095627,16.0259007 8.86382823,16.2081334 C8.825402,16.358845 8.69826294,16.4583333 8.55922838,16.4583333 C8.53178676,16.4583333 8.5034319,16.4543929 8.47599029,16.4465126 C6.05832263,15.7343107 5.64853935,13.7859039 5.63207485,13.7031621 C5.59549851,13.5189498 5.70434472,13.3386891 5.87539412,13.2992876 C6.04645288,13.2598988 6.2138423,13.3771172 6.25043034,13.5603333 Z M16.687603,13.2916971 L16.751363,13.2996153 C16.9215151,13.3390376 17.0294694,13.5183496 16.9928749,13.70259 C16.9762464,13.7853187 16.5663881,15.7341856 14.1493949,16.4465102 C14.1219484,16.4543921 14.0935886,16.4583333 14.0661421,16.4583333 C13.9270783,16.4583333 13.7999122,16.359808 13.7614885,16.2080815 C13.7148373,16.0258008 13.81455,15.8386044 13.9828847,15.7893429 C16.0139084,15.1913 16.3615633,13.6247559 16.3752863,13.5587444 C16.4137193,13.3764865 16.5802225,13.2592412 16.7513021,13.299637 Z M11.7528483,7.60506944 C11.1508601,8.00117346 9.49209318,9.28308472 9.37864738,11.3652681 C9.65868389,11.5188155 9.92544987,11.6971181 10.1738066,11.899197 C10.9515666,12.5321773 11.426815,13.4365726 11.7170817,14.3181956 C12.0073223,13.4365726 12.4825707,12.5331663 13.2613773,11.899197 C13.5301893,11.6812638 13.8194095,11.493056 14.1250085,11.3315917 C13.9962278,9.26928955 12.3538162,8.00036197 11.7528483,7.60506944 Z M7.05858036,6.72248275 C6.68553761,7.23954811 5.8198551,8.64919151 5.71151919,10.7076137 C5.95372212,10.6818576 6.22049333,10.6640271 6.50461147,10.6640271 C7.21494607,10.6640271 7.89050831,10.7739726 8.51293086,10.9859567 C8.6355891,9.96070153 9.05871817,9.12168121 9.55236002,8.46691773 C8.93605992,7.67445611 8.15113091,7.19799015 7.5747052,6.93152018 C7.53484651,6.92359556 7.49498519,6.91071711 7.45716993,6.89090557 C7.43877381,6.88100044 7.42242112,6.86911351 7.40606843,6.85722659 C7.27320873,6.80076275 7.15465305,6.7561871 7.05858036,6.72248275 Z M16.4757976,6.72350725 C16.3776763,6.75817776 16.2560541,6.80473393 16.1190997,6.86317829 C16.1047931,6.87308393 16.0915053,6.88398009 16.0761746,6.89190471 C16.0414258,6.90973421 16.0046309,6.92162113 15.9678387,6.93053626 C15.3842701,7.19997321 14.5840088,7.68336211 13.9646475,8.48771699 C14.4491057,9.13555753 14.8640558,9.96169559 14.9887444,10.9651422 C15.5927734,10.7670268 16.2448401,10.6640068 16.9306326,10.6640068 C17.2617942,10.6640068 17.567367,10.6877806 17.8412811,10.7214596 C17.8024062,8.750231 16.870303,7.26534812 16.4757976,6.72350725 Z M13.968546,4.89490144 C13.5301108,5.20197081 12.6511473,5.91620061 12.2780967,6.90676495 C12.5468825,7.08506247 12.9567201,7.38619788 13.3798492,7.81313816 C13.9603827,7.11280497 14.6441082,6.63633901 15.2266825,6.32528831 C14.7759501,5.64874165 14.261874,5.15145613 13.968546,4.89490144 Z M9.53293826,4.89786842 C9.24677931,5.15640109 8.74902966,5.6546756 8.30444586,6.32528831 C8.88291238,6.63337203 9.55952119,7.10486767 10.1379877,7.79629994 C10.5560147,7.37828595 10.9597299,7.08209803 11.2264749,6.90676495 C10.8524039,5.91419727 9.97446084,5.20493778 9.53293826,4.89786842 Z M11.7518018,3.94196952 C11.5228641,4.09452789 11.1447115,4.37781073 10.7757425,4.78197883 C11.1130265,5.09401852 11.468704,5.4932163 11.7518018,5.97067125 C12.0348995,5.4932163 12.3895566,5.09401852 12.7237532,4.78197883 C12.3548104,4.37682174 11.9797164,4.09352875 11.7518018,3.94196952 Z" id="artichoke" fill="#000000"></path>
    </g>
</svg>