<?xml version="1.0" encoding="UTF-8"?>
<svg width="24px" height="24px" viewBox="0 0 24 24" version="1.1" xmlns="http://www.w3.org/2000/svg" xmlns:xlink="http://www.w3.org/1999/xlink">
    <!-- Generator: Sketch 57.1 (83088) - https://sketch.com -->
    <title>crops-eggplant</title>
    <desc>Created with Sketch.</desc>
    <g id="crops-eggplant" stroke="none" stroke-width="1" fill="none" fill-rule="evenodd">
        <path d="M19.9914552,8.48025135 C19.1509204,7.2693541 19.3763969,6.37350073 19.6385044,5.33697268 C19.7683691,4.82201494 19.9030186,4.28894638 19.8958393,3.7073577 C19.8918558,3.42767202 19.7269369,3.18170193 19.4743787,3.08051304 L19.3891301,3.04678482 C19.2178373,2.97850706 19.0353838,2.98508802 18.8688718,3.06570514 C18.7015624,3.14714482 18.5820649,3.28617267 18.5238959,3.46797573 C18.4450209,3.71146085 18.376503,3.96566503 18.3103713,4.21079275 C18.0793268,5.06221146 17.8618251,5.8667316 17.2738525,6.23855076 C17.1129167,6.34055674 16.8324652,6.40143013 16.5345017,6.46723134 C16.2245862,6.53468568 15.8740218,6.61201253 15.5465659,6.75597242 C15.3402207,6.84728249 15.1410345,6.94682035 14.9474368,7.04307089 C14.3530803,7.33920371 13.8001683,7.60162094 13.5014094,7.41735396 C13.3954466,7.35236774 13.26239,7.36059342 13.1652036,7.43709685 C13.0672075,7.5144237 13.0249819,7.64439825 13.0584434,7.76696632 C13.1859177,8.23915307 13.4050103,8.62249155 13.6774993,8.92767978 C13.0074537,9.68860761 12.1764846,10.6074786 11.0046187,11.5609075 C10.3552953,12.0890271 9.40800845,12.4238455 8.40577509,12.7783751 C6.08737494,13.5985211 3.45895734,14.5280901 4.09714456,18.2455236 C4.19593814,18.8205418 4.4046737,19.3017629 4.75444272,19.7607877 C5.8873729,21.2464428 7.20908738,22 8.68391377,22 C10.7473654,22 13.1351115,20.5513668 16.1977575,17.4417616 C16.5252134,17.1094282 18.7184848,14.8142198 19.6666895,12.2864982 C19.6738601,12.2914338 19.6818271,12.2971922 19.6889985,12.3013054 C19.7861971,12.3662917 19.8873811,12.4337481 19.9224294,12.4658295 C20.0068806,12.5431564 20.1263882,12.5653674 20.2323449,12.5225901 C20.3375101,12.4798148 20.4100114,12.3794536 20.4211659,12.263458 C20.4235561,12.2363108 20.6697509,9.45923061 19.9917305,8.48019386 L19.9914552,8.48025135 Z M15.775218,17.0009668 C12.8329078,19.9888294 10.5789586,21.3806242 8.68356908,21.3806242 C7.38492234,21.3806242 6.25441927,20.725813 5.22667066,19.3775474 C4.93666159,18.9966728 4.77094503,18.614977 4.68889239,18.1370411 C4.140753,14.9419571 6.30702025,14.1760382 8.60082297,13.365053 C9.65247555,12.9932338 10.6467341,12.641147 11.3764989,12.048039 C12.5922771,11.0592519 13.4456613,10.1148784 14.1323907,9.33415503 C14.6104295,9.66979469 15.1673187,9.82855911 15.6788067,9.82855911 C15.837352,9.82855911 15.9887221,9.81292927 16.1273529,9.78249237 C16.4101827,10.6232131 16.3950489,11.4293758 16.0867203,12.3580182 C16.0516638,12.4624902 16.0739728,12.579307 16.1448812,12.6623851 C16.2022446,12.7306628 16.2851029,12.7685039 16.3711531,12.7685039 C16.3910711,12.7685039 16.4101929,12.766036 16.4301095,12.7627455 C17.4722168,12.5480482 18.1143608,12.173744 18.667334,11.4103523 C18.7987916,11.6012002 18.9748631,11.7706521 19.1565089,11.9187396 C18.4609684,13.880688 16.8707421,15.8871131 15.7752792,17.000928 L15.775218,17.0009668 Z M19.8560265,11.674493 C19.511846,11.4375783 19.0226711,11.0624739 19.0481659,10.7399962 C19.0601167,10.595215 18.9732743,10.4619531 18.838639,10.4183608 C18.7055885,10.3747622 18.5597865,10.4331681 18.4888904,10.5582058 C18.0754046,11.2928098 17.6722596,11.7526559 16.8046391,12.028235 C17.0285247,11.0682357 16.9560153,10.2028338 16.5831602,9.2814989 C16.5520891,9.20499547 16.4931307,9.14412208 16.4174436,9.11286198 C16.3815917,9.09805492 16.3441449,9.09065096 16.3059026,9.09065096 C16.2644745,9.09065096 16.2238418,9.09969963 16.1855995,9.11615141 C16.0557348,9.17455667 15.8756841,9.20746148 15.6772933,9.20746148 C15.1681916,9.20746148 14.2910054,8.9606701 13.832098,8.09857443 C14.2607379,8.07225058 14.7212362,7.8427487 15.2072293,7.60006383 C15.3944574,7.50710693 15.5880613,7.4100393 15.781659,7.32448467 C16.0541276,7.20438262 16.3608613,7.13692827 16.6572543,7.07194416 C17.007003,6.99544072 17.3368452,6.92387353 17.5862257,6.76593463 C18.3757707,6.26660272 18.6354919,5.30578208 18.8872587,4.37614993 C18.9517933,4.13759265 19.0187163,3.89162256 19.0928084,3.66212068 C19.0991822,3.64237779 19.1063527,3.63415211 19.1238795,3.62510302 C19.1382205,3.61769928 19.1461886,3.61769928 19.1485769,3.61769928 C19.1549506,3.61769928 19.162121,3.61934463 19.1708859,3.62263511 L19.2553371,3.65636334 C19.280832,3.66705756 19.2935794,3.68515531 19.2935794,3.71312388 C19.2999531,4.21081318 19.181243,4.68135732 19.0561509,5.17820426 C18.7948389,6.21553255 18.4984459,7.39109266 19.5023109,8.83890458 C19.8488778,9.3398791 19.8942994,10.7317581 19.8560571,11.6745101 L19.8560265,11.674493 Z" id="Shape" fill="#000000"></path>
    </g>
</svg>