<?xml version="1.0" encoding="UTF-8"?>
<svg width="24px" height="24px" viewBox="0 0 24 24" version="1.1" xmlns="http://www.w3.org/2000/svg" xmlns:xlink="http://www.w3.org/1999/xlink">
    <!-- Generator: Sketch 57.1 (83088) - https://sketch.com -->
    <title>crops-pepper</title>
    <desc>Created with Sketch.</desc>
    <defs>
        <path d="M16.0190723,6.01121957 C15.7047968,5.97325349 15.4085729,5.97325349 15.1311404,5.97325349 C14.9830322,5.89732134 14.8349165,5.8400006 14.668753,5.78267987 C14.8349239,5.57274396 15.0198715,5.38217033 15.2048265,5.24892125 L15.482259,5.05834763 L15.3341507,4.75312491 C15.1679798,4.4293022 14.5206447,3.59032087 14.2432123,3.24789817 L14.0394659,3 L13.7808248,3.15260755 C12.5417744,3.89553977 12.0237525,4.71515883 11.7463201,5.49685373 C11.0252916,5.55417447 10.4516352,5.70678964 9.97045635,5.95392552 C9.65618085,5.95392552 9.34190535,5.95392552 8.9719954,5.99189159 C5.30970188,6.37303885 4.77370236,8.69784652 5.06907546,12.5666817 C5.5314629,18.3986158 7.26966978,21.5615663 10.1364719,21.6947773 C10.4875905,21.7141319 10.8206574,21.7141319 11.1168813,21.6754226 C11.4311568,21.8280302 11.7830151,21.9419208 12.1529251,21.9806453 L12.1897718,21.9806453 C12.3010333,22 12.4303613,22 12.5408903,22 C12.6521519,22 12.7814798,22 12.8920089,21.9806453 L12.9476396,21.9806453 C13.2987582,21.9426793 13.6318251,21.8473925 13.9461006,21.6947849 C14.2235331,21.7141396 14.5197569,21.7141396 14.8340324,21.6947849 C17.7008346,21.561532 19.4390415,18.4171091 19.9014289,12.5666893 C20.2171471,8.71729265 19.6810736,6.39248498 16.018854,6.01133773 L16.0190723,6.01121957 Z M13.89209,4.01019649 C14.113888,4.29605693 14.3544775,4.61987964 14.520641,4.84841553 C13.9101416,5.38217414 13.4109112,6.29708001 13.4845972,7.1732232 C13.4845972,7.38315911 13.521444,7.74494408 13.6327055,8.06876679 C13.2996385,8.03080071 12.94852,8.01144605 12.5598186,8.01144605 C12.3192292,8.01144605 12.0974312,8.01144605 11.8756332,8.03080071 C12.0605882,7.63029118 12.1342742,7.21118166 12.2087001,6.79207214 C12.3755924,5.85856628 12.56054,4.90569815 13.8920863,4.01007834 L13.89209,4.01019649 Z M19.1821723,12.5473232 C18.8859484,16.263509 17.9243305,20.6846265 14.9650139,20.9520013 C15.3717668,20.5135295 15.7048338,19.9418086 15.9822662,19.2174764 C16.0935278,18.9122537 16.2040642,18.588431 16.3153332,18.226646 C16.4078106,17.9214233 16.4815041,17.5976006 16.5559226,17.2544156 C16.7408776,16.3209097 16.8889895,15.2154684 16.944624,13.9767398 L16.2048041,13.9387737 C16.1311106,15.1201777 16.0010577,16.1877331 15.8161027,17.1026771 C15.7424092,17.4264998 15.6679944,17.7317225 15.5943047,18.0175829 C15.5018272,18.3414056 15.4093497,18.6466284 15.2980808,18.9324888 C14.9093794,19.9047192 14.4101489,20.5717269 13.818441,20.9335119 L13.7259635,20.9908326 C13.5597925,21.0861194 13.3748449,21.1620516 13.18989,21.2007685 L13.1711059,21.2007685 C13.0974125,21.2201232 13.004935,21.2387346 12.9305165,21.2387346 L12.856823,21.2387346 C12.7643456,21.2387346 12.6718681,21.2580892 12.5793906,21.2580892 C12.4869131,21.2580892 12.3944356,21.2580892 12.3019581,21.2387346 L12.2282646,21.2387346 C12.1357872,21.2193799 12.0620937,21.2193799 11.9876752,21.2007685 C11.9688912,21.2007685 11.9508285,21.1814139 11.9320445,21.1814139 C11.858351,21.1620592 11.8027202,21.1434478 11.7282981,21.1240931 C11.709514,21.1240931 11.6914513,21.1047385 11.6726673,21.1047385 C11.5989738,21.0667724 11.524559,21.0288063 11.4320779,20.990097 C10.0080725,20.2278025 9.15694668,17.8650707 8.93518566,13.9583113 L8.19536575,13.9962774 C8.39911215,17.3886785 9.06450618,19.7134862 10.1930645,20.9522148 C7.14130733,20.7996072 6.14292036,16.2831609 5.84662248,12.529051 C5.53234699,8.41227956 6.2721669,7.05977853 9.08333459,6.77391809 C9.43445312,6.73595202 9.76752005,6.71659736 10.0637439,6.73595202 L10.1750055,6.73595202 L10.2674829,6.67863128 C10.6005499,6.48805765 11.0441459,6.35480857 11.5809592,6.29748403 C11.5621752,6.4121255 11.5441125,6.52601992 11.5253285,6.62130673 C11.4140669,7.25035216 11.3215821,7.74538621 10.9148291,8.14589575 C10.896045,8.14589575 10.8779823,8.14589575 10.8591983,8.1652504 C10.5080798,7.70817862 9.8051029,7.32703136 9.21339494,7.32703136 L9.21339494,8.08932587 C9.4908274,8.08932587 9.84194593,8.24193342 10.0644838,8.43251086 C9.52841025,8.68040903 9.12091745,9.06155628 8.82543337,9.55659034 L9.45398437,9.95709987 C9.78705129,9.36601671 10.3419162,9.02359402 11.2110567,8.85162038 L11.2298407,8.87097503 L11.2486247,8.85162038 C11.6373261,8.77568822 12.0621307,8.75633356 12.5801526,8.75633356 C14.2815904,8.75633356 15.2251937,9.11811854 15.7055218,9.99506214 L16.3528642,9.61391488 C16.0566403,9.08015627 15.6130443,8.68040903 15.0213363,8.41314858 C15.2619258,8.24192961 15.5762013,8.10792586 15.8348423,8.10792586 L15.8348423,7.34563135 C15.3536635,7.34563135 14.7807469,7.61212951 14.3920455,7.9553145 C14.3183521,7.80270695 14.2258746,7.47888043 14.2258746,7.15505772 L14.2258746,7.11709165 C14.2070906,6.90715574 14.2446586,6.67861985 14.3183521,6.46944623 C14.5220985,6.52676697 14.7070535,6.60269912 14.873217,6.69798213 L14.9656945,6.75530286 L15.058172,6.75530286 C15.3356044,6.75530286 15.6318283,6.75530286 15.9461038,6.79326894 C18.7564947,7.0597671 19.4963146,8.41240153 19.1820761,12.5476396 L19.1821723,12.5473232 Z" id="path-1"></path>
    </defs>
    <g id="crops-pepper" stroke="none" stroke-width="1" fill="none" fill-rule="evenodd">
        <mask id="mask-2" fill="white">
            <use xlink:href="#path-1"></use>
        </mask>
        <use id="Shape" fill="#000000" xlink:href="#path-1"></use>
    </g>
</svg>