<?xml version="1.0" encoding="UTF-8"?>
<svg width="24px" height="24px" viewBox="0 0 24 24" version="1.1" xmlns="http://www.w3.org/2000/svg" xmlns:xlink="http://www.w3.org/1999/xlink">
    <!-- Generator: Sketch 57.1 (83088) - https://sketch.com -->
    <title>crops-anona</title>
    <desc>Created with Sketch.</desc>
    <g id="crops-anona" stroke="none" stroke-width="1" fill="none" fill-rule="evenodd">
        <path d="M16.2326163,4.29846806 C16.4110459,4.29699008 16.5632399,4.14511066 16.5642319,3.96754265 C16.5652146,3.78019185 16.4091417,3.62641218 16.2210502,3.62943851 C16.039588,3.63232407 15.8953634,3.77808046 15.8933887,3.96064544 C15.8913434,4.15334509 16.0386007,4.30001641 16.2326163,4.29846806 M7.83704896,7.53276776 C8.00983644,7.30706002 8.17133984,7.04890723 8.37988375,6.83685316 C8.58856871,6.62472871 8.84429418,6.45877334 9.07103367,6.27909394 C8.80070942,6.26185091 8.34179998,6.45863258 8.04439393,6.72649777 C7.75791934,6.98458018 7.71038515,7.18523274 7.83704896,7.53276776 M8.87074125,20.1288361 C8.36422709,19.8736393 8.01674794,19.5286379 7.79092528,19.0429475 C7.62300406,19.1751206 7.4746184,19.2919509 7.32595064,19.4089924 C7.77696123,19.9525349 8.25159786,20.1817617 8.87074125,20.1288361 M10.2450717,7.37933999 C10.5028424,7.02884902 10.7591321,6.68039906 11.0153512,6.33216024 C10.4757606,6.18302563 10.2736345,6.23391016 10.1242615,6.53239052 C9.96903489,6.84241316 9.96184129,7.23478006 10.2450717,7.37933999 M4.99099231,10.8429368 C5.24156942,10.2377416 5.65872776,9.78477781 6.22829172,9.47982252 C6.16827452,9.31865297 6.10395526,9.17747127 6.06389678,9.02981463 C6.02017096,8.86829319 5.92961622,8.87512002 5.81515333,8.93768759 C5.76705494,8.9640096 5.72079021,8.9990587 5.68390537,9.03931589 C5.2174497,9.54837236 5.02329299,10.1627169 4.99099231,10.8429368 M15.3497076,4.38067156 C14.6921278,5.19236079 14.2580433,6.09167276 13.9889885,7.09183886 C14.088359,7.12555074 14.1676296,7.15236541 14.2635443,7.18488084 C14.5536157,6.26635521 14.8508807,5.36303159 15.537658,4.65360409 C15.478205,4.56731856 15.422913,4.48694493 15.3497076,4.38067156 M7.57688038,18.7232125 C7.30225407,18.2675038 7.0329877,17.8204519 6.74954571,17.3501043 C6.62683134,17.5508976 6.51018215,17.7374742 6.39917501,17.9274291 C6.38288362,17.9554402 6.38443518,18.0011166 6.39268667,18.0350397 C6.49826334,18.4725903 6.74665416,18.8239962 7.04631702,19.1487282 C7.23730008,18.9955116 7.41008757,18.8569339 7.57688038,18.7232125 M16.4883418,19.7560348 C16.0515774,19.6422308 15.6275075,19.5317346 15.1779075,19.4146228 C14.972114,19.767577 14.6464978,20.0758402 14.2363215,20.3188613 C14.8168874,20.2878943 15.3863808,20.2352502 15.949668,20.1441789 C16.1849411,20.1061035 16.3872788,19.9623881 16.4883418,19.7560348 M6.59862113,13.2528085 C6.55792792,12.8177212 6.51758733,12.3869973 6.47745832,11.9573292 C6.06509571,12.0418552 5.84371616,12.2776976 5.78094846,12.699061 C5.7196618,13.1105711 5.72389333,13.5151841 5.8748179,13.9232457 C6.23795372,13.3990576 6.23795372,13.3990576 6.59862113,13.2528085 M12.5932183,20.4868577 C11.9610982,20.3570775 11.5275074,19.9841354 11.1609864,19.526245 C10.8626635,19.7229563 10.5769647,19.9113628 10.2911249,20.0998397 C10.3024795,20.1160974 10.3069931,20.1307364 10.3156677,20.1337627 C10.8687993,20.327518 11.4206613,20.525285 11.9764728,20.710806 C12.2147785,20.790335 12.4072426,20.6922257 12.5932183,20.4868577 M6.48042039,9.14587078 C6.78071798,8.69776315 7.19138798,8.57051663 7.64345645,8.52667007 C7.58971602,8.26535019 7.54683651,8.0228217 7.48554985,7.78507903 C7.47172685,7.73152007 7.39950874,7.66557428 7.3443578,7.65452466 C6.98270302,7.58210394 6.48838977,7.81963547 6.31595492,8.14113 C6.28781525,8.19356288 6.25572614,8.26246462 6.26743338,8.31440485 C6.32618112,8.57572473 6.39882239,8.83394789 6.48042039,9.14587078 M8.91841649,20.5467508 C8.99846293,20.6271949 9.05389598,20.7160141 9.13394242,20.7570454 C9.3692155,20.8773244 9.60730959,20.999222 9.85689935,21.0830443 C10.3011395,21.2322492 10.7598374,21.3022067 11.2242478,21.1773531 C11.3406149,21.1461749 11.4450631,21.0710093 11.5550829,21.0161131 C11.1074576,20.8156717 10.6687889,20.6833579 10.2467643,20.510646 C9.80428732,20.3294887 9.38282692,20.3987423 8.91841649,20.5467508 M11.0687391,8.37063824 C11.3501358,7.63939303 11.6896456,6.9348921 12.6665648,6.88013668 C12.3625294,6.73360612 12.0546856,6.61564972 11.750227,6.48938852 C11.6179211,6.43456272 11.5158707,6.46989334 11.4094478,6.55111153 C11.0713485,6.80898279 10.8489816,7.15736237 10.6414956,7.51714346 C10.6229474,7.54923661 10.6279547,7.61166342 10.6472081,7.64593834 C10.785015,7.89114126 10.9293101,8.13268443 11.0687391,8.37063824 M12.4709271,21.1116184 C12.9247587,21.345631 13.4319076,21.4144623 13.9593678,21.3495018 C14.3380898,21.3028401 14.7029182,21.2069829 14.9987727,20.9481967 C15.0803707,20.8769021 15.1381311,20.7782297 15.2296732,20.6634404 C15.1137998,20.6634404 15.0521605,20.6597807 14.9911559,20.6640738 C14.3535349,20.7091872 13.717959,20.7246004 13.0902115,20.5673721 C13.0548783,20.5585043 12.997541,20.5841225 12.968414,20.6123447 C12.8033843,20.7717548 12.6437851,20.9368656 12.4709271,21.1116184 M5.7409605,14.6691299 C5.66225404,14.7024899 5.60809045,14.7147359 5.56704461,14.7448585 C5.36435432,14.8935004 5.21900126,15.0759246 5.21893068,15.3446344 C5.21878968,16.0884072 5.50025696,16.7140124 6.01615101,17.2401712 C6.08223341,17.3075246 6.16785137,17.355805 6.25579667,17.4215397 C6.35622498,17.2633965 6.44134926,17.1293231 6.5304935,16.9888452 C5.95281911,16.3287539 5.69413157,15.5640783 5.7409605,14.6691299 M5.05065688,14.6692706 C5.2420631,14.5316079 5.41999894,14.4036576 5.58559282,14.2845751 C5.51936937,14.0317712 5.42415994,13.7798822 5.39348135,13.5203922 C5.36188592,13.2535827 5.39538554,12.9793834 5.39496238,12.7083511 C5.39489186,12.6659825 5.3762026,12.6145349 5.34841555,12.5827233 C5.19121421,12.4031143 5.02865293,12.2282207 4.8737084,12.0581833 C4.46451943,12.6194615 4.55923518,14.2474146 5.05065688,14.6692706 M6.41024752,11.5681997 C6.35742392,10.9974906 6.30692766,10.4521886 6.25720718,9.91483952 C5.62191345,10.2258475 5.14234004,11.1387427 5.26773438,11.8369799 C5.29594458,11.9937859 5.35941753,12.1379939 5.51866412,12.2293468 C5.72699645,11.8575307 6.04802854,11.6563151 6.41024752,11.5681997 M14.3145343,9.34786055 C14.4874628,9.12764243 14.6731564,8.8915185 14.8584975,8.65511304 C15.0185198,8.45101187 14.9316324,8.24740336 14.8525028,8.04632853 C14.8421355,8.02007689 14.8017244,7.99769614 14.7708343,7.98868754 C14.59445,7.93723997 14.4149626,7.89641974 14.2400593,7.84060862 C14.0028115,7.76480967 13.7688079,7.67873528 13.5249307,7.59413887 C13.4934764,7.93808453 13.463503,8.25563779 13.4371265,8.57354295 C13.4350107,8.59852775 13.4511611,8.63399913 13.4707671,8.6503976 C13.7381293,8.87392357 14.0075367,9.09491587 14.3145343,9.34786055 M19.8485294,14.5437836 C19.5837061,14.6361922 19.3449068,14.7136802 19.1117495,14.8055961 C19.0622405,14.8250209 19.0099106,14.8919521 18.9986265,14.9452999 C18.879509,15.5084783 18.6134163,15.996632 18.2535951,16.4393908 C18.2242565,16.4754956 18.1998547,16.515612 18.1822233,16.540808 C18.4803346,16.540808 18.774426,16.5360925 19.0683057,16.5427786 C19.2194419,16.5462272 19.330308,16.4900642 19.4165607,16.3712632 C19.8192613,15.8168822 19.9393662,15.1997225 19.8485294,14.5437836 M16.6473063,9.93320863 C16.7067593,9.74719505 16.7761564,9.57525741 16.8162854,9.39670408 C17.0445764,8.38330659 16.3045524,7.45499818 15.2644422,7.44724934 C15.1888389,7.44669337 15.1129535,7.4799126 15.0371385,7.49743714 C15.0597067,7.56908369 15.0786781,7.64213783 15.1055483,7.71216565 C15.1693033,7.87826177 15.2571076,8.03823486 15.2963198,8.20953908 C15.3261521,8.34030459 15.386945,8.40899519 15.4983048,8.46881794 C15.8131307,8.63794039 16.0882506,8.86111446 16.2711233,9.17015178 C16.4107638,9.40627572 16.5157762,9.66280977 16.6473063,9.93320863 M8.49744976,9.7588077 C8.13974441,9.5919374 7.90433029,9.34314511 7.77533914,8.99504705 C7.76229192,8.95999796 7.70728203,8.92262633 7.66799933,8.91784051 C7.23433801,8.86491497 6.77479384,9.17965304 6.72789438,9.60488727 C6.68416857,10.0018288 6.69735684,10.4053861 6.69480344,10.8059874 C6.69418319,10.9031114 6.7301512,11.000517 6.75307198,11.1171362 C7.31184554,10.4505699 7.31784021,10.4459248 8.49744976,9.7588077 M7.52807673,15.2303377 C7.27312704,14.7174104 7.02466569,14.2228521 6.78191692,13.7254787 C6.71921974,13.5969653 6.61336096,13.6247653 6.55623531,13.6856438 C6.43316831,13.8168316 6.30735081,13.9604062 6.23661373,14.1224203 C6.08992069,14.4582019 6.09499852,14.8230503 6.12715815,15.1808608 C6.16129249,15.5613335 6.27237016,15.9214665 6.49346761,16.2875114 C6.65172684,15.7012484 7.06345472,15.4164921 7.52807673,15.2303377 M10.8723961,9.16283229 C10.7407249,8.79080513 10.6129327,8.41293645 10.4719523,8.04006473 C10.4146855,7.88832607 10.309532,7.87396861 10.16164,7.95574983 C9.44926194,8.34973547 9.30179312,8.96534682 9.40595928,9.63423561 C9.44101046,9.85938031 9.61852315,9.97332506 9.82600918,10.0319514 C9.86176561,10.042086 9.91952599,10.0196349 9.95083932,9.99303138 C10.2270172,9.75873732 10.4998098,9.52057237 10.7724614,9.28219628 C10.8014474,9.25678921 10.8228166,9.22272543 10.8723961,9.16283229 M12.0197755,9.44998152 C12.3152773,9.21019784 12.6145875,8.973722 12.9050116,8.72690035 C12.9744087,8.66799253 13.0517751,8.57868067 13.061155,8.49612527 C13.0971936,8.17800897 13.1118629,7.85707748 13.121948,7.53684978 C13.1234996,7.48666905 13.0717338,7.41037744 13.0244112,7.38708175 C12.6377904,7.19670463 12.1953134,7.28101953 11.9095441,7.61145228 C11.5513451,8.02570727 11.3892069,8.52990753 11.293927,9.05782576 C11.286945,9.09632346 11.3334213,9.1697295 11.372845,9.18711329 C11.5908393,9.28367426 11.8143347,9.36798915 12.0197755,9.44998152 M7.73175438,15.5431755 C7.56707733,15.6301649 7.42503897,15.690621 7.29851622,15.7745137 C6.84390883,16.07595 6.74214053,16.4962576 7.00132175,16.9776548 C7.16233148,17.2766279 7.32341172,17.5757416 7.49330766,17.8697177 C7.60205798,18.0578427 7.72695865,18.2366775 7.85947607,18.4427493 C8.1723272,17.9907004 8.54660604,17.6740621 9.04247084,17.4732688 C8.30294043,17.024387 7.89657248,16.3871691 7.73175438,15.5431755 M9.73157553,6.43730753 C9.71824621,6.42034602 9.70491689,6.40345489 9.69158757,6.38649338 C9.38705845,6.58228974 9.06207693,6.75289016 8.78230227,6.97909056 C8.24708423,7.41192579 7.99107665,7.98150881 8.08290086,8.67904214 C8.14228333,9.12961307 8.56416689,9.49368732 8.9947956,9.46771721 C8.95156347,8.68622087 9.23839069,8.0630789 9.92192386,7.65255403 C9.60314859,7.19135577 9.59348659,7.1256915 9.73157553,6.43730753 M11.5764521,19.4127225 C12.1025724,20.0637349 12.6372968,20.2232153 13.5162561,20.102303 C14.0806717,20.0246741 14.5255466,19.740692 14.8429113,19.2316355 C14.1357521,19.1150163 13.513294,18.8831152 13.0189808,18.3631499 C12.6719248,18.898458 12.2463739,19.3098274 11.5764521,19.4127225 M15.787812,19.2122107 C16.1942505,19.3381904 16.6303802,19.3572633 17.0679909,19.3045489 C17.2217365,19.286039 17.3859199,19.237477 17.5156163,19.1556254 C18.0689594,18.8067532 18.4789946,18.3235965 18.7300654,17.7218499 C18.8153308,17.5173969 18.8343726,17.2838066 18.8700586,17.0613363 C18.8854331,16.9654792 18.8259801,16.9215622 18.7202624,16.9288113 C18.4796999,16.945069 18.2383616,16.9573151 17.9973055,16.95823 C17.8594281,16.9587931 17.7965899,17.0051733 17.753922,17.144314 C17.5690746,17.7478904 17.2575635,18.2820021 16.7444904,18.6606449 C16.4520212,18.8765699 16.1120883,19.0283085 15.787812,19.2122107 M14.77295,11.4432757 C15.227769,11.397177 15.7705332,11.1635164 16.0549626,10.8699626 C16.1456584,10.7763576 16.2450994,10.6534042 16.2622371,10.5328438 C16.3612549,9.83545121 15.894235,9.04149766 15.2717769,8.78123349 C15.0248671,9.0666936 14.7800731,9.34384891 14.5443063,9.62853485 C14.5102425,9.6696366 14.5013563,9.74993985 14.5120762,9.80610286 C14.5468453,9.98747138 14.609754,10.1640541 14.6368358,10.3461264 C14.6909994,10.7105526 14.7285895,11.077442 14.77295,11.4432757 M9.75104057,17.7635851 C9.62790304,17.7717491 9.50377816,17.7691451 9.38367322,17.7899071 C8.85296882,17.8814007 8.49469927,18.2188011 8.18720808,18.6310854 C8.10991213,18.7348251 8.10814899,18.8233628 8.16160732,18.9352666 C8.43700941,19.5121691 8.92575114,19.8043856 9.51922324,19.9583764 C9.55871752,19.9685815 9.60794432,19.9671739 9.64602809,19.9531683 C10.0960513,19.7876353 10.5019961,19.5467959 10.8769097,19.2372659 C10.4088319,18.8132281 9.94286993,18.4022106 9.75104057,17.7635851 M19.0738067,14.4126662 C19.5782051,14.3214541 19.8748354,14.0341641 19.9595365,13.5562155 C20.0512902,13.0386431 19.9739942,12.5353577 19.811574,12.0426998 C19.7162941,11.7537207 19.5932271,11.4786064 19.3601403,11.2672561 C19.2884864,11.2022956 19.2255776,11.171047 19.1334008,11.2350222 C18.8596913,11.4250474 18.5732167,11.5979704 18.3090987,11.8001713 C18.1423764,11.9278401 18.0066148,12.0959772 17.8495545,12.2533462 C18.7020668,12.7455116 19.0119559,13.504416 19.0738067,14.4126662 M13.5513778,18.3250744 C14.2579728,18.7847244 15.0054726,19.0335166 15.8440208,18.738696 C16.6908205,18.4409898 17.156853,17.8010975 17.4171627,16.9592857 C16.8596586,16.8632174 16.4225415,16.6020383 16.1170956,16.1138142 C15.6856911,17.3709367 15.0396775,18.3305641 13.5513778,18.3250744 M12.0984819,16.1717368 C11.9736518,16.1780709 11.8689919,16.1756076 11.7666594,16.1898243 C11.043632,16.2901154 10.5973466,16.7454722 10.2484569,17.3449666 C10.0976029,17.6043862 10.1155869,17.8401582 10.2913364,18.0448928 C10.5754132,18.3760294 10.8883348,18.6828849 11.1963902,18.9926964 C11.2365897,19.0330944 11.3205151,19.0450589 11.3841291,19.0451294 C11.8941695,19.0453404 12.5444147,18.5901244 12.7136053,18.1111201 C12.7286978,18.0683293 12.7005581,17.9940787 12.6683985,17.9533992 C12.2615369,17.4395569 12.0384647,16.8670179 12.0984819,16.1717368 M14.3963438,11.5330803 C14.3549454,11.1676688 14.3029681,10.81387 14.2770852,10.4582413 C14.233712,9.85980259 13.8939907,9.44611063 13.4571557,9.0857665 C13.329293,8.98026731 13.2110217,8.94409214 13.0675023,9.07401309 C12.8846297,9.23968694 12.6703732,9.37291573 12.499631,9.54907615 C12.3894701,9.66288015 12.2938376,9.82003805 12.260479,9.97276202 C12.181702,10.3330358 12.1227427,10.7006994 12.0958725,11.0682926 C12.0708359,11.410338 12.0995398,11.755832 12.2250752,12.0949919 C12.9480321,11.9079226 13.6582945,11.7240908 14.3963438,11.5330803 M17.6632967,11.8957469 C18.1193851,11.3984439 18.6584115,11.0439413 19.2424332,10.7519358 C19.4998513,10.6232817 19.5485844,10.5090554 19.4680443,10.2301406 C19.4442067,10.1475852 19.416208,10.0638334 19.3746685,9.98923088 C18.980572,9.28191476 18.3959861,8.80678132 17.6164677,8.57959561 C17.4930481,8.54363158 17.3581328,8.54729132 17.2069262,8.53011867 C17.3470603,9.32343879 17.0725045,9.97740709 16.7104971,10.6139212 C17.1742023,10.9340081 17.4697042,11.3658581 17.6632967,11.8957469 M17.7311422,12.6364934 C17.6521537,12.9296953 17.5888218,13.2114957 17.5000301,13.4849912 C17.2828821,14.1534577 16.9679152,14.760342 16.3776873,15.1872653 C16.3341731,15.2186547 16.3021545,15.3002951 16.3053987,15.3563174 C16.3474319,16.0887591 16.8485861,16.502451 17.5144173,16.5800798 C17.5731651,16.5869067 17.660123,16.5424267 17.6994057,16.4937943 C17.9008266,16.2445094 18.1182567,16.002192 18.279619,15.7278519 C18.6864807,15.0361601 18.831058,14.3055483 18.5040312,13.5329902 C18.3440794,13.1552623 18.1190325,12.8350346 17.7311422,12.6364934 M10.5350021,13.7163997 C10.8668245,13.6982417 10.8766981,13.6890924 11.0073819,13.4005356 C11.1996344,12.9765682 11.4133972,12.5672398 11.7919076,12.2700966 C11.8237851,12.2450414 11.8427564,12.170087 11.8311903,12.1284222 C11.6363988,11.4300444 11.689434,10.7332148 11.848328,10.0398339 C11.8823212,9.8913327 11.8492448,9.80518793 11.7203947,9.74233885 C11.6263137,9.69645127 11.5346305,9.64528522 11.4388569,9.60319815 C11.2297488,9.51114149 11.0466646,9.54224932 10.8504626,9.67392976 C10.3873216,9.98486734 10.0640327,10.4060195 9.83708168,10.9014223 C9.50864441,11.6183101 9.5487029,12.3641943 9.69024758,13.1177499 C9.73975649,13.38097 9.88983476,13.5368611 10.1229215,13.6227243 C10.2539579,13.6710048 10.3971952,13.6862772 10.5350021,13.7163997 M14.9123084,11.8236781 C14.934806,11.9509246 14.9604773,12.0586056 14.9719025,12.1678349 C15.0227513,12.6542291 14.9514501,13.1306294 14.81992,13.5961912 C14.7472787,13.8530771 14.8049686,14.0695651 14.9422112,14.2797893 C15.09236,14.5097198 15.299846,14.6755344 15.5521158,14.7754736 C16.1095493,14.9963955 16.0859938,15.0114568 16.4883418,14.5719355 C16.9888613,14.0252259 17.1643288,13.3297336 17.3354236,12.626218 C17.4674474,12.0831681 16.9574069,11.1668242 16.4950417,10.946958 C16.0957969,11.4534808 15.5294771,11.6712356 14.9123084,11.8236781 M10.7954527,14.0648497 C10.7206957,14.0685094 10.6599027,14.0727322 10.5991803,14.0742806 C10.302691,14.0820223 9.99463565,14.0614011 9.77452556,13.8587075 C9.54531768,13.6477091 9.35066729,13.7055612 9.13203823,13.8284442 C9.00304709,13.9010057 8.86911916,13.9690629 8.75261103,14.0589378 C8.33418322,14.3817695 8.04820231,14.7975025 8.09954488,15.3392855 C8.19172171,16.3133407 8.71819458,16.9794143 9.63925765,17.3318759 C9.77078771,17.3822678 9.82798389,17.3570719 9.89307893,17.2291919 C10.202968,16.6213927 10.6395914,16.1416846 11.3042942,15.9077424 C11.3171299,15.9033085 11.3239708,15.8821242 11.3329981,15.8695263 C10.8262019,15.3456901 10.7644215,15.1401109 10.7954527,14.0648497 M14.5436716,14.3615705 C14.4529053,14.4747411 14.3724357,14.5831963 14.2836441,14.6843319 C13.8095717,15.2247073 13.2371162,15.6461411 12.6325715,16.0262619 C12.5202244,16.0969231 12.473325,16.1762411 12.4686703,16.3079215 C12.4489231,16.8627248 12.6412462,17.337084 13.0021957,17.7483127 C13.0474731,17.799901 13.1179986,17.84234 13.1845747,17.8600757 C13.9532321,18.0648103 14.6906468,17.8172848 15.1700086,17.1868234 C15.5925269,16.6311051 15.7855552,15.9858639 15.891555,15.2908643 C15.3277036,15.1449671 14.8427703,14.892867 14.5436716,14.3615705 M9.05163916,9.94848102 C8.47008587,10.180171 7.88056319,10.4718246 7.39584141,10.9400608 C7.0852471,11.2401599 6.91591537,11.5996595 6.89243038,12.0386881 C6.86189284,12.6113678 6.94849815,13.1616668 7.17417976,13.684025 C7.33906838,14.0657646 7.541265,14.4314576 7.7268176,14.8042589 C7.74543633,14.799825 7.76405506,14.7953911 7.78274432,14.7910275 C8.04072661,14.0211439 8.61938836,13.5922499 9.35172517,13.3275518 C9.12237624,12.3044419 9.12583199,11.3185629 9.64997752,10.420377 C9.45046088,10.2630783 9.26942191,10.1202075 9.05163916,9.94848102 M14.6522809,12.5123436 C14.6420547,12.5088246 14.6318285,12.5053056 14.6215318,12.5017866 C14.6058751,12.3550449 14.5937447,12.2077402 14.5734334,12.0616319 C14.555802,11.9350892 14.5010742,11.892791 14.3576959,11.9316406 C13.6539219,12.1225104 12.9457048,12.2969113 12.2408024,12.4839806 C12.1426309,12.5100211 12.0319058,12.5528119 11.9653298,12.6237547 C11.3696008,13.2584389 11.0475109,13.9967221 11.1813683,14.8810432 C11.2578885,15.3872141 11.6400661,15.7381977 12.1427014,15.7956979 C12.2166121,15.8041435 12.3084363,15.7896453 12.3701461,15.7510772 C12.9430953,15.3923518 13.4925595,14.9993515 13.9463911,14.4950809 C14.1127608,14.310123 14.2794126,14.0939165 14.351278,13.8626488 C14.4876744,13.4236905 14.555802,12.9636183 14.6522809,12.5123436 M11.9244955,21.5220729 C11.4715807,21.8674965 10.9412995,21.9017011 10.4046709,21.8416672 C9.87283811,21.7821259 9.35525145,21.6393255 8.90029143,21.3478127 C8.71311675,21.2278153 8.5700205,21.0397607 8.40449715,20.8852069 C8.35858505,20.8422753 8.30900562,20.797936 8.25286732,20.7725993 C8.12916559,20.7168586 7.99015982,20.6896217 7.87499168,20.6213533 C7.04977277,20.1316513 6.36638066,19.4972486 5.9406182,18.6260181 C5.83772149,18.4153716 5.81790382,18.1649606 5.75302036,17.9348893 C5.73623529,17.8754185 5.70463987,17.8117952 5.66091405,17.7695674 C4.94832438,17.0816057 4.56875612,16.254996 4.59322847,15.2553225 C4.59470951,15.1928957 4.58476541,15.1126628 4.54717532,15.0695201 C4.14532101,14.608533 4.03692331,14.0464806 4.0073026,13.4671851 C3.97337983,12.8047713 4.04912422,12.1581929 4.41571578,11.5768564 C4.43990603,11.5385699 4.43073772,11.4718499 4.42149888,11.4211061 C4.22649586,10.3487305 4.51741356,9.40683875 5.24354413,8.61577078 C5.44581127,8.3954119 5.62586288,8.20067124 5.74603834,7.91436656 C5.962199,7.39904631 6.41299801,7.13498162 6.95844225,7.04574015 C7.08820917,7.02448547 7.15407999,6.9827503 7.20739727,6.85360353 C7.4154475,6.35017745 7.81694919,6.03818418 8.30463304,5.83000099 C8.81410927,5.61252768 9.34065267,5.54939707 9.88376956,5.69290131 C9.92474488,5.70373978 9.97122119,5.7144375 10.0109976,5.70599193 C10.8522258,5.52638291 11.6323083,5.77053013 12.3961701,6.06992543 C12.7615627,6.21314814 13.1017072,6.42062754 13.470485,6.60776719 C13.5185834,6.47200473 13.5738754,6.30590861 13.6358673,6.14241653 C14.04019,5.07489705 14.6259749,4.12533396 15.4700241,3.34510447 C15.8509323,2.99306514 16.2565245,2.9092429 16.6408885,3.09877547 C17.0109358,3.28112931 17.2338669,3.66990684 17.1866853,4.05037957 C17.1320986,4.48997126 16.8578249,4.81582933 16.4219068,4.8957103 C16.1692139,4.94202015 15.992336,5.07313756 15.8390135,5.25528025 C15.4581053,5.70782181 15.2422972,6.2445375 15.039748,6.82010279 C15.4635357,6.79392153 15.8423987,6.88794883 16.2007388,7.06439077 C16.5719851,7.24716689 16.8957676,7.48934348 17.1509289,7.82026889 C17.1892948,7.87002734 17.2684949,7.90739897 17.3330258,7.91521112 C18.6154615,8.07060953 19.4925166,8.77173223 20.02174,9.92208863 C20.1671636,10.2382343 20.1835255,10.5784498 20.010738,10.9083899 C19.987112,10.9535033 20.0180022,11.0448562 20.0505144,11.0986263 C20.5616833,11.9441682 20.7576736,12.8541778 20.5326973,13.8181688 C20.4622423,14.1200274 20.4621012,14.3919746 20.4881957,14.6928478 C20.5554065,15.4694176 20.3700655,16.1920765 19.8658081,16.8062802 C19.6356834,17.0864619 19.5442824,17.2610739 19.4316531,17.6158581 C19.1116084,18.6239067 18.4946513,19.3989985 17.5245025,19.8421092 C17.2460678,19.9693557 17.0036717,20.0842857 16.8124065,20.3357525 C16.6214234,20.5868673 16.3237353,20.7096799 16.015962,20.7794966 C15.885913,20.8089857 15.811438,20.8671897 15.7484588,20.9930286 C15.5102236,21.4689362 15.0817812,21.7132946 14.5919111,21.8529279 C13.6613976,22.1180483 12.7681921,22.034578 11.9244955,21.5220729" id="anona" fill="#000000"></path>
    </g>
</svg>