<?xml version="1.0" encoding="UTF-8"?>
<svg width="24px" height="24px" viewBox="0 0 24 24" version="1.1" xmlns="http://www.w3.org/2000/svg" xmlns:xlink="http://www.w3.org/1999/xlink">
    <!-- Generator: Sketch 57.1 (83088) - https://sketch.com -->
    <title>crops-cucumber </title>
    <desc>Created with Sketch.</desc>
    <g id="crops-cucumber-" stroke="none" stroke-width="1" fill="none" fill-rule="evenodd">
        <path d="M21.7792814,14.3753251 C21.2457224,13.4496545 19.8453966,13.0123063 18.6091307,12.6258703 L18.2479286,12.5118808 C18.0994872,12.4641827 17.9543477,12.4164846 17.8157908,12.3687865 C17.1007968,12.121407 16.4451693,11.7964175 15.7508016,11.4528222 C15.4382411,11.2984113 15.1248784,11.1431892 14.8057099,10.995254 C14.1542203,10.6937131 13.2083053,10.0073505 12.2070562,9.28137564 C10.1033057,7.75504453 7.48497573,5.85370163 5.57752292,6.00892175 C5.16436463,6.04206848 4.79820125,6.16575822 4.48317069,6.37919415 C4.28607287,6.5198629 4.10051898,6.67669937 3.91661393,6.85698235 C3.52902205,7.2353262 3.26263312,7.63954007 3.12245065,8.05993823 C2.92947596,8.6412065 2.96493748,9.27098624 3.22636091,9.93147886 C4.12278984,12.1894141 7.56420627,14.3858822 9.5392169,15.4968443 C11.3032149,16.4491921 15.1066146,18.2941176 18.0861255,18.2941176 C18.8910136,18.2941176 19.6356908,18.1599164 20.2640207,17.8365495 L20.2648454,17.8357411 C20.7307832,17.5964537 21.1175728,17.2577014 21.4128005,16.8284246 C21.4144498,16.8259993 21.4144498,16.8235739 21.4160992,16.8219571 C21.4177487,16.8195318 21.4210472,16.8171064 21.4226967,16.814681 C21.4721785,16.7435385 21.5208328,16.6723959 21.5653661,16.595593 C21.6948407,16.3700478 21.793796,16.157417 21.8672018,15.9439997 L21.8672018,15.9431913 C22.0700737,15.354638 22.0403841,14.8275519 21.7789607,14.3756337 L21.7792814,14.3753251 Z M14.5888071,11.4478738 C14.9038377,11.5933916 15.2130836,11.7469933 15.5223506,11.899792 C16.20023,12.2352951 16.9012057,12.5821189 17.6483107,12.8408191 C17.7909802,12.8893264 17.9385983,12.9378317 18.0911734,12.9871461 L18.091998,12.9871461 L18.4565147,13.1019449 C19.2110933,13.3380036 20.0333142,13.5950895 20.6303986,13.9588841 C20.5050472,13.9216954 20.3796958,13.8845067 20.2543549,13.8481273 C18.755078,13.4059155 17.2055972,12.9491338 15.7400147,12.326639 C13.4177147,11.2789033 11.3056884,9.85594876 9.26375327,8.48007768 C9.0006789,8.30302948 8.73842789,8.12598956 8.47535352,7.94974229 C8.47370426,7.94893391 8.47287942,7.94812552 8.47123017,7.94731693 C8.28485292,7.82685991 8.09434198,7.7080296 7.90220332,7.5875581 C7.79004678,7.51722476 7.67789025,7.44608221 7.5648998,7.37494794 C7.53356141,7.35473704 7.50139967,7.33452655 7.47006128,7.31431482 C7.37027416,7.25044899 7.27048915,7.18658109 7.1706957,7.1210989 C7.1476057,7.10654691 7.12533907,7.09118695 7.10224696,7.07663558 C6.98596728,6.99983474 6.87050253,6.92222468 6.75670982,6.84299826 C6.73196888,6.82602091 6.70805342,6.80823517 6.68331248,6.79125823 C6.59094827,6.72658318 6.5002329,6.66029177 6.41033666,6.59400037 C6.39219359,6.58106536 6.37487514,6.56732114 6.35673164,6.55438613 C8.011856,6.85917634 10.144403,8.4065139 11.9051287,9.68383055 C12.9697977,10.4567025 13.8909486,11.1252666 14.5886519,11.4478347 L14.5888071,11.4478738 Z M4.77920061,6.78651035 C4.99114216,6.64260889 5.2311202,6.55448733 5.51152737,6.51810373 C5.59399436,6.59086265 5.68223543,6.65796327 5.76799375,6.72748532 C5.83891679,6.78488365 5.90736553,6.84470962 5.97993529,6.90049159 C6.08796869,6.98295279 6.19848484,7.06136999 6.30980746,7.14060675 C6.37907956,7.18992122 6.4475283,7.24166125 6.51845134,7.29016857 C6.64050299,7.37424614 6.76503738,7.45509098 6.88955489,7.53593375 C6.95140618,7.57635514 7.012432,7.61839496 7.0742833,7.65800713 C7.25818624,7.77603857 7.44291676,7.89245159 7.62599845,8.00725238 C7.81567548,8.12609304 8.00453336,8.24492542 8.18594722,8.3613405 C8.44902159,8.53757949 8.7112726,8.71381433 8.97352361,8.89086874 C11.0335726,10.2789505 13.1629529,11.71484 15.5306433,12.7819265 C17.0282735,13.4173563 18.5927015,13.8789809 20.1059967,14.3252284 C20.5307031,14.4505365 20.9562329,14.5766436 21.3809605,14.7059936 C21.5046631,14.9663081 21.5244554,15.2597776 21.441163,15.5952807 C21.3875579,15.5904302 21.333955,15.5855795 21.2811755,15.5799205 C21.2011807,15.5718361 21.1220114,15.5621348 21.0428442,15.5524342 C20.9562519,15.5411161 20.8688363,15.5273734 20.7822399,15.5136291 C20.7030706,15.5015025 20.6247267,15.4885683 20.5455553,15.4748241 C20.458963,15.4594637 20.3723729,15.4416774 20.2865977,15.4238933 C20.2090772,15.4077245 20.1307334,15.392365 20.0532066,15.3745788 C19.9674398,15.3551763 19.8808476,15.3333482 19.7950724,15.3123294 C19.7183773,15.2929268 19.6408569,15.2735243 19.5641513,15.2533126 C19.4783845,15.2298681 19.3934432,15.2048073 19.3076849,15.1797445 C19.2309899,15.1571072 19.1542949,15.1352812 19.0776083,15.1118367 C18.992667,15.0851575 18.9085491,15.056864 18.823612,15.0293755 C18.7477404,15.0043147 18.6710454,14.9792518 18.5951821,14.9525747 C18.5110642,14.9226627 18.4261229,14.8919415 18.3420092,14.8612204 C18.266963,14.833734 18.1919169,14.8062476 18.1168728,14.777952 C18.0319315,14.7456145 17.9478136,14.7116606 17.8636999,14.6777047 C17.7894791,14.6477927 17.7152584,14.6186879 17.6418569,14.5879688 C17.5569156,14.5523965 17.4719722,14.5160171 17.3862139,14.4788305 C17.3144675,14.4481093 17.2418956,14.4173881 17.1701555,14.3858598 C17.0835633,14.347864 16.9969731,14.3074406 16.9111979,14.2686355 C16.8411004,14.2371072 16.7710028,14.2055768 16.7017286,14.1724322 C16.6134875,14.1312016 16.5260719,14.0891638 16.4378309,14.047124 C16.3702076,14.0147865 16.3025843,13.9832582 16.2357844,13.9501114 C16.1458945,13.9064553 16.0560046,13.8611827 15.9669465,13.8167194 C15.9017976,13.7843819 15.837472,13.7528536 15.7723209,13.7197068 C15.6807822,13.6736251 15.5900668,13.6267362 15.4985217,13.5798473 C15.4358449,13.5475098 15.3723448,13.5159815 15.3096702,13.4828347 C15.2123573,13.4327111 15.1150445,13.3817802 15.0185593,13.3308473 C14.9633054,13.3017446 14.9080516,13.273449 14.8527977,13.243535 C14.7455898,13.1869438 14.6392095,13.1303526 14.5320037,13.0729543 C14.4858216,13.0487006 14.4404649,13.024447 14.3942828,13.0001954 C14.2433671,12.9193526 14.0932705,12.839317 13.9423632,12.7584659 C13.6628005,12.6089041 13.3857079,12.4601536 13.1094387,12.3146399 C12.9230614,12.2176273 12.7375117,12.121424 12.5503132,12.0236125 C12.4793902,11.9864239 12.4084672,11.9492352 12.3375483,11.9128557 C12.2196198,11.8514134 12.1016871,11.7899731 11.9829331,11.7277237 C11.9029383,11.6856859 11.823769,11.6436461 11.7437784,11.6016063 C11.6349217,11.544208 11.5260734,11.4876168 11.4171997,11.4302185 C11.3322584,11.3849459 11.247315,11.3396734 11.1615567,11.2944009 C11.0576464,11.2386189 10.9537362,11.1836441 10.8498196,11.1278621 C10.7657017,11.0825896 10.6807604,11.0365078 10.5966467,10.9912353 C10.4927364,10.9346441 10.3880028,10.878055 10.2840862,10.8214638 C10.1991449,10.7753821 10.115027,10.7284932 10.0309133,10.6816043 C9.92700301,10.6242059 9.82391822,10.5676148 9.71999951,10.5094072 C9.63505822,10.4617091 9.55011482,10.4132039 9.46517986,10.3655058 C9.36291844,10.3081074 9.26148459,10.250707 9.15922739,10.1916923 C9.07346063,10.1423779 8.98769386,10.0922542 8.90191654,10.0421305 C8.80212942,9.98392298 8.70151894,9.92571544 8.6017276,9.86669868 C8.51596083,9.81576786 8.43019407,9.76402782 8.34441675,9.71309493 C8.2454551,9.65407817 8.14649345,9.59506348 8.04836572,9.53443037 C7.96259896,9.48188112 7.87765766,9.42933393 7.79189935,9.37597754 C7.69458653,9.31534442 7.59727371,9.25471131 7.49996512,9.19407819 C7.41502383,9.13991258 7.33008043,9.08574697 7.24596883,9.03158136 C7.15030696,8.96933189 7.0538175,8.90788956 6.95815141,8.84483294 C6.87403348,8.78905097 6.78991555,8.733269 6.70580184,8.67667782 C6.61096333,8.61361913 6.51695029,8.5497533 6.42294569,8.48507825 C6.33965324,8.42767992 6.25718414,8.36947238 6.17388957,8.31207198 C6.08069989,8.24658772 5.98751233,8.18110553 5.89515023,8.11562127 C5.81268324,8.05660451 5.73021415,7.99597347 5.64856419,7.9361475 C5.55784882,7.86904688 5.46713344,7.80275547 5.37641174,7.73484564 C5.29476811,7.67340331 5.21394996,7.61115383 5.13314025,7.54809721 C5.04407371,7.47938024 4.95583475,7.41066326 4.8675958,7.34032992 C4.78677764,7.27646409 4.70678285,7.21178904 4.62761775,7.14711399 C4.57731251,7.10588339 4.52783063,7.06465279 4.47752539,7.02342219 C4.57813587,6.93772827 4.67627416,6.86011821 4.77936106,6.7865563 L4.77920061,6.78651035 Z M21.2620777,16.0835742 C21.2208084,16.1716937 21.1738008,16.2606224 21.1218467,16.3511737 C21.102879,16.3843204 21.082262,16.4166579 21.0599954,16.4506118 C21.0138133,16.454654 20.9676312,16.4578877 20.9222746,16.4611215 C20.8595978,16.4651636 20.7969231,16.4700143 20.7350719,16.4724397 C20.6748694,16.4748649 20.6138436,16.4756733 20.5536432,16.4772902 C20.4868433,16.4789072 20.4200455,16.4797156 20.3532456,16.4797156 C20.2963429,16.4789072 20.2402636,16.4772902 20.1833609,16.4756733 C20.1132634,16.4740565 20.0431658,16.4724397 19.9730682,16.4683974 C19.9194632,16.4659722 19.8658603,16.4611215 19.8122553,16.4578877 C19.7396834,16.4530372 19.6671115,16.4481865 19.5945502,16.4409106 C19.5425961,16.4360598 19.4914654,16.4295923 19.4395092,16.4239332 C19.3661119,16.4158489 19.2927166,16.4077647 19.2184896,16.3980632 C19.1673589,16.3915957 19.1162282,16.382703 19.0659229,16.375428 C18.9917022,16.3641097 18.9183049,16.3535999 18.8440799,16.3406649 C18.7937747,16.3325804 18.7442928,16.3220707 18.6939876,16.3131785 C18.6197669,16.2994351 18.5455461,16.2856921 18.4713212,16.2703315 C18.421016,16.2598219 18.3715341,16.2485034 18.3212289,16.237994 C18.2478315,16.2218253 18.1736108,16.2064657 18.1002092,16.1886795 C18.0490785,16.1765529 17.9979478,16.1636187 17.9468192,16.1506837 C17.8750728,16.132898 17.8033243,16.1151114 17.7315842,16.095711 C17.6788047,16.0819676 17.6268506,16.0666082 17.574071,16.0520548 C17.5047989,16.0326523 17.4346993,16.014059 17.3654272,15.993038 C17.3109988,15.9768693 17.2565704,15.9598913 17.2013165,15.9429144 C17.1345166,15.9227035 17.0668934,15.902493 17.0000956,15.881472 C16.9431929,15.8636863 16.8871136,15.8442834 16.8302109,15.8256901 C16.7658853,15.8046712 16.7023852,15.7844595 16.6380596,15.7626314 C16.5770337,15.7416125 16.5160079,15.7205936 16.45498,15.6987656 C16.3964285,15.6785546 16.3370515,15.6583442 16.2784978,15.6373232 C16.2092236,15.6122624 16.1399515,15.5871995 16.0706773,15.5613295 C16.0211976,15.5427354 15.9708902,15.5249501 15.9214104,15.5063568 L15.6913338,15.4190444 C15.6492749,15.4028757 15.6072159,15.3875161 15.5651569,15.3713463 C15.4472284,15.3260738 15.3301191,15.279992 15.2138352,15.2339124 C12.0544515,13.9678957 9.01709418,12.280591 6.17290998,10.2143009 C5.90654217,10.021085 5.64182107,9.82544345 5.37957006,9.6257476 C5.21793165,9.49963023 5.06453951,9.3759467 4.91610231,9.25224662 C4.90373205,9.24173698 4.89136137,9.23203551 4.87899196,9.22152546 C4.73879681,9.10430116 4.60519278,8.98869529 4.475714,8.87308735 C4.45757092,8.85691838 4.439427,8.84074982 4.42128562,8.82538924 C4.29675967,8.7138253 4.17801413,8.6022655 4.06337696,8.49150043 C4.04440947,8.4729063 4.02461777,8.45431176 4.00647427,8.43571846 C3.89514321,8.3265801 3.78792473,8.21743759 3.68485683,8.1083075 C3.67578529,8.09860625 3.66671375,8.08890499 3.65764158,8.07920477 C3.75742871,7.83991744 3.91081451,7.60545229 4.11534581,7.37667854 C4.17389733,7.42518586 4.23409979,7.47207475 4.29265131,7.51977286 C4.37182063,7.5844479 4.45016447,7.64831374 4.53098263,7.71218164 C4.62334683,7.78494055 4.71653651,7.85689231 4.80889861,7.92884822 C4.89054223,7.99190691 4.97136038,8.05415638 5.05299345,8.11559664 C5.14700649,8.18592998 5.24102164,8.25545617 5.3358496,8.32497822 C5.41914206,8.38642055 5.50243451,8.44786081 5.58655244,8.50768471 C5.68139096,8.57559455 5.7778783,8.6426931 5.87354651,8.70979372 C5.9584878,8.76961762 6.0434312,8.82863438 6.12918952,8.88765113 C6.22567686,8.95313539 6.32216421,9.01861758 6.41947702,9.08329263 C6.50689262,9.14150017 6.59348485,9.20051693 6.68172803,9.25791526 C6.77738991,9.32097395 6.87387936,9.38241421 6.97036882,9.44466368 C7.06025872,9.50287122 7.15014862,9.56107876 7.24085344,9.61847709 C7.33651531,9.67911021 7.43217929,9.73812489 7.52867086,9.79795087 C7.62020959,9.85454205 7.71175044,9.91194038 7.80411676,9.96772235 C7.89978074,10.0259299 7.99626808,10.0833282 8.09275754,10.1415358 C8.18594722,10.1973177 8.27913479,10.2530997 8.37232024,10.3088817 C8.46715875,10.3646636 8.56282062,10.4196385 8.65766758,10.4754204 C8.75250609,10.5303932 8.8473446,10.5861772 8.94219156,10.6403428 C9.03538124,10.6936992 9.12939428,10.7462485 9.22257762,10.7996049 C9.31989044,10.8545776 9.41637778,10.9095525 9.51368849,10.9637181 C9.60440386,11.0146489 9.69511924,11.0639654 9.78584094,11.114087 C9.88562806,11.1690619 9.98541307,11.2248438 10.0852065,11.2798166 C10.1701478,11.3267055 10.2559146,11.371978 10.3408495,11.418869 C10.4447598,11.4754602 10.5494934,11.5328585 10.65341,11.5886404 C10.7317539,11.6306782 10.8100998,11.672718 10.8892713,11.7147578 C10.999779,11.7737746 11.1102909,11.8327893 11.2199668,11.8909968 C11.2867667,11.9265691 11.3535645,11.9613301 11.4203644,11.9969025 C11.5399438,12.0599611 11.6595191,12.1230178 11.7774497,12.1852693 C11.8327035,12.214372 11.8863064,12.2418605 11.9407369,12.2709632 C12.2532974,12.4342672 12.5633667,12.5959528 12.8684958,12.7544014 C13.142295,12.8991121 13.4185642,13.0470638 13.6973036,13.1966132 C13.8482193,13.277458 13.9999626,13.35911 14.1516932,13.4399569 C14.2003497,13.465827 14.2498294,13.4925062 14.2993113,13.5183762 C14.4048704,13.5741582 14.5104295,13.6307494 14.6159886,13.6865313 C14.6737167,13.7164433 14.7314428,13.7463552 14.7883476,13.7770764 C14.8856604,13.8280072 14.9829732,13.8789401 15.0802818,13.9298709 C15.1462562,13.9638248 15.2122307,13.9969716 15.2782051,14.0309254 C15.3672716,14.0770072 15.4563361,14.1222797 15.5453963,14.1675523 C15.6163193,14.2031246 15.6872424,14.2378856 15.7581612,14.2734579 C15.843928,14.3163049 15.9296947,14.3591518 16.0162954,14.4011916 C16.0880418,14.4359547 16.1597903,14.4699086 16.2315304,14.5046717 C16.3172971,14.5459023 16.4030639,14.5871329 16.4896646,14.6275543 C16.5630619,14.6615082 16.6364572,14.6946549 16.7098609,14.7286088 C16.7948021,14.7674138 16.8805689,14.8062189 16.9655039,14.8442147 C17.04055,14.8773614 17.1155962,14.9096989 17.1906403,14.9420365 C17.2755816,14.9784159 17.3596995,15.0147954 17.4446366,15.0495585 C17.5213316,15.0810868 17.5980266,15.1118079 17.6747132,15.1425291 C17.7588311,15.176483 17.8437724,15.2096297 17.9278861,15.2427765 C18.0054066,15.2726884 18.082925,15.300984 18.1604539,15.3300888 C18.2453952,15.3616171 18.3303386,15.3923383 18.4160969,15.4222502 C18.4944408,15.4497366 18.5719613,15.4756066 18.6511348,15.5022859 C18.7369016,15.5305815 18.8226683,15.558877 18.9084456,15.5855542 C18.9867895,15.6098079 19.0659588,15.6340615 19.1451302,15.657506 C19.230897,15.6825668 19.3174892,15.7076297 19.4040878,15.7310741 C19.4840826,15.7529022 19.5640753,15.7739211 19.6440658,15.7941328 C19.7306581,15.8159609 19.8180737,15.8369797 19.9046701,15.8571915 C19.9854883,15.8757856 20.0654831,15.8935709 20.1462949,15.9105479 C20.234536,15.929142 20.322777,15.9461202 20.4118394,15.9622879 C20.4926575,15.9768397 20.5734778,15.9913906 20.6542875,16.0043257 C20.743354,16.0188774 20.8332439,16.031812 20.9231254,16.0439399 C21.004769,16.0552579 21.0864126,16.065768 21.1680647,16.0754682 C21.1994031,16.0746596 21.2307415,16.0803187 21.2620777,16.0835525 L21.2620777,16.0835742 Z M9.78903516,15.0617085 C8.46295961,14.3163208 6.45400118,13.0689099 5.06611023,11.6694247 C5.12383838,11.7155064 5.18156654,11.7607789 5.23929259,11.8060515 C5.25908492,11.8214118 5.27887725,11.8375798 5.29866958,11.8529404 C5.4520596,11.971781 5.60379869,12.0873848 5.75388261,12.198957 C5.77779808,12.2167428 5.80171354,12.2345293 5.82562901,12.2523134 C5.97407043,12.3614518 6.12003332,12.4665586 6.26270699,12.5675965 C6.28497363,12.5829569 6.30724026,12.5983177 6.3295069,12.6144854 C6.47382518,12.7155399 6.61485424,12.8133617 6.75091991,12.9055128 C6.76576426,12.9152142 6.77895851,12.9249153 6.79380223,12.9346176 C6.93399738,13.0300138 7.07089485,13.121366 7.19955027,13.2054456 L7.20037511,13.2054456 C7.31995456,13.2838649 7.44199988,13.3638985 7.56489177,13.4439258 C7.6028276,13.4689866 7.64158679,13.4932403 7.67952261,13.5183032 C7.77353565,13.5789363 7.86754869,13.6395694 7.96322323,13.7010096 C8.00033359,13.7244541 8.03662058,13.7478985 8.0745543,13.7721522 C8.20402886,13.8546134 8.33515858,13.9378817 8.46793081,14.021146 C8.4811257,14.0292302 8.49514606,14.0373145 8.50834094,14.0462068 C8.6279204,14.1213912 8.74914235,14.1957686 8.87121088,14.2709448 C8.91162101,14.2960056 8.95285451,14.3202592 8.99326253,14.3453221 C9.09717279,14.409188 9.20190641,14.4722466 9.30746972,14.5353053 C9.34458008,14.5579426 9.38169043,14.5797687 9.41880079,14.602406 C9.55817257,14.6856743 9.69918685,14.7689447 9.84103716,14.8513997 C9.86165412,14.8635263 9.88309612,14.8756534 9.90371393,14.8877792 C10.0257656,14.9589217 10.1486532,15.0292551 10.2723474,15.0995822 C10.3152297,15.1238358 10.3581142,15.1480895 10.4009986,15.1723411 C10.5131551,15.2353998 10.626135,15.2976493 10.7391255,15.3598987 C10.7754125,15.3801096 10.8116974,15.4003201 10.8488077,15.4197226 C10.9964258,15.4997583 11.1440354,15.5797939 11.293317,15.6582028 C11.3188813,15.6719462 11.3452711,15.684882 11.3708375,15.6986242 C11.4953635,15.7641085 11.620717,15.8287835 11.7468812,15.8926493 C11.7897636,15.9144774 11.8334735,15.9363055 11.8763558,15.9581336 C11.9992329,16.0195759 12.1221185,16.080207 12.2458126,16.1400329 C12.277151,16.1553933 12.3076639,16.1699449 12.3390023,16.1853055 C12.4923923,16.2588736 12.6466015,16.3308233 12.8016467,16.4019721 C12.8313341,16.4157155 12.8618492,16.4286513 12.8915366,16.4423934 C13.0177135,16.4997918 13.1438862,16.5555758 13.2708949,16.6105486 C13.3137772,16.6291427 13.3574871,16.6477372 13.4003694,16.6663305 C13.5314928,16.7221125 13.6634438,16.7770873 13.7953927,16.8304437 C13.820957,16.8409536 13.8456979,16.8514626 13.8712643,16.8611649 C14.0279541,16.9242236 14.1854715,16.9848567 14.3429868,17.0438714 C14.375974,17.055998 14.4089612,17.068125 14.4427739,17.0802508 C14.5681253,17.1263326 14.6943001,17.1707959 14.8196621,17.2144521 C14.8435776,17.2225366 14.867493,17.2322376 14.8905851,17.2395129 C12.7439354,16.5911481 10.6897555,15.5482552 9.78912531,15.0616712 L9.78903516,15.0617085 Z M20.0645795,17.375523 C19.9986051,17.386841 19.9309818,17.3949255 19.8633585,17.4046257 C19.7957353,17.4143269 19.728112,17.4256446 19.6596633,17.4329213 C19.5879169,17.4410058 19.5145195,17.4450479 19.4419582,17.4498986 C19.3710351,17.4555578 19.3009376,17.4620253 19.2291933,17.4652588 C19.1582702,17.4684928 19.0865238,17.4684928 19.0147817,17.4693011 C18.9405609,17.4709179 18.8663402,17.4733433 18.7912919,17.4725349 C18.7228432,17.4717263 18.6543945,17.4676842 18.5859457,17.4652588 C18.5059509,17.4620253 18.4267816,17.4612167 18.3459677,17.4555578 C18.2816421,17.4515154 18.2164931,17.4442395 18.1513421,17.4385804 C18.0664008,17.4313045 17.9814574,17.424837 17.895699,17.4159431 C17.8354966,17.4094756 17.7752962,17.3997743 17.7150938,17.3916894 C17.623555,17.3795628 17.5320142,17.3690521 17.4396479,17.3545008 C17.3860428,17.3464165 17.3316145,17.3350983 17.2780095,17.3262052 C17.1790478,17.3092278 17.0800862,17.2930584 16.9802906,17.2728488 C16.9324596,17.2631475 16.8846287,17.2518299 16.8367957,17.2421276 C16.7304111,17.2202995 16.6240308,17.1976643 16.5176483,17.1726014 C16.4780636,17.1629002 16.438479,17.1523905 16.3988943,17.1426895 C16.283438,17.1143939 16.1688177,17.0860983 16.0541806,17.0553771 C16.0228422,17.0472926 15.9923293,17.0375914 15.9609909,17.0286979 C15.8372883,16.994744 15.7135815,16.9591717 15.5898873,16.921983 C15.5676207,16.9155155 15.5461795,16.9082396 15.5247384,16.9009642 C15.391964,16.8597336 15.2591939,16.818503 15.1264217,16.7740396 C15.1157009,16.7708059 15.1058047,16.7667635 15.0950833,16.76353 C11.8820756,15.6826392 8.80355025,13.6582999 7.48406159,12.7901021 C7.34963842,12.7011734 7.20696897,12.6057792 7.05853177,12.5055319 C7.009052,12.4723851 6.95544698,12.4343893 6.90431627,12.3996262 C6.80288032,12.3301 6.7030953,12.2621923 6.59754043,12.1878232 C6.53404031,12.1433599 6.4672404,12.0940454 6.40209144,12.0471545 C6.3056041,11.9776283 6.20994011,11.9105276 6.11098057,11.8369657 C6.04418067,11.7876513 5.9765574,11.735102 5.90975961,11.6841712 C5.80997249,11.6089867 5.71101084,11.5354186 5.61039402,11.456991 C5.54029645,11.4028254 5.47019888,11.3438107 5.40010131,11.2880267 C5.30196513,11.2096074 5.20382684,11.1319974 5.105697,11.0511608 C5.03229965,10.9905277 4.96055324,10.9258526 4.88881529,10.8636032 C4.79480225,10.7827604 4.69996373,10.7035319 4.60760586,10.6202594 C4.53420851,10.5547752 4.46411094,10.485251 4.39237087,10.4181504 C4.30330433,10.3348821 4.21259107,10.2524209 4.12600306,10.1667352 C4.05508001,10.097209 3.98910558,10.0244501 3.92065684,9.95412506 C3.84148752,9.87166386 3.76066937,9.79082109 3.68397224,9.7067456 C3.54542593,9.3421439 3.48934661,8.99289865 3.51573638,8.66223842 C3.52315867,8.66951431 3.53140536,8.6767904 3.53882849,8.68487572 C3.63531584,8.78188829 3.73510296,8.87809164 3.83819408,8.97509593 C3.85963524,8.99530684 3.88272735,9.01632654 3.90416851,9.03653826 C3.99653272,9.12223218 4.09219459,9.20954453 4.19033921,9.2960456 C4.21013154,9.31302295 4.2290984,9.32999948 4.24889073,9.34778563 C4.35939843,9.4447982 4.47485052,9.54181077 4.59278114,9.63964084 C4.62246858,9.6638945 4.6529836,9.6889553 4.68349652,9.71401818 C4.8047248,9.81345632 4.92843584,9.91289446 5.05789351,10.0139448 C5.05954276,10.0155618 5.06119223,10.0163702 5.06284169,10.0179872 C5.06366632,10.0187956 5.06449095,10.0196039 5.06531558,10.0196039 C8.17191968,12.3843306 11.5217319,14.2945728 15.0233382,15.6965209 C15.1313716,15.7393678 15.2393965,15.7814076 15.3474468,15.8242546 C15.3829083,15.837998 15.4191932,15.851741 15.4546547,15.8654852 C15.5297009,15.8945879 15.6047471,15.9228835 15.6797912,15.9511791 C15.7119529,15.9633057 15.7441168,15.9746236 15.775453,15.9867514 C15.8554478,16.0166634 15.9346171,16.0457682 16.0146077,16.0748709 C16.0434718,16.0853808 16.0731592,16.0958898 16.1020233,16.1063992 C16.1853158,16.1363112 16.2694337,16.1662231 16.3535495,16.1953279 C16.3807648,16.2050292 16.4071545,16.2139221 16.4343677,16.2228143 C16.5209599,16.251917 16.60755,16.2810219 16.6941486,16.3101267 C16.7205384,16.3190195 16.7477536,16.3271038 16.7741434,16.3351875 C16.861559,16.3634831 16.9489746,16.3909694 17.0372178,16.4176487 C17.0636075,16.4257332 17.0899973,16.433009 17.1163871,16.4410931 C17.2046281,16.4677723 17.2928692,16.4936424 17.3819315,16.5187032 C17.4091468,16.5259791 17.4355366,16.533255 17.4627497,16.5405313 C17.5509908,16.5647849 17.6392318,16.5890386 17.7274708,16.6116738 C17.7563349,16.6189499 17.7851989,16.6262258 17.8132375,16.6335019 C17.8998298,16.65533 17.9872454,16.6763489 18.0738418,16.6965606 C18.1043547,16.7038365 18.1348677,16.710304 18.166206,16.7167715 C18.2511473,16.7353656 18.3360907,16.7539602 18.4210257,16.7709371 C18.4548384,16.7774046 18.488649,16.7838721 18.5224616,16.7903396 C18.6049286,16.8056998 18.6865723,16.8210608 18.7690477,16.8348029 C18.806158,16.8412704 18.8432684,16.8469293 18.8803787,16.8533968 C18.9595481,16.8663319 19.0387174,16.8776505 19.1178867,16.8889692 C19.1582968,16.8946283 19.1987049,16.899479 19.239115,16.9051379 C19.3149866,16.9148392 19.3908562,16.9229237 19.4667215,16.9310079 C19.5112548,16.9358587 19.5549626,16.9399008 19.5994958,16.9439429 C19.6720677,16.9504105 19.7446396,16.9560696 19.8163776,16.9601117 C19.8642085,16.9633455 19.9120394,16.9657708 19.9598725,16.9681962 C20.0283212,16.9714299 20.0975933,16.9738551 20.1668675,16.9754721 C20.2179982,16.9770891 20.269129,16.9778975 20.321083,16.9787058 C20.3466473,16.9787058 20.3713883,16.9803226 20.3969547,16.9803226 C20.4291164,16.9803226 20.4621036,16.9778975 20.4942675,16.9778975 C20.5371498,16.9770891 20.5800343,16.9787058 20.6237421,16.9770891 C20.4571571,17.1323092 20.2699502,17.265695 20.0646167,17.3756529 L20.0645795,17.375523 Z" id="Shape" fill="#000000"></path>
    </g>
</svg>