<?xml version="1.0" encoding="UTF-8"?>
<svg width="24px" height="24px" viewBox="0 0 24 24" version="1.1" xmlns="http://www.w3.org/2000/svg" xmlns:xlink="http://www.w3.org/1999/xlink">
    <!-- Generator: Sketch 57.1 (83088) - https://sketch.com -->
    <title>crops-aster</title>
    <desc>Created with Sketch.</desc>
    <g id="crops-aster" stroke="none" stroke-width="1" fill="none" fill-rule="evenodd">
        <path d="M11.8039215,8.74490275 C12.0289758,7.38226978 12.7059448,6.14343241 13.8787545,5.24992054 L14.0556525,5.48250644 L14.0556525,5.77481104 L14.0555827,5.48250644 L14.3352097,5.39813482 C14.7699467,6.84138827 14.582838,8.2681423 13.9496471,9.5092432 L13.9824903,9.46776176 C14.9556636,8.50321748 16.2216756,7.90542789 17.6857247,7.87878163 L18.1021959,7.8712017 L17.9673704,8.26565093 C17.4965143,9.64320071 16.5636123,10.6647256 15.387337,11.2992005 L15.3846106,11.3320815 C16.7241647,11.1352635 18.0854786,11.4027355 19.2787263,12.2419578 L20,12.7492363 L19.2068374,12.7709072 C18.0156952,13.5964712 16.6591396,13.8568952 15.3300649,13.6549443 L15.2672159,13.6375373 L15.2714191,13.639092 C16.5046672,14.2652631 17.484811,15.2998168 17.976886,16.713053 L18.1147369,17.10896 L17.6958989,17.1015015 C16.2669879,17.076056 15.0258899,16.505283 14.0701524,15.5886303 L14.0201631,15.6260155 C14.6021443,16.8369465 14.7645011,18.2094886 14.3525274,19.5964235 L14.0604441,19.5291317 L13.8965835,19.7462876 C12.6887058,18.8333114 12.0026485,17.5538897 11.794461,16.1614387 L11.7939722,16.1742253 C11.5891594,17.5567082 10.9179447,18.8263098 9.73661695,19.7399214 L9.40032741,20 L9.27828289,19.5925658 C8.82543433,18.0807735 9.05661777,16.5857297 9.76087187,15.3149166 L9.79429626,15.2667361 L10.9383082,13.9276207 L11.0161501,13.8633518 C11.095031,13.8185537 11.1722499,13.7867868 11.2469742,13.7701213 L11.4303006,13.7292349 L11.543524,13.8792211 C11.5738004,13.9193281 11.6009462,13.9639219 11.6254851,14.0135405 L11.6549992,14.1216596 C11.6724038,14.3573137 11.6923532,14.6357176 11.7202688,15.0308973 C11.7268073,15.1234585 11.7688007,15.7198935 11.7895546,16.0138306 L11.9466436,14.0974669 L11.9849814,13.9748911 C12.016264,13.9208225 12.0487295,13.8751375 12.0866224,13.8356356 L12.2010964,13.7163008 L12.3622484,13.7530888 C12.39938,13.7615653 12.437005,13.7739623 12.474615,13.7898058 L12.5394105,13.8171013 L13.8882069,15.4198916 L13.8489766,15.3559375 C13.4623012,14.7255706 13.0859088,14.1142263 12.8659628,13.7590191 L12.8269436,13.6577504 C12.8086161,13.5576952 12.8046183,13.4672655 12.8186679,13.3844135 L12.8478912,13.2120809 L13.0134095,13.1563013 C13.04059,13.1471415 13.0668112,13.1402265 13.0987366,13.1331665 L13.1649011,13.1185348 L15.2082804,13.6157392 L15.2535724,13.6324911 C14.4730938,13.3120673 13.7125528,13.0009931 13.3329351,12.8467885 L13.2681884,12.8204877 L13.2223467,12.7677057 C13.1878756,12.7280159 13.1586982,12.6882619 13.1353531,12.6478054 L13.0518614,12.5031166 L13.1340637,12.3576901 C13.1576561,12.3159521 13.1870224,12.2756429 13.2219073,12.2363479 L13.2667181,12.1858722 L15.1785113,11.398623 C13.8736969,11.7165007 13.5980245,11.7838382 13.2652959,11.8666198 L13.1396596,11.8699888 C13.0568778,11.8540484 12.9839628,11.8288321 12.9204479,11.7915911 L12.7760207,11.7069083 L12.7760207,11.5393803 C12.7759942,11.519091 12.7759942,11.519091 12.777012,11.4884039 L12.7807033,11.4137851 L13.8858753,9.6094252 C13.3899621,10.1979648 12.911599,10.7673811 12.627875,11.1067044 L12.5355627,11.1800263 C12.4647787,11.215806 12.3970566,11.240908 12.3308218,11.2536075 L12.1568805,11.286958 L12.0469221,11.1480059 C12.0206264,11.1147766 11.9964176,11.0771649 11.974119,11.0359999 L11.9394743,10.9163336 C11.9272563,10.7348299 11.8359649,9.34647843 11.8048537,8.87548564 L11.7972166,8.89122359 L11.6398079,10.9856276 L11.6059911,11.0437432 C11.5763134,11.0947456 11.543073,11.1398238 11.5060797,11.1784255 L11.3915989,11.2978838 L11.2303553,11.2610748 C11.1923373,11.252396 11.1545089,11.2396487 11.1165264,11.2231917 L11.0525753,11.195483 L11.0080138,11.1418606 C10.8776424,10.9849805 9.81435359,9.69788422 9.64996592,9.49910535 L9.61244239,9.44084062 C9.01264058,8.209725 8.8464358,6.81188771 9.2748439,5.40320896 L9.39746801,5 L9.73181308,5.25624993 C10.906672,6.15668951 11.5820222,7.40414559 11.7986381,8.76770189 L11.8018274,8.78777796 L11.8039215,8.74490275 Z M8.3280544,11.3808772 L8.39182691,11.3989261 L10.2348563,12.155622 L10.3358805,12.2248659 C10.3805472,12.271983 10.4166691,12.3182032 10.4449471,12.3673712 L10.5308451,12.5167247 L10.4418606,12.664257 C10.4143431,12.7098798 10.379493,12.7542343 10.3379776,12.7981127 L10.2379807,12.8670578 C9.58354352,13.1390617 9.02208364,13.3725346 8.41911522,13.623691 L8.35636825,13.6419055 C6.98446403,13.8778984 5.57246182,13.6253897 4.34076446,12.7650704 L4,12.5270523 L4.33918115,12.2867796 C5.56114454,11.4211523 6.96219249,11.1576282 8.3280544,11.3808772 Z M5.05044282,12.5235153 C6.0445856,13.0916528 7.14534512,13.2502103 8.22543651,13.0711473 C8.67569633,12.8836091 9.10399943,12.7054353 9.56656234,12.5131272 L8.20141088,11.9526345 C7.12748958,11.7839294 6.03622115,11.9509599 5.05044282,12.5235153 Z M10.1088447,12.4630581 L10.0942993,12.4542702 L9.91214164,12.6272461 C9.92739736,12.6433388 9.93608435,12.6544544 9.93870859,12.6590172 L10.05629,12.5912781 L10.1088447,12.4630581 Z M10.110514,12.5600395 L10.057327,12.4319326 L9.94179513,12.3621314 C9.93773428,12.3688641 9.92830419,12.380866 9.91384773,12.3961453 L10.0957517,12.5685441 L10.110514,12.5600395 Z M5.89148181,17.1502329 L5.47658396,17.1573811 L5.60987404,16.7640798 C6.08804856,15.3531219 7.05051395,14.313675 8.26690569,13.6783677 L8.33081752,13.6540252 L10.324742,13.1523388 L10.4544815,13.1494486 C10.5359632,13.1661311 10.6083889,13.1923616 10.6708473,13.231321 L10.7979325,13.3105924 L10.8077946,13.46014 C10.8092505,13.4945034 10.8092505,13.4945034 10.8079347,13.5271387 L10.8036776,13.6003048 L10.7654332,13.6628055 C10.6336351,13.8781954 10.4744703,14.1364808 10.2398111,14.5161201 C10.2316025,14.5294003 9.7500258,15.3080849 9.60368797,15.5450344 L9.5586688,15.6010985 C8.58751005,16.5444923 7.3357691,17.1253496 5.89148181,17.1502329 Z M9.12612484,15.2064167 C9.29135241,14.9389614 9.73526882,14.2211713 9.74306561,14.2085574 C9.8268199,14.0730569 9.90092867,13.9530614 9.96758055,13.845003 L8.5070703,14.2124784 C7.5542797,14.7178567 6.78173374,15.4982883 6.32375066,16.5381091 C7.4119351,16.4200618 8.36179271,15.9391844 9.12612484,15.2064167 Z M10.5025099,13.5016497 L10.4710765,13.4823829 L10.2690289,13.4957297 L10.4978901,13.5090684 L10.5025099,13.5016497 Z M9.72672888,18.9822989 C10.5583817,18.2063413 11.0443004,17.2052106 11.2114588,16.1196884 C11.1931109,15.8601448 11.1446637,15.1720189 11.1376073,15.0721262 C11.1258814,14.9061316 11.1155646,14.7607923 11.1062551,14.6306196 L10.2576457,15.6239535 C9.70504451,16.6337659 9.4854875,17.7943017 9.72672888,18.9822989 Z M11.3698621,14.3220563 L11.3629488,14.291006 L11.1921955,14.1448843 L11.1806977,14.1535786 L11.3044242,14.3718058 C11.3197939,14.363077 11.3334931,14.3562033 11.3450502,14.3510997 L11.3698621,14.3220563 Z M11.3305876,14.14566 L11.1760501,14.1570929 L11.0774712,14.2316351 C11.0849671,14.2415649 11.0931524,14.2550113 11.1019868,14.2728748 L11.3333888,14.1582412 L11.3305876,14.14566 Z M13.4698279,15.8302285 L12.4864709,14.661694 L12.3711649,16.0683382 C12.5358777,17.17914 13.0365392,18.204864 13.901713,18.9920408 C14.1250364,17.8849666 13.9484598,16.8011491 13.4698279,15.8302285 Z M12.2775732,14.1246398 L12.2323539,14.3230597 C12.235037,14.3236722 12.2405663,14.3254941 12.2480145,14.3286317 L12.3492248,14.0879671 L12.3389373,14.0780819 L12.2672718,14.1384924 L12.4904658,14.2678444 C12.5001684,14.2510744 12.5067987,14.2417443 12.5079799,14.240513 L12.3976513,14.1344996 L12.2775732,14.1246398 Z M17.2590375,16.4885449 C16.7892989,15.449458 16.0030356,14.673776 15.0369277,14.1756833 L13.5930706,13.8243574 C13.8004735,14.160659 14.0622853,14.5863496 14.3300287,15.022786 C15.1052498,15.8250938 16.1040917,16.3612089 17.2590375,16.4885449 Z M13.3802583,13.4798061 L13.329912,13.4712542 L13.1168537,13.6034038 L13.4014843,13.5523318 C13.397752,13.5319558 13.3956951,13.5153581 13.3947652,13.5032502 C13.389864,13.4953282 13.385028,13.4875128 13.3802583,13.4798061 Z M13.1561254,13.4417345 L13.1365498,13.522321 L13.1998072,13.7103457 C13.2041855,13.7088702 13.2115381,13.7069311 13.22476,13.7040072 L13.1672768,13.4436287 L13.1561254,13.4417345 Z M15.4712778,11.9102233 L14.0349503,12.5016825 C14.4267421,12.6616958 14.9341492,12.8694858 15.4519099,13.0820359 C16.5181793,13.2369202 17.5974127,13.0596396 18.5726437,12.483626 C17.6032514,11.9236254 16.5326433,11.7546615 15.4712778,11.9102233 Z M13.4571035,12.5405968 L13.4730314,12.5496153 L13.6631936,12.3841781 C13.6517615,12.3710151 13.6442923,12.3608385 13.6411728,12.3554325 L13.498826,12.4377115 L13.4571035,12.5405968 Z M13.4538792,12.4636916 L13.4941073,12.5615486 L13.6424622,12.6455479 C13.6447716,12.6414623 13.6499648,12.6343338 13.658561,12.624651 L13.4682309,12.4553961 L13.4538792,12.4636916 Z M17.252097,8.49153729 C16.147379,8.61289993 15.1855526,9.10797437 14.4183174,9.85871711 L13.6092264,11.1796801 C13.8816262,11.1129534 14.2832646,11.0150449 15.0072391,10.8386692 C15.9852007,10.3384501 16.7818981,9.55024907 17.252097,8.49153729 Z M13.1940454,11.5797546 L13.2500177,11.2959083 C13.2280792,11.2916838 13.216693,11.2877461 13.2157094,11.2871694 L13.1494778,11.4003189 L13.1940454,11.5797546 Z M13.8867754,6.0041088 C13.0599684,6.7621092 12.5688519,7.73878466 12.3857457,8.80738554 C12.4052146,9.1019315 12.4542782,9.84762315 12.4882917,10.36344 C12.7541677,10.0465365 13.0867272,9.65103849 13.4282238,9.24573966 C13.9328898,8.25771768 14.1216894,7.14378266 13.8867754,6.0041088 Z M9.72172322,6.01047012 C9.49289382,7.10776015 9.6579767,8.18476995 10.1224808,9.1536088 C10.2699482,9.33199017 10.7565588,9.92096841 11.1025984,10.3395577 L11.2163486,8.82605267 C11.0397113,7.75697466 10.5501015,6.77414521 9.72172322,6.01047012 Z M9.7075283,9.60075924 L9.74453768,9.6490994 L10.7218511,11.2464227 L10.7598474,11.3452553 C10.779,11.4475911 10.7836774,11.5394221 10.7698166,11.6234953 L10.7405501,11.801012 L10.5690152,11.8548286 C10.5401758,11.8638766 10.5106401,11.8714598 10.4792762,11.877801 L10.3511596,11.8749983 C9.98362896,11.7837952 9.18554684,11.5868493 8.42178565,11.3991028 L8.35979186,11.3761552 C7.11642084,10.7477108 6.12728439,9.70258357 5.63689854,8.27504699 L5.41666492,7.63393645 L5.98051512,7.88967302 C7.4709941,7.94252458 8.75060345,8.58942083 9.7075283,9.60075924 Z M8.59384629,10.8394147 C9.09396723,10.9623678 9.6059269,11.088553 9.99986403,11.1858616 L9.2625876,9.9808554 C8.49461633,9.17826289 7.5030915,8.63898519 6.35444644,8.50397208 C6.82469364,9.55491451 7.61882889,10.3391169 8.59384629,10.8394147 Z" id="aster" fill="#000000"></path>
    </g>
</svg>