<?xml version="1.0" encoding="UTF-8"?>
<svg width="24px" height="24px" viewBox="0 0 24 24" version="1.1" xmlns="http://www.w3.org/2000/svg" xmlns:xlink="http://www.w3.org/1999/xlink">
    <!-- Generator: Sketch 57.1 (83088) - https://sketch.com -->
    <title>crops-apple</title>
    <desc>Created with Sketch.</desc>
    <g id="crops-apple" stroke="none" stroke-width="1" fill="none" fill-rule="evenodd">
        <path d="M7.89303669,3 C9.44094322,3 10.9048044,3.78094031 11.7421001,5.06987605 C12.1390936,4.20398483 12.829357,3.48654659 13.7074939,3.04287656 L13.7074939,3.04287656 L14.1673907,3.99287424 C13.0588872,4.54112846 12.3686238,5.68167456 12.3686238,6.92688929 L12.3686238,6.92688929 L12.3686238,7.03244459 L12.494422,7.0110042 C13.3308604,6.7998936 14.1877506,6.6943383 15.0454774,6.6943383 C18.182278,6.6943383 20.7333333,9.24814317 20.7333333,12.3727911 C20.7333333,15.53945 19.4988977,18.4949983 17.2615224,20.7331929 L17.2615224,20.7331929 L17.2198615,20.7752503 C16.4452809,21.5561906 15.3793543,22 14.2708507,22 C13.9359241,22 13.6018339,21.9569799 13.2669073,21.872865 L13.2669073,21.872865 L11.8659703,21.5141459 L10.4650333,21.872865 C10.1513533,21.9578032 9.7960165,22 9.46108984,22 C8.35384942,22 7.30824923,21.5777788 6.51342578,20.7968385 C4.27596683,18.600655 3,15.5395513 3,12.3944257 C3,9.24930006 5.55105536,6.69443964 8.68785595,6.69443964 C9.5447044,6.69443964 10.4024312,6.79999493 11.2389113,7.01110553 L11.2389113,7.01110553 L11.363894,7.07460337 L11.363894,6.96904808 C11.363894,6.61032895 11.4063705,6.27305867 11.4896922,5.93494394 C10.9881387,6.10399286 10.4857488,6.18810776 9.98419526,6.18810776 C8.41579496,6.18810776 6.95199651,5.38571861 6.07385964,4.07700181 L6.07385964,4.07700181 L5.69727627,3.50717209 L6.34588299,3.27461266 C6.84743649,3.08411491 7.37023659,3 7.89303669,3 Z M15.0868999,7.7498575 C14.313323,7.7498575 13.5397462,7.83483796 12.7865794,8.02450816 L12.7865794,8.02450816 L11.887196,8.25706759 L10.9878125,8.02450816 C10.2346458,7.8554508 9.46106893,7.7498575 8.68749208,7.7498575 C6.1361816,7.7498575 4.0449812,9.81874133 4.0449812,12.3727573 C4.0449812,15.2442836 5.21628345,18.0307113 7.26501157,20.0354386 C7.87204522,20.6267171 8.64562207,20.943383 9.48210223,20.943383 C9.75412557,20.943383 10.0049023,20.922766 10.2556791,20.8592681 L10.2556791,20.8592681 L11.9073928,20.4370469 L13.5591065,20.8592681 C13.7894731,20.9219426 14.0614965,20.943383 14.3122732,20.943383 C15.1488371,20.943383 15.9436605,20.6061127 16.5293639,20.0148342 L16.5293639,20.0148342 L16.5710248,19.9727767 C18.600242,17.9456928 19.7291556,15.2443216 19.7291556,12.3727953 C19.7291556,9.81894822 17.6379552,7.7498575 15.0868999,7.7498575 Z M9.95698936,9.33333333 C10.3166638,9.33333333 10.6,9.61956103 10.6,9.98290598 C10.6,10.3462509 10.3176669,10.6324786 9.95698936,10.6324786 C8.23397804,10.6324786 6.81935462,12.0351398 6.81935462,13.7504274 C6.81935462,14.1137723 6.53601841,14.4 6.17634398,14.4 C5.81666954,14.4 5.53333333,14.1137723 5.53333333,13.7504274 C5.53333333,11.3084499 7.51354891,9.33333333 9.95698936,9.33333333 Z M10.4233139,5.08966978 C9.64977886,4.33015719 8.54127535,3.94999768 7.45401844,4.07699337 C8.22755347,4.83650596 9.31481038,5.21666547 10.4233139,5.08966978 Z" id="apple" fill="#000000"></path>
    </g>
</svg>