<?xml version="1.0" encoding="UTF-8"?>
<svg width="24px" height="24px" viewBox="0 0 24 24" version="1.1" xmlns="http://www.w3.org/2000/svg" xmlns:xlink="http://www.w3.org/1999/xlink">
    <!-- Generator: Sketch 57.1 (83088) - https://sketch.com -->
    <title>crops-cherries</title>
    <desc>Created with Sketch.</desc>
    <g id="crops-cherries" stroke="none" stroke-width="1" fill="none" fill-rule="evenodd">
        <path d="M7.24912223,22 C6.60914737,22 5.96238939,21.8465726 5.35711026,21.5216686 C4.32180772,20.9666305 3.55737464,20.0027361 3.20521618,18.8059719 C2.85474808,17.6137362 2.9554979,16.3340271 3.48965186,15.201216 C3.82063747,14.4981477 4.72898959,12.8212269 6.00633877,12.4249856 C6.49394279,12.2733627 6.97985646,12.338344 7.41074671,12.6127093 C7.84839842,12.8915799 8.05834987,13.1072831 8.24288091,13.2968089 C8.38509875,13.4430161 8.50445338,13.5657677 8.72625903,13.7083453 C9.88517461,12.3572665 11.0244993,10.3066775 11.4960666,7.91513615 C9.23661791,10.1407413 6.587086,9.67054274 6.46182594,9.64616755 C6.25696507,9.60735901 6.11983131,9.39978172 6.15452705,9.18047431 C6.16553195,9.1091763 6.44487899,7.42056235 7.63341922,6.37721172 C8.53667859,5.58479849 10.6504962,5.60464521 11.7171571,5.94039904 C11.7349343,5.28968538 11.6968403,4.6227293 11.5944088,3.94583831 C11.234622,3.85558772 10.8638479,3.80865566 10.4854455,3.80865566 C10.2763522,3.80865566 10.1061979,3.62724878 10.1061979,3.40432783 C10.1061979,3.18140688 10.2763522,3 10.4854455,3 C11.0026742,3 11.5063583,3.0767137 11.9914268,3.22111649 C12.0176685,3.22562902 12.04222,3.23375185 12.0667692,3.24458137 C15.1057342,4.20034304 17.4041912,7.84744936 17.5480886,12.2506949 C17.7597217,12.2100819 17.9476638,12.1405884 18.1432039,12.068387 C18.4615118,11.9501569 18.7899618,11.8292097 19.2284587,11.8183969 C19.9293949,11.8021514 20.5084085,12.0295854 20.9545336,12.4952878 C21.6580054,13.2290389 22,14.5133227 22,16.4221197 C22,19.2577285 19.8362517,21.5647076 17.1764043,21.5647076 C14.5165568,21.5647076 12.3528085,19.2578672 12.3528085,16.4221197 C12.3528085,14.6441632 12.7811633,13.1992804 13.5278042,12.4564724 C13.9409023,12.045837 14.4573075,11.8508817 15.016015,11.8933015 C15.5815057,11.9357189 15.8913401,12.0349964 16.1639216,12.1225415 C16.3628575,12.1866194 16.5330053,12.2407716 16.7903519,12.2678477 C16.6642185,8.49258098 14.8551707,5.32657857 12.3975814,4.22472747 C12.8665698,8.23542848 11.2268333,11.8672166 9.47369099,14.0270203 C9.58204744,14.0486807 9.69124907,14.063121 9.80638863,14.0775613 C10.094205,14.1145653 10.4209647,14.1578862 10.7807515,14.3401895 C11.3437066,14.6244897 11.7212421,15.0567971 11.9041045,15.6244733 C12.198704,16.5369142 11.976907,17.7544261 11.2268767,19.3454446 C10.4370665,21.0232202 8.86253894,21.9996835 7.2491114,21.9996835 L7.24912223,22 Z M6.51940656,13.1535382 C6.42120961,13.1535382 6.32131796,13.1697836 6.21720042,13.2022747 C5.53997261,13.4125621 4.75438834,14.3177805 4.16605616,15.5651665 C3.72162135,16.5091911 3.63697329,17.5741675 3.92817041,18.5641238 C4.21852236,19.5496671 4.84581952,20.3438825 5.69659102,20.7987628 C7.45569297,21.7409853 9.63296413,20.9269209 10.5490096,18.983793 C11.193232,17.6164718 11.4082329,16.5749233 11.1864489,15.8889522 C11.0704728,15.5297474 10.8317549,15.2635149 10.4550428,15.073088 C10.2061698,14.9467344 9.97760266,14.9169528 9.71347298,14.8835599 C9.401103,14.8429469 9.04725418,14.7969182 8.63838195,14.580314 C8.63245615,14.5776064 8.62737684,14.5748988 8.62145104,14.5712887 C8.13046629,14.3068583 7.91966965,14.0902542 7.71481095,13.8808585 C7.54465665,13.7057707 7.38298016,13.5396983 7.01981268,13.3086538 C6.85897053,13.204864 6.69305297,13.1534196 6.51950928,13.1534196 L6.51940656,13.1535382 Z M14.8619864,12.6986578 C14.5504616,12.6986578 14.2812608,12.8141801 14.0442419,13.050631 C13.4592904,13.6318464 13.1105127,14.8926792 13.1105127,16.4243424 C13.1105127,18.8142664 14.9339567,20.7582746 17.1756133,20.7582746 C19.4172698,20.7582746 21.2407138,18.8142433 21.2407138,16.4243424 C21.2407138,14.7682156 20.9655968,13.6409496 20.4238146,13.0760459 C20.124144,12.7637661 19.7398253,12.6175612 19.2454382,12.6292983 C18.9262851,12.6365184 18.6782572,12.7285758 18.3921311,12.83417 C18.0611455,12.9569124 17.6852787,13.0958972 17.1765018,13.0958972 C16.5602136,13.0958972 16.2478437,12.9957186 15.9456375,12.899149 C15.688291,12.8161162 15.444489,12.7385014 14.9628012,12.7024007 C14.9280925,12.7005956 14.8950784,12.6987904 14.8620644,12.6987904 L14.8619864,12.6986578 Z M7.00354318,8.89266221 C7.86447851,8.93417859 9.90034451,8.77533552 11.5265581,6.70947678 C10.8053159,6.47392694 8.81678001,6.38638418 8.11419679,7.00368881 C7.47337674,7.56595864 7.14915257,8.39446101 7.00354318,8.89266221 Z M5.06329091,16.9466415 C4.88636433,16.9466415 4.72805773,16.8139711 4.69167163,16.6208226 C4.47749861,15.4728088 5.17843048,14.3527976 6.25521186,14.124387 C6.46092008,14.0810662 6.65985819,14.2227612 6.70133704,14.4420732 C6.74197071,14.6613852 6.60906502,14.8734794 6.4033568,14.9177014 C5.737138,15.0593963 5.30286702,15.7525343 5.43577704,16.4628113 C5.47641071,16.6821233 5.34350503,16.8942175 5.13779681,16.9384394 C5.11240022,16.9438544 5.08785098,16.946562 5.06330175,16.946562 L5.06329091,16.9466415 Z M20.247497,16.0026169 C20.217868,16.0026169 20.188239,15.9990068 20.15861,15.990884 C19.9554416,15.9385385 19.8293147,15.720123 19.8784002,15.5035188 C19.9554351,15.1623585 19.9029495,14.8094843 19.7311026,14.5098427 C19.5592558,14.2102011 19.2883582,14.0008286 18.9683816,13.9177912 C18.7652132,13.8654458 18.6390863,13.6470302 18.6881718,13.430426 C18.7372703,13.2129185 18.9412925,13.079354 19.145306,13.1316855 C19.6625347,13.2643559 20.1001864,13.6037094 20.3778606,14.0874472 C20.6555348,14.571185 20.7401829,15.1406865 20.6149012,15.6921204 C20.5742675,15.8780396 20.4193525,16.0026169 20.2475078,16.0026169 L20.247497,16.0026169 Z" id="Cherries" fill="#000000"></path>
    </g>
</svg>