<?xml version="1.0" encoding="UTF-8"?>
<svg width="24px" height="24px" viewBox="0 0 24 24" version="1.1" xmlns="http://www.w3.org/2000/svg" xmlns:xlink="http://www.w3.org/1999/xlink">
    <!-- Generator: Sketch 57.1 (83088) - https://sketch.com -->
    <title>crops-kiwi</title>
    <desc>Created with Sketch.</desc>
    <g id="crops-kiwi" stroke="none" stroke-width="1" fill="none" fill-rule="evenodd">
        <path d="M9.70821081,3 C11.3938188,3 13.1914054,3.42716665 14.9059882,4.2352958 C19.4613946,6.38265543 22.0593271,10.6225996 20.6985622,13.6867026 C20.6602958,13.7728033 20.6191939,13.8572573 20.5753281,13.9400274 L20.583667,13.9444951 C20.5220334,14.0791866 19.0717646,17.2674497 18.1808126,18.4422565 C16.3831543,20.8128048 14.2484127,22 11.8044389,22 C10.4595959,22 9.02137361,21.6401939 7.49469685,20.920557 L7.38637117,20.8695674 C3.08222327,18.8405505 1.34445105,15.4925481 2.22038961,10.9199144 C2.50148365,9.4518 3.97604399,6.29334302 4.03860761,6.15960715 L4.06636677,6.17418127 C4.09978343,6.08142613 4.13662253,5.98961801 4.1769361,5.89884192 C4.98285217,4.08436883 7.05051184,3 9.70821081,3 Z M2.9245113,11.0631817 C2.110204,15.3166227 3.66693139,18.3036367 7.68527564,20.198105 L7.79360132,20.2490946 C11.8111088,22.1424546 15.0243977,21.4035824 17.6158753,17.9882195 C18.0063458,17.4734345 18.5305637,16.5052822 18.9816971,15.61215 C17.9795381,16.2402053 16.6673711,16.5855445 15.1672875,16.5855445 C13.4816796,16.5855445 11.684093,16.1583779 9.96951017,15.3502488 C6.54437266,13.7356833 4.22585325,10.9381177 3.86459655,8.34683681 C3.46959411,9.29783944 3.05269547,10.3936617 2.9245113,11.0631817 Z M9.70797174,3.73901997 C7.33877787,3.73901997 5.51498963,4.66068915 4.82863056,6.20586794 C3.6323672,8.89979597 6.07251592,12.6998157 10.2673867,14.6777765 C11.8894986,15.4426324 13.5834739,15.846697 15.1663313,15.846697 C17.5355251,15.846697 19.3593134,14.9240673 20.0456724,13.379849 C21.2419358,10.685921 18.8027194,6.88590128 14.6069164,4.90794041 C12.9848044,4.14308455 11.2908291,3.73901997 9.70797174,3.73901997 Z M14.1102276,12.3024009 C14.2353644,12.2841215 14.8386384,12.7776682 14.9740455,12.9950936 C15.1103874,13.2125216 15.047819,13.4126303 14.8349018,13.4434166 C14.6229171,13.475166 14.3399631,13.3241183 14.2036236,13.106688 C14.0672698,12.88926 13.9850908,12.3206757 14.1102276,12.3024009 Z M11.453418,11.8262717 C11.5906946,11.8907309 11.6906171,12.4679822 11.6112399,12.6469124 C11.5318628,12.8258574 11.2787945,12.881657 11.0453224,12.7719813 C10.8118599,12.6623056 10.6876555,12.4275684 10.7670255,12.249574 C10.8464122,12.0706512 11.3161462,11.7618174 11.453418,11.8262717 Z M16.6567178,11.39894 C16.9284643,11.5268955 17.0937547,11.754904 17.0255969,11.9088357 C16.9574248,12.0618045 16.6819393,12.0820077 16.4101927,11.9540523 C16.1384462,11.8260919 15.5519929,11.3306362 15.5921321,11.2401983 C15.632288,11.1497628 16.3849712,11.2700216 16.6567178,11.39894 Z M11.8755133,8.10287305 C12.2621311,8.10287305 12.6730142,8.20004213 13.0624292,8.38379226 C13.5592326,8.61757634 13.9729367,8.97065381 14.2278769,9.37663945 C14.5108356,9.82784407 14.5706022,10.3146623 14.3931697,10.7148848 C14.1802525,11.1949547 13.6582323,11.4816617 12.9980032,11.4816617 C12.611383,11.4816617 12.2004999,11.3844926 11.8110849,11.2007425 C10.7138189,10.6831379 10.1292064,9.65950436 10.4803468,8.86964998 C10.693264,8.38958009 11.2152841,8.10287305 11.8755133,8.10287305 Z M11.8764265,8.84265652 C11.5038371,8.84265652 11.2264724,8.96772541 11.1330932,9.17842467 C10.9780731,9.5267044 11.3413414,10.1674297 12.1098938,10.5301421 C12.4059295,10.6696436 12.7131534,10.743723 12.9979769,10.743723 C13.3705855,10.743723 13.6479501,10.6186541 13.7413294,10.4079548 C13.8421866,10.1809043 13.7123808,9.91633387 13.6255305,9.77875587 C13.4471656,9.49399452 13.1324564,9.23036493 12.7645096,9.05623738 C12.468474,8.91673584 12.16125,8.84265652 11.8764265,8.84265652 Z M9.59207245,10.1617971 C9.66024457,10.2714728 9.19892808,10.5947269 8.95051439,10.6303159 C8.7021007,10.6659123 8.40608893,10.5446905 8.2893529,10.3580415 C8.17355641,10.1723605 8.2800145,9.99244756 8.5284191,9.95685855 C8.77683279,9.92127939 9.52298232,10.0521213 9.59207245,10.1617971 Z M16.5502855,9.16610028 C16.6660844,9.35178133 16.5596239,9.53169425 16.3112193,9.56824379 C16.0628056,9.60382541 15.3166561,9.47298346 15.247566,9.36234474 C15.1784615,9.25266901 15.6407103,8.92941489 15.889124,8.89382588 C16.1375377,8.85823687 16.4335495,8.97945132 16.5502855,9.16610028 Z M8.60229056,7.60159259 C8.87403711,7.72955294 9.46049041,8.22500862 9.4203512,8.31544658 C9.38019525,8.40588207 8.62751204,8.28562323 8.35576549,8.15670481 C8.08401894,8.02874939 7.91872857,7.80074082 7.98688634,7.64680911 C8.05412371,7.4938404 8.32961165,7.47363717 8.60229056,7.60159259 Z M13.6871928,6.82334097 C13.9197229,6.9339797 14.0439274,7.16775393 13.9645574,7.34670878 C13.8851683,7.52563161 13.4154343,7.83446541 13.2781625,7.77001112 C13.1408907,7.70555684 13.0409634,7.12734009 13.1212753,6.94840987 C13.2006525,6.76946488 13.4537208,6.71366525 13.6871928,6.82334097 Z M10.9434539,6.56274321 C11.0798077,6.78017113 11.1619867,7.34875545 11.0368499,7.36703023 C10.9117131,7.385305 10.3084391,6.891763 10.173032,6.67433754 C10.0366902,6.45690962 10.0992586,6.25680086 10.3121757,6.22601452 C10.5250928,6.19426519 10.8080468,6.34531283 10.9434539,6.56274321 Z" id="Combined-Shape" fill="#000000"></path>
    </g>
</svg>