<?xml version="1.0" encoding="UTF-8"?>
<svg width="24px" height="24px" viewBox="0 0 24 24" version="1.1" xmlns="http://www.w3.org/2000/svg" xmlns:xlink="http://www.w3.org/1999/xlink">
    <!-- Generator: Sketch 57.1 (83088) - https://sketch.com -->
    <title>crops-millet</title>
    <desc>Created with Sketch.</desc>
    <g id="crops-millet" stroke="none" stroke-width="1" fill="none" fill-rule="evenodd">
        <path d="M13.1598018,10.8983842 C13.1502621,10.9561807 13.1688523,11.0293304 13.1883598,11.1064517 C13.1985722,11.1465832 13.2090903,11.1880782 13.2161839,11.2298695 C13.2213207,11.2601015 13.2303712,11.2930604 13.239972,11.3278568 C13.2641882,11.4159447 13.2917065,11.5158289 13.2594183,11.6071771 C13.1807158,11.8301235 13.0802432,12.0472606 12.9727381,12.2661167 C13.0386598,12.1604232 13.1046428,12.0577528 13.1759459,11.9561495 C13.2276193,11.8825256 13.3597687,11.8129327 13.4581621,11.8296492 C13.6544598,11.8629045 13.7552382,11.7877393 13.8065447,11.5702466 C13.8193866,11.5158289 13.8162067,11.4851819 13.8088685,11.4746304 C13.7961489,11.4561948 13.7332847,11.4460581 13.6828955,11.4378777 C13.6057829,11.4254292 13.5099578,11.4098983 13.428748,11.354295 L13.3260739,11.28405 L13.4264243,11.2106633 C13.4659284,11.1817946 13.5022527,11.1531631 13.536987,11.1257765 C13.6127542,11.066083 13.6842408,11.0097092 13.7666736,10.9673251 C13.8604195,10.9191317 13.9146002,10.8645955 13.9190643,10.8137345 C13.9236506,10.7626365 13.8794378,10.6995049 13.7946812,10.6358991 L13.6725608,10.5442545 L13.8140052,10.4841461 C13.995443,10.4070248 14.0413681,10.351303 14.0480337,10.3181664 C14.0538431,10.2890606 14.0371486,10.2308491 13.9243845,10.119287 C13.875096,10.0705008 13.8445812,9.98857797 13.8518583,9.92455721 C13.8528979,9.91495409 13.853754,9.90541025 13.8541209,9.89622209 C13.8593188,9.78436358 13.7562778,9.77268572 13.7355473,9.77144087 C13.7218493,9.7705517 13.6024807,9.7672321 13.592941,9.88821949 C13.5904949,9.91839224 13.5877431,9.94820932 13.5846243,9.97796712 C13.5754515,10.0627946 13.56316,10.1777356 13.490328,10.2442461 C13.2454757,10.4680817 13.2454757,10.4680817 13.425935,10.6836182 L13.5031699,10.7758556 L13.3900389,10.8216778 C13.3565276,10.8352526 13.3172069,10.8465748 13.2791093,10.857482 C13.2424181,10.8680336 13.1835899,10.884928 13.1598018,10.8983842 L13.1598018,10.8983842 Z M12.6387873,10.6337057 L12.6387873,12.507558 C12.674072,12.448813 12.7081948,12.3887639 12.7389542,12.3269957 C12.8693301,12.0659333 12.9938966,11.8099688 13.0858691,11.5495584 C13.1000564,11.5093676 13.0810381,11.4404267 13.0626926,11.3736791 C13.0523579,11.3362744 13.0417786,11.2975655 13.035113,11.2587381 C13.0292424,11.2238231 13.0200085,11.1874261 13.0102242,11.1488951 C12.9846627,11.0481809 12.958245,10.9440286 12.9847238,10.8415954 C13.0066162,10.7567086 13.1032974,10.7229791 13.2026082,10.6940512 C13.1504456,10.6232135 13.1189523,10.5640535 13.1118587,10.5060792 C13.0004399,10.610765 12.8243835,10.6337057 12.6397046,10.6337057 L12.6387873,10.6337057 Z M11.9798752,22 L11.9045361,21.8757523 C11.8915718,21.8544713 11.873104,21.8308192 11.8535353,21.805863 C11.8011893,21.7389375 11.7417496,21.6631204 11.751962,21.5762181 C11.7739767,21.3894316 11.8062037,21.2016373 11.8373301,21.0201266 C11.8782407,20.7814121 11.920619,20.5345765 11.9391481,20.2921868 C11.9659326,19.9433329 11.9602455,19.564247 11.921414,19.0992072 C11.9133419,19.001872 11.8770177,18.9297893 11.8134197,18.8848562 C11.7345337,18.8291937 11.6138809,18.8160339 11.4735984,18.8481036 C11.3815036,18.8692067 11.1250323,18.8712814 11.0685891,18.7508276 C11.0375239,18.684732 11.0368513,18.6111674 11.0434557,18.5475023 C10.9348498,18.5760153 10.8131575,18.6058917 10.6903644,18.5926133 C10.5927047,18.582121 10.5601719,18.4774352 10.5151029,18.3325586 C10.5064805,18.3046384 10.4976135,18.276244 10.4883184,18.2485017 C10.4527891,18.2537182 10.4099216,18.2568599 10.3661368,18.2507542 C10.2002928,18.2276356 10.0613556,18.194499 9.94149779,18.1494473 C9.85655775,18.1174962 9.85062602,17.9838825 9.8547232,17.9070576 C9.85833116,17.8386502 9.89538923,17.8146424 9.9259652,17.8065213 C10.0543231,17.7724954 10.1860444,17.7510366 10.3134239,17.7302891 L10.3486474,17.7245984 C10.3665649,17.7216345 10.3828925,17.7224644 10.3973855,17.7246577 C10.5067863,17.6173043 10.5069086,17.4966133 10.4043568,17.2849298 C10.3498093,17.1724786 10.2973409,17.0590788 10.2448725,16.9456791 C10.1574864,16.7566992 10.0670427,16.5613174 9.9687104,16.3751236 C9.95666347,16.35242 9.88401497,16.323255 9.8405971,16.3058864 C9.82164,16.2982987 9.80317212,16.2908889 9.78586612,16.2833013 C9.75155988,16.268126 9.71156652,16.2565074 9.66912707,16.2441774 C9.57923373,16.2180356 9.48616048,16.1909454 9.41919912,16.1228937 C9.3286331,16.0308342 9.27940579,15.8511018 9.30949254,15.7220525 C9.32789928,15.6433307 9.40965941,15.6068744 9.50591256,15.5765238 C9.41510194,15.564846 9.33707207,15.5317686 9.27610359,15.478418 C9.19422115,15.4068688 9.15037521,15.3048505 9.14921332,15.1834482 C9.14829604,15.0762134 9.23666059,14.9898447 9.33022305,14.8984372 C9.35199314,14.8772155 9.37413014,14.8555789 9.39547217,14.8334087 C9.37688198,14.8142618 9.35511189,14.7956483 9.33566557,14.7907875 C9.08965134,14.7294935 8.97236193,14.5748952 9.00550628,14.3555056 C9.0188374,14.2670028 9.11882081,14.1575747 9.18186846,14.1211777 C9.22632591,14.0953916 9.26216095,14.0995411 9.2843591,14.1074844 C9.39889667,14.1483273 9.5023046,14.2105697 9.60222686,14.2708559 C9.6305402,14.2879281 9.65885355,14.3050003 9.68735035,14.3214797 C9.70006995,14.3288895 9.71028233,14.3376035 9.7189659,14.3467916 C9.79730153,14.3124694 9.89392159,14.2871575 9.99127547,14.3157297 C10.0757874,14.3405081 10.1466625,14.4022763 10.2023719,14.4994337 C10.2268327,14.5024569 10.270801,14.5022198 10.2991143,14.502042 C10.3021108,14.502042 10.305046,14.502042 10.3080425,14.502042 L10.3026611,14.4961141 C10.2519662,14.440748 10.199559,14.3834257 10.1610944,14.3142477 C10.071201,14.152536 10.0161032,14.0185074 9.98791211,13.8925406 C9.98222498,13.8674065 9.96718161,13.8004218 10.1425654,13.6912901 C10.1815803,13.6669267 10.2544122,13.6215786 10.3158088,13.6663339 C10.4143246,13.7379423 10.4984085,13.8249038 10.5797405,13.9090793 C10.6008991,13.9310123 10.6219965,13.9528861 10.6433997,13.9744042 C10.6518387,13.9829403 10.6585042,13.9919506 10.6638856,14.0007238 C10.8179273,14.0086079 10.9861563,14.0393141 11.060089,14.1605386 C11.1204459,14.2594744 11.097942,14.3841964 11.0473694,14.5087997 C11.1612954,14.4906012 11.2433002,14.48906 11.2789518,14.5598978 C11.3504995,14.7018105 11.363953,14.8690944 11.3757553,15.0166385 C11.3845,15.1245254 11.3831547,15.2291519 11.3810755,15.3604538 C11.4630191,15.2807835 11.5224588,15.2227498 11.5707076,15.1592033 C11.7164327,14.9670817 11.7385086,14.7966561 11.6401151,14.6227923 C11.3943455,14.1886366 11.1481478,13.7547181 10.8984033,13.3146939 L10.6282952,12.8386284 C10.2810745,12.8171695 10.0944388,12.6702775 10.0732802,12.4015088 C10.0608052,12.2422868 10.1113167,12.1735237 10.2542288,12.1188097 C10.1865947,12.0854359 10.125932,12.0400286 10.0835537,11.9773119 C10.0185492,11.8811622 10.0061965,11.7597006 10.0468014,11.6161874 C10.0722406,11.5264398 10.1651304,11.4772386 10.2635239,11.4251921 C10.2820529,11.4154112 10.3007654,11.4054524 10.3194779,11.3950786 C10.2970351,11.3540579 10.2719628,11.3013001 10.2593044,11.244452 C10.2271996,11.0999903 10.2135016,10.9555287 10.2185161,10.8151572 C10.2192499,10.7932242 10.2215737,10.7264766 10.390353,10.6684429 C10.424965,10.6564687 10.4968797,10.6317496 10.5446393,10.6846852 C10.6309859,10.7808942 10.703084,10.8877733 10.7726749,10.9914514 L10.8196396,10.7610952 C10.7412428,10.6815435 10.6799074,10.586283 10.6457846,10.490726 C10.6179605,10.4125377 10.6867564,10.3170993 10.7084654,10.289772 C10.7228972,10.2715735 10.7675993,10.2170965 10.8315031,10.2208904 C10.9751489,10.2310863 11.1181833,10.2526044 11.191688,10.3406922 C11.2424441,10.4015712 11.2538795,10.4009784 11.3635249,10.3962954 L11.3757553,10.3957619 C11.481487,10.391316 11.5613514,10.4143753 11.6173666,10.4667775 C11.7039577,10.5476334 11.7031016,10.6674945 11.7023678,10.7733066 C11.7022455,10.7940541 11.702062,10.814268 11.7026124,10.8333557 C11.8339667,10.8812527 11.9182341,10.9478225 11.959267,11.0359696 C12.0053144,11.1347275 11.9949798,11.252336 11.9275292,11.3954936 C11.9074102,11.4382927 11.905331,11.4967412 11.9056979,11.5644373 C12.0493438,11.4199756 12.0150988,11.1688719 11.9508281,10.8471676 C11.9337055,10.7611545 11.9175003,10.6800022 11.9088167,10.6049557 C11.8798918,10.3549783 11.7920165,10.3042952 11.5798193,10.1818258 C11.5385417,10.1579959 11.4938397,10.1322097 11.4457131,10.1026298 C11.3503772,10.0440034 11.3252438,9.99035633 11.3059809,9.93599795 C11.2957074,9.90718861 11.2889807,9.88810094 11.2453793,9.85425292 C11.1057083,9.74571401 11.0422938,9.69645359 10.8965076,9.77511614 C10.8052077,9.82443584 10.6926882,9.76995891 10.58396,9.71749745 C10.5463516,9.69929895 10.5073978,9.68044839 10.4754765,9.66918548 L10.3854608,9.63735293 L10.4829982,9.40924932 C10.4082705,9.42881122 10.324737,9.44078547 10.2448725,9.42015656 C10.144828,9.39437042 10.1064857,9.28683924 10.0579922,9.15073583 C10.0469237,9.11967391 10.0356106,9.08801919 10.0233802,9.0566016 C9.97140109,9.06750884 9.90358359,9.07343669 9.84182014,9.04931034 C9.83448191,9.04652425 9.82714367,9.04338249 9.81986659,9.04012218 C9.70820316,8.99032825 9.63916263,8.8849311 9.64001875,8.76524783 C9.64075258,8.64497178 9.71156652,8.5399303 9.8246976,8.49120338 C9.88315885,8.46612858 9.93941863,8.45545846 9.9937827,8.445144 C10.038179,8.43672645 10.0801292,8.42872386 10.1156585,8.41449702 C10.413713,8.29493231 10.5387687,8.49879103 10.6213239,8.63382742 C10.6248095,8.63957744 10.6283563,8.64538673 10.631842,8.65113674 C10.6713461,8.63762125 10.6776448,8.62499493 10.6780117,8.62428359 C10.6819254,8.61580676 10.6789901,8.5832036 10.639914,8.52066479 C10.5576035,8.38859232 10.4807356,8.24318219 10.4114504,8.0885839 C10.4014826,8.06623591 10.3920652,8.04371008 10.3826479,8.02130282 C10.3077979,7.84174828 10.2697614,7.77049554 10.0812911,7.81003429 C9.99512804,7.82799567 9.8959396,7.75253416 9.84463313,7.70594126 C9.76103843,7.63000552 9.72330769,7.56136103 9.73241933,7.50190471 C9.74458856,7.42241226 9.79387702,7.35637603 9.8436547,7.30284755 C9.73994101,7.26609489 9.62638187,7.22377005 9.51802064,7.16490651 C9.43772815,7.12145538 9.46518537,7.04978769 9.53159637,6.87657595 C9.53924036,6.85665838 9.54712896,6.83608874 9.55489526,6.81540055 C9.52156746,6.80544177 9.48432593,6.79382318 9.44732901,6.78048552 C9.42739348,6.77331283 9.40507302,6.76714786 9.38256911,6.76092362 C9.30148164,6.73821996 9.20950913,6.7124931 9.16547974,6.63839499 C9.11802584,6.55836903 9.10604006,6.46796934 9.09454349,6.38053357 C9.09026286,6.34852319 9.08616568,6.31645352 9.07992818,6.28556943 L9.05950343,6.18384755 L9.16627471,6.17969805 C9.19617801,6.17851248 9.22632591,6.17584495 9.25647382,6.17317742 C9.33572672,6.16618256 9.41760917,6.15889131 9.50047004,6.1748965 C9.57483079,6.18912333 9.63298628,6.23530128 9.67285734,6.26831939 C9.70202682,6.26239154 9.73205242,6.25486318 9.76140534,6.24757192 C9.87349684,6.2195332 9.9795343,6.19309499 10.0521828,6.25326266 C10.1402416,6.32611592 10.1934438,6.42451821 10.2549015,6.53845146 C10.2744701,6.57461134 10.2945279,6.61177895 10.3166649,6.64983574 C10.4450228,6.67283579 10.531614,6.722689 10.5807801,6.8017665 C10.6463961,6.90740076 10.6383852,7.05524131 10.5555244,7.2671619 C10.5365061,7.31606665 10.5410925,7.38115443 10.5470854,7.43450507 C10.5774168,7.43373445 10.6081762,7.43219321 10.6383241,7.43065197 C10.7825815,7.42330144 10.9073926,7.4167808 10.9769835,7.49787377 C11.0638804,7.59918071 11.0995931,7.70374796 11.0832656,7.80867088 C11.0611897,7.95076142 10.9478752,8.08200399 10.7268721,8.22178266 L10.6267052,8.07281582 C10.7959126,7.96581815 10.8885578,7.86800865 10.9018889,7.7821734 C10.9101444,7.72882276 10.888619,7.6730417 10.835906,7.61156991 C10.8151143,7.59959566 10.7145806,7.60481217 10.6480472,7.60819104 C10.5863449,7.61139208 10.5226246,7.61453384 10.4589655,7.61151063 L10.3718851,7.60724258 L10.3718851,7.52271146 C10.3718851,7.51132999 10.3696836,7.49579903 10.3674822,7.47754125 C10.3591044,7.40711841 10.3463848,7.30071353 10.3839932,7.20420815 C10.4435552,7.0516846 10.4568863,6.94717663 10.4235585,6.8935296 C10.3997704,6.85511714 10.3422264,6.83093151 10.2478078,6.81943149 L10.2032281,6.81403715 L10.1802961,6.77657314 C10.1467848,6.72168126 10.11786,6.66815279 10.0923596,6.62090783 C10.0395855,6.52315761 9.99751297,6.4452064 9.94003015,6.39440473 C9.91361251,6.39286349 9.85056487,6.40892796 9.80714699,6.41977593 C9.76238378,6.43097956 9.71156652,6.44366516 9.66166654,6.45113425 L9.62625957,6.45641003 L9.59653973,6.43702597 C9.58669427,6.43062389 9.57403582,6.42048727 9.5592982,6.40821662 C9.53392015,6.38711348 9.49563903,6.35522165 9.46475731,6.34929381 C9.40868098,6.33850512 9.34392108,6.34401802 9.27549207,6.35006443 C9.27579783,6.35273196 9.27616474,6.35534021 9.2764705,6.35800774 C9.28619366,6.43127595 9.2953053,6.50051323 9.32447477,6.54971437 C9.33609364,6.56281492 9.39938589,6.58053918 9.43338637,6.59002374 C9.46041552,6.59755211 9.48713892,6.60513976 9.51104932,6.61373514 C9.56363999,6.63264497 9.61928825,6.64859089 9.65989313,6.66026875 C9.67573148,6.66477391 9.68961297,6.66880485 9.70080378,6.67218373 L9.78984099,6.69927399 L9.76036576,6.78510924 C9.74324322,6.83496245 9.72263502,6.88878732 9.70355561,6.93852197 C9.69138638,6.97029524 9.67652646,7.00900409 9.66582487,7.03935468 C9.7599377,7.08440633 9.85918729,7.1192028 9.94859142,7.15056112 C9.98014582,7.16164619 10.0102937,7.17225704 10.0383625,7.18263078 L10.1548569,7.22560768 L10.0778666,7.3206311 C10.0636182,7.33817753 10.045823,7.35566468 10.0252759,7.37593793 C9.98491567,7.41559523 9.93085736,7.46888659 9.91660896,7.51607227 C9.93709485,7.5523507 10.0167147,7.62129158 10.0533447,7.63403646 C10.3922487,7.5680595 10.4845881,7.79130229 10.5527725,7.95455524 C10.5615173,7.9755991 10.5703843,7.9968208 10.5797405,8.01780539 C10.6457235,8.16511243 10.7188,8.30334986 10.7970134,8.42866458 C10.8635467,8.53536586 10.879385,8.62303874 10.8456292,8.69660334 C10.7954234,8.80573504 10.6533675,8.83211396 10.6066474,8.84076862 L10.5464739,8.85191298 L10.5127792,8.80229689 C10.4956566,8.77704425 10.4794514,8.75066532 10.4634907,8.72452351 C10.3696225,8.57105151 10.3298737,8.52096119 10.1857998,8.57881699 C10.1333926,8.59986085 10.0803738,8.60993819 10.0290674,8.61965987 C9.98253074,8.62849236 9.93862365,8.63679135 9.90223825,8.65238159 C9.85209366,8.67401824 9.82378032,8.71610596 9.82347456,8.76637412 C9.82310765,8.81604949 9.85050371,8.85801866 9.89679573,8.87870686 C9.90132097,8.88072232 9.90566276,8.88255996 9.91012685,8.88427903 C9.92614866,8.89050327 9.9605772,8.89275586 10.0350603,8.86868879 C10.0503482,8.86376868 10.0610498,8.86157537 10.0652693,8.86104187 L10.1328422,8.85250576 L10.1607275,8.91279199 C10.189102,8.97396738 10.2115447,9.03703969 10.2314191,9.09264292 C10.2519662,9.15032088 10.279668,9.22815354 10.2991143,9.24990874 C10.3656476,9.26330568 10.4568251,9.23271798 10.5306355,9.20793957 C10.5635353,9.19691377 10.5946616,9.18642148 10.6225469,9.18019724 L10.7962184,9.14131055 L10.6260326,9.53924704 C10.6393637,9.54553056 10.6526336,9.55193263 10.6658425,9.55833471 C10.7107891,9.58003064 10.784783,9.61583484 10.8130352,9.61666474 C11.0633912,9.48477011 11.2205517,9.60706163 11.3593054,9.71482992 C11.4451627,9.78157749 11.4649759,9.83741783 11.479469,9.87820143 C11.4902317,9.90855201 11.4951239,9.9223639 11.5439842,9.95241809 C11.5905209,9.9810496 11.6337553,10.0060058 11.6737487,10.0290059 C11.8932841,10.1558026 12.0520345,10.2473878 12.0911106,10.5851567 C12.0989992,10.6531491 12.1145318,10.7309817 12.1309817,10.8133788 C12.1998388,11.1586168 12.2942573,11.6314812 11.8469309,11.8109172 L11.7103787,11.8657498 L11.7202853,11.7227701 C11.7232817,11.6808009 11.7228537,11.6381204 11.7224256,11.5969219 C11.7215083,11.4991717 11.720591,11.4068751 11.7605844,11.3216919 C11.8041246,11.2292174 11.814765,11.1577869 11.7920776,11.1092378 C11.7681672,11.0578433 11.7018174,11.0168226 11.5892978,10.9838638 L11.5334661,10.9675029 L11.5250883,10.9114847 C11.5183004,10.8659589 11.5186062,10.8182397 11.518912,10.7720617 C11.5194012,10.7020538 11.5200127,10.6227392 11.4901094,10.5948191 C11.4680335,10.5743087 11.419907,10.5719376 11.3838273,10.5734195 L11.3717804,10.573953 C11.2478866,10.5793474 11.1581767,10.5832598 11.0490816,10.4525507 C11.028718,10.4281872 10.9623682,10.4108186 10.851622,10.4009191 C10.8411651,10.4147903 10.8297908,10.4342929 10.8247152,10.4472749 C10.844773,10.4976616 10.8759605,10.5491746 10.9142416,10.5958861 L11.1892419,10.7779303 L11.0918268,10.9284384 C11.0687726,10.915575 11.0445564,10.9039564 11.0203402,10.8922192 C11.008171,10.8863507 10.9958795,10.8803635 10.9835268,10.8742578 L10.8763886,11.400058 L10.7545739,11.2792485 C10.6880406,11.2132715 10.6655367,11.1685163 10.6506768,11.138877 C10.6477415,11.133127 10.6454177,11.1279105 10.6422378,11.1232275 L10.6228527,11.0943589 C10.5651252,11.0082865 10.5056855,10.9197244 10.4397638,10.8403506 C10.4266161,10.8454485 10.41249,10.8516727 10.4009934,10.857482 C10.3998927,10.9719488 10.4125511,11.0893202 10.438663,11.206988 C10.450343,11.259568 10.4822032,11.3138671 10.5033006,11.3497306 C10.5124734,11.3653801 10.5199951,11.3784807 10.5247649,11.3882023 L10.5580316,11.4566097 L10.4936998,11.4994681 C10.4456343,11.5314192 10.3955509,11.5579166 10.3514604,11.5812724 C10.3041288,11.6063472 10.232581,11.6441668 10.2234694,11.6640251 C10.1972963,11.7566181 10.2016381,11.8275152 10.2369839,11.8797988 C10.2870674,11.9538969 10.4059467,12.0030981 10.600471,12.0302476 L11.0583156,12.0942091 L10.6099496,12.2044671 C10.2487863,12.2932663 10.2489086,12.2950446 10.2562468,12.3879933 C10.2659088,12.5114111 10.3235751,12.654213 10.6861449,12.663164 L10.7387967,12.6644682 L11.0591106,13.2289179 C11.3089162,13.6690607 11.5551751,14.1030385 11.8010058,14.5372534 C11.9340113,14.7723519 11.9062483,15.0170535 11.7184507,15.2645412 C11.6614571,15.3397063 11.5936396,15.4056832 11.5077212,15.4892066 C11.4628356,15.5328356 11.4120184,15.5822739 11.3536794,15.6417302 L11.1954794,15.8030269 L11.1954794,15.5804955 C11.1954794,15.5012402 11.1965801,15.4306395 11.1974974,15.3659667 C11.1995766,15.2354354 11.2011053,15.1323501 11.192911,15.0305097 C11.1830655,14.9079811 11.1729143,14.7818364 11.1315756,14.6770321 C11.0956183,14.6805888 11.0408873,14.6903697 11.007376,14.6962976 C10.9675661,14.703411 10.9298965,14.7101688 10.9001767,14.713192 L10.730052,14.7306198 L10.8091826,14.5836092 C10.9238425,14.3706809 10.9230475,14.2852013 10.9021947,14.2510569 C10.882993,14.21958 10.8152978,14.181049 10.6019998,14.1764845 L10.5466573,14.1753582 L10.521952,14.1272834 C10.5178548,14.1193401 10.514308,14.1109225 10.5108835,14.1024457 C10.5096604,14.0995411 10.5086208,14.0965771 10.5073366,14.0938503 C10.4866673,14.0729843 10.4662425,14.0518219 10.4458178,14.0306595 C10.3787953,13.9612443 10.3148915,13.8951488 10.2449948,13.8387157 C10.2220017,13.8529426 10.1937495,13.8732158 10.1756486,13.8891617 C10.2022496,13.9891645 10.2495201,14.098474 10.3225967,14.2298945 C10.3509711,14.280874 10.3941444,14.3281189 10.4398861,14.3781499 C10.4623288,14.4026912 10.4847104,14.4272918 10.5058078,14.4524852 L10.5400529,14.4935059 L10.4573144,14.6882357 L10.3896192,14.6818929 C10.3652807,14.6795218 10.3319529,14.6796996 10.3001539,14.6798774 C10.1920984,14.6805295 10.0918092,14.6808852 10.0510821,14.6025783 C10.0172039,14.5371941 9.97916738,14.4979518 9.93819559,14.4859182 C9.89098629,14.4721656 9.82518681,14.48906 9.73700572,14.5376091 L9.66796519,14.5756066 L9.61928825,14.5149054 C9.6084032,14.5013899 9.60008654,14.4897121 9.59305407,14.4797533 C9.59048569,14.4761373 9.58834537,14.472877 9.58620505,14.4700909 C9.5591759,14.4543228 9.53226904,14.4380805 9.50536219,14.4218382 C9.42103367,14.3710365 9.34074118,14.322606 9.25708534,14.2882245 C9.22920005,14.3134771 9.19140816,14.3606628 9.18700522,14.3815881 C9.17342949,14.4712765 9.18590448,14.5698566 9.38128492,14.6185835 C9.47301282,14.6414057 9.53636622,14.7173415 9.5703667,14.7581251 C9.57464733,14.763223 9.578133,14.7675503 9.58088483,14.770455 L9.64582819,14.8268881 L9.58816191,14.8900197 C9.54725127,14.9389244 9.50114271,14.9839761 9.46047667,15.0236927 C9.40641836,15.0765098 9.33236337,15.1488296 9.33266913,15.181907 C9.3333418,15.2531597 9.3556011,15.3085258 9.39889667,15.3464048 C9.45032545,15.3912786 9.5293949,15.4101884 9.62931716,15.4012374 C9.69407706,15.3950724 9.75174334,15.4196137 9.8026829,15.4410725 C9.81992775,15.4483638 9.83717259,15.4557736 9.85429513,15.4612272 L9.98852363,15.5037891 L9.89373813,15.6053332 C9.82738828,15.6764081 9.76415718,15.6895679 9.72232926,15.6982819 C9.71450181,15.6998824 9.70704127,15.7011272 9.69994765,15.7036169 C9.67579264,15.7119752 9.64802966,15.7202149 9.61941055,15.7285732 C9.58076253,15.7399546 9.51227236,15.76005 9.48579357,15.7756403 C9.47594811,15.8473673 9.50640178,15.9538907 9.55189881,16.0001279 C9.58541008,16.0341538 9.65169877,16.0534193 9.72184004,16.0738111 C9.76819321,16.0873266 9.81619748,16.101257 9.86187797,16.1213524 C9.87728826,16.1281694 9.89379928,16.1347494 9.91067722,16.1415664 C9.99439422,16.1750587 10.0891797,16.2130562 10.1319861,16.2940307 C10.2324587,16.4843739 10.3238808,16.6818305 10.4123065,16.8728258 C10.4642857,16.9852771 10.516326,17.0977877 10.5703843,17.2092905 C10.6336154,17.3397624 10.7817254,17.6454023 10.4835485,17.889274 L10.4510157,17.9158308 L10.4091266,17.9090138 C10.3998927,17.9075318 10.3907199,17.9053385 10.3817306,17.9031452 C10.378673,17.9024338 10.3757377,17.9015447 10.3728024,17.9009519 L10.3438775,17.9056942 C10.2428545,17.9221143 10.1390797,17.9390087 10.0390351,17.962068 C10.0399524,17.973983 10.0411754,17.9860165 10.0427654,17.9961531 C10.1417704,18.0300604 10.2565526,18.0558466 10.3921876,18.0746971 C10.4318752,18.0802693 10.4812859,18.0694213 10.5077647,18.0636121 C10.5210347,18.0607074 10.5313082,18.0587512 10.5374846,18.0580399 L10.608115,18.0498594 L10.6339212,18.1141173 C10.6558135,18.1688314 10.6744037,18.2285248 10.6907313,18.2812234 C10.7051632,18.3275199 10.7239368,18.3879839 10.7383075,18.417801 C10.8256936,18.4206464 10.9200511,18.3957494 11.0120847,18.3715045 C11.054463,18.3604194 11.0954348,18.34969 11.134144,18.341806 L11.2507607,18.3180946 L11.2445844,18.4334505 C11.2436671,18.4500485 11.2402426,18.4722187 11.2359008,18.497827 C11.2277676,18.5460797 11.2157818,18.6168582 11.2305806,18.6643995 C11.2665379,18.6790413 11.3686005,18.689415 11.431587,18.6750104 C11.624766,18.6309665 11.7986209,18.6544407 11.921414,18.7411652 C12.0286133,18.8168045 12.0918444,18.9356579 12.1043194,19.0848618 C12.1438847,19.5592676 12.1495719,19.9470674 12.1221758,20.3053466 C12.1029129,20.5557982 12.0599231,20.8066648 12.0182787,21.0492916 C11.9875192,21.228609 11.9557814,21.4141507 11.9341947,21.5963728 C11.9343782,21.6119037 11.9637923,21.6520353 11.9868466,21.6817931 C12.0099008,21.6540507 12.0356458,21.6205584 12.0355847,21.6054424 C12.0332609,20.6683088 12.5436349,19.9249566 13.037131,19.2060271 L13.089844,19.1293207 L13.163899,19.169393 C13.2725048,19.2281972 13.4111363,19.2917438 13.5188248,19.2617488 C13.5823617,19.2440839 13.6367258,19.1942306 13.6849746,19.1092253 C13.7216047,19.0447303 13.7360977,18.9940472 13.7258853,18.966542 C13.7112088,18.9272403 13.6268192,18.8951707 13.5453036,18.864168 C13.4673961,18.8345881 13.3790315,18.8010364 13.303142,18.7467373 L13.1731329,18.6536701 L13.3222214,18.5931468 C13.3916288,18.5649302 13.4538203,18.5378992 13.5114866,18.5128244 C13.6304271,18.4610743 13.7331012,18.4164376 13.8423797,18.3863241 C13.9522698,18.3560328 14.0243067,18.3094992 14.0506021,18.2517027 C14.0705987,18.2075995 14.0646059,18.1540117 14.0327457,18.0923028 L14.0035762,18.0358697 L14.048951,17.990581 C14.0872321,17.9523463 14.1260636,17.9164829 14.1637943,17.8817457 C14.2426803,17.8089517 14.3123323,17.7446938 14.3603366,17.6739746 C14.333919,17.6445132 14.286037,17.6006471 14.2599251,17.5766986 C14.2311226,17.5503196 14.2054388,17.526549 14.1899673,17.5098917 L14.1382939,17.4541107 L14.1862371,17.3953064 C14.203115,17.3746775 14.2240289,17.352448 14.2465329,17.3286774 C14.2958213,17.2766309 14.3514696,17.2178859 14.3762361,17.1557027 C14.3717109,17.1386305 14.346394,17.0878289 14.2660403,17.0013416 C14.1910069,16.9206043 14.1084518,16.8476324 14.0211268,16.7703926 C13.9844357,16.7379672 13.9477445,16.7054826 13.911726,16.6725238 L13.4624428,16.2613089 L14.015562,16.52824 C14.4802556,16.7524905 14.6511141,16.647449 14.7665078,16.5003791 C14.8027709,16.4541419 14.8202603,16.4152552 14.8157351,16.390951 C14.8091918,16.3555024 14.7471838,16.3172085 14.6924528,16.2833605 C14.6582688,16.2622574 14.622923,16.2404429 14.5919801,16.2149532 L14.5009861,16.1399659 L14.5991961,16.0740482 C14.6302613,16.0532414 14.663956,16.0355765 14.69655,16.0185635 C14.7251079,16.0036253 14.7717057,15.9792619 14.7856483,15.9649758 L14.7872383,15.9569732 C14.8033824,15.8718493 14.7688315,15.7898671 14.6947154,15.7377021 C14.6262864,15.6895679 14.5431197,15.6809725 14.4691871,15.7138721 C14.4662518,15.7294623 14.4640503,15.7549521 14.4625215,15.7732099 C14.4594639,15.8100811 14.4559782,15.8519317 14.4445428,15.88904 C14.4235677,15.9574474 14.3976393,16.0230094 14.3700598,16.0923652 C14.3580128,16.1228937 14.3455378,16.1543113 14.3330017,16.1872701 L14.273562,16.3436468 L13.4679464,15.266201 L13.6081678,15.2391107 C13.6529922,15.230456 13.6995288,15.2194895 13.7475331,15.2082266 C13.863416,15.1809585 13.9947703,15.1501337 14.1277758,15.1453321 C14.2605978,15.1405899 14.4258915,15.0948269 14.4591581,14.9040094 C14.4670467,14.8587799 14.4172079,14.7802359 14.3874269,14.7332281 C14.3712217,14.7077383 14.3571567,14.6856867 14.3480451,14.6651171 L14.3245016,14.6125371 L14.3641892,14.5700937 C14.3979451,14.5338745 14.4358593,14.4980703 14.472367,14.4633924 C14.5563897,14.3839 14.6432255,14.3016807 14.6881721,14.2096805 C14.6786324,14.1798041 14.6275706,14.1103297 14.5929586,14.0633219 C14.5567566,14.0140615 14.5156625,13.9582804 14.4806225,13.9002468 L14.4605646,13.8670508 L14.5023314,13.7291098 C14.4800721,13.6186147 14.4465608,13.5200938 14.4025314,13.4355034 C14.3712828,13.436037 14.3249296,13.4427947 14.3041991,13.4518643 C14.2407234,13.5486068 14.2031761,13.6686457 14.1679526,13.7864914 C14.1709491,13.7914115 14.1746182,13.7969837 14.1774312,13.8013703 C14.1952264,13.8285791 14.2173022,13.8624271 14.2221332,13.9042777 C14.2302664,13.9757676 14.228065,14.0460719 14.2265362,14.0974663 C14.226047,14.1131751 14.2255577,14.1270463 14.2255577,14.1383685 L14.2255577,14.2223068 L14.1390889,14.2271084 C14.0798938,14.2303687 14.0173354,14.2287682 13.9620541,14.2273455 C13.9144779,14.2261006 13.8458042,14.2243223 13.813516,14.2290646 C13.775663,14.3105132 13.7626988,14.4102196 13.7490007,14.5152611 C13.7426409,14.5643437 13.7360977,14.6136041 13.7272306,14.6617975 L13.7109642,14.7490554 L13.6208263,14.7335838 C13.5238393,14.7169265 13.4193306,14.7523158 13.3721825,14.8175814 C13.3395885,14.8628109 13.3401389,14.9142646 13.3737724,14.9705792 C13.4803603,15.1488296 13.4902669,15.3026572 13.4048376,15.4546473 C13.2551988,15.7210448 13.0651386,16.2138269 13.0190301,16.5454307 C12.9699862,16.8980784 12.9045536,16.9867591 12.8018796,17.1022928 C12.6952917,17.2221539 12.5493832,17.3862961 12.3492329,18.3257415 C12.336391,18.3866205 12.2828831,18.4287083 12.2189793,18.4287083 C12.2181843,18.4287083 12.2173894,18.4287083 12.2166555,18.4287083 C12.1520179,18.4277005 12.0991827,18.3838937 12.0881753,18.3221255 C11.9316875,17.4435591 11.8381862,14.9720018 12.1063374,14.3977119 L12.1372192,14.3313792 L12.2103569,14.3476808 C12.3702692,14.3831293 12.4849291,14.3799283 12.5513401,14.3383148 C12.5925565,14.3124101 12.6188518,14.2690183 12.6317549,14.2056496 C12.6271073,14.1803969 12.5462033,14.0995411 12.4926342,14.0460719 C12.4445688,13.9980563 12.3900824,13.9436386 12.3424451,13.8857828 L12.2484545,13.7715532 L12.3963199,13.7431588 C12.436191,13.7354526 12.4769182,13.7256124 12.5182569,13.7157129 C12.6200748,13.6912308 12.7253785,13.6658596 12.8363081,13.6646741 C12.950173,13.6634292 13.0252064,13.6430967 13.0593903,13.6041507 C13.0866641,13.5730888 13.0945527,13.5193232 13.0828727,13.4443359 L13.0732107,13.3825085 L13.1300208,13.35281 C13.1544816,13.3400058 13.1790647,13.3280315 13.2034643,13.3165315 C13.3572614,13.2443303 13.4497843,13.0845155 13.4337013,12.9188322 L13.4309495,12.8904378 L13.4640939,12.8353088 C13.5210875,12.740641 13.5797933,12.6432465 13.6288983,12.5443699 C13.6148945,12.5343519 13.5994842,12.5240967 13.5863366,12.5162127 C13.4933245,12.5796406 13.4001289,12.6593702 13.3024081,12.7587802 C13.2673681,12.7944659 13.2385655,12.8433706 13.2052377,12.9000409 C13.1871367,12.9307471 13.167935,12.9631725 13.1459203,12.997139 L13.0722934,13.1107166 L12.753753,12.6682027 C12.7371197,12.6949373 12.7207309,12.7209606 12.7048314,12.7462132 C12.6773742,12.7899014 12.650712,12.8321077 12.6263123,12.8727728 L12.4553315,13.1572502 L12.4553315,10.4510687 L12.5501782,10.4542105 C12.7103351,10.4595456 12.9045536,10.4555146 12.9858857,10.3768521 C13.0208646,10.343004 13.0367641,10.2924988 13.0345015,10.2223723 C13.0300986,10.1922589 12.9270576,10.1176865 12.8654776,10.0731684 C12.8096458,10.0327997 12.7463536,9.98697745 12.6885039,9.93576084 L12.5872974,9.84607249 L12.7114358,9.78963937 C12.739688,9.77677594 12.7707532,9.76379395 12.8033472,9.75010062 C12.8782583,9.71880158 12.9631372,9.68329376 13.0373757,9.63830139 C13.1322835,9.58086054 13.2370979,9.51737328 13.2783143,9.44321589 C13.278192,9.42128285 13.2512851,9.36490901 13.2381986,9.33728523 C13.2253567,9.31019496 13.2131263,9.28464594 13.20536,9.26063815 L13.1865864,9.20248595 L13.2358137,9.16454772 C13.2638213,9.14297035 13.295926,9.12145226 13.3295596,9.09904499 C13.4025139,9.05043663 13.4779142,9.00022775 13.5213932,8.93798534 C13.5171737,8.91255487 13.4893496,8.85452123 13.4703925,8.81504176 C13.4498455,8.77230197 13.4266077,8.72381217 13.4086902,8.67472958 L13.3972548,8.64348982 L13.4097298,8.61260573 C13.414255,8.60140209 13.4221436,8.58634536 13.4319279,8.56873965 C13.4498455,8.53619576 13.4768746,8.48705389 13.4758962,8.45047906 C13.4744285,8.39861039 13.446849,8.35427008 13.4020858,8.32931384 C13.3602579,8.30607667 13.3126205,8.30506893 13.2714653,8.32676486 C13.2548319,8.33553808 13.2410116,8.34454841 13.2292704,8.35444791 C13.2117198,8.36944537 13.2019967,8.45059762 13.1973491,8.48960287 C13.1952088,8.50685291 13.1931908,8.523688 13.1908059,8.53963391 C13.1810215,8.60537375 13.1782697,8.67206205 13.1758236,8.73092559 C13.1748452,8.75422203 13.1739891,8.77562157 13.172766,8.79435357 L13.1670178,8.88250068 L13.0760848,8.87758056 C13.0176236,8.8744388 12.9608746,8.86572487 12.9107911,8.85801866 C12.8608912,8.85037174 12.7854908,8.83887171 12.7653107,8.84669647 C12.6741332,8.92358067 12.6676511,8.98149575 12.6711367,9.01812986 C12.6808599,9.12127443 12.6355463,9.22003238 12.5499336,9.28233407 C12.4637094,9.34487288 12.3525351,9.35945539 12.2523683,9.32122076 L12.1980042,9.30035473 L12.1896875,9.25044225 C12.1839392,9.21570506 12.1765399,9.17830033 12.1688347,9.13888014 C12.1491438,9.03881805 12.1268233,8.9254183 12.1205247,8.80881752 C12.1102512,8.61776295 12.0948409,8.33227776 12.4934292,8.3032313 C12.5739051,8.29730345 12.632611,8.22711772 12.6529746,8.16434181 C12.6637373,8.13138297 12.6674676,8.08591637 12.6425176,8.06617663 C12.6049703,8.03635955 12.5445522,8.02017653 12.4805873,8.00298576 C12.4472595,7.99403471 12.4128309,7.98478727 12.3790751,7.97299085 L12.2617857,7.9317923 L12.3372471,7.83552404 C12.4021905,7.75277127 12.4825441,7.71222478 12.5471206,7.67968089 C12.5826499,7.66171951 12.613287,7.64624783 12.6355463,7.62739727 C12.8086063,7.48086085 12.9736553,7.31713367 13.133323,7.15880083 L13.1974103,7.09543212 C13.1919677,7.07812281 13.1874425,7.05773101 13.1889101,7.03591652 C13.1914174,7.0001716 13.1966153,6.96567152 13.2016909,6.93229773 C13.2091514,6.88291875 13.2162451,6.83632586 13.213004,6.79411957 C13.2089068,6.74124316 13.1776582,6.70117091 13.1290424,6.68362447 C13.0823835,6.66678938 13.0334619,6.67668889 12.9986665,6.71029979 L12.9912671,6.71759105 C12.9668063,6.74272513 12.9534752,6.79921752 12.9405721,6.85387229 C12.9328058,6.88683113 12.9247949,6.92085698 12.9133595,6.95488283 L12.8777079,7.06158411 L12.778703,7.00360975 C12.5120194,6.84752949 12.3669058,6.69227913 12.3219592,6.51485862 C12.2792751,6.34632988 12.3266679,6.1605511 12.4711699,5.93031346 C12.5225375,5.84833131 12.5320161,5.76314812 12.4970372,5.6965191 C12.4637094,5.63279473 12.3925896,5.59201113 12.3021459,5.58460132 C12.223688,5.57813997 12.1594785,5.53640791 12.0915387,5.49218616 C12.0624304,5.47327632 12.0323436,5.45371442 12.0001165,5.43634582 L11.8804422,5.37161372 L11.9877638,5.28903878 C12.0946574,5.20676024 12.2049144,5.11084765 12.2118857,5.02353044 C12.2157383,4.97610765 12.1893818,4.92329052 12.1314097,4.86223368 C12.0714808,4.7993392 12.1070101,4.68220491 12.1392983,4.63353727 C12.193112,4.55256286 12.2139037,4.48765292 12.1978819,4.45090025 C12.1821658,4.41474038 12.1213197,4.3846269 12.0266565,4.36607274 L11.9356624,4.34817063 L11.955231,4.26014208 C11.9583498,4.24591524 11.9624469,4.23251831 11.9664218,4.21977343 C11.9687456,4.21236362 11.9714363,4.20554659 11.9724759,4.19902596 C11.9518065,4.08349219 11.9291803,3.96214913 11.8987878,3.84471844 C11.8745105,3.84708958 11.8493159,3.85141691 11.8392869,3.85681125 C11.7123967,3.95574705 11.685551,4.05628336 11.7522066,4.19090481 C11.7892035,4.26571426 11.7940345,4.34858558 11.7972144,4.40341818 C11.7980094,4.41723007 11.7984986,4.42902649 11.7998439,4.43762187 L11.8101175,4.50193903 L11.749944,4.53080765 C11.696008,4.55671235 11.6418273,4.57651137 11.5940065,4.59399852 C11.5473476,4.61107073 11.4769006,4.63685687 11.4636918,4.65298062 C11.4273675,4.74824114 11.4252883,4.829097 11.4595946,4.88920539 C11.5031959,4.96567464 11.6132694,5.02329333 11.7779516,5.05589649 L12.0146095,5.10278578 L11.7438288,5.25459798 C11.6703241,5.29579653 11.6199961,5.36610082 11.6057477,5.44749018 C11.5922943,5.52478933 11.6130859,5.59918383 11.6644536,5.65698035 C11.6661658,5.65887727 11.6676335,5.66053706 11.6689788,5.66190047 C12.0728873,5.6191014 12.1607627,5.91721291 12.2186735,6.11549945 L12.2265621,6.14241189 C12.3000056,6.39067019 12.345625,6.64853161 12.3898378,6.89791621 C12.408428,7.00295768 12.4270182,7.10799916 12.4476875,7.21250714 L12.4755728,7.35388633 L12.2821493,7.30095064 L11.8744493,7.79082806 L11.823999,7.63030191 C11.8210637,7.62099519 11.8152542,7.60961372 11.809139,7.59669101 C11.7838221,7.54310326 11.7492101,7.46965721 11.7660269,7.39235807 C11.8388589,7.0588573 11.6815149,6.81320725 11.4993433,6.52872979 L11.4521952,6.45469096 C11.2804806,6.1834326 11.1632523,5.87874117 11.0498155,5.58400854 C11.0104948,5.48181242 10.9698287,5.37617816 10.927695,5.27421916 C10.9037235,5.21612624 10.8533343,5.0691156 10.9041516,4.96004318 C10.9344829,4.89489612 11.0268223,4.69672814 11.0091494,4.6557667 C10.9955737,4.64355534 10.9308138,4.62962489 10.7049797,4.64041358 L10.5900141,4.6458672 L10.610133,4.53602416 C10.6131295,4.51960402 10.6150864,4.50318388 10.6170432,4.48700085 C10.6223634,4.44414251 10.6282952,4.3956527 10.6502487,4.34983043 C10.6677993,4.31325561 10.6975192,4.28326069 10.7236922,4.25682249 C10.7282174,4.25231732 10.7337211,4.24668586 10.7387967,4.24146936 C10.7161705,4.15350008 10.7176382,4.06446379 10.7189835,3.97809504 C10.7217353,3.80434979 10.7174547,3.69314335 10.599248,3.59989829 C10.5535064,3.56379769 10.53565,3.51181046 10.5213404,3.47001913 C10.5145526,3.45022011 10.5061748,3.42561954 10.4982862,3.41660921 C10.4666095,3.38015294 10.4295514,3.34677915 10.3899249,3.31287186 C10.3616727,3.38560656 10.3363558,3.45454744 10.3327479,3.52034656 C10.3319529,3.53890073 10.3728024,3.58875393 10.3882127,3.60748594 C10.4025834,3.62509165 10.4151195,3.64026694 10.4246592,3.65603502 L10.4625734,3.71815887 L10.4075367,3.76688579 C10.3689498,3.80114875 10.3249816,3.83458182 10.2861501,3.86404323 C10.2572864,3.88597627 10.2171707,3.91650469 10.1950337,3.93689649 C10.2238363,4.00998687 10.2745312,4.08100249 10.3237585,4.15000265 C10.3470574,4.18254654 10.3697448,4.21449765 10.3899861,4.24591524 L10.4251484,4.30057001 L10.3825255,4.34994899 C10.3696225,4.36494645 10.352928,4.37964751 10.3335428,4.39666044 C10.310672,4.41681512 10.2498258,4.47028432 10.2476855,4.49334365 C10.2480524,4.52458341 10.3071864,4.61332331 10.3422876,4.63768677 C10.6480472,4.62191869 10.7333542,4.83040113 10.7954234,4.98351746 C10.8079596,5.01446083 10.8204346,5.04534492 10.834683,5.07445066 C10.9146697,5.23835568 10.9298354,5.40884061 10.9444507,5.57375336 C10.9579041,5.72598051 10.9706849,5.86979012 11.0321426,6.003226 L11.1620293,6.28545088 L10.8973025,6.11336543 C10.7224692,5.99972857 10.6177159,5.88372057 10.5164483,5.77162495 C10.4811025,5.73244187 10.4464905,5.69414797 10.4095547,5.6568618 L10.468016,5.77897548 L10.4207455,5.82290084 C10.3763492,5.86427722 10.3245535,5.90583144 10.2745312,5.94602226 C10.2309299,5.98105584 10.1689218,6.03084977 10.1409754,6.06042974 C10.1642743,6.10891954 10.1932603,6.1401593 10.2289119,6.15551243 C10.3171541,6.19350994 10.4585374,6.13903301 10.5620676,6.09919787 L10.6803355,6.05361271 L10.6875514,6.17685269 C10.6900586,6.22083732 10.6879183,6.2658297 10.6859614,6.30934011 C10.6839434,6.35207989 10.6810081,6.41515221 10.6880406,6.43868576 C10.7270555,6.46263427 10.8021501,6.46435335 10.8577372,6.46565748 C10.8867233,6.46630954 10.9117955,6.46690232 10.9344218,6.46998481 L11.0506716,6.48593072 L11.006581,6.59144643 C10.994901,6.61942587 10.9776562,6.65220688 10.9593718,6.68694407 C10.944573,6.71516063 10.9199899,6.76187208 10.9076984,6.79222266 C10.9569868,6.82790831 11.0270669,6.85244961 11.1005716,6.87817647 C11.1331044,6.88955794 11.1655149,6.90093941 11.1965801,6.91332861 C11.2126631,6.91973069 11.2383469,6.92471008 11.2632969,6.92945236 C11.328974,6.94213796 11.4035183,6.95648335 11.439659,7.02074123 C11.4680947,7.0712465 11.4973865,7.12169249 11.5266171,7.17219777 C11.6525289,7.38933486 11.7826603,7.61388177 11.8572656,7.85556017 L11.6815149,7.90659894 C11.612719,7.68377111 11.4876633,7.46799742 11.3667048,7.25933714 C11.3392476,7.21185507 11.3117904,7.16449156 11.2849447,7.11706877 C11.2716135,7.11238577 11.2456851,7.10740638 11.227523,7.10390895 C11.1955405,7.09774399 11.1593386,7.0908084 11.1267446,7.07776714 C11.0980643,7.06632639 11.0682222,7.05595265 11.0382577,7.04540108 C10.9342383,7.00906337 10.8266721,6.97142153 10.7487033,6.89281826 C10.6875514,6.83110935 10.723203,6.74634111 10.7780563,6.64041046 C10.7075481,6.63531251 10.6295794,6.62102639 10.5680605,6.57395927 C10.4947393,6.51776327 10.4973077,6.41752334 10.502261,6.31040712 C10.3916983,6.34532215 10.2670707,6.36648457 10.15449,6.31805404 C10.0658808,6.27993798 9.99922522,6.20418007 9.95641886,6.09303291 C9.92033922,5.99949145 10.0146967,5.92373355 10.1575476,5.80902967 C10.1872063,5.785259 10.2174765,5.76089554 10.2456675,5.73700631 L10.0978021,5.42816539 L10.253495,5.30599243 L10.3096936,5.34250798 C10.4623288,5.44174017 10.5600496,5.54986413 10.6544682,5.65443138 C10.6968465,5.70137994 10.7382464,5.74714293 10.7841103,5.79219458 C10.7736533,5.72402432 10.7675993,5.6560319 10.7617287,5.58898793 C10.7478472,5.43290767 10.7347607,5.28548207 10.6689001,5.15050496 C10.6528783,5.11784251 10.6388133,5.08328315 10.6247484,5.04866452 C10.5589489,4.88659713 10.5160814,4.80254024 10.3405753,4.81599646 C10.2968517,4.81949389 10.2525165,4.80034694 10.2061634,4.7580221 C10.1502705,4.7070426 10.0623952,4.58907841 10.0642297,4.48978694 C10.0660643,4.40086921 10.1373674,4.32997214 10.1933826,4.27988182 C10.1866559,4.27039726 10.1798069,4.26079414 10.1729579,4.25119103 C10.111439,4.16505939 10.041787,4.06742772 10.0081534,3.95574705 C9.98210268,3.86914118 10.0621506,3.80832145 10.1729579,3.72408672 C10.1886128,3.71217175 10.2045734,3.70007893 10.2202283,3.68786757 C10.184271,3.64139323 10.1456841,3.58015855 10.1495367,3.51080272 C10.1550403,3.41240044 10.1905696,3.3212894 10.2248759,3.23314229 C10.2379624,3.19964994 10.2510489,3.1661576 10.2621785,3.13260598 L10.3059022,3 L10.4116339,3.09425279 C10.433037,3.11334047 10.4551129,3.13195391 10.4771276,3.15050808 C10.5321643,3.19698241 10.5890968,3.24499799 10.6386299,3.30208317 C10.6691447,3.33723531 10.6830873,3.37795963 10.6955012,3.41394168 C10.7011883,3.43077677 10.709933,3.45626652 10.7159259,3.46272787 C10.9083099,3.61430296 10.9051911,3.80903279 10.9024393,3.98082185 C10.9010328,4.06778339 10.8996875,4.14994337 10.9233533,4.220959 C10.9459795,4.28912926 10.8940615,4.34165 10.856025,4.3799439 C10.8430608,4.39310373 10.8212907,4.41503677 10.8166431,4.42475844 C10.812179,4.43406516 10.8089991,4.44568375 10.8064308,4.45866573 C10.9750266,4.45510903 11.1006327,4.4700472 11.1612343,4.55641596 C11.2352893,4.66175383 11.1737093,4.81362532 11.0713409,5.03325211 C11.0596609,5.05838619 11.0649811,5.12821625 11.0980643,5.20812365 C11.1409318,5.31203884 11.1820259,5.41868084 11.2217136,5.52188468 C11.3320928,5.80861472 11.4461412,6.10512572 11.6084995,6.36174229 L11.6552196,6.43495122 C11.839715,6.72310395 12.0305702,7.02103762 11.947587,7.41968545 L12.2153713,7.09792182 L12.2406882,7.1048574 C12.2298644,7.04599387 12.2194074,6.98695249 12.2090115,6.9279704 C12.1656548,6.68332808 12.1208305,6.4303275 12.0502,6.19143519 L12.0421279,6.16392998 C11.9771846,5.94151709 11.9247773,5.80707348 11.670263,5.8409215 C11.6198738,5.84785708 11.5714415,5.82479775 11.5253941,5.77298835 C11.4391087,5.67583091 11.4024175,5.5463667 11.4248603,5.41779166 C11.4410655,5.3250801 11.4858288,5.24108249 11.5519952,5.17569832 C11.4325043,5.12774202 11.3477477,5.06069805 11.2990707,4.97527775 C11.2375519,4.86750946 11.2358396,4.73674112 11.2940563,4.58652943 C11.3268337,4.50170192 11.4206408,4.46737967 11.5292466,4.42766309 C11.5568262,4.41752646 11.584956,4.40721201 11.6129636,4.39588982 C11.6103341,4.35504694 11.6053196,4.30531229 11.5867906,4.26778901 C11.5146925,4.12214176 11.4805085,3.90814642 11.7272566,3.7161434 C11.7977648,3.6613108 11.9517454,3.65846544 11.9952855,3.67215877 L12.0423114,3.68680055 L12.0585778,3.73481613 C12.1004669,3.88034481 12.1287191,4.03109001 12.154036,4.17294343 C12.1566655,4.18782233 12.1566655,4.20193061 12.155259,4.21526827 C12.2641094,4.25059824 12.3337003,4.30549012 12.3669058,4.38172226 C12.4089784,4.47834619 12.3849457,4.59216089 12.2935235,4.72974626 C12.2897932,4.73555555 12.2853903,4.74930816 12.2833111,4.76027468 C12.3658663,4.85328262 12.402374,4.94409727 12.3948523,5.03734233 C12.3852514,5.15637353 12.3030021,5.25744335 12.1997164,5.34843583 C12.2451523,5.37795651 12.2877752,5.40492823 12.3176174,5.40735864 C12.472821,5.42010352 12.5978767,5.49615782 12.6606186,5.61595964 C12.7249504,5.73872539 12.7130258,5.88698088 12.6278411,6.02272862 C12.5104294,6.20993008 12.4698245,6.35285052 12.5000948,6.4724745 C12.5271239,6.57899794 12.613287,6.67994921 12.7686129,6.78552419 C12.7853685,6.71693898 12.8062825,6.64853161 12.857589,6.59577376 L12.8690244,6.58445156 C12.955004,6.50158024 13.0790813,6.47585338 13.1931296,6.51699265 C13.3089514,6.55878398 13.386492,6.65866823 13.395726,6.77758088 C13.4006793,6.84284649 13.3917511,6.90147291 13.3831898,6.95814315 C13.3789092,6.98618187 13.3745674,7.0142206 13.372366,7.04225932 C13.3736501,7.04712016 13.3757905,7.05215883 13.3775027,7.05696039 C13.3873482,7.08440633 13.4078341,7.14137295 13.3618478,7.18678027 L13.2644939,7.28310782 C13.1024413,7.44393035 12.9348239,7.61020651 12.7562602,7.76130737 C12.7174899,7.79420693 12.6739497,7.81613997 12.6318772,7.83742095 C12.6219706,7.84234106 12.6123086,7.84726118 12.6027077,7.85224057 C12.6579279,7.86937205 12.7119251,7.89136437 12.7587674,7.92859126 C12.8388153,7.9921378 12.8653553,8.10298857 12.8279914,8.217811 C12.7883038,8.33980613 12.6737051,8.46838117 12.5071884,8.48053326 C12.2958473,8.49600494 12.292117,8.58344071 12.3036136,8.79737677 C12.3093619,8.90401877 12.3304593,9.01107572 12.3490495,9.10556563 C12.3529632,9.12566103 12.3568158,9.14534149 12.3604849,9.16436989 C12.3881256,9.16561473 12.4160108,9.15731575 12.4398601,9.14006571 C12.4746555,9.11475379 12.4923896,9.0761635 12.4884147,9.03431288 C12.4774074,8.91717859 12.5317715,8.80780978 12.6499781,8.7091111 C12.7218317,8.649062 12.8226101,8.6644744 12.9394714,8.68243578 C12.9574501,8.68516259 12.9756733,8.68794868 12.9938966,8.69049766 C12.9963427,8.6372063 13.000073,8.57573451 13.0092458,8.51420344 C13.0114472,8.49985804 13.0132206,8.48462347 13.0150552,8.46903323 C13.0257568,8.38029333 13.0378037,8.27969774 13.1092903,8.21988575 C13.1311216,8.20162797 13.15546,8.18550423 13.1837734,8.17056605 C13.2807604,8.11940871 13.396521,8.12112779 13.4935079,8.17513049 C13.5939806,8.23114866 13.6559886,8.33121075 13.6592297,8.44283214 C13.6613088,8.52801533 13.6221105,8.60086859 13.5952036,8.64977334 C13.6078621,8.67994609 13.6224774,8.71035595 13.6367258,8.74005447 C13.6889495,8.84888978 13.7340185,8.9427869 13.6839962,9.02180512 C13.6213155,9.1205038 13.5214544,9.18701427 13.4333956,9.24564069 C13.4239782,9.25192421 13.4146219,9.25814845 13.4055103,9.26425414 C13.4422015,9.34143473 13.4872093,9.4371102 13.4441583,9.5195073 C13.3815387,9.63960552 13.2515297,9.71832735 13.1368699,9.78774246 C13.0655667,9.83095647 12.9920621,9.86427098 12.9238777,9.89325816 C12.9410002,9.90594376 12.9581227,9.91833296 12.9751841,9.93066289 C13.1034197,10.0234337 13.2141659,10.103519 13.217835,10.2168001 C13.2183242,10.2322718 13.2181408,10.2472693 13.2174681,10.2619704 C13.2555046,10.2181636 13.3043038,10.1699109 13.3644774,10.1148411 C13.3877151,10.0936195 13.3973771,10.003694 13.4020246,9.96047997 C13.4051434,9.93143351 13.4077729,9.90315767 13.4100355,9.87458544 C13.4254458,9.67825509 13.592146,9.58506931 13.7466769,9.5939018 C13.8979057,9.60279358 14.0462603,9.71216239 14.0373932,9.90386901 C14.0368429,9.91661389 14.0358033,9.92995155 14.0342133,9.94382271 C14.0332349,9.95425573 14.0431415,9.98265012 14.0554942,9.99486149 C14.1503409,10.0886993 14.2556445,10.2141326 14.2281261,10.3520144 C14.207151,10.4569373 14.1139555,10.5322803 14.0098749,10.5889505 C14.0924911,10.6832033 14.1072288,10.7683272 14.1019085,10.8289098 C14.0947538,10.9089358 14.0458322,11.0251809 13.8526532,11.1244723 C13.7897891,11.1567791 13.7312667,11.20189 13.6647945,11.2542922 C13.6807552,11.2572562 13.6970216,11.2598644 13.7130434,11.2624134 C13.8027533,11.2769366 13.9044489,11.2933568 13.9613202,11.3756353 C14.001069,11.433254 14.0090187,11.5098418 13.9853529,11.6099039 C13.8934416,11.9990671 13.6307329,12.0394951 13.4265466,12.0048172 C13.4042873,12.0033352 13.3448476,12.0316703 13.3276027,12.0561523 C13.2254179,12.2018588 13.1331396,12.3518927 13.0354188,12.510759 C13.0093069,12.5532617 12.9830116,12.5960015 12.9563493,12.6389784 L13.061653,12.7852184 C13.0938189,12.7311565 13.1262294,12.6802955 13.1695861,12.636133 C13.2895662,12.5140194 13.4046542,12.4184032 13.5214544,12.3439494 C13.5443863,12.3292483 13.6053548,12.2904802 13.7734615,12.4284805 C13.7973719,12.4482202 13.8535705,12.4943389 13.8236672,12.5597231 C13.7658175,12.6871718 13.6929244,12.8080407 13.6224774,12.9249971 L13.6183802,12.9318141 C13.6282868,13.1602142 13.4966267,13.3764621 13.2835733,13.4765834 C13.2793539,13.4784803 13.2751955,13.4804958 13.2710372,13.482452 C13.2758682,13.5810914 13.2520801,13.6589833 13.1991225,13.7193881 C13.128064,13.8003625 13.0100407,13.8406719 12.8383261,13.8425095 C12.7561991,13.8433987 12.6696079,13.8626642 12.5850959,13.8828782 C12.5981825,13.8960973 12.6113301,13.9091978 12.6242943,13.9222391 C12.7366916,14.0345126 12.8338009,14.1314329 12.811725,14.2400311 C12.7889765,14.3515932 12.7349793,14.4348202 12.6512012,14.4875188 C12.5542142,14.5485163 12.4218203,14.5646401 12.2477819,14.5361864 C12.0529518,15.1154558 12.1066432,17.0476973 12.2293751,18.0249625 C12.4106906,17.2698138 12.5548257,17.1076872 12.6628812,16.9861663 C12.7412168,16.8980784 12.7929514,16.839867 12.8372254,16.52166 C12.8867584,16.1652778 13.0828727,15.6560756 13.2437023,15.3696419 C13.2831453,15.2994562 13.3069334,15.2133838 13.2150832,15.0597933 C13.1454923,14.9434296 13.1479384,14.8179963 13.221871,14.7156224 C13.2942749,14.6153232 13.422694,14.5548591 13.5591851,14.5515988 C13.561937,14.5320962 13.5644442,14.5125343 13.5670126,14.4929724 C13.5830955,14.3688432 13.5998511,14.2405053 13.660575,14.1274612 C13.7060109,14.0427523 13.8210377,14.0457755 13.9670074,14.0495693 C13.9925689,14.0502214 14.0184973,14.0509327 14.0442423,14.0511105 C14.0449761,14.0119867 14.0446703,13.9668758 14.0397782,13.9238396 C14.038494,13.9211128 14.028832,13.9062932 14.0224722,13.896453 C13.9997848,13.8617158 13.9687196,13.8141151 13.9858422,13.7565557 C14.0258355,13.6225271 14.0711491,13.4706556 14.1574345,13.3444517 C14.2204821,13.2520958 14.4180029,13.2580829 14.4202044,13.2580829 C14.4456436,13.2590314 14.5131553,13.2614618 14.5446485,13.3158202 C14.610448,13.4295756 14.6582688,13.5648491 14.6868268,13.7178469 L14.6907405,13.7385351 L14.6591861,13.8425688 C14.6853591,13.8825818 14.7142229,13.9218242 14.7422916,13.9600588 C14.8320015,14.0819353 14.9027543,14.1781443 14.8609264,14.2709152 C14.8032601,14.3987789 14.6956327,14.5006786 14.6006026,14.5906633 C14.5815843,14.6086247 14.5632387,14.6260526 14.545627,14.6432433 C14.5917355,14.7158595 14.6591861,14.824102 14.6401067,14.9335894 C14.5987069,15.171059 14.4144561,15.313031 14.1346248,15.323049 C14.0200261,15.3271985 13.9034094,15.3545852 13.7907675,15.3810234 C13.787771,15.3817347 13.7848358,15.3824461 13.7819005,15.3831574 L14.2215217,15.9710222 C14.2391335,15.9257927 14.2553387,15.8819266 14.268731,15.8383569 C14.2746628,15.8190914 14.2772311,15.7884444 14.2796772,15.7588052 C14.2857313,15.6863669 14.2926414,15.6043255 14.3632719,15.5667429 C14.5067955,15.4913407 14.6731288,15.5027221 14.8025263,15.5938332 C14.9331468,15.6858334 14.9965002,15.8372899 14.9676976,15.9891614 L14.9641508,16.0070042 C14.9499636,16.0758265 14.8897901,16.11744 14.8236848,16.1537778 C14.8983513,16.2013784 14.9783381,16.261961 14.9963779,16.3596519 C15.0105651,16.436714 14.9831691,16.5179255 14.9125386,16.6079695 C14.7507917,16.8143179 14.5507637,16.8580655 14.3511027,16.8291968 C14.3684698,16.8466247 14.3855924,16.8642897 14.402348,16.8823696 C14.5745518,17.0676742 14.5703935,17.1562955 14.5522925,17.2068601 C14.5171302,17.304966 14.4439925,17.3830357 14.3844305,17.4460488 C14.3849197,17.446523 14.3854089,17.4469972 14.3858981,17.4474122 C14.505389,17.5569588 14.5916744,17.6360363 14.5438536,17.7225236 C14.4827628,17.833078 14.3892615,17.9192689 14.2902565,18.0105578 C14.2681195,18.0309496 14.2456767,18.0516971 14.2231117,18.0730966 C14.2545438,18.1615994 14.2530761,18.2471383 14.2184641,18.3233704 C14.184219,18.3985948 14.0999517,18.5002574 13.8925243,18.5574019 C13.7960877,18.5839586 13.6990396,18.6261649 13.5866423,18.6750104 C13.5810775,18.6774408 13.5754515,18.6798712 13.5697644,18.6823609 C13.5839516,18.6878738 13.5981389,18.6932681 13.6122038,18.6986032 C13.731817,18.7440105 13.8554051,18.7910184 13.8983337,18.9060779 C13.9281147,18.9856889 13.9108699,19.0801788 13.8457431,19.194942 C13.7737061,19.3217387 13.6807552,19.4017646 13.5694586,19.432708 C13.4261185,19.4724839 13.2762963,19.4240533 13.1496506,19.3632336 C12.6644712,20.0706038 12.2169001,20.7456672 12.2190405,21.6050867 C12.2191628,21.6883137 12.1616188,21.7560097 12.1108627,21.8157032 C12.0917221,21.838229 12.0736823,21.8594507 12.0606569,21.8789533 L11.9798752,22 Z" id="Fill-1" stroke="#000000" stroke-width="0.1" fill="#000000"></path>
    </g>
</svg>