<?xml version="1.0" encoding="UTF-8"?>
<svg width="24px" height="24px" viewBox="0 0 24 24" version="1.1" xmlns="http://www.w3.org/2000/svg" xmlns:xlink="http://www.w3.org/1999/xlink">
    <!-- Generator: Sketch 57.1 (83088) - https://sketch.com -->
    <title>crops-beans</title>
    <desc>Created with Sketch.</desc>
    <g id="crops-beans" stroke="none" stroke-width="1" fill="none" fill-rule="evenodd">
        <path d="M16.92924,3.97193875 C17.4821456,4.47798081 18.1174709,5.38206814 18.1990876,6.92487929 C19.6121187,7.32182256 20.8619739,8.40143772 21.5172998,9.96664167 C21.5373045,9.98816609 21.5373045,10.0320745 21.5581081,10.0544585 C21.8859951,10.8770952 22.0355952,11.7698424 21.9928587,12.6389254 L21.9677893,12.9635391 L21.967861,13.0514397 C21.9470561,13.0953481 21.9470561,13.140116 21.9286524,13.1840245 C21.5806283,16.159446 19.2448314,19.0245785 15.4761748,20.7653984 C13.673373,21.6031008 11.9322692,22 10.3551608,22 C8.63388559,22 7.09762236,21.5152928 5.93019504,20.5897824 C5.1108328,19.9949626 4.47549932,19.1133563 4.06581821,18.0776451 C4.06581821,18.0561207 4.0450146,18.0561207 4.0450146,18.0337367 C3.2872684,16.0062624 3.71694196,13.8021583 4.96679712,12.3471552 C3.73775376,11.5543707 3,10.2095242 3,8.73300988 C3,6.13205068 4.41401438,4.30254114 6.60560353,4.03823555 C7.34249696,3.94954595 8.10106252,4.08213955 8.79719267,4.41274194 C9.78055026,4.87593792 10.9479776,4.72183313 11.8081441,3.99433155 C12.4018539,3.48723157 13.0979841,3.15662918 13.8357379,3.04642838 C14.9832547,2.86993079 16.1098777,3.20053318 16.92924,3.97193875 Z M15.4743394,7.98207961 C14.7573975,8.312682 14.1428758,8.86368598 13.6715786,9.56879476 C12.6473758,11.0900947 10.9470763,11.8615003 9.22674333,11.6187059 C8.42733256,11.5085051 7.62878212,11.6187059 6.91184016,11.9269155 C4.96512289,12.7818065 4.02056126,15.2333231 4.74941791,17.4707605 L4.8226713,17.6798379 L4.8226713,17.7022218 C5.19154818,18.6277322 5.76526562,19.3552338 6.48220758,19.9062378 C6.52301591,19.9501462 6.58462785,19.9940546 6.62543619,20.0164386 C8.65294805,21.4705645 11.7872134,21.5153501 15.1670827,19.9501462 C18.5053529,18.4073306 20.6360839,15.9604321 21.0873681,13.3828355 C21.1073729,13.3165343 21.1073729,13.2278579 21.1281765,13.1400411 C21.2505892,12.192182 21.1481689,11.2666717 20.8001038,10.3411613 C20.7793002,10.3411613 20.7793002,10.3187773 20.7793002,10.3187773 C19.8376482,8.06989642 17.461129,7.03417644 15.4743394,7.98207961 Z M19.2441063,13.5808928 L20.0018525,13.9114952 C19.1824902,16.0491702 17.3389252,17.856287 14.8191815,19.0245917 C13.3435101,19.7073077 11.8689039,20.0603029 10.496636,20.0603029 C9.64103973,20.0603029 8.81765149,19.9385411 8.06977496,19.6635631 L7.79294544,19.5532029 L8.07939448,18.7378933 C9.86130251,19.4653949 12.1762057,19.2888973 14.4702151,18.2307933 C16.7645113,17.1727775 18.4855612,15.4758396 19.2441063,13.5808928 Z M15.7401856,9.26163869 L16.0682582,10.0769483 C15.3513163,10.4075507 14.7367946,10.9361618 14.245505,11.5973666 C13.3030254,12.8750258 11.8282553,13.6249173 10.3127629,13.6266393 C10.2167337,13.6266393 10.1210704,13.6266393 10.0255267,13.620007 L9.88226999,13.6042554 L9.96388666,12.722649 C11.3570073,12.854361 12.750087,12.215549 13.6102535,11.0472442 C14.1830696,10.2758387 14.9208234,9.65853788 15.7401856,9.26163869 Z M13.9381622,3.88317862 C13.3444524,3.99337942 12.7907274,4.23617381 12.2994378,4.6545842 C11.2135779,5.58009456 9.71807799,5.77810336 8.44823039,5.18319538 C7.89450539,4.91888097 7.27998371,4.83020459 6.68627384,4.89649698 C4.94512908,5.11689858 3.818506,6.61584981 3.818506,8.70966494 C3.8187723,9.98810438 4.47409822,11.0901123 5.62233197,11.6841608 C5.92959281,11.442248 6.25766545,11.243362 6.60573053,11.0892528 C7.44594554,10.7147464 8.38772049,10.5821616 9.33031481,10.7147464 C10.743305,10.9136368 12.1563771,10.2739432 12.9965511,9.01783045 C13.5493748,8.20252088 14.2863092,7.5413161 15.1264833,7.14441691 C15.8433433,6.79229892 16.6010895,6.65971413 17.3588357,6.72600653 C17.2772272,5.84440015 16.9491546,5.09538738 16.3962489,4.5882874 C15.740923,3.99337942 14.8599447,3.75059384 13.9381622,3.88317862 Z M19.5575004,9.81198828 L19.7145021,9.96674746 L19.1408421,10.6055594 C18.6339931,10.0799659 17.9893253,9.79525648 17.349203,9.78593759 L17.1748438,9.79024987 L17.1132319,8.9086435 C17.9876991,8.84708218 18.8629082,9.16636133 19.5575004,9.81198828 Z M13.8964936,4.83116995 L14.0397222,5.69038352 C13.5276208,5.77819152 13.0363312,6.02098591 12.6266501,6.3515883 C11.9921523,6.85871032 11.2135943,7.12301151 10.4550493,7.16777948 C10.1273044,7.16777948 9.81235463,7.12535235 9.50038344,7.02947758 L9.26681014,6.94737788 L9.53326674,6.10967551 C10.3933922,6.4402779 11.3967832,6.2637803 12.134537,5.66887233 C12.6466384,5.22806914 13.2611601,4.94137075 13.8964936,4.83116995 Z M14.8599857,4.74239219 C15.4536956,4.83020019 16.0066012,5.16080257 16.3754781,5.71180656 L16.3754781,5.71180656 L15.7201645,6.21890654 C15.4945121,5.88830415 15.146447,5.66790697 14.778369,5.62399856 L14.778369,5.62399856 Z" id="beans" fill="#000000"></path>
    </g>
</svg>