<?xml version="1.0" encoding="UTF-8"?>
<svg width="24px" height="24px" viewBox="0 0 24 24" version="1.1" xmlns="http://www.w3.org/2000/svg" xmlns:xlink="http://www.w3.org/1999/xlink">
    <!-- Generator: Sketch 57.1 (83088) - https://sketch.com -->
    <title>crops-almond</title>
    <desc>Created with Sketch.</desc>
    <g id="crops-almond" stroke="none" stroke-width="1" fill="none" fill-rule="evenodd">
        <path d="M19.5491667,10.5426687 C20.7444188,14.426944 20.4603672,18.7972233 18.8757675,21.1068063 C18.8271997,21.3711084 18.7455014,21.5964462 18.6283006,21.7766831 C18.5385039,21.9147767 18.3713895,22 18.1903985,22 C18.0096673,22 17.8108155,21.9756909 17.5962582,21.9287345 C14.8772152,22.3544831 10.9460008,20.8370423 8.00438691,18.2093837 C4.36472466,14.9581787 2.95760597,10.772807 4.82404786,6.73634328 C5.90362619,4.3682465 7.59682205,3.17138378 10.100119,3.02411256 C10.1020432,3.02399936 10.1039651,3.02389881 10.1058847,3.02381084 C14.7131013,2.70001947 18.059902,5.70292473 19.5491667,10.5426687 Z M7.201,5.262 C6.64263055,5.75365818 6.18287773,6.41208413 5.80092523,7.25238124 C4.17244912,10.7846305 5.40526911,14.4624008 8.68197151,17.3980348 C10.5612013,19.0816577 12.8806753,20.264871 14.9096529,20.6991472 C13.5595302,19.8571574 12.0543049,18.6586685 10.6274289,17.2647623 C10.4411416,17.0827794 10.4580041,16.8025451 10.6650924,16.6388414 C10.8721806,16.4751378 11.1910746,16.489956 11.3773619,16.6719389 C13.4197532,18.6671381 15.6522969,20.2452916 17.1300794,20.8484134 C17.3348064,20.8245169 17.5308018,20.7883725 17.7169787,20.7393241 C17.7932139,20.6519476 17.8666589,20.5589559 17.9372788,20.4606721 C17.9346632,18.9225867 16.9500592,16.0330562 15.3183198,13.1781795 C13.0382816,9.18904514 10.1104723,6.18138586 7.33093532,5.30049895 L7.201,5.262 Z M10.2069092,4.13927401 C10.2015855,4.13965534 10.1962788,4.13993662 10.1909907,4.14011945 C9.41271371,4.18713676 8.73595707,4.3486634 8.14573792,4.63497244 C11.0714227,5.77095897 13.9568967,8.82131294 16.2197156,12.7803206 C17.4581232,14.9470273 18.3435361,17.1095188 18.7228277,18.8223543 C19.4002504,16.6782013 19.3762129,13.6350231 18.524181,10.8579457 C17.1833042,6.48754726 14.2492812,3.84972111 10.2069092,4.13927401 Z M8.30437943,12.5355055 C8.51799366,12.456699 8.78284927,12.5134733 8.89595098,12.6623144 C9.43836524,13.376128 10.0710042,14.095119 10.7077939,14.7356718 C10.845427,14.8741184 10.7959257,15.0640933 10.5972296,15.1599927 C10.3985335,15.2558921 10.1258848,15.2214008 9.98825157,15.0829543 C9.33227318,14.4230993 8.68155472,13.6835611 8.12238541,12.9476979 C8.0092837,12.7988568 8.0907652,12.6143119 8.30437943,12.5355055 Z" id="Combined-Shape" fill="#000000"></path>
    </g>
</svg>