<?xml version="1.0" encoding="UTF-8"?>
<svg width="24px" height="24px" viewBox="0 0 24 24" version="1.1" xmlns="http://www.w3.org/2000/svg" xmlns:xlink="http://www.w3.org/1999/xlink">
    <!-- Generator: Sketch 57.1 (83088) - https://sketch.com -->
    <title>crops-loquat</title>
    <desc>Created with Sketch.</desc>
    <g id="crops-loquat" stroke="none" stroke-width="1" fill="none" fill-rule="evenodd">
        <path d="M12.7589777,5.0018221 C13.4158302,5.00516825 13.9219098,5.42364517 13.9248606,5.96417594 C13.9269403,6.3449221 13.9268278,6.72569133 13.923062,7.10639133 C13.9223033,7.17919902 13.9454602,7.22793748 14.0243735,7.26739902 C15.0289168,7.76982979 15.7679707,8.48133748 16.3703033,9.2964144 C17.1853196,10.3992836 17.692973,11.5945759 17.9037459,12.8710067 C18.1621253,14.4354144 17.8946686,15.9322529 16.9568981,17.3243221 C16.2604485,18.3581452 15.2955304,19.1747221 13.9501815,19.638799 C12.3409449,20.1939144 10.7781627,20.0788759 9.27768499,19.3570529 C9.09636414,19.2698452 8.92229389,19.1706606 8.75550232,19.0656375 C8.75550232,19.0656375 5.78624705,17.5316452 6.01227983,13.2364067 C6.09923065,11.5837298 6.5990433,10.7971298 7.11726344,9.81906056 C7.27000349,9.53078363 7.80075759,8.85299133 7.99264517,8.64066056 C8.58837351,7.98146825 9.08998475,7.61918363 9.96154447,7.2171144 C10.0031089,7.19253748 10.0268559,7.12674517 10.0275585,7.07969133 C10.0328981,6.71438363 10.0302283,6.34898363 10.0306218,5.98362979 C10.03124,5.41743748 10.526247,5.00519133 11.2133946,5.00196056 C11.7285796,4.99956056 12.2438208,4.99919133 12.7589777,5.0018221 Z M10.3074367,7.8147144 C9.58974119,8.16460671 9.03119318,8.65383748 8.55363815,9.20763748 C7.85918382,10.0130221 7.37699178,10.9008144 7.06159131,11.8510759 C6.59139927,13.2677221 6.53746953,14.6814375 7.13704798,16.083499 C7.59723534,17.1595759 8.3390152,18.073699 9.5168981,18.7090067 C10.735952,19.3665144 12.04561,19.5182682 13.4301065,19.1095067 C14.3513524,18.8375221 15.0854883,18.3507375 15.6820035,17.7240606 C16.7351932,16.6175913 17.1787154,15.3413682 17.2074367,13.9554144 C17.1775351,12.5381913 16.741404,11.210599 15.9244485,9.96846056 C15.3961112,9.16515286 14.7394555,8.44390671 13.8051979,7.92465286 C12.6710995,7.29432979 11.5003829,7.23317594 10.3074367,7.8147144 Z M14.3296232,10.6878075 C15.1126583,10.8720075 15.636499,11.3146459 16.0125459,11.8849921 C16.4691922,12.5775536 16.6198527,13.3230306 16.5432719,14.1038152 C16.4737449,14.8131767 16.2201712,15.4688382 15.6824194,16.0347998 C15.2464569,16.493569 14.6953281,16.8042075 13.9712531,16.8762998 C13.0505974,16.9679152 12.3134545,16.5777075 12.0343351,15.8452459 C12.0211267,15.8105613 12.0067941,15.7761767 12.0033374,15.767569 C11.8724335,15.9752613 11.7592625,16.2086844 11.590307,16.4106767 C11.3090236,16.7469536 10.8951501,16.9131306 10.3980915,16.9373844 C9.22231637,16.9947536 8.47109389,16.473469 7.9284241,15.6936306 C7.49263019,15.0673229 7.33463487,14.3824921 7.36616648,13.6632075 C7.39244283,13.0632075 7.53472855,12.4886844 7.87817585,11.9552152 C8.22966063,11.4092382 8.71174026,10.9712613 9.4340166,10.7477844 C9.92893932,10.594669 10.4331079,10.5761613 10.9279744,10.7412075 C11.3713562,10.8890844 11.6637403,11.1675536 11.843937,11.5273459 C11.8882555,11.6158459 11.9225974,11.7077152 11.9706255,11.8190844 C12.0026911,11.7400459 12.0270283,11.6775767 12.0532485,11.6156152 C12.4261477,10.7342382 13.3792625,10.4642613 14.3296232,10.6878075 Z M9.80014307,11.3329921 C9.17870044,11.4925229 8.80698147,11.8801229 8.53058803,12.3345767 C8.21133745,12.8594382 8.12022737,13.4239921 8.15886906,14.0048613 C8.19579646,14.5599998 8.36823674,15.0822536 8.746307,15.5490306 C9.03472855,15.9050844 9.3989159,16.1976306 9.93129997,16.2707382 C10.5000494,16.3488306 10.8913843,16.2687075 11.129951,15.7574152 C11.184752,15.6400229 11.2329487,15.514669 11.2441899,15.3905152 C11.2923304,14.8583152 11.3255482,14.3252152 11.3641899,13.7924382 C11.3433655,13.7918844 11.3225412,13.7913536 11.3017168,13.7908229 C11.3017168,13.3834229 11.318129,12.9754459 11.2953937,12.5688998 C11.28241,12.3371152 11.2313187,12.1016382 11.1524897,11.8785306 C10.9582414,11.3289075 10.4096981,11.1765075 9.80014307,11.3329921 Z M12.7778574,11.895769 C12.7354218,12.0129998 12.6970611,12.1347075 12.6879838,12.2559306 C12.651225,12.746269 12.6266349,13.2372075 12.5975763,13.7279152 C12.608677,13.7282613 12.6197496,13.7285613 12.6308503,13.7289075 C12.6308503,14.0670536 12.621492,14.4054306 12.633492,14.7432998 C12.6450986,15.0697459 12.6787379,15.3958229 12.8188316,15.7064844 C13.0019229,16.1125459 13.3962648,16.296169 13.9138386,16.2275613 C14.4006677,16.1630152 14.7645178,15.9419152 15.0577449,15.6322459 C15.4908691,15.1747921 15.6936325,14.6438152 15.7527051,14.0748536 C15.827684,13.3521075 15.6825318,12.6633767 15.203403,12.0422613 C14.9261103,11.6827921 14.5637496,11.3983921 14.037773,11.2969459 C13.4035997,11.1745921 12.963225,11.3838306 12.7778574,11.895769 Z M11.2355117,5.65289133 C10.9713712,5.65388363 10.8273712,5.76993748 10.8238302,5.98759902 C10.8194742,6.25637594 10.8222283,6.52524517 10.8231276,6.79406825 C10.8232119,6.82383748 10.8312494,6.85358363 10.8386405,6.90430671 C11.6009356,6.71498363 12.3554742,6.71862979 13.1324672,6.9233221 C13.1324672,6.59297594 13.1359801,6.28639902 13.1312307,5.97996056 C13.1280269,5.77326056 12.9768887,5.65379133 12.722781,5.65277594 C12.2270152,5.6508144 11.7312775,5.65104517 11.2355117,5.65289133 Z" id="Combined-Shape" fill="#000000"></path>
    </g>
</svg>