<?xml version="1.0" encoding="UTF-8"?>
<svg width="24px" height="24px" viewBox="0 0 24 24" version="1.1" xmlns="http://www.w3.org/2000/svg" xmlns:xlink="http://www.w3.org/1999/xlink">
    <!-- Generator: Sketch 57.1 (83088) - https://sketch.com -->
    <title>crops-quince</title>
    <desc>Created with Sketch.</desc>
    <g id="crops-quince" stroke="none" stroke-width="1" fill="none" fill-rule="evenodd">
        <path d="M7.8202615,4.52018297 C8.1347072,6.39395621 9.62382232,7.12799772 11.2643885,6.93306741 C11.1235575,6.86793989 10.9956552,6.81004875 10.8695999,6.74944397 C10.1709855,6.41385629 9.49361132,6.04525258 8.92566974,5.51247322 C8.82962759,5.42201832 8.81115795,5.30307013 8.88457478,5.22346981 C8.95799162,5.14296495 9.08219998,5.1438695 9.18332129,5.22799256 C9.29413916,5.32070883 9.40033962,5.41975695 9.51438967,5.50885502 C9.95212026,5.84986999 10.4401806,6.11309375 10.9383993,6.35777425 C11.1558794,6.46405876 11.3793621,6.5590364 11.6282405,6.67210503 C11.4444676,6.24108743 11.2787025,5.83765858 11.0252066,5.47538671 C10.6978322,5.00637805 10.2517902,4.69973595 9.68523389,4.58892869 C9.35555073,4.52470572 9.016171,4.49576015 8.67956173,4.48219191 C8.39789964,4.47088505 8.11439059,4.50525791 7.8202615,4.52018297 M13.2674215,8.34371157 C13.2780415,8.42285961 13.2868146,8.49250988 13.2969729,8.56216015 C13.3976325,9.24690374 13.4936747,9.93255188 13.6007986,10.6168432 C13.6705215,11.0632381 13.7647167,11.5069194 13.9447957,11.924821 C14.1142547,12.3192044 14.3077242,12.70409 14.491959,13.0925938 C14.556141,13.2282761 14.5288982,13.3404402 14.4157717,13.3929041 C14.3128034,13.4408452 14.1982916,13.3856677 14.1378035,13.2603876 C14.0648484,13.111137 13.9955872,12.9600774 13.917553,12.8130882 C13.5453897,12.1152286 13.3186748,11.3725939 13.2027777,10.5960386 C13.0984243,9.89229945 12.9866829,9.18946488 12.8994138,8.48391667 C12.8744798,8.28401134 12.7696646,8.21300424 12.6015908,8.17320409 C12.5535697,8.16189722 12.5037017,8.15059036 12.4542954,8.15059036 C12.1864855,8.15013809 11.9182139,8.14787671 11.6508658,8.15827903 C11.5529767,8.1623495 11.4532406,8.19084279 11.3608924,8.2243111 C11.2075944,8.27994087 11.0810773,8.36406392 11.1143227,8.55673286 C11.1180166,8.57889431 11.1143227,8.60196031 11.1133992,8.62457403 C11.0875417,9.38891794 11.0427528,10.1514527 10.8719086,10.9008716 C10.7777134,11.315155 10.6290327,11.7086338 10.4023178,12.071358 C10.1520542,12.4729777 9.89671132,12.8709793 9.64690937,13.272599 C9.57072209,13.3951654 9.46544511,13.442202 9.36293859,13.3870245 C9.25812335,13.3304902 9.22857192,13.2174216 9.30337398,13.0934983 C9.47190949,12.8148973 9.64090674,12.5367484 9.82283274,12.2662883 C10.1183471,11.8266775 10.3630699,11.3667143 10.4845078,10.84886 C10.626724,10.2405508 10.6765921,9.62229158 10.7093757,9.00177097 C10.7209192,8.78106101 10.7296923,8.56035106 10.7398506,8.32788196 C10.4817373,8.2704431 10.2370145,8.20214965 9.98767432,8.1641586 C9.5259332,8.0931515 9.16762209,8.28355906 9.01340056,8.66934921 C8.96584122,8.78739285 8.92797845,8.91222062 8.90858532,9.03750065 C8.80654053,9.70596236 8.6343111,10.3563331 8.39466746,10.9895174 C8.02204237,11.9736667 7.51920629,12.8967589 6.988204,13.8044739 C6.68253138,14.3277554 6.45951042,14.874103 6.40779541,15.4792463 C6.31544719,16.567871 6.66498522,17.5040792 7.43747811,18.2865141 C7.94585509,18.8021071 8.57012908,19.1304583 9.26597295,19.3376001 C10.1382019,19.5972056 11.0219744,19.7034901 11.9283723,19.5524304 C11.9916308,19.5415759 12.0585832,19.5497168 12.123227,19.5546918 C12.4136622,19.576401 12.7036356,19.617558 12.9945325,19.6202716 C13.9909698,19.6288648 14.9264573,19.3864457 15.7986863,18.9178893 C16.6298203,18.4714944 17.1668253,17.7912735 17.4212446,16.8998405 C17.5759279,16.3562066 17.6590413,15.8021703 17.5897801,15.2368272 C17.5412973,14.8347552 17.4567987,14.4421809 17.2305455,14.0921204 C17.1294242,13.936538 17.0379995,13.775076 16.9433426,13.6158754 C16.5157703,12.8917839 16.1223669,12.1509583 15.8079211,11.3725939 C15.4999398,10.6105114 15.2912328,9.82310145 15.166101,9.01217328 C15.0709823,8.39527086 14.7403757,8.06013546 14.0708511,8.15601766 C13.8035029,8.19446099 13.543081,8.27813177 13.2674215,8.34371157 M11.9999421,7.79012759 C11.9736229,7.60107685 11.9496123,7.42785571 11.9256018,7.25146866 C11.7132009,7.27770058 11.5086496,7.31071662 11.302713,7.3269985 C10.6885973,7.37448732 10.080946,7.34463721 9.49361132,7.14111368 C8.63292587,6.84351706 8.02111889,6.28088759 7.6900505,5.44915479 C7.56030125,5.12216033 7.4901166,4.77164759 7.40330927,4.42972807 C7.36683172,4.28590478 7.44163378,4.19816353 7.59123791,4.17781118 C8.15687078,4.10092451 8.72388887,4.063838 9.29275393,4.1294178 C9.95304374,4.20585219 10.5574629,4.41208937 11.0372119,4.88878669 C11.3327262,5.18276511 11.5395862,5.53418239 11.7141244,5.90504748 C11.7806151,6.0466094 11.8447971,6.18862359 11.9154435,6.34194465 C11.9648498,6.09726414 11.9967099,5.86705642 12.0585832,5.6440851 C12.2303509,5.02673041 12.5521845,4.49621242 13.0499414,4.07514486 C13.0919599,4.03986745 13.152448,3.99464 13.1976986,4.00051957 C13.2646511,4.00956506 13.3473027,4.04484247 13.386089,4.09640177 C13.4479623,4.17826345 13.4050204,4.26464788 13.3385296,4.34017772 C13.1783055,4.52244434 13.0143874,4.70244959 12.8684772,4.89511853 C12.5212479,5.35372487 12.373029,5.87655419 12.3910369,6.44325413 C12.4053508,6.87924675 12.4330553,7.31478709 12.4552189,7.7598252 C12.6740842,7.78605712 12.8832529,7.84756645 13.0753372,7.96832374 C13.1168939,7.99410339 13.1967751,7.97510786 13.2544928,7.9601828 C13.4479623,7.9122417 13.6377379,7.84937555 13.8321309,7.80550492 C14.1124078,7.74218649 14.3936081,7.73359327 14.6752702,7.81364586 C15.0622092,7.92445311 15.3138581,8.1817973 15.4302169,8.5436169 C15.5313382,8.85704313 15.5821297,9.18629896 15.6481587,9.50967523 C15.7912985,10.2057257 16.0143194,10.8764488 16.2964433,11.5295331 C16.6224325,12.2825702 17.0061394,13.008923 17.4503343,13.6990939 C17.7744766,14.2024754 17.9531704,14.7447525 17.9928801,15.3214025 C18.0201229,15.7071927 17.9642522,16.1029329 17.9088432,16.4891753 C17.8238829,17.0771321 17.6119437,17.6234797 17.2693318,18.1178157 C16.8976302,18.6542133 16.4054142,19.0535717 15.8190029,19.3439319 C15.1933437,19.6537399 14.5307452,19.8527407 13.8362866,19.9463615 C13.2738859,20.0223436 12.7110235,20.0128459 12.1463141,19.9477184 C11.9703907,19.927366 11.7870795,19.9545025 11.6083857,19.9721412 C10.7172253,20.0567165 9.85423114,19.9300796 9.0083214,19.6569059 C8.33741156,19.4407186 7.73853332,19.1078446 7.23061809,18.6243632 C6.67929919,18.100177 6.30251844,17.4764905 6.11874547,16.7451626 C5.85878522,15.7076449 6.03655555,14.7329934 6.54539427,13.7990466 C6.95772909,13.0428436 7.37375784,12.2870929 7.75100033,11.5137035 C8.15687078,10.6815184 8.40067009,9.79596498 8.5456568,8.88282277 C8.60245096,8.52462137 8.7589812,8.20531558 9.07527387,7.98867609 C9.41188314,7.75846837 9.79004912,7.7295228 10.1797586,7.80460037 C10.3898508,7.84530508 10.5967109,7.90726668 10.8044944,7.95927825 C10.9116183,7.98596244 11.0062752,7.97556013 11.1115522,7.92128719 C11.3835177,7.77972527 11.6785703,7.74128194 11.9999421,7.79012759" id="Fill-1" stroke="#000000" stroke-width="0.2" fill="#000000"></path>
    </g>
</svg>