<?xml version="1.0" encoding="UTF-8"?>
<svg width="24px" height="24px" viewBox="0 0 24 24" version="1.1" xmlns="http://www.w3.org/2000/svg" xmlns:xlink="http://www.w3.org/1999/xlink">
    <!-- Generator: Sketch 57.1 (83088) - https://sketch.com -->
    <title>crops-herbs</title>
    <desc>Created with Sketch.</desc>
    <g id="crops-herbs" stroke="none" stroke-width="1" fill="none" fill-rule="evenodd">
        <g id="np_herbs_48685_000000" transform="translate(4.000000, 3.000000)" fill="#000000" fill-rule="nonzero">
            <path d="M16.2833878,14.4931224 C16.2356764,14.4196603 15.0761898,12.6959745 13.1245408,12.103 C12.8382612,12.0159063 12.5429082,11.9568338 12.2490673,11.9280565 C10.1125367,11.7167688 8.93802653,13.1503963 8.57741429,13.6865841 L8.55848079,13.6865841 L9.08406344,11.6334208 C9.17494354,11.3213943 9.26885201,11.0086116 9.36276242,10.6966045 L9.66115936,10.6913031 C9.93683385,10.9715143 10.4980124,11.4569643 11.3128992,11.7046235 C11.961943,11.9015256 12.6374706,11.90835 13.3205012,11.7250718 C15.5910012,11.1161799 16.650542,8.8101228 16.6943583,8.711633 C16.7935694,8.49049627 16.7261659,8.23223198 16.5307742,8.08757994 C16.4997227,8.06637361 15.7764742,7.53547484 14.7290701,7.21815545 C13.8126884,6.93945647 12.9334344,6.90461667 12.1148252,7.11288576 C11.1189344,7.36659392 10.4774711,7.91867963 10.0670905,8.47760922 C10.2382475,7.9595878 10.4071323,7.4605082 10.5669262,6.99246841 C11.4151405,6.90310249 12.8593344,6.51535514 13.5795895,4.96198882 C14.5785048,2.81576433 13.2569578,0.412652082 13.2009272,0.311254122 C13.0933853,0.120404939 12.8767833,0.018925551 12.661715,0.0567898367 C12.5481144,0.077238102 9.85436803,0.583904122 8.82817415,2.71872861 C7.83303946,4.79011637 9.2840966,6.5326878 9.54158538,6.81749392 C9.37800119,7.29158269 9.20154354,7.81640922 9.01978334,8.37305106 C8.9690417,7.70659698 8.73350374,6.942448 8.08447926,6.22062249 C7.52025681,5.59203269 6.76975681,5.13232963 5.8533364,4.85363065 C4.80442007,4.53555514 3.90855068,4.57417555 3.87055068,4.5756878 C3.62971599,4.58629057 3.42903334,4.76426473 3.3888813,5.00206331 C3.37146256,5.10809106 2.96931089,7.61553269 4.51655068,9.3833082 C4.98459048,9.91495922 5.54879354,10.2852847 6.19783742,10.4829623 C7.1997966,10.785896 8.09419252,10.5806591 8.3432864,10.5102273 C8.04944558,11.4818834 7.76467823,12.4800232 7.52081905,13.4465028 L7.48598119,13.4260545 C7.44432854,12.8058015 7.14971997,10.9405443 5.16255262,10.0566566 C2.89728732,9.04789229 0.48079752,10.2452335 0.386766908,10.292179 C0.170923031,10.4012351 0.0603546633,10.6458504 0.12169752,10.8798607 C0.149718643,10.9896748 0.847982214,13.5805749 3.10334038,14.6158811 C3.27828385,14.6969161 3.45398732,14.7620473 3.62363017,14.8142953 C5.12466895,15.2702178 6.34315058,14.6832768 6.93699752,14.2947617 L7.2717465,14.4901515 C6.8945965,16.1653698 6.68557711,17.6422127 6.83703426,18.5237739 C6.86884181,18.7214321 7.01349385,18.875177 7.19450568,18.9289392 C7.26796783,18.9501456 7.34824477,18.9569603 7.42851589,18.9440861 C7.70797099,18.8963748 7.89655568,18.6313034 7.85035466,18.3503361 C7.73978436,17.69978 7.8768616,16.5933208 8.15101997,15.2793157 L8.29870038,14.7098004 L8.60465854,14.7128297 C8.90152385,15.302043 9.59298813,16.3342858 10.9637606,16.750095 C11.2258055,16.8296158 11.5022167,16.8826278 11.7862279,16.9076205 C14.2581667,17.1234644 16.1461463,15.2157287 16.2250545,15.1347073 C16.3924251,14.961278 16.4181739,14.6939461 16.2833689,14.493244 M9.81115466,14.7272542 L11.3886781,14.7439155 C11.6734455,14.7469448 11.9044312,14.5197542 11.9074557,14.2364991 C11.9112423,13.9509757 11.6825189,13.7177216 11.4007955,13.7169655 L9.91869854,13.700304 C10.3723332,13.2830214 11.1024179,12.8467969 12.1506169,12.9497846 C12.3763098,12.9725051 12.6057832,13.0179442 12.82692,13.0853477 C13.9348914,13.422365 14.7573587,14.2410324 15.1573281,14.7120967 C14.5847883,15.1755803 13.3336771,16.0116773 11.8765322,15.885211 C11.6622006,15.8662777 11.4546934,15.8268965 11.2608159,15.7678239 C10.5617904,15.5565362 10.1013312,15.1172678 9.81127099,14.7272443 M9.75598487,3.16419331 C10.3542716,1.91913106 11.78724,1.36324535 12.4702706,1.16337698 C12.7497257,1.81922596 13.2313951,3.27703004 12.6490024,4.53044841 C12.2574667,5.37412596 11.54708,5.72855351 10.9571106,5.88154229 C11.1161503,5.43471269 11.2630687,5.03030351 11.3880422,4.6978229 C11.4880094,4.43199739 11.3532044,4.13513208 11.0866208,4.03666167 C10.8245759,3.92154688 10.5254422,4.07149953 10.4262351,4.33732698 C10.3929114,4.42517678 10.2149473,4.90684229 9.95365854,5.63917596 C9.6272463,5.09616371 9.26903813,4.17297698 9.75600038,3.16413514 M14.4317453,8.19971678 C14.8922045,8.33982433 15.2784473,8.52990963 15.5450289,8.67836167 C15.1784841,9.27589229 14.3491922,10.3853953 13.0556412,10.7323004 C12.5603422,10.8648332 12.0748922,10.8602907 11.6121647,10.7201831 C11.5568785,10.7027644 11.5106814,10.6800446 11.4584256,10.6595964 L11.8408878,10.6527802 C12.1226113,10.6482363 12.3505725,10.4142139 12.3460358,10.1309782 C12.3407344,9.84774246 12.1074695,9.6220496 11.8227215,9.62583021 L10.5731225,9.6470346 C10.8071327,9.11387134 11.3100123,8.37849379 12.3710266,8.10813154 C13.0026409,7.9468196 13.6971103,7.97787103 14.4317511,8.1997697 M6.45853681,8.7306646 L7.50365313,9.60689419 C7.22117354,9.62507021 6.87203885,9.61295287 6.49866946,9.49935226 C6.03594191,9.36000277 5.62924497,9.09265532 5.29071538,8.70643185 C4.40917354,7.69917981 4.33571334,6.31553389 4.36526028,5.61582981 C4.66895007,5.6400645 5.09532558,5.69762287 5.55729701,5.83772266 C6.29038681,6.06112777 6.88415619,6.42086756 7.32038068,6.90707368 C7.86188068,7.51067266 8.0019766,8.15667266 8.00122352,8.68454307 L7.1181664,7.94462879 C6.9015664,7.76286858 6.5766664,7.79013358 6.39415007,8.00824583 C6.21314793,8.22484583 6.24041099,8.54823358 6.45852323,8.73074991 M4.78935385,13.0392907 L5.90112528,13.6890907 C5.33387834,13.9390183 4.48868854,14.1222907 3.53135997,13.6837893 C2.20905691,13.0764097 1.53054364,11.7252383 1.25853344,11.0383302 C1.94997834,10.7853781 3.40029874,10.397623 4.74445181,10.9959194 C5.6979416,11.4192705 6.11978038,12.1531358 6.30910181,12.7370368 L5.30563038,12.1523796 C5.05950283,12.0099998 4.74672017,12.0910348 4.60358038,12.335654 C4.46120058,12.5817816 4.54299364,12.8960765 4.78912701,13.0392163" id="Shape"></path>
        </g>
    </g>
</svg>