<?xml version="1.0" encoding="UTF-8"?>
<svg width="24px" height="24px" viewBox="0 0 24 24" version="1.1" xmlns="http://www.w3.org/2000/svg" xmlns:xlink="http://www.w3.org/1999/xlink">
    <!-- Generator: Sketch 57.1 (83088) - https://sketch.com -->
    <title>crops-orange</title>
    <desc>Created with Sketch.</desc>
    <g id="crops-orange" stroke="none" stroke-width="1" fill="none" fill-rule="evenodd">
        <path d="M9.21370737,3 C10.890115,4.53049714 11.3770186,5.45611574 11.4550846,7.60735916 C13.9041379,7.76519035 16.0947292,9.22544626 17.2319001,11.4585673 C18.3690709,13.6916883 18.2877929,16.3724913 17.0162095,18.5279661 C15.7454296,20.6832928 13.4694397,22 11.0156477,22 C8.57714306,22 6.3139887,20.7007488 5.03758423,18.5668542 C3.76117975,16.4338058 3.65573469,13.7726787 4.75831345,11.5395577 C5.86097461,9.30654251 8.01375985,7.82141444 10.4434465,7.61810839 L10.4434465,7.61810839 C10.3766523,5.79172918 9.99276057,5.10330166 8.54090276,3.77686376 L8.54090276,3.77686376 Z M11.0156065,8.55201906 C9.40364447,8.5545579 7.85765253,9.21239239 6.71807116,10.3834745 C5.5784898,11.553668 4.93706591,13.1404004 4.93545621,14.7957661 C4.93545621,16.4519358 5.57605867,18.0395145 6.71646415,19.2105966 C7.8560043,20.3816575 9.40284096,21.0395132 11.0156477,21.0395132 C12.6276098,21.0395132 14.1744259,20.3816787 15.3148313,19.2105966 C16.4544127,18.0395568 17.0950358,16.4519358 17.0950358,14.7957661 C17.0950358,13.1395964 16.4544127,11.5520191 15.3148313,10.3809356 C14.1744671,9.20987471 12.627651,8.55201906 11.0156477,8.55201906 Z M13.6914374,3.4849356 C15.015796,2.80142244 16.4741552,2.91897065 18.543797,3.35400532 L18.543797,3.35400532 L19.2,3.49197443 L18.7687468,3.92347707 C18.4945519,4.19731771 18.2789275,4.43875736 18.0879212,4.65204887 C17.4833974,5.32711759 17.0470588,5.81563732 15.6752153,6.3112031 C15.2218822,6.47662115 14.7329083,6.5625 14.2380015,6.5625 C13.6226768,6.55964554 13.0182398,6.43434849 12.4732404,6.19853126 L12.4732404,6.19853126 L12.1846154,6.071825 L12.255923,5.80713882 C12.2720526,5.74590311 12.2890317,5.67621394 12.3068589,5.60019055 C12.4477703,5.00401591 12.6846292,4.0051355 13.6914374,3.4849356 Z M17.6880731,3.91294585 C15.9349822,3.58984417 14.9969346,3.64545566 14.143773,4.08611275 C13.6362137,4.34866837 13.4019213,4.83650332 13.2652455,5.28067442 C13.7397893,4.78932546 14.41127,4.45566372 15.1574659,4.33881111 C15.2550977,4.32332423 15.3561175,4.34092312 15.4384629,4.38738197 C15.5208082,4.43384621 15.5768366,4.50494278 15.5955126,4.58659941 C15.6133395,4.66755864 15.5921159,4.75132547 15.5360881,4.81890262 C15.4792063,4.88718438 15.3926167,4.93364304 15.2949914,4.9484255 C14.6498284,5.04415079 14.0835966,5.36021363 13.7329914,5.81917962 C14.2737531,5.90153545 14.8314876,5.84662676 15.3340441,5.66220421 L15.3340441,5.66220421 C16.4970414,5.24126036 16.8187862,4.88225449 17.4019908,4.2297115 C17.4911253,4.13045418 17.5853538,4.02486983 17.6880731,3.91294585 Z" id="orange" fill="#000000"></path>
    </g>
</svg>