<?xml version="1.0" encoding="UTF-8"?>
<svg width="24px" height="24px" viewBox="0 0 24 24" version="1.1" xmlns="http://www.w3.org/2000/svg" xmlns:xlink="http://www.w3.org/1999/xlink">
    <!-- Generator: Sketch 57.1 (83088) - https://sketch.com -->
    <title>crops-sunflower</title>
    <desc>Created with Sketch.</desc>
    <g id="crops-sunflower" stroke="none" stroke-width="1" fill="none" fill-rule="evenodd">
        <path d="M11.3491705,4.0567425 C11.4396655,3.97877796 11.5679205,4.00068642 11.6773039,4.01035075 C11.9995705,4.05094291 12.3185872,4.1295524 12.6187039,4.25520023 C12.8882372,4.37246869 13.1362872,4.53805384 13.3504705,4.73844972 C13.5509872,4.92466003 13.7352372,5.13341879 13.8576372,5.37955487 C14.0034705,5.21331982 14.1258705,5.02968271 14.2398039,4.8408992 C14.2788672,4.78226497 14.3224855,4.72363075 14.3804289,4.68239363 C14.4774339,4.62440436 14.6089455,4.59605302 14.7098622,4.66048683 C14.7775705,4.6985025 14.8036122,4.77646539 14.8602522,4.82672188 C15.0112939,4.96911858 15.1688522,5.1050724 15.3342189,5.23200023 C15.4442455,5.32478374 15.5529689,5.42078374 15.6564855,5.52194662 C15.8055739,5.66112188 15.9312189,5.82284559 16.0588355,5.98070126 C16.1584455,6.12696436 16.2613022,6.27257755 16.3270689,6.4381693 C16.5093689,6.29126291 16.6975189,6.15208271 16.8680855,5.99165384 C16.9260289,5.93237467 17.0126172,5.9175557 17.0927022,5.91884394 C17.1584572,5.91433359 17.2235622,5.94010745 17.2717355,5.98392106 C17.3928289,6.09281343 17.4761689,6.23391693 17.5712189,6.36343446 C17.7085889,6.5831458 17.8420522,6.80802003 17.9195189,7.05608601 C17.9898322,7.24100972 18.0184772,7.43688601 18.0438672,7.632119 C18.0686072,7.95879941 18.0601432,8.2964159 17.9520705,8.60957054 C18.0497272,8.59797252 18.1473872,8.58766374 18.2450372,8.57477631 C18.4384039,8.54771487 18.6259039,8.4607293 18.8244705,8.47877137 C18.9266839,8.50647776 19.0328039,8.57026662 19.0660039,8.67657755 C19.0946505,8.75518539 19.0568894,8.83572642 19.0581914,8.91626415 C19.0562382,9.15982704 19.093348,9.40144353 19.1102747,9.64436312 C19.136968,10.0122806 19.1226445,10.3847013 19.0458214,10.7468126 C19.019128,10.8627912 18.9930864,10.9794229 18.9416547,11.0876621 C19.181238,11.1089256 19.4195214,11.1424299 19.6597547,11.1488728 C19.736578,11.1482285 19.8010314,11.1965528 19.8531214,11.2474559 C19.898043,11.289338 19.9299447,11.3466823 19.9338514,11.4078947 C19.9397107,11.5412703 19.9208304,11.674006 19.8934864,11.8041503 C19.8674447,11.9787648 19.813408,12.147573 19.7645797,12.3170411 C19.7118447,12.4671705 19.6428347,12.6108472 19.567313,12.7513173 C19.4696564,12.9323813 19.3361964,13.0915235 19.2020797,13.246806 C19.008713,13.4465421 18.7958297,13.6359854 18.5412797,13.7564637 C18.7085964,13.9014386 18.8954464,14.0232184 19.0881464,14.1340472 C19.164318,14.1881718 19.248953,14.2468044 19.2788964,14.3402328 C19.314053,14.422707 19.3192614,14.5238699 19.2671777,14.6018246 C19.228766,14.6669017 19.153246,14.6946081 19.1018127,14.7480877 C18.988531,14.8634229 18.8830627,14.9858444 18.782146,15.1114856 C18.535396,15.4194773 18.254146,15.702331 17.933846,15.9362279 C17.787361,16.034811 17.6402294,16.1353206 17.4748627,16.2016959 C17.5940027,16.3498922 17.710546,16.5000217 17.837496,16.6417784 C17.8928344,16.7068555 17.969006,16.7642015 17.987236,16.852467 C17.9996059,16.9342963 18.009371,17.0270815 17.9598927,17.0992464 C17.8830694,17.2107153 17.761976,17.279667 17.6552094,17.3589083 C17.5223977,17.4581347 17.3759094,17.5360959 17.231376,17.6166402 C16.8759094,17.8028505 16.476176,17.9020835 16.074476,17.9098031 C15.8075427,17.9175349 15.5347594,17.8962721 15.2808594,17.8092868 C15.2945312,17.931065 15.3016927,18.053493 15.329036,18.1733281 C15.3576827,18.3363433 15.426041,18.4954889 15.4117177,18.6643136 C15.3843744,18.797046 15.2743477,18.9336415 15.124601,18.9220456 C14.870051,18.878232 14.6128844,18.9278445 14.3589677,18.9458856 C14.071851,18.9703705 13.782151,18.9787466 13.4956844,18.9491072 C13.251551,18.923334 13.004801,18.8840301 12.7775844,18.7893134 C12.750241,19.0283567 12.7202927,19.2674 12.7118294,19.5077464 C12.7098764,19.5811996 12.6616994,19.641767 12.6115694,19.6920268 C12.5679494,19.7371303 12.5080544,19.7693464 12.4436027,19.7706346 C12.314046,19.7751448 12.183836,19.7583923 12.057536,19.731974 C11.618736,19.6578759 11.187086,19.5038833 10.8290194,19.2377719 C10.524986,19.0103245 10.250886,18.7306874 10.0764194,18.3924111 C9.99178435,18.5045249 9.89543602,18.608906 9.82381935,18.7300441 C9.74048602,18.8550437 9.67863769,19.0013018 9.55298602,19.0915121 C9.45923602,19.14628 9.33488602,19.1752746 9.23593602,19.1179303 C9.17343602,19.0870025 9.14153435,19.0232136 9.09921769,18.9723121 C8.95533769,18.8221827 8.78996769,18.6939616 8.62656769,18.5650874 C8.40781769,18.380807 8.19493435,18.1881472 8.01588435,17.9652194 C7.85507769,17.7725596 7.70728435,17.5657307 7.60638435,17.3357101 C7.41301769,17.4871278 7.22291769,17.6417719 7.03868435,17.8041307 C6.97358102,17.8543889 6.88634102,17.8550321 6.80756769,17.8531006 C6.70795769,17.8460129 6.63308435,17.7693381 6.57320102,17.6965282 C6.28805102,17.3331303 6.04716769,16.924619 5.94430102,16.4722973 C5.87398769,16.1262849 5.85315435,15.7667633 5.91695769,15.4181777 C5.92932752,15.3305489 5.95276435,15.2454932 5.98596769,15.1643056 C5.82646269,15.1823476 5.66565102,15.1971666 5.51005102,15.2358256 C5.37919102,15.2654651 5.24638435,15.3099237 5.11031769,15.2931715 C5.01135935,15.2641769 4.90980102,15.2042544 4.87528435,15.1024581 C4.84728935,15.0270717 4.87398219,14.9484639 4.87919052,14.8717942 C4.88179485,14.5244952 4.80822719,14.1810726 4.81343552,13.832487 C4.80627402,13.5779715 4.83492052,13.3241159 4.87853885,13.0734602 C4.90783552,12.942661 4.93648219,12.8105653 4.99247052,12.6875138 C4.75353719,12.6623856 4.51460385,12.6314577 4.27437052,12.6237249 C4.21447385,12.6230806 4.16174052,12.5908639 4.11681885,12.5547814 C4.05952719,12.5122561 4.01135052,12.4516886 4.00288719,12.3795237 C3.98856419,12.2132886 4.03088219,12.0496268 4.05627219,11.8866082 C4.14416219,11.4587649 4.30952219,11.0386742 4.58882219,10.6971814 C4.81147219,10.4239938 5.07450552,10.1726948 5.39480552,10.0154825 C5.31017052,9.95298184 5.22944052,9.88532823 5.14415552,9.82346596 C5.02696885,9.74485813 4.90327219,9.67655957 4.78673885,9.59730514 C4.69364052,9.53222803 4.63374385,9.4259072 4.62918719,9.31314844 C4.62463002,9.23196246 4.66499385,9.15013318 4.73205219,9.10374638 C4.77046385,9.07668493 4.80952552,9.05026679 4.84142719,9.01611751 C4.92215719,8.93106679 5.00418719,8.84666596 5.07971052,8.75645566 C5.24247052,8.54641029 5.42151052,8.34858761 5.61096052,8.16173401 C5.67346052,8.10052328 5.73986719,8.04446555 5.80952719,7.99097937 C6.00614385,7.82410102 6.22229385,7.67525153 6.45991052,7.57151545 C6.33360885,7.41365483 6.21121052,7.25321442 6.07384385,7.10502473 C6.02762052,7.04961194 5.96577052,7.00193194 5.94949552,6.9278371 C5.93256885,6.83698679 5.92475552,6.73067421 5.98855719,6.65464947 C6.10248885,6.5212738 6.25744052,6.43429483 6.39935719,6.33441854 C6.56472219,6.2364804 6.72749052,6.12951957 6.90977385,6.06251751 C7.18255719,5.94396081 7.47814052,5.88532988 7.77500719,5.86599792 C8.07122385,5.85246704 8.37657385,5.86535363 8.65782385,5.96586926 C8.63829219,5.83893648 8.63243385,5.7094239 8.60313552,5.58378267 C8.57318719,5.42592205 8.50873385,5.27064452 8.52370885,5.10762596 C8.55040219,5.00710968 8.61225052,4.90401359 8.71575885,4.86793937 C8.78476885,4.84216617 8.85833719,4.8608517 8.92799219,4.86922811 C9.19492552,4.87953739 9.45859219,4.83121244 9.72420885,4.81574852 C9.94165885,4.80737227 10.1597589,4.79577491 10.3765589,4.81897013 C10.6421922,4.84538827 10.9130255,4.87953755 11.1604089,4.98456188 C11.1825439,4.75002168 11.2144455,4.51678456 11.2222572,4.28160106 C11.2216062,4.19075075 11.2860589,4.1160093 11.3492105,4.05672683 L11.3491705,4.0567425 Z M11.7209605,4.53545673 C11.7020805,4.78159281 11.6753872,5.02772889 11.6376272,5.27257838 C11.9012939,5.48133714 12.1024772,5.76549384 12.2124939,6.08184848 C12.2932239,6.3576258 12.2971289,6.65207528 12.2535089,6.93430209 C12.5972589,6.9536324 12.9390589,7.00453384 13.2717422,7.09216271 C13.2652319,6.95878704 13.2639297,6.82476477 13.2736954,6.69138745 C13.2880184,6.49808436 13.358982,6.31639363 13.412367,6.13211322 C13.437107,6.05543858 13.493097,5.98456188 13.4787737,5.90016271 C13.4579404,5.6630493 13.324477,5.45300394 13.1662737,5.28031941 C12.972257,5.06704106 12.744407,4.87825755 12.4800737,4.75583281 C12.3042904,4.6649825 12.1109404,4.6192357 11.9214737,4.5683359 C11.855067,4.55287198 11.7880104,4.5444959 11.720957,4.53545673 L11.7209605,4.53545673 Z M14.578457,5.26550374 C14.4638737,5.46588312 14.3082737,5.63856766 14.1617904,5.81639858 C14.087572,5.9033825 14.0393937,6.00711198 13.984707,6.10634497 C13.9137437,6.23907735 13.875332,6.38469549 13.8291087,6.52709549 C13.8017654,6.62310044 13.7828854,6.72297178 13.7802804,6.82284807 C13.7770252,6.97491075 13.7789784,7.13083982 13.831712,7.27581302 C14.1943454,7.41241013 14.5393954,7.59733054 14.8570954,7.81770168 C14.877277,7.77646456 14.8968087,7.73329425 14.9339187,7.70429961 C15.0563137,7.6140926 15.1253187,7.47040271 15.174802,7.3305924 C15.215817,7.22878786 15.1695937,7.11409755 15.2197237,7.01422126 C15.265947,6.88600023 15.4339237,6.82736766 15.553057,6.89373137 C15.6546204,6.95301054 15.7138637,7.0696324 15.7132137,7.18496436 C15.7138647,7.43819322 15.6083954,7.67980972 15.4651637,7.88535198 C15.4117787,7.97749054 15.3277937,8.047079 15.2431637,8.11151281 C15.2783204,8.1417957 15.313477,8.17272353 15.348632,8.20429631 C15.4879554,8.13277631 15.594732,8.01486951 15.7008487,7.90275405 C15.974932,7.58509631 16.0120487,7.11924889 15.8844487,6.73264271 C15.8408287,6.56447776 15.7373137,6.42143446 15.6403154,6.27967776 C15.5270337,6.13985755 15.4163487,5.99616436 15.2828987,5.87439941 C15.0641487,5.65404477 14.803732,5.47878704 14.5784654,5.26550374 L14.578457,5.26550374 Z M9.08179869,5.37440106 C9.14495035,5.5941124 9.15666869,5.82414951 9.18075702,6.05031034 C9.19442902,6.20559446 9.25302202,6.3518526 9.30315369,6.4981124 C9.37737202,6.65146333 9.45028869,6.80803405 9.55250369,6.94527116 C9.68336369,7.09604394 9.82463702,7.24488353 10.006937,7.33445054 C10.0655304,7.3080324 10.1280304,7.28097095 10.194437,7.28999198 C10.3233437,7.29965697 10.4314204,7.41950291 10.4262037,7.54772394 C10.4262037,7.65017178 10.356542,7.74681673 10.2601887,7.78290745 C10.0394887,7.87311446 9.82723869,7.98264353 9.62347202,8.10635487 C9.53623202,8.16112271 9.41708869,8.16370085 9.33245535,8.10377755 C9.22503369,8.0341891 9.18857535,7.88083322 9.25237702,7.77130745 C9.29860035,7.68303363 9.39886202,7.6501726 9.47764369,7.59797961 C9.35264369,7.48973219 9.23806035,7.36988889 9.13259369,7.24296106 C9.00173369,7.06125384 8.90277702,6.85958786 8.81032702,6.65597549 C8.78558702,6.61216188 8.74196702,6.58252229 8.70290535,6.55159446 C8.49392202,6.41499735 8.23805535,6.37569343 7.99197202,6.36860064 C7.69313869,6.36860064 7.39040535,6.4130592 7.11437202,6.53097095 C6.90863869,6.61151198 6.72373869,6.73522662 6.54080535,6.85636477 C6.70096202,7.04838126 6.85917202,7.24231116 7.01020535,7.44142044 C7.44770535,7.39696188 7.91190535,7.50327611 8.25433869,7.78484312 C8.39887035,7.90790951 8.53037202,8.04579157 8.64365535,8.19721425 C8.69639035,8.14437961 8.76344702,8.09927611 8.84092202,8.09863116 C8.97178202,8.08832188 9.09743869,8.19334786 9.10980535,8.32221879 C9.12217519,8.41178085 9.07985702,8.50004972 9.01149869,8.55740229 C8.64431535,8.88020642 8.32789869,9.26100642 8.08376535,9.68304353 C7.91319869,9.97750951 7.78558202,10.2945074 7.67751535,10.616025 C7.55707202,11.0393487 7.48154869,11.4787879 7.49326535,11.9194971 C7.49847369,12.1952745 7.51279702,12.4723384 7.57334369,12.7423095 C7.63714535,13.0850889 7.75237702,13.4162724 7.89039369,13.7365033 C7.95289369,13.8679474 8.02646202,13.9948786 8.09872702,14.1218064 C8.40406035,14.6649817 8.83896035,15.1340456 9.34872702,15.4955136 C9.55119369,15.6482196 9.77191035,15.775794 10.000427,15.8879095 C10.1299837,15.9523417 10.2614937,16.0148423 10.402127,16.052858 C10.8148937,16.2261858 11.2628104,16.3093033 11.709427,16.3273487 C11.8142454,16.3363692 11.9197104,16.3499004 12.025177,16.3473223 C12.181427,16.338946 12.337027,16.3267037 12.493277,16.313818 C12.9131937,16.2816019 13.3227104,16.1669116 13.712027,16.0116324 C13.7699704,15.9916588 13.8070787,15.936891 13.865022,15.9175606 C13.9164537,15.9014524 13.9724437,15.8995202 14.0199704,15.8724571 C14.5557704,15.6031293 15.0421037,15.2319953 15.4255704,14.7732241 C15.7309037,14.4285149 15.967237,14.0290262 16.1488704,13.6082757 C16.1788187,13.5496415 16.1573339,13.4813429 16.1827237,13.4214221 C16.2009537,13.365366 16.256942,13.3305718 16.2738704,13.2732258 C16.3272554,13.1050609 16.372177,12.9336629 16.4112404,12.7616217 C16.4418387,12.5889371 16.4633237,12.414966 16.4796004,12.2403516 C16.4880639,12.139192 16.5017354,12.0373825 16.4958764,11.9355763 C16.4835065,11.6159887 16.471788,11.2938279 16.3982197,10.9813165 C16.3428814,10.7023227 16.2510847,10.4323516 16.1449697,10.1688134 C16.125438,10.1146905 16.075308,10.0798963 16.049918,10.0296382 C16.024528,9.98195817 16.031038,9.92525714 16.0036947,9.87886539 C15.5154114,8.90914992 14.650178,8.13074168 13.6273614,7.74360766 C13.5199397,7.72685549 13.4300947,7.66242168 13.325278,7.63729343 C12.7556114,7.46396559 12.1507947,7.40210992 11.557778,7.4594625 C11.3819947,7.47492642 11.242028,7.28484807 11.2999614,7.12247281 C11.2114197,7.1050757 11.1287447,7.05030786 11.094228,6.96590044 C11.0616764,6.90082333 11.0831604,6.82737013 11.0825092,6.75907157 C11.0714415,6.63342704 11.0271709,6.51229219 10.9705309,6.40017673 C10.9334209,6.32414539 10.8513909,6.28484147 10.8097242,6.21203652 C10.7420159,6.11860807 10.7543859,5.97620972 10.8435775,5.90018497 C10.9230042,5.82479858 11.0467109,5.82930827 11.1443609,5.86281425 C11.2784759,5.92917961 11.3663609,6.05804724 11.4392775,6.18304518 C11.5506059,6.41887198 11.6352442,6.68434003 11.5799025,6.94593178 C11.6287309,6.94142143 11.6775592,6.93819966 11.7270375,6.93497805 C11.7804225,6.71526671 11.7823759,6.4820131 11.7276885,6.26165846 C11.6782085,6.09285021 11.5792519,5.94335743 11.4659719,5.80998011 C11.3090702,5.64181516 11.1111552,5.51681722 10.8989219,5.42982341 C10.6756219,5.35959166 10.4412385,5.33446341 10.2088219,5.3157764 C10.0805669,5.30804444 9.95295519,5.31642069 9.82470519,5.32093104 C9.57665519,5.32737442 9.33122185,5.37956526 9.08187185,5.37441062 L9.08179869,5.37440106 Z M16.4640385,6.97879825 C16.4542729,7.00263825 16.4627364,7.0290564 16.4627364,7.05418464 C16.4835697,7.2197764 16.4588302,7.38729805 16.429533,7.5509599 C16.408048,7.67595949 16.3566164,7.79387949 16.3084397,7.91114135 C16.176278,8.17853928 15.959473,8.39503413 15.7244564,8.57608155 C15.954273,8.82736403 16.1534897,9.10378464 16.329273,9.39373104 C16.5037564,9.19721145 16.708823,9.02195372 16.949073,8.90855166 C17.051938,8.85442877 17.1574064,8.80481392 17.263523,8.75584568 C17.3911264,8.65404114 17.452973,8.49361062 17.4959397,8.34090135 C17.597503,7.86989104 17.5317464,7.3640931 17.3116897,6.9343364 C17.2316114,6.79129475 17.1469764,6.6495364 17.051923,6.51551578 C16.8572564,6.6714432 16.6626064,6.82801062 16.4640397,6.97879001 L16.4640385,6.97879825 Z M6.57803969,8.07995289 C6.45564302,8.14760815 6.33780635,8.22299454 6.22842302,8.30933021 C6.13337135,8.39115949 6.02985635,8.46332444 5.94262302,8.5541797 C5.84431635,8.65984897 5.74080635,8.76100856 5.64770635,8.87183743 C5.52791469,9.01874382 5.41137302,9.1682333 5.27595635,9.30225392 C5.49340635,9.42532031 5.67830635,9.59220031 5.87360635,9.74490959 C6.04222302,9.86088815 6.22842302,9.94916526 6.42438969,10.0084477 C6.71800635,10.1050976 7.04418969,10.1334473 7.34170635,10.0367991 C7.48493635,9.68242382 7.66852302,9.34543413 7.89053969,9.03422588 C7.85408135,9.02198357 7.81566969,9.01167413 7.78441969,8.98912238 C7.73298802,8.9530399 7.70499302,8.89311743 7.65160635,8.8583232 C7.56111135,8.79711248 7.46345635,8.74427619 7.35863969,8.71012691 C7.25707802,8.67339949 7.14378969,8.71657013 7.04483969,8.66760155 C6.91072469,8.6212098 6.85343969,8.44530052 6.92895469,8.32803867 C6.98754802,8.24298794 7.08715802,8.18113227 7.19392135,8.18435372 C7.40877135,8.1669566 7.61578802,8.24685434 7.80068802,8.34801392 C7.94391802,8.4311331 8.08780469,8.52843454 8.16982135,8.67598093 C8.20367469,8.63989846 8.23752969,8.60381598 8.27138469,8.56708856 C8.23232135,8.51940856 8.20628135,8.46335083 8.16461469,8.41760403 C8.05654135,8.29453763 7.94064802,8.17404114 7.79873135,8.08899372 C7.62359802,7.99427702 7.42503135,7.94530877 7.22581469,7.94015413 C7.00251469,7.93886555 6.78049802,7.98912403 6.57803135,8.07997434 L6.57803969,8.07995289 Z M17.7518647,9.1444032 C17.6170997,9.17984073 17.4816814,9.21850135 17.3547314,9.27649062 C17.2329864,9.34156774 17.1034314,9.39440238 16.991448,9.47558341 C16.8364997,9.59736155 16.6887147,9.73395867 16.5917147,9.9059999 C16.747313,10.2636081 16.863198,10.638602 16.9335147,11.0219752 C16.979088,11.0078 17.026613,10.9987801 17.0747914,11.005867 C17.185468,11.0213309 17.2954914,10.9884698 17.397708,10.9498109 C17.472578,10.9208162 17.550703,10.8886001 17.6034414,10.8260995 C17.670498,10.7429804 17.7818247,10.6869243 17.891208,10.7056096 C17.997328,10.7236517 18.083258,10.8235214 18.080658,10.9311272 C18.0793559,10.994916 18.066335,11.0612814 18.0298764,11.1147643 C17.9576114,11.2191453 17.850843,11.2945251 17.7421097,11.3576839 C17.510343,11.4678645 17.2512264,11.5490571 16.9914597,11.5103898 C16.9940637,11.5574265 16.997319,11.6051065 16.9999232,11.6521432 C17.2154232,11.7056228 17.4458899,11.6998232 17.6607232,11.6463441 C18.0598065,11.5200563 18.3658065,11.1817833 18.5025232,10.7971235 C18.5598149,10.5928679 18.5891115,10.3821792 18.6053882,10.171474 C18.6320815,9.79067405 18.5591649,9.41309054 18.5461432,9.03295034 C18.2870265,9.10511528 18.0155432,9.10318209 17.7518765,9.1444192 L17.7518647,9.1444032 Z M5.37554319,10.6315285 C5.20105985,10.7674823 5.04937652,10.9311409 4.92175985,11.1102584 C4.83647319,11.2191507 4.78113485,11.3467285 4.71994319,11.4691532 C4.63530819,11.681145 4.56759985,11.9027862 4.54090985,12.1302336 C4.78960985,12.1502072 5.03830985,12.1766254 5.28504319,12.2127079 C5.30978319,12.1862897 5.33387152,12.1592283 5.35665819,12.1315219 C5.45756985,12.010387 5.58907485,11.9195301 5.71669152,11.8293363 C5.83778485,11.7455738 5.97645819,11.6946707 6.11252485,11.6418394 C6.39442485,11.5619417 6.69325819,11.566453 6.98232485,11.6038237 C7.00185652,11.2642609 7.06240319,10.9272712 7.14768985,10.5973743 C7.00120485,10.6102609 6.85342319,10.6025289 6.70758985,10.5928639 C6.50512319,10.5716004 6.30915652,10.5123229 6.11838985,10.4433794 C6.04937985,10.4214726 5.98362485,10.3763691 5.90745652,10.391188 C5.71083985,10.4137398 5.52725652,10.5071666 5.37555652,10.6315179 L5.37554319,10.6315285 Z M17.8372232,12.1270066 C17.5683399,12.2088359 17.2799232,12.2094808 17.0025899,12.1759765 C16.9745949,12.5123229 16.9355332,12.8499394 16.8398299,13.1746899 C17.0123632,13.172757 17.1868299,13.1650249 17.3580632,13.1978849 C17.4947815,13.2204367 17.6243465,13.2726264 17.7577965,13.3087105 C17.8261565,13.3273959 17.8873532,13.3666998 17.9570132,13.3834519 C18.1353965,13.3860293 18.3085799,13.3157967 18.4557132,13.2185035 C18.6646965,13.0767501 18.8424299,12.8950561 18.9928299,12.6940169 C19.1106682,12.540666 19.1926965,12.3634767 19.2649632,12.1856458 C19.3222549,12.0084581 19.3678282,11.8273942 19.4016815,11.6444169 C19.1503815,11.6225101 18.8990815,11.5980251 18.6503815,11.5600095 C18.4420482,11.8209579 18.1542815,12.0181208 17.8372315,12.1270198 L17.8372232,12.1270066 Z M6.02023152,12.242355 C5.91411152,12.3183864 5.80083152,12.3892631 5.72269819,12.4962272 C5.63220319,12.5864342 5.56644819,12.6966066 5.50849819,12.8093653 C5.43948819,12.9201909 5.41214485,13.0496952 5.38479985,13.175353 C5.34052985,13.4253489 5.31513819,13.679221 5.32880985,13.9330932 C5.33532035,14.2030643 5.38935652,14.4691757 5.38935652,14.7397901 C5.63088985,14.6779344 5.88088985,14.6676251 6.12763985,14.6386305 C6.33207319,14.5986816 6.53258985,14.5323163 6.71552319,14.4324449 C6.83531485,14.3686561 6.95705652,14.303579 7.05472319,14.208214 C7.17451485,14.0973884 7.29560652,13.9807666 7.36527319,13.8306305 C7.36657535,13.8074354 7.35355435,13.7861719 7.34639319,13.7649084 C7.20706985,13.431795 7.10875985,13.0825662 7.04495985,12.7268878 C6.98896985,12.7571707 6.92581985,12.7784342 6.86135985,12.7668367 C6.76891152,12.7507285 6.67840985,12.7829449 6.58987652,12.8054973 C6.49221985,12.8390016 6.38805985,12.876374 6.32164319,12.9582033 C6.26695652,13.0181258 6.19403985,13.0709604 6.11005985,13.0748268 C5.99612819,13.0857787 5.88349319,13.0007286 5.86265985,12.8892598 C5.85224319,12.8035641 5.86135785,12.7081959 5.91929985,12.6386206 C6.04495152,12.4762486 6.23896652,12.3834618 6.43036652,12.3196763 C6.61134985,12.2661967 6.80666652,12.2236713 6.99286652,12.2771509 C6.98896019,12.2275377 6.98635619,12.1779245 6.98310085,12.1289546 C6.66343419,12.0561447 6.30471752,12.0638775 6.02021752,12.2423567 L6.02023152,12.242355 Z M16.6608842,13.7198 C16.5117959,14.0838412 16.3236509,14.4311402 16.0983842,14.7539443 C16.1706492,14.7822957 16.2116659,14.8493043 16.2663509,14.9002074 C16.3633559,14.9743056 16.4740342,15.0329398 16.5925175,15.0670858 C16.6849659,15.0960804 16.7852175,15.059354 16.8750675,15.0999468 C17.0046242,15.1360293 17.0755842,15.2900169 17.0235042,15.4117983 C16.9701192,15.5290668 16.8373042,15.596722 16.7103542,15.5935056 C16.5840525,15.5902839 16.4544875,15.5709538 16.3379542,15.5200524 C16.1289709,15.4388664 15.9258375,15.3190132 15.7897709,15.1379658 C15.7598225,15.172115 15.7292242,15.2062643 15.6986242,15.2397703 C15.7311759,15.3235328 15.7969309,15.3860334 15.8561759,15.4511023 C15.9759675,15.5735253 16.1094259,15.6920754 16.2760925,15.7474981 C16.3958842,15.8029109 16.5293425,15.8157967 16.6595592,15.8325505 C16.9609925,15.8409267 17.2747925,15.7713398 17.5228425,15.5941505 C17.8444592,15.3886082 18.1159425,15.1147773 18.3568259,14.8215979 C18.4538309,14.701108 18.5521425,14.581268 18.6589092,14.4691526 C18.4362592,14.3493076 18.2526592,14.1740433 18.0534425,14.0213505 C17.8893792,13.9156812 17.7129425,13.8261175 17.5241425,13.7726412 C17.3893775,13.7288276 17.2520092,13.6863006 17.1087759,13.6817909 C16.9590359,13.6772806 16.8060425,13.6766363 16.6608592,13.7198066 L16.6608842,13.7198 Z M7.15635919,14.7707097 C7.01964085,14.8544721 6.87770919,14.9305035 6.72862585,14.990421 C6.69932919,15.0033076 6.66807919,15.014261 6.64529252,15.038101 C6.54828752,15.134106 6.49425085,15.2629752 6.45192585,15.3899031 C6.36338419,15.7172268 6.38356585,16.0645093 6.45583219,16.3937629 C6.53330552,16.7107773 6.69931552,16.9968474 6.88746552,17.2616721 C6.96689219,17.1849975 7.05673219,17.1199187 7.14266552,17.0509835 C7.25269219,16.9646429 7.35946552,16.8737959 7.47729885,16.7971113 C7.45060552,16.5103814 7.47794985,16.212699 7.59448552,15.9466041 C7.71427719,15.6308763 7.96428552,15.3834536 8.23185219,15.1850041 C8.00723552,14.9266289 7.80086885,14.6514948 7.63810219,14.3505959 C7.49031552,14.5039468 7.34253552,14.6630907 7.15633552,14.7707031 L7.15635919,14.7707097 Z M8.24226885,15.8615567 C8.16088885,15.9530519 8.09773719,16.0580763 8.05736885,16.1734082 C7.94994719,16.4588515 7.96101552,16.7797258 8.06062402,17.0658124 C8.10880069,17.2301159 8.20906069,17.3731608 8.30932402,17.5103979 C8.44539235,17.6875856 8.59447402,17.855767 8.76245735,18.0033134 C8.95125735,18.1824309 9.16935735,18.3274041 9.35620735,18.5078247 C9.45451402,18.342233 9.57690735,18.1934 9.69930735,18.0451938 C9.93889069,17.782299 10.0710574,17.4414495 10.1407074,17.0986701 C10.1660974,16.8976309 10.172609,16.686299 10.104249,16.4929959 C10.026124,16.462068 9.94799902,16.4317851 9.87248235,16.3944128 C9.59774902,16.2623253 9.32756569,16.1173489 9.08341569,15.9349983 C9.06713952,15.9762354 9.05151402,16.0200491 9.01831235,16.0522668 C8.97924902,16.0909274 8.93107235,16.1212103 8.90112569,16.1682453 C8.83732402,16.2681167 8.77287069,16.3718577 8.74813069,16.4897629 C8.72925069,16.5703039 8.75854735,16.6559979 8.72469402,16.7339691 C8.69800069,16.8280408 8.60945902,16.9034206 8.50984402,16.905367 C8.35489569,16.9182536 8.23054402,16.7661917 8.22794402,16.6225134 C8.21101735,16.4433959 8.26440235,16.2681381 8.34057402,16.1076928 C8.43171902,15.9343649 8.53914069,15.7584639 8.70970735,15.650868 C8.67585402,15.6199402 8.64134735,15.5883674 8.60684235,15.5574396 C8.46491569,15.632826 8.35032569,15.7455798 8.24225902,15.8615715 L8.24226885,15.8615567 Z M14.4889257,16.202421 C14.653639,16.3519056 14.8085924,16.5155592 14.919259,16.7095056 C14.9863157,16.8325719 15.0592324,16.9530684 15.108059,17.0844994 C15.123033,17.1308911 15.1601424,17.1637521 15.1972524,17.1933917 C15.3834524,17.341588 15.6282357,17.3834618 15.860669,17.4008639 C16.237619,17.4195493 16.6217357,17.3499625 16.9596357,17.1811526 C17.1100257,17.1006115 17.259769,17.0181373 17.3958357,16.9150412 C17.2330757,16.7256144 17.0781357,16.5290948 16.9244857,16.3332185 C16.8476624,16.3312855 16.770839,16.3473937 16.694019,16.3435278 C16.4218857,16.3345071 16.1491024,16.2720078 15.908869,16.1431484 C15.6751524,16.0123493 15.4843857,15.819701 15.318369,15.6128721 C15.063169,15.8364598 14.784519,16.0336227 14.4889257,16.2024309 L14.4889257,16.202421 Z M12.8346357,16.7874866 C12.871094,16.8590066 12.8561207,16.9382594 12.8528657,17.014934 C12.8763024,17.1605521 12.9153657,17.3113299 13.0058607,17.4318082 C13.083334,17.5001068 13.164714,17.582581 13.1686207,17.6921134 C13.1783862,17.8100251 13.0820324,17.9240639 12.9628874,17.9356763 C12.8808557,17.9395422 12.7929707,17.9240783 12.727204,17.8718874 C12.5943907,17.7713711 12.505854,17.625108 12.445304,17.473042 C12.3665274,17.2720029 12.3092357,17.0516482 12.3528557,16.83644 C12.304679,16.8403059 12.2565024,16.8441719 12.208324,16.848038 C12.154939,17.0690359 12.1542874,17.305506 12.2135324,17.5258772 C12.343089,17.9208463 12.6855324,18.2236916 13.0768157,18.3551225 C13.3958324,18.4421065 13.7298157,18.471746 14.0598824,18.4562821 C14.324849,18.4472614 14.5878824,18.4021576 14.853499,18.3982929 C14.784489,18.162466 14.7792807,17.9156867 14.749984,17.6734269 C14.705714,17.4401733 14.6204274,17.2153155 14.498034,17.0110599 C14.4120974,16.840965 14.277984,16.7004949 14.1360507,16.575497 C14.0800607,16.5355481 14.026024,16.4827135 13.9589674,16.4659613 C13.595684,16.6077147 13.221334,16.7288561 12.8346174,16.7874788 L12.8346357,16.7874866 Z M10.667284,16.6837312 C10.6705392,16.7778129 10.6744455,16.8718813 10.667935,16.9665947 C10.6633779,17.2533246 10.567675,17.5284421 10.4648017,17.7932669 C10.441365,17.8738079 10.4667549,17.9601452 10.4901917,18.0381164 C10.56441,18.2784463 10.7375917,18.471106 10.914025,18.6437906 C11.064415,18.7790994 11.224575,18.907972 11.409475,18.9930194 C11.657525,19.127685 11.936825,19.1927555 12.2135084,19.2410854 C12.2349934,18.9936627 12.261035,18.7462401 12.2974934,18.5007473 C12.1366867,18.3776809 12.0084267,18.2198236 11.89646,18.0535885 C11.755835,17.8319308 11.6679434,17.5767885 11.6601267,17.3138937 C11.648408,17.1573213 11.6601267,17.0001122 11.6803084,16.84417 C11.3391584,16.8164636 10.9973584,16.7765147 10.6672917,16.6837312 L10.667284,16.6837312 Z" id="Shape" fill="#000000"></path>
    </g>
</svg>