<?xml version="1.0" encoding="UTF-8"?>
<svg width="24px" height="24px" viewBox="0 0 24 24" version="1.1" xmlns="http://www.w3.org/2000/svg" xmlns:xlink="http://www.w3.org/1999/xlink">
    <!-- Generator: Sketch 57.1 (83088) - https://sketch.com -->
    <title>crops-barley</title>
    <desc>Created with Sketch.</desc>
    <g id="crops-barley" stroke="none" stroke-width="1" fill="none" fill-rule="evenodd">
        <path d="M15.3697096,15.1540309 C15.3697096,16.0632825 14.8736092,16.8861464 14.0739994,17.3012855 L12.314657,18.214317 L12.314657,18.1632064 C12.314657,16.9233134 12.9790333,15.7773679 14.0491099,15.1729124 L15.3697415,14.4264535 L15.3697096,15.1540309 Z M8.63005744,15.1540309 L8.63005744,14.4265036 L9.95068911,15.1729625 C11.0201594,15.7774503 11.6845038,16.9233312 11.6845038,18.1632565 L11.6845038,18.2143671 L9.92579953,17.3013356 C9.12618978,16.886778 8.63008935,16.0639625 8.63008935,15.1540809 L8.63005744,15.1540309 Z M11.6846155,12.2117121 L11.6846155,12.2634526 L9.92591121,11.3504211 C9.12630147,10.9352336 8.63020104,10.1124181 8.63020104,9.20252035 L8.63020104,8.47499307 L9.9508327,9.22145199 C11.020303,9.82593979 11.6846474,10.9718207 11.6846474,12.211746 L11.6846155,12.2117121 Z M11.9999793,5.87090607 C12.4780028,6.50631124 13.4402724,8.21943051 11.9999793,10.3679774 C10.5596861,8.21878438 11.5219557,6.50572972 11.9999793,5.87090607 Z M14.0492215,9.22141807 L15.3698532,8.47495914 L15.3698532,9.20248643 C15.3698532,10.112368 14.8737528,10.9352481 14.074143,11.3503872 L12.3148006,12.2634187 L12.3148006,12.2116782 C12.3148006,10.9717852 12.9791769,9.82583964 14.0492535,9.22138415 L14.0492215,9.22141807 Z M15.3698532,12.1782748 C15.3698532,13.0881564 14.8737528,13.9103903 14.074143,14.3255295 L12.3148006,15.2385609 L12.3148006,15.1874504 C12.3148006,13.9475574 12.9791769,12.8016119 14.0492535,12.1971564 L15.3698851,11.4506974 L15.3698532,12.1782748 Z M9.95078484,12.1972048 C11.0202551,12.8016926 11.6845995,13.9475735 11.6845995,15.1874988 L11.6845995,15.2386094 L9.92589526,14.3255779 C9.12628551,13.9110203 8.63018508,13.0882048 8.63018508,12.1783233 L8.63018508,11.450796 L9.95078484,12.1972048 Z M15.6851213,6.26717656 C15.5112452,6.26717656 15.3697575,6.40977927 15.3697575,6.58583219 L15.3697575,7.74495879 L13.7418831,8.66493618 C13.5829583,8.75453677 13.4321354,8.85423639 13.2887969,8.96340022 C13.6415429,7.31334332 12.9435178,5.9409612 12.3146729,5.25315481 L12.3146729,4.31865563 C12.3146729,4.14261725 12.1738218,4 11.9999314,4 C11.8260553,4 11.6845676,4.14260271 11.6845676,4.31865563 L11.6845676,5.25315481 C11.0557227,5.94155887 10.3583198,7.31334332 10.7110659,8.96275408 C10.567721,8.85422347 10.4168901,8.75452224 10.2579797,8.66492003 L8.63010531,7.74494264 L8.63010531,6.58581603 C8.63010531,6.40977766 8.48863037,6.2671604 8.31474153,6.2671604 C8.1408527,6.2671604 8,6.40976312 8,6.58581603 L8,9.20248482 C8,9.69654884 8.11654547,10.1697913 8.32844676,10.5906648 C8.26861603,10.5881409 8.2087853,10.6007606 8.15519293,10.6329412 C8.05921487,10.6897296 8,10.7944739 8,10.9074176 L8,12.178228 C8,12.672292 8.11655185,13.1455344 8.32845314,13.566408 C8.26924625,13.563884 8.20879169,13.5765038 8.15519931,13.6080527 C8.05922125,13.6654728 8,13.7702154 8,13.8831591 L8,15.1539695 C8,16.3042602 8.6282354,17.3441918 9.63857694,17.8685271 L11.6846282,18.9311056 L11.6846282,19.6813444 C11.6846282,19.8573827 11.8261032,20 12,20 C12.1738681,20 12.3147336,19.8573973 12.3147336,19.6813444 L12.3147336,18.9311056 L14.3614231,17.8685271 C15.3723071,17.3441757 16,16.3036787 16,15.1539695 L16,13.8831591 C16,13.7702122 15.9407803,13.6654615 15.8448007,13.6080527 C15.7912019,13.5765038 15.7313712,13.5638832 15.6715469,13.566408 C15.8834434,13.1455344 16,12.672292 16,12.178228 L16,10.9074176 C16,10.7944707 15.9407867,10.6897199 15.8448071,10.6329412 C15.7912083,10.6007606 15.7313776,10.5887717 15.6715532,10.5912964 C15.8834497,10.1697929 16,9.69655046 16,9.20248643 L16,6.58581765 C16,6.40977927 15.8585251,6.26716202 15.6852585,6.26716202 L15.6851213,6.26717656 Z" id="barley" fill="#000000"></path>
    </g>
</svg>