<?xml version="1.0" encoding="UTF-8"?>
<svg width="24px" height="24px" viewBox="0 0 24 24" version="1.1" xmlns="http://www.w3.org/2000/svg" xmlns:xlink="http://www.w3.org/1999/xlink">
    <!-- Generator: Sketch 57.1 (83088) - https://sketch.com -->
    <title>crops-pasture</title>
    <desc>Created with Sketch.</desc>
    <g id="crops-pasture" stroke="none" stroke-width="1" fill="none" fill-rule="evenodd">
        <path d="M4.68590562,15.0788913 L4.19692468,14.8094148 L4.42564548,15.2984643 C4.61685944,15.7073169 4.78834635,16.0000168 5.18590567,16.6296474 C6.05886912,18.0121945 6.37134784,18.7361167 6.5011416,20.094001 L6.44030747,21.8211601 L6.43415079,22 L13.4196807,22 L13.3842546,21.7984299 C13.3590426,21.6549768 13.3790546,21.3888165 13.4476605,21.0106245 C13.5178488,20.6237098 13.6101292,20.2757439 13.7242564,19.9667933 L15.3914425,16.3128642 L15.8866715,15.2271551 L12.3339359,19.2288622 C13.2430428,16.9540815 14.2654845,15.4481347 15.3856514,14.606517 C16.9371736,13.440808 18.4560151,13.5658633 20.4825026,14.5376318 C20.6070495,14.5973562 20.7315529,14.6588483 20.8896746,14.7382762 C20.8879892,14.7374296 21.1866202,14.8879623 21.2669985,14.9280084 L22,15.2932048 L21.498665,14.6700342 C20.5038414,13.4334462 18.5755104,12.6554221 16.7208169,12.9800012 C14.8142946,13.3136505 13.1095673,14.7068929 11.7718941,17.2477486 C13.3546983,11.3435703 14.9553975,7.59807398 17.8214939,3.7684129 L17.5277662,3.56105973 C13.996147,7.78143801 11.8351523,11.6022703 10.9828257,15.6615242 C10.8686058,14.700803 10.7140883,13.6985325 10.4795728,12.3095439 C10.4746342,12.2802939 10.3630771,11.6214406 10.3310799,11.4310401 C10.2751486,11.0982186 10.2298775,10.8238749 10.1877118,10.5606917 C9.78869803,8.07018999 9.63936745,6.26978566 9.73416727,4.18373223 L9.36918143,4.1526877 C8.90546266,7.33399256 8.9566424,9.88439552 9.39914419,15.5002392 C7.88391614,10.3125556 6.07369272,6.45070262 3.30666584,3 L3,3.18855347 C5.29876018,7.10350267 6.32571039,10.2905018 7.9985885,17.4237911 L8.00726517,17.4607893 C8.1181009,17.9334066 8.19970711,18.2806802 8.26917001,18.5744579 C6.93420339,16.8144379 5.74890899,15.6647105 4.68590562,15.0788913 Z M9.55160048,17.4140743 L9.91253312,17.3598109 C9.87861052,16.9083926 9.85027441,16.5473045 9.78564131,15.7351634 C9.48781198,11.9928172 9.35797084,9.59924863 9.43036888,7.50753904 C9.50966009,8.4608417 9.64106134,9.46460863 9.82497166,10.6125113 C9.86728724,10.8766301 9.91268709,11.1517541 9.96874587,11.4853339 C10.000783,11.6759723 10.1123717,12.3350119 10.1172805,12.3640857 C10.4577197,14.3804395 10.6285342,15.576027 10.7524346,17.0152009 L10.8924485,18.6415419 L11.1171419,17.0236891 C11.5706729,13.7581436 12.8594928,10.6822805 15.0196811,7.46610476 C13.3053921,10.6479062 12.1227966,14.2324563 10.8645219,19.3065052 L11.2162278,19.4033048 C12.6050948,15.6626319 14.5668951,13.70927 16.7876706,13.3206251 C18.0439611,13.100769 19.3424552,13.4308269 20.3060546,14.0703713 C18.3287024,13.191641 16.7561349,13.134124 15.1572296,14.3354335 C13.8308273,15.3320025 12.6575213,17.1795018 11.6450558,20.0233743 L11.3356004,20.8925908 L14.5592711,17.2615336 L13.3825858,19.841225 C13.2567249,20.1806117 13.1595405,20.5470691 13.0860595,20.9521351 C13.03353,21.2417052 13.0068085,21.4742992 13.0070499,21.6535757 L6.81313823,21.6535757 L6.86716988,20.0840581 C6.73076133,18.6425288 6.39965392,17.8754493 5.501396,16.4528424 L5.50101487,16.4522387 C5.31036733,16.1503026 5.1731716,15.9281321 5.06132035,15.7341287 C6.07418401,16.4593679 7.21685494,17.7011906 8.50266496,19.4987017 L9.05098773,20.2652351 L8.83352811,19.3632973 C8.70115255,18.8142551 8.5973281,18.3746228 8.36545547,17.3858894 L8.35677864,17.3488904 C7.52026913,13.7819453 7.10535065,12.1650319 6.46276647,10.17086 C5.89995599,8.42425485 5.26972468,6.81626748 4.53137794,5.28836987 C6.72013665,8.59744407 8.22581899,12.4055913 9.55160048,17.4140743 Z" id="Path" stroke="#000000" stroke-width="0.2" fill="#000000"></path>
    </g>
</svg>