<?xml version="1.0" encoding="UTF-8"?>
<svg width="24px" height="24px" viewBox="0 0 24 24" version="1.1" xmlns="http://www.w3.org/2000/svg" xmlns:xlink="http://www.w3.org/1999/xlink">
    <!-- Generator: Sketch 57.1 (83088) - https://sketch.com -->
    <title>crops-dates</title>
    <desc>Created with Sketch.</desc>
    <g id="crops-dates" stroke="none" stroke-width="1" fill="none" fill-rule="evenodd">
        <path d="M3.4585,12.2904 C2.8625,11.7014 2.9775,10.9034 3.0915,10.1434 C3.1605,9.7064 3.2295,9.2494 3.1375,8.8894 C2.7715,7.3314 3.6865,6.6274 4.2825,6.1714 C4.5115,5.9814 4.6945,5.8304 4.7635,5.6964 C5.0615,5.0514 5.7015,4.5764 6.5255,4.4244 C7.3965,4.2534 8.3805,4.4624 9.2275,5.0134 C9.3875,4.8614 9.5485,4.7284 9.7535,4.5954 C9.5485,3.9874 9.9145,3.3424 10.6245,3.0944 C11.3335,2.8474 12.1575,3.0954 12.5215,3.7044 C13.3005,3.5894 13.9415,3.6094 14.4915,3.7804 C15.3375,4.0464 15.9325,4.6164 16.2995,5.5474 C16.3445,5.5664 16.4135,5.6234 16.4585,5.6614 C16.7345,5.8514 17.1695,6.1744 17.6265,6.8394 C17.9015,7.2384 17.9015,7.6744 17.9245,8.0744 C17.9485,8.6064 17.9715,9.0614 18.5205,9.5374 C19.1615,10.1074 19.2535,10.7344 19.3445,11.3044 C19.4135,11.8544 19.4825,12.2914 20.0315,12.6154 C20.8095,13.0904 20.9475,13.9074 21.0615,14.7244 C21.1305,15.1804 21.1995,15.6554 21.4055,16.0164 C21.6795,16.5294 21.7935,16.9664 21.7935,17.3464 C21.7935,18.1064 21.3585,18.6384 21.0385,19.0374 C20.8545,19.2664 20.6945,19.4564 20.6715,19.6264 C20.5575,20.4054 19.9625,21.0704 19.0925,21.3744 C17.9025,21.7924 16.4605,21.5444 15.1095,20.7094 C13.6445,19.8164 13.2785,19.0374 12.9805,18.4294 C12.7985,18.0494 12.6845,17.7834 12.3175,17.5554 C12.2035,17.7834 12.2495,18.0874 12.3405,18.4674 C12.4095,18.7904 12.5005,19.1324 12.4095,19.4554 C12.1355,20.5184 11.6535,21.5824 9.1595,21.7154 C6.7785,21.8484 6.0455,20.8794 5.3815,20.0434 L5.2675,19.8914 C5.0845,19.6634 4.6485,19.1504 4.3285,18.1814 C4.2145,17.7824 4.2375,17.4024 4.2835,17.0214 C4.3285,16.4894 4.3745,15.9964 3.9855,15.4074 C3.6885,14.9504 3.6425,14.5144 3.6655,14.1144 C3.6655,13.9624 3.6875,13.8104 3.7105,13.6774 L3.7105,13.6204 C3.8015,13.1074 3.8475,12.6894 3.4585,12.2904 L3.4585,12.2904 Z M9.4565,6.0774 C9.2725,6.4194 9.2495,6.7614 9.3875,7.0274 C9.9375,8.0344 9.9825,9.4594 9.8685,10.3724 L9.8685,10.5044 C9.8685,10.9984 10.1655,11.6064 10.7605,12.3474 L10.8065,12.4234 C11.4245,13.2024 11.7915,14.1334 11.8365,15.0834 C11.8595,15.5974 12.0885,16.5274 12.6375,16.8124 C13.3475,17.1924 13.5765,17.6674 13.8055,18.1234 C14.0565,18.6744 14.3545,19.3014 15.6135,20.0804 C16.6895,20.7454 17.8105,20.9554 18.6805,20.6504 C19.0015,20.5374 19.2525,20.3474 19.4365,20.1374 C18.9565,19.8724 18.6805,19.5484 18.5895,19.1874 C18.4985,18.7884 18.6585,18.4844 18.8185,18.2184 C18.9325,18.0284 19.0235,17.8574 19.0475,17.6484 C19.0925,17.2684 18.8635,16.8494 18.3605,16.3944 L19.0475,15.8814 C19.7105,16.4894 20.0315,17.1164 19.9625,17.7054 C19.9175,18.0664 19.7575,18.3324 19.6435,18.5414 C19.5055,18.7504 19.4595,18.8834 19.4825,19.0164 C19.5285,19.1484 19.6195,19.2634 19.7575,19.3584 C19.8265,19.0914 20.0325,18.8444 20.2385,18.5794 C20.6965,18.0094 21.1535,17.4194 20.5365,16.2994 C20.2845,15.8434 20.1925,15.2914 20.1245,14.7794 C20.0325,14.0954 19.9415,13.4684 19.4605,13.1834 C18.5675,12.6704 18.4765,11.9674 18.3845,11.3404 C18.3155,10.8274 18.2475,10.3904 17.8125,10.0104 C17.0115,9.3074 16.9885,8.6044 16.9655,8.0354 C16.9655,7.6924 16.9425,7.4074 16.7825,7.1604 C16.4165,6.6094 16.0495,6.3624 15.8205,6.1914 C15.6375,6.0584 15.4775,5.9444 15.4085,5.7544 C15.1565,5.0514 14.7225,4.6144 14.1495,4.4434 C13.5775,4.2724 12.7765,4.3294 11.6765,4.6334 C10.6005,4.9184 9.7995,5.4504 9.4565,6.0774 L9.4565,6.0774 Z M16.5285,12.8214 L16.6435,12.6524 L17.3995,13.0704 C16.9865,13.5834 16.8495,14.0204 16.9865,14.3814 C17.0795,14.5904 17.2395,14.7424 17.3995,14.9134 C17.6515,15.1594 17.9255,15.4264 17.9255,15.8444 C17.9255,16.2794 17.6185,16.6984 17.0205,17.0734 L16.8505,17.1744 L16.3465,16.5464 C16.8045,16.2994 17.0335,16.0534 17.0335,15.8444 C17.0335,15.7114 16.9415,15.5974 16.7355,15.4074 C16.5305,15.2164 16.3015,14.9694 16.1635,14.6274 C15.9525,14.0834 16.0915,13.4914 16.5285,12.8214 L16.5285,12.8214 Z M13.1655,5.7924 L13.6465,5.1464 C14.2645,5.4694 14.7225,5.8694 14.9965,6.3444 C15.2475,6.7814 15.2715,7.1224 15.2715,7.4264 C15.2715,7.7114 15.2715,7.9394 15.4545,8.2814 C15.6145,8.5864 15.7975,8.7564 16.0265,8.9464 C16.2775,9.1564 16.5305,9.3844 16.8045,9.8014 C17.1515,10.3084 17.3335,10.9054 17.3865,11.5654 L17.3995,11.8164 L16.4845,11.8354 C16.4615,11.2084 16.3015,10.6384 16.0035,10.1634 C15.7975,9.8394 15.5915,9.6684 15.3855,9.4784 C15.1105,9.2694 14.8585,9.0414 14.6295,8.6044 C14.3785,8.1294 14.3555,7.7694 14.3555,7.4644 C14.3325,7.1794 14.3325,6.9704 14.1715,6.6854 C13.9885,6.3434 13.6455,6.0584 13.1655,5.7924 L13.1655,5.7924 Z M12.6855,14.3414 L13.5315,14.0764 C13.6915,14.4564 13.8755,14.6654 14.0815,14.8934 C14.3105,15.1594 14.5625,15.4254 14.7225,15.9004 C14.9045,16.4134 14.8825,16.7934 14.8595,17.0964 C14.8365,17.4004 14.8135,17.6284 14.9515,17.9704 C15.0915,18.3194 15.3545,18.6394 15.7085,18.9174 L15.8665,19.0344 L15.2715,19.6234 C14.6765,19.2254 14.2865,18.7504 14.0815,18.2184 C13.9005,17.8024 13.9125,17.4744 13.9345,17.1824 L13.9525,16.9364 C13.9695,16.6904 13.9705,16.4344 13.8525,16.1084 C13.7155,15.7674 13.5545,15.5774 13.3485,15.3294 C13.1435,15.0824 12.8905,14.8164 12.6855,14.3414 L12.6855,14.3414 Z M10.6925,9.8764 L11.5625,9.6114 L11.5795,9.6434 C11.6755,9.8284 12.2155,10.7744 13.3485,11.1504 C14.5845,11.5494 15.2255,12.6894 15.2035,13.5434 C15.2035,13.6444 15.1925,13.7464 15.1725,13.8414 L15.1345,13.9804 L14.2645,13.7524 C14.4025,13.3724 14.0585,12.2134 13.0055,11.8724 C11.3335,11.3394 10.7165,9.9344 10.6925,9.8764 L10.6925,9.8764 Z M11.0375,6.1724 L11.3345,5.4504 C12.1135,5.6594 12.5935,6.0014 12.7775,6.4384 C12.9375,6.8364 12.8225,7.1414 12.7085,7.4264 C12.6165,7.6164 12.5475,7.8064 12.5705,8.0154 C12.5905,8.3574 12.8335,8.6994 13.2995,9.0554 L13.4625,9.1744 L12.8685,9.7644 C12.1125,9.2134 11.7005,8.6434 11.6555,8.0544 C11.6325,7.7114 11.7475,7.4274 11.8385,7.1994 C11.9305,6.9704 11.9525,6.8374 11.9075,6.7054 C11.7925,6.4384 11.3805,6.2674 11.0375,6.1724 L11.0375,6.1724 Z M4.0315,10.2764 C3.9395,10.9034 3.8485,11.5114 4.1915,11.8534 C4.2595,11.9294 4.3285,12.0244 4.3975,12.1004 C4.6485,11.6064 4.8095,11.1684 4.6035,10.6564 L5.4735,10.4284 C5.5655,10.6754 5.6115,10.9034 5.6115,11.1314 C5.6115,11.6824 5.3595,12.1564 5.1075,12.6314 C4.9005,12.9924 4.7175,13.3724 4.6265,13.8104 C4.6045,13.9244 4.5815,14.0374 4.5815,14.1514 L4.5815,14.2664 C4.5575,14.5324 4.6035,14.7794 4.7865,15.0454 C5.3365,15.8244 5.2445,16.5274 5.1985,17.0974 C5.1535,17.4394 5.1305,17.7254 5.2225,17.9904 C5.4965,18.8274 5.8395,19.2634 6.0235,19.4724 L6.1615,19.6244 C6.7785,20.4224 7.2585,21.0494 9.1135,20.9554 C10.9905,20.8404 11.2885,20.2134 11.5175,19.2824 C11.5625,19.0924 11.3335,18.8274 11.4485,18.5804 C11.4025,17.6294 10.6925,15.0074 9.5925,14.8554 C9.3645,14.1514 9.4565,13.6584 9.5475,13.2214 C9.6385,12.7844 9.7075,12.4414 9.4335,11.8724 L9.4565,11.8724 C9.2055,11.4164 8.9985,10.8464 9.0675,10.3134 C9.1815,9.4204 9.1125,8.1664 8.6785,7.3494 C8.4265,6.8744 8.4495,6.3234 8.7475,5.7724 C8.7475,5.7344 8.7695,5.7154 8.7925,5.6774 C8.1295,5.2594 7.4185,5.0884 6.8015,5.2024 C6.7955,5.2034 6.7905,5.2054 6.7845,5.2064 L7.5555,5.6024 C7.3275,5.9064 7.2355,6.1914 7.2815,6.4184 C7.3045,6.5894 7.3965,6.6844 7.5335,6.8364 C7.6705,6.9884 7.8305,7.1784 7.9685,7.4824 C8.0825,7.7294 8.1275,7.9954 8.1275,8.2994 C8.1275,8.5274 8.0835,8.7924 8.0195,9.0644 L7.9685,9.2694 L7.0755,9.0984 C7.2585,8.5284 7.2585,8.0724 7.1205,7.7104 C7.0295,7.5394 6.9145,7.4064 6.8005,7.2734 C6.6175,7.0834 6.4345,6.8734 6.3655,6.5134 C6.3045,6.1424 6.4065,5.7554 6.6705,5.3534 L6.7715,5.2094 C6.2605,5.3274 5.8595,5.6094 5.6805,6.0194 C5.5205,6.3244 5.2455,6.5514 4.9475,6.7794 C4.3975,7.1984 3.8255,7.6544 4.0775,8.7934 C4.1695,9.2694 4.1005,9.7814 4.0315,10.2764 L4.0315,10.2764 Z M8.9305,18.2184 C9.0445,17.9904 9.1825,17.8184 9.2965,17.6864 C9.4335,17.4964 9.5255,17.3824 9.5715,17.1734 C9.6745,16.7464 9.5735,16.5644 9.4855,16.4634 L9.4575,16.4324 L10.1435,15.9194 C10.3955,16.1654 10.5325,16.4704 10.5325,16.8504 C10.5325,16.9834 10.5095,17.1354 10.5095,17.3074 C10.4185,17.6674 10.2345,17.8954 10.0745,18.1044 C9.9605,18.2374 9.8695,18.3524 9.7545,18.5414 C9.6905,18.6314 9.4655,19.0874 9.9845,19.5824 L10.0985,19.6824 L9.4575,20.2324 C8.6105,19.5484 8.6325,18.7124 8.9305,18.2184 L8.9305,18.2184 Z M5.7035,12.4424 L6.5955,12.3474 C6.6185,13.0884 7.1215,13.5254 7.6705,14.0004 C8.2515,14.5014 8.9155,15.0694 8.8005,16.0534 L8.7695,16.2424 L7.8765,16.2054 C8.0605,15.4074 7.5805,15.0074 6.9845,14.4954 C6.6195,14.1714 6.2295,13.8484 5.9775,13.3924 C5.8175,13.1264 5.7265,12.8034 5.7035,12.4424 L5.7035,12.4424 Z M5.2205,8.5764 L5.2225,8.3764 L6.1375,8.3954 C6.1375,8.7374 6.2055,9.0224 6.3435,9.2504 C6.4585,9.4214 6.5725,9.4974 6.7325,9.6114 C6.8925,9.7254 7.0995,9.8584 7.3045,10.1054 C7.5115,10.3334 7.6935,10.6184 7.8535,10.9414 C7.9395,11.1124 8.0125,11.2934 8.0725,11.4944 L8.1275,11.7014 L7.2355,11.8724 C7.0755,11.3014 6.8695,10.8654 6.5945,10.5614 C6.4345,10.3904 6.2975,10.2954 6.1605,10.2004 C5.9545,10.0664 5.7255,9.9154 5.5415,9.6114 C5.3785,9.3664 5.2735,9.0834 5.2355,8.7694 L5.2205,8.5764 Z M5.5885,15.4454 L6.4805,15.2554 C6.5735,15.5974 6.7095,15.7874 6.8475,15.9964 C7.0075,16.2434 7.1905,16.5094 7.2825,16.9464 C7.3745,17.4214 7.3055,17.7624 7.2365,18.0664 C7.1905,18.3324 7.1445,18.5604 7.2135,18.8644 C7.3135,19.2464 7.5185,19.4834 7.7215,19.6774 L7.8085,19.7584 L7.1445,20.2904 C6.8015,20.0054 6.4355,19.6254 6.2975,18.9984 C6.1835,18.5614 6.2525,18.2384 6.3215,17.9344 C6.3905,17.6684 6.4355,17.4214 6.3665,17.0794 C6.3215,16.7754 6.2065,16.6034 6.0465,16.3764 C5.8865,16.1484 5.7265,15.8824 5.5885,15.4454 L5.5885,15.4454 Z" id="Fill-1" fill="#010202"></path>
    </g>
</svg>