<?xml version="1.0" encoding="UTF-8"?>
<svg width="24px" height="24px" viewBox="0 0 24 24" version="1.1" xmlns="http://www.w3.org/2000/svg" xmlns:xlink="http://www.w3.org/1999/xlink">
    <!-- Generator: Sketch 57.1 (83088) - https://sketch.com -->
    <title>crops-tomato</title>
    <desc>Created with Sketch.</desc>
    <g id="crops-tomato" stroke="none" stroke-width="1" fill="none" fill-rule="evenodd">
        <path d="M17.0077719,7.1176741 C17.0901572,6.98771513 17.1658639,6.85107941 17.2259766,6.69661305 C17.2682837,6.58893145 17.260119,6.46788876 17.2051935,6.36614057 C17.15027,6.26439999 17.0537803,6.19087971 16.940969,6.16637041 C15.3028945,5.80990956 14.1613478,6.17453935 13.4873908,6.54362956 C13.6863098,6.01338692 14.0321806,5.58192671 14.5138689,5.09847075 C14.9955762,4.61649766 14.9955762,3.8322838 14.5131267,3.35032972 C14.0470191,2.88322343 13.2327985,2.88322343 12.7666909,3.35032972 L12.371095,3.74614384 C11.6971571,4.4204537 11.2971151,5.35765105 11.0915079,6.24954461 C10.4242582,5.81509963 9.42671827,5.49206055 9.05120625,5.38067367 C8.92725669,5.34502758 8.79142786,5.3702768 8.69049582,5.45196584 C8.58955428,5.53291192 8.53388776,5.65840895 8.54353634,5.78836982 C8.54576304,5.82178779 8.58138966,6.25846088 8.72834913,6.81914052 C5.23923957,8.06006153 3,10.8753798 3,14.0783944 C3,18.4466082 7.26187047,22 12.50038,22 C17.7388896,22 22.00076,18.4466082 22,14.0791548 C22,11.142868 20.0955538,8.50505774 17.0079303,7.11780718 L17.0077719,7.1176741 Z M10.0546337,7.9100628 C9.70728083,7.41324193 9.52320147,6.79241071 9.42819767,6.34089364 C10.1407262,6.60155682 10.8176282,6.93425361 10.9489995,7.14516436 C10.9304439,7.34641741 10.9170839,7.54246137 10.9170839,7.72219368 L10.9170839,8.13732323 C10.9170839,8.35564837 11.0944731,8.53313735 11.3126797,8.53313735 C11.5308864,8.53313735 11.7082756,8.35565027 11.7082756,8.13732323 L11.7082756,7.72219368 C11.7082756,6.63052996 12.0860677,5.151303 12.9299674,4.30682349 L13.3255633,3.91100936 C13.4992416,3.73797661 13.7805365,3.73946329 13.9534814,3.91175194 C14.1264187,4.08478469 14.1264187,4.36623477 13.9534814,4.53927512 C13.0568735,5.4371192 12.5002272,6.28296752 12.5002272,7.72213778 L12.5002272,8.13726733 C12.5002272,8.35559247 12.6776164,8.53308146 12.8958231,8.53308146 C13.1140278,8.53308146 13.2914189,8.35559437 13.2914189,8.13726733 L13.2921613,7.72213778 C13.2921613,7.69614561 13.2951301,7.67312489 13.2958723,7.64713272 C13.3099745,7.63525069 13.3277879,7.6285671 13.3411473,7.61519953 C13.3834544,7.57064097 14.3104901,6.61488484 16.233633,6.84955965 C15.7259517,7.47708283 14.8315859,7.68352595 14.4211315,7.74666229 C14.2689772,7.76968301 14.1442904,7.87884938 14.1012347,8.02738234 C14.0581866,8.17516435 14.1049457,8.33483219 14.2207324,8.43581993 C14.2674914,8.47592225 14.3261277,8.53310427 14.3951537,8.59919877 C14.568091,8.76331904 14.7989198,8.9838723 15.0698327,9.19404162 C14.4270749,9.23488537 13.7761469,9.05145728 13.403561,8.94451902 C13.2974247,8.91555729 13.1816321,8.92966649 13.0873694,8.98833424 C12.9931066,9.04700199 12.9263075,9.14205727 12.9062693,9.2504803 C12.7637636,9.98568317 12.5143786,10.4721049 12.0868615,10.8285657 C11.7751351,10.5864765 11.3283132,10.0517853 10.8777862,9.14949256 C10.8117281,9.01879025 10.6803493,8.93413318 10.5333974,8.93042599 C9.99083069,8.91483087 9.58410042,8.88438265 9.28128531,8.84947991 C9.54923403,8.71654948 9.80751136,8.57396894 9.96783977,8.45440722 C10.1385502,8.32593303 10.1771521,8.08458147 10.0546789,7.91005824 L10.0546337,7.9100628 Z M12.4994615,21.2074782 C7.69796946,21.2074782 3.79103318,18.0090263 3.79103318,14.0782613 C3.79103318,11.2222019 5.81803426,8.6994097 8.97843068,7.56919118 C9.03929201,7.71548841 9.10609298,7.86253469 9.18475993,8.00660191 C8.7965744,8.21677122 8.23323987,8.46330905 7.99424831,8.56357435 C7.81982703,8.6363513 7.72111238,8.82275466 7.75822087,9.00691659 C7.82205202,9.32773135 8.17756764,9.63369833 10.2758216,9.71314633 C10.8035297,10.7090124 11.4032507,11.4145007 11.937647,11.6640803 C11.9903438,11.6885877 12.0474961,11.7012112 12.1046466,11.7012112 C12.1810943,11.7012112 12.2582849,11.6789319 12.3258345,11.6351167 C12.9581988,11.2125537 13.3567777,10.6414749 13.5853759,9.81568348 C14.2860289,9.99242912 15.3422051,10.1610037 16.2521325,9.67458392 C16.3894434,9.60106363 16.4703373,9.45401545 16.4607039,9.29954908 C16.4503127,9.14433938 16.3515977,9.00993177 16.2068727,8.95422883 C15.8832708,8.83095231 15.5581678,8.5829202 15.2924611,8.34898683 C15.6657881,8.22793843 16.0851538,8.03336213 16.4518115,7.73781332 C19.3864789,8.96611085 21.2101718,11.3877823 21.2101718,14.0776833 C21.2079451,18.0092088 17.3009555,21.2076607 12.4994634,21.2076607 L12.4994615,21.2074782 Z M5.37493654,14.0775008 C5.37493654,13.8591757 5.19754734,13.6816844 4.97934071,13.6816844 C4.76039496,13.6809441 4.58300386,13.8584324 4.58300386,14.0775008 C4.58300386,15.8352996 5.50780885,17.5284221 7.11922531,18.7247997 C7.18973523,18.7775255 7.27212252,18.8035177 7.35451172,18.8035177 C7.47549336,18.8035177 7.59498534,18.7485638 7.67292646,18.642367 C7.80281375,18.4671061 7.7664463,18.2190626 7.59054106,18.0883603 C6.16251994,17.027894 5.37505244,15.6035905 5.37505244,14.0773678 L5.37493654,14.0775008 Z" id="Shape" fill="#000000"></path>
    </g>
</svg>