<?xml version="1.0" encoding="UTF-8"?>
<svg width="24px" height="24px" viewBox="0 0 24 24" version="1.1" xmlns="http://www.w3.org/2000/svg" xmlns:xlink="http://www.w3.org/1999/xlink">
    <!-- Generator: Sketch 57.1 (83088) - https://sketch.com -->
    <title>crops-peanuts</title>
    <desc>Created with Sketch.</desc>
    <g id="crops-peanuts" stroke="none" stroke-width="1" fill="none" fill-rule="evenodd">
        <path d="M14.4587853,3.5023899 C13.4437439,3.84068244 12.5206894,4.19625194 11.8426627,4.18591228 C10.3351712,4.22388403 9.01715526,3.68103629 7.62488486,3.83378933 C5.69452717,4.16432713 4.50865319,4.75030762 3.80905463,5.62973126 C3.10941648,6.5091549 2.96949677,7.6207128 3.00506052,8.79260749 C2.98573359,9.90244211 3.54389984,10.9346188 4.13684673,11.5551532 C4.56590746,11.9909876 5.10009599,12.3094404 5.70772752,12.5010114 C4.58910207,13.19832 3.89486677,13.9258522 3.52462378,14.7388413 C3.03991181,15.8038044 3.16514688,16.9386708 3.47514722,18.0744871 C3.68928177,18.6699677 3.97919462,19.2585552 4.31624874,19.6633044 C5.40627673,21.4445764 7.35133885,22.3299652 9.61024069,21.8872155 C10.6275975,21.5903258 11.6086979,21.0647484 12.4242695,20.5892344 C13.2947403,20.0800502 14.0925598,19.6226527 14.5578967,19.5398029 C15.879851,19.3741031 17.7869349,19.1031068 19.6417122,17.9924105 C20.7703913,17.1009018 21.4630632,16.1067035 21.7939426,15.0089318 C22.0923456,13.8982356 22.0343591,12.7512179 21.8248655,11.7355891 C21.6779814,10.554106 21.2404285,9.48737536 20.5137366,8.89704249 C20.6095965,8.44914511 20.6869046,7.93909928 20.7611194,7.34965015 C20.8469296,6.4089618 20.7510693,5.38283868 20.3776761,4.70441984 C19.9262123,3.91820782 19.0874263,3.35292875 17.7801567,3.07417764 C16.6700214,2.84893649 15.4361551,3.17860381 14.459092,3.50223524 L14.4587853,3.5023899 Z M17.6314202,3.94425581 C18.2630182,4.07716024 19.3074486,4.50867324 19.7094357,5.18097223 C20.0162395,5.71604976 20.0665971,6.40905017 19.9753822,7.23237893 C19.9699706,7.36873655 19.9382747,7.54824679 19.919721,7.67424485 C19.6831637,7.4593522 19.5424721,7.23582549 19.4682573,7.00455287 C19.3623458,6.67659999 19.3754888,6.29255222 19.5177339,5.82306969 L18.7694108,5.54001038 C18.6866919,5.81186839 18.6379892,6.08544967 18.6209811,6.35470067 C18.2932088,6.69818514 18.045826,6.86905469 17.8664636,6.90703306 C17.6631545,6.95018348 17.4544228,6.88545763 17.0748386,6.60325024 L16.6357242,7.34200587 C17.0956979,7.6846287 17.5494969,7.86930656 18.0148932,7.77006348 C18.280048,7.71310475 18.5181688,7.57847262 18.7570416,7.3834308 C18.8884633,7.74330849 19.1095522,8.06867646 19.4126061,8.35001249 C18.9016122,8.18603826 18.3287528,8.0945698 17.7056647,8.0807394 C16.8560532,8.04190381 15.9430722,8.21278219 15.1884953,8.55022194 C15.2263765,8.4250833 15.2797182,8.31289575 15.3431095,8.21192939 C15.5209164,7.92540144 15.816996,7.69410672 16.326466,7.54223741 L16.1161907,6.6861222 C15.4791701,6.8768492 14.9960018,7.22119973 14.6937396,7.70793713 C14.4579541,8.0876767 14.3450881,8.53643572 14.3226654,9.0136951 C14.0582824,9.17335451 13.8039333,9.34164798 13.5557787,9.51079425 C12.624234,10.1468381 11.7862198,10.7742657 11.1066889,10.9615284 C10.9412512,10.9969131 10.7456684,11.0297061 10.5377085,11.0581866 C10.5709508,10.8148069 10.6397529,10.6102892 10.7479839,10.4368127 C10.9257908,10.1502847 11.2156957,9.91209688 11.7251459,9.76020547 L11.521065,8.91098336 C10.8840444,9.10171037 10.3947014,9.44692253 10.0924195,9.9327983 C9.8690031,10.292676 9.75613717,10.7138405 9.72751993,11.1625995 C8.67151201,11.3636839 7.67879452,11.5405937 6.82700606,11.8185053 C5.97662273,11.8487112 5.17031312,11.3844162 4.61283103,10.8381153 C4.91586507,10.7414571 5.18258331,10.5852575 5.404456,10.3755259 C5.80955028,9.99320137 6.04842311,9.44778417 6.15897354,8.8281335 L5.37971772,8.65552963 C5.29235992,9.14140539 5.13542225,9.48058167 4.89732125,9.70496118 C4.70791904,9.88360536 4.45434772,10.0061591 4.09332715,10.0501689 C3.92788941,9.6782062 3.82506524,9.24928696 3.79646779,8.75908091 C3.7709557,7.7062028 3.94567128,6.80693938 4.39636119,6.21746816 C4.91046223,5.57106251 5.89688631,5.02736859 7.71742582,4.71150074 C8.3583056,4.64504853 8.9767626,4.68302027 9.56042769,4.75292567 C9.68025398,5.31992802 9.91293828,5.81875045 10.290207,6.17604323 C10.6953012,6.55836771 11.2449462,6.75599224 11.9043698,6.75599224 L11.9043698,5.87226041 C11.376356,5.87226041 11.0354427,5.73158798 10.7973219,5.50635125 C10.6357493,5.35359599 10.5166909,5.14561191 10.4262477,4.8780621 C10.9217851,4.95918647 11.3910406,5.04117248 11.7930278,5.07137844 C12.0705517,5.06878932 12.3566054,5.0454873 12.5908274,5.00233689 C12.9379352,5.39846968 13.3445731,5.68239063 13.8091778,5.77560224 C14.3309972,5.88089005 14.8953466,5.73676665 15.4666426,5.36824605 L15.0708301,4.60187381 C14.6139438,4.89615651 14.258326,4.96778297 13.9514328,4.90565663 C13.8145985,4.87804001 13.6816272,4.81849195 13.5494457,4.73305275 C13.9212917,4.6113673 14.2977687,4.48105662 14.6812319,4.35331318 C15.7380116,4.05730721 16.6239587,3.75438603 17.6312223,3.945957 L17.6314202,3.94425581 Z M17.6314202,4.43446186 C17.3477018,4.44827017 17.0856344,4.51558623 16.8459699,4.64158651 C16.365889,4.89444428 16.0079557,5.36048026 15.7574856,5.92662097 L16.4687211,6.31325364 C16.6650816,5.86880281 16.8977818,5.59177497 17.1799565,5.44333012 C17.4621312,5.29488968 17.8208363,5.25605409 18.3302865,5.40880934 L18.5405619,4.55958724 C18.2220516,4.46465456 17.9151386,4.42150414 17.6314202,4.43531245 L17.6314202,4.43446186 Z M7.27914266,5.07653722 C7.01553154,5.58658305 6.73798783,5.84290947 6.44421581,5.96026906 C6.15044378,6.07850354 5.8071952,6.06383138 5.38664444,5.90503582 L5.13308696,6.74042752 C5.66881915,6.9423735 6.21074581,6.98897709 6.71016221,6.7887566 C7.20955882,6.58853611 7.63553221,6.15615926 7.96563982,5.51753045 L7.27914266,5.07653722 Z M9.30768163,5.4631699 C8.67066102,5.6538969 8.18131805,5.99910907 7.87903605,6.48498483 C7.57677385,6.97172223 7.47782073,7.56806447 7.51413653,8.19807689 L8.30576149,8.1359395 C8.2771581,7.64142526 8.35059913,7.27551609 8.52840601,6.98984978 C8.70621289,6.70332183 9.00229251,6.465134 9.51176254,6.3132426 L9.30768163,5.4631699 Z M13.7791752,6.32617822 C13.1421546,6.51690522 12.6589863,6.86125575 12.3567241,7.34799315 C12.0544619,7.83473055 11.9493143,8.43107279 11.9856499,9.06108522 L12.7772749,9.00585198 C12.7486715,8.51133774 12.8282971,8.13851337 13.0060941,7.85284705 C13.183901,7.5663191 13.4799806,7.32813128 13.9894506,7.17623987 L13.7791752,6.32617822 Z M11.2311324,7.32037653 C10.8577427,7.73721074 10.5276351,7.90635702 10.2168629,7.93483528 C9.90609073,7.96417738 9.57829862,7.85716408 9.20876809,7.58271233 L8.76965372,8.31455275 C9.24045288,8.66493033 9.75609759,8.86774678 10.2848635,8.81854501 C10.8136492,8.76935208 11.3215557,8.46902907 11.7877239,7.94862149 L11.2311324,7.32037653 Z M4.87952948,7.51369287 L5.13308696,8.34908457 C5.55363772,8.19028901 5.89688631,8.17561685 6.19065833,8.29385133 C6.48443035,8.41208581 6.76195428,8.67445254 7.02558518,9.18447627 L7.71208235,8.74261036 C7.38197474,8.10484319 6.95602114,7.66556219 6.45660474,7.46446901 C5.92087254,7.273742 5.36657674,7.33156458 4.87952948,7.51279809 L4.87952948,7.51369287 Z M17.260346,8.96442705 C18.2985819,8.93249561 19.1590189,9.10423563 19.7713804,9.44080269 C20.3898374,9.84124368 20.8699184,10.5679143 20.9464487,11.2298515 C21.1373966,12.9092955 20.9047024,13.7705805 20.3960319,14.3997976 C19.8873535,15.0289484 19.0021782,15.4561222 17.8109805,16.0024232 C16.4395497,16.6471055 14.9104667,16.5625324 13.5126549,16.8516453 C12.6274797,17.2192998 11.8095727,17.8889918 11.0883034,18.371421 C10.069403,19.0506131 8.89589811,19.7315285 7.95900997,19.9119202 C7.0367273,20.1397463 6.24124317,20.0025381 5.59640526,19.6495624 C4.9307872,19.2525679 4.46461905,18.5595675 4.22962518,17.8121955 C3.94359129,16.7653489 3.87014828,15.9299572 4.22962518,15.1393486 C4.58755841,14.3531365 5.4394854,13.5289461 7.16734542,12.6805857 C8.67638051,12.0583501 10.207779,12.0600734 11.280035,11.8244705 C12.3059018,11.4939327 13.2057617,10.7957624 13.9703725,10.2701629 C15.1508436,9.54696098 16.0529398,9.02396848 17.2605637,8.96528869 L17.260346,8.96442705 Z M14.9472179,10.2693013 C14.2012103,10.7845169 13.6043844,11.4464542 13.2526457,12.1480931 C12.8908533,12.8920185 12.7702492,13.7507187 13.0423703,14.5584716 C13.549505,15.4965751 14.3681838,15.9401643 15.0895125,16.0230141 C15.8881037,16.0998237 16.7454336,15.8599037 17.6561585,15.48449 C18.3897969,15.1453138 19.2308985,14.6292365 19.7403091,14.0415327 C20.2830076,13.3985736 20.5651823,12.4786088 20.3216587,11.3757556 C19.8871951,10.1425079 18.8999794,9.56342048 18.0457369,9.43481541 C16.9781317,9.30191098 15.7597219,9.76276829 14.9473168,10.2702071 L14.9472179,10.2693013 Z M6.39390804,10.0483683 L6.83302241,10.787124 C7.20178111,10.512681 7.53032526,10.398768 7.84111722,10.4281079 C8.15188939,10.45745 8.481997,10.6257391 8.8553867,11.0425666 L9.41199801,10.4142775 C8.94582985,9.89300827 8.43792328,9.59355574 7.90913759,9.54435397 C7.3734054,9.50292904 6.77117671,9.77306377 6.39390804,10.0483462 L6.39390804,10.0483683 Z M17.9520283,10.3107262 C18.7042304,10.4091099 19.2561909,10.796602 19.5600165,11.6294309 C19.7347301,12.4674296 19.5569242,12.966252 19.1642041,13.432288 C18.7676197,13.9026322 18.108968,14.2979033 17.3830479,14.6543124 C16.5233828,15.0064353 15.8500464,15.1936981 15.1504676,15.1376032 C14.5613799,15.0815061 14.1338826,14.8338204 13.777493,14.2124464 C13.6097358,13.6825608 13.6785399,13.1276214 13.950661,12.5683959 C14.2281849,11.9970854 14.7190913,11.442146 15.3421794,11.0348119 C16.2420392,10.5972542 17.0460333,10.231345 17.9521669,10.3098867 L17.9520283,10.3107262 Z M7.92768141,12.7003371 C6.79435153,13.0395134 5.81720925,13.6703653 5.20647059,14.5308108 C4.59652356,15.3912342 4.38314105,16.5235157 4.81683279,17.6384538 C5.3919879,18.6171205 6.18594816,19.0788262 6.94432488,19.1237198 C7.73517801,19.1547874 8.53374948,18.8605003 9.30692958,18.5299625 C10.1039574,18.0432251 10.965938,17.5461259 11.4838982,16.8789968 C11.9987711,16.1980814 12.2314495,15.3108809 12.0157713,14.3236862 C11.6423816,13.360551 10.9605352,12.8479203 10.3088299,12.6382107 C9.50406399,12.4241819 8.69621071,12.4845938 7.92781994,12.7003481 L7.92768141,12.7003371 Z M10.098515,13.494326 C10.6458445,13.6608895 11.0393414,13.984532 11.2550395,14.564481 C11.4057886,15.2920132 11.2581315,15.8080905 10.8777906,16.3121049 C10.4943472,16.8195658 9.83955465,17.2829948 9.02241957,17.7007127 C8.27718383,18.0200271 7.56054554,18.2625452 6.97527741,18.2392368 C6.39855884,18.2167989 5.94709512,17.9958571 5.53428249,17.2588468 C5.22351032,16.4355181 5.36807291,15.729571 5.83114185,15.0762722 C6.29885367,14.4169199 7.12449872,13.8576944 8.12566681,13.5564965 C8.79051304,13.3959754 9.47390308,13.3096702 10.0985545,13.4943591 L10.098515,13.494326 Z M20.9456967,15.0278768 C20.6711215,15.840877 20.1577923,16.5986108 19.2447915,17.2242929 C17.5919577,18.1813745 16.138653,18.5317741 14.4517002,18.6612188 C13.5866323,18.9028752 12.7679535,19.3835591 12.0582221,19.8003933 C11.193926,20.3061309 10.2708913,20.8204849 9.45456764,21.0163862 C8.55935855,21.1889901 7.74994181,21.1354823 7.04881937,20.8921114 C7.42143724,20.8791661 7.80024958,20.8360143 8.10019628,20.7747408 C9.24201634,20.5520845 10.4495413,19.8167976 11.4893407,19.1237751 C12.2454019,18.6396226 12.8754562,18.1183533 13.6601742,17.7213589 C15.3508872,17.2863861 16.7061492,17.4495009 18.1069295,16.8238188 C19.2363805,16.2947948 20.2730133,15.8071737 20.9456967,15.0278768 L20.9456967,15.0278768 Z" id="Shape" fill="#000000"></path>
    </g>
</svg>