<?xml version="1.0" encoding="UTF-8"?>
<svg width="24px" height="24px" viewBox="0 0 24 24" version="1.1" xmlns="http://www.w3.org/2000/svg" xmlns:xlink="http://www.w3.org/1999/xlink">
    <!-- Generator: Sketch 57.1 (83088) - https://sketch.com -->
    <title>crops-aspidistra </title>
    <desc>Created with Sketch.</desc>
    <g id="crops-aspidistra-" stroke="none" stroke-width="1" fill="none" fill-rule="evenodd">
        <path d="M15.1791246,14.0912617 C15.5151628,11.9836117 15.8253257,10.9892783 16.4549272,10.0853407 L17.5065246,8.57553122 L16.8035218,9.04674766 C16.8331462,8.99543907 16.852494,8.96201574 16.924591,8.83746795 C17.0368638,8.64359242 17.0368638,8.64359242 17.0968365,8.5399045 C17.264473,8.24928907 17.3929551,8.02091241 17.5051302,7.81350945 L18.0505936,6.80499049 L17.0381838,7.34319791 C15.9745718,7.90862497 15.0277601,8.61076036 14.1886377,9.45280163 C14.0551758,7.23934461 14.236853,5.78321085 14.8283271,4.44843709 L15.4701684,3 L14.282721,4.04876066 C13.1631223,5.03759696 12.4961524,6.58514534 12.1511126,8.84207881 C12.0623319,9.42280055 12.0195069,9.76924531 11.9493362,10.6063266 C11.5570712,8.80288743 11.5221422,7.48135858 11.8496217,6.21241497 C11.85973,6.15019242 11.85973,6.15019242 11.8595242,6.15169723 L12.055555,4.88180942 L11.2481582,5.88138611 C10.6714317,6.59538749 10.3264822,7.47781063 10.1720555,8.59285515 C10.0321098,9.60333828 10.034094,10.4077751 10.168886,12.7788969 C10.2045959,13.4070694 10.2309779,13.9473187 10.2477171,14.4256345 C10.1685732,13.8989271 10.0676064,13.2954827 9.94118679,12.5784989 C9.85237529,12.0748078 9.82033242,11.890783 9.77831926,11.6425832 C9.34304131,9.07110616 9.27810684,7.48328905 9.57049583,5.92062832 L9.86615426,4.34049416 L8.94636961,5.65891522 C8.28955654,6.60039232 7.86122485,7.79577718 7.66669705,9.18062692 C7.36526373,8.48097337 7.06530936,7.8847877 6.74712901,7.35588256 L6.03867742,6.17823693 L6.1047765,7.55096552 C6.17183372,8.94359269 6.30440731,10.4206352 6.49646677,11.9330037 C5.83673854,10.4769546 5.53984061,8.84705064 5.57696577,6.94620323 L5.60396205,5.5639652 L4.92882453,6.77040629 C4.09349127,8.26311013 3.83147638,9.80782506 4.10297558,11.5022915 C4.32131778,12.8649973 4.75756302,14.0288523 5.89269948,16.3557578 C7.00933379,18.6447359 7.26853365,19.2587438 7.52931508,20.2541374 L7.98671059,22 L8.3159589,21.9216006 C8.61380722,21.850678 8.75786824,21.8294854 8.93474312,21.8294854 C9.13188616,21.8294854 9.28937539,21.8552721 9.67604794,21.9513447 L9.84261848,21.9514339 C10.2331674,21.8548424 10.3880414,21.8294854 10.5840848,21.8294854 C10.7812278,21.8294854 10.9387171,21.8552721 11.3253896,21.9513447 L11.4919601,21.9514339 C11.8825091,21.8548424 12.0373831,21.8294854 12.2334264,21.8294854 C12.4187007,21.8294854 12.569699,21.8526739 12.8974896,21.9323486 L13.1384352,21.9909143 L13.271408,21.7816227 C15.1268163,18.861316 16.8363082,16.8129157 17.947579,16.2284525 C18.3317807,16.008218 18.7829651,15.905149 19.3482499,15.9009742 L20.5082389,15.8924073 L19.533236,15.2639035 C19.1980453,15.0478338 18.7979701,14.912034 18.3748738,14.8697897 L18.3704106,14.8693733 C17.1246009,14.7612588 16.0462306,15.2374913 14.756858,16.4227733 C14.8853141,15.8778868 14.9856549,15.3047143 15.1791246,14.0912617 Z M17.6141517,15.6218827 C16.3986967,16.2608813 14.6872881,18.2928528 12.8187603,21.2041615 C12.5857682,21.1551271 12.4237056,21.137197 12.2334264,21.137197 C11.9866395,21.137197 11.7929149,21.1662777 11.4090255,21.2590241 C11.0282411,21.1666894 10.8318171,21.137197 10.5840848,21.137197 C10.3372978,21.137197 10.1435733,21.1662777 9.75968385,21.2590241 C9.37889939,21.1666894 9.18247547,21.137197 8.93474312,21.137197 C8.7840625,21.137197 8.65120569,21.1485494 8.48689948,21.1775819 L8.19900199,20.0786873 C7.92323425,19.0260915 7.65069451,18.3804833 6.51490011,16.0522291 C5.40721663,13.7815992 4.99166607,12.6729554 4.7865451,11.3927653 C4.62453019,10.3816064 4.66983488,9.43728225 4.93392191,8.52494604 C5.08215111,10.259827 5.54737172,11.7827623 6.35615986,13.1664121 L7.68972335,15.4478312 L7.31619272,12.8313079 C7.13791047,11.5824688 6.99910223,10.3507988 6.90313621,9.16421979 C7.02937998,9.44489919 7.15577185,9.74433079 7.28383709,10.0654298 L8.09943259,12.1103786 L8.28128499,9.91609326 C8.34714388,9.12142022 8.48777786,8.38976419 8.70053334,7.73318781 C8.68613881,8.85198305 8.81774096,10.1157948 9.09574066,11.7581243 C9.13808071,12.0082553 9.17034975,12.1935789 9.25941511,12.6987098 C9.71934985,15.3072124 9.83433448,16.365253 9.79108172,17.7141551 L9.78050032,18.044152 L10.78138,18.1236836 L10.8228439,17.795895 C10.9986708,16.4059156 11.0033049,15.2594491 10.8600585,12.7396056 C10.7276934,10.4111742 10.7257937,9.64097401 10.8577987,8.68782634 C10.8797739,8.52915385 10.9058189,8.37636499 10.9360614,8.22915313 C10.956531,9.03572996 11.0840749,9.92466631 11.3173932,10.9532071 C11.3733496,11.1749469 11.4154641,11.3721565 11.5213356,11.9047846 L12.2564949,15.6032922 L12.5459798,11.8434651 L12.5472554,11.8169313 C12.6830494,10.0634336 12.7170425,9.72121318 12.83545,8.94670026 C13.007529,7.82111754 13.2598799,6.89648188 13.6061135,6.1476267 C13.4405787,7.13301221 13.4155359,8.25151326 13.5070745,9.63307591 L13.5059398,9.87424245 L13.5059394,10.3122988 L13.5059394,11.1927502 L14.4032307,10.2279588 C14.9618671,9.62729818 15.5731694,9.09725017 16.2413196,8.63599509 C16.2156627,8.68035264 16.2002451,8.70707034 16.1635981,8.77057714 C16.0313327,9.00047948 15.9303371,9.18003774 15.8374042,9.35085062 L14.8295549,11.2033014 L15.2173697,10.9433527 C14.9228102,11.6944192 14.7117737,12.6255988 14.495471,13.9822618 C14.2370582,15.6030408 14.149849,16.0515136 13.9363139,16.8368359 L13.4232066,18.7239 L14.803057,17.3390366 C15.9265855,16.2114263 16.8042426,15.6655235 17.719324,15.564506 C17.6838477,15.582878 17.6487938,15.6020005 17.6141517,15.6218827 Z" id="Aspidistra-" fill="#000000"></path>
    </g>
</svg>