<?xml version="1.0" encoding="UTF-8"?>
<svg width="24px" height="24px" viewBox="0 0 24 24" version="1.1" xmlns="http://www.w3.org/2000/svg" xmlns:xlink="http://www.w3.org/1999/xlink">
    <!-- Generator: Sketch 57.1 (83088) - https://sketch.com -->
    <title>crops-variousnoncrops</title>
    <desc>Created with Sketch.</desc>
    <g id="crops-variousnoncrops" stroke="none" stroke-width="1" fill="none" fill-rule="evenodd">
        <path d="M20.873567,13.7325602 L20.873567,19.1089152 L11.7116306,19.1089152 L11.7116306,17.2015571 L20.873567,13.7325602 Z M9.36770038,16.3069033 L9.83579623,17.0447187 L9.87906633,17.1948114 L9.87906633,19.1089152 L5.38313408,19.1089152 L6.21039835,18.5270951 L9.26859503,18.5270951 L9.26859503,17.2766035 L8.87394333,16.654309 L9.36770038,16.3069033 Z M21.9209617,5.78266302 C22.0369877,5.9300794 22.0222974,6.13029485 21.8964215,6.26131129 L21.8357243,6.31286884 L3.64432417,18.9050967 C3.46461591,19.029469 3.21155386,18.9937049 3.07903825,18.8251489 C2.96301229,18.6777325 2.97770255,18.4775171 3.10357852,18.3465006 L3.16427571,18.2949431 L21.3556758,5.70271517 C21.5353841,5.57842312 21.7884461,5.61418715 21.9209617,5.78266302 Z M20.2630957,14.5901125 L12.3222789,17.5970261 L12.3222789,18.5270951 L20.2630957,18.5270951 L20.2630957,14.5901125 Z M6.36105649,5.02245276 L5.77892826,9.76960712 L8.07179019,13.329171 L8.49156542,13.9811029 L8.01450925,14.3106773 L7.59473401,13.6595473 L5.22142229,9.97488948 L5.18132564,9.80007872 L5.69933341,5.57575284 L4.26483062,5.57575284 L4.26483062,15.9649643 L3.67483696,16.3731234 L3.67483696,5.02245276 L6.36105649,5.02245276 Z M20.873567,8.21454478 L20.873567,12.6237292 L10.9401131,15.6719605 L10.7259747,15.3515379 L11.2948572,14.9510096 L20.2630957,12.200434 L20.2630957,8.6437425 L20.873567,8.21454478 Z M7.85378064,5 L18.7799059,5.91655362 L18.0643217,6.41211805 L8.35828037,5.5982056 L7.81872813,9.11126021 L9.84493446,12.1014863 L9.36967366,12.4310607 L7.26139315,9.32215575 L7.21864618,9.13371297 L7.85378064,5 Z" id="Combined-Shape" fill="#000000"></path>
    </g>
</svg>