<?xml version="1.0" encoding="UTF-8"?>
<svg width="24px" height="24px" viewBox="0 0 24 24" version="1.1" xmlns="http://www.w3.org/2000/svg" xmlns:xlink="http://www.w3.org/1999/xlink">
    <!-- Generator: Sketch 57.1 (83088) - https://sketch.com -->
    <title>crops-persimmon</title>
    <desc>Created with Sketch.</desc>
    <g id="crops-persimmon" stroke="none" stroke-width="1" fill="none" fill-rule="evenodd">
        <path d="M12.4583658,4.05483155 C11.9977229,4.95363537 11.83596,5.92004843 12.1190324,6.84984383 C12.9732495,7.05176754 13.6045439,7.41524175 14.0129156,7.89422872 C14.0247524,7.9083163 14.0326436,7.9252227 14.0444803,7.93930956 C14.4331304,7.51574198 14.9805637,7.27343545 15.5595869,7.19546363 C15.7183979,7.17386233 15.8841228,7.16540973 16.0488401,7.16540973 C16.5420325,7.16634885 17.0480529,7.26026704 17.5481643,7.43589479 C18.8817611,7.90454321 20.1680361,8.95736724 20.6889803,10.4787916 C20.801429,10.8056337 20.6919395,11.2066489 20.4522449,11.4330148 C20.3644545,11.515663 20.2697604,11.5823442 20.1681624,11.6358786 C21.2739124,14.6703603 20.7787503,18.1491588 18.1401417,20.2086922 C16.4553684,21.4775195 14.20642,22.0476059 11.9771932,21.9968989 C9.7479411,21.9461824 7.52959779,21.2718547 5.89303017,19.9532341 C4.25757362,18.6355511 3.23755336,16.6424969 3.48623285,14.1376851 C3.56317249,13.3393815 3.74763924,12.5523301 4.01495455,11.7934812 C3.74074551,11.7268 3.48822774,11.6281848 3.28108742,11.4328345 C3.04139251,11.2064902 2.93190586,10.8054534 3.04435202,10.4786113 C3.570094,8.95713883 4.85932345,7.9043148 6.19299602,7.43571447 C6.69310745,7.26008671 7.1991278,7.16616709 7.69232024,7.16522941 C7.85704768,7.16522941 8.02276499,7.173682 8.18157341,7.1952833 C8.67378103,7.26196448 9.1452822,7.44605301 9.51517022,7.75880586 C9.88705313,7.38031913 10.4137799,7.08165553 11.0934062,6.90226984 C10.8172023,5.77712413 11.0371806,4.63601378 11.5510947,3.6338486 C12.1449155,2.47583595 12.959462,3.07820016 12.4583658,4.05483155 Z M11.724433,7.75158091 C10.9442036,7.88682344 10.4687379,8.16105922 10.2014478,8.45784745 C9.9242591,8.76588786 9.8453473,9.10869461 9.8936792,9.47217844 C9.99034552,10.1981603 10.6749187,10.9222669 11.5981741,10.9448193 C12.6664505,10.9673597 13.3914543,10.2535797 13.5157435,9.53228624 C13.5778856,9.17163949 13.5048931,8.82320665 13.231661,8.50295234 C12.968285,8.19491193 12.502718,7.90750052 11.724433,7.75158091 L11.724433,7.75158091 Z M16.0409716,8.1272546 C15.9216166,8.12631524 15.8091679,8.13476807 15.7016383,8.14979502 C15.3317503,8.19957149 15.0466577,8.32730054 14.8415123,8.53299421 C14.8543354,9.09932982 15.1255947,9.53039885 15.5832832,9.90797195 C16.0804402,10.3183879 16.8074136,10.621764 17.5245135,10.7870364 C18.2416135,10.9523088 18.9597235,10.9692375 19.386832,10.8847115 C19.572276,10.8480842 19.6847272,10.791732 19.7261654,10.7644959 C19.3138544,9.57267867 18.2663097,8.71236788 17.2009877,8.33758378 C16.8005198,8.19670555 16.398057,8.12908428 16.0409716,8.12718378 L16.0409716,8.1272546 Z M7.70005738,8.12723187 C7.34297201,8.12913285 6.94053445,8.19675363 6.54004128,8.33763187 C5.47471934,8.7114302 4.43209874,9.57171695 4.01486364,10.764544 C4.05629171,10.7917801 4.16874292,10.8481323 4.35419701,10.8847596 C4.78130556,10.9692856 5.4984055,10.9523809 6.21651552,10.7870845 C6.93462554,10.621788 7.65861922,10.3193737 8.15774583,9.90802004 C8.6164191,9.53047098 8.89161296,9.09844022 8.90742057,8.5330423 C8.69929038,8.32736065 8.4102636,8.1996364 8.03939076,8.14984311 C7.9308864,8.13481616 7.81942506,8.12636332 7.70005738,8.12730269 L7.70005738,8.12723187 Z M14.4074342,10.0881751 C14.0365361,11.1185549 12.9525026,11.9365738 11.5744374,11.9065199 C10.4390923,11.8792839 9.53654333,11.2096542 9.12026779,10.3437174 C9.02458629,10.4442104 8.92791996,10.5484589 8.82040295,10.6367549 C8.1516349,11.1880635 7.29148364,11.5336833 6.45304891,11.7261966 C5.9667502,11.8379586 5.49229457,11.8999465 5.04841885,11.9065199 C4.76433637,12.6597427 4.56408978,13.441144 4.48813244,14.2281713 C4.26717939,16.4493466 5.12139648,18.0741082 6.53983927,19.217118 C7.95828205,20.3601037 9.97155568,20.9893601 12.0005359,21.0353787 C14.0295666,21.0813996 16.0615266,20.5460532 17.5165339,19.4500237 C19.8720449,17.0738905 19.9667391,14.4009692 19.1815856,11.8838954 C18.6104661,11.9336718 17.9515463,11.8801384 17.2798238,11.7261124 C16.4413891,11.5335799 15.5881568,11.1804539 14.9203483,10.6291452 C14.7270157,10.4694845 14.5603085,10.2872762 14.4074342,10.0881751 L14.4074342,10.0881751 Z" id="perssimon" fill="#000000"></path>
    </g>
</svg>