<svg xmlns="http://www.w3.org/2000/svg" xmlns:xlink="http://www.w3.org/1999/xlink" width="24" height="24" viewBox="0 0 24 24">
    <defs>
        <path id="a" d="M5.443 1.187a.436.436 0 0 0 0-.616L5.43.556a.435.435 0 0 0-.616 0L3.08 2.29a.115.115 0 0 1-.162 0L1.187.557a.436.436 0 0 0-.616 0L.556.57a.435.435 0 0 0 0 .616L2.29 2.92a.115.115 0 0 1 0 .162L.557 4.813a.436.436 0 0 0 0 .616l.014.015c.17.17.445.17.616 0L2.92 3.71a.115.115 0 0 1 .162 0l1.732 1.732c.17.17.447.17.616 0l.015-.014a.435.435 0 0 0 0-.616L3.71 3.08a.115.115 0 0 1 0-.162l1.732-1.732z"/>
    </defs>
    <g fill="none" fill-rule="evenodd">
        <circle cx="12" cy="12" r="6" fill="#A2A2A2"/>
        <use fill="#F7F7F7" transform="translate(9 9)" xlink:href="#a"/>
    </g>
</svg>
