<?xml version="1.0" encoding="UTF-8"?>
<svg width="24px" height="24px" viewBox="0 0 24 24" version="1.1" xmlns="http://www.w3.org/2000/svg" xmlns:xlink="http://www.w3.org/1999/xlink">
    <!-- Generator: Sketch 59.1 (86144) - https://sketch.com -->
    <title>forms-plane</title>
    <desc>Created with Sketch.</desc>
    <g id="forms-plane" stroke="none" stroke-width="1" fill="none" fill-rule="evenodd">
        <path d="M3.15061833,19.2057139 C3.41971361,19.2799332 3.57557842,19.5593705 3.4994556,19.828456 C3.42342782,20.0979413 3.14370843,20.2563446 2.87460769,20.1814108 C2.60505925,20.1070665 2.44887019,19.82787 2.52591602,19.5581571 C2.60287397,19.2897246 2.88148776,19.1317566 3.15061833,19.2057139 Z M2.79173446,19.6337112 C2.75663623,19.756579 2.82705917,19.8824639 2.94866399,19.9160042 C3.07069062,19.9499835 3.19846768,19.877616 3.233364,19.7538629 C3.26816594,19.6309022 3.19768494,19.5045279 3.07701585,19.471246 C2.9548796,19.4376829 2.82717662,19.5100877 2.79173446,19.6337112 Z M6.18778199,18.6998386 C6.4568112,18.7740928 6.61316783,19.0529357 6.5369548,19.3223973 C6.46004169,19.5908651 6.18086305,19.7495237 5.91208115,19.6756026 C5.64202222,19.6003475 5.48640028,19.3214196 5.56346792,19.0524215 C5.64034732,18.7830899 5.91905535,18.6249556 6.18778199,18.6998386 Z M5.82910563,19.1279782 C5.79403261,19.2503977 5.86407741,19.3760564 5.98574037,19.4100905 C6.10759908,19.4434709 6.23589036,19.3704986 6.27122589,19.2471616 C6.30585298,19.1247315 6.23522532,18.9987757 6.11377604,18.9652543 C5.99195326,18.9313075 5.86462226,19.003553 5.82910563,19.1279782 Z M3.65671662,18.193588 C3.9260168,18.2678837 4.08231402,18.5468971 4.00539725,18.8158377 C3.92937018,19.0849303 3.650158,19.2433292 3.38077981,19.1692841 C3.11130347,19.0949399 2.95515619,18.8157436 3.03214492,18.5461585 C3.10905605,18.2768364 3.38787909,18.1187075 3.65671662,18.193588 Z M3.29792874,18.621585 C3.26283991,18.7444527 3.33324401,18.8703374 3.4543626,18.9037522 C3.57664841,18.9373654 3.70455527,18.8647658 3.73944015,18.7410203 C3.77461265,18.6183037 3.70418598,18.4925163 3.58268013,18.4589944 C3.46080709,18.4250487 3.33342354,18.4972917 3.29792874,18.621585 Z M6.69404726,17.6873376 C6.96316323,17.76161 7.11935857,18.0404487 7.04322834,18.3105792 C6.96633272,18.5789652 6.687191,18.7369838 6.41833988,18.6630493 C6.14827455,18.5877982 5.99264892,18.3088854 6.06971838,18.0399016 C6.14659961,17.7705845 6.42531424,17.6124586 6.69404726,17.6873376 Z M2.64407956,17.6869777 C2.91406518,17.7612588 3.06979741,18.0404134 2.99283713,18.3100138 C2.91683615,18.5787423 2.6374769,18.7370703 2.36822753,18.6630286 C2.09877434,18.5886586 1.94264047,18.3093656 2.01965907,18.0395596 C2.0965485,17.7711785 2.3757238,17.6129407 2.64407956,17.6869777 Z M4.66936833,17.6869639 C4.93846361,17.7611832 5.09432842,18.0406205 5.0182056,18.309706 C4.94217782,18.5791913 4.66245843,18.7375946 4.39335769,18.6626608 C4.12380925,18.5883165 3.96762019,18.30912 4.04466602,18.0394071 C4.12162397,17.7709746 4.40023776,17.6130066 4.66936833,17.6869639 Z M2.28538358,18.1151398 C2.25029776,18.23805 2.32069582,18.3639784 2.44180401,18.3974047 C2.56401819,18.4310128 2.69203496,18.3584587 2.7269846,18.2348834 C2.76216239,18.111651 2.69207553,17.9860329 2.57056446,17.9526185 C2.44893849,17.9190459 2.32074958,17.9916957 2.28538358,18.1151398 Z M6.33536239,18.1154542 C6.30028854,18.2378672 6.370335,18.3635192 6.49200085,18.3975515 C6.61412279,18.4310025 6.74223106,18.3584186 6.77745749,18.2354737 C6.81216425,18.1123227 6.741558,17.986277 6.62003955,17.9527391 C6.49821389,17.9187941 6.37087987,17.9910357 6.33536239,18.1154542 Z M4.31048446,18.1149612 C4.27538623,18.237829 4.34580917,18.3637139 4.46741399,18.3972542 C4.58944062,18.4312335 4.71721768,18.358866 4.752114,18.2351129 C4.78691594,18.1121522 4.71643494,17.9857779 4.59576585,17.952496 C4.4736296,17.9189329 4.34592662,17.9913377 4.31048446,18.1149612 Z M9.22522386,17.1807067 C9.4946981,17.2548581 9.65067392,17.5343566 9.57440173,17.8042 C9.49753449,18.0726796 9.21849575,18.2307532 8.9497438,18.1567929 C8.67991895,18.081555 8.52445232,17.8035783 8.60056943,17.5333005 C8.67743668,17.264821 8.95647541,17.1067474 9.22522386,17.1807067 Z M8.86624223,17.6084322 C8.83151152,17.7317566 8.90155048,17.8571016 9.0233776,17.8912026 C9.14545449,17.9246653 9.27351552,17.852056 9.30876457,17.7289421 C9.34351206,17.6060076 9.27303347,17.4797145 9.15181921,17.4463599 C9.02967455,17.4127458 8.90147736,17.4853687 8.86624223,17.6084322 Z M7.20027409,16.6748386 C7.46930906,16.7490924 7.62566905,17.0279342 7.54945438,17.2973946 C7.47258015,17.5657199 7.19275332,17.7245877 6.92450625,17.6505816 C6.65460303,17.5763239 6.49891833,17.2972574 6.57594663,17.02742 C6.65282768,16.7580895 6.93154168,16.5999558 7.20027409,16.6748386 Z M5.68083968,16.6747693 C5.95075957,16.7480013 6.10682828,17.0268627 6.03074103,17.2968519 C5.95378849,17.5664282 5.67543006,17.7244864 5.40561098,17.650562 C5.13625818,17.5762225 4.98018248,17.2970441 5.05713592,17.0274764 C5.13401179,16.7581715 5.41270701,16.6000529 5.68083968,16.6747693 Z M3.65654399,16.6744512 C3.92679067,16.7497391 4.08224268,17.0279857 4.0053422,17.2973111 C3.92925518,17.5662783 3.64952033,17.725085 3.380775,17.6502161 C3.1113401,17.5758692 2.95521684,17.2966631 3.0321022,17.0273907 C3.10809802,16.7587458 3.3874383,16.6004671 3.65654399,16.6744512 Z M6.84162651,17.1028488 C6.80645946,17.2260423 6.87652493,17.3516208 6.99799892,17.3850246 C7.11947535,17.4185555 7.24842375,17.3453552 7.28371978,17.2221592 C7.31834761,17.0997296 7.24771843,16.9737743 7.12626655,16.9402531 C7.00444116,16.9063065 6.87710743,16.9785517 6.84162651,17.1028488 Z M5.3227979,17.102898 C5.28772515,17.2257578 5.35809698,17.3516345 5.47903523,17.3850129 C5.60179945,17.4186474 5.72930409,17.3463092 5.76488848,17.2221003 C5.79952798,17.0987337 5.72931719,16.9733934 5.60741875,16.9403178 C5.48560158,16.9063744 5.35827642,16.9786127 5.3227979,17.102898 Z M3.29793668,17.1024977 C3.26285324,17.2253697 3.33324652,17.3512589 3.45480011,17.3848004 C3.5764544,17.4186915 3.70448489,17.346008 3.73950772,17.222204 C3.77462825,17.0992021 3.7047765,16.9740578 3.58287052,16.9399645 C3.46073324,16.9065194 3.33286227,16.9790375 3.29793668,17.1024977 Z M10.2372072,15.6623475 C10.5071071,15.7365663 10.6636124,16.0156662 10.5866447,16.284303 C10.5235137,16.5083386 10.3196237,16.6557165 10.0978348,16.6562486 C10.0983494,16.6935243 10.0921199,16.7333057 10.0806194,16.7729137 C10.0198198,16.9762897 9.83611988,17.1147029 9.6308193,17.1311689 L9.6308193,17.1625 L9.45558024,17.1151038 C9.186214,17.0422494 9.03069158,16.7719291 9.10682398,16.5096941 C9.17069195,16.2933199 9.37412036,16.15087 9.59526167,16.150004 C9.59397943,16.106268 9.60022642,16.0604789 9.61306268,16.0149299 C9.68990178,15.7457473 9.96928998,15.5874091 10.2372072,15.6623475 Z M9.37252279,16.5825723 C9.33794421,16.701679 9.40717984,16.8231533 9.52759324,16.8570149 L9.52957206,16.8575451 C9.65076516,16.8900145 9.77931908,16.8191062 9.81505039,16.6995985 C9.82839671,16.6536311 9.82627944,16.607341 9.811742,16.5659112 C9.75777134,16.5311539 9.71339598,16.4856491 9.67873594,16.433802 C9.6731058,16.4297594 9.66571575,16.4273834 9.65812584,16.4253574 C9.53596964,16.3927501 9.40776035,16.4631978 9.37252279,16.5825723 Z M8.21246154,15.6619444 C8.4822044,15.7360789 8.63804097,16.0146907 8.56198588,16.2844201 C8.48609473,16.553586 8.20684446,16.7120645 7.93755828,16.6380556 C7.66770393,16.5629021 7.5119458,16.284443 7.58803395,16.0155799 C7.66392509,15.746414 7.94317537,15.5879355 8.21246154,15.6619444 Z M7.19952246,15.1552823 L7.20010275,15.1554411 C7.46915959,15.2297021 7.62559686,15.5092967 7.54951982,15.7782772 C7.486356,16.0024332 7.28240379,16.1497701 7.0608974,16.1499997 C7.06228619,16.1931122 7.05605718,16.2388376 7.0432427,16.2843101 C6.96737254,16.5535556 6.68819949,16.7120809 6.41898808,16.6380502 C6.14901552,16.5638108 5.99268019,16.2847065 6.06959576,16.0152642 C6.13270052,15.7921362 6.33613926,15.6450492 6.55753414,15.6437586 C6.5563787,15.6008729 6.56261896,15.5548703 6.57555303,15.5091401 C6.65147423,15.2406925 6.93045434,15.0822751 7.19952246,15.1552823 Z M4.66908766,15.6619512 C4.93911273,15.7361825 5.09487594,16.0152734 5.0177815,16.2852614 C4.94075786,16.5540276 4.66185109,16.712527 4.39329998,16.6377171 C4.12384681,16.5633702 3.96771295,16.2841638 4.04460352,16.0148911 C4.1206045,15.7462459 4.39996372,15.587967 4.66908766,15.6619512 Z M2.64370352,15.6618948 C2.9133225,15.7360158 3.06938211,16.0154 2.99319631,16.2846857 C2.9162462,16.5541839 2.63678477,16.7125198 2.3692534,16.6377071 C2.09938322,16.5645071 1.94306848,16.2849711 2.01930388,16.0155101 C2.09531332,15.7468299 2.3746789,15.5879365 2.64370352,15.6618948 Z M9.87884501,16.0899044 C9.86413253,16.1421116 9.868208,16.1947231 9.88699554,16.2405876 C9.93745556,16.2731838 9.97926058,16.3148511 10.0124398,16.362084 C10.0194062,16.3674953 10.0274804,16.3702142 10.0357944,16.3725004 C10.1580214,16.4061115 10.2858666,16.3335166 10.3208985,16.2092022 C10.3559076,16.0870094 10.285445,15.9613516 10.1632019,15.927735 C10.0419849,15.8938303 9.91413242,15.9662884 9.87884501,16.0899044 Z M6.33533551,16.0903624 C6.30024706,16.2132811 6.37068508,16.3390336 6.4924077,16.3725059 C6.61463113,16.4061163 6.74247275,16.3335228 6.77734049,16.2097854 C6.79240829,16.1563168 6.78776916,16.1024244 6.76780172,16.0557902 C6.7215952,16.0241727 6.68299351,15.9854625 6.65149924,15.9418397 C6.64326603,15.9344727 6.63217619,15.9304471 6.62062252,15.9272573 C6.49823544,15.8941829 6.37024656,15.9669242 6.33533551,16.0903624 Z M7.85397406,16.0902089 C7.81926278,16.2128639 7.8895485,16.3386331 8.01122587,16.3726522 C8.13341429,16.4061002 8.26115435,16.3335415 8.29601011,16.2099174 C8.33081536,16.0864805 8.26051925,15.9608019 8.13902132,15.9274102 C8.01676408,15.8938098 7.8888871,15.9663818 7.85397406,16.0902089 Z M4.31045604,16.0899982 C4.27537022,16.2128703 4.34576827,16.3387597 4.4673301,16.3723012 C4.58887175,16.4061586 4.71655066,16.3336002 4.75205701,16.2097046 C4.7872348,16.0865105 4.71714795,15.9609313 4.59563688,15.9275273 C4.47342243,15.8939296 4.34540567,15.9664612 4.31045604,16.0899982 Z M2.28521174,16.0902877 C2.25045403,16.213142 2.32090303,16.3391252 2.44282203,16.372199 C2.56401873,16.4060886 2.69184694,16.3337084 2.72733428,16.2097459 C2.76199406,16.0869121 2.69148619,15.9607658 2.57026265,15.9274402 C2.44832562,15.8939182 2.32013888,15.9668263 2.28521174,16.0902877 Z M9.22513502,15.1556994 C9.49474044,15.2299105 9.65113797,15.5096743 9.57410742,15.7787734 C9.49748392,16.0474385 9.21909911,16.2051757 8.95029392,16.1321697 L8.94984306,16.1320464 C8.68012163,16.0578109 8.52393173,15.7787214 8.60086717,15.5089715 C8.67758272,15.2399836 8.95636458,15.0817181 9.22513502,15.1556994 Z M3.65660017,15.1557082 C3.92549151,15.2299184 4.08183255,15.5093216 4.00576602,15.7782465 C3.92891024,16.0474752 3.64994884,16.2056944 3.38146463,16.1318602 C3.11166944,16.058664 2.95560993,15.7792161 3.03180818,15.5088432 C3.10857314,15.2399341 3.38753454,15.0817149 3.65660017,15.1557082 Z M5.6813969,15.1560798 C5.95107886,15.2303346 6.10686351,15.5088692 6.03067313,15.7789604 C5.95374267,16.0481963 5.67484955,16.2062744 5.40594443,16.131418 C5.13640036,16.0570975 4.98021383,15.7779907 5.05709467,15.5089402 C5.13304463,15.2396805 5.41259689,15.0811478 5.6813969,15.1560798 Z M8.8662683,15.5843876 C8.83123415,15.7072239 8.90149808,15.8328903 9.02296878,15.866454 C9.14557767,15.8996226 9.27340645,15.8271291 9.30874272,15.7032297 C9.3437596,15.5809014 9.27317754,15.4546442 9.15177699,15.4212277 C9.02965487,15.3876126 8.90166609,15.4602723 8.8662683,15.5843876 Z M3.29750702,15.5837903 C3.26269086,15.7073292 3.33307639,15.833365 3.45441058,15.8662842 C3.5765589,15.899875 3.70457261,15.8273134 3.74005715,15.7033329 C3.77460531,15.5808641 3.70382626,15.4544514 3.58307279,15.4211252 C3.46087202,15.3875199 3.33280082,15.4601583 3.29750702,15.5837903 Z M6.84147128,15.5839427 C6.82625173,15.6377536 6.83121193,15.6921201 6.85184728,15.7390407 C6.89777743,15.7694338 6.93603989,15.8079071 6.96729593,15.8512322 C6.97620966,15.858692 6.98734979,15.86272 6.99895748,15.8659121 C7.1209293,15.8999 7.24864896,15.827514 7.28356591,15.7036009 C7.31821445,15.5810963 7.24752362,15.4546058 7.12669789,15.4210864 C7.00428964,15.3880428 6.87629668,15.4608046 6.84147128,15.5839427 Z M5.32307254,15.5838943 C5.28797489,15.7067226 5.35839669,15.8325671 5.47999953,15.8660966 C5.60190321,15.9000314 5.72931878,15.8278115 5.76469559,15.7040051 C5.79951563,15.5805684 5.72917649,15.4548717 5.60763093,15.4214814 C5.48575623,15.3874311 5.35807647,15.4598005 5.32307254,15.5838943 Z M11.2499334,14.6494753 C11.5196995,14.7236384 11.6755689,15.0023831 11.5994694,15.272353 C11.5233996,15.5412523 11.2437853,15.7000498 10.9747667,15.6252402 C10.7051402,15.5509831 10.5493797,15.272319 10.6255858,15.0019753 C10.7024804,14.7336486 10.9816906,14.5754517 11.2499334,14.6494753 Z M10.8914337,15.077087 C10.8566259,15.2005711 10.9269403,15.3263161 11.0484433,15.3597192 C11.1705582,15.3937369 11.2985957,15.3210514 11.3334935,15.197691 C11.3683014,15.0742069 11.2979869,14.9484619 11.1763547,14.9150232 C11.0548596,14.8814957 10.9266724,14.954125 10.8914337,15.077087 Z M8.21236354,14.1434641 C8.48206354,14.2166863 8.63806799,14.4962334 8.56198807,14.7663802 C8.48606791,15.0349956 8.20700577,15.1932569 7.93829304,15.1193153 C7.66786043,15.0451733 7.51135795,14.7661355 7.58837354,14.4961663 C7.66533941,14.2273454 7.94466111,14.0688097 8.21236354,14.1434641 Z M4.66987172,14.1428918 C4.9387046,14.2180138 5.09429414,14.497258 5.01819137,14.7661228 C4.94213625,15.0354817 4.66248143,15.1938011 4.39356748,15.1189308 C4.12348169,15.0447236 3.96768363,14.7657232 4.04466727,14.4962723 C4.12061273,14.2279706 4.39968201,14.0696392 4.66987172,14.1428918 Z M10.2373533,14.1432287 C10.507259,14.2174953 10.6635556,14.4967017 10.5866591,14.7662426 C10.5107436,15.034832 10.2308743,15.1933681 9.9625947,15.1192693 C9.69268899,15.0450027 9.53639238,14.7657963 9.61338071,14.4959322 C9.69026079,14.2274204 9.96928715,14.0691889 10.2373533,14.1432287 Z M5.68102153,13.6369293 C5.9066684,13.6987186 6.0524534,13.9036282 6.04996873,14.1264772 C6.09343893,14.1244346 6.14078857,14.1302679 6.18782555,14.1431937 L6.28925821,14.1710673 L6.28925821,14.1834167 C6.49521074,14.2920447 6.60333991,14.5323255 6.5365491,14.7661381 C6.45971921,15.0351031 6.18127557,15.1932772 5.91204322,15.1192922 C5.68736212,15.057323 5.54144081,14.8524493 5.54377766,14.6299765 C5.50017142,14.6318095 5.45281305,14.6259506 5.40578672,14.612977 C5.13638474,14.5379471 4.98062538,14.25948 5.0568413,13.990161 C5.13366195,13.7211893 5.41207209,13.5630113 5.68102153,13.6369293 Z M5.99304055,14.4089092 L5.94661781,14.4286766 C5.91885302,14.4653216 5.8864357,14.4977599 5.85049713,14.5253463 C5.84048764,14.5382734 5.83397625,14.5541916 5.82920182,14.5710612 C5.79407327,14.6940462 5.86465711,14.8204977 5.98561826,14.85386 C6.10776955,14.8874271 6.23530437,14.8149791 6.27079329,14.69074 C6.30593734,14.5677122 6.2359736,14.4425402 6.11392135,14.408553 C6.07283262,14.3976803 6.03136105,14.3984732 5.99304055,14.4089092 Z M7.85383355,14.5716515 C7.81879225,14.6946123 7.88925185,14.8202074 8.01154097,14.8537344 C8.13362518,14.8873282 8.2615058,14.8148048 8.29629153,14.6917286 C8.3310954,14.5681458 8.26073471,14.4420653 8.13899012,14.4090089 C8.01746528,14.3751207 7.8893198,14.4478352 7.85383355,14.5716515 Z M4.31057928,14.5713551 C4.27539362,14.6945093 4.34549616,14.8200477 4.46748846,14.8535664 C4.58949926,14.8875359 4.71725975,14.8151893 4.75215154,14.691472 C4.78695859,14.5685197 4.71642044,14.4419214 4.59627871,14.408345 C4.47374348,14.3751257 4.3455346,14.4478657 4.31057928,14.5713551 Z M9.87894482,14.5714443 C9.84390722,14.6943879 9.91432454,14.820149 10.036125,14.8536634 C10.1576608,14.8872316 10.2861215,14.8144631 10.3209852,14.691117 C10.3560649,14.5681533 10.2856443,14.4423548 10.163823,14.4088347 C10.0424286,14.3753056 9.91434877,14.4479202 9.87894482,14.5714443 Z M7.20033766,13.6369512 C7.47036273,13.7111825 7.62612594,13.9902734 7.5490315,14.2602614 C7.47200786,14.5290276 7.19310109,14.687527 6.92454998,14.6127171 C6.65509681,14.5383702 6.49896295,14.2591638 6.57585352,13.9898911 C6.6518545,13.7212459 6.93121372,13.562967 7.20033766,13.6369512 Z M11.7564987,13.6369867 C12.0260874,13.7111673 12.1818543,13.9899778 12.1056769,14.2604612 C12.0288097,14.5289321 11.7497718,14.6870008 11.4810202,14.613044 C11.2114326,14.5388626 11.0556666,14.2600527 11.1318074,13.9896975 C11.2085913,13.7205366 11.4868216,13.5630524 11.7564987,13.6369867 Z M11.3975168,14.0646993 C11.3627319,14.1882125 11.4330001,14.3139872 11.5544232,14.3473983 C11.6765714,14.3810123 11.8047687,14.3083916 11.8400039,14.1853318 C11.8747888,14.0618186 11.8045206,13.9360439 11.683222,13.9026671 C11.5601591,13.8689283 11.4328011,13.9410156 11.3975168,14.0646993 Z M6.84170604,14.0649982 C6.80662022,14.1878703 6.87701827,14.3137597 6.9985801,14.3473012 C7.12012175,14.3811586 7.24780066,14.3086002 7.28330701,14.1847046 C7.3184848,14.0615105 7.24839795,13.9359313 7.12688688,13.9025273 C7.00467243,13.8689296 6.87665567,13.9414612 6.84170604,14.0649982 Z M5.32265634,14.0652403 C5.28792319,14.1879751 5.35831855,14.3138282 5.47981093,14.3476649 C5.53763778,14.363618 5.59698876,14.3555432 5.64708929,14.3294181 C5.67422766,14.2915622 5.7065364,14.2591014 5.74237361,14.2314783 C5.75331062,14.2180539 5.75989324,14.2019864 5.76469525,14.1849546 C5.79958904,14.0616518 5.72938526,13.9357567 5.60770587,13.902437 C5.48556927,13.868869 5.35804979,13.9413189 5.32265634,14.0652403 Z M21.6707046,4.34920422 L21.6719757,4.38499832 L21.6727644,6.84667037 L21.696929,6.84665649 C22.4211297,6.84665649 22.4339689,7.9224 21.7363355,7.96224235 L21.696088,7.96337706 L21.671699,7.96337706 L21.671699,10.5167626 C21.671699,11.0171044 20.9480094,11.0290173 20.913548,10.5525013 L20.912277,10.5167626 L20.912277,8.43223946 L19.8533889,10.0598982 C19.7448289,10.2801961 19.4431457,10.5473567 19.180514,10.6158057 C18.7590324,10.7375751 18.2164237,10.8422863 17.364931,10.9822709 L17.2612572,10.9992417 L17.6521092,12.0566804 C18.1618567,12.1178891 18.556611,12.5558036 18.556611,13.0863539 C18.556611,13.6600173 18.0957824,14.125 17.5272263,14.125 C16.958678,14.125 16.4978415,13.6600253 16.4978415,13.0863539 C16.4978415,12.7928942 16.6203664,12.5203591 16.8265373,12.3272668 L16.866165,12.2920073 L16.678,11.791 L13.9077869,11.7916985 L13.9077869,13.1125 L12.9441507,12.7126703 C13.1009081,12.8347033 13.1760469,13.043852 13.1179028,13.2474811 C13.0418374,13.5163632 12.7621819,13.6751196 12.4931846,13.6001834 C12.2237236,13.525116 12.0682071,13.2473092 12.1443121,12.9773241 C12.2143561,12.7320107 12.4519385,12.5789755 12.6967692,12.6103001 L12.1327178,12.3784556 L12.125,11.7883062 L12.8514763,11.7883062 L12.8560144,10.4502668 L12.974092,10.4207565 C13.2704677,10.3466852 13.5949576,10.2714561 13.9118326,10.2078896 C14.3842187,10.113127 14.7423842,10.0640396 14.956312,10.0770692 C15.5553227,10.1122827 16.1187759,10.7331762 16.5732152,11.5883873 L16.5732152,11.5883873 L16.672,11.774 L16.3620011,10.947544 C15.8898945,9.83416333 15.2686968,9.00358741 14.5935357,8.95679433 C14.355554,8.94011853 13.8898774,9.01907448 13.298215,9.16317759 C12.9569363,9.24629819 12.6068913,9.34322572 12.4066336,9.40308844 L12.3686263,9.41455172 L12.3582701,11.0455202 L11.3736437,11.0455202 L11.3491629,11.0436369 L5.3747736,10.1188432 C4.86138768,10.0646424 4.23301893,9.59625454 4.08833398,9.11784018 L4.07620508,9.07297179 L3.0621226,5.06088996 C3.05945795,5.0519748 3.05581372,5.04058532 3.04696005,5.01297936 C3.03904655,4.98793419 3.03323384,4.96795736 3.028178,4.94735704 C3.00584337,4.85635336 3.00431259,4.78005213 3.04379099,4.7051761 C3.09311752,4.61162174 3.18544743,4.56885039 3.30104373,4.56852068 L3.33313202,4.56947676 L4.81337996,4.65848949 C4.98042393,4.66684766 5.11670419,4.72372823 5.1872792,4.8513918 L5.20238347,4.88211926 L5.78573388,6.07042884 C5.80214622,6.10169025 5.81864996,6.13581281 5.83561848,6.1733382 C5.88806466,6.28932145 6.0733005,6.7729299 6.08112671,6.79232189 C6.26074047,7.23737321 6.42442918,7.4902478 6.61373728,7.57483732 L6.64096006,7.58577932 L8.9044457,7.57669024 C8.93247922,7.56353317 8.97095311,7.54563347 9.01910051,7.52347248 C9.13698744,7.46921221 9.27095075,7.40878847 9.41854281,7.34373886 C9.8401347,7.15792679 10.2867567,6.97212302 10.7389155,6.79861286 C11.0929006,6.66277561 11.4362142,6.54000533 11.7639624,6.43342796 C12.0527838,6.33950883 12.3263533,6.25921047 12.5820667,6.19414667 C12.6301232,6.18182546 12.6786226,6.16951232 12.7275524,6.15720835 C13.298464,6.01364586 13.9075434,5.87615006 14.5319393,5.7459946 C14.7582358,5.69882303 14.9731974,5.65540114 15.1838231,5.61393016 C15.3032478,5.59041613 15.5527846,5.54210008 15.5393943,5.5447754 C16.0475566,5.45827834 16.2763919,5.47548538 16.6585611,5.66830505 C16.8449196,5.7649877 16.9895326,5.84299555 17.3297136,6.02916902 L17.3918239,6.0631718 L17.4185225,6.07779128 C17.6615515,6.21085535 17.7985254,6.2851537 17.9447768,6.36259506 C18.1088755,6.44817173 18.6502407,6.5554275 19.4149932,6.66268647 C19.8966598,6.73024175 20.4393593,6.794021 20.8310163,6.83488332 L20.9125536,6.84328179 L20.9125536,4.38505099 C20.9125536,3.88388208 21.6362432,3.87194949 21.6707046,4.34920422 Z M9.22559626,13.1307668 C9.49544804,13.2050448 9.65110977,13.4842779 9.57402805,13.7545363 C9.49715542,14.0221071 9.21840464,14.180222 8.95043344,14.1071753 L8.94965198,14.1069598 C8.67994979,14.0317399 8.52394989,13.7532992 8.60088,13.4835714 C8.67763166,13.2144604 8.95656881,13.0567157 9.22559626,13.1307668 Z M8.21282208,13.1307 L8.31426137,13.1585847 L8.31426137,13.1709392 C8.52022675,13.2796121 8.62835876,13.5200023 8.56153194,13.7540178 C8.48450476,14.0227794 8.20558517,14.181276 7.93702171,14.1064675 C7.6674742,14.0320992 7.51150216,13.752887 7.58834525,13.4827905 C7.66444892,13.2147831 7.94388826,13.0567728 8.21282208,13.1307 Z M10.7439585,13.1307059 C11.0135617,13.2048869 11.1693367,13.4836955 11.0931915,13.7540494 C11.016438,14.0230869 10.7374943,14.1807885 10.4683384,14.1067239 C10.1993059,14.0324283 10.0431591,13.7535022 10.1192657,13.483287 C10.1961373,13.2148174 10.4751913,13.0567495 10.7439585,13.1307059 Z M7.854211,13.5578935 C7.81904194,13.6815096 7.88942007,13.8074965 8.01105524,13.8410561 C8.13260247,13.8749129 8.26028726,13.8023558 8.29579524,13.6784624 C8.33094158,13.5553861 8.26097327,13.4301647 8.13891304,13.396164 C8.01569827,13.3635493 7.88885918,13.4358762 7.854211,13.5578935 Z M10.384954,13.558416 C10.3502581,13.6816057 10.4208424,13.8076909 10.541873,13.8411146 C10.6643473,13.8748163 10.7922435,13.8025098 10.8274667,13.679048 C10.8622536,13.5555353 10.7919813,13.4297612 10.6705512,13.3963504 C10.5483959,13.3627365 10.4201912,13.4353568 10.384954,13.558416 Z M8.86647177,13.5590407 C8.83146129,13.6817924 8.901575,13.8071341 9.02357447,13.8413849 C9.14511077,13.8742839 9.27326655,13.8014804 9.30850957,13.6788109 C9.34366471,13.555552 9.27362341,13.4299088 9.15218554,13.3964824 C9.02971405,13.3627716 8.90182086,13.4350978 8.86647177,13.5590407 Z M21.2374131,4.36823928 L21.2355012,4.38505099 L21.2355012,7.17261633 L21.0740274,7.17261633 L20.9313708,7.17184783 C20.5164314,7.1310388 19.9066463,7.06062853 19.3705301,6.98543653 C18.5572855,6.87137639 18.0085667,6.76266369 17.795605,6.65160168 C17.6591603,6.57935638 17.5318483,6.51044606 17.3234178,6.3964411 L17.2644942,6.36419441 L17.2377755,6.3495639 C16.8545822,6.13972118 16.7052809,6.05894691 16.5125095,5.95892562 C16.2020762,5.80230891 16.0395933,5.79009118 15.5970463,5.86536894 C15.6138335,5.86207864 15.3644792,5.91035932 15.245676,5.93375099 C15.0361551,5.97500446 14.8223397,6.01819479 14.5972777,6.06510902 C13.9768415,6.19443911 13.3718573,6.33101044 12.8056485,6.47339034 C12.7571945,6.48557467 12.7091745,6.49776611 12.6613172,6.51003594 C12.4125041,6.57334429 12.1455414,6.65170342 11.8630248,6.74357237 C11.5409093,6.84831808 11.2027659,6.96923952 10.8537154,7.10318315 C10.4068177,7.27467441 9.96491465,7.45851503 9.54781468,7.64234734 C9.40186457,7.70667327 9.26948218,7.76638395 9.15313256,7.81993663 C9.09345707,7.8474037 9.0491705,7.86808473 9.02182322,7.88100868 L9.00956836,7.88681973 L8.97715014,7.90225405 L6.61672763,7.91173238 L6.57094856,7.90523901 C6.23066108,7.80527865 6.01306325,7.48768195 5.78202687,6.91521442 C5.77093924,6.88774122 5.58955836,6.41419719 5.54180741,6.30859731 L5.52036838,6.26274324 L5.49835097,6.21901863 L4.9098728,5.02001697 C4.90336541,5.00508293 4.87640221,4.99138007 4.821191,4.98575192 L4.79577686,4.98385418 L3.34935954,4.89688366 C3.35093507,4.90212864 3.35268677,4.9077914 3.35464908,4.91400184 C3.3600639,4.93085418 3.36401124,4.94316738 3.36769792,4.95520244 L3.37318328,4.97357906 L4.38968166,8.99466954 C4.47049637,9.33432159 4.97170017,9.72533137 5.37473631,9.79022379 L5.41605826,9.795758 L11.3859552,10.719667 L12.0373849,10.719667 L12.0472131,9.17185082 L12.1614056,9.13719156 L12.2644264,9.10592375 C12.3142206,9.09066009 12.4361317,9.05506768 12.5711052,9.01731263 C12.7836257,8.95786598 13.0043826,8.89953038 13.2224369,8.8464219 C13.8475866,8.69416273 14.3328341,8.6118885 14.615788,8.63171562 C15.4462727,8.6892736 16.109612,9.55379412 16.6278826,10.7474744 L16.6614775,10.8257848 L17.257882,12.4157759 L17.1475094,12.4870331 C16.9455162,12.6174412 16.8207891,12.8412516 16.8207891,13.0863539 C16.8207891,13.4800603 17.1370358,13.7991468 17.5272263,13.7991468 C17.9174221,13.7991468 18.2336634,13.4800548 18.2336634,13.0863539 C18.2336634,12.7093765 17.9431441,12.4006614 17.5755441,12.3767151 L17.5358731,12.3752489 L17.4248165,12.3742572 L16.8208827,10.7403319 L17.0156721,10.7089857 C18.0270354,10.5462333 18.6407161,10.4328099 19.0956502,10.3014326 C19.2561446,10.2595689 19.4671232,10.0789998 19.5573801,9.92781249 L19.5737712,9.89801658 L21.2352246,7.34155581 L21.2352246,10.5167626 C21.2352246,10.5888313 21.3319575,10.594375 21.3468395,10.5333938 L21.3487514,10.5167626 L21.3487514,7.63752388 L21.696088,7.63752388 C21.9935202,7.63752388 22.0036657,7.20299393 21.7266971,7.17402524 L21.697021,7.17250964 L21.3499212,7.17270913 L21.3490281,4.38505099 C21.3490281,4.31220025 21.2522951,4.30659635 21.2374131,4.36823928 Z M7.20041525,12.1181814 C7.47018334,12.192401 7.62607306,12.4722464 7.54908756,12.7410795 C7.48602659,12.9649779 7.2824507,13.1119104 7.06085513,13.1124982 C7.06237702,13.1555131 7.05614731,13.2016555 7.0432288,13.2475152 C6.96711314,13.5157695 6.68797542,13.6740331 6.41856848,13.6009052 C6.14848196,13.5266053 5.99268347,13.2472566 6.06966732,12.9774693 C6.13270299,12.7544982 6.33572335,12.6078108 6.55697172,12.6062624 C6.55632906,12.5633421 6.56256497,12.5171302 6.57554603,12.4712118 L6.57567334,12.4707644 C6.6525865,12.2021703 6.93096691,12.0443201 7.20041525,12.1181814 Z M6.33558005,13.0526458 C6.3003943,13.1759538 6.37049702,13.3016489 6.49158085,13.3349595 C6.61401299,13.3681921 6.74229824,13.2954928 6.77718952,13.1727847 C6.79241864,13.1186108 6.78745551,13.0639277 6.7669484,13.0168289 C6.72093661,12.9862707 6.68262837,12.9476706 6.65134421,12.9042109 C6.6423614,12.8967459 6.63201976,12.8930749 6.62128025,12.8901492 C6.49848274,12.8568174 6.37046195,12.9292623 6.33558005,13.0526458 Z M12.4101066,13.0522823 C12.3753433,13.1756074 12.4455126,13.3009543 12.5675178,13.3349429 C12.6891366,13.368823 12.8171308,13.2961626 12.8521437,13.1723978 C12.8872347,13.0495033 12.8167916,12.9237757 12.6946066,12.8901844 C12.5727868,12.8562484 12.445459,12.928471 12.4101066,13.0522823 Z M8.71931592,12.1185533 C8.98918533,12.1928272 9.14483027,12.4716442 9.06779854,12.7412423 C8.99097178,13.0101318 8.71253946,13.1682616 8.44331805,13.0942973 C8.17388106,13.0200018 8.01775658,12.7409887 8.09457159,12.4721538 C8.170422,12.2022505 8.44984549,12.0436679 8.71931592,12.1185533 Z M9.73158189,11.6119448 C9.95693464,11.6738735 10.1027014,11.878441 10.099962,12.1012376 C10.1002118,12.0565347 10.1065431,12.0104286 10.1195799,11.9645594 C10.1955197,11.6968605 10.4750959,11.5384868 10.7432656,11.611571 L10.8449567,11.6392848 L10.8449567,11.6516734 C11.0117157,11.7393972 11.1146669,11.9140279 11.1124654,12.1013005 C11.1564701,12.0995179 11.2034619,12.105364 11.2501456,12.1182065 C11.5198096,12.1923893 11.6756202,12.4712083 11.5994214,12.7416999 C11.5225326,13.0101796 11.2434153,13.1682532 10.9745877,13.0942929 C10.7491503,13.0322703 10.603388,12.8273114 10.6062926,12.6043618 C10.6061238,12.6493101 10.5998947,12.6954139 10.5869831,12.7412646 C10.5110139,13.0100765 10.2318435,13.1682404 9.96223233,13.0943165 C9.73725383,13.0324044 9.59154857,12.8279592 9.59377516,12.6047752 C9.55019842,12.6068125 9.50286118,12.6009733 9.45580532,12.5880419 C9.18636302,12.5137243 9.03023546,12.234628 9.10708728,11.9655877 C9.18298657,11.6964162 9.46226682,11.5379343 9.73158189,11.6119448 Z M8.36047908,12.5469575 C8.32539537,12.6697445 8.39578919,12.7955467 8.5168901,12.8289396 C8.63903642,12.8624973 8.76656606,12.7900695 8.80205354,12.6658653 C8.8313666,12.5632745 8.78758361,12.4590287 8.70186034,12.4078121 L8.64518889,12.3837577 C8.52315212,12.3497838 8.39554791,12.4221746 8.36047908,12.5469575 Z M11.0562838,12.3835978 L11.0091134,12.4036511 C10.9814283,12.4402671 10.9491003,12.4726725 10.913243,12.5002335 C10.9032931,12.5126971 10.8965572,12.5290357 10.8916539,12.5463794 C10.8564901,12.6696089 10.9265487,12.7952222 11.0480165,12.8286406 C11.1701955,12.8622547 11.2984288,12.7896318 11.3336739,12.6665683 C11.3684686,12.5430513 11.2981806,12.4172728 11.1767235,12.3838607 C11.1360012,12.3726582 11.0946345,12.3732513 11.0562838,12.3835978 Z M6.84128454,12.5462439 C6.82611877,12.60009 6.83113698,12.6545692 6.85175939,12.7015898 C6.89820625,12.7319407 6.93676001,12.7708885 6.9681714,12.8147933 C6.97638734,12.8216519 6.98713389,12.8255173 6.99831183,12.8285927 C7.12078348,12.8622878 7.24842311,12.7900514 7.28337723,12.6659514 C7.31849777,12.5433084 7.24823817,12.4171819 7.12712831,12.3838616 C7.00444498,12.3502317 6.87684064,12.4225251 6.84128454,12.5462439 Z M10.0438062,12.3835979 L9.9959447,12.4039478 C9.96834999,12.440329 9.93620538,12.4725511 9.90059974,12.4999874 C9.89017112,12.5130694 9.8835735,12.5290293 9.87873149,12.545942 C9.84394833,12.6694618 9.91421296,12.7952433 10.0355053,12.8286219 C10.15836,12.862307 10.2863789,12.789778 10.3211958,12.666581 C10.3363329,12.612827 10.3315754,12.5586447 10.3113653,12.5118333 C10.2644895,12.4801348 10.2256069,12.4409244 10.1939899,12.3967421 C10.1855713,12.3905698 10.1751383,12.3868502 10.1642975,12.3838669 C10.1235835,12.3726616 10.0821974,12.3732608 10.0438062,12.3835979 Z M14.9338283,10.362344 C14.6389919,10.3443098 13.9369658,10.4813279 13.1817395,10.6665044 L13.1817395,10.6665044 L13.1769649,12.0742611 L12.4552181,12.0742611 L12.4568135,12.1962588 L13.5813298,12.6612801 L13.5813298,11.5057435 L16.1638958,11.5057435 C15.7810881,10.8514803 15.3240945,10.3851795 14.9338283,10.362344 Z M10.3852481,12.039682 C10.3699612,12.0934682 10.3746356,12.1476232 10.3947977,12.1944297 C10.4414701,12.2257924 10.4803428,12.2649471 10.5119683,12.3091006 C10.5205162,12.3158929 10.5309472,12.3196463 10.5417858,12.3226688 C10.600183,12.3385238 10.6597199,12.3304334 10.7098534,12.3042442 C10.7372652,12.2659804 10.770268,12.232959 10.8069115,12.2049778 C10.8160985,12.1921108 10.8225074,12.1763081 10.8272222,12.159566 C10.8623011,12.0366025 10.7918823,11.9108043 10.6701932,11.8773198 L10.6682255,11.8767784 C10.5471413,11.8451241 10.4197932,11.9179057 10.3852481,12.039682 Z M9.37296472,12.040539 C9.33788032,12.1633627 9.40827553,12.2892023 9.52937883,12.3226051 C9.58749202,12.3385752 9.64682371,12.3305488 9.69688241,12.3043653 C9.72469795,12.2660926 9.75739589,12.2333776 9.79365653,12.2055992 C9.80328308,12.1920969 9.80975495,12.1762619 9.8145479,12.1594822 C9.84972426,12.0363366 9.77964024,11.910807 9.65813407,11.8774162 C9.53586343,11.843815 9.40797272,11.9163885 9.37296472,12.040539 Z M8.21246227,11.1057545 C8.48219265,11.1799038 8.63804153,11.4585971 8.56198703,11.7283933 C8.48618155,11.9973061 8.20733405,12.155294 7.93755845,12.0821179 C7.66782779,12.0079685 7.51197891,11.7292752 7.58799747,11.4596068 C7.66377246,11.1898047 7.94290982,11.0316535 8.21246227,11.1057545 Z M7.85400934,11.5340033 C7.81920607,11.6574647 7.88951133,11.7831865 8.01054374,11.8164593 C8.13335667,11.8497717 8.26120644,11.7773353 8.2960111,11.653869 C8.33081437,11.5304077 8.26050911,11.4046859 8.13902211,11.3712889 C8.01644167,11.3375911 7.88887344,11.4098676 7.85400934,11.5340033 Z M15.0135975,6.11371274 L15.67877,8.09417257 L11.4048654,8.09417257 C11.2143388,8.09417257 11.0617336,7.95808696 11.0617336,7.73861896 L11.0617336,7.51884185 C11.0617336,7.33741839 11.1459021,7.20743003 11.312286,7.12552618 C11.556066,7.01264701 12.2727476,6.7425943 12.6398011,6.64543341 C13.3708166,6.46083871 14.2005762,6.27520377 14.8748611,6.14127004 L15.0135975,6.11371274 Z M16.4308586,6.09439382 L16.484305,6.12222722 C16.5425951,6.15259151 16.5425951,6.15259151 16.6251694,6.19562575 C16.770893,6.27158158 16.9166182,6.34761189 17.0526388,6.41868212 L17.0560476,6.42046321 C17.4172478,6.60919386 17.6386741,6.72562479 17.6653376,6.74138822 C17.8537291,6.83237004 17.9397171,7.08464218 17.82886,7.27862249 L17.8130451,7.30151244 L17.747023,7.38148588 C17.725248,7.42004083 17.6818775,7.50026229 17.6241945,7.60837271 L17.6216593,7.61312494 C17.5908728,7.67084191 17.5580225,7.73271845 17.5252728,7.79460013 C17.5056218,7.83173128 17.4903665,7.86062166 17.4839354,7.87266136 C17.4659825,7.90936616 17.4333652,7.95305704 17.3817061,7.99401053 C17.3020312,8.05717398 17.1982378,8.09416388 17.073371,8.09416388 L15.939769,8.09416388 L15.2623401,6.06630015 L15.4415384,6.02946944 C15.5003361,6.01738473 15.5444737,6.00912932 15.5695454,6.00587171 C15.9844186,5.93028949 16.1369563,5.94288377 16.4308586,6.09439382 Z M14.7985932,6.48881291 C14.1564463,6.61897608 13.3944895,6.79076297 12.719983,6.96107802 C12.3744647,7.0525487 11.6748743,7.31616124 11.4504722,7.42001652 C11.3962784,7.44671074 11.384681,7.46462127 11.384681,7.51884185 L11.384681,7.73861896 C11.384681,7.76854685 11.3844261,7.76831941 11.4048654,7.76831941 L15.2283381,7.76831941 L14.7985932,6.48881291 Z M15.6865091,6.31586365 L16.1717141,7.7683107 L17.073371,7.7683107 C17.1251199,7.7683107 17.1588343,7.75629554 17.1821851,7.73778388 C17.1923414,7.72973231 17.1963087,7.72441814 17.196573,7.72404767 C17.2053426,7.70741173 17.2206563,7.6784106 17.2403971,7.64110981 C17.2733002,7.57893826 17.3063099,7.51676156 17.3372825,7.45869551 L17.339836,7.45390911 C17.4061613,7.32960112 17.4531362,7.242889 17.4746898,7.20570843 L17.4900021,7.18369153 L17.5524863,7.10800365 C17.5605752,7.08213802 17.5454394,7.04469618 17.5158128,7.0299819 C17.4850467,7.01233156 17.2559371,6.89186055 16.9075402,6.70981977 L16.9041345,6.70804031 C16.7682194,6.63702519 16.6225848,6.56104212 16.4769486,6.48513186 C16.394419,6.44212091 16.394419,6.44212091 16.3361652,6.41177557 L16.2833535,6.38427114 C16.0751805,6.27695656 15.9891739,6.26397611 15.6865091,6.31586365 Z" id="Combined-Shape" fill="#000000" fill-rule="nonzero"></path>
    </g>
</svg>