<?xml version="1.0" encoding="UTF-8"?>
<svg width="24px" height="24px" viewBox="0 0 24 24" version="1.1" xmlns="http://www.w3.org/2000/svg" xmlns:xlink="http://www.w3.org/1999/xlink">
    <!-- Generator: Sketch 59.1 (86144) - https://sketch.com -->
    <title>forms-edit</title>
    <desc>Created with Sketch.</desc>
    <defs>
        <path d="M16.1153043,3.4981031 C16.7786216,2.8355552 17.8513733,2.83397079 18.5107298,3.49334175 L21.5059763,6.48869121 C22.166125,7.14886249 22.1645406,8.22163066 21.5020094,8.88419888 L8.93785773,21.4487824 C8.60699124,21.7796603 7.95636907,22.0256299 7.49298537,21.9978621 L4.09779025,21.7979054 C3.63044565,21.7709277 3.22897373,21.366255 3.20197873,20.9028756 L3.00202885,17.5075634 C2.97505214,17.0402027 3.22022321,16.3935192 3.55108969,16.0626414 L16.1153043,3.4981031 Z M7.56774387,20.3478261 C7.55019474,20.3462318 7.72966994,20.2784509 7.71690732,20.2912096 L20.3478261,7.66406982 C20.3510152,7.66088114 17.3413571,4.65217391 17.3413571,4.65217391 C17.3437504,4.65456644 4.7088073,17.2833965 4.7088073,17.2833965 C4.71997511,17.2730303 4.65297031,17.4484629 4.65217391,17.4325154 L4.8141,20.1851522 L7.56774387,20.3478261 Z M15.7451413,6.30434783 L18.6956522,9.25430076 L17.5157283,10.4347826 L14.5652174,7.48482967 L15.7451413,6.30434783 Z" id="path-1"></path>
    </defs>
    <g id="forms-edit" stroke="none" stroke-width="1" fill="none" fill-rule="evenodd">
        <mask id="mask-2" fill="white">
            <use xlink:href="#path-1"></use>
        </mask>
        <use id="edit" fill="#000000" xlink:href="#path-1"></use>
    </g>
</svg>