<?xml version="1.0" encoding="UTF-8"?>
<svg width="24px" height="24px" viewBox="0 0 24 24" version="1.1" xmlns="http://www.w3.org/2000/svg" xmlns:xlink="http://www.w3.org/1999/xlink">
    <!-- Generator: Sketch 59.1 (86144) - https://sketch.com -->
    <title>forms-attachment</title>
    <desc>Created with Sketch.</desc>
    <g id="forms-attachment" stroke="none" stroke-width="1" fill="none" fill-rule="evenodd">
        <path d="M19.8406015,5.69582904 C19.548513,4.7461675 18.9057627,3.950983 18.0104921,3.48607847 C16.08302,2.45840292 13.7463904,3.11803227 12.7727622,4.92041946 L7.16446948,15.3894957 C6.87238104,15.9324918 6.83359169,16.5527264 7.02831342,17.1540391 C7.22303905,17.7356544 7.63227443,18.2006365 8.19666718,18.5111416 L8.29403,18.5694543 C8.81963341,18.8405646 9.44259963,18.9185786 10.0267765,18.7436365 C10.6109534,18.5694543 11.0779833,18.1817185 11.3700718,17.6387224 L14.9138834,10.9887264 C15.0112463,10.7948547 15.0310226,10.6009829 14.972453,10.3874137 C14.9138834,10.1935419 14.7777274,10.0193675 14.5830018,9.92243163 C14.3882761,9.82549574 14.1935505,9.80580613 13.9790408,9.86411888 C13.7843151,9.92243163 13.6093736,10.0579907 13.5120108,10.2518624 L9.96819915,16.9018584 C9.87083633,17.0760406 9.73468417,17.1926661 9.55896377,17.2509827 C9.38401448,17.3092955 9.18929664,17.2896059 9.01357624,17.19267 L8.91621342,17.1343572 C8.7214878,17.0374213 8.56555151,16.8632469 8.50697805,16.6496778 C8.44840847,16.4754956 8.44840847,16.2816316 8.54577129,16.1263791 L14.154064,5.65730284 C14.7184568,4.61070541 16.1211823,4.24188373 17.2696741,4.86211834 C17.7762723,5.13322864 18.1657235,5.57928883 18.3208809,6.14198229 C18.4958302,6.68497838 18.43802,7.28551561 18.1649485,7.78989244 L12.4799338,18.41426 C11.9931198,19.3063804 11.1944331,19.9652342 10.2207271,20.2560419 C9.2470211,20.5468496 8.21485845,20.4499137 7.31970475,19.9652342 C6.5020129,19.5388714 5.93684124,18.7823062 5.68432105,17.8524195 C5.43102195,16.902758 5.5671819,15.8939268 6.03498295,14.9829233 L10.9229856,6.2003377 C11.1374954,5.83229151 11.0005721,5.34761205 10.6111131,5.1340429 C10.4361638,5.03710701 10.2216618,5.01741739 10.0071521,5.07573014 C9.81242643,5.1340429 9.63748493,5.26960192 9.54012212,5.44377633 L4.67198146,14.2649424 C4.01022589,15.525109 3.81550027,16.9405669 4.1851674,18.2778944 C4.5358293,19.6349969 5.3923105,20.7210666 6.59937571,21.360068 C7.37827821,21.767509 8.25454353,22 9.13080885,22 C9.65641226,22 10.1820157,21.9227537 10.708398,21.767509 C12.0912615,21.360068 13.2199691,20.4301039 13.8826204,19.1700148 L19.5487467,8.52684173 C20.0157766,7.65441871 20.1329236,6.64644055 19.8408351,5.69592597 L19.8406015,5.69582904 Z" id="Path" fill="#000000" fill-rule="nonzero"></path>
    </g>
</svg>