<?xml version="1.0" encoding="UTF-8"?>
<svg width="24px" height="24px" viewBox="0 0 24 24" version="1.1" xmlns="http://www.w3.org/2000/svg" xmlns:xlink="http://www.w3.org/1999/xlink">
    <!-- Generator: Sketch 59.1 (86144) - https://sketch.com -->
    <title>forms-reprocess</title>
    <desc>Created with Sketch.</desc>
    <g id="forms-reprocess" stroke="none" stroke-width="1" fill="none" fill-rule="evenodd">
        <path d="M15.9171453,8.0500503 L17.3576484,7.04374201 L17.3568075,7.04374201 C15.53957,5.07331946 12.8637656,4.13874534 10.2182291,4.55032072 L10.1669329,4.55032072 L9.89112028,4.60177413 L9.75573056,4.62961053 L9.55979423,4.68190824 L9.34451744,4.7291444 L9.2410834,4.75950942 C9.14185371,4.78734582 9.04262403,4.81771084 8.94591738,4.8506088 L8.92405387,4.8506088 L8.92489474,4.84976535 C7.45580285,5.34743471 6.16074072,6.25840694 5.19371736,7.47382835 C5.1272851,7.55817755 5.06253199,7.64421538 5.00030408,7.73109536 L4.94396184,7.80701007 C4.89855135,7.87195952 4.85314086,7.93690896 4.80857211,8.00354704 L4.70766111,8.15453431 L4.62777405,8.2844332 C4.58068225,8.36034791 4.53527176,8.43795125 4.48986343,8.51555027 L4.4595912,8.57206523 L4.4595912,8.57037811 C3.59006671,10.1384458 3.2637932,11.9510834 3.53204961,13.7250035 C3.53204961,13.7553685 3.53204961,13.7832049 3.54466354,13.8135721 C3.55727747,13.8937041 3.57241487,13.9713074 3.58755098,14.051448 C3.60268774,14.13158 3.61109796,14.1703816 3.62455276,14.2285831 C3.63716647,14.2867845 3.64809758,14.3255861 3.65903149,14.3736645 C3.680895,14.4622331 3.70191893,14.5507995 3.72546376,14.6368481 L3.74732727,14.6925188 C4.15684831,16.1433544 4.96329671,17.4500307 6.07662217,18.4638536 C7.18917264,19.4777412 8.56328441,20.157618 10.0415902,20.4275389 C10.1778195,20.4520002 10.3132049,20.4730886 10.4485925,20.4899576 L10.4788647,20.4899576 C10.6033205,20.5051407 10.7311476,20.517794 10.8555991,20.5287592 L10.8749404,20.5287592 L10.8749404,20.5296027 C12.8527959,20.6721555 14.8138599,20.0766322 16.3804291,18.8569353 C17.9470629,17.6372383 19.009174,15.8793839 19.3615821,13.9217016 C19.3884917,13.7276954 19.4936071,13.5530976 19.6517107,13.4375283 C19.8098057,13.3228119 20.0082521,13.2772622 20.2008387,13.3118466 C20.3925685,13.346431 20.5632787,13.4586166 20.6717567,13.6214135 C20.7802368,13.7842103 20.8172365,13.9849645 20.7760303,14.1764356 C20.337899,16.6335795 18.9495359,18.8173476 16.9137494,20.2531108 C16.89609,20.27673 16.8792706,20.27673 16.8666576,20.2961297 C15.2890877,21.4036476 13.4103887,21.9983157 11.4847377,22 C10.917957,22 10.3520158,21.9493888 9.79447048,21.8490127 C9.63553593,21.8203342 9.47743234,21.7874362 9.32103375,21.7520096 L9.26721455,21.7393573 L9.26721455,21.7385136 C7.08172455,21.2138521 5.1526292,19.926675 3.82652415,18.1073217 C2.49953647,16.28704 1.86128384,14.0541895 2.02526017,11.8054246 L2.02526017,11.7885545 C2.02526017,11.6502211 2.05132804,11.5118964 2.0664663,11.3735457 L2.0664663,11.304379 C2.0866485,11.1449573 2.11103505,10.9846847 2.13962597,10.8252586 C2.19596821,10.5131653 2.26744656,10.2061249 2.35490276,9.90500113 C2.9082287,7.94975893 4.07291921,6.22306415 5.67748479,4.98056427 C7.28112468,3.73808599 9.240531,3.04473478 11.2671467,3.00169859 C11.8919446,2.98988944 12.5167639,3.03965595 13.1314868,3.1509994 C15.2312751,3.52467789 17.1410171,4.60436148 18.5478509,6.21298206 L20.1044098,5.13329847 C20.5349634,4.83133256 20.8990825,5.01689562 20.909179,5.54578079 L21,9.96989227 C21,10.4987645 20.6190677,10.7729177 20.1279568,10.5788986 L16.0183228,8.95093009 C15.5314313,8.75608175 15.4843287,8.35289334 15.9174118,8.05006369 L15.9171453,8.0500503 Z" id="Path" fill="#000000"></path>
    </g>
</svg>