<?xml version="1.0" encoding="UTF-8" standalone="no"?>
<svg
   xmlns:dc="http://purl.org/dc/elements/1.1/"
   xmlns:cc="http://creativecommons.org/ns#"
   xmlns:rdf="http://www.w3.org/1999/02/22-rdf-syntax-ns#"
   xmlns:svg="http://www.w3.org/2000/svg"
   xmlns="http://www.w3.org/2000/svg"
   xmlns:sodipodi="http://sodipodi.sourceforge.net/DTD/sodipodi-0.dtd"
   xmlns:inkscape="http://www.inkscape.org/namespaces/inkscape"
   width="24"
   height="24"
   viewBox="0 0 24 24"
   version="1.1"
   id="svg90"
   sodipodi:docname="general-help.svg"
   inkscape:version="1.0.1 (3bc2e813f5, 2020-09-07)">
  <metadata
     id="metadata96">
    <rdf:RDF>
      <cc:Work
         rdf:about="">
        <dc:format>image/svg+xml</dc:format>
        <dc:type
           rdf:resource="http://purl.org/dc/dcmitype/StillImage" />
      </cc:Work>
    </rdf:RDF>
  </metadata>
  <defs
     id="defs94" />
  <sodipodi:namedview
     pagecolor="#ffffff"
     bordercolor="#666666"
     borderopacity="1"
     objecttolerance="10"
     gridtolerance="10"
     guidetolerance="10"
     inkscape:pageopacity="0"
     inkscape:pageshadow="2"
     inkscape:window-width="1920"
     inkscape:window-height="1017"
     id="namedview92"
     showgrid="false"
     inkscape:zoom="35.416667"
     inkscape:cx="12"
     inkscape:cy="12"
     inkscape:window-x="-8"
     inkscape:window-y="-8"
     inkscape:window-maximized="1"
     inkscape:current-layer="g86" />
  <g
     fill="none"
     fill-rule="evenodd"
     id="g88"
     transform="translate(0.02823529)">
    <g
       id="g86">
      <path
         fill="#3a79ff"
         fill-rule="nonzero"
         d="M 9.75,0.5 C 4.641,0.5 0.5,4.641 0.5,9.75 0.5,14.859 4.641,19 9.75,19 14.859,19 19,14.859 19,9.75 19,4.641 14.859,0.5 9.75,0.5 Z m 0,1 C 14.306,1.5 18,5.194 18,9.75 18,14.306 14.306,18 9.75,18 5.194,18 1.5,14.306 1.5,9.75 1.5,5.194 5.194,1.5 9.75,1.5 Z"
         id="path78"
         transform="translate(2,2)" />
      <g
         fill="#3a79ff"
         id="g84">
        <path
           d="m 5.625,2.412 c 0,1.372 -1.166,2.364 -1.537,2.67 C 3.334,5.71 3.32,6.148 3.32,6.906 3.32,7.184 3.183,7.505 2.51,7.505 1.948,7.505 1.756,7.285 1.756,6.527 1.756,5.272 2.277,4.674 2.676,4.309 3.128,3.901 3.896,3.449 3.896,2.66 3.896,1.99 3.348,1.668 2.662,1.668 1.262,1.668 1.564,2.792 0.823,2.792 0.453,2.792 0,2.529 0,1.96 0,1.172 0.85,0.005 2.703,0.005 c 1.756,0 2.922,1.036 2.922,2.407 M 3.581,9.548 c 0,0.573 -0.467,1.077 -1.057,1.077 -0.59,0 -1.042,-0.504 -1.042,-1.077 0,-0.588 0.466,-1.078 1.042,-1.078 0.577,0 1.057,0.49 1.057,1.078"
           transform="translate(9.25,6.75)"
           id="path82" />
      </g>
    </g>
  </g>
</svg>
