<svg xmlns="http://www.w3.org/2000/svg" width="24" height="24" viewBox="0 0 24 24">
    <path fill="#4A4A4A" fill-rule="evenodd" d="M15.772 14.792c1.585-1.923 2.064-4.53 1.266-6.892-.799-2.361-2.76-4.143-5.188-4.71-2.428-.568-4.975.159-6.739 1.921C3.35 6.875 2.621 9.422 3.19 11.85c.567 2.427 2.349 4.39 4.71 5.187 2.361.799 4.969.32 6.892-1.265l5.088 5.088c.279.209.669.182.915-.065.247-.246.274-.636.065-.915l-5.088-5.088zM4.412 10.22c-.007-1.541.6-3.022 1.687-4.116 1.086-1.094 2.563-1.71 4.105-1.716 1.542-.003 3.023.606 4.116 1.694 1.092 1.088 1.706 2.566 1.709 4.107.002 1.542-.61 3.022-1.699 4.113-1.09 1.09-2.568 1.704-4.11 1.704-1.536 0-3.01-.609-4.099-1.693-1.089-1.085-1.703-2.555-1.71-4.093z"/>
</svg>
