<svg xmlns="http://www.w3.org/2000/svg" width="24" height="24" viewBox="0 0 24 24">
    <g fill="none" fill-rule="evenodd">
        <path fill="#27C99C" d="M19.19 6.192l.121.107c.372.39.372 1.012 0 1.401l-9.097 9.523c-.38.399-1.006.399-1.387 0L4.28 12.462c-.372-.39-.372-1.013 0-1.402.38-.399 1.006-.399 1.387 0l3.855 4.035L17.924 6.3c.343-.359.884-.395 1.266-.107z"/>
        <path fill="#3A79FF" d="M19.19 6.192l.121.107c.372.39.372 1.012 0 1.401l-9.097 9.523c-.38.399-1.006.399-1.387 0L4.28 12.462c-.372-.39-.372-1.013 0-1.402.38-.399 1.006-.399 1.387 0l3.855 4.035L17.924 6.3c.343-.359.884-.395 1.266-.107z"/>
    </g>
</svg>
