<?xml version="1.0" encoding="UTF-8"?>
<svg width="24px" height="24px" viewBox="0 0 24 24" version="1.1" xmlns="http://www.w3.org/2000/svg" xmlns:xlink="http://www.w3.org/1999/xlink">
    <!-- Generator: Sketch 57.1 (83088) - https://sketch.com -->
    <title>general-add</title>
    <desc>Created with Sketch.</desc>
    <defs>
        <path d="M11.5,3 C6.26106668,3 2,7.26106668 2,12.5 C2,17.7389334 6.26106668,22 11.5,22 C16.7389334,22 21,17.7389334 21,12.5 C21,7.26106668 16.7389334,3 11.5,3 Z M11.5,4.26666667 C16.0545112,4.26666667 19.7333334,7.94548891 19.7333334,12.5 C19.7333334,17.0545112 16.0545112,20.7333334 11.5,20.7333334 C6.94548891,20.7333334 3.26666667,17.0545112 3.26666667,12.5 C3.26666667,7.94548891 6.94548891,4.26666667 11.5,4.26666667 Z M11.4934028,7.20910171 C11.3243492,7.21078213 11.1627184,7.28005402 11.0447917,7.40127824 C10.9276905,7.5233258 10.863367,7.68661602 10.8666667,7.85565269 L10.8666667,11.8667638 L6.85555558,11.8667638 C6.83328969,11.8659384 6.81184924,11.8659384 6.78958336,11.8667638 C6.62135313,11.8758352 6.46383891,11.9508789 6.35169668,12.0754007 C6.23871846,12.2007479 6.18016891,12.3648552 6.18924035,12.5330896 C6.19748635,12.7013198 6.27335546,12.858834 6.39787724,12.9709762 C6.52322446,13.0839545 6.68733168,13.142504 6.85556613,13.1334326 L10.8666772,13.1334326 L10.8666772,17.1445437 C10.864203,17.3144227 10.9301752,17.4776982 11.0489252,17.5980948 C11.1676752,17.719319 11.3301252,17.78694 11.5000064,17.78694 C11.6698875,17.78694 11.8323375,17.719319 11.9510875,17.5980948 C12.0698375,17.477696 12.1358097,17.3144037 12.1333355,17.1445437 L12.1333355,13.1334326 L16.1444466,13.1334326 C16.3143256,13.1359068 16.477601,13.0699346 16.5979977,12.9511846 C16.719222,12.8324346 16.786843,12.6699846 16.786843,12.5001035 C16.786843,12.3302224 16.719222,12.1677724 16.5979977,12.0490224 C16.477599,11.9302724 16.3143066,11.8643002 16.1444466,11.8667744 L12.1333355,11.8667744 L12.1333355,7.85566324 C12.136633,7.68413546 12.0706608,7.51837102 11.950262,7.39715102 C11.8298632,7.27510346 11.6649242,7.20748035 11.4933965,7.20910171 L11.4934028,7.20910171 Z" id="path-1"></path>
    </defs>
    <g id="general-add" stroke="none" stroke-width="1" fill="none" fill-rule="evenodd">
        <mask id="mask-2" fill="white">
            <use xlink:href="#path-1"></use>
        </mask>
        <use id="path-1" fill="#000000" fill-rule="nonzero" xlink:href="#path-1"></use>
    </g>
</svg>