<?xml version="1.0" encoding="UTF-8"?>
<svg width="24px" height="24px" viewBox="0 0 24 24" version="1.1" xmlns="http://www.w3.org/2000/svg" xmlns:xlink="http://www.w3.org/1999/xlink">
    <!-- Generator: Sketch 57.1 (83088) - https://sketch.com -->
    <title>general-edit</title>
    <desc>Created with Sketch.</desc>
    <defs>
        <path d="M15.1153043,3.4981031 C15.7786216,2.8355552 16.8513733,2.83397079 17.5107298,3.49334175 L20.5059763,6.48869121 C21.166125,7.14886249 21.1645406,8.22163066 20.5020094,8.88419888 L7.93785773,21.4487824 C7.60699124,21.7796603 6.95636907,22.0256299 6.49298537,21.9978621 L3.09779025,21.7979054 C2.63044565,21.7709277 2.22897373,21.366255 2.20197873,20.9028756 L2.00202885,17.5075634 C1.97505214,17.0402027 2.22022321,16.3935192 2.55108969,16.0626414 L15.1153043,3.4981031 Z M6.44793198,20.5384615 C6.42995656,20.5368285 6.61379148,20.4674011 6.60071883,20.4804698 L19.5384615,7.54659783 C19.5417281,7.54333169 16.4589609,4.46153846 16.4589609,4.46153846 C16.4614124,4.46398911 3.51954756,17.3995924 3.51954756,17.3995924 C3.53098665,17.3889743 3.4623542,17.5686685 3.46153846,17.5523336 L3.62739797,20.3718361 L6.44793198,20.5384615 Z M14.9448423,5.92307692 L18.0769231,9.05456543 L16.8243885,10.3076923 L13.6923077,7.17620381 L14.9448423,5.92307692 Z" id="path-1"></path>
    </defs>
    <g id="general-edit" stroke="none" stroke-width="1" fill="none" fill-rule="evenodd">
        <mask id="mask-2" fill="white">
            <use xlink:href="#path-1"></use>
        </mask>
        <use id="edit" fill="#000000" xlink:href="#path-1"></use>
    </g>
</svg>