<svg xmlns="http://www.w3.org/2000/svg" width="24" height="24" viewBox="0 0 24 24">
    <g fill="none" fill-rule="evenodd">
        <g fill="#4A4A4A" stroke="#4A4A4A" stroke-width=".4">
            <g>
                <path d="M6.077 6.187c.362-1.421 1.532-2.19 2.609-1.712h0L19.58 9.307c.845.374 1.383 1.41 1.4 2.524.018.005.037.009.055.016h0l1.048.465c.166.073.302.229.38.437h0l.04.127c.04.174.04.36-.006.533h0l-.891 3.51c-.093.364-.351.593-.627.593-.07 0-.138-.014-.208-.045h0l-1.048-.464c-.02-.008-.038-.02-.056-.031-.185.31-.417.572-.693.753-.29.192-.602.288-.915.288-.222 0-.443-.047-.659-.143h0l-7.257-3.218v7.402c0 .264-.164.48-.363.48h0-5.448v-.96h5.085V14.38c0-.017.005-.031.007-.049h0L6.508 13.04c-1.076-.478-1.658-2.023-1.296-3.446h0zm2.378-.803c-.698-.31-1.456.187-1.69 1.11h0L5.9 9.898c-.234.923.141 1.922.84 2.231h0l10.892 4.83c.338.15.7.117 1.02-.092.318-.21.557-.57.669-1.017h0l.867-3.406c.233-.923-.142-1.922-.84-2.231h0zm12.413 7.4l-.849 3.34.92.408.85-3.339-.92-.41zM8.265 9.472C8.6 8.469 9.689 7.928 10.69 8.265c1 .336 1.543 1.424 1.207 2.426-.27.8-1.018 1.305-1.818 1.305-.202 0-.406-.032-.608-.1-1.002-.336-1.542-1.424-1.206-2.424zm2.21-.567c-.649-.218-1.353.13-1.57.78-.218.649.131 1.352.78 1.57.314.106.65.084.947-.065.297-.147.518-.401.624-.715.217-.65-.132-1.353-.781-1.57z" transform="translate(-1 -1)"/>
            </g>
        </g>
    </g>
</svg>
