<?xml version="1.0" encoding="UTF-8"?>
<svg width="24px" height="24px" viewBox="0 0 24 24" version="1.1" xmlns="http://www.w3.org/2000/svg" xmlns:xlink="http://www.w3.org/1999/xlink">
    <!-- Generator: Sketch 57.1 (83088) - https://sketch.com -->
    <title>general-settings</title>
    <desc>Created with Sketch.</desc>
    <g id="general-settings" stroke="none" stroke-width="1" fill="none" fill-rule="evenodd">
        <path d="M12.7666653,3 C13.5748188,3 14.2444414,3.67044592 14.2444414,4.47777614 L14.2444414,5.2166642 C14.4027746,5.27521369 14.5586377,5.33871162 14.7128542,5.40798344 L15.2340447,4.8867929 C15.8055219,4.31531576 16.7538742,4.31531576 17.3253513,4.8867929 L19.1132071,6.67464869 C19.6846842,7.24612584 19.6846842,8.18789146 19.1132071,8.7593686 L18.5920166,9.28055913 C18.6621117,9.43724351 18.7239609,9.59475545 18.7833358,9.7555586 L19.5222239,9.7555586 C20.3303774,9.7555586 21,10.4260045 21,11.2333347 L21,13.7666653 C21,14.5739955 20.3303774,15.2444414 19.5222239,15.2444414 L18.7833358,15.2444414 C18.7247863,15.4027746 18.6612884,15.5586377 18.5920166,15.7128542 L19.1132071,16.2340447 C19.6846842,16.8055219 19.6846842,17.7472875 19.1132071,18.3187646 L17.3253513,20.1066204 C16.7538742,20.6780976 15.8055219,20.6780976 15.2340447,20.1066204 L14.7128542,19.5854299 C14.558644,19.6546996 14.4027746,19.7181996 14.2444414,19.7767491 L14.2444414,20.5222239 C14.2444414,21.3295541 13.5748188,22 12.7666653,22 L10.2333347,22 C9.42600453,22 8.7555586,21.3295541 8.7555586,20.5222239 L8.7555586,19.7767491 C8.59969967,19.7181996 8.44547895,19.6538763 8.29375356,19.5854299 L7.77256303,20.1066204 C7.20273255,20.6764509 6.25932027,20.6739809 5.68784312,20.1066204 L5.68124591,20.1066204 L3.88680346,18.3253724 L3.88680346,18.3187752 C3.31532632,17.7472981 3.31532632,16.8055324 3.88680346,16.2340553 L4.41458065,15.7062781 C4.34531095,15.5545422 4.27686458,15.4019829 4.2166642,15.2444731 L3.47777614,15.2444731 C2.67044592,15.2444731 2,14.5740271 2,13.7666969 L2,11.2333664 C2,10.4260362 2.67044592,9.75559027 3.47777614,9.75559027 L4.2166642,9.75559027 C4.27768791,9.59560834 4.34366006,9.44139395 4.41458065,9.28717746 L3.88680346,8.75940027 C3.31532632,8.18792312 3.31532632,7.2461575 3.88680346,6.67468036 L5.68124591,4.88682457 C6.25272305,4.31534743 7.20107533,4.31534743 7.77255247,4.88682457 L8.29374301,5.4080151 C8.44547895,5.33956873 8.59968489,5.27524536 8.75554805,5.21669587 L8.75554805,4.4778078 C8.75554805,3.67047759 9.42599397,3 10.2333242,3 L12.7666653,3 Z M12.7666653,4.26663359 L10.2333347,4.26663359 C10.1055134,4.26663359 10.0222239,4.34995483 10.0222239,4.47777614 L10.0222239,5.63888596 C10.0197499,5.90606788 9.82925586,6.16089982 9.57361325,6.23924307 C9.17448703,6.36211593 8.79678856,6.51714943 8.43889229,6.70765588 C8.20139255,6.83382841 7.88307957,6.78599702 7.69341756,6.59550323 L6.87536292,5.77744858 C6.78465068,5.68673635 6.66920048,5.68673635 6.5784988,5.77744858 L6.5784988,5.7840458 L4.78405635,7.56529382 C4.69334412,7.65600605 4.69334412,7.77805136 4.78405635,7.8687657 L5.60869766,8.69340701 C5.79919145,8.88307746 5.84702073,9.201382 5.72085031,9.43888173 C5.5278823,9.80338577 5.36624737,10.1810631 5.24585084,10.5736027 C5.1675097,10.831728 4.90855899,11.0230366 4.63890707,11.0222133 L3.47779725,11.0222133 C3.34997594,11.0222133 3.26668637,11.1055029 3.26668637,11.2333242 L3.26668637,13.7666547 C3.26668637,13.894476 3.34997594,13.9777656 3.47779725,13.9777656 L4.63890707,13.9777656 C4.90691233,13.9752916 5.16503759,14.1641364 5.24585084,14.4197895 C5.36624948,14.8123291 5.52787386,15.1966142 5.72085031,15.5610972 C5.84372317,15.7977736 5.79671934,16.1111465 5.60869766,16.2999852 L4.78405635,17.1246265 C4.69334412,17.2153388 4.69334412,17.3373841 4.78405635,17.4280984 L6.5784988,19.2159542 C6.66921103,19.3066664 6.78466124,19.3066664 6.87536292,19.2159542 L7.69341756,18.3978996 C7.88391135,18.2074058 8.20139255,18.1595765 8.43889229,18.2857469 C8.79678856,18.4762407 9.17448703,18.6312721 9.57361325,18.7541597 C9.83173852,18.8325009 10.0230472,19.0914516 10.0222239,19.3611035 L10.0222239,20.5222133 C10.0222239,20.6500346 10.1055134,20.7333242 10.2333347,20.7333242 L12.7666653,20.7333242 C12.8944866,20.7333242 12.9777761,20.6500346 12.9777761,20.5222133 L12.9777761,19.3611035 C12.9777761,19.0914516 13.1682699,18.832503 13.4263867,18.7541597 C13.8288063,18.6304614 14.2097981,18.4762534 14.5676944,18.2857469 C14.8051941,18.1595744 15.1235071,18.2074058 15.3131691,18.3978996 L16.1312237,19.2159542 C16.221936,19.3066664 16.3373862,19.3066664 16.4280879,19.2159542 L18.2159436,17.4280984 C18.3066559,17.3373862 18.3066559,17.2153409 18.2159436,17.1246265 L17.397889,16.3065719 C17.2098694,16.1177269 17.1628593,15.8043602 17.2857363,15.5676838 C17.4762301,15.2097875 17.6304382,14.8222091 17.7541492,14.4197684 C17.8349645,14.1641343 18.0930877,13.9760978 18.3610929,13.9777445 L19.5222028,13.9777445 C19.6500241,13.9777445 19.7333136,13.8944549 19.7333136,13.7666336 L19.7333136,11.2333031 C19.7333136,11.1054818 19.6500241,11.0221922 19.5222028,11.0221922 L18.3610929,11.0221922 C18.091441,11.0221922 17.8324924,10.8316984 17.7541492,10.5735816 C17.6304509,10.171162 17.4762428,9.79017023 17.2857363,9.43227396 C17.1595638,9.19477423 17.2073952,8.87646125 17.397889,8.68679924 L18.2159436,7.86874459 C18.3066559,7.77803236 18.3066559,7.65598705 18.2159436,7.56527271 L16.4280879,5.77741691 C16.3373756,5.68670468 16.2219254,5.68670468 16.1312237,5.77741691 L15.3131691,6.59547156 C15.1234986,6.78596535 14.8051941,6.83379463 14.5676944,6.70762421 C14.2097981,6.51713043 13.8288063,6.36292237 13.4263867,6.2392114 C13.1707526,6.16087027 12.9802461,5.90605733 12.9777761,5.63885429 L12.9777761,4.47774447 C12.9777761,4.34992317 12.8944866,4.26663359 12.7666653,4.26663359 L12.7666653,4.26663359 Z M11.5,8.06666104 C13.940864,8.06666104 15.9333284,10.0590199 15.9333284,12.4999894 C15.9333284,14.940959 13.9409695,16.9333179 11.5,16.9333179 C9.05903049,16.9333179 7.06667159,14.940959 7.06667159,12.4999894 C7.06667159,10.0590199 9.05903049,8.06666104 11.5,8.06666104 Z M11.5,9.3333263 C9.74349417,9.3333263 8.33333685,10.7434836 8.33333685,12.4999894 C8.33333685,14.2564953 9.74349417,15.6666526 11.5,15.6666526 C13.2565058,15.6666526 14.6666631,14.2564953 14.6666631,12.4999894 C14.6666631,10.7434836 13.2565058,9.3333263 11.5,9.3333263 Z" id="settings" fill="#000000"></path>
    </g>
</svg>