<svg xmlns="http://www.w3.org/2000/svg" width="24" height="24" viewBox="0 0 24 24">
    <g fill="none" fill-rule="evenodd">
        <g fill="#A2A2A2" fill-rule="nonzero">
            <g>
                <g>
                    <path d="M18.477 5.976c.286.282.314.727.083 1.04l-.077.09-4.857 4.904 4.857 4.904c.31.314.308.82-.006 1.131-.285.283-.73.306-1.042.072l-.089-.077-4.846-4.893-4.846 4.893c-.31.313-.817.316-1.131.005-.286-.283-.314-.727-.083-1.041l.077-.09 4.856-4.904-4.856-4.903c-.31-.314-.308-.82.006-1.131.285-.283.73-.307 1.042-.073l.089.078 4.846 4.891 4.846-4.891c.31-.314.817-.316 1.131-.005z" transform="translate(-1093 -184) translate(404 167) translate(689 17)"/>
                </g>
            </g>
        </g>
    </g>
</svg>
