<?xml version="1.0" encoding="UTF-8"?>
<svg width="24px" height="24px" viewBox="0 0 24 24" version="1.1" xmlns="http://www.w3.org/2000/svg" xmlns:xlink="http://www.w3.org/1999/xlink">
    <!-- Generator: Sketch 57.1 (83088) - https://sketch.com -->
    <title>general-graphs</title>
    <desc>Created with Sketch.</desc>
    <g id="general-graphs" stroke="none" stroke-width="1" fill="none" fill-rule="evenodd">
        <path d="M2.50982897,10.862069 L7.07840633,10.862069 C7.33112957,10.862069 7.54191244,11.0679493 7.58154178,11.3345441 L7.58823529,11.4254586 L7.58823529,21.4366104 C7.58823529,21.7158837 7.40273301,21.9488106 7.16091929,21.9926033 L7.07840633,22 L2.50982897,22 C2.25710573,22 2.04632286,21.7950096 2.00669351,21.5277918 L2,21.4366104 L2,11.4254586 C2,11.1461852 2.18550229,10.9132583 2.427316,10.8694657 L2.50982897,10.862069 L7.07840633,10.862069 Z M20.490171,3 C20.7699805,3 21,3.24999775 21,3.56888782 L21,3.56888782 L21,21.4311122 C21,21.7444442 20.7709848,22 20.490171,22 L20.490171,22 L15.9215937,22 C15.6407901,22 15.4117647,21.7444556 15.4117647,21.4311122 L15.4117647,21.4311122 L15.4117647,3.56888782 C15.4117647,3.25555579 15.6407799,3 15.9215937,3 L15.9215937,3 Z M9.21571132,7.5862069 L13.7842887,7.5862069 C14.0361172,7.5862069 14.2476158,7.79277631 14.2873973,8.06205232 L14.2941176,8.15393611 L14.2941176,21.4322708 C14.2941176,21.7136953 14.1086154,21.9484164 13.8668016,21.9925463 L13.7842887,22 L9.21571132,22 C8.96298808,22 8.75220521,21.7934306 8.71257587,21.5241546 L8.70588235,21.4322708 L8.70588235,8.15393611 C8.70588235,7.8725116 8.89138464,7.63779055 9.13319836,7.59366058 L9.21571132,7.5862069 L13.7842887,7.5862069 Z M6.56857736,11.9888482 L3.01965793,11.9888482 L3.01965793,20.8732208 L6.56857736,20.8732208 L6.56857736,11.9888482 Z M13.2744597,8.72166532 L9.72554028,8.72166532 L9.72554028,20.8645416 L13.2744597,20.8645416 L13.2744597,8.72166532 Z M19.9803421,4.13777565 L16.4314226,4.13777565 L16.4314226,20.8622244 L19.9803421,20.8622244 L19.9803421,4.13777565 Z" id="Combined-Shape" fill="#000000" fill-rule="nonzero"></path>
    </g>
</svg>