<?xml version="1.0" encoding="UTF-8"?>
<svg width="24px" height="24px" viewBox="0 0 24 24" version="1.1" xmlns="http://www.w3.org/2000/svg" xmlns:xlink="http://www.w3.org/1999/xlink">
    <!-- Generator: Sketch 57.1 (83088) - https://sketch.com -->
    <title>general-info</title>
    <desc>Created with Sketch.</desc>
    <g id="general-info" stroke="none" stroke-width="1" fill="none" fill-rule="evenodd">
        <path d="M11.5,3 C16.7381361,3 21,7.2618639 21,12.5 C20.999164,17.7381361 16.7381361,22 11.5,22 C6.2618639,22 2,17.7381361 2,12.5 C2,7.2618639 6.2618639,3 11.5,3 Z M11.5,4.25404264 C6.95325941,4.25404264 3.25404264,7.95325941 3.25404264,12.5 C3.25404264,17.0467406 6.95325941,20.7459574 11.5,20.7459574 C16.0467406,20.7459574 19.745141,17.0467406 19.7459574,12.5 C19.7459574,7.95325941 16.0467406,4.25404264 11.5,4.25404264 Z M11.5,10.4492432 C11.9514972,10.4492432 12.3180747,10.8166568 12.3180747,11.2681539 L12.3180747,11.2681539 L12.3180747,17.4664687 C12.3180747,17.9179658 11.950682,18.2845434 11.5,18.2845434 C11.049318,18.2845434 10.6819253,17.9171298 10.6819253,17.4664687 L10.6819253,17.4664687 L10.6819253,11.2673179 C10.6819253,10.8166359 11.0485028,10.4492432 11.5,10.4492432 Z M11.5,6.91890414 C12.0347865,6.91890414 12.4699393,7.35405694 12.4699393,7.88800739 C12.4699393,8.42277297 12.0347865,8.85792577 11.5000209,8.85792577 C11.2412074,8.85792577 10.9970892,8.75749785 10.8133908,8.57461664 C10.6305033,8.39092029 10.5300816,8.14763602 10.5300816,7.88882252 C10.5300816,7.35405694 10.9652344,6.91890414 11.5,6.91890414 Z" id="Combined-Shape" fill="#000000"></path>
    </g>
</svg>