<?xml version="1.0" encoding="UTF-8"?>
<svg width="24px" height="24px" viewBox="0 0 24 24" version="1.1" xmlns="http://www.w3.org/2000/svg" xmlns:xlink="http://www.w3.org/1999/xlink">
    <!-- Generator: Sketch 57.1 (83088) - https://sketch.com -->
    <title>general-pest</title>
    <desc>Created with Sketch.</desc>
    <g id="general-pest" stroke="none" stroke-width="1" fill="none" fill-rule="evenodd">
        <path d="M16.5472139,8.46957102 C16.4518832,8.36663781 16.3240007,8.29929827 16.1854889,8.27492787 C16.0496344,7.28920585 15.586932,6.40256916 14.9059987,5.71923358 L16.1213815,3.95910741 C16.3170252,3.67564019 16.2376384,3.29276701 15.9440067,3.10389577 C15.650375,2.91470381 15.2537729,2.99134259 15.0581292,3.27480981 L13.9008749,4.95060134 C13.1963582,4.54784701 12.3759167,4.31600672 11.5,4.31600672 C10.6240914,4.31600672 9.80331781,4.54784701 9.09913322,4.95060134 L7.94187892,3.27480981 C7.7462352,2.99134259 7.34930094,2.91470381 7.0560014,3.10357513 C6.76236971,3.29276701 6.68298293,3.67564019 6.87862664,3.95910741 L8.09434155,5.71923358 C7.41307615,6.40256916 6.95037375,7.28920585 6.81451921,8.27460714 C6.67600745,8.29897762 6.5481249,8.36663781 6.45279423,8.46925037 C6.10767732,8.84122093 5.81105619,9.24686121 5.56558805,9.67719271 L3.74002272,10.1177854 L3.24543271,8.68569878 C3.1338261,8.3624692 2.77176897,8.18802783 2.43728127,8.29577103 C2.10246143,8.40351422 1.92143286,8.75271759 2.03303948,9.07594718 L2.71463701,11.0499564 C2.818936,11.3517015 3.15574887,11.5306322 3.47562141,11.4533522 L4.97002063,11.0926048 C4.80991833,11.6537673 4.72654551,12.2370555 4.72654551,12.8290018 C4.72654551,13.1759605 4.74315368,13.5142613 4.77271612,13.8451869 L3.8762094,14.7103392 L2.92489588,14.2511479 C2.60934151,14.0988324 2.22536152,14.2222881 2.06758438,14.5272398 C1.90980715,14.8318709 2.03768971,15.2025587 2.35324417,15.3548743 L3.71677138,16.0128773 C3.95991436,16.1302405 4.26185009,16.0827822 4.45417222,15.8974382 L5.0201772,15.3510263 C5.24405471,16.2517722 5.59415407,17.0672214 6.06416409,17.7797376 L4.32961125,18.8959698 C4.15190427,19.0101263 4.04494798,19.2028455 4.04494798,19.4090327 L4.04494798,21.383042 C4.04494798,21.7239081 4.3309399,22 4.68402871,22 C5.03678528,22 5.32310944,21.7239081 5.32310944,21.383042 L5.32310944,19.7393169 L6.84839983,18.7574429 C8.0558107,20.000979 9.69735794,20.6839938 11.5,20.6839938 C13.3026503,20.6839938 14.9438653,20.000979 16.1516083,18.7574429 L17.6768987,19.7393169 L17.6768987,21.383042 C17.6768987,21.7239081 17.9632229,22 18.3159794,22 C18.668736,22 18.9550602,21.7239081 18.9550602,21.383042 L18.9550602,19.4090327 C18.9550602,19.2028455 18.8481039,19.0101263 18.6703969,18.8959698 L16.935844,17.7794169 C17.4058541,17.0672214 17.7559535,16.2517722 17.9798309,15.3507057 L18.5458359,15.8974382 C18.7381581,16.0827822 19.0400938,16.1302405 19.2832368,16.0128773 L20.6464318,15.3548743 C20.9623184,15.2022381 21.090201,14.8318709 20.9324238,14.5269192 C20.7743144,14.2222881 20.3906667,14.0988324 20.0751123,14.2511479 L19.1237988,14.7103392 L18.227292,13.8448662 C18.2565223,13.5142613 18.2734626,13.1759605 18.2734626,12.8290018 C18.2734626,12.2370555 18.1897577,11.6537673 18.0299875,11.0929254 L19.5243868,11.4533522 C19.8442593,11.5306322 20.1814043,11.3517015 20.2853711,11.0499564 L20.9669687,9.07594718 C21.0785753,8.75271759 20.8975467,8.40351422 20.5627269,8.29577103 C20.2282392,8.18834847 19.866182,8.3624692 19.7545754,8.68601942 L19.2599855,10.1177854 L17.4344201,9.67719271 C17.188952,9.24686121 16.8923309,8.84154157 16.5472139,8.46957102 Z M14.8903872,8.26402524 L8.10962098,8.26402524 C8.41022815,6.72098877 9.8156078,5.54992284 11.500004,5.54992284 C13.1840681,5.54992284 14.58978,6.72098877 14.8903872,8.26402524 Z M6.00470697,12.8290018 C6.00470697,12.0645382 6.17510634,11.3177111 6.4969719,10.6343756 C6.59529202,10.5401003 6.66006365,10.4166445 6.67966126,10.2832481 C6.83577761,10.0077975 7.0171384,9.74485289 7.22407569,9.49794136 L10.8609234,9.49794136 L10.8609234,19.415446 C7.92992107,19.091575 6.00470697,16.5269022 6.00470697,12.8290018 Z M12.1390848,19.415446 L12.1390848,9.49794136 L15.7759324,9.49794136 C15.9825376,9.74485289 16.1638983,10.0077975 16.3203469,10.2832481 C16.3399445,10.4166445 16.4047161,10.5401003 16.5030362,10.6343756 C16.8249018,11.3177111 16.9953012,12.0645382 16.9953012,12.8290018 C16.9953012,16.5269022 15.0700871,19.091575 12.1390848,19.415446 Z" id="pest-" fill="#000000"></path>
    </g>
</svg>