<?xml version="1.0" encoding="UTF-8"?>
<svg width="24px" height="24px" viewBox="0 0 24 24" version="1.1" xmlns="http://www.w3.org/2000/svg" xmlns:xlink="http://www.w3.org/1999/xlink">
    <!-- Generator: Sketch 57.1 (83088) - https://sketch.com -->
    <title>general-increase</title>
    <desc>Created with Sketch.</desc>
    <g id="general-increase" stroke="none" stroke-width="1" fill="none" fill-rule="evenodd">
        <path d="M20.3963685,15.6666667 C20.5568129,15.6666667 20.7101022,15.7309831 20.8236779,15.843738 C20.9364607,15.956495 21,16.1105453 21,16.2701492 L21,16.2701492 L21,21.3949299 C21,21.7284441 20.7307357,21.999206 20.3963665,22 L20.3963665,22 L15.2686939,22 C14.9359106,21.9991869 14.6666667,21.7292166 14.6666667,21.3965154 C14.6666667,21.0638143 14.9359106,20.793844 15.2686939,20.793844 L15.2686939,20.793844 L18.9419772,20.793844 L14.8445564,16.6966214 C14.6102655,16.460781 14.6110585,16.0804321 14.8453508,15.8454049 C15.080436,15.6103752 15.4616718,15.6095824 15.6975704,15.8438169 L15.6975704,15.8438169 L19.793568,19.9388035 L19.793568,16.270289 C19.793568,16.110677 19.8571073,15.9566328 19.9698901,15.8438778 C20.0834678,15.7311249 20.2367633,15.6668065 20.3964065,15.6668065 Z M7.72908036,3 C8.06173453,3.00081329 8.33087405,3.27084742 8.33087405,3.60362722 C8.33087405,3.93640702 8.06173453,4.20644114 7.72908036,4.20644114 L7.72908036,4.20644114 L4.06108392,4.20644114 L8.15549231,8.30239583 C8.26902399,8.41517946 8.33333333,8.56926624 8.33333333,8.72970079 C8.33333333,8.88935051 8.26981868,9.0434312 8.15707967,9.15700575 C8.04354596,9.27058234 7.88951735,9.33412016 7.72914337,9.33333333 C7.56955392,9.33333333 7.4155314,9.26899234 7.30279239,9.15541779 L7.30279239,9.15541779 L3.20614828,5.05803983 L3.20614828,8.72904812 C3.20614828,8.88949081 3.14263363,9.04277853 3.02989462,9.15556012 C2.91636091,9.26913467 2.76312496,9.33267331 2.60354364,9.33267331 C2.44301519,9.33244823 2.28978534,9.26890959 2.17625366,9.15533504 C2.06351465,9.04255142 2,8.88925759 2,8.72882304 L2,8.72882304 L2,3.60362518 C2,3.4431825 2.06351465,3.28989478 2.17625366,3.17632023 C2.28978737,3.06353864 2.44302332,3 2.6033973,3 L2.6033973,3 Z" id="Combined-Shape" fill="#000000"></path>
    </g>
</svg>