<svg xmlns="http://www.w3.org/2000/svg" width="24" height="25" viewBox="0 0 24 25">
    <path fill="#4A4A4A" fill-rule="evenodd" stroke="#4A4A4A" stroke-width=".4" d="M19.701 12.19c.035 0 .07-.008.105-.02l.018-.007c.005-.002.01-.002.014-.005.013-.006.021-.018.033-.026.017-.011.035-.022.049-.037.013-.014.022-.03.031-.045.01-.016.021-.03.028-.048.008-.02.009-.04.013-.06.002-.013.008-.025.008-.04l-.002-.01c-.001-.019-.007-.037-.012-.055-.005-.019-.008-.04-.017-.056-.001-.003-.001-.007-.003-.01L17.4 6.946c-.002-.005-.007-.007-.01-.012-.01-.016-.024-.03-.037-.044-.014-.015-.026-.03-.042-.04l-.011-.012-5.132-3.29c-.1-.064-.231-.064-.332 0L6.7 6.839l-.012.012c-.015.012-.027.026-.04.04-.014.015-.028.028-.038.045-.003.005-.008.007-.01.012l-2.566 4.825c-.002.003-.002.006-.003.01-.01.017-.012.036-.017.055-.004.02-.011.036-.012.055l-.002.01c0 .015.006.028.009.041.003.02.005.04.012.06.007.017.018.032.028.048.01.016.018.031.032.045.015.015.032.026.05.038.012.008.02.019.033.025l.013.005.018.007c.035.012.07.02.105.02h.984v8.58H4.3c-.165 0-.3.128-.3.287 0 .16.135.288.3.288h15.4c.166 0 .3-.129.3-.288 0-.159-.134-.288-.3-.288h-.983v-8.58h.984zm-7.7-8.056l4.902 3.142 2.309 4.339H4.79l2.308-4.34L12 4.135zm3.27 16.637H8.742V14.53h6.53v6.24zm2.848 0h-2.225v-6.62c0-.038-.008-.075-.023-.11-.031-.071-.089-.127-.162-.156-.037-.015-.076-.022-.115-.022H8.407c-.039 0-.077.007-.114.022-.074.03-.132.085-.162.155-.016.036-.023.073-.023.11v6.62H5.884v-8.58h12.234v8.58h0z"/>
</svg>
