<svg xmlns="http://www.w3.org/2000/svg" width="1000" height="1000"><path d="M999.997 499.999c0-104.25-31.5-203.374-91.166-287.915a56.375 56.375 0 0 0-7.75-70.458L858.331 99a56.541 56.541 0 0 0-70.458-7.792A495.248 495.248 0 0 0 500 .001c-104.25 0-203.374 31.5-287.874 91.167a56.5 56.5 0 0 0-30.291-8.834c-15.209 0-29.5 5.917-40.167 16.625L98.96 141.667a56.5 56.5 0 0 0-7.791 70.458A495.29 495.29 0 0 0 .002 500c0 104.291 31.5 203.374 91.167 287.915a56.458 56.458 0 0 0 7.791 70.416l42.708 42.709a56.416 56.416 0 0 0 70.458 7.791A495.248 495.248 0 0 0 500 999.996c104.25 0 203.374-31.5 287.873-91.166a56.416 56.416 0 0 0 70.458-7.75l42.709-42.75a56.375 56.375 0 0 0 7.791-70.416A495.248 495.248 0 0 0 999.997 500zm-123.04 253.915L735.831 612.79a261.957 261.957 0 0 0 0-225.582l141.124-141.125A450.123 450.123 0 0 1 954.581 500a449.998 449.998 0 0 1-77.583 253.915zM610.29 652.998c-10.708 10.708-16.583 25-16.583 40.167 0 .458.125.875.125 1.333a216.166 216.166 0 0 1-187.666 0c0-.417.125-.833.125-1.333 0-15.209-5.875-29.459-16.583-40.167L347 610.29a56.416 56.416 0 0 0-40.167-16.583h-1.333a216.374 216.374 0 0 1 0-187.666h1.333c15.208 0 29.458-5.875 40.167-16.583l42.708-42.708c10.708-10.709 16.583-25 16.583-40.167 0-.458-.125-.875-.125-1.333a216.04 216.04 0 0 1 187.666 0c0 .416-.125.875-.125 1.333 0 15.208 5.875 29.458 16.583 40.167l42.708 42.708c10.708 10.708 25 16.583 40.167 16.583h1.333a216.54 216.54 0 0 1 0 187.666h-1.333c-15.209 0-29.459 5.875-40.167 16.583zm207.916-525.206c1.75 0 5.166.417 8 3.292l42.708 42.708c2.875 2.875 3.291 6.25 3.291 8.042 0 1.75-.416 5.166-3.291 8L701.249 357.54a11.333 11.333 0 0 1-8.042 3.334 11.333 11.333 0 0 1-8-3.334L642.5 314.833a11.333 11.333 0 0 1-3.333-8c0-1.792.458-5.166 3.333-8.041l167.708-167.708a11.333 11.333 0 0 1 8-3.292zm-64.292-4.75L612.791 264.167a262.04 262.04 0 0 0-225.54 0L246.083 123.042A450.123 450.123 0 0 1 500 45.418c91.624 0 178.832 26.791 253.915 77.583zm-622.83 50.708l42.666-42.666a11.333 11.333 0 0 1 8.042-3.292c1.75 0 5.167.417 8 3.292l167.75 167.666a11.333 11.333 0 0 1 0 16.083L314.833 357.5a11.333 11.333 0 0 1-8 3.333 11.333 11.333 0 0 1-8.042-3.333L131.085 189.834a11.333 11.333 0 0 1-3.292-8c0-1.792.417-5.167 3.292-8.042zm-8.042 72.292l141.125 141.166a261.79 261.79 0 0 0 0 225.54L123.002 753.914A450.081 450.081 0 0 1 45.419 500c0-91.625 26.791-178.833 77.583-253.916zm58.75 626.122a11.333 11.333 0 0 1-8-3.292l-42.708-42.625a11.333 11.333 0 0 1-3.292-8.041c0-1.75.417-5.167 3.292-8l167.708-167.708a11.375 11.375 0 0 1 8.041-3.333c1.75 0 5.167.458 8 3.333l42.708 42.708a11.333 11.333 0 0 1 0 16.084L189.835 868.955a11.333 11.333 0 0 1-8 3.292zm64.291 4.75L387.25 735.789a261.749 261.749 0 0 0 225.5 0l141.165 141.125A449.998 449.998 0 0 1 500 954.58c-91.625 0-178.833-26.792-253.916-77.583zm622.83-50.75l-42.707 42.708a11.333 11.333 0 0 1-8.042 3.292 11.333 11.333 0 0 1-8-3.292L642.458 701.165a11.333 11.333 0 0 1-3.334-8.042c0-1.75.459-5.167 3.334-8l42.708-42.708a11.333 11.333 0 0 1 8-3.333c1.791 0 5.208.458 8.041 3.333l167.708 167.707a11.333 11.333 0 0 1 0 16.084z" fill="#9b9b9b"/></svg>