<?xml version="1.0" encoding="UTF-8"?>
<svg width="24px" height="24px" viewBox="0 0 24 24" version="1.1" xmlns="http://www.w3.org/2000/svg" xmlns:xlink="http://www.w3.org/1999/xlink">
    <!-- Generator: Sketch 56.3 (81716) - https://sketch.com -->
    <title>Menu/home</title>
    <desc>Created with Sketch.</desc>
    <g id="Menu/home" stroke="none" stroke-width="1" fill="none" fill-rule="evenodd">
        <path d="M12.4871908,3.00011451 C12.3879253,3.0026436 12.2942267,3.04817112 12.2051663,3.13163565 L3.18038459,12.8439656 C2.97257711,13.0715967 2.94289033,13.4901917 3.09874594,13.7646298 C3.25181811,14.0339947 3.57743936,14.0782571 3.7741321,13.8657999 L12.502046,4.47721422 L21.22996,13.8657999 C21.4266361,14.0782571 21.742995,14.0327289 21.8979126,13.7646298 C22.0519133,13.4977932 22.0352151,13.056439 21.8236956,12.8439656 L12.7989138,3.13163565 C12.6931553,3.03678827 12.5864681,2.99758607 12.4872026,3.00011451 L12.4871908,3.00011451 Z M5.90517241,12.5135813 L4.85,13.6282015 L4.85,21.471949 C4.85,21.7638292 5.08597084,22 5.37758621,22 L10.1258621,22 C10.4174853,22 10.6534483,21.7638213 10.6534483,21.471949 L10.6534483,16.7194901 L14.3465517,16.7194901 L14.3465517,21.471949 C14.3465517,21.7638292 14.5825226,22 14.8741379,22 L19.6224138,22 C19.9140371,22 20.15,21.7638213 20.15,21.471949 L20.15,13.6282015 L19.0948276,12.5135813 L19.0948276,20.9438452 L15.4017241,20.9438452 L15.4017241,16.1913864 C15.4017241,15.8995062 15.1657533,15.6633354 14.8741379,15.6633354 L10.1258621,15.6633354 C9.83423879,15.6633354 9.59827586,15.8995141 9.59827586,16.1913864 L9.59827586,20.9438452 L5.90517241,20.9438452 L5.90517241,12.5135813 Z" id="home" fill="#000000"></path>
    </g>
</svg>