<svg xmlns="http://www.w3.org/2000/svg" width="40" height="39" viewBox="0 0 40 39">
    <path fill="#4A4A4A" d="M35.9 30.063l.075.055c.18.163.22.434.082.64-.314.48-.67.938-1.057 1.36-.1.108-.24.168-.385.168-.126 0-.248-.044-.344-.128-.211-.187-.23-.503-.04-.712.352-.384.673-.797.956-1.23.153-.234.474-.303.714-.153zm-1.492-1.34l.077.053c.185.157.236.424.107.636-.294.493-.644.962-1.04 1.395-.1.109-.24.169-.386.169-.125 0-.247-.045-.343-.129-.212-.186-.23-.503-.04-.711.347-.38.657-.795.919-1.232.143-.24.458-.32.706-.181zm-1.52-1.353l.079.048c.195.143.263.408.147.629-.271.525-.611 1.013-1.012 1.45-.1.11-.24.17-.386.17-.126 0-.248-.045-.344-.129-.211-.187-.23-.503-.04-.712.34-.37.629-.784.861-1.232.13-.25.44-.35.695-.224zm4.052-.236l.093.014c.276.071.442.349.367.615-.115.426-.257.843-.422 1.244-.079.193-.27.317-.48.317-.064 0-.13-.012-.192-.036-.264-.104-.392-.397-.287-.655.152-.367.28-.746.382-1.126.054-.198.224-.341.438-.37l.101-.003zm-1.92-.47l.112.016c.277.073.44.349.365.618-.081.296-.18.59-.292.873-.077.196-.271.323-.483.323-.064 0-.128-.011-.186-.034-.264-.1-.397-.393-.296-.653.098-.246.185-.506.259-.77.055-.198.225-.342.439-.37l.082-.003zM7.186 8.384l.169.039 4.542 1.215.037-.136c.036-.13.123-.24.242-.307.09-.05.192-.072.304-.064l.091.015 10.723 2.868c.237.063.394.278.378.524l-.015.09-1.892 6.989 7.203-3.07.225-.827c.098-.362.335-.666.668-.854.28-.157.601-.215.922-.167l.15.032.84.224c.672.18 1.097.835.986 1.512l-.028.128-.921 3.399c-.093.348-.321.64-.641.822-.206.115-.438.176-.672.176-.078 0-.157-.007-.241-.023l-.114-.025-1.709-.457c-.068-.018-.129-.05-.189-.101l-8.114 5.272-.547 2.023c-.036.13-.123.24-.244.307-.08.043-.168.066-.263.066l-.069-.005-.061-.013-8.87-2.372c-1.234-.332-2-1.558-1.754-2.798l.037-.157.064-.235c-.548-.275-.97-.735-1.191-1.309l-.062-.18-2.822-9.463c-.164-.537-.152-1.1.037-1.585.44-1.133 1.618-1.784 2.801-1.553zm4.936 4.376L9.358 22.967c-.177.658.144 1.342.737 1.63l.122.053.134.042 8.366 2.239.451-1.655.004-.026 2.678-9.888-9.728-2.602zm21.194 11.55l.093.004c.243.035.433.236.44.484l.003.212c0 .374-.032.753-.095 1.125-.037.214-.207.376-.417.413l-.092.008-.087-.008c-.282-.047-.472-.307-.423-.579.036-.208.06-.42.072-.635l.01-.323-.004-.183.006-.09c.036-.237.241-.422.494-.429zm2.446-.192l.026.302c.014.2.02.399.02.593 0 .307-.017.62-.05.936-.025.227-.204.406-.428.443l-.085.007-.057-.004c-.283-.03-.488-.278-.458-.554.03-.28.045-.558.045-.83 0-.26-.014-.528-.042-.792-.03-.277.178-.524.463-.552.288-.027.538.174.566.45zm1.85-.902l.068.449c.058.449.086.9.085 1.348 0 .275-.01.549-.031.815-.02.264-.245.466-.515.466h-.024l-.108-.016c-.237-.06-.404-.278-.384-.525.019-.245.029-.495.029-.74 0-.552-.046-1.1-.139-1.629-.048-.274.142-.534.424-.58.282-.048.547.137.595.412zm-8.969-5.466l-7.203 3.07-.92 3.401 7.732-5.023.391-1.448zm4.042 3.494l.192.296c.245.402.447.83.604 1.275.093.264-.052.55-.325.64-.058.019-.114.028-.164.026-.218 0-.417-.137-.488-.343-.165-.472-.392-.92-.677-1.334-.158-.23-.095-.543.141-.698.236-.155.557-.093.717.138zm2.536.645l.107.292c.068.195.128.39.18.582.072.27-.092.545-.37.617-.043.01-.087.015-.13.015-.232 0-.439-.153-.498-.375-.071-.263-.157-.523-.254-.773-.101-.26.033-.551.299-.65.267-.098.565.032.666.292zm1.342-1.776l.195.392c.125.264.24.535.342.809.097.26-.041.55-.308.645-.057.02-.118.031-.178.031-.215 0-.41-.13-.485-.33-.138-.367-.302-.734-.487-1.09-.13-.247-.028-.552.227-.678.253-.124.565-.026.694.22zM6.698 9.344c-.593 0-1.12.367-1.347.95-.073.191-.1.408-.076.63l.026.166.038.147 2.824 9.467c.076.257.219.483.413.659l.123.1.322-1.137-2.808-9.395c-.052-.175-.004-.364.127-.494.084-.083.192-.134.313-.146l.093-.002.099.016 4.543 1.215.245-.906L7.08 9.395c-.126-.034-.254-.05-.382-.05zm26.887 9.898l.23.265c.3.36.569.741.802 1.136.143.242.058.551-.19.689-.079.044-.167.067-.257.067-.182 0-.353-.094-.448-.252-.258-.439-.565-.855-.91-1.238-.19-.208-.17-.525.044-.71.214-.185.539-.166.729.043zm-3.142-3.532l-.067.03-.068.048c-.027.024-.05.05-.07.08l-.024.044-.024.067-.994 3.669 1.215.325c.081.02.167.01.241-.032.04-.022.073-.05.099-.082l.032-.049.027-.071.92-3.399c.036-.136-.015-.277-.115-.355l-.054-.034-.063-.024-.84-.224c-.071-.018-.145-.016-.215.007zm3.852 1.486l.317.298c.31.304.6.625.866.959.176.219.135.536-.091.707-.093.07-.203.106-.317.106-.158 0-.31-.07-.407-.195-.32-.402-.68-.784-1.07-1.135-.21-.19-.222-.508-.028-.713.193-.204.52-.216.73-.027zM7.463 11.513l2.06 6.896 1.6-5.917-3.66-.979zm5.336-1.26l-.414 1.533 9.727 2.603.415-1.535-9.728-2.601z"/>
</svg>
