<svg xmlns="http://www.w3.org/2000/svg" width="23" height="22" viewBox="0 0 23 22">
    <path fill="#A2A2A2" d="M11.064 15c.963 0 1.743.746 1.743 1.666 0 .92-.78 1.667-1.743 1.667-.963 0-1.742-.746-1.742-1.667 0-.92.78-1.666 1.742-1.666zm.35-4c1.83-.004 3.564.81 4.723 2.218.24.29.196.72-.095.958-.122.1-.276.156-.435.157-.207 0-.401-.091-.532-.25-.9-1.089-2.243-1.72-3.661-1.72-1.419 0-2.762.631-3.662 1.72-.24.292-.673.335-.967.096-.293-.24-.335-.67-.095-.961C7.85 11.81 9.583 10.996 11.414 11zm-.352-3.334l.327.006c2.613.084 5.081 1.158 6.827 2.98.117.121.176.28.165.44-.01.163-.09.314-.22.42-.27.223-.683.2-.922-.051-1.569-1.64-3.814-2.578-6.173-2.578-2.36 0-4.606.938-6.173 2.578-.24.253-.655.275-.926.052-.27-.224-.296-.609-.056-.86C5.73 8.753 8.33 7.668 11.063 7.666v-.001zm.008-4c3.77 0 7.37 1.538 9.923 4.24.18.187.228.461.122.696-.106.235-.345.387-.608.386-.186 0-.361-.076-.487-.21-2.302-2.436-5.549-3.823-8.95-3.823-3.401 0-6.647 1.387-8.95 3.824-.118.131-.284.21-.463.22-.179.01-.353-.051-.485-.17-.131-.117-.209-.282-.213-.457-.005-.173.062-.342.188-.466 2.553-2.702 6.152-4.24 9.923-4.24z"/>
</svg>
