<svg xmlns="http://www.w3.org/2000/svg" width="23" height="26" viewBox="0 0 23 26">
    <path fill="#A2A2A2" d="M11.523 4.333c-1.768 0-3.37.331-4.58.912-.606.29-1.119.64-1.503 1.077-.384.436-.648.995-.648 1.605v10.146c0 .61.264 1.163.648 1.599.385.436.897.786 1.502 1.076 1.211.58 2.813.919 4.581.919 1.769 0 3.37-.338 4.582-.919.605-.29 1.117-.64 1.501-1.076.385-.436.649-.989.649-1.599V7.927c0-.61-.264-1.17-.649-1.605-.384-.436-.896-.786-1.501-1.077-1.211-.58-2.813-.912-4.582-.912zm0 1.269c1.64 0 3.121.322 4.143.812.512.245.905.534 1.146.806.24.273.321.5.321.707 0 .206-.081.428-.321.7-.24.273-.634.56-1.146.806-1.022.49-2.503.819-4.143.819-1.64 0-3.12-.329-4.143-.82-.51-.244-.905-.532-1.145-.805-.24-.272-.321-.494-.321-.7 0-.207.08-.434.321-.707.24-.272.634-.56 1.145-.806 1.023-.49 2.504-.812 4.143-.812zm-5.61 4.373c.3.237.646.444 1.03.627 1.21.58 2.812.918 4.58.918 1.769 0 3.37-.337 4.582-.918.382-.183.729-.39 1.028-.627v1.334c0 .206-.081.428-.321.7-.24.273-.634.56-1.146.806-1.021.49-2.503.82-4.143.82-1.64 0-3.12-.33-4.143-.82-.51-.245-.905-.533-1.145-.806-.24-.272-.321-.494-.321-.7V9.975zm0 3.375c.3.24.644.45 1.03.634 1.21.58 2.812.919 4.58.919 1.769 0 3.37-.338 4.582-.919.385-.184.728-.394 1.028-.634v1.341c0 .207-.081.428-.321.7-.24.273-.634.561-1.146.806-1.021.49-2.503.82-4.143.82-1.64 0-3.12-.33-4.143-.82-.51-.245-.905-.533-1.145-.806-.24-.272-.321-.493-.321-.7v-1.34zm0 3.382c.3.24.644.45 1.03.634 1.21.581 2.812.919 4.58.919 1.769 0 3.37-.338 4.582-.919.385-.184.728-.394 1.028-.634v1.341c0 .207-.081.428-.321.7-.24.273-.634.561-1.146.806-1.021.49-2.503.82-4.143.82-1.64 0-3.12-.33-4.143-.82-.51-.245-.905-.533-1.145-.805-.24-.273-.321-.494-.321-.7v-1.342z"/>
</svg>
