<svg xmlns="http://www.w3.org/2000/svg" width="30" height="30" viewBox="0 0 30 30">
    <g fill="none" fill-rule="evenodd">
        <circle cx="15" cy="15" r="13" fill="#FF5D6E"/>
        <path fill="#FFF" fill-rule="nonzero" d="M15.11 7c2.861.146 5.444 1.696 6.838 4.103a7.748 7.748 0 0 1 .026 7.751c-1.378 2.417-3.95 3.982-6.81 4.146h-.053a8.495 8.495 0 0 1-4.614-1.33 8.01 8.01 0 0 1-3.056-3.58.638.638 0 0 1-.014-.521.679.679 0 0 1 .383-.369.753.753 0 0 1 .953.357 6.618 6.618 0 0 0 2.527 2.967 7.025 7.025 0 0 0 3.82 1.103h.053c2.36-.15 4.477-1.45 5.608-3.447a6.418 6.418 0 0 0-.025-6.401c-1.149-1.989-3.275-3.274-5.636-3.406h-.08a7.046 7.046 0 0 0-4.202 1.43 6.596 6.596 0 0 0-2.41 3.607l1.138-.84a.736.736 0 0 1 1.005.128.672.672 0 0 1-.132.967l-2.512 1.83a.926.926 0 0 1-.45.128h-.106a.663.663 0 0 1-.477-.305l-1.771-2.493a.696.696 0 0 1 .211-.967.71.71 0 0 1 .536-.101.69.69 0 0 1 .443.305l.714 1.017a7.99 7.99 0 0 1 2.925-4.358A8.537 8.537 0 0 1 15.031 7zm.258 2.824c.167 0 .328.071.447.198A.701.701 0 0 1 16 10.5v4.534c.007.322-.198.605-.491.676l-2.717.702h-.163a.668.668 0 0 1-.61-.527.716.716 0 0 1 .073-.518.632.632 0 0 1 .396-.308l2.248-.551V10.5c0-.373.283-.676.632-.676z"/>
    </g>
</svg>
