<svg xmlns="http://www.w3.org/2000/svg" width="24" height="24" viewBox="0 0 24 24">
    <g fill="none" fill-rule="evenodd">
        <g fill="#4A4A4A">
            <g>
                <g>
                    <path d="M11.932 3l.208.004c3.175.116 5.723 2.878 5.723 6.248 0 1.232-.445 2.78-1.072 3.866l-4.4 7.612-.046.068c-.1.127-.252.202-.413.202-.19 0-.364-.102-.46-.27l-4.4-7.612-.132-.24C6.383 11.814 6 10.397 6 9.253c0-3.37 2.548-6.132 5.723-6.248L11.932 3zm0 1.085c-2.694 0-4.87 2.303-4.87 5.167 0 .928.448 2.486.928 3.317l3.862 6.68h.159l3.862-6.68.102-.189c.439-.86.825-2.266.825-3.128 0-2.864-2.175-5.167-4.869-5.167zm0 1.664c1.776 0 3.23 1.48 3.23 3.291s-1.454 3.292-3.23 3.292c-1.777 0-3.232-1.48-3.232-3.292 0-1.81 1.455-3.291 3.231-3.291zm0 1.085c-1.206 0-2.17.98-2.17 2.206s.964 2.207 2.17 2.207c1.205 0 2.168-.98 2.168-2.207 0-1.225-.963-2.206-2.169-2.206z" transform="translate(-23 -901) translate(23 828) translate(0 73)"/>
                </g>
            </g>
        </g>
    </g>
</svg>
