<?xml version="1.0" encoding="UTF-8"?>
<svg width="17px" height="20px" viewBox="0 0 17 20" version="1.1" xmlns="http://www.w3.org/2000/svg" xmlns:xlink="http://www.w3.org/1999/xlink">
    <!-- Generator: Sketch 63.1 (92452) - https://sketch.com -->
    <title>icon/note</title>
    <desc>Created with Sketch.</desc>
    <g id="UI-Pointer" stroke="none" stroke-width="1" fill="none" fill-rule="evenodd">
        <g id="pointer-sign-in-window" transform="translate(-1029.000000, -620.000000)" fill="#4A4A4A" fill-rule="nonzero" stroke="#FFFFFF" stroke-width="0.1">
            <g id="icon/note" transform="translate(1030.000000, 621.000000)">
                <path d="M7.5,0 C4.7805,0 2.57142857,2.20907143 2.57142857,4.92857143 L2.57142857,7.28571429 L1.5,7.28571429 C0.680528571,7.28571429 0,7.96624286 0,8.78571429 L0,16.5 C0,17.3194714 0.680528571,18 1.5,18 L13.5,18 C14.3194714,18 15,17.3194714 15,16.5 L15,8.78571429 C15,7.96624286 14.3194714,7.28571429 13.5,7.28571429 L12.4285714,7.28571429 L12.4285714,4.92857143 C12.4285714,2.20907143 10.2195,0 7.5,0 Z M7.5,1.28571429 C9.52902857,1.28571429 11.1428571,2.89954286 11.1428571,4.92857143 L11.1428571,7.28571429 L3.85714286,7.28571429 L3.85714286,4.92857143 C3.85714286,2.89954286 5.47097143,1.28571429 7.5,1.28571429 Z M1.5,8.57142857 L13.5,8.57142857 C13.6297436,8.57142857 13.7142857,8.65597071 13.7142857,8.78571429 L13.7142857,16.5 C13.7142857,16.6297436 13.6297436,16.7142857 13.5,16.7142857 L1.5,16.7142857 C1.37025643,16.7142857 1.28571429,16.6297436 1.28571429,16.5 L1.28571429,8.78571429 C1.28571429,8.65597071 1.37025643,8.57142857 1.5,8.57142857 Z M7.5,9.85714286 C6.4428,9.85714286 5.57142857,10.7285143 5.57142857,11.7857143 C5.57142857,12.2243357 5.75055857,12.6051857 6,12.9308143 L6,13.9285714 C6,14.7480429 6.68052857,15.4285714 7.5,15.4285714 C8.31947143,15.4285714 9,14.7480429 9,13.9285714 L9,12.9308143 C9.24945,12.6052071 9.42857143,12.2243357 9.42857143,11.7857143 C9.42857143,10.7285143 8.5572,9.85714286 7.5,9.85714286 Z M7.5,11.1428571 C7.86244286,11.1428571 8.14285714,11.4232714 8.14285714,11.7857143 C8.14285714,11.9799107 8.06166214,12.1423071 7.92857143,12.2611714 C7.79129571,12.3833807 7.71345,12.5591571 7.71428571,12.7433143 L7.71428571,13.9285714 C7.71428571,14.058315 7.62974357,14.1428571 7.5,14.1428571 C7.37025643,14.1428571 7.28571429,14.058315 7.28571429,13.9285714 L7.28571429,12.7433143 C7.28655129,12.5591614 7.20870429,12.3833786 7.07142857,12.2611714 C6.93833786,12.1423093 6.85714286,11.9799214 6.85714286,11.7857143 C6.85714286,11.4232714 7.13755714,11.1428571 7.5,11.1428571 Z" id="Shape"></path>
            </g>
        </g>
    </g>
</svg>