<svg xmlns="http://www.w3.org/2000/svg" width="40" height="39" viewBox="0 0 40 39">
    <path fill="#4A4A4A" fill-rule="evenodd" d="M26.05 8.125c1.86 0 3.365 1.386 3.365 3.101l-.068 4.124h1.047c1.203 0 2.163.989 2.163 2.223l-.068.771h.349c.258 0 .448.21.495.507v2.235c0 .277-.185.467-.456.467l-.28-.067V23.6c0 .64-.418 1.201-.97 1.358v.16c-.041 1.933-1.603 3.54-3.446 3.5-1.88-.042-3.403-1.61-3.403-3.541l.069-.013-5.054-.052c-.63 2.676-2.955 4.562-5.651 4.562-3.206 0-5.809-2.69-5.809-5.974 0-1.573.598-3.037 1.628-4.073V9.15c0-.276.185-.466.457-.466h6.36c.957 0 1.868.452 2.46 1.224l4.213 5.442 3.772.067v-3.473c0-.776-.232-1.176-.684-1.405l-.162-.075-.357-.113c-.386-.122-.532-.242-.504-.527l.078-1.273c0-.231.218-.426.456-.426zM14.143 18.559c-2.677 0-4.897 2.284-4.897 5.042 0 2.771 2.195 5.042 4.896 5.042 2.335 0 4.361-1.736 4.82-4.134l.05-.403c.018-.183.027-.344.027-.505 0-.537-.072-1.01-.23-1.538-.651-2.092-2.53-3.504-4.666-3.504zm14.08 3.952c-1.404 0-2.53 1.135-2.53 2.567 0 1.448 1.102 2.607 2.491 2.607 1.352 0 2.492-1.162 2.53-2.567 0-1.448-1.102-2.607-2.491-2.607zm2.212-6.228h-7.137c-.649 0-1.17.49-1.242 1.138l-.009.152v3.193c0 .858-.64 1.57-1.455 1.656l-.165.008-.502-.067h-.088l.05.32c.045.326.065.633.065.957l-.002.096-.008.11-.027.24c-.007.034-.018.057-.036.071l-.032.013v.001l5.051.053c.36-1.521 1.716-2.606 3.286-2.606 1.436 0 2.716.92 3.115 2.219.04.105.074.213.104.323l-.02-.069.063-.046c.097-.084.161-.194.187-.321l.012-.124.106-2.054.001-.034h-.114c-.853 0-1.542-.708-1.542-1.584 0-.816.6-1.488 1.374-1.574l.168-.01.048.068v-.84c0-.67-.476-1.207-1.104-1.28l-.147-.009zm-19.599-.066l-.069 1.621v.93l.203-.134c.977-.623 2.068-.968 3.173-.968 2.345 0 4.429 1.424 5.26 3.571l.093.261h.892c.345 0 .636-.26.696-.6l.011-.131v-3.193c0-.41.094-.789.275-1.107l.119-.184-10.653-.066zm21.546 3.06h-.785c-.35 0-.63.289-.63.651 0 .323.222.586.516.64l.899.079v-1.37zM15.374 9.591l-.068 5.8 4.418.067h2.632L18.51 10.51c-.335-.44-.803-.736-1.304-.89l-.024-.009c-.064-.01-.128-.017-.193-.02v.067l-1.614-.067zm-4.499-.04l-.068 5.8 3.693.067V9.617l-3.625-.066zm15.579-.482l-.076.377c.948.234 1.663 1.159 1.75 2.241l.008.219-.068 3.406.436.067v-4.191c0-.98-.785-1.832-1.848-2.08l-.202-.04z"/>
</svg>
