<?xml version="1.0" encoding="UTF-8" standalone="no"?>
<svg
  
   xmlns:svg="http://www.w3.org/2000/svg"
   xmlns="http://www.w3.org/2000/svg"
   
   width="24px"
   height="24px"
   viewBox="0 0 24 24"
>
  
 
  <path
     
     style="color:#000000;fill:#000000;fill-opacity:1;fill-rule:nonzero;stroke:none;"
     d="m 12.507812,1.4824219 c -0.07516,4.181e-4 -0.149266,0.017775 -0.216796,0.050781 L 1.8164062,6.6171875 C 1.6443573,6.6999818 1.5344728,6.8735235 1.5332031,7.0644531 L 1.4316406,21.046875 c -0.00214,0.277655 0.2223367,0.503886 0.5,0.503906 H 22.017578 c 0.277663,-2e-5 0.502141,-0.226251 0.5,-0.503906 L 22.416016,7.1152344 c -0.0015,-0.181992 -0.101719,-0.3488101 -0.261719,-0.4355469 l -9.40625,-5.1347656 c -0.07355,-0.040694 -0.156176,-0.06219 -0.240235,-0.0625 z m -0.01367,1.0625 8.425781,4.5996093 -8.369141,5.2734378 -9.4765622,-5.2988284 z m -9.9667972,5.4140625 9.9160152,5.5449216 0.140625,0.02149 0.140625,-0.03516 8.697266,-5.4804684 0.0918,12.5410154 H 2.4355469 Z"
      />
</svg>
