<?xml version="1.0" encoding="UTF-8"?>
<svg width="24px" height="24px" viewBox="0 0 24 24" version="1.1" xmlns="http://www.w3.org/2000/svg" xmlns:xlink="http://www.w3.org/1999/xlink">
    <!-- Generator: Sketch 58 (84663) - https://sketch.com -->
    <title>map-search</title>
    <desc>Created with Sketch.</desc>
    <g id="map-search" stroke="none" stroke-width="1" fill="none" fill-rule="evenodd">
        <path d="M14.8821738,14.8940144 C16.4814255,12.9537856 16.963961,10.3242028 16.1588176,7.94282786 C15.3536741,5.56051178 13.3748503,3.7635984 10.9264086,3.19113667 C8.47796677,2.61853377 5.90811466,3.35197889 4.12954735,5.12953021 C2.3519918,6.90799681 1.61851808,9.47769823 2.19114663,11.9263662 C2.76375166,14.3747989 4.56053052,16.3535918 6.94285542,17.1587559 C9.32423917,17.9638963 11.9538553,17.4813626 13.8940677,15.8821168 L19.8699974,21.8589655 C20.1512412,22.0694399 20.5446248,22.0418662 20.7927866,21.79279 C21.041866,21.5446292 21.0694421,21.151247 20.8589623,20.8700043 L14.8821738,14.8940144 Z M3.42367015,10.2818505 C3.41728656,8.72672162 4.02940735,7.23319178 5.1259121,6.13015002 C6.22147568,5.02630828 7.71129344,4.40408261 9.26656926,4.3994545 C10.8217039,4.39579427 12.3152393,5.00976736 13.4173439,6.10716215 C14.5194486,7.20455693 15.1388296,8.6953574 15.1415866,10.2503922 C15.1434208,11.805521 14.5266956,13.2981097 13.4283791,14.398328 C12.3291215,15.4984992 10.8373508,16.1170543 9.28231025,16.1170543 C7.73270495,16.1170543 6.24658126,15.5030874 5.14824125,14.4093631 C4.04990123,13.3156389 3.43042617,11.8322265 3.42400271,10.2816623 L3.42367015,10.2818505 Z" id="search" fill="#000000"></path>
    </g>
</svg>