<?xml version="1.0" encoding="UTF-8"?>
<svg width="24px" height="24px" viewBox="0 0 24 24" version="1.1" xmlns="http://www.w3.org/2000/svg" xmlns:xlink="http://www.w3.org/1999/xlink">
    <!-- Generator: Sketch 59.1 (86144) - https://sketch.com -->
    <title>Map-pest</title>
    <desc>Created with Sketch.</desc>
    <g id="Map-pest" stroke="none" stroke-width="1" fill="none" fill-rule="evenodd">
        <path d="M8.06304568,3.08932893 C8.31599738,2.92643976 8.6589063,2.99269891 8.82692148,3.23613527 L8.82692148,3.23613527 L9.99587953,4.92887473 L10.1224825,4.95764402 C10.8378581,4.54848904 11.6528579,4.32930125 12.4999586,4.32930125 C13.3469459,4.32930125 14.161611,4.54842108 14.8774598,4.95765369 L14.8774598,4.95765369 L15.0040459,4.92887473 L16.1729895,3.23615616 C16.3410698,2.99262547 16.683657,2.92649701 16.9368797,3.0896528 C17.1881818,3.2512966 17.2556999,3.5768637 17.0890446,3.81832977 L17.0890446,3.81832977 L15.8613974,5.59621731 L15.872388,5.71847649 C16.5599962,6.40851062 17.0060153,7.28978239 17.1377143,8.24535309 L17.1377143,8.24535309 L17.2161471,8.32675948 C17.3371915,8.34805658 17.446888,8.4067538 17.5277502,8.49406466 C17.8693187,8.86221075 18.1651392,9.26526035 18.4109692,9.69622625 L18.4109692,9.69622625 L20.315814,10.187005 L20.4290275,10.1250552 L20.9286133,8.67882713 C21.0240318,8.4022068 21.3358243,8.25183523 21.6248855,8.34466879 C21.9124606,8.43720892 22.0668027,8.73503848 21.9718476,9.01004282 L21.9718476,9.01004282 L21.2833653,11.0039914 C21.1945991,11.2616195 20.9033777,11.4160511 20.6279342,11.3495049 L20.6279342,11.3495049 L19.1184039,10.9854288 L19.0036172,11.1050041 C19.1640015,11.6680021 19.2458799,12.2484338 19.2458799,12.8323258 C19.2458799,13.1671642 19.2301531,13.5046127 19.1996157,13.8500002 L19.1996157,13.8500002 L20.1341165,14.8017045 L20.2424784,14.8190853 L21.2034011,14.3552558 C21.4757471,14.2237966 21.8068813,14.3303252 21.9424875,14.5915992 C22.0767656,14.8511321 21.9678641,15.1664428 21.6970286,15.2973103 L21.6970286,15.2973103 L20.3200996,15.9619426 C20.1106685,16.0630334 19.8488964,16.0220053 19.6835526,15.8626607 L19.6835526,15.8626607 L19.1119103,15.3104827 L18.9521136,15.3563628 C18.7283262,16.2570672 18.3787754,17.0705024 17.9106189,17.7798892 L17.9106189,17.7798892 L17.93877,17.9134325 L19.6908435,19.0412636 C19.8431575,19.1391081 19.9343622,19.3034784 19.9343622,19.4788211 L19.9343622,19.4788211 L19.9343622,21.4727697 C19.9343622,21.7631908 19.6889735,22 19.3847857,22 C19.080598,22 18.8352093,21.7631908 18.8352093,21.4727697 L18.8352093,21.4727697 L18.8352093,19.8124415 L17.2504931,18.7399626 L17.1297154,18.7537939 C15.9260237,19.9931586 14.2921679,20.6707009 12.4999586,20.6707009 C10.7076343,20.6707009 9.07348744,19.9930728 7.87021929,18.7538034 L7.87021929,18.7538034 L7.74943232,18.7399626 L6.20873509,19.7317544 L6.16471616,21.4727697 C6.16471616,21.7631908 5.91932746,22 5.61513971,22 C5.31073969,22 5.06556326,21.7633107 5.06556326,21.4727697 L5.06556326,21.4727697 L5.06556326,19.4788211 C5.06556326,19.3034784 5.15676793,19.1391081 5.30900627,19.0413123 L5.30900627,19.0413123 L7.06114488,17.9137631 L7.08931746,17.7802296 C6.62115314,17.0705115 6.27159852,16.2570674 6.04780984,15.3566789 L6.04780984,15.3566789 L5.88803539,15.310787 L5.31631324,15.8627182 C5.15102901,16.0220053 4.88925694,16.0630334 4.67982588,15.9619426 L4.67982588,15.9619426 L3.30251751,15.2972891 C3.03207773,15.1667501 2.92316905,14.8511652 3.05747597,14.5918499 C3.19273925,14.3304129 3.52409456,14.2237561 3.79652435,14.3552558 L3.79652435,14.3552558 L4.75744703,14.8190853 L4.86579613,14.8017169 L5.7713584,13.9278257 L5.75568836,13.0355161 L5.75404556,12.8323258 C5.75404556,12.2475902 5.83582839,11.6671661 5.99629784,11.1047168 L5.99629784,11.1047168 L5.88150262,10.9851095 L4.37200859,11.3495007 C4.09661673,11.4160344 3.80563131,11.2616812 3.71654986,11.0039616 L3.71654986,11.0039616 L3.02807783,9.01004283 C2.9331227,8.73503846 3.0874648,8.43720892 3.37509286,8.34465178 C3.66394954,8.25160699 3.97585001,8.40203059 4.07130779,8.67849072 L4.07130779,8.67849072 L4.57089577,10.125049 L4.68411145,10.187005 L6.52811668,9.74196189 C6.83499841,9.26488833 7.13089013,8.86158142 7.47211676,8.49380384 C7.55319095,8.40653678 7.6630599,8.34767535 7.78377835,8.32643551 L7.78377835,8.32643551 L7.86221055,8.24503331 C7.99393182,7.28961214 8.44005523,6.40838428 9.12785639,5.71849307 L9.12785639,5.71849307 L9.13885653,5.59620722 L7.91086178,3.81830215 C7.74422532,3.57686339 7.81173495,3.2512527 8.06304568,3.08932893 Z M16.8190819,9.37165903 L13.1454987,9.37165903 L13.0495392,9.46761862 L13.0495392,19.4852992 L13.156038,19.5806782 L13.3704317,19.5528654 C16.2754337,19.1193835 18.146727,16.5067049 18.146727,12.8323258 C18.146727,12.0507753 17.973544,11.2820457 17.6403416,10.5746418 C17.5355104,10.4653083 17.4805309,10.3598681 17.4639359,10.2469098 C17.2899751,9.92743038 17.103062,9.65746812 16.892676,9.40603817 L16.892676,9.40603817 L16.8190819,9.37165903 Z M11.8544267,9.37165903 L8.18084351,9.37165903 L8.02135583,9.5415045 C7.82273733,9.76611672 7.67715013,9.98469411 7.54744662,10.2135421 C7.5193945,10.3598681 7.46441503,10.4653083 7.37998132,10.5462684 C7.02638144,11.2820458 6.85319846,12.0507754 6.85319846,12.8323258 C6.85319846,16.5963239 8.81688756,19.2461997 11.8438875,19.5806782 L11.8438875,19.5806782 L11.9503863,19.4852992 L11.9503863,9.46761862 L11.8544267,9.37165903 Z M12.4999627,5.38376188 C10.7732425,5.38376188 9.29743499,6.57935073 8.98114477,8.20288938 L8.98114477,8.20288938 L9.07533363,8.3171984 L15.9245918,8.3171984 L16.0187806,8.20288938 L15.9789132,8.02430795 C15.5928319,6.4925334 14.1625188,5.38376188 12.4999627,5.38376188 Z" id="Combined-Shape" fill="#000000"></path>
    </g>
</svg>