<?xml version="1.0" encoding="UTF-8"?>
<svg width="24px" height="24px" viewBox="0 0 24 24" version="1.1" xmlns="http://www.w3.org/2000/svg" xmlns:xlink="http://www.w3.org/1999/xlink">
    <!-- Generator: Sketch 57.1 (83088) - https://sketch.com -->
    <title>map-big cluster bg</title>
    <desc>Created with Sketch.</desc>
    <g id="map-big-cluster-bg" stroke="none" stroke-width="1" fill="none" fill-rule="evenodd">
        <path d="M9.34734644,19.2648686 C6.9651185,17.5399256 4,15.3993494 4,11.0231579 C4,8.15681077 5.53657925,5.50822294 8.03167919,4.07493268 C10.5267791,2.64164243 13.59975,2.64173579 16.094803,4.07493268 C18.5898561,5.50812958 20.1264822,8.15657737 20.1264822,11.0231579 C20.1264822,15.3993494 17.1613637,17.5400656 14.7791358,19.2648686 C14.5005915,19.4654452 14.2330483,19.6587258 13.9764826,19.8520018 C13.5394202,20.1920611 13.1435941,20.5813671 12.7963462,21.0117042 C12.5333769,21.3271635 12.2887271,21.6571867 12.0633349,22 C11.8379334,21.6581202 11.5932929,21.3298942 11.3303237,21.0153452 C10.9821375,20.5822773 10.5853966,20.1902406 10.1465046,19.8483608 C9.89343396,19.6587258 9.62586726,19.4654499 9.34734644,19.2648686 Z" id="Path" fill="#000000" fill-rule="nonzero"></path>
    </g>
</svg>