<?xml version="1.0" encoding="UTF-8"?>
<svg width="24px" height="24px" viewBox="0 0 24 24" version="1.1" xmlns="http://www.w3.org/2000/svg" xmlns:xlink="http://www.w3.org/1999/xlink">
    <!-- Generator: Sketch 57.1 (83088) - https://sketch.com -->
    <title>map-planned activity</title>
    <desc>Created with Sketch.</desc>
    <g id="map-planned-activity" stroke="none" stroke-width="1" fill="none" fill-rule="evenodd">
        <path d="M19.625,3 C20.9366763,3 22,4.06332372 22,5.375 C22,6.68667628 20.9366763,7.75 19.625,7.75 C19.4806596,7.75 19.3393265,7.73712378 19.2020869,7.71245734 L15.4283518,14.8386216 C15.3099475,15.062174 15.0416192,15.1492064 14.8191161,15.0520088 L14.7382079,15.0068307 L9.37286614,11.2921366 L6.53009301,17.5493246 C7.25781536,17.9551625 7.75,18.7326033 7.75,19.625 C7.75,20.9366763 6.68667628,22 5.375,22 C4.06332372,22 3,20.9366763 3,19.625 C3,18.3133237 4.06332372,17.25 5.375,17.25 C5.4562966,17.25 5.53663918,17.2540847 5.6158337,17.26206 L8.74325292,10.3813754 C8.85354043,10.1386813 9.13734517,10.039111 9.37053415,10.1445374 L9.4460817,10.1873569 L14.8391969,13.92128 L18.3157871,7.35687404 C17.6735578,6.9317675 17.25,6.20284737 17.25,5.375 C17.25,4.06332372 18.3133237,3 19.625,3 Z M5.375,18.2 C4.58799423,18.2 3.95,18.8379942 3.95,19.625 C3.95,20.4120058 4.58799423,21.05 5.375,21.05 C6.16200577,21.05 6.8,20.4120058 6.8,19.625 C6.8,18.8379942 6.16200577,18.2 5.375,18.2 Z M19.625,3.95 C18.8379942,3.95 18.2,4.58799423 18.2,5.375 C18.2,6.16200577 18.8379942,6.8 19.625,6.8 C20.4120058,6.8 21.05,6.16200577 21.05,5.375 C21.05,4.58799423 20.4120058,3.95 19.625,3.95 Z" id="Combined-Shape" fill="#000000" fill-rule="nonzero"></path>
    </g>
</svg>