<?xml version="1.0" encoding="UTF-8"?>
<svg width="24px" height="24px" viewBox="0 0 24 24" version="1.1" xmlns="http://www.w3.org/2000/svg" xmlns:xlink="http://www.w3.org/1999/xlink">
    <!-- Generator: Sketch 57.1 (83088) - https://sketch.com -->
    <title>map-user bg</title>
    <desc>Created with Sketch.</desc>
    <g id="map-user-bg" stroke="none" stroke-width="1" fill="none" fill-rule="evenodd">
        <path d="M19.1871241,6.43773613 C18.3083179,5.93247176 17.4295117,5.44774133 16.5497846,4.96220249 C15.6709783,4.47747206 14.7921721,3.99193321 13.912445,3.48666884 C13.347558,3.18351022 12.7826709,3.02166393 12.1548325,3.00193841 C11.4010917,2.98141255 10.7528277,3.12351715 10.1879406,3.44640937 C9.6860048,3.72903405 9.18323187,3.99193321 8.70172172,4.27536631 C7.44604506,4.96220249 6.14872178,5.69010655 4.87169861,6.41809145 C3.65771042,7.12546157 3.00944641,8.21650924 3.00944641,9.55073055 C2.98819199,10.8644179 3.00944641,12.1987201 3.00944641,13.4917926 L3.00944641,15.4520567 C3.00944641,15.8357343 3.07239348,16.1996863 3.1770332,16.5028449 C3.51221516,17.4328547 4.07710224,18.1402248 4.87253155,18.5847362 C5.75133779,19.0694667 6.60971836,19.5550055 7.4885246,20.0397359 C8.36733084,20.5244664 9.22571141,21.0100052 10.0831711,21.4947356 C10.6063698,21.7978943 11.1508312,21.9597405 11.7786695,22 L12.0713259,22 C12.7621155,22 13.3482653,21.8381578 13.8918896,21.5349951 C15.6078136,20.5647258 17.4079935,19.5541971 19.1452222,18.583847 C19.7101093,18.2806883 20.1703566,17.8559429 20.5055386,17.2906935 C20.882409,16.6638424 21.05,16.1388525 21.05,15.5727947 L21.05,9.53023703 C21.0491826,9.24761235 21.0074912,8.90417405 20.9028514,8.58050169 C20.5678662,7.59046648 20.0029791,6.88309636 19.1871241,6.43773613 Z" id="Path" fill="#000000" fill-rule="nonzero"></path>
    </g>
</svg>