<?xml version="1.0" encoding="UTF-8"?>
<svg width="24px" height="24px" viewBox="0 0 24 24" version="1.1" xmlns="http://www.w3.org/2000/svg" xmlns:xlink="http://www.w3.org/1999/xlink">
    <!-- Generator: Sketch 57.1 (83088) - https://sketch.com -->
    <title>map-good</title>
    <desc>Created with Sketch.</desc>
    <g id="map-good" stroke="none" stroke-width="1" fill="none" fill-rule="evenodd">
        <path d="M13.7768531,4 C14.5532404,4 15.1851692,4.6562518 15.1851692,5.46311064 L15.1851692,6.04248293 C15.1851692,7.4062182 14.9378056,8.73878567 14.4509208,10.0030976 L18.0728598,9.99997264 C19.1357143,9.99997264 20,10.8974709 20,12.0012398 L20,13.693069 C20,15.2893148 19.5967612,16.8655287 18.834225,18.2511198 L18.2907647,19.2392415 C18.0319689,19.7086145 17.5480884,20 17.0280934,20 L11.1923312,20 C10.8950173,20 10.5983043,19.9268757 10.331697,19.7887534 L8.9571419,19.0740352 C8.81343239,19.6066314 8.3249796,20 7.74609573,20 L5.25327895,20 C4.56243947,20 4,19.4387333 4,18.74873 L4,11.251254 C4,10.5612507 4.56181415,10 5.25327895,10 L7.4713096,10.0000867 C7.47469023,10.0000141 7.47807945,9.9999776 7.48147692,9.9999776 L8.92590767,9.9999776 C9.39052904,9.9999776 9.82385826,9.78372298 10.1139462,9.4062374 C10.9523169,8.31749237 11.5644012,7.08561225 11.9333897,5.74562083 L12.1223751,5.05999322 C12.2945051,4.43625321 12.8512156,4 13.4771356,4 L13.7768531,4 Z M13.7761289,5.0000576 L13.4764115,5.0000576 C13.2783974,5.0000576 13.1020613,5.13818152 13.0479047,5.33568745 L12.8589193,6.02131506 C12.4544787,7.49005766 11.7840163,8.83873703 10.8650656,10.0318494 C10.4022366,10.6335663 9.71587628,10.9845908 8.97506156,10.9994776 C8.9910648,11.0793611 9,11.1642848 9,11.251254 L9.00042981,18.0051805 C9.04821424,18.0129334 9.09569156,18.0283284 9.14131659,18.0519005 L10.7626227,18.8937671 C10.8956305,18.9637666 11.043682,19.000016 11.1923466,19.000016 L17.0278468,19.000016 C17.2035821,19.000016 17.3672842,18.9012662 17.4551518,18.7425136 L17.9986122,17.754392 C18.6774869,16.5200319 19.0367997,15.1150489 19.0367997,13.693138 L19.0367997,12.0013088 C19.0367997,11.4488163 18.6046722,11.0000672 18.0726441,11.0000672 L14.448394,11.0000672 C14.1294174,11.0000672 13.8315026,10.8363242 13.6527476,10.561318 C13.4739925,10.2869518 13.4378933,9.93882599 13.5564522,9.63132396 C13.9982092,8.48569929 14.2220921,7.27821902 14.2220921,6.04254693 L14.2220921,5.46317464 C14.2220921,5.20816827 14.0222753,5.0000576 13.7761289,5.0000576 Z M7.74609573,10.9999408 L5.25327895,10.9999408 C5.11486092,10.9999408 5.0021229,11.1124405 5.0021229,11.25119 L5.0021229,18.749306 C5.0021229,18.8868075 5.11486092,18.9999408 5.25327895,18.9999408 L7.74672105,18.9999408 C7.88513908,18.9999408 7.9978771,18.8868059 7.9978771,18.748682 L7.9978771,11.251206 C7.9978771,11.1124549 7.88513908,10.9999408 7.74609573,10.9999408 Z M7,17.5 C7,18.1666667 6,18.1666667 6,17.5 C6,16.8333333 7,16.8333333 7,17.5 Z" id="Combined-Shape" stroke="#000000" stroke-width="0.2" fill="#000000"></path>
    </g>
</svg>