<?xml version="1.0" encoding="UTF-8"?>
<svg width="24px" height="24px" viewBox="0 0 24 24" version="1.1" xmlns="http://www.w3.org/2000/svg" xmlns:xlink="http://www.w3.org/1999/xlink">
    <!-- Generator: Sketch 57.1 (83088) - https://sketch.com -->
    <title>map-rain excessive</title>
    <desc>Created with Sketch.</desc>
    <g id="map-rain-excessive" stroke="none" stroke-width="1" fill="none" fill-rule="evenodd">
        <path d="M12.26018,3.1626622 C19.1298844,10.5839306 18.768409,15.0496333 18.6950669,15.5815486 C18.6749499,19.1243429 15.6171683,22 11.8611037,22 C8.10503918,22 5.04722265,19.1243429 5.02714054,15.5815486 C4.95382531,15.0497389 4.59239015,10.5839306 11.463011,3.1626622 C11.6638232,2.94577927 12.0593588,2.94577927 12.26018,3.1626622 Z M11.8610814,4.25786932 C5.49338519,11.3246683 6.0722722,15.4240979 6.08013057,15.4645082 C6.08449618,15.4900748 6.08711563,15.518939 6.08711563,15.5445035 C6.08711563,18.5521102 8.67773621,20.9989838 11.8620313,20.9989838 C15.0463265,20.9989838 17.6369471,18.5521102 17.6369471,15.5445035 C17.6369471,15.5164647 17.6386932,15.4892493 17.6439321,15.4612106 C17.6498555,15.4241844 18.2287776,11.3246683 11.8610814,4.25786932 Z M12.8111111,16.1941489 C12.8111111,17.4612096 10.9111111,17.4612096 10.9111111,16.1941489 C10.9111111,14.9278763 12.8111111,14.9278763 12.8111111,16.1941489 Z M12.5378308,9.13075044 C12.7411708,9.29337396 12.8428408,9.5207867 12.8023354,9.74884993 L12.8023354,9.79776383 L12.1923155,14.3678101 C12.1716643,14.5132817 12.029485,14.6111111 11.8666463,14.6111111 C11.7244669,14.6111111 11.5822957,14.4808854 11.5616363,14.3671758 L10.9111111,9.7971296 C10.9111111,9.76473174 10.9111111,9.73233388 10.9309687,9.69993602 C10.9103059,9.48839209 11.0119759,9.29337396 11.1954617,9.13075044 C11.5616363,8.837898 12.1716562,8.837898 12.5378308,9.13075044 Z" id="Combined-Shape" fill="#000000" fill-rule="nonzero"></path>
    </g>
</svg>