<?xml version="1.0" encoding="UTF-8"?>
<svg width="24px" height="24px" viewBox="0 0 24 24" version="1.1" xmlns="http://www.w3.org/2000/svg" xmlns:xlink="http://www.w3.org/1999/xlink">
    <!-- Generator: Sketch 57.1 (83088) - https://sketch.com -->
    <title>map-no data</title>
    <desc>Created with Sketch.</desc>
    <g id="map-no-data" stroke="none" stroke-width="1" fill="none" fill-rule="evenodd">
        <path d="M7.81502822,17.9019985 L5.51107281,17.9019985 C3.01979506,17.9019985 1,15.566582 1,12.6858937 C1,10.0694814 2.67056485,7.89133326 4.85796412,7.52425527 C5.65045817,4.85438986 7.83715635,3 10.3437704,3 C12.5953632,3 14.6031083,4.49823048 15.5600955,6.77236604 C15.7517996,6.74169008 15.9469216,6.72585683 16.14292,6.72585683 C18.1275729,6.72585683 19.8091799,8.32896673 20.2414454,10.5060762 C21.7571133,10.8098718 22.909091,12.3377928 22.909091,14.1763494 C22.909091,16.2336835 21.4661831,17.9021024 19.6869274,17.9021024 L16.0942819,17.9021024 C15.7836116,20.2226737 14.0488751,22 11.9545674,22 C9.86025968,22 8.12552323,20.2227244 7.81485294,17.9021024 L7.81502822,17.9019985 Z M14.4100896,15.371643 L10.4108121,19.9959644 C10.8575595,20.3215466 11.3872984,20.5095443 11.9547208,20.5095443 C13.5559654,20.5095443 14.8541641,19.0083498 14.8541641,17.1569493 C14.8541641,16.5008702 14.6915573,15.8883135 14.410002,15.3717444 L14.4100896,15.371643 Z M9.49939576,18.9421035 L13.4986732,14.3177821 C13.0519259,13.9921999 12.522187,13.8042023 11.9547646,13.8042023 C10.35352,13.8042023 9.05532129,15.3053967 9.05532129,17.1567973 C9.05532129,17.8128764 9.21792804,18.424445 9.4994834,18.9420022 L9.49939576,18.9421035 Z M16.0944571,16.411748 L19.6871027,16.411748 C20.7551688,16.411748 21.6204008,15.4112895 21.6204008,14.1762962 C21.6204008,12.942291 20.7551688,11.9408445 19.6871027,11.9408445 C19.3559036,11.9408445 19.0786227,11.649918 19.0460878,11.2689321 C18.8997419,9.54409623 17.6451138,8.21602882 16.143139,8.21602882 C15.8718393,8.21602882 15.6065427,8.25858099 15.3514994,8.34170427 C15.0288449,8.44758942 14.6891013,8.24868331 14.5718441,7.88550409 C13.9196994,5.86082449 12.2431315,4.49034932 10.3440553,4.49034932 C8.27297112,4.49034932 6.48170933,6.11820975 5.9742958,8.40508792 C5.90411893,8.72372884 5.66106215,8.95033427 5.37692372,8.96419153 C3.65500406,9.04533629 2.28906261,10.6860634 2.28906261,12.6858912 C2.28906261,14.7432253 3.73111609,16.411748 5.51122618,16.411748 L7.81518158,16.411748 C8.12585187,14.0900848 9.86058832,12.3137466 11.954896,12.3137466 C14.0492038,12.3137466 15.7839402,14.0900342 16.0946105,16.411748 L16.0944571,16.411748 Z" id="Shape" fill="#000000"></path>
    </g>
</svg>