<?xml version="1.0" encoding="UTF-8"?>
<svg width="24px" height="24px" viewBox="0 0 24 24" version="1.1" xmlns="http://www.w3.org/2000/svg" xmlns:xlink="http://www.w3.org/1999/xlink">
    <!-- Generator: Sketch 57.1 (83088) - https://sketch.com -->
    <title>map-mesurements</title>
    <desc>Created with Sketch.</desc>
    <g id="map-mesurements" stroke="none" stroke-width="1" fill="none" fill-rule="evenodd">
        <path d="M15.153884,3.49165198 C15.8103686,2.83611601 16.8734833,2.83611601 17.5309164,3.49165198 L17.5309164,3.49165198 L20.508348,6.4690836 C21.163884,7.12651665 21.163884,8.18963145 20.508348,8.84611596 L20.508348,8.84611596 L7.84611596,21.508348 C7.18963145,22.163884 6.12651665,22.163884 5.4690836,21.508348 L5.4690836,21.508348 L2.49165198,18.5309164 C1.83611601,17.8734833 1.83611601,16.8103686 2.49165198,16.153884 L2.49165198,16.153884 Z M16.8593492,4.16334956 C16.5733776,3.87832652 16.1116592,3.87832652 15.8256877,4.16334956 L15.8256877,4.16334956 L15.1492596,4.83977766 L16.4432335,6.13375164 C16.534439,6.22306 16.5857412,6.34465751 16.5866912,6.47196569 C16.5866912,6.59926658 16.5363385,6.72182235 16.446084,6.81112828 C16.3548786,6.90138517 16.2323325,6.95078762 16.1050244,6.94888739 C15.977721,6.94698788 15.8561138,6.89473569 15.7687074,6.80257929 L15.7687074,6.80257929 L15.7677574,6.80257929 L14.476629,5.51145092 L12.2658581,7.72222187 L14.0766628,9.53302661 C14.2628727,9.71923161 14.2628727,10.0194507 14.0766628,10.204712 C13.8914063,10.3909219 13.5911873,10.3909219 13.4049774,10.204712 L13.4049774,10.204712 L11.5941726,8.39390729 L9.3834017,10.6046782 L10.6745301,11.8958066 C10.8607399,12.0820116 10.8607399,12.3822307 10.6745301,12.5684406 C10.4892736,12.7537019 10.188106,12.7537019 10.0028446,12.5684406 L10.0028446,12.5684406 L8.71171628,11.2773122 L6.50094534,13.4880831 L8.31175008,15.2988879 C8.49701141,15.4841443 8.49700654,15.785312 8.31175008,15.9705733 C8.12649361,16.1558346 7.82532599,16.1558346 7.64006466,15.9705733 L7.64006466,15.9705733 L5.82925992,14.1597685 L3.16338604,16.8256424 C2.878363,17.111614 2.878363,17.5733324 3.16338604,17.8593039 L3.16338604,17.8593039 L6.14081766,20.8367356 C6.42678924,21.1217586 6.8885076,21.1217586 7.17447919,20.8367356 L7.17447919,20.8367356 L19.8367808,8.1744427 C20.1218038,7.88847112 20.1218038,7.42675276 19.8367808,7.14078118 L19.8367808,7.14078118 Z M5.05087631,17.5761794 C5.23613277,17.3909191 5.53540332,17.3909191 5.72066465,17.5752294 L5.72066465,17.5752294 L6.42464725,18.279212 C6.60895859,18.4644685 6.60895859,18.7637391 6.42369726,18.9490004 C6.23844079,19.1342624 5.93917024,19.135211 5.75296037,18.9509006 L5.75296037,18.9509006 L5.04897607,18.2469163 C4.86466644,18.0607113 4.86561498,17.7614408 5.05087631,17.5761794 Z" id="Mesurements-Copy-4" fill="#000000"></path>
    </g>
</svg>