<?xml version="1.0" encoding="UTF-8"?>
<svg width="24px" height="24px" viewBox="0 0 24 24" version="1.1" xmlns="http://www.w3.org/2000/svg" xmlns:xlink="http://www.w3.org/1999/xlink">
    <!-- Generator: Sketch 57.1 (83088) - https://sketch.com -->
    <title>map-high severity</title>
    <desc>Created with Sketch.</desc>
    <g id="map-high-severity" stroke="none" stroke-width="1" fill="none" fill-rule="evenodd">
        <path d="M9.19122163,4.08843589 C9.19122163,4.08843589 8.44677907,2.5017469 10.3772008,3.15984644 C12.9424311,4.17382257 14.4100754,5.97460775 15.1012405,7.06519492 L15.1012405,7.06519492 L15.6021345,6.34777644 C15.8487621,6.07008088 16.3404971,5.77356025 16.9723048,6.65875282 C18.8007354,9.28974392 18.9347098,12.4414827 18.9438441,12.7987442 C19.1873677,14.9915897 18.6362752,16.8704671 17.3513411,18.2344323 C16.1136045,19.543448 14.260819,20.2941176 12.2679609,20.2941176 C11.162658,20.2941176 10.0969917,20.05836 9.18199882,19.6143197 C4.54175317,17.5214943 4.96652312,12.0683362 5.04568712,11.3422532 C5.14616212,10.9618492 5.44302716,10.3124216 6.22250736,11.0833457 C6.237731,11.0992577 6.2514327,11.1093827 6.26665712,11.1238469 C6.8284285,11.6720472 7.19076988,11.7646174 7.36128117,11.7646174 C7.48307495,11.7646174 7.57289446,11.7183323 7.63988298,11.6662634 C8.04636008,9.71929152 7.78298931,7.67986056 7.65054004,6.89445858 C7.65054004,6.89445858 7.48002874,5.38586175 8.57313281,5.99767623 L8.57313281,5.99767623 L9.66927684,6.61241592 C9.76975184,5.56233744 9.41349431,4.58309361 9.19122163,4.08843589 Z M10.6314953,4.53838557 C10.8507241,5.28039068 11.0014405,6.2538211 10.7837355,7.26198383 C10.7822132,7.26487646 10.7822132,7.26632314 10.7806909,7.26921578 C10.5081846,8.33377223 9.46987801,7.83041291 9.46987801,7.83041291 L9.46987801,7.83041291 L8.95682414,7.54257906 C9.08470566,8.65782691 9.16539745,10.3848152 8.78174509,12.0655554 L8.78174509,12.0655554 L8.7406392,12.246356 L8.62188929,12.3461577 C8.0220403,12.9984735 7.0918476,13.0925247 6.19057362,12.5486567 C6.21645236,14.2045511 6.70362749,17.2304834 9.71195338,18.5886723 C10.4731548,18.9589454 11.35007,19.1498694 12.2650628,19.1498694 C13.9168204,19.1498694 15.4438221,18.5380179 16.451651,17.4705733 C17.509772,16.3496705 17.9573651,14.7673138 17.7457479,12.897101 L17.7457479,12.897101 L17.7427029,12.8435844 C17.7427029,12.8132214 17.6772655,9.99131365 16.1776626,7.60041243 L16.1776626,7.60041243 L15.63265,8.38148213 C15.629605,8.38437476 15.629605,8.38582108 15.6265603,8.38871408 C15.0754288,9.17555645 14.3827437,8.20068193 14.3827437,8.20068193 C14.06152,7.58742336 12.9303383,5.70562081 10.6314953,4.53838557 Z M13.3011765,15.8467821 C13.3011765,17.0330334 11.5223529,17.0330334 11.5223529,15.8467821 C11.5223529,14.6612687 13.3011765,14.6612687 13.3011765,15.8467821 Z M13.0453252,9.23386667 C13.2356967,9.38611853 13.3308825,9.59902755 13.2929605,9.81254556 L13.2929605,9.85833988 L12.7218459,14.1369219 C12.7025118,14.2731157 12.5694002,14.3647059 12.4169468,14.3647059 C12.2838353,14.3647059 12.1507313,14.2427856 12.1313895,14.1363281 L11.5223529,9.8577461 C11.5223529,9.82741448 11.5223529,9.79708286 11.5409441,9.76675125 C11.5215991,9.56869897 11.6167848,9.38611853 11.7885685,9.23386667 C12.1313895,8.9596915 12.7025041,8.9596915 13.0453252,9.23386667 Z" id="Combined-Shape" fill="#000000" fill-rule="nonzero"></path>
    </g>
</svg>