<?xml version="1.0" encoding="UTF-8"?>
<svg width="24px" height="24px" viewBox="0 0 24 24" version="1.1" xmlns="http://www.w3.org/2000/svg" xmlns:xlink="http://www.w3.org/1999/xlink">
    <!-- Generator: Sketch 57.1 (83088) - https://sketch.com -->
    <title>map-filter</title>
    <desc>Created with Sketch.</desc>
    <g id="map-filter" stroke="none" stroke-width="1" fill="none" fill-rule="evenodd">
        <path d="M3.67976558,3.0008549 C3.15433016,3.0008549 2.82851688,3.57227317 3.09495839,4.02495467 L10.4644675,13.857118 L10.4644675,21.3204355 C10.4644675,21.8250572 10.9951086,22.1530746 11.4463341,21.9274748 L14.1603364,20.5701712 C14.3903949,20.4551447 14.535129,20.2206482 14.535129,19.9631319 L14.535129,13.8562631 L21.9046381,4.02409977 C22.1718016,3.57141826 21.8460092,3 21.319831,3 L3.67976558,3.0008549 Z M4.9,4.26666667 L20.1,4.26666667 L13.2693089,13.2172684 C13.2079647,13.3216981 13.175446,13.4409434 13.1761839,13.5616638 L13.1761839,19.4230594 L11.8244064,20.1 L11.8244064,13.5617207 C11.8244064,13.440257 11.7918858,13.3217588 11.7312814,13.2173253 L4.9,4.26666667 Z" id="Shape-Copy" fill="#000000"></path>
    </g>
</svg>