<?xml version="1.0" encoding="UTF-8"?>
<svg width="24px" height="24px" viewBox="0 0 24 24" version="1.1" xmlns="http://www.w3.org/2000/svg" xmlns:xlink="http://www.w3.org/1999/xlink">
    <!-- Generator: Sketch 57.1 (83088) - https://sketch.com -->
    <title>map-plotsnotvisited</title>
    <desc>Created with Sketch.</desc>
    <g id="map-plotsnotvisited" stroke="none" stroke-width="1" fill="none" fill-rule="evenodd">
        <path d="M11.5977468,3.00080959 C15.7878323,3.00080959 19.1951972,6.09844595 19.1951972,9.90950247 C19.1951972,12.6800682 17.3521112,15.6336526 15.5464517,17.9322666 C13.7407238,20.2309222 11.9341753,21.8736954 11.9341753,21.8736954 C11.7489801,22.0421015 11.4480406,22.0421015 11.2628454,21.8736954 L11.2628454,21.8736954 C11.2628454,21.8728858 9.45622853,20.2300711 7.65056902,17.931457 C5.84484113,15.632843 4,12.6792586 4,9.90869288 C4,6.09846543 7.40645317,3 11.5974505,3 Z M11.5974505,3.86389751 C7.91930159,3.86389751 4.94911148,6.56564993 4.94911148,9.90952195 C4.94911148,12.3198541 6.66747279,15.1948834 8.42326064,17.4302804 C10.0108342,19.4512161 11.30809,20.6276339 11.5974505,20.8964412 C11.8860132,20.6292714 13.1850468,19.4519623 14.7734637,17.4302804 C16.5291832,15.1948834 18.2457894,12.3206831 18.2457894,9.90952195 C18.2457894,6.56482086 15.2746876,3.86389751 11.5974505,3.86389751 Z M14.137173,7 L14.8569202,7.76253809 L12.632814,10.0154901 L14.8569202,12.26968 L14.137173,13 L11.9118448,10.7458101 L9.65593299,13 L8.93496373,12.26968 L11.160292,10.0154901 L8.93496373,7.76253809 L9.65593299,7 L11.9118448,9.25418994 L14.137173,7 Z" id="Combined-Shape" fill="#000000"></path>
    </g>
</svg>