<?xml version="1.0" encoding="UTF-8"?>
<svg width="24px" height="24px" viewBox="0 0 24 24" version="1.1" xmlns="http://www.w3.org/2000/svg" xmlns:xlink="http://www.w3.org/1999/xlink">
    <!-- Generator: Sketch 57.1 (83088) - https://sketch.com -->
    <title>map-med severity</title>
    <desc>Created with Sketch.</desc>
    <g id="map-med-severity" stroke="none" stroke-width="1" fill="none" fill-rule="evenodd">
        <path d="M12.326042,3 C13.4308164,3 14.4352032,3.64090231 15.2637467,4.90424076 L15.4081195,5.13364036 L21.9095632,17.0371076 C22.3823791,17.7556278 22.6521739,18.3846699 22.6521739,19.1031902 C22.6521739,20.7273974 21.3554094,21.9127947 19.7096641,21.9953943 L19.5254155,22 L5.12675839,22 C3.4175478,22 2,20.7648244 2,19.1031902 C2,18.4645055 2.19582174,17.8965196 2.58683317,17.2735458 L2.74261074,17.0371076 L9.2440544,5.13364036 C10.0991097,3.71852023 11.1563311,3 12.326042,3 Z M12.326,4.122 L12.1778418,4.13014743 C11.5370743,4.19231901 10.9156894,4.65746421 10.3429043,5.49590196 L10.2115992,5.69600058 L3.73197847,17.5765593 L3.7091296,17.6213028 L3.66430928,17.6660464 C3.28202943,18.2275307 3.12471961,18.6319791 3.12471961,19.0811665 C3.12471961,20.043711 3.89950449,20.7818452 4.96476568,20.849961 L5.1266729,20.8550976 L19.52533,20.8542201 C20.6721831,20.8542201 21.5272833,20.0909608 21.5272833,19.080289 C21.5272833,18.6810113 21.4029927,18.317083 21.106882,17.846791 L20.9876936,17.6651689 L20.9428733,17.6204253 L20.9200245,17.5756818 L14.4404038,5.69512309 C13.8317965,4.73053198 13.164238,4.19698834 12.4741651,4.13013625 L12.326,4.122 Z M13.5652174,17.4561362 C13.5652174,19.1088242 11.0869565,19.1088242 11.0869565,17.4561362 C11.0869565,15.8044763 13.5652174,15.8044763 13.5652174,17.4561362 Z M13.2087648,8.24300782 C13.4739909,8.45512546 13.6066039,8.75175076 13.5537709,9.04922454 L13.5537709,9.11302528 L12.7580927,15.0739551 C12.7311564,15.2637007 12.545705,15.3913043 12.3333067,15.3913043 C12.1478554,15.3913043 11.9624146,15.2214448 11.9354677,15.0731279 L11.0869565,9.11219802 C11.0869565,9.06993995 11.0869565,9.02768187 11.1128577,8.9854238 C11.0859062,8.70949693 11.2185192,8.45512546 11.4578486,8.24300782 C11.9354677,7.86102638 12.7311458,7.86102638 13.2087648,8.24300782 Z" id="Combined-Shape" fill="#000000" fill-rule="nonzero"></path>
    </g>
</svg>