<?xml version="1.0" encoding="UTF-8"?>
<svg width="24px" height="24px" viewBox="0 0 24 24" version="1.1" xmlns="http://www.w3.org/2000/svg" xmlns:xlink="http://www.w3.org/1999/xlink">
    <!-- Generator: Sketch 57.1 (83088) - https://sketch.com -->
    <title>map-usershape</title>
    <desc>Created with Sketch.</desc>
    <g id="map-usershape" stroke="none" stroke-width="1" fill="none" fill-rule="evenodd">
        <path d="M11.7150866,14.2547771 C16.1639547,14.2547771 19.0346552,16.2712887 19.3934928,19.5851429 C19.4195239,19.8173387 19.4269613,20.3797725 19.4290863,20.6822085 L19.4299363,20.8825576 C19.4299363,21.3863073 19.0346408,21.7831398 18.5328424,21.7831398 C18.0310439,21.7831398 17.6357485,21.3863073 17.6357485,20.8825576 C17.6357485,20.5589244 17.5993049,19.9453902 17.5993049,19.801859 C17.2404674,16.4163905 13.3663135,16.0561576 11.7150866,16.0561576 C9.74147997,16.0561576 6.40393179,16.4881488 5.86567544,19.4783699 C5.83063136,19.695086 5.79418782,20.6674266 5.79418782,21.0994178 C5.79418782,21.6031675 5.39889236,22 4.89709391,22 C4.39529546,22 4,21.6031675 4,21.0994178 C4,20.955901 4.03644354,19.6233276 4.10793116,19.1547367 C4.68099475,16.0560135 7.44547934,14.2547771 11.7149287,14.2547771 L11.7149287,14.2547771 Z M11.7149682,3 C14.555541,3 16.8582803,5.30273926 16.8582803,8.1433121 C16.8582803,10.9838849 14.555541,13.2866242 11.7149682,13.2866242 C8.87439532,13.2866242 6.57165605,10.9838849 6.57165605,8.1433121 C6.57165605,5.30273926 8.87439532,3 11.7149682,3 Z M11.7149682,4.64585987 C9.78337862,4.64585987 8.21751592,6.21172257 8.21751592,8.1433121 C8.21751592,10.0749016 9.78337862,11.6407643 11.7149682,11.6407643 C13.6465577,11.6407643 15.2124204,10.0749016 15.2124204,8.1433121 C15.2124204,6.21172257 13.6465577,4.64585987 11.7149682,4.64585987 Z" id="Combined-Shape" fill="#000000"></path>
    </g>
</svg>