<?xml version="1.0" encoding="UTF-8"?>
<svg width="24px" height="24px" viewBox="0 0 24 24" version="1.1" xmlns="http://www.w3.org/2000/svg" xmlns:xlink="http://www.w3.org/1999/xlink">
    <!-- Generator: Sketch 57.1 (83088) - https://sketch.com -->
    <title>map-zero</title>
    <desc>Created with Sketch.</desc>
    <g id="map-zero" stroke="none" stroke-width="1" fill="none" fill-rule="evenodd">
        <path d="M20.751568,13.4950253 L20.7396459,13.5784799 L20.7396459,13.6142462 C20.7396459,13.6380903 20.7158018,13.7453891 20.7158018,13.7692333 C20.6442693,14.1984283 20.5488926,14.6157012 20.4177497,15.0210521 C20.3581392,15.2118054 20.2866067,15.3906367 20.2150742,15.58139 C20.2031522,15.6171563 20.179308,15.6767667 20.1554638,15.7244551 L20.1554638,15.7363771 L20.1435417,15.7602213 L20.1316197,15.7721434 C20.0839313,15.8794421 20.036243,15.998663 19.9766326,16.1059617 C19.7978013,16.4874684 19.5832038,16.8451309 19.3447621,17.1908714 C19.2851517,17.2862481 19.2255413,17.3577806 19.1659308,17.4531572 C19.1420867,17.4889235 19.1063204,17.5366118 19.0824763,17.5723781 L19.0705542,17.5843002 L19.0705542,17.5962222 C19.0586321,17.5962222 19.0586321,17.5962222 19.0586321,17.6081443 C18.9274892,17.7631314 18.7725021,17.9419627 18.6413591,18.0969498 C18.3552291,18.406924 18.057177,18.693054 17.7352808,18.9553398 C17.6995145,18.9911061 17.6518262,19.0149502 17.6160599,19.0507165 L17.6041378,19.0626386 L17.5922158,19.0745607 L17.5683716,19.0864827 C17.484917,19.1580153 17.4014624,19.2176257 17.3180078,19.2772361 C17.1391766,19.3964569 16.9722674,19.5037557 16.7934361,19.6110544 C16.6146049,19.7183532 16.4238515,19.825652 16.2450203,19.9210286 C16.1496436,19.9567949 16.066189,20.0044832 15.9827344,20.0521716 L15.8635136,20.0998599 L15.8396694,20.111782 C15.8158252,20.1237041 15.780059,20.1356261 15.7562148,20.1475482 L15.7442927,20.1594703 L15.7323706,20.1594703 C15.350864,20.3144574 14.9455131,20.4456003 14.5520843,20.5528991 C14.3494089,20.6005874 14.1348114,20.6482758 13.9202139,20.684042 L13.7652268,20.7198083 L13.6460059,20.7317303 L13.5983176,20.7436524 L13.5387072,20.7436524 C13.4790968,20.7555745 13.4314084,20.7555745 13.3837201,20.7674966 C12.9187588,20.8151849 12.4537975,20.8151849 11.9888363,20.7913408 C11.4881087,20.7674966 11.2854333,20.7317303 10.7966279,20.6363537 C10.3793549,20.540977 9.96208197,20.4217562 9.5686532,20.2786912 C9.47327653,20.2429249 9.37789986,20.2071586 9.29444527,20.1713924 L9.2706011,20.1594703 C9.25867902,20.1594703 9.24675693,20.1475482 9.23483485,20.1475482 L9.22291276,20.1356261 L9.21099068,20.1356261 L9.12753609,20.0879378 C8.91293858,19.9925611 8.71026315,19.8971845 8.50758772,19.7898857 C8.1499252,19.5872103 7.79226268,19.3606907 7.45844433,19.1103269 C7.44652224,19.0984048 7.41075599,19.0745607 7.38691182,19.0626386 L7.37498974,19.0507165 L7.35114557,19.0268723 C7.3273014,19.0149502 7.31537932,18.9911061 7.29153515,18.979184 L7.19615848,18.9076515 C7.45844433,18.6334436 7.73265226,18.3592356 8.00686019,18.0850277 L14.6593831,11.4444269 L17.7948912,8.30891879 C18.1644758,7.93933418 18.5340604,7.58167166 18.903645,7.21208706 C19.7978013,8.2969967 20.3939055,9.58458178 20.6561913,11.0152319 C20.751568,11.456349 20.7992564,11.885544 20.7992564,12.3624274 C20.8111784,12.3981936 20.8111784,12.4458819 20.8111784,12.4935703 C20.8111784,12.5531807 20.8111784,12.6127911 20.7992564,12.6724015 C20.7992564,12.8393107 20.7992564,13.0062199 20.7873343,13.161207 C20.7873343,13.1969732 20.7754122,13.2327395 20.7754122,13.2685057 L20.7754122,13.2804278 C20.7634901,13.3519603 20.7634901,13.4234928 20.751568,13.4950253 M6.17085925,17.8942743 C6.12317092,17.8227418 6.0635605,17.7631314 6.00395008,17.6915989 L5.95626174,17.6319885 L5.93241757,17.5962222 L5.89665132,17.560456 C5.87280715,17.5246897 5.84896298,17.4889235 5.84896298,17.4770014 C5.59859922,17.1431831 5.37207962,16.7974426 5.1694042,16.427858 C5.07402752,16.2371047 4.97865085,16.0463513 4.89519626,15.855598 L4.85943001,15.7840655 L4.84750793,15.7482992 L4.83558584,15.7482992 L4.83558584,15.7244551 C4.82366376,15.6886888 4.81174167,15.6767667 4.81174167,15.6648446 C4.76405334,15.569468 4.72828709,15.4621692 4.69252083,15.3667925 C4.54945583,14.9614417 4.43023499,14.5560908 4.3467804,14.1388179 C4.32293623,14.0315191 4.29909206,13.9242204 4.28716998,13.8169216 C4.27524789,13.7573112 4.26332581,13.7096229 4.26332581,13.6500124 L4.25140373,13.6380903 L4.25140373,13.6261683 L4.25140373,13.6142462 L4.25140373,13.590402 C4.22755956,13.3638824 4.20371539,13.1373628 4.1917933,12.8989211 C4.16794914,12.4458819 4.17987122,11.9928428 4.22755956,11.5517256 C4.23948164,11.5040373 4.23948164,11.456349 4.25140373,11.4086606 L4.25140373,11.3848165 C4.26332581,11.2775177 4.28716998,11.170219 4.29909206,11.0629202 C4.3467804,10.8244785 4.39446873,10.5979589 4.45407915,10.3714393 C4.50176749,10.180686 4.56137791,10.0018547 4.62098833,9.81110137 C4.65675458,9.7157247 4.69252083,9.60842594 4.72828709,9.51304927 C4.75213125,9.46536094 4.76405334,9.4176726 4.78789751,9.36998426 L4.78789751,9.3461401 C4.79981959,9.32229593 4.81174167,9.28652968 4.82366376,9.26268551 L4.82366376,9.23884134 L4.83558584,9.22691926 C5.00249502,8.85733465 5.19324836,8.48775005 5.40784588,8.14200961 C5.50322255,7.98702252 5.6105213,7.82011334 5.71782006,7.66512625 L5.81319673,7.53398332 C5.8370409,7.49821707 5.87280715,7.45052874 5.89665132,7.41476248 L5.90857341,7.4028404 L5.90857341,7.39091832 C5.92049549,7.37899623 5.93241757,7.36707415 5.93241757,7.36707415 L5.93241757,7.35515206 L6.0635605,7.20016497 C6.33776843,6.89019079 6.62389845,6.5802166 6.93387263,6.30600867 L7.16039223,6.10333324 L7.37498974,5.92450198 C7.39883391,5.9125799 7.44652224,5.87681364 7.44652224,5.87681364 C7.4822885,5.85296948 7.50613266,5.82912531 7.52997683,5.80528114 C7.63727559,5.73374864 7.73265226,5.66221613 7.82802893,5.60260571 C8.18569145,5.36416403 8.54335398,5.1614886 8.92486066,4.97073526 C9.02023734,4.92304692 9.10369192,4.88728067 9.1990686,4.83959233 L9.21099068,4.83959233 C9.24675693,4.82767025 9.25867902,4.81574817 9.25867902,4.81574817 C9.30636735,4.80382608 9.35405569,4.77998191 9.40174403,4.75613775 C9.60441945,4.68460524 9.80709488,4.61307274 10.0097703,4.55346232 C10.4270433,4.42231939 10.8562383,4.32694272 11.2854333,4.25541022 L11.3211996,4.25541022 C11.38081,4.24348813 11.4284983,4.24348813 11.4881087,4.23156605 C11.5954075,4.21964396 11.7027062,4.20772188 11.810005,4.1957998 C12.0603688,4.18387771 12.2988104,4.17195563 12.5491742,4.17195563 C13.085668,4.18387771 13.514863,4.21964396 13.9917464,4.31502064 C14.4805518,4.41039731 14.9693573,4.54154023 15.4462406,4.72037149 C15.6846823,4.80382608 15.7442927,4.83959233 15.9827344,4.94689109 C16.2211761,5.05418985 16.4596178,5.18533277 16.6861374,5.31647569 C16.8888128,5.43569653 17.0676441,5.55491738 17.2583974,5.6860603 L17.3895403,5.78143697 C17.5445274,5.88873573 17.6399041,5.96026823 17.8187353,6.11525532 L18.0810212,6.34177492 L17.2583974,7.16439872 C16.2569423,8.16585378 15.2554873,9.16730884 14.2421101,10.1687639 L10.6177966,13.8049995 L7.47036641,16.9405076 C7.10078181,17.3220143 6.70735303,17.6915989 6.33776843,18.0731056 C6.27815801,18.0134952 6.23046967,17.9538848 6.17085925,17.8942743 M21.9723894,12.0643753 C21.8984725,10.5335797 21.4704697,9.03378149 20.6895732,7.69731588 C20.4189419,7.2323546 20.1089677,6.78885307 19.762035,6.37754117 C19.6308921,6.22255408 19.4997492,6.06756699 19.3447621,5.9125799 C18.0094887,4.51769606 16.2211761,3.52816309 14.3255647,3.17050057 C12.3226546,2.78899388 10.2601341,3.05127973 8.41221105,3.92159186 C6.75504137,4.69652733 5.34823546,5.9841124 4.39446873,7.53398332 C3.41685784,9.13154258 2.91613031,11.039076 3.01150699,12.9108432 C3.09496157,14.7826104 3.72683203,16.6186114 4.83558584,18.1088719 C5.1694042,18.549989 5.52706672,18.9553398 5.94433966,19.3606907 C6.8861843,20.2667691 8.00686019,20.970172 9.25867902,21.4232112 C11.0469916,22.0908479 13.0379797,22.1743025 14.8859027,21.6974191 C16.6503711,21.24438 18.2956187,20.254847 19.5235934,18.8957294 C20.8505213,17.4281209 21.7279867,15.5563537 21.9318543,13.5832488 C21.9843115,13.0765602 21.9974258,12.5698716 21.9723894,12.0643753" id="Fill-1" fill="#000000"></path>
    </g>
</svg>