<?xml version="1.0" encoding="UTF-8"?>
<svg width="24px" height="24px" viewBox="0 0 24 24" version="1.1" xmlns="http://www.w3.org/2000/svg" xmlns:xlink="http://www.w3.org/1999/xlink">
    <!-- Generator: Sketch 57.1 (83088) - https://sketch.com -->
    <title>map-no mesuremnet</title>
    <desc>Created with Sketch.</desc>
    <g id="map-no-mesuremnet" stroke="none" stroke-width="1" fill="none" fill-rule="evenodd">
        <path d="M11.5,3.5 C6.52943725,3.5 2.5,7.52943725 2.5,12.5 C2.5,17.4705627 6.52943725,21.5 11.5,21.5 C16.4705627,21.5 20.5,17.4705627 20.5,12.5 C20.5,7.52943725 16.4705627,3.5 11.5,3.5 Z M13.1461382,12.5 L15.3242226,14.6780844 C15.7638906,15.1177524 15.7635509,15.8298729 15.3242226,16.2692012 L15.2692126,16.3242112 C14.8309847,16.7624674 14.1170094,16.7631476 13.6780844,16.3242226 L11.5,14.1461382 L9.32191563,16.3242226 C8.88224762,16.7638906 8.17012709,16.7635509 7.73079878,16.3242226 L7.67578883,16.2692126 C7.23753261,15.8309847 7.23685243,15.1170094 7.67577743,14.6780844 L9.8538618,12.5 L7.67577743,10.3219156 C7.23610942,9.88224762 7.23644912,9.17012709 7.67577743,8.73079878 L7.73078738,8.67578883 C8.16901534,8.23753261 8.88299063,8.23685243 9.32191563,8.67577743 L11.5,10.8538618 L13.6780844,8.67577743 C14.1177524,8.23610942 14.8298729,8.23644912 15.2692012,8.67577743 L15.3242112,8.73078738 C15.7624674,9.16901534 15.7631476,9.88299063 15.3242226,10.3219156 L13.1461382,12.5 Z" id="Combined-Shape" stroke="#000000" fill="#000000"></path>
    </g>
</svg>