<?xml version="1.0" encoding="UTF-8"?>
<svg width="24px" height="24px" viewBox="0 0 24 24" version="1.1" xmlns="http://www.w3.org/2000/svg" xmlns:xlink="http://www.w3.org/1999/xlink">
    <!-- Generator: Sketch 57.1 (83088) - https://sketch.com -->
    <title>map-twoweeksago</title>
    <desc>Created with Sketch.</desc>
    <g id="map-twoweeksago" stroke="none" stroke-width="1" fill="none" fill-rule="evenodd">
        <path d="M8.22791871,5.28656058 C8.63381536,4.90447981 9.28973596,4.90447981 9.69560112,5.28656058 C10.1014663,5.668671 10.1014663,6.28808013 9.69560112,6.67016091 L9.69560112,6.67016091 L3.61290323,12.446934 L9.69560112,18.3298391 C10.1014663,18.7119495 10.1014663,19.3313586 9.69560112,19.7134394 C9.28970447,20.0955202 8.63378388,20.0955202 8.22791871,19.7134394 L8.22791871,19.7134394 L1.30747262,13.1985433 C0.897509127,12.8126291 0.897509127,12.1873956 1.30747262,11.8014567 L1.30747262,11.8014567 Z M14.0699167,5.28656058 C14.4669404,4.90447981 15.1085226,4.90447981 15.5055156,5.28656058 C15.9025085,5.668671 15.9025085,6.28808013 15.5055156,6.67016091 L15.5055156,6.67016091 L10.4769414,11.511774 L21.9734356,11.5122186 C22.5408537,11.5122186 23,11.9541181 23,12.5002223 C23,13.0463265 22.5408691,13.488226 21.9734356,13.488226 L21.9734356,13.488226 L10.4769414,13.488226 L15.5055156,18.3298391 C15.9025085,18.7119495 15.9025085,19.3313586 15.5055156,19.7134394 C15.1084918,20.0955202 14.4669096,20.0955202 14.0699167,19.7134394 L14.0699167,19.7134394 L7.30075128,13.1985433 C6.89974957,12.8126291 6.89974957,12.1873956 7.30075128,11.8014567 L7.30075128,11.8014567 Z" id="Combined-Shape" fill="#000000"></path>
    </g>
</svg>