<?xml version="1.0" encoding="UTF-8"?>
<svg width="24px" height="24px" viewBox="0 0 24 24" version="1.1" xmlns="http://www.w3.org/2000/svg" xmlns:xlink="http://www.w3.org/1999/xlink">
    <!-- Generator: Sketch 57.1 (83088) - https://sketch.com -->
    <title>map-table</title>
    <desc>Created with Sketch.</desc>
    <g id="map-table" stroke="none" stroke-width="1" fill="none" fill-rule="evenodd">
        <path d="M20.4722222,3 L2.52777778,3 C2.23585333,3 2,3.23585333 2,3.52777778 L2,21.4722222 C2,21.7641467 2.23585333,22 2.52777778,22 L20.4722222,22 C20.7641467,22 21,21.7641467 21,21.4722222 L21,3.52777778 C21,3.23585333 20.7641467,3 20.4722222,3 Z M7.9812,20.9444444 L3.05555556,20.9444444 L3.05555556,16.0188 L7.9812,16.0188 L7.9812,20.9444444 Z M7.9812,14.9632444 L3.05555556,14.9632444 L3.05555556,10.0367556 L7.9812,10.0367556 L7.9812,14.9632444 Z M7.9812,8.9812 L3.05555556,8.9812 L3.05555556,4.05555556 L7.9812,4.05555556 L7.9812,8.9812 Z M13.9632444,20.9444444 L9.03675556,20.9444444 L9.03675556,16.0188 L13.9632444,16.0188 L13.9632444,20.9444444 Z M13.9632444,14.9632444 L9.03675556,14.9632444 L9.03675556,10.0367556 L13.9632444,10.0367556 L13.9632444,14.9632444 Z M13.9632444,8.9812 L9.03675556,8.9812 L9.03675556,4.05555556 L13.9632444,4.05555556 L13.9632444,8.9812 Z M19.9444444,20.9444444 L15.0188,20.9444444 L15.0188,16.0188 L19.9444444,16.0188 L19.9444444,20.9444444 Z M19.9444444,14.9632444 L15.0188,14.9632444 L15.0188,10.0367556 L19.9444444,10.0367556 L19.9444444,14.9632444 Z M19.9444444,8.9812 L15.0188,8.9812 L15.0188,4.05555556 L19.9444444,4.05555556 L19.9444444,8.9812 Z" id="table-copy-2" fill="#000000"></path>
    </g>
</svg>