<?xml version="1.0" encoding="UTF-8"?>
<svg width="24px" height="24px" viewBox="0 0 24 24" version="1.1" xmlns="http://www.w3.org/2000/svg" xmlns:xlink="http://www.w3.org/1999/xlink">
    <!-- Generator: Sketch 57.1 (83088) - https://sketch.com -->
    <title>map-late activity</title>
    <desc>Created with Sketch.</desc>
    <g id="map-late-activity" stroke="none" stroke-width="1" fill="none" fill-rule="evenodd">
        <path d="M13.0061857,3 C16.4035037,3.17338694 19.4705749,5.01421852 21.125578,7.87205209 C22.7805989,10.7311241 22.7916228,14.2084988 21.1562493,17.0769652 C19.5196195,19.9466398 16.4658963,21.8050729 13.0688924,21.9998838 L13.0688924,21.9998838 L13.0063229,21.9998838 C11.0581336,22.0091892 9.15045955,21.4593351 7.52733487,20.4209769 C5.90534084,19.3827698 4.64170309,17.9030301 3.89823158,16.1696742 C3.80499268,15.9737832 3.79885885,15.7507847 3.88228269,15.5501935 C3.96570024,15.3507865 4.13009815,15.1926721 4.337436,15.1124368 C4.77173492,14.9413154 5.26985015,15.1265736 5.46859812,15.5360265 C6.08201237,16.9719966 7.1260823,18.1991472 8.46946296,19.0593458 C9.81274939,19.9206922 11.3917155,20.3761615 13.0062346,20.3690817 L13.0062346,20.3690817 L13.0688041,20.3690817 C15.8709555,20.1908616 18.3846945,18.6474763 19.7280751,16.2757605 C21.0726964,13.9039238 21.061641,11.0356085 19.6986309,8.67452549 C18.3343016,6.31335186 15.8094131,4.78767671 13.0060682,4.63074341 L13.0060682,4.63074341 L12.9116016,4.63074341 C11.0981492,4.64726652 9.34258029,5.2443338 7.92068161,6.32751884 C6.49875152,7.41073409 5.49274713,8.91762969 5.05967309,10.612049 L5.05967309,10.612049 L6.41043444,9.61498349 C6.78339508,9.34004135 7.31830386,9.40731185 7.60415973,9.7660174 C7.89002817,10.124723 7.82008431,10.6391868 7.44712368,10.9141168 L7.44712368,10.9141168 L4.46343859,13.0887636 C4.30272789,13.1831598 4.11747559,13.2362576 3.92976725,13.2397975 L3.92976725,13.2397975 L3.80340348,13.2397975 C3.56784939,13.2079595 3.35928038,13.0746087 3.23782241,12.8775577 L3.23782241,12.8775577 L1.1337905,9.91705132 C0.883500155,9.53118987 0.993927911,9.02500272 1.38529317,8.7689519 C1.57053291,8.64623624 1.80118118,8.60257898 2.02078669,8.64859599 C2.24039847,8.69460092 2.43055972,8.82558358 2.54710874,9.01083574 L2.54710874,9.01083574 L3.39485219,10.2191071 C3.92469185,8.17078509 5.14662081,6.34998061 6.86911792,5.04377888 C8.59148939,3.73639909 10.717632,3.01780811 12.9112373,3 L12.9112373,3 Z M13.3117526,6.35292067 C13.5105063,6.35292067 13.7016396,6.43774367 13.842819,6.58879559 C13.9829113,6.73868445 14.0621904,6.94317461 14.0621904,7.15580917 L14.0621904,7.15580917 L14.0621904,12.5403857 C14.0708645,12.9226484 13.8276004,13.2584601 13.478996,13.3432831 L13.478996,13.3432831 L10.2534531,14.1764022 L10.0590587,14.1764022 C9.71587565,14.1612914 9.42156502,13.9079766 9.33577203,13.5512655 C9.28594599,13.3420148 9.31635261,13.1200787 9.42169569,12.9353308 C9.52595173,12.750571 9.6953664,12.6192703 9.89193213,12.5704694 L9.89193213,12.5704694 L9.89193213,12.5693075 L12.5613315,11.9151389 L12.5613315,7.15581809 C12.5613315,6.71311202 12.896897,6.35292067 13.3117526,6.35292067 Z" id="Combined-Shape" fill="#000000" fill-rule="nonzero"></path>
    </g>
</svg>