<?xml version="1.0" encoding="UTF-8"?>
<svg width="24px" height="24px" viewBox="0 0 24 24" version="1.1" xmlns="http://www.w3.org/2000/svg" xmlns:xlink="http://www.w3.org/1999/xlink">
    <!-- Generator: Sketch 57.1 (83088) - https://sketch.com -->
    <title>map-low</title>
    <desc>Created with Sketch.</desc>
    <g id="map-low" stroke="none" stroke-width="1" fill="none" fill-rule="evenodd">
        <path d="M6.77722223,13.0666667 L16.5563687,13.0666667 C16.8338109,13.0666667 17.0918835,13.1867482 17.2296459,13.3788846 C17.3485584,13.5435644 17.3655459,13.7424086 17.2787755,13.9158804 L17.2267354,14.0002263 L12.3370379,20.6924231 C12.1973358,20.882239 11.943165,21 11.6666666,21 C11.429668,21 11.2090732,20.9134803 11.0629072,20.7682532 L10.9962952,20.6908761 L6.1065978,13.9986793 C5.96495627,13.8080999 5.96495627,13.5702474 6.10368727,13.3781111 C6.22199243,13.2134244 6.42847746,13.1022414 6.65979019,13.0738358 L6.77722223,13.0666667 L16.5563687,13.0666667 Z M15.2038195,14.3062562 L8.12955389,14.3062562 L11.6666867,19.1491837 L15.2038195,14.3062562 Z M17.4592593,8.53333333 L17.4592593,9.66666667 L6.12592593,9.66666667 L6.12592593,8.53333333 L17.4592593,8.53333333 Z M17.4592593,4 L17.4592593,5.13333333 L6.12592593,5.13333333 L6.12592593,4 L17.4592593,4 Z" id="Combined-Shape" fill="#000000"></path>
    </g>
</svg>