<?xml version="1.0" encoding="UTF-8"?>
<svg width="24px" height="24px" viewBox="0 0 24 24" version="1.1" xmlns="http://www.w3.org/2000/svg" xmlns:xlink="http://www.w3.org/1999/xlink">
    <!-- Generator: Sketch 57.1 (83088) - https://sketch.com -->
    <title>map-today</title>
    <desc>Created with Sketch.</desc>
    <g id="map-today" stroke="none" stroke-width="1" fill="none" fill-rule="evenodd">
        <path d="M15.6326432,3 C15.9373697,3 16.1839499,3.2336543 16.1839499,3.52242438 L16.1839499,3.52242438 L16.1839499,5.15703802 L18.8026827,5.15703802 C19.8665393,5.15703802 20.7322564,5.97740102 20.7322564,6.98552335 L20.7322564,6.98552335 L20.7333333,20.1715147 C20.7333333,21.179637 19.8676163,22 18.8037597,22 L18.8037597,22 L4.92957367,22 C3.86571701,22 3,21.179637 3,20.1715147 L3,20.1715147 L3,6.98552335 C3,5.97740102 3.86571701,5.15703802 4.92957367,5.15703802 L4.92957367,5.15703802 L7.54828079,5.15703802 L7.54828079,3.52242438 C7.54828079,3.23366214 7.79485274,3 8.09958756,3 C8.4043141,3 8.65089432,3.2336543 8.65089432,3.52242438 L8.65089432,3.52242438 L8.65089432,5.15703802 L15.0813364,5.15703802 L15.0813364,3.52242438 C15.0813364,3.23366214 15.3279084,3 15.6326432,3 Z M19.5511111,10.8235294 L4.18222222,10.8235294 L4.18222222,20.1030623 C4.18222222,20.5322696 4.54991113,20.8823529 5.00070313,20.8823529 L5.00070313,20.8823529 L18.7315389,20.8823529 C19.1823309,20.8823529 19.5500198,20.5322696 19.5500198,20.1030623 L19.5500198,20.1030623 L19.5511111,10.8235294 Z M14.9326678,12.9594529 C15.217269,13.2828634 15.217269,13.8072155 14.9326678,14.130626 L11.0459098,18.5473964 C10.7613085,18.870807 10.2998787,18.870807 10.0152774,18.5473964 L8.07189844,16.3390112 C7.78729717,16.0156007 7.78729717,15.4912486 8.07189844,15.1678381 C8.3564997,14.8444276 8.81792952,14.8444276 9.10253079,15.1678381 L10.5305936,16.7906368 L13.9020354,12.9594529 C14.1866367,12.6360423 14.6480665,12.6360423 14.9326678,12.9594529 Z M7.59255935,6.35294118 L5.00070313,6.35294118 C4.54991113,6.35294118 4.18222222,6.68129162 4.18222222,7.08385409 L4.18222222,7.08385409 L4.18222222,9.70588235 L19.5500198,9.70588235 L19.5511111,7.08385409 C19.5511111,6.68129162 19.1834222,6.35294118 18.7326302,6.35294118 L18.7326302,6.35294118 L16.140774,6.35294118 L16.140774,7.99559486 C16.140774,8.26492896 15.8967221,8.48287014 15.59512,8.48287014 C15.293518,8.48287014 15.0494661,8.26493627 15.0494661,7.99559486 L15.0494661,7.99559486 L15.0494661,6.35294118 L8.68386723,6.35294118 L8.68386723,7.99559486 C8.68386723,8.26492896 8.43982351,8.48287014 8.13821329,8.48287014 C7.83661126,8.48287014 7.59255935,8.26493627 7.59255935,7.99559486 L7.59255935,7.99559486 L7.59255935,6.35294118 Z" id="Combined-Shape" fill="#000000"></path>
    </g>
</svg>