<?xml version="1.0" encoding="UTF-8"?>
<svg width="24px" height="24px" viewBox="0 0 24 24" version="1.1" xmlns="http://www.w3.org/2000/svg" xmlns:xlink="http://www.w3.org/1999/xlink">
    <!-- Generator: Sketch 56.3 (81716) - https://sketch.com -->
    <title>menu-res-chemicalgroups</title>
    <desc>Created with Sketch.</desc>
    <g id="menu-res-chemicalgroups" stroke="none" stroke-width="1" fill="none" fill-rule="evenodd">
        <path d="M15.6581874,10.4604933 L20,18.347101 L20,19.2073574 C20,20.2111104 19.3629961,21 18.5524968,21 L10.4475032,21 C9.63700386,21 9,20.2111104 9,19.2073574 L9,18.4192507 L12.7631485,10.5327636 L12.7631485,2.71754285 L12.4737678,2.71754285 C12.3002626,2.71754285 12.1843871,2.57402625 12.1843871,2.35837996 C12.1843871,2.14350456 12.3002723,2 12.4737678,2 L15.9475681,2 C16.1210733,2 16.2369487,2.1435166 16.2369487,2.35837996 C16.2369487,2.5740383 16.1210636,2.71754285 15.9475681,2.71754285 L15.6581874,2.71754285 L15.6581874,10.4604933 Z M19.4213359,19.2071968 L19.4207037,18.6331115 L15.0788586,10.7466244 L15.0788586,9.16962806 L14.2107328,9.16962806 C14.0372276,9.16962806 13.9213521,9.02612351 13.9213521,8.8112481 C13.9213521,8.59637269 14.0372373,8.45286813 14.2107328,8.45286813 L15.0788586,8.45286813 L15.0788586,7.0186055 L14.2107328,7.0186055 C14.0372276,7.0186055 13.9213521,6.8750889 13.9213521,6.66022554 C13.9213521,6.44535013 14.0372373,6.30184557 14.2107328,6.30184557 L15.0788586,6.30184557 L15.0788586,4.86758294 L14.2107328,4.86758294 C14.0372276,4.86758294 13.9213521,4.72484927 13.9213521,4.50920298 C13.9213521,4.29434765 14.0372373,4.15084188 14.211365,4.15162602 L15.0794908,4.15162602 L15.0794908,2.71736338 L13.3425907,2.71736338 L13.3425907,10.6761208 L9.5794422,18.5626079 L9.5794422,19.2079809 C9.5794422,19.7812243 9.98469188,20.2831008 10.4475681,20.2831008 L18.55321,20.2823166 C19.0160862,20.2823166 19.4213359,19.7804401 19.4213359,19.2071968 Z M5.84621994,19.1665111 L5.84618566,19.1664905 C5.84618566,19.7536029 6.27694163,20.2669206 6.76962309,20.2669206 L8.6158432,20.2669206 L8.6158432,21 L6.76962309,21 C5.90811114,21 5.23101443,20.1931261 5.23101443,19.1664905 L5.23101443,9.04694397 L4,7.06666667 L12,7.06666667 L11.9993268,11.8333355 L11.3841556,11.8333355 L11.3848286,7.80050575 L5.23104872,7.80050575 L5.84621994,8.75334673 L5.84621994,19.1665111 Z" id="Combined-Shape" stroke="#000000" stroke-width="0.1" fill="#000000"></path>
    </g>
</svg>