<?xml version="1.0" encoding="UTF-8"?>
<svg xmlns="http://www.w3.org/2000/svg" width="24px" height="24px" viewBox="0 0 24 24">
    <g fill="none" fill-rule="evenodd">
        <g fill="#4A4A4A" fill-rule="nonzero">
            <path d="M12.017 3c.586 0 1.132.317 1.44.834l7.233 13.393.1.084.07.146c.17.406.193.92.025 1.383l-.06.145-.069.135-.079.128c-.308.45-.807.731-1.34.746l-.14-.002H4.659c-.587-.023-1.122-.353-1.421-.884-.297-.529-.317-1.179-.054-1.722L10.58 3.833c.31-.517.852-.833 1.437-.833zm-.03 1.134c-.21 0-.402.111-.518.298l-7.28 13.38-.044.098c-.075.2-.06.426.042.611.11.182.286.298.486.324l.09.005h14.423l.1-.002c.196-.023.378-.138.486-.316.102-.188.12-.403.053-.599l-.044-.102-7.24-13.327-.039-.079c-.106-.175-.302-.291-.515-.291zm.166 11.435c.357 0 .705.383.705.728 0 .403-.316.729-.705.729-.357 0-.706-.383-.706-.729 0-.403.317-.728.706-.728zm0-6.143l.104.012c.327.062.573.315.6.622v3.604l-.002.094c-.032.342-.329.616-.71.635-.365-.02-.666-.295-.695-.637l-.002-.095v-3.508l.004-.104c.033-.306.28-.555.607-.613l.093-.01z"/>
        </g>
    </g>
</svg>
