<?xml version="1.0" encoding="UTF-8"?>
<svg width="24px" height="24px" viewBox="0 0 24 24" version="1.1" xmlns="http://www.w3.org/2000/svg" xmlns:xlink="http://www.w3.org/1999/xlink">
    <!-- Generator: Sketch 56.3 (81716) - https://sketch.com -->
    <title>menu-res-worktypes</title>
    <desc>Created with Sketch.</desc>
    <g id="menu-res-worktypes" stroke="none" stroke-width="1" fill="none" fill-rule="evenodd">
        <path d="M12.5000323,13.8748245 C11.5394923,13.8748245 10.6726507,13.296011 10.3054818,12.4080211 C9.93833236,11.5207721 10.1417115,10.498724 10.8211641,9.82024402 C11.5006285,9.14090624 12.522867,8.93833708 13.4102033,9.30617849 C14.2976176,9.67478026 14.875759,10.5414604 14.8749993,11.5018799 C14.8727133,12.8118141 13.810113,13.8734403 12.4998763,13.875 L12.5000323,13.8748245 Z M12.5000323,9.75929781 L12.5000323,9.75853627 C11.7961927,9.75853627 11.1609158,10.1827422 10.8912673,10.8331276 C10.6216187,11.483513 10.7701536,12.232161 11.2683228,12.7302394 C11.7657334,13.2283178 12.5145014,13.3775834 13.1650275,13.1087454 C13.8155341,12.8399075 14.2405796,12.2055093 14.2413401,11.5018008 C14.2405782,10.5406794 13.4613328,9.76081737 12.5000323,9.75853627 L12.5000323,9.75929781 Z M11.7738127,6.75 L11.7737931,6.75 C11.6763359,6.75073874 11.5823645,6.71689091 11.5136279,6.65671657 C11.44576,6.59653838 11.4083458,6.51455109 11.4109562,6.43030701 L11.4100861,3.07036441 L10.6017696,3.76913773 C10.4581887,3.87820271 10.241541,3.8714343 10.106676,3.75484628 C9.97094036,3.63825248 9.96397961,3.45095912 10.0901442,3.32609688 L10.0901442,3.32684902 L11.5179792,2.09026151 C11.6606914,1.96991283 11.8869038,1.96991283 12.0296004,2.09026151 L13.4574354,3.32609804 C13.5975215,3.44945062 13.5975215,3.64652977 13.4574354,3.76913523 C13.3904473,3.82855667 13.2982156,3.86165352 13.201636,3.86165352 C13.1059339,3.86090062 13.0137044,3.82780569 12.9458365,3.76913523 L12.9449662,3.76913523 L12.1366497,3.07036191 L12.1366497,6.43030451 C12.1383916,6.51455243 12.1009772,6.59578876 12.0331093,6.6559631 C11.9643638,6.71613744 11.8712633,6.75 11.7738127,6.75 Z M10.2155328,19.6694503 L10.2155229,19.6692768 C10.0888293,19.5450195 10.0958171,19.3575309 10.2321244,19.2400628 C10.3675637,19.1233489 10.5851324,19.1173249 10.7293021,19.2257561 L11.5418936,19.9260383 L11.5418936,16.5639974 C11.5418936,16.3908102 11.7052865,16.25 11.906249,16.25 C12.1072115,16.25 12.2706044,16.3908082 12.2706044,16.5639974 L12.2714781,19.92546 L13.0831972,19.2259296 C13.2273826,19.117498 13.4449423,19.123522 13.5803749,19.2402363 C13.716682,19.3577083 13.723672,19.5452065 13.5969764,19.6694503 L12.1631308,20.9051222 C12.0967331,20.9661155 12.0032341,21 11.9062546,21 C11.8092751,21 11.715785,20.9661155 11.6493783,20.9051222 L10.2155328,19.6694503 Z M4.33291659,12.5902415 L3.09083813,11.1761409 C2.96972062,11.0349937 2.96972062,10.8094842 3.09083813,10.6691919 L4.33305805,9.24820137 C4.39059371,9.17332241 4.47310477,9.12856667 4.56015822,9.12512392 C4.64796164,9.12254158 4.73274389,9.16041072 4.79406036,9.23012722 C4.8561326,9.30069641 4.88943991,9.39709339 4.88641197,9.4960727 C4.88414078,9.59591573 4.84477662,9.68973036 4.7789197,9.7551437 L4.07719393,10.5547208 L7.45705066,10.5547208 C7.62206891,10.5693511 7.75,10.7259945 7.75,10.9144853 C7.75,11.1038332 7.62207278,11.2604775 7.45705066,11.2751092 L4.07099271,11.2751092 L4.77271848,12.0746863 C4.8945937,12.2158335 4.8945937,12.4413429 4.77271848,12.5816352 C4.71443868,12.6496287 4.63419687,12.6875 4.55017233,12.6875 C4.46993053,12.6875 4.39196186,12.6530725 4.33291659,12.5902415 Z M17.2502579,10.9074772 L17.2501081,10.9074755 C17.2478546,10.807548 17.2809023,10.7110931 17.3417427,10.6407056 C17.4018293,10.5703181 17.4852015,10.5312151 17.571579,10.5338219 L20.9313464,10.5338219 L20.2350691,9.72654936 C20.1261596,9.58228629 20.1321665,9.36591839 20.2493402,9.23122763 C20.3657677,9.09653709 20.552796,9.08871552 20.6767284,9.21471713 L21.9093033,10.640708 C22.0302322,10.7823461 22.0302322,11.0100259 21.9093033,11.152536 L21.9093033,11.1516671 L20.6767284,12.5802608 C20.6181493,12.648041 20.5385324,12.6862755 20.4559102,12.6871444 C20.3717843,12.691489 20.2899139,12.6558604 20.2290735,12.5889499 C20.1081446,12.4473118 20.1081446,12.219632 20.2290735,12.0779895 L20.2290735,12.0771203 L20.9253508,11.2698478 L17.5717365,11.2698478 C17.4876087,11.2715852 17.4064882,11.2333516 17.3463996,11.1655713 C17.2863111,11.0977821 17.2517602,11.004802 17.2502579,10.9074772 Z" id="work-types" stroke="#000000" stroke-width="0.1" fill="#000000"></path>
    </g>
</svg>