<?xml version="1.0" encoding="UTF-8"?>
<svg xmlns="http://www.w3.org/2000/svg" width="24px" height="24px" viewBox="0 0 24 24">
    <g fill="none" fill-rule="evenodd">
        <g fill="#4A4A4A">
            <path d="M19.313 17.375H4.688c-.31 0-.563-.252-.563-.563V7.357l7.506 6.506c.106.091.238.137.369.137s.263-.046.369-.137l7.506-6.506v9.456c0 .31-.252.562-.563.562zm0-11.25c.076 0 .149.016.215.044L12 12.693 4.472 6.17c.066-.028.139-.044.215-.044h14.625zm0-1.125H4.688C3.756 5 3 5.757 3 6.688v10.125c0 .93.757 1.687 1.688 1.687h14.625c.93 0 1.687-.757 1.687-1.688V6.688C21 5.758 20.243 5 19.312 5z"/>
        </g>
    </g>
</svg>
