<?xml version="1.0" encoding="UTF-8"?>
<svg width="24px" height="24px" viewBox="0 0 24 24" version="1.1" xmlns="http://www.w3.org/2000/svg" xmlns:xlink="http://www.w3.org/1999/xlink">
    <!-- Generator: Sketch 56.3 (81716) - https://sketch.com -->
    <title>menu-tags</title>
    <desc>Created with Sketch.</desc>
    <g id="menu-tags" stroke="none" stroke-width="1" fill="none" fill-rule="evenodd">
        <path d="M7.00650764,7.00309998 C7.91046267,6.13622158 9.33031886,6.13622158 10.169963,7.00309998 C11.0413849,7.86997838 11.0413849,9.31477571 10.169963,10.1816541 C9.75013122,10.5985263 9.13665017,10.8235294 8.58823529,10.8235294 C8.03904582,10.8235294 7.45809785,10.6308898 7.00650764,10.1816541 C6.13508569,9.31477571 6.13508569,7.86997838 7.00650764,7.00309998 Z M9.52394882,9.50741536 L9.52396043,9.50741536 C10.0406052,9.02581625 10.0406052,8.19130131 9.49219033,7.67733873 C9.23347483,7.42073695 8.91124236,7.29205944 8.58823529,7.29205944 C8.26522823,7.29205944 7.94222116,7.42074273 7.68428026,7.67733873 C7.16762387,8.19130131 7.16762387,8.99345279 7.68428026,9.50741536 C8.20093665,10.0213779 9.00729243,10.0213779 9.52394882,9.50741536 Z M13.7233797,4.49176373 L21.1154627,11.8838472 C21.6816684,12.4500529 22,13.1928266 22,14.0060577 C22,14.8192887 21.6816684,15.5620624 21.1154627,16.1282681 L16.1282684,21.1154627 C15.5620627,21.6816684 14.8192891,22 14.0060581,22 C13.1928271,22 12.4500534,21.6816684 11.8838477,21.1154627 L4.49176465,13.7233792 C3.46631261,12.6979271 2.93575366,11.2828372 3.00621741,9.83294301 L3.21843844,5.76509001 C3.28974471,4.38565321 4.38565413,3.289731 5.76509086,3.21843746 L9.83294365,3.00621641 C11.2828378,2.93575903 12.6979276,3.46631164 13.7233797,4.49176373 Z M20.3378849,15.3506902 L20.3378849,15.350669 C20.6918695,14.9966843 20.9040906,14.5374167 20.9040906,14.0408619 C20.9040906,13.5459624 20.6918695,13.0510629 20.3378849,12.6970782 L12.9458018,5.30499478 C12.2030282,4.52656798 11.141923,4.10212589 10.0808178,4.10212589 L9.86859678,4.10212589 L5.80074399,4.31434694 C4.9866641,4.35000007 4.31519038,5.02231635 4.27954362,5.83554739 L4.06732258,9.9034004 C4.03251833,11.034963 4.4569604,12.1673745 5.27019141,12.9806056 L12.6631234,20.3378848 C13.0162592,20.6918695 13.5120075,20.9040905 14.006907,20.9040905 C14.5018064,20.9040905 14.9967059,20.6918695 15.3506905,20.3378848 L20.3378849,15.3506902 Z" id="tags" fill="#000000"></path>
    </g>
</svg>