<?xml version="1.0" encoding="UTF-8"?>
<svg width="24px" height="24px" viewBox="0 0 24 24" version="1.1" xmlns="http://www.w3.org/2000/svg" xmlns:xlink="http://www.w3.org/1999/xlink">
    <!-- Generator: Sketch 56.3 (81716) - https://sketch.com -->
    <title>menu-support-translations</title>
    <desc>Created with Sketch.</desc>
    <g id="menu-support-translations" stroke="none" stroke-width="1" fill="none" fill-rule="evenodd">
        <path d="M15.0909845,3.29549223 C15.0909845,3.05664492 15.2844978,2.86312947 15.5225388,2.86312947 L17.2495854,2.86312947 C18.9167285,2.86312947 20.2729534,4.21935438 20.2729534,5.88649743 L20.2729534,7.43542939 L21.2623778,6.44600497 C21.4307918,6.27759098 21.7044619,6.27759098 21.8728759,6.44600497 C22.0412899,6.61441896 22.0412899,6.88808911 21.8728759,7.0565031 L20.136108,8.79327108 C20.1352983,8.79327108 20.1352983,8.79327108 20.1352983,8.79408071 C20.0956231,8.83051617 20.0519018,8.85885532 20.0049386,8.87747724 C19.9595964,8.8961 19.9077767,8.90743524 19.8543382,8.90905409 L19.8535284,8.90905409 L19.8527187,8.90905409 L19.8413833,8.90905409 L19.8300476,8.90905409 L19.829238,8.90905409 L19.8284283,8.90905409 C19.7749898,8.90743483 19.7231701,8.89609917 19.676207,8.87585632 C19.6284354,8.85723357 19.5855225,8.82808479 19.5458473,8.79245979 L19.5450375,8.79165016 C19.5417987,8.78841143 19.5377504,8.78436307 19.5345116,8.78112413 L17.8082734,7.05488591 C17.6398594,6.88647192 17.6398594,6.61280178 17.8082734,6.44438779 C17.9766874,6.2759738 18.2503575,6.2759738 18.4187715,6.44438779 L19.4090043,7.43462059 L19.4090043,5.88649701 C19.4090043,4.69626093 18.4414271,3.72706692 17.2504034,3.72706692 L15.5233568,3.72706692 C15.2845094,3.72706692 15.0909845,3.53355354 15.0909845,3.29551255 L15.0909845,3.29549223 Z M9.47746116,19.2729534 L7.75041456,19.2729534 C6.55937009,19.2729534 5.59098447,18.3037594 5.59098447,17.1135233 L5.59098447,15.5645913 L6.58040888,16.5540158 C6.74882287,16.7224297 7.02249302,16.7224297 7.19090701,16.5540158 C7.359321,16.3856018 7.359321,16.1119316 7.19090701,15.9435176 L5.46466879,14.2172794 C5.46143006,14.2140407 5.4573817,14.2099923 5.45414276,14.2067536 C5.4525235,14.2067536 5.4525235,14.2067536 5.45333313,14.205944 C5.41446836,14.1695085 5.36993659,14.1411693 5.32297345,14.1225474 C5.2760103,14.1039255 5.22500107,14.0925894 5.17156253,14.0909706 L5.1707529,14.0909706 L5.16994327,14.0909706 L5.14808158,14.0909706 L5.14727195,14.0909706 L5.14646232,14.0909706 C5.09302378,14.0925898 5.04201248,14.1039255 4.99505141,14.1241683 C4.94727987,14.1427911 4.90355649,14.1719399 4.86469172,14.2075649 C4.86388209,14.2083745 4.86469172,14.2083745 4.86388209,14.2083745 C4.86064336,14.2116132 4.856595,14.2156616 4.85335627,14.2189005 L3.12711805,15.9451388 C2.95870406,16.1135527 2.95870406,16.3872229 3.12711805,16.5556369 C3.29553204,16.7240509 3.56920218,16.7240509 3.73761617,16.5556369 L4.72704059,15.5654041 L4.72704059,17.1135277 C4.72704059,18.7806707 6.0832655,20.1368956 7.74957943,20.1368956 L9.47662604,20.1368956 C9.71547335,20.1368956 9.9089888,19.9433822 9.9089888,19.7045328 C9.9089888,19.4664939 9.71547542,19.2729785 9.47743442,19.2729785 L9.47746116,19.2729534 Z M11.2045078,4.59098447 L8.6232654,4.59098447 L8.60464265,4.59098447 L6.02257117,4.59098447 C5.78453225,4.59098447 5.5910168,4.78449784 5.5910168,5.02253884 C5.5910168,5.26057984 5.78453018,5.45409321 6.02257117,5.45409321 L7.91479822,5.45409321 L7.05086036,7.18113981 L6.02257117,7.18194965 C5.78453225,7.18194965 5.5910168,7.37546303 5.5910168,7.61350403 C5.5910168,7.85154502 5.78453018,8.0450584 6.02257117,8.0450584 L6.61930599,8.0450584 L5.63634866,10.010973 C5.52947159,10.2239105 5.61610644,10.483009 5.82986204,10.590711 C5.89139896,10.6214795 5.95698196,10.6360532 6.02256703,10.6360532 C6.18126379,10.6360532 6.33348516,10.5486065 6.40959792,10.3980143 L7.43546195,8.34709464 L9.14146976,10.4750184 C9.28964091,10.6612459 9.56168598,10.6912101 9.74873433,10.5414118 C9.9341514,10.3916198 9.96492608,10.1211956 9.81512779,9.93414724 L8.29940188,8.04515375 L10.3406209,8.04515375 C10.5794682,8.04515375 10.7729837,7.85164037 10.7729837,7.61359937 C10.7729837,7.37555838 10.5794703,7.182045 10.3406209,7.182045 L8.01681875,7.182045 L8.88075661,5.4549984 L11.2045588,5.45418856 C11.4425977,5.45418856 11.6361131,5.26067518 11.6361131,5.02263419 C11.6361131,4.78459319 11.4425998,4.59107981 11.2045588,4.59107981 L11.2045078,4.59098447 Z M22,10.2045078 L22,20.5684456 C22,20.8064846 21.8064866,21 21.5684456,21 L11.2045078,21 C10.9664688,21 10.7729534,20.8064866 10.7729534,20.5684456 L10.7729534,13.2270466 L3.43155437,13.2270466 C3.19351545,13.2270466 3,13.0335332 3,12.7954922 L3,2.43155437 C3,2.19351545 3.19351337,2 3.43155437,2 L13.7954922,2 C14.0335312,2 14.2270466,2.19351337 14.2270466,2.43155437 L14.2270466,9.7729534 L21.5684456,9.7729534 C21.8064846,9.7729534 22,9.96646677 22,10.2045078 Z M11.2045078,9.7729534 L13.3639379,9.7729534 L13.3639379,2.86310874 L3.86310874,2.86310874 L3.86310874,12.3631087 L10.7721243,12.3631087 L10.7721243,10.2036787 C10.7729341,9.96644811 10.9664481,9.77293267 11.204487,9.77293267 L11.2045078,9.7729534 Z M21.1368913,10.6360829 L11.6360621,10.6360829 L11.6360621,20.1360829 L21.1360621,20.1360829 L21.1368913,10.6360829 Z M13.4093319,17.7838835 L14.2683987,16.0649208 C14.2708278,16.0600626 14.2732569,16.0535851 14.2773053,16.0487269 L16.0003099,12.6018885 C16.1468622,12.3087756 16.6261882,12.3087756 16.7735634,12.6018885 L18.496568,16.0487269 C18.4998065,16.0535851 18.5022356,16.059253 18.5054744,16.0649208 L19.3645412,17.7838835 C19.4706099,17.996821 19.3847832,18.2559194 19.1710278,18.3636215 C19.107872,18.3943899 19.042289,18.4089637 18.9775144,18.4089637 C18.8196261,18.4089637 18.6674047,18.321517 18.5912919,18.1709248 L17.8472026,16.6819171 L14.9249867,16.6819171 L14.1817058,18.1709248 C14.0756371,18.3854998 13.8165428,18.4696964 13.6019679,18.3644382 C13.3890304,18.257559 13.3023879,17.9976584 13.4092629,17.7838918 L13.4093319,17.7838835 Z M15.358229,15.8179689 L17.4164448,15.8179689 L16.3865182,13.7613698 L15.358229,15.8179689 Z" id="translations" fill="#000000"></path>
    </g>
</svg>