<?xml version="1.0" encoding="UTF-8"?>
<svg width="24px" height="24px" viewBox="0 0 24 24" version="1.1" xmlns="http://www.w3.org/2000/svg" xmlns:xlink="http://www.w3.org/1999/xlink">
    <!-- Generator: Sketch 56.3 (81716) - https://sketch.com -->
    <title>menu-shape_2</title>
    <desc>Created with Sketch.</desc>
    <g id="menu-shape_2" stroke="none" stroke-width="1" fill="none" fill-rule="evenodd">
        <path d="M3.01810037,5.6300145 L3.01810037,21 L18.8557764,21 L18.8557764,20.6020944 L19.012262,20.7598985 L21.8935545,17.5303081 L22,17.5303081 L22,2.03640303 L6.60275106,2.03640303 C6.47537888,1.97250765 6.32072398,1.99186884 6.21335385,2.10126747 L3.10730608,5.23990099 C3.00540927,5.34349027 2.97629589,5.49646395 3.01905529,5.63004919 L3.01810037,5.6300145 Z M9.6559499,20.1325634 L9.6559499,17.654173 L12.2179269,17.654173 L12.2179269,20.1325634 L9.6559499,20.1325634 Z M18.1570554,20.2564829 L12.9166479,20.2564829 L12.9166479,16.9106559 L8.9572289,16.9106559 L8.9572289,20.2564829 L3.71682137,20.2564829 L3.71682137,6.3735316 L8.9572289,6.3735316 L8.9572289,9.59940446 L12.9166479,9.59940446 L12.9166479,6.3735316 L18.1570554,6.3735316 L18.1570554,20.2564829 Z M9.95989354,5.5100604 L10.9788617,4.27086524 L13.1496248,4.27086524 L12.2762235,5.5100604 L9.95989354,5.5100604 Z M12.2179968,6.37749702 L12.2179968,8.85588736 L9.65601978,8.85588736 L9.65601978,6.37749702 L12.2179968,6.37749702 Z M21.2694616,17.1498206 L18.8558463,19.8557272 L18.8558463,6.06670687 L21.3013698,3.59411597 L21.3013698,17.1139831 L21.2694616,17.1498206 Z M6.55532887,2.78011345 L21.0929181,2.78011345 L18.2735788,5.63026234 L13.0650796,5.63026234 L14.5471367,3.52749684 L10.6622479,3.52749684 L9.29573594,5.18878666 L8.93272708,5.63026234 L3.73610607,5.63026234 L6.55532887,2.78011345 Z" id="Shape" stroke="#000000" stroke-width="0.2" fill="#000000"></path>
    </g>
</svg>