<?xml version="1.0" encoding="UTF-8"?>
<svg width="24px" height="24px" viewBox="0 0 24 24" version="1.1" xmlns="http://www.w3.org/2000/svg" xmlns:xlink="http://www.w3.org/1999/xlink">
    <!-- Generator: Sketch 56.3 (81716) - https://sketch.com -->
    <title>menu-data-traps</title>
    <desc>Created with Sketch.</desc>
    <g id="menu-data-traps" stroke="none" stroke-width="1" fill="none" fill-rule="evenodd">
        <path d="M20.6098659,11.6178913 C20.6358592,9.80970729 21.2077138,8.3270656 22,8.01190442 L21.8034909,7.51696296 C21.0112047,7.83097955 19.5784566,7.14577017 18.3171762,5.84916408 C17.0570137,4.55255799 16.4123994,3.09895691 16.7503042,2.31611145 L16.2616399,2.10503598 C15.9237351,2.88798791 14.4223414,3.41724042 12.6174855,3.39019618 C10.8093822,3.36420178 9.32574212,2.79232159 9.01059503,2 L8.51567568,2.1965179 C8.83071631,2.98883949 8.14449948,4.42165164 6.84795133,5.68192369 C5.55140319,6.94219575 4.09893176,7.58785027 3.3150566,7.24886567 L3.10503129,7.73755183 C3.88794823,8.07547169 4.41613902,9.57379158 4.39013406,11.3818691 C4.36414081,13.1900531 3.79228618,14.6726948 3,14.987856 L3.19650912,15.4827975 C3.9887953,15.1677428 5.42258149,15.8539903 6.68282384,17.1516345 C7.94298634,18.4482406 8.58656248,19.9007769 8.24969579,20.6838885 L8.73836011,20.894964 C9.07626487,20.1120121 10.5693275,19.5817215 12.3825145,19.6098038 C14.1906178,19.6357982 15.6731932,20.2076784 15.9883403,21 L16.4832596,20.8034821 C16.168219,20.0111605 16.8544358,18.5773102 18.150984,17.3170116 C19.4475321,16.0567928 20.8989389,15.4121497 21.6830802,15.7500696 L21.8931055,15.2613834 C21.1122647,14.9245017 20.5840739,13.4261818 20.6100789,11.6178647 L20.6098659,11.6178913 Z M20.6878462,14.7279785 L18.3266119,13.7141923 C17.6320639,13.3658646 17.1933068,12.539232 17.2078664,11.5691265 C17.2224228,10.5594928 17.7194214,9.71310932 18.4732192,9.41365297 L18.4701002,9.40533474 L20.7949488,8.4778452 C20.3021056,9.33775076 20.0931344,10.5688491 20.0785748,11.6108241 C20.0619391,12.6381325 20.2324539,13.8557087 20.687868,14.7280983 L20.6878462,14.7279785 Z M14.6614566,7.1417508 C14.7924635,7.65436684 15.0742354,8.15865135 15.4942807,8.5901613 C15.9080976,9.01544256 16.3946857,9.31071984 16.8958335,9.45837178 L12.9977514,11.0138945 L14.6614566,7.1417508 Z M12.5092202,10.8049671 L10.9465005,6.89020746 C11.4018934,7.16054335 11.9581653,7.31756495 12.5601654,7.32586988 C13.153861,7.33418811 13.7069921,7.19797673 14.1654992,6.94842178 L12.5092202,10.8049671 Z M12.0143008,11.0025258 L8.14123888,9.33887938 C8.65383202,9.20786656 9.15809398,8.92608212 9.58958465,8.50601806 C10.0148469,8.09218268 10.310111,7.60557276 10.4587944,7.1044026 L12.0143008,11.0025258 Z M11.8042755,11.491212 L7.88969081,13.0529634 C8.16001462,12.5975501 8.31702921,12.0412534 8.32533376,11.4402644 C8.33365162,10.8465423 8.19744632,10.2933865 7.94790253,9.83485896 L11.8042755,11.491212 Z M12.0018254,11.9861534 L10.3382533,15.8593885 C10.2072463,15.3467724 9.92443642,14.8424879 9.5054292,14.4099398 C9.09161232,13.9846586 8.60502414,13.6893813 8.10387638,13.5417294 L12.0018254,11.9861534 Z M12.4915278,12.1961881 L14.0542474,16.1120125 C13.5988546,15.8416766 13.0425827,15.684655 12.4405825,15.6763501 L12.3885966,15.6763501 C11.8157156,15.6763501 11.2812698,15.8115207 10.8362842,16.0527601 L12.4915278,12.1961881 Z M12.985409,11.9986294 L16.858471,13.6622759 C16.3458779,13.7932887 15.8416159,14.0761112 15.4101252,14.4951372 C14.984863,14.9089726 14.6895989,15.3955825 14.5419535,15.8967526 L12.985409,11.9986294 Z M13.1954343,11.5099433 L17.1100191,9.94819188 C16.8396953,10.4036051 16.6826807,10.9599018 16.6743761,11.5619289 C16.6660583,12.155651 16.8022636,12.7077687 17.0507693,13.1673344 L13.1954343,11.5099433 Z M17.9356832,6.21954767 C18.6520572,6.95674267 19.6304505,7.69811675 20.5682793,7.99342065 L18.1831428,8.94481345 C17.4449427,9.18916185 16.5507661,8.91466019 15.8749299,8.21903772 C15.1710393,7.49533822 14.9246177,6.54602164 15.2458867,5.80052172 L15.2375689,5.79740232 L16.2253048,3.49845591 C16.486278,4.45610403 17.2099265,5.47300457 17.9356698,6.21964909 L17.9356832,6.21954767 Z M15.7272846,3.31229228 L14.7125056,5.67570831 C14.3631555,6.37028735 13.5417767,6.80906411 12.5675357,6.79346576 C11.5579471,6.77890898 10.7126395,6.28188783 10.4121585,5.52805636 L10.4038406,5.53117577 L9.47639255,3.20622324 C10.3372977,3.70012659 11.567303,3.90806908 12.6092315,3.92262932 C13.6302389,3.93718636 14.8540157,3.76770258 15.727431,3.31227072 L15.7272846,3.31229228 Z M7.21911156,6.06462892 C7.95627362,5.34822284 8.69761457,4.36874768 8.99290527,3.430877 L9.94425556,5.81508195 C10.1896311,6.55331507 9.91514171,7.44856979 9.21955033,8.12443613 C8.4948451,8.82732009 7.54660902,9.07479082 6.80010434,8.75350742 L6.79698508,8.76182565 L4.49917948,7.77404557 C5.45574673,7.51410149 6.47260183,6.79041796 7.21918636,6.06464222 L7.21911156,6.06462892 Z M4.3119861,8.27312619 L6.67322037,9.28691239 C7.36880643,9.63524002 7.80756359,10.4618727 7.793004,11.4330163 C7.77844788,12.44265 7.28144894,13.2879953 6.52765116,13.5884898 L6.53077042,13.596808 L4.2059218,14.5242976 C4.69876501,13.664392 4.90773628,12.4332937 4.92229586,11.3913186 C4.93789191,10.3629722 4.76737604,9.14539597 4.31196454,8.27297979 L4.3119861,8.27312619 Z M7.06526442,16.7816794 C6.34889036,16.0444844 5.36945897,15.3020722 4.4316302,15.0067683 L6.81572861,14.0553755 C7.55392873,13.8110271 8.44810538,14.0855288 9.12394151,14.7811513 C9.82783213,15.5048508 10.0742537,16.4541673 9.75298469,17.1996673 L9.76130255,17.2027867 L8.77356662,19.5017331 C8.51363415,18.5451231 7.79102103,17.5282225 7.06527773,16.7816046 L7.06526442,16.7816794 Z M12.26599,19.0775115 C11.2647325,19.0775115 10.1095747,19.2521944 9.27262493,19.6899463 L10.2863658,17.3286065 C10.635716,16.6329894 11.4716543,16.1931745 12.4313357,16.2077347 C13.4409243,16.2222915 14.28727,16.7193127 14.5867129,17.4731441 L14.5950308,17.4700247 L15.5224789,19.7949772 C14.6626118,19.302112 13.4315684,19.0931314 12.38964,19.0785712 C12.3490914,19.0775315 12.3075021,19.0775315 12.2659128,19.0775315 L12.26599,19.0775115 Z M17.7807979,16.9365982 C17.0436359,17.6530043 16.3012569,18.6324794 16.0059662,19.5703501 L15.0546159,17.1861452 C14.8092377,16.447912 15.0847678,15.5536954 15.7803592,14.8778291 C16.5050644,14.173907 17.4533005,13.9274744 18.1998052,14.2487578 L18.2029244,14.2404396 L20.5017681,15.2282196 C19.5441628,15.4871256 18.5273077,16.2108091 17.7806965,16.9365849 L17.7807979,16.9365982 Z" id="Shape" fill="#000000"></path>
    </g>
</svg>