<?xml version="1.0" encoding="UTF-8"?>
<svg width="24px" height="24px" viewBox="0 0 24 24" version="1.1" xmlns="http://www.w3.org/2000/svg" xmlns:xlink="http://www.w3.org/1999/xlink">
    <!-- Generator: Sketch 56.3 (81716) - https://sketch.com -->
    <title>menu-support-cpm</title>
    <desc>Created with Sketch.</desc>
    <g id="menu-support-cpm" stroke="none" stroke-width="1" fill="none" fill-rule="evenodd">
        <path d="M12.2420222,3.12296704 L12.2420947,3.12296704 C11.5774576,3.12296704 10.9332386,3.66251011 10.3496096,4.69600058 L4.5501689,16.5765593 L4.52971852,16.6213028 L4.48960309,16.6660464 C4.147452,17.2275307 4.00665533,17.6319791 4.00665533,18.0811665 C4.00665533,19.0918383 4.77118838,19.8550976 5.7984592,19.8550976 L18.6856578,19.8542201 C19.7121231,19.8542201 20.4774616,19.0909608 20.4774616,18.080289 C20.4774616,17.6311016 20.336669,17.2266532 19.9945139,16.6651689 L19.9543984,16.6204253 L19.9339481,16.5756818 L14.1345073,4.69512309 C13.5508783,3.66163262 12.9066795,3.12296704 12.2420222,3.12296704 Z M12.2420947,2 L12.2421753,2 C13.2890588,2 14.2353013,2.71852023 15.0006399,4.13364036 L20.8196127,16.0371076 C21.2427961,16.7556278 21.48427,17.3846699 21.48427,18.1031902 C21.48427,19.7875533 20.2360643,21 18.6857343,21 L5.79853571,21 C4.2687447,21 3,19.7648244 3,18.1031902 C3,17.3846699 3.22182091,16.7556278 3.66465727,16.0371076 L9.48363015,4.13364036 C10.2489284,2.71852023 11.1951709,2 12.2420947,2 Z M11.3153521,8.38913691 C11.2949017,8.12935011 11.395583,7.88985417 11.5772844,7.69014107 C11.939898,7.33049772 12.5439854,7.33049772 12.906599,7.69014107 C13.1079614,7.88985417 13.2086427,8.16913296 13.1685313,8.44921061 L13.1685313,8.50928032 L12.5644438,14.1216178 C12.5439935,14.3002672 12.4031968,14.4204086 12.2419417,14.4204086 C12.101145,14.4204086 11.9603564,14.2604823 11.939898,14.1208389 L11.2956991,8.50850144 C11.2956991,8.46871459 11.2956991,8.42892775 11.3153636,8.38914091 L11.3153521,8.38913691 Z M13.1882245,16.3063939 C13.1882245,17.7144843 11.2957394,17.7144843 11.2957394,16.3063939 C11.2957394,14.8991795 13.1882245,14.8991795 13.1882245,16.3063939 Z" id="Hazards" fill="#000000"></path>
    </g>
</svg>