<?xml version="1.0" encoding="UTF-8"?>
<svg width="24px" height="24px" viewBox="0 0 24 24" version="1.1" xmlns="http://www.w3.org/2000/svg" xmlns:xlink="http://www.w3.org/1999/xlink">
    <!-- Generator: Sketch 56.3 (81716) - https://sketch.com -->
    <title>menu-auth-grower</title>
    <desc>Created with Sketch.</desc>
    <g id="menu-auth-grower" stroke="none" stroke-width="1" fill="none" fill-rule="evenodd">
        <path d="M20.1592486,11.2519111 L19.1466647,11.2518948 L19.1458943,20.3871028 L20.1582951,20.3871028 C20.3285697,20.3871028 20.4664848,20.5242388 20.4664848,20.6935514 C20.4664848,20.862864 20.3285697,21 20.1582951,21 L4.30896054,21 C4.13868597,21 4.00077082,20.862864 4.00077082,20.6935514 C4.00077082,20.5242388 4.13868597,20.3871028 4.30896054,20.3871028 L5.32136132,20.3871028 L5.32136132,11.2526793 L4.30896054,11.2526793 C4.27274899,11.2526793 4.23653744,11.2442509 4.20109513,11.2312269 C4.19493133,11.2289287 4.18876754,11.2273964 4.18260374,11.2243319 C4.1779808,11.2220335 4.17335785,11.2212674 4.16873511,11.218969 C4.1556363,11.2120732 4.14716084,11.2005817 4.13483325,11.1921545 C4.11634187,11.1791297 4.09862071,11.167639 4.08321123,11.1515503 C4.06934318,11.1369937 4.06086791,11.1209049 4.0508518,11.1040503 C4.04006466,11.0871971 4.0285077,11.071108 4.02157328,11.051955 C4.01463906,11.0320363 4.01232759,11.0105859 4.00924569,10.9891335 C4.00616379,10.974577 4,10.9607863 4,10.9454639 C4,10.9416333 4.00231147,10.9385688 4.00231147,10.9347383 C4.0030819,10.9148176 4.01001631,10.8964307 4.01463906,10.8765121 C4.01926181,10.8558265 4.0223439,10.835141 4.0315894,10.8167541 C4.03313044,10.8136896 4.03313044,10.809859 4.03467149,10.8067946 L6.67593139,5.67002971 C6.67824286,5.66466681 6.6828658,5.6623684 6.6859477,5.6570055 C6.69596362,5.63938544 6.71060248,5.62482908 6.72447092,5.60874058 C6.73833897,5.59418403 6.75066636,5.57886258 6.76684627,5.56660463 C6.77146922,5.56277388 6.77455092,5.55741118 6.77917386,5.55434669 L12.0630743,2.05171283 C12.1670995,1.98276239 12.3019258,1.98276239 12.4051699,2.05171283 L17.6867034,5.55434669 C17.6913264,5.55741118 17.6936379,5.56200781 17.6982606,5.56583856 C17.7144403,5.57732965 17.7275385,5.59341874 17.7414072,5.60874136 C17.7552752,5.62406477 17.7699141,5.63862054 17.7799304,5.65624139 C17.7822417,5.66160429 17.787635,5.6639027 17.7899465,5.6692654 L20.4319954,10.8060302 C20.4335362,10.8090945 20.4335362,10.8129253 20.4350773,10.8159898 C20.444323,10.8343767 20.4474049,10.8558291 20.4520276,10.8757477 C20.457421,10.8956664 20.4635848,10.9148202 20.4643552,10.9347389 C20.4643552,10.9385694 20.4666667,10.9416339 20.4666667,10.9454645 C20.4666667,10.9607879 20.4605029,10.9738109 20.4581914,10.9883673 C20.4543391,11.0098196 20.4527982,11.0312701 20.4450934,11.0519556 C20.4381604,11.0703425 20.4273726,11.0856645 20.4165861,11.1025191 C20.4065702,11.1186074 20.3980953,11.1354616 20.3842267,11.150784 C20.3695874,11.1668723 20.351866,11.1783634 20.3341451,11.1906214 C20.3218175,11.1990478 20.3133426,11.2113057 20.299474,11.2182008 C20.2948512,11.2204992 20.2902283,11.2212652 20.2856054,11.2235637 C20.2794416,11.2258619 20.2732778,11.2281603 20.267114,11.2304587 C20.2316736,11.2434837 20.1954601,11.2519111 20.1592486,11.2519111 Z M12.2340882,2.67527305 L7.18825809,6.01943622 L4.81287964,10.63921 L19.6552967,10.63921 L17.2791293,6.02022072 L12.2340882,2.67527305 Z M15.6242738,19.9536782 L15.623682,14.0788871 L12.6695972,17.0162826 L15.6242738,19.9536782 Z M15.1881927,20.3872956 L12.2335162,17.4499001 L9.27943138,20.3872956 L15.1881927,20.3872956 Z M12.2341079,16.5828221 L15.1881927,13.6454266 L9.27943138,13.6454266 L12.2341079,16.5828221 Z M11.7980268,17.0164395 L8.84394205,14.0792401 L8.84394205,19.9538351 L11.7980268,17.0164395 Z M18.5304683,20.3874721 L18.5298951,20.3874721 L18.5298951,11.2522641 L5.9380027,11.2522641 L5.93877313,20.3874721 L8.22775984,20.3874721 L8.22775984,13.3390564 C8.22775984,13.2992171 8.2354637,13.2593798 8.2516438,13.2218391 C8.28246278,13.1467597 8.34256027,13.0877686 8.41806626,13.0563569 C8.45582024,13.040269 8.49588589,13.0326079 8.53594956,13.0326079 L15.9325029,13.0326079 C15.9725686,13.0326079 16.0126323,13.0402682 16.0503862,13.0563569 C16.1258922,13.0870017 16.1852185,13.1467597 16.2168087,13.2218391 C16.232988,13.2593798 16.2406926,13.2992191 16.2406926,13.3390564 L16.2406926,20.3874721 L18.5304683,20.3874721 Z M10.616287,9.6 C10.4599553,9.6 10.3333333,9.473378 10.3333333,9.31704632 L10.3333333,6.08295368 C10.3333333,5.926622 10.4599553,5.8 10.616287,5.8 L13.8503797,5.8 C14.0067113,5.8 14.1333333,5.926622 14.1333333,6.08295368 L14.1333333,9.31704632 C14.1333333,9.473378 14.0067113,9.6 13.8503797,9.6 L10.616287,9.6 Z M10.8992407,6.36590736 L10.8992407,9.03409264 L13.567426,9.03409264 L13.567426,6.36590736 L10.8992407,6.36590736 Z" id="Combined-Shape" stroke="#000000" stroke-width="0.2" fill="#000000"></path>
    </g>
</svg>