<?xml version="1.0" encoding="UTF-8"?>
<svg width="24px" height="24px" viewBox="0 0 24 24" version="1.1" xmlns="http://www.w3.org/2000/svg" xmlns:xlink="http://www.w3.org/1999/xlink">
    <!-- Generator: Sketch 56.3 (81716) - https://sketch.com -->
    <title>menu-resources</title>
    <desc>Created with Sketch.</desc>
    <g id="menu-resources" stroke="none" stroke-width="1" fill="none" fill-rule="evenodd">
        <path d="M21.0726044,14.3412517 L21.0726773,14.3412647 C21.5461536,14.5149605 21.8017511,15.0351803 21.68704,15.5782833 L21.4699279,16.6407602 C21.3713839,17.16098 20.9179239,17.5083673 20.4252039,17.4431273 L19.479024,17.3126472 C19.4389915,17.2906185 19.38048,17.3126472 19.3604637,17.3558586 C19.2226598,17.5727614 19.084852,17.7684859 18.9270279,17.9633601 C18.887764,17.9853887 18.8677477,18.0286001 18.887764,18.0718115 L19.2226559,19.1131187 C19.3804839,19.6121688 19.183396,20.1755956 18.7299359,20.4145358 L17.8430401,20.8915486 C17.4096042,21.1296211 16.8776243,20.956793 16.6212523,20.5009499 L16.1085082,19.5901315 C16.088492,19.5469201 16.0292118,19.5248914 15.989948,19.5248914 C15.7528117,19.5469201 15.5164638,19.5469201 15.2801159,19.5248914 C15.2208358,19.5248914 15.1815719,19.5469201 15.1615557,19.5901315 L14.6488116,20.5009499 C14.4709594,20.8263085 14.1560917,21 13.8404356,21 C13.7018433,21 13.5640433,20.9567886 13.4262355,20.8915486 L12.5393396,20.4145358 C12.0858835,20.1755956 11.8887955,19.6333385 12.0466196,19.1131187 L12.3815115,18.0938488 C12.3815115,18.0506375 12.3622639,18.0074261 12.3422477,17.9853974 C12.1844196,17.8117016 12.0466196,17.5947988 11.9088118,17.3778959 C11.8887955,17.3346845 11.8695479,17.3126559 11.8102678,17.3126559 L10.8248279,17.4431359 C10.332108,17.5083803 9.89866424,17.1389514 9.78010399,16.6187316 L9.56299188,15.5562547 C9.46444789,15.0360349 9.72081993,14.4937734 10.1935157,14.3200819 L11.1196715,13.9726903 C11.1589354,13.9726903 11.1981993,13.9294789 11.1981993,13.8862676 C11.2374631,13.6261577 11.2967433,13.3660478 11.3560234,13.1271076 C11.3560234,13.0830503 11.3560234,13.0398389 11.3167595,12.9966275 L10.6269516,12.2374675 C10.272816,11.8468689 10.2327678,11.2614047 10.5484239,10.827599 L11.1789477,9.98202492 C11.4745797,9.54821054 12.0257953,9.46093751 12.4399954,9.74308474 L13.2676072,10.3285489 C13.3076398,10.3505776 13.3469036,10.3505776 13.3861675,10.3285489 C13.5832555,10.2200975 13.8003676,10.0896174 14.0367155,10.0031946 C14.0759793,9.98116598 14.1152432,9.9379546 14.1152432,9.89474321 L14.2137872,8.83226629 C14.2530471,8.31117888 14.6672472,7.8994105 15.1599671,7.8994105 L16.145407,7.8994105 C16.638127,7.8994105 17.0323069,8.29000916 17.091587,8.83226629 L17.1893603,9.89474321 C17.1893603,9.9379546 17.2093766,9.98116598 17.2486405,10.0031946 C17.4849884,10.0896087 17.7021005,10.1980688 17.8991885,10.3285489 C17.939221,10.3505776 17.9784848,10.3505776 18.0177487,10.3285489 L18.8453605,9.76425446 C19.2587723,9.48297484 19.7907521,9.59142626 20.1064082,10.0031946 L20.7176963,10.8487687 C21.0333445,11.2825744 20.9940846,11.8900759 20.6391686,12.2586372 L19.9493606,12.9957599 C19.9100968,13.0398172 19.8900805,13.0830286 19.9100968,13.12624 C19.9893931,13.3872175 20.028657,13.6473274 20.0679209,13.9074373 C20.0679209,13.9506487 20.1071847,13.9718314 20.1464486,13.9938601 L21.0726044,14.3412517 Z M20.659173,16.4018287 L20.8962619,15.3173362 C20.9162782,15.2520961 20.8770143,15.187702 20.8177342,15.1656734 L19.8915784,14.8182818 C19.5566865,14.6886606 19.3003184,14.3633063 19.2610545,13.9727077 C19.2410383,13.7558048 19.2017744,13.5389107 19.1424943,13.3440365 C19.0239262,12.9754751 19.1224702,12.5848765 19.3788422,12.3027293 L20.0686501,11.5656066 C20.1279302,11.5223952 20.1279302,11.4351265 20.0886664,11.3919151 L19.4773783,10.5463411 C19.4381144,10.5022838 19.3788343,10.481101 19.3195542,10.5243124 L18.4919424,11.1097766 C18.1762863,11.3054967 17.8021345,11.3266794 17.5065025,11.1318052 C17.3486744,11.0233495 17.1716106,10.9360808 16.9745226,10.849658 C16.6388424,10.7191693 16.4024984,10.3726453 16.3632346,9.98204661 L16.2646906,8.91956968 C16.2646906,8.85432964 16.2054105,8.81111826 16.1461303,8.81111826 L15.1606905,8.81111826 C15.1014103,8.81111826 15.0421302,8.85432964 15.0421302,8.91956968 L14.9435862,9.98204661 C14.903538,10.3726453 14.6671901,10.7191779 14.3322982,10.849658 C14.1352102,10.936931 13.9581424,11.0233538 13.8003183,11.1318052 C13.4846622,11.3266794 13.1105104,11.3266794 12.8148784,11.1097766 L11.9872666,10.5454821 C11.9279865,10.5022707 11.8687064,10.5242994 11.8294425,10.5675108 L11.2181544,11.4130849 C11.1788906,11.4562962 11.1788906,11.5435649 11.2181544,11.5867763 L11.9079623,12.3459363 C12.1643265,12.6060462 12.2428542,13.0186822 12.1443102,13.3872435 C12.0850301,13.582109 12.0457663,13.7990119 12.02575,14.0159147 C11.9864901,14.4056458 11.7501422,14.7310087 11.3952262,14.8614888 L10.4690703,15.2088804 C10.4105589,15.2300631 10.3705264,15.2953032 10.3905426,15.3605432 L10.6061174,16.4026964 C10.625365,16.4679364 10.7046614,16.5111478 10.7439253,16.5111478 L11.7293652,16.3806677 L11.8279092,16.3806677 C12.1435653,16.3806677 12.4391893,16.5543635 12.6162611,16.8576805 C12.714805,17.0313763 12.8333692,17.2050677 12.9711771,17.3567305 C13.2075289,17.6388778 13.2868253,18.0294764 13.1682651,18.3980377 L12.8333732,19.4173076 C12.8141256,19.460519 12.8333732,19.5469418 12.8926533,19.5689704 L13.7795492,20.0459832 C13.8388293,20.0891946 13.8981094,20.0680118 13.9373733,20.0027718 L14.4501174,19.0919533 C14.6472053,18.7445661 15.0021214,18.5496919 15.3762732,18.5929033 C15.5341012,18.6149319 15.7119455,18.6149319 15.8890172,18.5929033 C16.2631691,18.5496962 16.6180851,18.7445617 16.8151731,19.0919533 L17.3279171,20.0027718 C17.367181,20.0459832 17.4264611,20.0680118 17.4857412,20.0459832 L18.352613,19.5689704 C18.4118931,19.5477877 18.4319094,19.4825477 18.4118931,19.4173076 L18.0770012,18.3760004 C17.9784572,18.0286088 18.0577654,17.6168404 18.2941133,17.3346932 C18.4319173,17.1830347 18.5504854,17.0093346 18.6490294,16.8356431 C18.8461173,16.5102802 19.2010334,16.31456 19.5751852,16.3798001 L20.5213651,16.5102802 C20.5806452,16.5102802 20.6391567,16.4670688 20.659173,16.4018287 Z M15.6335676,11.8900325 C16.9931593,11.8900325 18.0971673,13.1050355 18.0971673,14.6013182 C18.0971673,16.0976008 16.9931593,17.3126038 15.6335676,17.3126038 C14.2739759,17.3126038 13.1699679,16.0976008 13.1699679,14.6013182 C13.1699679,13.1050355 14.2739759,11.8900325 15.6335676,11.8900325 Z M15.6335676,16.3805723 C16.5204635,16.3805723 17.2495313,15.5773593 17.2495313,14.6021424 C17.2495313,13.6260796 16.5204635,12.8237126 15.6335676,12.8237126 C14.7466717,12.8237126 14.0176039,13.6260796 14.0176039,14.6021424 C14.0176039,15.5782052 14.7466717,16.3805723 15.6335676,16.3805723 Z M9.81947232,13.1272464 L9.81949005,13.1272854 C9.83874555,13.365358 9.661662,13.6042982 9.4253141,13.6042982 C9.20899034,13.6263268 8.99187823,13.6263268 8.75553033,13.6042982 C8.69625021,13.6042982 8.65698634,13.6042982 8.61772248,13.6695382 L8.1049784,14.5803567 C7.92712621,14.9057153 7.61225846,15.0794068 7.29660236,15.0794068 C7.13877431,15.0794068 7.00097434,15.0361954 6.86316649,14.9709553 L5.9762706,14.4939426 C5.54283867,14.2770397 5.34575069,13.7127453 5.5035748,13.1925255 L5.83846669,12.1732556 C5.83846669,12.1300442 5.81921908,12.0868328 5.79920282,12.0648042 C5.64137477,11.869071 5.48432719,11.6742055 5.36576695,11.4573027 C5.36576695,11.435274 5.32650308,11.3920626 5.28723921,11.3920626 L4.2817752,11.5225427 C3.78905526,11.5877871 3.33559525,11.2183582 3.23705126,10.6981384 L3.01993915,9.65683115 C2.92139516,9.13661135 3.19700299,8.59434989 3.650463,8.42065842 L4.57661881,8.07326681 C4.61588268,8.07326681 4.65514654,8.03005543 4.65514654,7.98684404 C4.69441041,7.70469681 4.75369053,7.44458692 4.81297065,7.20564673 C4.83298691,7.16243535 4.79372304,7.11922396 4.77370679,7.09719531 L4.08389887,6.33803533 C3.7289927,5.94743668 3.68971307,5.33993517 4.00383188,4.97052793 L4.61511995,4.12495385 C4.9299877,3.69113947 5.46196756,3.60386644 5.87616765,3.88601367 L6.70377947,4.45030813 C6.72379573,4.47233678 6.78307585,4.47233678 6.82233971,4.45030813 C7.01942769,4.3418567 7.2365398,4.23340528 7.4728877,4.12495385 C7.53139918,4.1029252 7.55141543,4.05971381 7.55141543,4.01650243 L7.64995942,2.9540255 C7.68921935,2.41176837 8.10341943,2 8.59613937,2 L9.58157925,2 C10.0550634,2 10.4684791,2.39059865 10.5277592,2.93285578 L10.6263032,3.99533271 C10.6263032,4.03854409 10.6263032,4.08175548 10.6855833,4.10378413 C10.9219312,4.21223556 11.1390433,4.32069566 11.3361313,4.45117574 C11.3753952,4.47320439 11.414659,4.47320439 11.4346753,4.45117574 L12.2823112,3.86571156 C12.695723,3.58443195 13.247727,3.67084604 13.5433589,4.10465174 L14.154647,4.95022582 C14.4702952,5.38403152 14.4310353,5.99153303 14.0761193,6.36009435 L13.3863114,7.097217 C13.3470475,7.11924565 13.3270312,7.16245704 13.3470475,7.20566842 C13.4263439,7.44460861 13.4656077,7.7047185 13.5048716,7.9648284 C13.5441315,8.20290097 13.3863035,8.44183682 13.1499556,8.4850482 C12.9336318,8.50621792 12.7165236,8.35455945 12.6772598,8.09444955 C12.6572435,7.8775467 12.6179797,7.66065252 12.5586995,7.46577832 C12.4601555,7.11838672 12.5586995,6.70661835 12.7973534,6.42447112 L13.4871613,5.66531114 C13.5264251,5.62209975 13.5264251,5.53483106 13.4871613,5.49161967 L12.8758732,4.66721532 C12.8366093,4.60197528 12.757313,4.60197528 12.7180491,4.62400393 L11.8904373,5.18829839 C11.5948053,5.40520124 11.2206535,5.40520124 10.9049974,5.21032704 C10.7664051,5.12390861 10.5893413,5.03663991 10.3922533,4.95021714 C10.0565731,4.81972839 9.82022913,4.49437411 9.78096527,4.08260574 L9.68242128,3.02012881 C9.68242128,2.95488877 9.62314116,2.91167739 9.56386104,2.91167739 L8.57842116,2.91167739 C8.51914104,2.91167739 8.45986092,2.95488877 8.45986092,3.02012881 L8.36131693,4.08260574 C8.32126866,4.47320439 8.08492076,4.81973706 7.75002887,4.95021714 C7.57217668,5.01545284 7.3951089,5.10187562 7.23728479,5.21032704 C6.92162869,5.40520124 6.54747688,5.40520124 6.25184492,5.18829839 L5.42423309,4.62400393 C5.38496923,4.58079254 5.30567285,4.6028212 5.26640899,4.64603258 L4.65512092,5.49160666 C4.61585706,5.53481804 4.63587331,5.62208674 4.67513718,5.66529812 L5.38420058,6.42530402 C5.64056474,6.70745125 5.71909247,7.09804991 5.62054848,7.46661123 C5.56126836,7.66234436 5.5220045,7.85720989 5.50198824,8.07411274 C5.46272832,8.44267406 5.20635628,8.78920673 4.87146439,8.91968681 L3.94530858,9.26707842 C3.8867971,9.28826115 3.84676459,9.35350119 3.86678085,9.41874123 L4.08389296,10.4812182 C4.10314057,10.5464582 4.16242069,10.5896696 4.22170081,10.5896696 L5.20714069,10.4591895 C5.56205672,10.4159825 5.8969486,10.5896783 6.09403658,10.9150325 C6.19258056,11.0887283 6.31114475,11.2624198 6.4489526,11.4140826 C6.68530444,11.7173996 6.76460082,12.1291679 6.64604058,12.4765595 L6.31114869,13.4958294 C6.29190108,13.5610695 6.33116495,13.6254636 6.37042881,13.6474922 L7.2573247,14.124505 C7.29658857,14.1465336 7.35586869,14.1465336 7.39513255,14.0812936 L7.90787663,13.1924908 C8.1049646,12.8451035 8.45988063,12.6502293 8.83403244,12.6934407 C8.99186049,12.7154694 9.18894058,12.7154694 9.3660123,12.6934407 C9.58312442,12.6714034 9.79945606,12.8671365 9.81947232,13.1272464 Z M9.07034092,6.90126696 L9.07027391,6.90126696 C8.18337803,6.90126696 7.47354795,7.70447991 7.43505469,8.70173415 C7.43505469,9.65575965 8.12486261,10.4369526 8.99173436,10.480164 C9.22886272,10.480164 9.40593444,10.6970669 9.40593444,10.9571768 C9.40593444,11.2181456 9.20884647,11.4130198 8.99173436,11.4130198 L8.9717181,11.4130198 C7.65138634,11.347732 6.6066624,10.1768471 6.6066624,8.70173415 C6.6066624,7.20545152 7.7106704,5.99044851 9.07026209,5.99044851 C10.1943731,5.99044851 11.1597888,6.81485287 11.4554208,7.98578122 C11.5147048,8.2247214 11.3769009,8.48483564 11.1597888,8.55007568 C10.9426767,8.61532005 10.7063248,8.46366158 10.6470447,8.2247214 C10.4499567,7.44352409 9.79940876,6.90126696 9.07034092,6.90126696 Z" id="resources" fill="#000000"></path>
    </g>
</svg>