<?xml version="1.0" encoding="UTF-8"?>
<svg width="24px" height="24px" viewBox="0 0 24 24" version="1.1" xmlns="http://www.w3.org/2000/svg" xmlns:xlink="http://www.w3.org/1999/xlink">
    <!-- Generator: Sketch 56.3 (81716) - https://sketch.com -->
    <title>menu-data-ref-points</title>
    <desc>Created with Sketch.</desc>
    <g id="menu-data-ref-points" stroke="none" stroke-width="1" fill="none" fill-rule="evenodd">
        <path d="M13.984375,3.01359465 L11.4354697,5.5625 L12.3770303,5.5625 L13.984375,3.95515535 L13.984375,3.01359465 Z M13.5645303,2.59375 L12.6229697,2.59375 L11.015625,4.20109465 L11.015625,5.14265535 L13.5645303,2.59375 Z M10.71875,6.15625 C10.6427731,6.15625 10.5667961,6.12726578 10.5088277,6.06929733 C10.4508592,6.01132888 10.421875,5.93535194 10.421875,5.859375 L10.421875,4.375 L7.15625,4.375 L7.15625,5.859375 C7.15625,6.02333454 7.02333454,6.15625 6.859375,6.15625 L5.375,6.15625 L5.375,9.421875 L6.859375,9.421875 C7.02333454,9.421875 7.15625,9.55479046 7.15625,9.71875 L7.15625,13.28125 C7.15625,13.4452095 7.02333454,13.578125 6.859375,13.578125 L5.375,13.578125 L5.375,16.84375 L6.859375,16.84375 C7.02333454,16.84375 7.15625,16.9766655 7.15625,17.140625 L7.15625,18.625 L10.421875,18.625 L10.421875,17.140625 C10.421875,16.9766655 10.5547905,16.84375 10.71875,16.84375 L14.28125,16.84375 C14.4452095,16.84375 14.578125,16.9766655 14.578125,17.140625 L14.578125,18.625 L17.84375,18.625 L17.84375,17.140625 C17.84375,16.9766655 17.9766655,16.84375 18.140625,16.84375 L19.625,16.84375 L19.625,13.578125 L18.140625,13.578125 C17.9766655,13.578125 17.84375,13.4452095 17.84375,13.28125 L17.84375,9.71875 C17.84375,9.55479046 17.9766655,9.421875 18.140625,9.421875 L19.625,9.421875 L19.625,6.15625 L18.140625,6.15625 C17.9766655,6.15625 17.84375,6.02333454 17.84375,5.859375 L17.84375,4.375 L14.578125,4.375 L14.578125,5.859375 C14.578125,6.02333454 14.4452095,6.15625 14.28125,6.15625 L10.71875,6.15625 Z M13.984375,4.79484465 L13.2167197,5.5625 L13.984375,5.5625 L13.984375,4.79484465 Z M11.7832803,2.59375 L11.015625,2.59375 L11.015625,3.36140535 L11.7832803,2.59375 Z M7.15625,3.78125 L10.421875,3.78125 L10.421875,2.296875 C10.421875,2.13291546 10.5547905,2 10.71875,2 L14.28125,2 C14.4452095,2 14.578125,2.13291546 14.578125,2.296875 L14.578125,3.78125 L17.84375,3.78125 L17.84375,2.296875 C17.84375,2.13291546 17.9766655,2 18.140625,2 L21.703125,2 C21.8670845,2 22,2.13291546 22,2.296875 L22,5.859375 C22,6.02333454 21.8670845,6.15625 21.703125,6.15625 L20.21875,6.15625 L20.21875,9.421875 L21.703125,9.421875 C21.8670845,9.421875 22,9.55479046 22,9.71875 L22,13.28125 C22,13.4452095 21.8670845,13.578125 21.703125,13.578125 L20.21875,13.578125 L20.21875,16.84375 L21.703125,16.84375 C21.8670845,16.84375 22,16.9766655 22,17.140625 L22,20.703125 C22,20.8670845 21.8670845,21 21.703125,21 L18.140625,21 C17.9766655,21 17.84375,20.8670845 17.84375,20.703125 L17.84375,19.21875 L14.578125,19.21875 L14.578125,20.703125 C14.578125,20.8670845 14.4452095,21 14.28125,21 L10.71875,21 C10.5547905,21 10.421875,20.8670845 10.421875,20.703125 L10.421875,19.21875 L7.15625,19.21875 L7.15625,20.703125 C7.15625,20.8670845 7.02333454,21 6.859375,21 L3.296875,21 C3.13291546,21 3,20.8670845 3,20.703125 L3,17.140625 C3,16.9766655 3.13291546,16.84375 3.296875,16.84375 L4.78125,16.84375 L4.78125,13.578125 L3.296875,13.578125 C3.13291546,13.578125 3,13.4452095 3,13.28125 L3,9.71875 C3,9.55479046 3.13291546,9.421875 3.296875,9.421875 L4.78125,9.421875 L4.78125,6.15625 L3.296875,6.15625 C3.13291546,6.15625 3,6.02333454 3,5.859375 L3,2.296875 C3,2.13291546 3.13291546,2 3.296875,2 L6.859375,2 C7.02333454,2 7.15625,2.13291546 7.15625,2.296875 L7.15625,3.78125 Z M6.5625,4.078125 L6.5625,2.59375 L3.59375,2.59375 L3.59375,5.5625 L5.078125,5.5625 L6.5625,5.5625 L6.5625,4.078125 Z M19.921875,5.5625 L21.40625,5.5625 L21.40625,2.59375 L18.4375,2.59375 L18.4375,4.078125 L18.4375,5.5625 L19.921875,5.5625 Z M19.921875,10.015625 L18.4375,10.015625 L18.4375,12.984375 L19.921875,12.984375 L21.40625,12.984375 L21.40625,10.015625 L19.921875,10.015625 Z M5.078125,10.015625 L3.59375,10.015625 L3.59375,12.984375 L5.078125,12.984375 L6.5625,12.984375 L6.5625,10.015625 L5.078125,10.015625 Z M5.078125,17.4375 L3.59375,17.4375 L3.59375,20.40625 L6.5625,20.40625 L6.5625,18.921875 L6.5625,17.4375 L5.078125,17.4375 Z M19.921875,17.4375 L18.4375,17.4375 L18.4375,18.921875 L18.4375,20.40625 L21.40625,20.40625 L21.40625,17.4375 L19.921875,17.4375 Z M13.984375,18.921875 L13.984375,17.4375 L11.015625,17.4375 L11.015625,18.921875 L11.015625,20.40625 L13.984375,20.40625 L13.984375,18.921875 Z M10.421875,9.71875 C10.421875,9.55479046 10.5547905,9.421875 10.71875,9.421875 L14.28125,9.421875 C14.4452095,9.421875 14.578125,9.55479046 14.578125,9.71875 L14.578125,13.28125 C14.578125,13.4452095 14.4452095,13.578125 14.28125,13.578125 L10.71875,13.578125 C10.5547905,13.578125 10.421875,13.4452095 10.421875,13.28125 L10.421875,9.71875 Z M11.015625,10.015625 L11.015625,12.984375 L13.984375,12.984375 L13.984375,10.015625 L11.015625,10.015625 Z" id="Combined-Shape" stroke="#000000" stroke-width="0.2" fill="#000000" fill-rule="nonzero"></path>
    </g>
</svg>