<?xml version="1.0" encoding="UTF-8"?>
<svg width="24px" height="24px" viewBox="0 0 24 24" version="1.1" xmlns="http://www.w3.org/2000/svg" xmlns:xlink="http://www.w3.org/1999/xlink">
    <!-- Generator: Sketch 61.2 (89653) - https://sketch.com -->
    <title>menu-greenhouse</title>
    <desc>Created with Sketch.</desc>
    <g id="menu-greenhouse" stroke="none" stroke-width="1" fill="none" fill-rule="evenodd">
        <path d="M15.1569099,3 C13.2665676,3 11.4886308,3.7412594 10.1512792,5.08647978 L3.07284784,12.211462 C1.73641641,13.5576086 1,15.3471666 1,17.2500119 L1,21.4062515 C1,21.7346657 1.26360078,22 1.58986928,22 L14.5669935,22 C14.7199914,22 14.8766748,21.9350582 14.9845029,21.8255852 L17.3430599,19.4515174 L17.3439815,19.4505897 L19.7025384,17.0765219 L19.70346,17.0755942 L22.0620169,14.7015264 C22.17354,14.5901985 22.2352922,14.4389708 22.2352922,14.2812712 L22.2352922,10.1250316 C22.2352922,6.19607891 19.0601439,3 15.1568609,3 L15.1569099,3 Z M12.7974328,6.56248159 C16.049972,6.56248159 18.6961256,9.22604693 18.6961256,12.4999763 L18.6961256,16.410404 L17.5163871,17.597901 L17.5163871,14.8749703 C17.5163871,10.9460176 14.3412387,7.74998813 10.4379557,7.74998813 C9.98172719,7.74998813 9.53288386,7.79451926 9.09416268,7.87801455 C10.1402605,7.02636543 11.4333719,6.56248159 12.797362,6.56248159 L12.7974328,6.56248159 Z M6.89874,20.8124555 L6.89874,16.0624673 L9.25821712,16.0624673 L9.25821712,20.8124555 L6.89874,20.8124555 Z M9.84808641,14.8749703 L6.30887072,14.8749703 C5.98260222,14.8749703 5.71900144,15.1403046 5.71900144,15.4687188 L5.71900144,20.8124982 L2.17978575,20.8124982 L2.17978575,17.2499644 C2.17978575,17.0393689 2.19176741,16.8297092 2.21296472,16.6228234 C2.35305867,15.2738981 2.94199596,14.0243424 3.90791871,13.0520199 C4.87384145,12.0796973 6.11624773,11.4869463 7.45539256,11.3459191 C7.66092425,11.3245812 7.86922125,11.312522 8.07843609,11.312522 C11.3309753,11.312522 13.9771289,13.9760778 13.9771289,17.2500071 L13.9771289,20.8124982 L10.4379132,20.8124982 L10.4379132,15.4687616 C10.4379132,15.1403474 10.1743124,14.8750131 9.84804393,14.8750131 L9.84808641,14.8749703 Z M8.07847856,10.1249822 C7.62225007,10.1249822 7.17340673,10.1695133 6.73468556,10.2530086 C7.78078333,9.4013595 9.07389477,8.93747566 10.4378849,8.93747566 C13.6904241,8.93747566 16.3365777,11.6010315 16.3365777,14.8749608 L16.3365777,18.7853885 L15.1568392,19.9728856 L15.1568392,17.2499549 C15.1568392,13.3210022 11.9816908,10.1249727 8.07840778,10.1249727 L8.07847856,10.1249822 Z M21.0556027,14.0354099 L19.8758642,15.2229069 L19.8758642,12.4999763 C19.8758642,8.57102357 16.7007158,5.37499406 12.7974328,5.37499406 C12.3412043,5.37499406 11.892361,5.4195252 11.4536398,5.50302049 C12.4997376,4.65137137 13.792849,4.18748753 15.1568392,4.18748753 C18.4093784,4.18748753 21.0556027,6.85104337 21.0556027,10.1249727 L21.0556027,14.0354099 Z" id="Shape" fill="#000000" fill-rule="nonzero"></path>
    </g>
</svg>