<?xml version="1.0" encoding="UTF-8"?>
<svg xmlns="http://www.w3.org/2000/svg" width="24px" height="24px"  viewBox="0 0 24 24">
    <g fill="none" fill-rule="evenodd">
        <g fill="#4A4A4A">
            <path d="M7.439.994l9.232.002c1.047.003 1.894.59 2.24 1.56.09.25.139.525.14.783l.007 3.925-.007 6.024c-.001.258-.05.532-.14.784-.326.912-1.095 1.486-2.058 1.553l-.182.006-1.406.002-1.082-.01-1.782-.001-.735.006c-.114.002-.252.048-.343.115l-3.135 2.343-.168.123c-.18.137-.385.16-.586.065-.17-.083-.268-.227-.293-.413l-.006-.097-.003-1.973-.005-.091-.01-.044c-.001-.005-.004-.008-.006-.01-.005-.005-.012-.01-.026-.012l-.062-.007-.201-.004H4.698l-.191.01-1.22-.002c-1.047-.003-1.893-.591-2.24-1.56-.09-.251-.138-.525-.14-.784L.902 9.312l.003-4.5.004-1.473c0-.259.05-.533.139-.784.326-.912 1.095-1.486 2.058-1.553l.234-.007L4.6.993l2.84.001zM4.603 2.07l-.005.006H3.354c-.663 0-1.113.3-1.302.872-.04.122-.058.252-.064.438l-.003.414v9.288c.002.272.017.437.067.59.175.527.571.824 1.155.867l.15.005 1.394.028 2.866.021c.432.005.595.16.597.585l.003 1.41.012.107 2.77-2.053c.06-.046.146-.073.227-.077.183-.009.36-.015.533-.02l.55-.004 2.563.003h1.732c.663 0 1.113-.3 1.302-.871.04-.123.058-.253.065-.439l.002-.15V3.538c-.001-.271-.017-.437-.066-.59-.175-.527-.572-.824-1.154-.866l-.149-.006H6.43L4.603 2.07zm3.848 2.558l.098.002.086.015c.25.066.406.3.378.591-.022.229-.05.46-.085.694l-.056.352c-.02.12-.013.15.072.155h.05c.746-.005 1.492-.005 2.238 0 .123.002.16-.03.174-.15l.147-1.08.026-.133c.075-.297.32-.477.602-.438.287.041.482.293.452.597l-.038.316-.13.83c-.003.042.007.054.048.057h.388l.146.008c.29.03.496.252.495.532-.002.29-.225.518-.525.533-.191.009-.389.01-.59.002-.074-.003-.108.012-.124.064l-.01.046-.204 1.429c-.013.09-.004.1.09.098l.212-.002h.383l.178.004c.358.01.595.225.59.544-.006.286-.2.48-.5.52l-.103.007-.152.002-.722-.001c-.113 0-.136.001-.147.049l-.094.66-.096.613c-.058.339-.293.514-.621.467-.295-.043-.464-.277-.431-.603.023-.226.053-.457.09-.698l.059-.37c.016-.095.015-.116-.054-.12l-.334.003H8.644l-.186-.005c-.123-.003-.158.028-.173.148l-.097.723-.042.297c-.016.114-.031.189-.056.264-.1.315-.297.399-.696.314-.24-.05-.363-.25-.339-.494l.025-.225.144-.984c.001-.027-.006-.036-.032-.04h-.424l-.121-.005c-.288-.023-.499-.247-.5-.528-.002-.276.193-.5.472-.526.105-.01.207-.015.34-.015l.299.002c.1 0 .13-.027.145-.13l.064-.479.13-.908c.015-.095.011-.12-.055-.122l-.321.006-.314-.002-.188-.003c-.334-.008-.573-.232-.57-.54.002-.302.225-.52.55-.531.287-.01.586-.01.914-.002.129.002.164-.03.179-.167l.043-.343.086-.572.039-.242c.046-.286.237-.47.491-.486zm.405 2.88c-.132-.002-.164.027-.182.16l-.104.769-.091.57c-.02.115-.015.14.076.143l1.331-.003.534-.005.271.007.087.005c.176.011.227-.037.25-.224.036-.286.076-.575.12-.87l.07-.445c.01-.071.011-.094-.04-.101l-.087-.003-.938.003h-.792l-.505-.006z" transform="translate(2 2)"/>
        </g>
    </g>
</svg>
