<svg xmlns="http://www.w3.org/2000/svg" width="24" height="24" viewBox="0 0 24 24">
    <g fill="none" fill-rule="evenodd">
        <g fill="#4A4A4A">
            <g>
                <g>
                    <path d="M13.24 2l.143.006.136.016c.717.118 1.292.687 1.408 1.414l.017.14.005.135V4.3l.007.084.022.085c.05.138.154.249.293.306.155.064.313.065.448.004l.074-.042.065-.054.422-.421.116-.106.121-.092c.58-.402 1.362-.406 1.948.004l.116.089.117.106 1.042 1.043.104.113.09.118c.2.283.306.621.306.976 0 .353-.106.69-.306.976l-.093.12-.104.113-.415.416-.054.063-.045.077c-.062.132-.067.285-.01.423.064.154.175.267.313.32l.082.022.084.008h.6l.142.006.136.017c.717.117 1.292.686 1.408 1.413l.017.14.005.135v1.48l-.006.142-.016.136c-.118.717-.687 1.292-1.414 1.408l-.14.016-.135.006H19.7l-.097.009-.08.023c-.076.028-.143.074-.198.134l-.049.062-.046.085-.012.028-.03.1-.012.084c-.005.084.01.164.043.238l.038.069.06.075.422.423.106.116.092.121c.401.58.405 1.362-.004 1.948l-.09.116-.106.117-1.042 1.042-.116.106-.121.092c-.58.4-1.362.405-1.948-.005l-.116-.09-.117-.106-.415-.415-.064-.053-.076-.045c-.131-.062-.283-.066-.421-.01-.156.063-.27.173-.321.312l-.023.082-.008.084v.601l-.005.141-.017.136c-.117.717-.686 1.292-1.413 1.408l-.14.017-.135.005h-1.48l-.142-.006-.136-.016c-.717-.118-1.292-.687-1.408-1.414l-.017-.14-.005-.135V18.7l-.007-.083-.022-.086c-.05-.137-.154-.248-.293-.305-.154-.064-.312-.066-.448-.004l-.074.042-.065.054-.422.421-.116.106-.121.092c-.58.402-1.362.406-1.948-.004l-.116-.09-.117-.106-1.042-1.042-.106-.116-.092-.121c-.4-.58-.404-1.363.005-1.948l.09-.117.106-.116.415-.415.054-.064.045-.076c.062-.132.067-.285.01-.423-.064-.154-.175-.267-.313-.32l-.082-.022-.084-.008h-.601l-.141-.005-.136-.017c-.717-.117-1.292-.686-1.408-1.413l-.017-.14L3 12.239v-1.48l.006-.142.016-.136c.118-.717.687-1.292 1.414-1.408l.14-.017.135-.005H5.3l.084-.007.085-.022c.138-.05.249-.154.305-.292.064-.155.065-.313.004-.448l-.042-.074-.054-.065-.421-.422-.104-.114-.091-.118c-.2-.284-.306-.622-.306-.976 0-.353.106-.692.307-.978l.092-.12.104-.113L6.305 4.26l.116-.106.121-.092c.58-.4 1.362-.405 1.948.005l.116.09.117.106.415.415.064.054.076.044c.132.063.285.067.422.01.155-.063.268-.173.32-.312l.023-.082.008-.084v-.601l.005-.141.017-.136c.117-.717.686-1.292 1.413-1.408l.14-.017.135-.005h1.479zm.003 1.188h-1.484l-.09.007-.076.02c-.148.05-.266.164-.321.31l-.024.085-.009.089v.6l-.007.15-.017.134c-.096.576-.484 1.065-1.038 1.291-.559.233-1.177.169-1.656-.167l-.117-.09-.11-.1-.415-.418-.067-.056-.078-.045c-.134-.063-.29-.066-.428-.007l-.076.04-.078.063L6.1 6.146l-.051.06-.044.07c-.037.073-.056.153-.056.237 0 .077.016.153.05.222l.035.063.061.076.424.423.1.11.09.115c.332.473.403 1.087.177 1.633-.235.571-.726.967-1.312 1.062l-.137.017-.14.005-.589-.001-.088.008-.077.02c-.148.05-.267.163-.321.31l-.024.085-.009.088v1.493l.008.088.02.077c.05.148.163.267.31.321l.084.024.089.009h.602l.149.007.134.017c.576.096 1.065.483 1.29 1.037.234.56.17 1.178-.166 1.656l-.09.117-.1.11-.418.416-.056.066-.045.079c-.063.135-.066.29-.007.427l.04.077.063.077L7.147 17.9l.067.056.078.046c.135.064.291.067.428.008l.077-.041.078-.063.423-.423.112-.103.118-.09c.283-.198.621-.305.97-.305.226 0 .45.044.657.13.571.235.967.726 1.062 1.312l.017.138.005.139v.588l.007.089.02.076c.05.149.163.267.31.322l.085.023.088.01h1.493l.088-.008.077-.02c.148-.05.267-.163.321-.31l.024-.085.009-.089v-.6l.007-.15.017-.134c.096-.576.483-1.065 1.037-1.29.56-.233 1.179-.169 1.656.167l.117.09.11.1.416.417.067.056.078.045c.135.063.291.067.428.007l.076-.04.078-.063 1.052-1.051.056-.068.045-.078c.064-.135.067-.29.008-.428l-.04-.076-.063-.078-.423-.423-.1-.11-.096-.125c-.27-.39-.366-.876-.26-1.344l.04-.143.05-.14-.043-.007.003-.008-.008.007-.01-.002.009-.014.057-.005.067-.14.072-.126c.257-.404.681-.686 1.164-.763l.137-.017.139-.005h.589l.089-.008.076-.02c.149-.05.267-.163.322-.31l.023-.084.01-.09-.062-.085.012.005.048-1.408-.008-.09-.02-.077c-.05-.148-.163-.267-.31-.321l-.085-.024-.089-.009h-.6l-.15-.007-.134-.017c-.576-.096-1.064-.483-1.29-1.037-.233-.56-.17-1.178.166-1.656l.09-.117.101-.11.417-.416.051-.059.044-.07c.038-.074.057-.154.057-.238 0-.077-.017-.152-.05-.22l-.035-.064-.06-.075-1.052-1.053-.067-.056-.079-.046c-.135-.063-.29-.067-.428-.008l-.076.041-.078.063-.423.423-.11.1-.115.09c-.472.332-1.085.403-1.633.176-.571-.234-.967-.725-1.062-1.31l-.016-.138-.006-.14.001-.589-.008-.09-.02-.08c-.073-.206-.267-.35-.491-.35zm-.961 4.916c1.993 0 3.614 1.621 3.614 3.614 0 1.993-1.621 3.614-3.614 3.614-1.993 0-3.614-1.621-3.614-3.614 0-1.993 1.621-3.614 3.614-3.614zm0 1.207c-1.327 0-2.407 1.08-2.407 2.407s1.08 2.407 2.407 2.407 2.407-1.08 2.407-2.407-1.08-2.407-2.407-2.407z" transform="translate(-840 -20) translate(34 7) translate(806 13)"/>
                </g>
            </g>
        </g>
    </g>
</svg>
