<?xml version="1.0" encoding="UTF-8"?>
<svg width="24px" height="24px" viewBox="0 0 24 24" version="1.1" xmlns="http://www.w3.org/2000/svg" xmlns:xlink="http://www.w3.org/1999/xlink">
    <!-- Generator: Sketch 56.3 (81716) - https://sketch.com -->
    <title>menu-data-activities</title>
    <desc>Created with Sketch.</desc>
    <g id="menu-data-activities" stroke="none" stroke-width="1" fill="none" fill-rule="evenodd">
        <path d="M10.9174135,14.1119086 L10.9174295,14.1117118 C10.6970585,13.8708659 10.6970585,13.4780265 10.9174295,13.2371806 L12.7186266,11.2250808 L12.7186266,7.85857259 C12.7186266,7.5092848 12.9780467,7.22488722 13.2984409,7.22488722 C13.6180349,7.22488722 13.8782552,7.50841026 13.8782552,7.85857259 L13.8782552,11.4883147 C13.8782552,11.6411828 13.8180852,11.816264 13.7180621,11.9255804 L11.7175988,14.1119086 C11.6175756,14.221225 11.4573826,14.2869854 11.3175062,14.2869854 C11.1776338,14.2869854 11.0377534,14.2434294 10.9174135,14.1119086 Z M13.3179694,2 L13.3183895,2.00037036 C18.0990966,2.00037036 22,6.26349179 22,11.4885976 C22,16.7137035 18.0990966,20.9769408 13.2775801,21 C10.9566426,21 8.79598223,20.016196 7.15576239,18.2235818 C7.07527575,18.1364785 7.01588599,18.0271533 6.99556929,17.8956325 C6.95571606,17.6983383 7.01588599,17.4797098 7.15576239,17.3268374 L8.35604035,16.0150404 C8.57641138,15.7741945 8.93585462,15.7741945 9.15622565,16.0150404 C9.37659669,16.2558864 9.37659669,16.6487258 9.15622565,16.8895717 L8.37636505,17.7418899 C9.59604751,18.8786057 11.096475,19.5558515 12.7171703,19.6873723 L12.7171703,18.5071048 C12.7171703,18.157817 12.9765904,17.8734194 13.2969846,17.8734194 C13.6165786,17.8734194 13.8767988,18.1569425 13.8767988,18.5071048 L13.8767988,19.6873723 C15.5179789,19.5345042 17.0182463,18.8350541 18.1981996,17.7196768 L17.4378635,16.8886972 C17.2174925,16.6478513 17.2174925,16.2550118 17.4378635,16.0141659 C17.6582345,15.77332 18.0176778,15.77332 18.2380488,16.0141659 L18.9983849,16.8451455 C20.0189412,15.554556 20.678462,13.9148535 20.7988018,12.1222393 L19.7188717,12.1222393 C19.3992777,12.1222393 19.1390575,11.8387162 19.1390575,11.4885539 C19.1390575,11.1392661 19.3984775,10.8548685 19.7188717,10.8548685 L20.7988018,10.8548685 C20.6589294,9.06120486 20.0189412,7.42154613 18.9983849,6.13196228 L18.2380488,6.96294192 C18.1380256,7.07225833 17.9778326,7.13801871 17.8379562,7.13801871 C17.6980838,7.13801871 17.5582034,7.09446268 17.4378635,6.96294192 C17.2174925,6.722096 17.2174925,6.32925654 17.4378635,6.08841063 L18.1981996,5.25743099 C17.0173261,4.14205378 15.5170187,3.42125634 13.8767988,3.28973558 L13.8767988,4.47000301 C13.8767988,4.81929081 13.6173788,5.10368839 13.2969846,5.10368839 C12.9773906,5.10368839 12.7171703,4.82016534 12.7171703,4.47000301 L12.7171703,3.28973558 C11.0759902,3.42126508 9.5757228,4.14205378 8.39576955,5.25743099 L9.15610562,6.08841063 C9.37647666,6.32925654 9.37647666,6.722096 9.15610562,6.96294192 C9.05608246,7.07225833 8.89588536,7.13801871 8.75601297,7.13801871 C8.61614058,7.13801871 8.47626019,7.09446268 8.35592032,6.96294192 L7.59558424,6.13196228 C6.5750279,7.42145868 5.91550717,9.06124858 5.7951673,10.8760759 L6.85557287,10.8760759 C7.0556192,10.8760759 7.25566552,10.9853836 7.35568869,11.1818121 C7.45571185,11.3782318 7.45571185,11.619069 7.35568869,11.8154974 L5.71546885,14.9633728 C5.61544568,15.1597926 5.41539936,15.269109 5.21535303,15.269109 C5.0153067,15.269109 4.81526038,15.1598013 4.71523721,14.9633728 L3.07501737,11.8154974 C2.97499421,11.6190777 2.97499421,11.3782405 3.07501737,11.1818121 C3.17504054,10.9853923 3.37508686,10.8760759 3.57513319,10.8760759 L4.67616817,10.8769299 C4.95583293,5.93539082 8.71690391,2 13.3179694,2 Z" id="Activities" fill="#000000"></path>
    </g>
</svg>