<svg xmlns="http://www.w3.org/2000/svg" width="24" height="24" viewBox="0 0 24 24">
    <g fill="none" fill-rule="evenodd">
        <g fill="#4A4A4A">
            <path d="M7.6 2c-.249 0-.45.183-.45.41v4.908c0 .226.201.41.45.41h1.125V8.75h-2.25C5.112 8.75 4 9.76 4 11s1.112 2.25 2.475 2.25h2.25v1.023H7.6c-.249 0-.45.183-.45.409v4.909c0 .226.201.409.45.409h3.15c.233 0 .428-.16.45-.37v-4.948c0-.226-.201-.41-.45-.41H9.625V13.25h2.313l.007.013c.47.598 1.163 1.01 1.955 1.01.249 0 .45-.183.45-.41V11.41h.675c.12.002.236-.04.322-.117.086-.078.134-.183.134-.292 0-.11-.048-.214-.134-.292-.086-.076-.202-.119-.322-.117h-.675V8.136c0-.226-.201-.409-.45-.409-.792 0-1.485.412-1.955 1.01l-.007.013H9.625V7.727h1.125c.249 0 .45-.183.45-.409V2.41v-.045c-.026-.208-.22-.366-.45-.364H7.6zm.45.818h2.25V6.91H8.05V2.82zm11.665 4.085c-.199.013-.365.144-.407.321-.042.177.05.359.224.446.677.346 1.568 1.61 1.568 3.33s-.891 2.978-1.568 3.324c-.119.045-.21.133-.253.244-.042.11-.03.231.032.334.063.101.17.174.296.2.125.025.257 0 .361-.069C21.091 14.46 22 12.963 22 11c0-1.962-.909-3.465-2.032-4.04-.076-.041-.164-.061-.253-.057zm-2.018.818c-.201.008-.372.137-.418.316-.046.179.044.362.221.451.45.238 1.125 1.197 1.125 2.512s-.676 2.268-1.125 2.506c-.104.054-.18.144-.212.248-.03.106-.015.217.045.312.06.094.158.163.274.19.116.03.24.014.343-.04.9-.479 1.575-1.668 1.575-3.216 0-1.549-.674-2.744-1.575-3.222-.076-.041-.164-.061-.253-.057zm-4.247.94v4.672c-.281-.102-.548-.263-.773-.55-.345-.437-.577-1.071-.577-1.783s.232-1.352.577-1.79c.225-.287.492-.447.773-.55zm2.461.287c-.21 0-.393.134-.439.32-.045.188.059.379.25.46.235.107.653.59.653 1.272s-.418 1.159-.654 1.266c-.107.05-.189.135-.226.239-.037.103-.029.216.026.314.112.203.385.284.608.182.664-.302 1.146-1.046 1.146-2 0-.956-.481-1.706-1.146-2.008-.068-.031-.142-.046-.218-.045zm-9.436.62h5c-.176.436-.275.918-.275 1.432 0 .512.1.996.274 1.432H6.475C5.595 12.432 4.9 11.8 4.9 11c0-.8.694-1.432 1.575-1.432zm1.575 5.523h2.25v4.09H8.05v-4.09z" transform="rotate(-45 13 11)"/>
        </g>
    </g>
</svg>
