<?xml version="1.0" encoding="UTF-8"?>
<svg width="24px" height="24px" viewBox="0 0 24 24" version="1.1" xmlns="http://www.w3.org/2000/svg" xmlns:xlink="http://www.w3.org/1999/xlink">
    <!-- Generator: Sketch 56.3 (81716) - https://sketch.com -->
    <title>menu-support-statistics</title>
    <desc>Created with Sketch.</desc>
    <g id="menu-support-statistics" stroke="none" stroke-width="1" fill="none" fill-rule="evenodd">
        <path d="M5,21 C6.1025177,21 7.00001422,19.8373436 7.00001422,18.409103 C7.00001422,17.7462755 6.80084765,17.1471219 6.48417239,16.6883052 L8.68578022,11.4589768 C8.78828085,11.4805679 8.89244762,11.5 8.99995733,11.5 C9.44913226,11.5 9.85911772,11.300284 10.1933056,10.9764315 L13.0667025,13.4615371 C13.0275365,13.664492 13.0000356,13.8728471 13.0000356,14.090897 C13.0000356,15.5191377 13.8975321,16.6817941 15.0000427,16.6817941 C16.1025533,16.6817941 17.0000498,15.5191377 17.0000498,14.090897 C17.0000498,13.4280696 16.8008832,12.828916 16.4842079,12.3700992 L18.6858158,7.14077084 C18.7883164,7.16236192 18.8924832,7.18179406 19,7.18179406 C20.1025035,7.18179406 21,6.01913766 21,4.59089703 C21,3.16265641 20.1025035,2 19,2 C17.8974823,2 16.9999858,3.16265641 16.9999858,4.59089703 C16.9999858,5.25372449 17.1991524,5.85287807 17.5158276,6.31169484 L15.3142198,11.5410232 C15.2117192,11.5194321 15.1075524,11.5 15.0000427,11.5 C14.5508677,11.5 14.1408823,11.699716 13.8066944,12.0235685 L10.9332975,9.53846295 C10.9724635,9.33550797 10.9999644,9.12715286 10.9999644,8.90910297 C10.9999644,7.48086234 10.1024679,6.31820594 8.99995733,6.31820594 C7.89744675,6.31820594 6.99995022,7.48086234 6.99995022,8.90910297 C6.99995022,9.57193043 7.1991168,10.171084 7.51579206,10.6299008 L5.31418423,15.8592292 C5.2116836,15.8376381 5.10751683,15.8182059 5,15.8182059 C3.89749652,15.8182059 3,16.9808623 3,18.409103 C3,19.8373436 3.89749652,21 5,21 Z M15.0000427,14.9545736 C14.632532,14.9545736 14.3333736,14.5670307 14.3333736,14.0909412 C14.3333736,13.6148518 14.632532,13.2273089 15.0000427,13.2273089 C15.3675533,13.2273089 15.6667117,13.6148518 15.6667117,14.0909412 C15.6667117,14.5670307 15.3675533,14.9545736 15.0000427,14.9545736 Z M19.0000569,3.72735312 C19.3675675,3.72735312 19.6667259,4.11489605 19.6667259,4.59098547 C19.6667259,5.06707489 19.3675675,5.45461781 19.0000569,5.45461781 C18.6325462,5.45461781 18.3333879,5.06707489 18.3333879,4.59098547 C18.3333879,4.11489605 18.6325462,3.72735312 19.0000569,3.72735312 Z M9.00002133,8.04551484 C9.36753197,8.04551484 9.66669037,8.43305777 9.66669037,8.90914719 C9.66669037,9.38523661 9.36753197,9.77277953 9.00002133,9.77277953 C8.63251069,9.77277953 8.3333523,9.38523661 8.3333523,8.90914719 C8.3333523,8.43305777 8.63251069,8.04551484 9.00002133,8.04551484 Z M5.00000711,17.5454706 C5.36751775,17.5454706 5.66667615,17.9330135 5.66667615,18.409103 C5.66667615,18.8851924 5.36751775,19.2727353 5.00000711,19.2727353 C4.63249647,19.2727353 4.33333807,18.8851924 4.33333807,18.409103 C4.33333807,17.9330135 4.63249647,17.5454706 5.00000711,17.5454706 Z" id="Shape" fill="#000000"></path>
    </g>
</svg>