<?xml version="1.0" encoding="UTF-8"?>
<svg width="24px" height="24px" viewBox="0 0 24 24" version="1.1" xmlns="http://www.w3.org/2000/svg" xmlns:xlink="http://www.w3.org/1999/xlink">
    <!-- Generator: Sketch 56.3 (81716) - https://sketch.com -->
    <title>menu-auth-project</title>
    <desc>Created with Sketch.</desc>
    <g id="menu-auth-project" stroke="none" stroke-width="1" fill="none" fill-rule="evenodd">
        <path d="M6.87340074,6.7488049 C6.56769307,6.7488049 6.32004165,6.48305708 6.32004165,6.15501074 C6.32004165,5.8269644 6.56769307,5.56121658 6.87340074,5.56121658 L11.3002358,5.56121658 C11.6059435,5.56121658 11.8535949,5.8269644 11.8535949,6.15501074 C11.8535949,6.48305708 11.6059435,6.7488049 11.3002358,6.7488049 L6.87340074,6.7488049 Z M6.87340074,10.9054044 C6.56769307,10.9054044 6.32004165,10.6396566 6.32004165,10.3116102 C6.32004165,9.9835639 6.56769307,9.71781608 6.87340074,9.71781608 L11.3002358,9.71781608 C11.6059435,9.71781608 11.8535949,9.9835639 11.8535949,10.3116102 C11.8535949,10.6396566 11.6059435,10.9054044 11.3002358,10.9054044 L6.87340074,10.9054044 Z M15.7265065,10.3122966 L15.7265441,10.3123511 C18.4720811,10.3123511 20.7053287,12.7096128 20.7045938,15.6565793 C20.7045938,18.6027383 18.4705761,21 15.7250391,21 C14.0032936,21 12.4828071,20.0559937 11.5877327,18.6247426 L3.55335909,18.6247426 C3.24765143,18.6247426 3,18.3589948 3,18.0309484 L3,2.59379416 C3,2.26574782 3.24765143,2 3.55335909,2 L14.6197883,2 C14.925496,2 15.1731474,2.26574782 15.1731474,2.59379416 L15.1731474,10.3469928 C15.3553868,10.3257023 15.539848,10.3122966 15.7265065,10.3122966 Z M4.1066053,17.4370594 L11.0363339,17.4379261 C10.8518746,16.8796215 10.7460527,16.2818907 10.7460527,15.6565436 C10.7460527,15.4546689 10.7585444,15.2567409 10.7791218,15.0611748 L6.87321261,15.0611748 C6.56750495,15.0611748 6.31985352,14.795427 6.31985352,14.4673806 C6.31985352,14.1393343 6.56750495,13.8735865 6.87321261,13.8735865 L11.037045,13.8743752 C11.5382175,12.3610419 12.656054,11.1616237 14.0662787,10.6245967 L14.0662787,3.18753381 L4.1066053,3.18753381 L4.1066053,17.4370594 Z M15.7265065,19.8123168 C17.8620768,19.8123168 19.5993227,17.9473986 19.6000577,15.6557173 C19.6000577,13.3640966 17.8621332,11.4991178 15.7265065,11.4991178 C13.5902025,11.4991178 11.8529553,13.364036 11.8529553,15.6557173 C11.8529553,17.947338 13.5908798,19.8123168 15.7265065,19.8123168 Z M16.8325098,15.0626095 L16.8325098,15.0626903 C17.1382175,15.0626903 17.3858689,15.3276508 17.3858689,15.6564844 C17.3858689,15.9845308 17.1382175,16.2502786 16.8325098,16.2502786 L15.7257916,16.2502786 C15.420084,16.2502786 15.1724325,15.9845308 15.1724325,15.6564844 L15.1724325,13.281227 C15.1724325,12.9531807 15.420084,12.6874329 15.7257916,12.6874329 C16.0314993,12.6874329 16.2791507,12.9531807 16.2791507,13.281227 L16.2791507,15.0626095 L16.8325098,15.0626095 Z" id="project" fill="#000000"></path>
    </g>
</svg>