<?xml version="1.0" encoding="UTF-8"?>
<svg width="24px" height="24px" viewBox="0 0 24 24" version="1.1" xmlns="http://www.w3.org/2000/svg" xmlns:xlink="http://www.w3.org/1999/xlink">
    <!-- Generator: Sketch 56.3 (81716) - https://sketch.com -->
    <title>Menu Support/Crop-Event-Activities</title>
    <desc>Created with Sketch.</desc>
    <g id="Menu-Support/Crop-Event-Activities" stroke="none" stroke-width="1" fill="none" fill-rule="evenodd">
        <path d="M18.802657,4.15703802 L16.1839499,4.15703802 L16.1839499,2.52242438 C16.1839499,2.2336543 15.9373697,2 15.6326432,2 C15.3279084,2 15.0813364,2.23366214 15.0813364,2.52242438 L15.0813364,4.15703802 L8.65089432,4.15703802 L8.65089432,2.52242438 C8.65089432,2.2336543 8.4043141,2 8.09958756,2 C7.79485274,2 7.54828079,2.23366214 7.54828079,2.52242438 L7.54828079,4.15703802 L4.92957367,4.15703802 C3.86571701,4.15703802 3,4.97740102 3,5.98552335 L3,19.1715147 C3,20.179637 3.86571701,21 4.92957367,21 L18.8037597,21 C19.8676163,21 20.7333333,20.179637 20.7333333,19.1715147 L20.7322564,5.98552335 C20.7322564,4.97740102 19.8665393,4.15703802 18.8026827,4.15703802 L18.802657,4.15703802 Z M19.5500198,19.1030623 C19.5500198,19.5322696 19.1823309,19.8823529 18.7315389,19.8823529 L5.00070313,19.8823529 C4.54991113,19.8823529 4.18222222,19.5322696 4.18222222,19.1030623 L4.18222222,9.82352941 L19.5511111,9.82352941 L19.5500198,19.1030623 Z M19.5500198,8.70588235 L4.18222222,8.70588235 L4.18222222,6.08385409 C4.18222222,5.68129162 4.54991113,5.35294118 5.00070313,5.35294118 L7.59255935,5.35294118 L7.59255935,6.99559486 C7.59255935,7.26493627 7.83661126,7.48287014 8.13821329,7.48287014 C8.43982351,7.48287014 8.68386723,7.26492896 8.68386723,6.99559486 L8.68386723,5.35294118 L15.0494661,5.35294118 L15.0494661,6.99559486 C15.0494661,7.26493627 15.293518,7.48287014 15.59512,7.48287014 C15.8967221,7.48287014 16.140774,7.26492896 16.140774,6.99559486 L16.140774,5.35294118 L18.7326302,5.35294118 C19.1834222,5.35294118 19.5511111,5.68129162 19.5511111,6.08385409 L19.5500198,8.70588235 Z M11.8666667,14.2941176 C12.844899,14.2941176 13.64,13.5424465 13.64,12.6176471 C13.64,11.6928476 12.844899,10.9411765 11.8666667,10.9411765 C10.8884343,10.9411765 10.0933333,11.6928476 10.0933333,12.6176471 C10.0933333,13.5424465 10.8884343,14.2941176 11.8666667,14.2941176 Z M11.8666667,12.0588235 C12.1925682,12.0588235 12.4577778,12.3095469 12.4577778,12.6176471 C12.4577778,12.9257472 12.1925682,13.1764706 11.8666667,13.1764706 C11.5407652,13.1764706 11.2755556,12.9257472 11.2755556,12.6176471 C11.2755556,12.3095469 11.5407652,12.0588235 11.8666667,12.0588235 Z M16.5955556,14.2941176 C17.5737879,14.2941176 18.3688889,13.5424465 18.3688889,12.6176471 C18.3688889,11.6928476 17.5737879,10.9411765 16.5955556,10.9411765 C15.6173232,10.9411765 14.8222222,11.6928476 14.8222222,12.6176471 C14.8222222,13.5424465 15.6173232,14.2941176 16.5955556,14.2941176 Z M16.5955556,12.0588235 C16.9214571,12.0588235 17.1866667,12.3095469 17.1866667,12.6176471 C17.1866667,12.9257472 16.9214571,13.1764706 16.5955556,13.1764706 C16.269654,13.1764706 16.0044444,12.9257472 16.0044444,12.6176471 C16.0044444,12.3095469 16.269654,12.0588235 16.5955556,12.0588235 Z M7.13777778,14.2941176 C8.11601013,14.2941176 8.91111111,13.5424465 8.91111111,12.6176471 C8.91111111,11.6928476 8.11601013,10.9411765 7.13777778,10.9411765 C6.15954543,10.9411765 5.36444444,11.6928476 5.36444444,12.6176471 C5.36444444,13.5424465 6.15954543,14.2941176 7.13777778,14.2941176 Z M7.13777778,12.0588235 C7.46367929,12.0588235 7.72888889,12.3095469 7.72888889,12.6176471 C7.72888889,12.9257472 7.46367929,13.1764706 7.13777778,13.1764706 C6.81187627,13.1764706 6.54666667,12.9257472 6.54666667,12.6176471 C6.54666667,12.3095469 6.81187627,12.0588235 7.13777778,12.0588235 Z M11.8666667,18.7647059 C12.844899,18.7647059 13.64,18.0130348 13.64,17.0882353 C13.64,16.1634358 12.844899,15.4117647 11.8666667,15.4117647 C10.8884343,15.4117647 10.0933333,16.1634358 10.0933333,17.0882353 C10.0933333,18.0130348 10.8884343,18.7647059 11.8666667,18.7647059 Z M11.8666667,16.5294118 C12.1925682,16.5294118 12.4577778,16.7801351 12.4577778,17.0882353 C12.4577778,17.3963355 12.1925682,17.6470588 11.8666667,17.6470588 C11.5407652,17.6470588 11.2755556,17.3963355 11.2755556,17.0882353 C11.2755556,16.7801351 11.5407652,16.5294118 11.8666667,16.5294118 Z M16.5955556,18.7647059 C17.5737879,18.7647059 18.3688889,18.0130348 18.3688889,17.0882353 C18.3688889,16.1634358 17.5737879,15.4117647 16.5955556,15.4117647 C15.6173232,15.4117647 14.8222222,16.1634358 14.8222222,17.0882353 C14.8222222,18.0130348 15.6173232,18.7647059 16.5955556,18.7647059 Z M16.5955556,16.5294118 C16.9214571,16.5294118 17.1866667,16.7801351 17.1866667,17.0882353 C17.1866667,17.3963355 16.9214571,17.6470588 16.5955556,17.6470588 C16.269654,17.6470588 16.0044444,17.3963355 16.0044444,17.0882353 C16.0044444,16.7801351 16.269654,16.5294118 16.5955556,16.5294118 Z M7.13777778,18.7647059 C8.11601013,18.7647059 8.91111111,18.0130348 8.91111111,17.0882353 C8.91111111,16.1634358 8.11601013,15.4117647 7.13777778,15.4117647 C6.15954543,15.4117647 5.36444444,16.1634358 5.36444444,17.0882353 C5.36444444,18.0130348 6.15954543,18.7647059 7.13777778,18.7647059 Z M7.13777778,16.5294118 C7.46367929,16.5294118 7.72888889,16.7801351 7.72888889,17.0882353 C7.72888889,17.3963355 7.46367929,17.6470588 7.13777778,17.6470588 C6.81187627,17.6470588 6.54666667,17.3963355 6.54666667,17.0882353 C6.54666667,16.7801351 6.81187627,16.5294118 7.13777778,16.5294118 Z" id="Shape" fill="#000000"></path>
    </g>
</svg>