<?xml version="1.0" encoding="UTF-8"?>
<svg width="24px" height="24px" viewBox="0 0 24 24" version="1.1" xmlns="http://www.w3.org/2000/svg" xmlns:xlink="http://www.w3.org/1999/xlink">
    <!-- Generator: Sketch 56.3 (81716) - https://sketch.com -->
    <title>menu-support-worker-map</title>
    <desc>Created with Sketch.</desc>
    <g id="menu-support-worker-map" stroke="none" stroke-width="1" fill="none" fill-rule="evenodd">
        <path d="M6,20.6044214 C6,20.7090652 6.04156406,20.8099928 6.11578655,20.8842226 C6.19000904,20.9584525 6.29095034,21 6.39561007,21 L18.2710566,21 C18.3757087,21 18.4766443,20.9584392 18.5508801,20.8842226 C18.6251159,20.8100061 18.6666667,20.7090728 18.6666667,20.6044214 L18.6666667,15.5890112 C18.6651823,14.5054676 18.2332224,13.4664201 17.4672466,12.7005621 C16.7005297,11.9339062 15.6614377,11.5027193 14.5778079,11.5004964 L10.0888891,11.5004964 C9.0052594,11.5027229 7.96612933,11.9339062 7.1994505,12.7005621 C6.4334937,13.4664581 6.00151246,14.5054866 6,15.5890112 L6,20.6044214 Z M15.8959521,12.5690876 C16.4837962,12.8258809 16.983306,13.2481572 17.3351042,13.7847328 C17.6869214,14.3205673 17.8739455,14.9476931 17.8754465,15.5889163 L17.8754465,20.2080029 L16.6879019,20.2080029 L16.6879019,15.8545251 C16.6879019,15.7491384 16.6455949,15.6489537 16.5713743,15.5747238 C16.4971518,15.5005092 16.3969534,15.4582055 16.2915508,15.4582055 L15.8959521,15.4582055 L15.8959521,12.5690876 Z M15.8959521,20.2080979 L8.77068418,20.2080979 L8.77068418,16.2501836 L15.8959521,16.2501836 L15.8959521,20.2080979 Z M9.56263396,12.3397672 C9.73631189,12.310081 9.9122091,12.2937531 10.0888587,12.2922692 L14.5777775,12.2922692 C14.7544253,12.2937534 14.9303358,12.310081 15.1040023,12.3397672 L15.1040023,15.4582967 L9.56263396,15.4582967 L9.56263396,12.3397672 Z M6.79194978,15.5895812 L6.79120742,15.5888389 C6.79269195,14.9476158 6.97973061,14.32049 7.33154974,13.7846554 C7.68336696,13.2480799 8.18287675,12.8257846 8.77070185,12.5690103 L8.77070185,15.4582194 L8.37510697,15.4582194 C8.15616174,15.4582194 7.97877107,15.6355941 7.97877107,15.8545238 L7.97877107,20.2080016 L6.79120742,20.2080016 L6.79194978,15.5895812 Z M17.8754902,5.16756739 C17.8754902,5.0621807 17.8331395,4.96199599 17.7589189,4.8877661 C17.6846964,4.8135514 17.5844981,4.77124777 17.4790954,4.77124777 L16.1097139,4.77124777 C15.7705132,3.6928909 14.9867337,2.81052983 13.9550329,2.34732921 C12.9233511,1.8842236 11.7431597,1.8842236 10.711611,2.34732921 C9.67992917,2.81043483 8.8961497,3.6928529 8.55692994,4.77124777 L7.18754845,4.77124777 C6.96860322,4.77124777 6.79121255,4.94862245 6.79121255,5.16755219 C6.79121255,5.38573906 6.96860132,5.56311563 7.18754845,5.56311563 L8.39513886,5.56311563 C8.39513886,5.69373517 8.3750988,5.8243547 8.3750988,5.95867908 L8.3750988,8.7299031 C8.3750988,9.25460414 8.58366965,9.75779809 8.9547726,10.1288716 C9.32587555,10.499945 9.82910947,10.7084993 10.3538522,10.7084993 L14.3128411,10.7084993 C14.8375838,10.7084993 15.3408177,10.499945 15.7119207,10.1288716 C16.0830236,9.75779809 16.2915945,9.25460414 16.2915945,8.7299031 L16.2915945,5.95867908 L16.2915945,5.56311563 L17.4791391,5.56311563 C17.5845342,5.56311563 17.6847268,5.52155487 17.7589626,5.44733828 C17.8331832,5.37312358 17.8754902,5.27218841 17.8754902,5.16753699 L17.8754902,5.16756739 Z M12.3333181,2.79266678 C12.9634578,2.79266678 13.579499,2.98117499 14.1020186,3.3344481 C14.6245383,3.68697835 15.0297855,4.18718942 15.2665534,4.77126297 L9.40008284,4.77126297 C9.63685075,4.18718942 10.042098,3.68697835 10.5646176,3.3344481 C11.0871373,2.98117689 11.7031784,2.79266678 12.3333181,2.79266678 L12.3333181,2.79266678 Z M15.5003572,8.7299183 C15.5003572,9.38523888 14.9681852,9.91736861 14.3128126,9.91736861 L10.3538237,9.91736861 C9.69845106,9.91736861 9.16627905,9.38523888 9.16627905,8.7299183 L9.16627905,5.95869428 C9.16776358,5.82659091 9.17667016,5.69449134 9.19448371,5.56313083 L15.4721298,5.56313083 C15.4899429,5.69449324 15.4988486,5.82659281 15.5003572,5.95869428 L15.5003572,8.7299183 Z" id="workers" fill="#000000"></path>
    </g>
</svg>