<?xml version="1.0" encoding="UTF-8"?>
<svg width="24px" height="24px" viewBox="0 0 24 24" version="1.1" xmlns="http://www.w3.org/2000/svg" xmlns:xlink="http://www.w3.org/1999/xlink">
    <!-- Generator: Sketch 56.3 (81716) - https://sketch.com -->
    <title>menu-support-task</title>
    <desc>Created with Sketch.</desc>
    <g id="menu-support-task" stroke="none" stroke-width="1" fill="none" fill-rule="evenodd">
        <path d="M10.071143,9.08079786 L10.0711173,9.08791481 C10.3178935,8.83344806 10.6962185,8.8586298 10.9165294,9.1436622 C11.1360651,9.42779691 11.1150404,9.8647714 10.8682643,10.1192358 L7.1736968,13.9172127 C6.9370444,14.1608839 6.57661532,14.1491908 6.35241831,13.8893401 L4.16026976,11.3573556 C3.94073983,11.0858117 3.94775471,10.6614051 4.17506058,10.3988613 C4.40238639,10.1354155 4.76981041,10.1282108 5.0056856,10.3817776 L6.79926168,12.4534013 L10.071143,9.08079786 Z M20.4021413,10.7891969 C20.7321992,10.7891969 21,11.0985133 21,11.4797381 C21,11.8609629 20.7321992,12.1702794 20.4021413,12.1702794 L13.0885359,12.1702794 C12.758478,12.1702794 12.4906772,11.8609629 12.4906772,11.4797381 C12.4906772,11.0985133 12.758478,10.7891969 13.0885359,10.7891969 L20.4021413,10.7891969 Z M6.77514805,21 L6.77512234,20.9999169 C6.61631114,20.9990192 6.46451482,20.9252901 6.35241632,20.7949136 L4.16026776,18.2629291 C3.94073784,17.9913853 3.94775271,17.5669786 4.17505859,17.3044348 C4.40238439,17.040989 4.76980842,17.0337843 5.0056836,17.2873511 L6.79925969,19.3589748 L10.071141,15.993507 C10.3179172,15.7390402 10.6962422,15.764222 10.9165531,16.0492544 C11.1360888,16.3333891 11.1150641,16.7703636 10.868288,17.024828 L7.17372051,20.825567 C7.06395366,20.9379595 6.92227709,21 6.77514805,21 Z M20.4021413,17.6946093 C20.7321992,17.6946093 21,18.0039257 21,18.3851505 C21,18.7663753 20.7321992,19.0756917 20.4021413,19.0756917 L13.0885359,19.0756917 C12.758478,19.0756917 12.4906772,18.7663753 12.4906772,18.3851505 C12.4906772,18.0039257 12.758478,17.6946093 13.0885359,17.6946093 L20.4021413,17.6946093 Z M10.9167145,2.23120423 L10.9166828,2.23113955 C11.0241101,2.36782067 11.0793819,2.54943762 11.0708188,2.73376149 C11.0614822,2.91898767 10.9890855,3.09161147 10.8684237,3.21389482 L7.17385623,7.01187163 C6.93720383,7.25554292 6.57677475,7.24384975 6.35257774,6.98399908 L4.16042919,4.45201454 C3.94089926,4.18047071 3.94791413,3.75606406 4.17522001,3.49352029 C4.40254582,3.23007443 4.76996984,3.22286978 5.00584503,3.47643653 L6.79942111,5.54806024 L10.0713025,2.17545683 C10.1896386,2.05317349 10.345325,1.99113319 10.5041322,2.00102381 C10.6621662,2.01181467 10.8108437,2.09453461 10.9167145,2.23120423 Z M20.4021413,3.8837845 C20.7321992,3.8837845 21,4.19310094 21,4.57432574 C21,4.95555054 20.7321992,5.26486698 20.4021413,5.26486698 L13.0885359,5.26486698 C12.758478,5.26486698 12.4906772,4.95555054 12.4906772,4.57432574 C12.4906772,4.19310094 12.758478,3.8837845 13.0885359,3.8837845 L20.4021413,3.8837845 Z" id="tasks" fill="#000000"></path>
    </g>
</svg>