<?xml version="1.0" encoding="UTF-8"?>
<svg width="24px" height="24px" viewBox="0 0 24 24" version="1.1" xmlns="http://www.w3.org/2000/svg" xmlns:xlink="http://www.w3.org/1999/xlink">
    <!-- Generator: Sketch 56.3 (81716) - https://sketch.com -->
    <title>menu-data-recommendations</title>
    <desc>Created with Sketch.</desc>
    <g id="menu-data-recommendations" stroke="none" stroke-width="1" fill="none" fill-rule="evenodd">
        <path d="M19.2664436,7.64089415 L16.2169599,7.64089415 L16.9528533,4.82286631 L16.9516642,4.82286631 C17.2524371,3.67175382 16.5771743,2.49330051 15.4014187,2.11758289 L15.3990412,2.11644437 C14.3837944,1.79307655 13.2686634,2.15971165 12.6754445,3.01137517 L11.1442506,5.21228173 L7.34000445,8.8557807 L6.9881269,8.8557807 C6.53873891,8.1054531 5.7065829,7.64316595 4.80424614,7.6408924 L3.53575831,7.6408924 C2.13530879,7.6408924 1,8.72825824 1,10.0695031 L1,18.5713893 C1,19.2158223 1.26629723,19.8329436 1.74301492,20.2883809 C2.21854569,20.7449551 2.86289369,21 3.53575831,21 L4.80424614,21 C5.62453292,21 6.39372105,20.6174326 6.86684754,19.97641 L11.1443419,21 L18.1143295,21 C19.9522673,21 21.5274992,19.7407193 21.8567947,18.0088331 L23.0099682,11.9367234 L23.0099682,11.9355849 C23.212068,10.8732864 22.9101083,9.77909989 22.1873076,8.9502476 C21.4645008,8.12020023 20.3945642,7.64086151 19.2663466,7.64086151 L19.2664436,7.64089415 Z M4.80422149,19.7862794 L3.53573366,19.7862794 C2.8355089,19.7851406 2.26843275,19.2420281 2.26724582,18.5713911 L2.26724582,10.0695048 C2.26843488,9.40000461 2.8355089,8.8557533 3.53573366,8.8557533 L4.80422149,8.8557533 C5.50325933,8.8557533 6.0715224,9.40000461 6.0715224,10.0695048 L6.0715224,18.5713911 C6.0715224,19.2420281 5.50325933,19.7851426 4.80422149,19.7862794 L4.80422149,19.7862794 Z M21.7629421,11.7192812 L20.6097686,17.7913908 C20.3910244,18.9470504 19.3400938,19.7862211 18.1144266,19.7862211 L11.2999566,19.7862211 L7.3398885,18.8377746 L7.3398885,10.0694757 L7.86536141,10.0694757 L12.1297692,5.98525907 L12.1999103,5.88506285 L13.7311042,3.68529306 C14.0295001,3.25716736 14.6048939,3.09778614 15.0958851,3.30499921 C15.5880633,3.51336071 15.8507997,4.02915192 15.7223988,4.52898168 L14.9865054,7.34700953 L14.5929942,8.85565129 L19.2661302,8.85565129 C20.0186709,8.85565129 20.7319519,9.17447202 21.2134172,9.7278175 C21.6960696,10.281163 21.8958077,11.0098628 21.7614722,11.7192083 L21.7629421,11.7192812 Z" id="recommendation" fill="#000000"></path>
    </g>
</svg>