<?xml version="1.0" encoding="UTF-8"?>
<svg width="24px" height="24px" viewBox="0 0 24 24" version="1.1" xmlns="http://www.w3.org/2000/svg" xmlns:xlink="http://www.w3.org/1999/xlink">
    <!-- Generator: Sketch 56.3 (81716) - https://sketch.com -->
    <title>menu-auth</title>
    <desc>Created with Sketch.</desc>
    <g id="menu-auth" stroke="none" stroke-width="1" fill="none" fill-rule="evenodd">
        <path d="M10.8666249,12.0369406 C10.7159738,11.7657687 10.374498,11.5548571 9.90245787,11.4343362 C8.83785677,11.1531209 7.23091171,11.3740758 6.36717874,12.3482862 C5.78466116,12.9810209 5.62396665,13.8547972 5.87505182,14.8993115 C6.17635402,14.0757522 6.50778644,13.6037121 6.84926226,13.453061 C7.02000017,13.3727137 7.20078149,13.3727137 7.361476,13.453061 C7.41169303,13.4631044 7.46191006,13.503278 7.49204028,13.5434516 C7.73308204,13.874884 8.09464468,14.095839 8.49638095,14.1761862 C8.62694523,14.2063165 8.75750952,14.2163599 8.8880738,14.2163599 C9.15924578,14.1962731 9.41033095,14.1159258 9.62124249,13.9753181 C9.81217522,13.8547675 9.96268501,13.7042351 10.0730913,13.5136023 C10.0932826,13.4831912 10.1234128,13.453061 10.1635864,13.4229308 C10.1836733,13.4229308 10.2037601,13.4128873 10.2238469,13.4028439 C10.4849755,13.3425835 10.7661908,13.3928005 10.9871458,13.5334082 C11.017276,13.553495 11.0474062,13.5735819 11.0775364,13.5936687 C11.5797068,13.9753181 11.9111392,14.5277055 12.0015299,15.1303099 L12.0015299,15.1704835 C12.3229189,14.3971412 12.2927886,13.6740159 12.1622244,13.2120192 C12.1220507,13.0613681 12.0718337,12.9508906 12.0216167,12.8605 C11.9914864,12.7901961 11.9412694,12.7299357 11.881009,12.6897621 C11.7705315,12.589328 11.6198804,12.539111 11.4591859,12.5692412 C11.3687952,12.5692412 11.2081007,12.5692412 11.0875799,12.4788505 C11.0272394,12.4286342 10.9771009,12.3683943 10.9570255,12.2580504 C10.9555319,12.2460263 10.9536099,12.2343761 10.9512495,12.2229127 C10.9376042,12.1568188 10.9094027,12.09693 10.8666249,12.0370411 Z M11.2282333,11.8662811 C11.8107409,11.5850773 12.4936718,11.3842165 13.066131,11.2636988 C13.38752,11.2034383 13.6084749,10.9322663 13.6084749,10.6209207 L13.6084749,10.2794449 C13.0460441,9.87770865 12.6342645,9.30523447 12.4635266,8.65241304 L12.0115733,7.05551139 C11.8709656,6.53325425 11.8207485,5.99091029 11.931226,5.45860974 C12.3028321,3.78136084 13.7691694,3.36958116 13.7691694,3.36958116 C14.673076,2.97788831 15.6975035,2.89754105 16.6616705,3.12853941 C16.8725821,3.17875644 17.0734502,3.2691471 17.2743183,3.35953776 C17.736315,3.5704493 17.8166623,4.27348776 18.0878343,4.23331413 C18.4393535,4.19314051 18.7306123,4.40405205 18.9314804,4.6350504 C19.142392,4.87609216 19.2528694,5.13722073 19.2528694,5.13722073 C19.3231733,5.34813227 19.3633469,5.55904381 19.3733903,5.76995535 C19.4336507,6.26208227 19.3733903,6.7642526 19.2126958,7.23629271 L18.5197007,8.60219601 C18.3489628,9.26506085 17.9472266,9.84757843 17.3847958,10.2593581 L17.3847958,10.6209207 C17.3747524,10.9322663 17.6057507,11.2034383 17.9271398,11.2737422 C18.9113936,11.4746103 20.1869062,11.9165202 20.8196409,12.5191246 C21.392115,13.0614685 21.3820716,13.4129878 21.3720282,13.9352449 L21.3720282,14.1762867 L20.8497711,14.1762867 L20.8497711,13.9352449 C20.8598145,13.4330746 20.8598145,13.2723801 20.4480348,12.8606004 C19.8956475,12.3383433 18.6803953,11.936607 17.8166623,11.7457823 C17.7463584,11.7357389 17.6760546,11.7156521 17.6157942,11.6855218 C17.0734502,12.2680394 16.3101513,12.5994718 15.4966354,12.5994718 C14.6831194,12.5994718 13.9097771,12.2680394 13.3774766,11.6855218 C13.3172161,11.7056087 13.2469123,11.7256955 13.1866518,11.7457823 C12.7849533,11.826122 12.3230055,11.9566693 11.8710928,12.1273837 C12.0417783,12.197695 12.1923845,12.3181909 12.3128755,12.4587637 C12.523787,12.6998055 12.6342645,12.960934 12.6342645,12.960934 C12.7045683,13.1718456 12.7447419,13.3827571 12.7547854,13.5936687 C12.8150458,14.0857956 12.7547854,14.5879659 12.5940908,15.060006 L11.9010958,16.4259093 C11.7303579,17.0887742 11.3286216,17.6712917 10.7661908,18.0830714 L10.7661908,18.4446341 C10.7561474,18.7559797 10.9871458,19.0271516 11.3085348,19.0974555 C12.2927886,19.2983236 13.5683013,19.7402335 14.2010359,20.3428379 C14.7735101,20.8851819 14.7634667,21.2367011 14.7534233,21.7589582 L14.7534233,22 L14.2311661,22 L14.2311661,21.7589582 C14.2412095,21.2567879 14.2412095,21.0960934 13.8294299,20.6843137 C13.2770425,20.1620566 12.0617903,19.7603203 11.1980573,19.5694956 C11.1277535,19.5594522 11.0574496,19.5393654 10.9971892,19.5092352 C10.4548452,20.0917527 9.69154633,20.4231852 8.8780304,20.4231852 C8.06451446,20.4231852 7.29117215,20.0917527 6.7588716,19.5092352 C6.69861116,19.529322 6.62830732,19.5494088 6.56804688,19.5694956 C5.6942705,19.7502769 4.4790183,20.1620566 3.92663094,20.6843137 C3.51485127,21.08605 3.52489467,21.2467445 3.52489467,21.7489148 L3.52489467,21.9899566 L3.00263753,21.9899566 L3.00263753,21.7589582 C2.99259412,21.2266577 2.98255071,20.8851819 3.55502489,20.3428379 C4.1777161,19.7402335 5.46327215,19.2983236 6.447526,19.0874121 C6.76891501,19.0271516 6.98986995,18.7559797 6.98986995,18.4446341 L6.98986995,18.1031582 C6.42743918,17.701422 6.01565951,17.1289478 5.8449216,16.4761264 L5.3929683,14.8792247 C5.25236061,14.3569676 5.20214358,13.8146236 5.31262105,13.2823231 C5.68422709,11.6050742 7.15056446,11.1932945 7.15056446,11.1932945 C8.05447105,10.8016016 9.07889853,10.7212544 10.0430656,10.9522527 C10.2539771,11.0024698 10.4548452,11.0928604 10.6557134,11.1832511 C10.9570156,11.3138154 11.0976233,11.6552912 11.2281875,11.8662027 Z M8.86798699,18.2035923 C9.56098205,18.2035923 10.2138035,17.9424637 10.7059304,17.4704236 C11.1880139,17.0084269 11.4692293,16.3857357 11.4692293,15.7228709 L11.4692293,15.2106571 C11.4591859,14.8290077 11.1177101,14.2464901 10.746104,13.9853615 C10.6657568,13.9150577 10.5552793,13.874884 10.4448018,13.8547972 C10.0932826,14.3569676 9.53085183,14.6683132 8.90816062,14.6984434 L8.80772655,14.6984434 C8.5767282,14.6984434 8.34572985,14.6683132 8.13481831,14.5980093 C7.72303864,14.467445 7.361476,14.2264033 7.10034743,13.8849275 C7.08026061,13.8849275 7.07021721,13.8849275 7.05013039,13.8949709 C6.95973973,13.9351445 6.63835072,14.1560994 6.25670127,15.3512648 L6.25670127,15.7228709 C6.25670127,16.3756923 6.52787325,17.0084269 7.02000017,17.480467 C7.5121271,17.9424637 8.17499193,18.2035923 8.86798699,18.2035923 Z M8.8780304,19.9310582 C9.52080842,19.9310582 10.1334562,19.6699297 10.5653227,19.2280198 C10.3544112,19.0070648 10.2439337,18.7358929 10.2439337,18.4446341 L10.2439337,18.394417 C9.38020073,18.7961533 8.37586007,18.8061967 7.5121271,18.4044604 L7.5121271,18.4446341 C7.5121271,18.7358929 7.39160622,19.0070648 7.19073809,19.2280198 C7.62260457,19.6699297 8.23525237,19.9310582 8.8780304,19.9310582 Z M15.4865919,10.379879 C16.179587,10.379879 16.8324084,10.1187504 17.3245354,9.6467103 C17.8066189,9.18471359 18.0878343,8.56202238 18.0878343,7.89915755 L18.0878343,7.38694381 C18.0777909,7.00529436 17.736315,6.42277678 17.364709,6.1616482 C17.2843617,6.09134436 17.1738843,6.05117073 17.0634068,6.03108392 C16.7118876,6.53325425 16.1494568,6.84459985 15.5267656,6.87473007 L15.4263315,6.87473007 C15.1953332,6.87473007 14.9643348,6.84459985 14.7534233,6.77429601 C14.3416436,6.64373172 13.980081,6.40268996 13.7189524,6.06121414 C13.6988656,6.06121414 13.6888222,6.06121414 13.6687354,6.07125754 C13.5783447,6.11143117 13.2569557,6.33238612 12.8753062,7.5275515 L12.8753062,7.89915755 C12.8753062,8.55197898 13.1464782,9.18471359 13.6386051,9.6567537 C14.1307321,10.1187504 14.7935969,10.379879 15.4865919,10.379879 Z M15.4966354,12.1073449 C16.1394134,12.1073449 16.7520612,11.8462163 17.1839277,11.4043065 C16.9730161,11.1833515 16.8625387,10.9121795 16.8625387,10.6209207 L16.8625387,10.5707037 C15.9988057,10.97244 14.994465,10.9824834 14.1307321,10.5807471 L14.1307321,10.6209207 C14.1307321,10.9121795 14.0102112,11.1833515 13.809343,11.4043065 C14.2412095,11.8462163 14.8538573,12.1073449 15.4966354,12.1073449 Z M12.9857837,4.52457293 C12.4032661,5.15730754 12.2425716,6.03108392 12.4936568,7.07559821 C12.794959,6.25203886 13.1263914,5.77999875 13.4678672,5.62934765 C13.6386051,5.5490004 13.8193865,5.5490004 13.980081,5.62934765 C14.030298,5.63939106 14.080515,5.67956469 14.1106452,5.71973831 C14.351687,6.05117073 14.7132496,6.27212568 15.1149859,6.35247293 C15.2455502,6.38260315 15.3761145,6.39264656 15.5066788,6.39264656 C15.9988057,6.36251634 16.450759,6.10138776 16.6918007,5.68960809 C16.721931,5.63939106 16.7821914,5.59921743 16.8424518,5.57913062 C17.1035804,5.51887018 17.3847958,5.56908721 17.6057507,5.70969491 C17.635881,5.72978172 17.6660112,5.74986853 17.6961414,5.76995535 C18.1983117,6.1516048 18.5297442,6.70399216 18.6201348,7.30659656 L18.6201348,7.34677018 C18.9415238,6.57342787 18.9113936,5.8503026 18.7808293,5.38830589 C18.7406557,5.23765479 18.6904387,5.12717732 18.6402216,5.03678666 C18.6100914,4.96648282 18.5598744,4.90622238 18.4996139,4.86604875 C18.3891365,4.76561468 18.2384854,4.71539765 18.0777909,4.74552787 C17.9472266,4.74552787 17.6258376,4.74552787 17.5756205,4.43418227 C17.5053167,4.06257622 17.1136238,3.76127402 16.5210628,3.61062292 C15.4564617,3.32940754 13.8495167,3.55036248 12.9857837,4.52457293 Z" id="Combined-Shape" stroke="#000000" stroke-width="0.2" fill="#000000"></path>
    </g>
</svg>