<?xml version="1.0" encoding="UTF-8"?>
<svg width="24px" height="24px" viewBox="0 0 24 24" version="1.1" xmlns="http://www.w3.org/2000/svg" xmlns:xlink="http://www.w3.org/1999/xlink">
    <!-- Generator: Sketch 56.3 (81716) - https://sketch.com -->
    <title>menu-res-fertilizers</title>
    <desc>Created with Sketch.</desc>
    <g id="menu-res-fertilizers" stroke="none" stroke-width="1" fill="none" fill-rule="evenodd">
        <path d="M6.33726933,2.02360986 L6.33651677,2.0236205 C7.2513783,2.1171379 8.09384679,2.4748676 8.904781,2.81775839 L15.6259167,2.81775839 C16.7588017,2.33088652 17.8393743,1.94792879 19.1392919,2.02882647 C19.3214107,2.0399604 19.4698293,2.18246518 19.4949246,2.36949427 L19.4942076,2.36949427 C19.6591294,3.59783637 19.2167316,4.6346027 18.7470946,5.62987329 C18.767891,5.76648241 19.0138181,7.38956597 19.1149151,8.29650613 C19.2468451,9.4824785 19.4253779,10.6944807 19.4239438,11.9376427 C19.4232279,13.1435649 19.2762429,14.3326343 19.1134834,15.4985998 C19.0209913,16.1598715 18.7829387,17.2330758 18.7513897,17.3778017 C19.2496975,18.4049351 19.5802423,19.3816618 19.4977869,20.598091 C19.485599,20.7843848 19.3486433,20.9372749 19.1693934,20.9625086 L19.1693934,20.9632508 C17.97355,21.1361876 16.9646362,20.6693416 15.9966913,20.1780238 L8.9012924,20.1780238 C7.76914162,20.6633947 6.6893216,21.0471124 5.39011984,20.9662147 C5.20800105,20.9543398 5.05958247,20.8118369 5.0344872,20.6248059 L5.03520415,20.6248059 C4.87028238,19.3964638 5.31268021,18.3589375 5.78231721,17.3636669 C5.76152073,17.2264878 5.51702719,15.6040122 5.41449669,14.6985541 C5.28686909,13.5703413 5.10905295,12.4170678 5.10546799,11.2303164 C5.10117286,9.96796451 5.24743287,8.71955855 5.4159284,7.49570042 C5.50698871,6.83292769 5.74575726,5.76122439 5.77802209,5.61649852 C5.27971422,4.58936513 4.94916951,3.61187842 5.03162488,2.39544925 C5.04452861,2.20618767 5.18577397,2.05329755 5.36860861,2.03103159 C5.700563,1.99021188 6.02322965,1.99169577 6.33726933,2.02360986 Z M5.83250042,2.85337252 L5.83256907,2.8533938 C5.84833621,3.74838304 6.06916802,4.50689616 6.51442927,5.39899742 C6.55529811,5.48138469 6.56748691,5.57712697 6.5466941,5.66841568 L6.54741105,5.66841568 C6.54741105,5.66841568 6.25773611,6.98803319 6.17241364,7.6084932 C6.00535899,8.8204954 5.86626102,10.0310346 5.86984598,11.2289199 C5.87342525,12.3339528 6.04335065,13.4583846 6.17384535,14.6072882 C6.27637768,15.5112643 6.55242203,17.3541005 6.55242203,17.3541005 C6.56461174,17.4342591 6.55242203,17.5166425 6.51800597,17.589376 C6.09713883,18.4739723 5.81678559,19.2740571 5.8253896,20.1349796 C6.81051497,20.1149537 7.68883123,19.8499814 8.69119216,19.4165562 C8.7377961,19.3965167 8.78798665,19.386126 8.8381772,19.386126 L16.0712404,19.386126 C16.1300359,19.386126 16.1881118,19.4002277 16.2404536,19.4269453 L16.2404536,19.4262032 C17.0944308,19.8625924 17.865938,20.1520506 18.6969345,20.1431446 C18.6818832,19.2473764 18.4603355,18.4888632 18.0150743,17.596021 C17.9742054,17.5136318 17.9627325,17.4178895 17.9828094,17.3273437 L17.9820925,17.3273437 C17.9820925,17.3273437 18.2703321,16.0076882 18.3570899,15.3857462 C18.5191262,14.2294136 18.6582235,13.0768811 18.6596576,11.9368884 C18.6611076,10.7737159 18.4897377,9.5915055 18.3556582,8.38695125 C18.2552734,7.48449506 17.9770815,5.64165892 17.9770815,5.64165892 C17.9648918,5.56075934 17.9770815,5.47837777 18.0114976,5.40490144 L18.0114976,5.4041593 C18.4323647,4.518822 18.712718,3.71947815 18.7041139,2.85855569 C17.7189886,2.87860056 16.8406723,3.14431385 15.8383114,3.57773906 C15.7917074,3.5985196 15.7415169,3.60891026 15.6913263,3.60891026 L8.83821648,3.60891026 C8.78945947,3.60891026 8.73998661,3.59926212 8.69409853,3.57996584 L8.69481548,3.57996584 C7.71170919,3.16434352 6.785394,2.843724 5.83250042,2.85337252 Z M8.82311856,11.4997989 L16.0892212,11.4997989 C16.3000145,11.4997989 16.4713771,11.6764407 16.4713771,11.8953763 L16.4713771,15.0622759 C16.4713771,15.2804724 16.3000127,15.4578534 16.0892212,15.4578534 L8.82311856,15.4578534 C8.61160938,15.4578534 8.44024675,15.2804705 8.44024675,15.0622759 L8.44024675,11.8953763 C8.44024675,11.6764388 8.61161121,11.4997989 8.82311856,11.4997989 Z M9.20527452,12.2917138 L9.20527452,14.6666985 L15.706331,14.6666985 L15.706331,12.2917138 L9.20527452,12.2917138 Z" id="Fertilizers" fill="#000000"></path>
    </g>
</svg>