<?xml version="1.0" encoding="UTF-8"?>
<svg width="24px" height="24px" viewBox="0 0 24 24" version="1.1" xmlns="http://www.w3.org/2000/svg" xmlns:xlink="http://www.w3.org/1999/xlink">
    <!-- Generator: Sketch 56.3 (81716) - https://sketch.com -->
    <title>menu-support-mobileLog</title>
    <desc>Created with Sketch.</desc>
    <g id="menu-support-mobileLog" stroke="none" stroke-width="1" fill="none" fill-rule="evenodd">
        <path d="M22,2.5533831 L22,20.4466591 C22,20.7517767 21.7493039,21 21.4408896,21 L17.4899188,21 C17.1806812,21 16.9308084,20.7781654 16.9308084,20.4730479 C16.9308084,20.1679304 17.1815045,19.9460958 17.4899188,19.9460958 L20.9485752,19.9460958 L20.9485752,3.0539042 L17.4899188,3.0539042 C17.1806812,3.0539042 16.9308084,2.83206964 16.9308084,2.5269521 C16.9308084,2.22183457 17.1815045,2 17.4899188,2 L21.4408896,2 C21.7493039,2 22,2.24822334 22,2.55334087 L22,2.5533831 Z M15.2460883,12.7633044 L10.9429818,17.1035184 C10.7252826,17.3195686 10.6658967,17.6700537 10.8836064,17.8861038 C11.1013162,18.102154 11.4559114,18.102154 11.6736317,17.8861038 L16.9812115,12.6305161 C17.1997552,12.4144659 17.1989108,11.8528707 16.9812115,11.6368205 L11.6736317,6.38059942 C11.455088,6.16454927 11.1013268,6.16454927 10.8836064,6.38059942 C10.6658861,6.59664957 10.7244466,6.94713468 10.9429818,7.16318483 L15.2395438,11.5025544 L3.55911039,11.500905 C3.25069612,11.500905 3,11.8282947 3,12.1334122 C3,12.4385298 3.25069612,12.7659194 3.55911039,12.7659194 L15.2460883,12.7633044 Z" id="log" fill="#000000"></path>
    </g>
</svg>