<?xml version="1.0" encoding="UTF-8"?>
<svg width="24px" height="24px" viewBox="0 0 24 24" version="1.1" xmlns="http://www.w3.org/2000/svg" xmlns:xlink="http://www.w3.org/1999/xlink">
    <!-- Generator: Sketch 56.3 (81716) - https://sketch.com -->
    <title>menu-data-remarks</title>
    <desc>Created with Sketch.</desc>
    <g id="menu-data-remarks" stroke="none" stroke-width="1" fill="none" fill-rule="evenodd">
        <path d="M10.0729054,2.64793582 C10.0729054,2.29022635 10.3766816,2.00023905 10.7514243,2.00021591 L14.2475832,2 C14.6223602,2 14.9261898,2.28997772 14.9261898,2.64771991 L14.9261898,7.44840198 L19.2318648,5.05192407 C19.5577986,4.87051394 19.9761707,4.97772838 20.1630959,5.29056668 L21.9107569,8.2154539 C22.0951104,8.52398805 21.9847685,8.91668673 21.6634087,9.09574768 L17.348316,11.500108 L21.6634087,13.9044682 C21.9847975,14.0835454 22.0951254,14.4762939 21.9107142,14.7848335 L20.1630532,17.7088571 C19.9761058,18.0216401 19.557781,18.1288197 19.2318772,17.9474351 L14.9270946,15.5515704 L14.9270946,20.3522801 C14.9270946,20.7100059 14.6232917,21 14.2485318,21 L10.7523503,21 C10.3775905,21 10.0737876,20.7100059 10.0737876,20.3522801 L10.0737876,15.5515704 L5.76900493,17.9474351 C5.44315099,18.128792 5.02489197,18.0216757 4.83790199,17.7089793 L3.08935887,14.7849557 C2.90484897,14.4764067 3.01515289,14.083573 3.33659128,13.9044682 L7.65168397,11.500108 L3.33659128,9.09574768 C3.0152025,8.91667055 2.9048746,8.52392204 3.08928581,8.21538239 L4.83694679,5.2913588 C5.0238942,4.97857581 5.44221903,4.87139618 5.76812279,5.05278079 L10.0729054,7.4486455 L10.0729054,2.64793582 Z M11.4300309,3.29548173 L11.4300309,8.57608436 C11.4300309,9.07593003 10.8620483,9.38740746 10.4096793,9.13563752 L5.67628347,6.50122437 L4.60100431,8.30028131 L9.33978177,10.9407178 C9.78842326,11.1906999 9.78842326,11.809516 9.33978177,12.0594981 L4.60100431,14.6998644 L5.67703707,16.4990631 L10.4105614,13.8645784 C10.8629304,13.6128085 11.4309131,13.9242859 11.4309131,14.4241315 L11.4309131,19.7045602 L13.5699691,19.7045602 L13.5699691,14.4241315 C13.5699691,13.9242859 14.1379517,13.6128085 14.5903207,13.8645784 L19.3237165,16.4989915 L20.3990694,14.6999346 L15.6602182,12.0594981 C15.2115767,11.809516 15.2115767,11.1906999 15.6602182,10.9407178 L20.3990694,8.30024022 L19.3236485,6.50041462 L14.5894284,9.13541471 C14.1370595,9.38719685 13.5690643,9.07572022 13.5690643,8.57586846 L13.5690643,3.29548173 L11.4300309,3.29548173 Z" id="Remarks" fill="#000000"></path>
    </g>
</svg>