<?xml version="1.0" encoding="UTF-8"?>
<svg width="24px" height="24px" viewBox="0 0 24 24" version="1.1" xmlns="http://www.w3.org/2000/svg" xmlns:xlink="http://www.w3.org/1999/xlink">
    <!-- Generator: Sketch 56.3 (81716) - https://sketch.com -->
    <title>menu-res-seeds</title>
    <desc>Created with Sketch.</desc>
    <g id="menu-res-seeds" stroke="none" stroke-width="1" fill="none" fill-rule="evenodd">
        <path d="M12.4630318,17.5005805 C12.4807232,17.8373328 12.4460369,18.4209317 12.0800892,18.7576663 C11.7318329,19.1116917 11.1570707,19.1649341 10.8435008,19.1469565 C10.7217539,19.1469565 10.6,19.0411691 10.6,18.8994195 C10.6,18.5806519 10.6346863,17.996359 10.9829426,17.6423337 C11.3311989,17.2883083 11.905961,17.2350659 12.219531,17.2530435 C12.3582833,17.2530435 12.4630318,17.3588309 12.4630318,17.5005805 Z M15.0226879,17.2530435 C15.1623911,17.2530435 15.2673448,17.3768084 15.2666667,17.5005805 C15.2666667,17.8193481 15.2319094,18.403641 14.8829743,18.7576663 C14.5340392,19.1116917 13.9581566,19.1649341 13.6439754,19.1469565 C13.5219912,19.1469565 13.4,19.0411691 13.4,18.8994195 C13.4,18.5806519 13.4347539,17.996359 13.7836891,17.6423337 C14.1326242,17.2883083 14.7085067,17.2350659 15.0226879,17.2530435 Z M13.1560213,20.1030435 C13.2957244,20.1030435 13.4006782,20.2088309 13.4,20.3505805 C13.4,20.6693481 13.3652428,21.253641 13.0163076,21.6076663 C12.6673725,21.9616917 12.09149,22.0149341 11.7773088,21.9969565 C11.638286,21.9969565 11.5333333,21.8911691 11.5333333,21.7494195 C11.5333333,21.4306519 11.5680873,20.846359 11.9170224,20.4923337 C12.2659575,20.1383083 12.8418401,20.0850659 13.1560213,20.1030435 Z M18.5395273,10.3342571 L18.539412,10.3342653 C18.8274639,10.6428422 18.9804965,11.0333772 19,11.4657141 C19,11.898051 18.8462146,12.288586 18.5581551,12.5971629 L15.5051083,15.8676672 C15.255303,16.1143724 14.9289892,16.2172314 14.6026754,16.1352652 L13.2583976,15.8057873 C13.2201395,15.8057873 13.1818813,15.8057873 13.1623778,15.82668 L12.6627673,16.1561579 C12.508982,16.2590169 12.335693,16.3 12.1631569,16.3 C12.0858878,16.3 11.989868,16.2799096 11.9133517,16.2590169 L10.4535429,15.82668 C10.2997575,15.7648 10.1467326,15.6828337 10.0312092,15.559082 L5.4418449,10.642834 C5.15378154,10.3342571 5,9.94372206 5,9.51138517 C5,9.07904829 5.15378538,8.6885133 5.4418449,8.37993634 L10.0125813,3.46286543 C10.5691892,2.84571152 11.5488988,2.84571152 12.1250178,3.46286543 L18.5395273,10.3342571 Z M17.943897,11.9590999 L17.9439047,11.9589847 C18.0781826,11.8352453 18.1359443,11.6504159 18.1359443,11.4647884 C18.1359443,11.2799714 18.0594281,11.0951461 17.9439047,10.9713944 L11.5301634,4.10082566 C11.2803582,3.83322772 10.8580245,3.83322772 10.6082193,4.10082566 L6.03748285,9.01789657 C5.92195946,9.14083362 5.84544317,9.32646529 5.84544317,9.51129054 C5.84544317,9.69610757 5.92195946,9.88093282 6.03748285,10.0046845 L10.6082193,14.962899 L12.1250255,15.4362149 C12.1632837,15.4362149 12.2015418,15.4362149 12.2210454,15.4153222 L12.7206558,15.0858443 C12.9314385,14.9411999 13.1812438,14.9002168 13.431049,14.9620926 L14.7753267,15.2915705 C14.8143338,15.2915705 14.8713466,15.2714801 14.8908501,15.2505874 L17.943897,11.9590999 Z" id="seeds" fill="#000000"></path>
    </g>
</svg>