<?xml version="1.0" encoding="UTF-8"?>
<svg width="24px" height="24px" viewBox="0 0 24 24" version="1.1" xmlns="http://www.w3.org/2000/svg" xmlns:xlink="http://www.w3.org/1999/xlink">
    <!-- Generator: Sketch 56.3 (81716) - https://sketch.com -->
    <title>menu-res-yieldrestypes</title>
    <desc>Created with Sketch.</desc>
    <g id="menu-res-yieldrestypes" stroke="none" stroke-width="1" fill="none" fill-rule="evenodd">
        <path d="M21.461538,17.019409 C21.461538,16.9140591 21.4269224,16.8164184 21.3656242,16.7427631 L18.3395765,13.1488007 C18.2155364,13.003196 17.9991807,13.0006262 17.8758754,13.1488007 C17.8131354,13.2224604 17.7792398,13.3209583 17.7792398,13.4245914 C17.7792398,13.5282246 17.8138554,13.627582 17.8758754,13.7012373 L20.3408739,16.6295131 L13.9428072,16.6286566 L11.4519625,11.4998436 L13.9428072,6.37103046 L20.3401354,6.37103046 L17.875137,9.29930625 C17.8131169,9.37296592 17.7792232,9.47146387 17.7785014,9.57509698 C17.7785014,9.67958961 17.8131169,9.77808756 17.875137,9.85174285 C17.9991771,9.99991733 18.2155327,9.99820488 18.339558,9.85174285 L21.3656058,6.25778041 C21.4932514,6.1053237 21.4932514,5.85779833 21.3648845,5.70534381 L18.3395752,2.10984652 C18.2155351,1.96338449 17.9991795,1.96338449 17.8751541,2.10984652 C17.7475085,2.26230324 17.7475085,2.5098286 17.8751541,2.66228312 L20.3401526,5.59055891 L13.5641761,5.58970246 L10.8822534,11.1090254 L3.32811876,11.1090254 C3.1471079,11.1090254 3,11.2837528 3,11.4995791 C3,11.7154054 3.14711713,11.8901328 3.32811876,11.8901328 L10.8822534,11.8901328 L13.5641761,17.4094558 L20.3401526,17.4094558 L17.8751541,20.3370738 C17.7475085,20.4895305 17.7475085,20.7370559 17.8751541,20.8895104 C17.9991942,21.0376849 18.2155499,21.0359724 18.3395752,20.8895104 L21.3656229,17.2946709 C21.4269211,17.2210112 21.461538,17.1233706 21.461538,17.0188801 L21.461538,17.019409 Z" id="Path" stroke="#000000" stroke-width="0.2" fill="#000000"></path>
    </g>
</svg>