<?xml version="1.0" encoding="UTF-8"?>
<svg width="24px" height="24px" viewBox="0 0 24 24" version="1.1" xmlns="http://www.w3.org/2000/svg" xmlns:xlink="http://www.w3.org/1999/xlink">
    <!-- Generator: Sketch 56.3 (81716) - https://sketch.com -->
    <title>menu-res-yieldresources</title>
    <desc>Created with Sketch.</desc>
    <g id="menu-res-yieldresources" stroke="none" stroke-width="1" fill="none" fill-rule="evenodd">
        <path d="M12.3570206,10.7719756 C12.2662771,10.7719756 12.1794221,10.7274664 12.1171996,10.6508032 C12.0549771,10.5741399 12.0212728,10.4698838 12.0251619,10.3625584 L12.0251619,10.3640915 L12.0251619,9.79068697 L11.1527385,9.79068697 C10.9686598,9.79068697 10.8208798,9.61436773 10.8208798,9.39818611 C10.8208798,9.18046981 10.9686598,9.00568525 11.1527385,9.00568525 L12.0251619,9.00415174 L12.0251619,7.86652724 L11.7568242,7.86652724 C11.2318238,7.86652724 10.8208798,7.26552992 10.8208798,6.508121 C10.8208798,5.75071209 11.233118,5.15430702 11.7568242,5.15430702 L12.0251619,5.15430702 L12.0251619,4.58549477 C12.0251619,4.36931315 12.1729419,4.19299391 12.3570206,4.19299391 C12.5398017,4.19299391 12.6888793,4.36931315 12.6888793,4.58549477 L12.6888793,5.16965381 L13.5613027,5.16965381 C13.7453814,5.16965381 13.8931647,5.34597305 13.8931647,5.56215467 C13.8931647,5.77987098 13.7453814,5.95465553 13.5613027,5.95465553 L12.6888793,5.95465553 L12.6888793,7.09691155 L12.9611063,7.09691155 C13.4848125,7.09691155 13.8931647,7.6902551 13.8931647,8.45225628 C13.8931647,9.2127267 13.4848125,9.80607026 12.9611063,9.80607026 L12.6888793,9.80607026 L12.6888793,10.3794748 C12.6888793,10.4822001 12.6538782,10.5833907 12.5916547,10.6569847 C12.5294311,10.7305786 12.4451689,10.7719756 12.3570206,10.7719756 Z M11.7568209,7.0968723 L12.0251586,7.09691155 L12.0251586,5.95465553 L11.7568209,5.95465553 C11.6310797,5.95465553 11.4845939,6.2015111 11.4845939,6.52346779 C11.4845939,6.84542447 11.6310763,7.0968723 11.7568209,7.0968723 Z M12.6888793,7.88187403 L12.6888793,9.01949853 L12.9611063,9.01949853 C13.0829582,9.01949853 13.229444,8.77265866 13.229444,8.45068628 C13.229444,8.12872174 13.0842558,7.88187403 12.9611063,7.88187403 L12.6888793,7.88187403 Z M13.0447939,20.9954496 L12.3352982,21 L12.3352982,18.8126115 L10.5795424,17.7982436 C9.73699813,18.2505691 8.81268273,18.4982269 7.87176477,18.5234375 C7.18580957,18.5293978 6.50680758,18.3558707 5.89567032,18.0192337 C4.42400269,17.199205 3.35973625,15.3885361 3.00498077,13.1670177 C2.97726372,12.9920441 3.06733968,12.8200165 3.22254414,12.7532829 C5.16522063,11.8961137 7.17735823,11.9302436 8.59638015,12.8407792 C9.86573074,13.6532909 10.6251239,15.0917579 10.8662476,17.104169 L12.3351482,17.9465207 L12.3351482,12.5483782 C9.68569233,12.3437507 7.66247571,9.93241077 7.75809295,7.09101139 C7.85352218,4.25116855 10.0335301,2 12.6899036,2 C15.3462772,2 17.5260971,4.25109262 17.6217143,7.09101139 C17.7160793,9.93241077 15.6942568,12.3437279 13.0446591,12.5483782 L13.0446591,16.8387227 L14.1588042,16.2114387 C14.4068492,14.2302342 15.1620882,12.8110152 16.4217539,12.0057546 C17.8407758,11.0952001 19.8350338,11.0596275 21.7792712,11.9227077 C21.9317061,11.9894261 22.0217813,12.1614499 21.9954521,12.3349597 C21.654532,14.5563642 20.572244,16.3715508 19.1005764,17.1871757 C18.4908582,17.525278 17.8145878,17.7002699 17.127249,17.6958212 C16.1683095,17.6646905 15.226008,17.4051666 14.3709763,16.9365354 L13.0447939,17.6958212 L13.0447939,20.9954496 Z M16.7769188,12.6551391 L16.7767556,12.6550654 C15.8191641,13.2660627 15.2011304,14.3100807 14.9212071,15.7559887 L15.7374285,15.2932799 C15.9092543,15.2013342 16.1198903,15.2740017 16.2085792,15.4564087 C16.2986516,15.6387967 16.2362927,15.8642135 16.0672304,15.9650543 L15.173424,16.4870633 C16.5427092,17.0639284 17.7524609,17.0743306 18.7709993,16.5093081 C20.1900213,15.7308503 20.967436,13.9883273 21.2542877,12.5112886 C19.9309078,11.9952058 18.1349582,11.7890977 16.7769188,12.6551391 Z M6.22294325,17.3399326 L6.22286627,17.3400404 C7.23448699,17.8976527 8.42625255,17.8932109 9.75935269,17.3355914 L8.90850715,16.8461937 C8.7366714,16.7468032 8.67154113,16.5184404 8.76300064,16.3330683 C8.80734508,16.2440914 8.88356075,16.1773559 8.97363671,16.1476963 C9.06509622,16.1195211 9.16209701,16.1299005 9.2452446,16.1773559 L9.24663063,16.1773559 L10.0656191,16.6474677 C9.79263479,15.1645066 9.17457979,14.1012027 8.2170238,13.4857636 C6.85763628,12.621199 5.06307021,12.8258265 3.73965489,13.3419131 C4.04453175,14.8188759 4.80392133,16.5806468 6.22294325,17.3399326 Z M8.46502981,7.29875731 L8.46502981,7.29864342 C8.46644883,9.77061228 10.3233454,11.7830094 12.6334067,11.8156347 C12.6694357,11.8008051 12.7110095,11.8008051 12.7470384,11.8156347 C14.4528092,11.7919071 15.9785416,10.6752254 16.6160017,8.98167636 C17.2534618,7.28827916 16.8779177,5.3500123 15.6625963,4.06871748 C14.4474524,2.78594206 12.6320977,2.41074098 11.0578702,3.11812961 C9.48502631,3.82415152 8.46233296,5.47172581 8.46502981,7.29875731 Z" id="Combined-Shape" fill="#000000"></path>
    </g>
</svg>