<?xml version="1.0" encoding="UTF-8"?>
<svg width="24px" height="24px" viewBox="0 0 24 24" version="1.1" xmlns="http://www.w3.org/2000/svg" xmlns:xlink="http://www.w3.org/1999/xlink">
    <!-- Generator: Sketch 56.3 (81716) - https://sketch.com -->
    <title>menu-data-meteo-stations</title>
    <desc>Created with Sketch.</desc>
    <g id="menu-data-meteo-stations" stroke="none" stroke-width="1" fill="none" fill-rule="evenodd">
        <path d="M12.1633735,2 C11.9037906,2 11.65924,2.21008453 11.65924,2.47978724 L11.65924,4.31521056 C11.65924,4.58633414 11.9037941,4.79499781 12.1633735,4.79499781 C12.4229565,4.79499781 12.626516,4.58491328 12.626516,4.31521056 L12.626516,2.47978724 C12.626516,2.20866366 12.4229495,2 12.1633735,2 L12.1633735,2 Z M17.0815958,2.26260929 C15.5924188,2.26260929 14.4338631,3.66933837 14.4338631,4.88299696 L14.4338631,6.80501673 C13.1892331,6.12790731 11.7164595,6.02430408 10.3980668,6.54240744 C9.17256834,7.02928084 8.20938442,7.97326578 7.66562391,9.20680194 C7.12049937,10.4474606 7.07268818,11.8271896 7.53992979,13.0932857 C8.00716441,14.3822029 8.94848879,15.3758273 10.1466716,15.9322904 C10.7805983,16.2289677 11.4432048,16.4134949 12.1222146,16.4134949 C12.6003965,16.4134949 13.0840345,16.2999347 13.5512691,16.1508856 C14.0868105,17.6470456 15.4585055,18.72872 17.0816728,18.72872 C19.1501451,18.72872 20.8236768,16.9642672 20.8236768,14.7968121 C20.8236768,13.7520584 20.3755736,12.7583977 19.6459895,12.0458211 L19.6459895,11.2594032 L21.5382215,11.2594032 C21.7978045,11.2594032 22,11.0507359 22,10.779616 C22,10.508496 21.797801,10.2984115 21.5382215,10.2984115 L19.6459895,10.2984115 L19.6459895,9.03220634 L21.5382215,9.03220634 C21.7978045,9.03220634 22,8.77953583 22,8.50841225 C22,8.23728867 21.797801,8.02720778 21.5382215,8.02720778 L19.6459895,8.02720778 L19.6459895,6.67298893 L21.5382215,6.67298893 C21.7978045,6.67298893 22,6.46432164 22,6.19320169 C22,5.92207811 21.797801,5.71199722 21.5382215,5.71199722 L19.6459895,5.71199722 L19.6459895,4.88302603 C19.6459895,3.66936744 18.5489203,2.26260929 17.0816028,2.26260929 L17.0815958,2.26260929 Z M17.0815958,3.26619062 C18.0325034,3.26619062 18.7196975,4.23572207 18.7210616,4.88299696 L18.7210616,12.2642273 C18.7210616,12.4104347 18.7825411,12.56516 18.8904748,12.6574181 C19.5066341,13.1911692 19.8563868,13.9647957 19.8563868,14.7966013 C19.8563868,16.4233646 18.6295243,17.7676265 17.0815888,17.7676265 C15.5145219,17.7676265 14.2234448,16.4233646 14.2234448,14.7966013 C14.2234448,13.9633421 14.5745616,13.1897156 15.1907209,12.6574181 C15.2986511,12.5637319 15.3587666,12.4090066 15.3587666,12.2642273 L15.3587666,4.88299696 C15.3587666,4.22009618 16.0951708,3.26619062 17.0815783,3.26619062 L17.0815958,3.26619062 Z M16.9982568,4.57640262 C16.7386738,4.57640262 16.5351142,4.78790802 16.5351142,5.0576071 L16.5351142,13.2255825 C15.8588325,13.4385087 15.358791,14.0588417 15.358791,14.8409716 C15.358791,15.787791 16.1293312,16.5443743 17.0406118,16.5443743 C17.9518924,16.5443743 18.6800775,15.787791 18.6800775,14.8409716 C18.6800775,14.0389641 18.1649968,13.4214874 17.4600352,13.2255825 L17.4600352,5.0576071 C17.4600352,4.78648352 17.2578362,4.57640262 16.9982568,4.57640262 L16.9982568,4.57640262 Z M6.02616518,4.62040583 C5.9059377,4.62040583 5.78161111,4.69989796 5.69007383,4.79500507 C5.50563525,4.98663652 5.50563525,5.30317328 5.69007383,5.49482653 L6.9087521,6.76103169 C7.00165341,6.85755967 7.12598,6.89162772 7.24484345,6.89162772 C7.36507094,6.89162772 7.49076506,6.85755967 7.58229883,6.76103169 C7.76673741,6.56940024 7.76673741,6.25286349 7.58229883,6.06262746 L6.36225653,4.79500507 C6.27071926,4.69989796 6.14639267,4.62040583 6.02616518,4.62040583 Z M11.7016021,7.19824022 C12.6429264,7.09035623 13.6225138,7.36432154 14.4340449,7.9406513 L14.4340449,12.0458974 C13.7058598,12.7570567 13.2987127,13.7507175 13.2987127,14.7968884 C13.2987127,14.9487756 13.324671,15.0878859 13.3410643,15.234086 C12.4147793,15.5421194 11.4133324,15.4754005 10.5239113,15.0594868 C9.5579993,14.6094977 8.80382758,13.7904472 8.4226671,12.7442762 C8.04559873,11.7236518 8.1084353,10.6008413 8.54836122,9.60009448 C8.98828016,8.60076485 9.74517995,7.85410208 10.7343155,7.45949406 C11.0471798,7.33741595 11.3777905,7.23521179 11.7015916,7.19830563 L11.7016021,7.19824022 Z M3.46177847,10.996783 C3.20219553,10.996783 3,11.2068712 3,11.4779875 C3,11.7491111 3.20219902,12.0017816 3.46177847,12.0017816 L5.22830935,12.0017816 C5.4878923,12.0017816 5.69008782,11.7491111 5.69008782,11.4779875 C5.69008782,11.2068639 5.4878888,10.996783 5.22830935,10.996783 L3.46177847,10.996783 Z M17.0405768,14.0984115 C17.4463599,14.0984115 17.7551216,14.4220562 17.7551216,14.8408226 C17.7551216,15.2397186 17.4258609,15.5832336 17.0405768,15.5832336 C16.6552928,15.5832336 16.3260321,15.239715 16.3260321,14.8408226 C16.3260321,14.4220853 16.6361648,14.0984115 17.0405768,14.0984115 Z M7.24470355,16.1069914 C7.12447606,16.1069914 7.00151701,16.1424792 6.9086122,16.2390046 L5.68993393,17.5052098 C5.50549535,17.6968413 5.50549535,18.0119608 5.68993393,18.203614 C5.78283524,18.3001384 5.9057978,18.3356273 6.02602528,18.3356273 C6.14625277,18.3356273 6.26784779,18.3001398 6.36211663,18.203614 L7.58215893,16.9374089 C7.76659751,16.7457774 7.76659751,16.4306579 7.58215893,16.2390046 C7.48925762,16.1438975 7.36629507,16.1084086 7.24470355,16.1069914 Z M12.1629258,18.203585 C11.9033429,18.203585 11.6587923,18.4150904 11.6587923,18.6847894 L11.6587923,20.5187955 C11.6587923,20.7899191 11.9033464,21 12.1629258,21 C12.4225088,21 12.6260684,20.7899155 12.6260684,20.5187955 L12.6260684,18.6847894 C12.6260684,18.4136659 12.4225018,18.203585 12.1629258,18.203585 Z" id="Shape" fill="#000000"></path>
    </g>
</svg>