<?xml version="1.0" encoding="UTF-8"?>
<svg width="24px" height="24px" viewBox="0 0 24 24" version="1.1" xmlns="http://www.w3.org/2000/svg" xmlns:xlink="http://www.w3.org/1999/xlink">
    <!-- Generator: Sketch 56.3 (81716) - https://sketch.com -->
    <title>menu-support-scripts</title>
    <desc>Created with Sketch.</desc>
    <g id="menu-support-scripts" stroke="none" stroke-width="1" fill="none" fill-rule="evenodd">
        <path d="M13.3086049,2.00002939 L13.3085949,2.00002939 C13.4668511,1.99752909 13.6153401,2.15467028 13.7076064,2.42078743 C13.7998727,2.68690133 13.8249259,3.02904732 13.7742095,3.33951787 L13.7735985,3.33951787 L11.1540883,20.2974262 C11.1143717,20.5534185 11.0275991,20.7662966 10.9121129,20.8879506 C10.7966236,21.0108697 10.662812,21.0336822 10.5387709,20.9513112 C10.4153351,20.8689434 10.3126884,20.6889864 10.2540286,20.4494806 C10.1947588,20.2099684 10.1837589,19.9311895 10.223477,19.6752102 L10.223477,19.6764776 L12.8429872,2.71856931 C12.905323,2.29279355 13.0941292,2.00133216 13.3086049,2.00002939 Z M8.39928612,6.00030258 L8.39930293,6.00024462 C8.63937394,5.99295801 8.85902462,6.1490199 8.95316063,6.393225 C9.04729664,6.63823742 8.99694543,6.9220552 8.82545839,7.10884508 L4.41279221,12.0035043 L8.82545839,16.8931953 C9.05460095,17.1463017 9.05460095,17.5570639 8.82545839,17.8101702 C8.5970444,18.0632766 8.2270836,18.0632766 7.9986696,17.8101702 L7.99793992,17.8101702 L3.17148703,12.4619607 C3.06202691,12.3406758 3,12.1757126 3,12.0034836 C3,11.8312545 3.06202691,11.6662996 3.17148703,11.5450065 L3.17221672,11.5450065 L7.9986696,6.19679691 C8.10375088,6.07631315 8.24750206,6.00596296 8.39928612,6.00030258 Z M15.5835464,6 C15.7411885,6 15.8915184,6.07043574 16.0017147,6.19578249 L20.8285011,11.5444517 C20.9386993,11.665747 21,11.8307243 21,12.0029682 C21,12.1752121 20.9386974,12.3401811 20.8285011,12.4614847 L16.0017147,17.8101539 C15.7732849,18.063282 15.4025699,18.063282 15.1741401,17.8101539 C14.9457104,17.5570258 14.9457104,17.1462283 15.1741401,16.8931002 L19.5871113,12.0029889 L15.1741401,7.10790905 C15.0055613,6.92351287 14.9537457,6.64452747 15.043509,6.40191618 C15.1332593,6.15850163 15.3463695,6 15.5835427,6 Z" id="code" fill="#000000"></path>
    </g>
</svg>