<?xml version="1.0" encoding="UTF-8"?>
<svg width="24px" height="24px" viewBox="0 0 24 24" version="1.1" xmlns="http://www.w3.org/2000/svg" xmlns:xlink="http://www.w3.org/1999/xlink">
    <!-- Generator: Sketch 56.3 (81716) - https://sketch.com -->
    <title>menu-list</title>
    <desc>Created with Sketch.</desc>
    <g id="menu-list" stroke="none" stroke-width="1" fill="none" fill-rule="evenodd">
        <path d="M21.4722222,2 L3.52777778,2 C3.23585333,2 3,2.23585333 3,2.52777778 L3,20.4722222 C3,20.7641467 3.23585333,21 3.52777778,21 L21.4722222,21 C21.7641467,21 22,20.7641467 22,20.4722222 L22,2.52777778 C22,2.23585333 21.7641467,2 21.4722222,2 Z M8.9812,19.9444444 L4.05555556,19.9444444 L4.05555556,15.0188 L8.9812,15.0188 L8.9812,19.9444444 Z M8.9812,13.9632444 L4.05555556,13.9632444 L4.05555556,9.03675556 L8.9812,9.03675556 L8.9812,13.9632444 Z M8.9812,7.9812 L4.05555556,7.9812 L4.05555556,3.05555556 L8.9812,3.05555556 L8.9812,7.9812 Z M14.9632444,19.9444444 L10.0367556,19.9444444 L10.0367556,15.0188 L14.9632444,15.0188 L14.9632444,19.9444444 Z M14.9632444,13.9632444 L10.0367556,13.9632444 L10.0367556,9.03675556 L14.9632444,9.03675556 L14.9632444,13.9632444 Z M14.9632444,7.9812 L10.0367556,7.9812 L10.0367556,3.05555556 L14.9632444,3.05555556 L14.9632444,7.9812 Z M20.9444444,19.9444444 L16.0188,19.9444444 L16.0188,15.0188 L20.9444444,15.0188 L20.9444444,19.9444444 Z M20.9444444,13.9632444 L16.0188,13.9632444 L16.0188,9.03675556 L20.9444444,9.03675556 L20.9444444,13.9632444 Z M20.9444444,7.9812 L16.0188,7.9812 L16.0188,3.05555556 L20.9444444,3.05555556 L20.9444444,7.9812 Z" id="table" fill="#000000"></path>
    </g>
</svg>