<svg xmlns="http://www.w3.org/2000/svg" width="19" height="19" viewBox="0 0 19 19">
    <g fill="none" fill-rule="evenodd">
        <g fill="#4A4A4A">
            <g>
                <g>
                    <g>
                        <path d="M9.487 0c-.1.003-.193.048-.282.132L.18 9.844c-.207.228-.237.646-.081.92.153.27.478.314.675.102l8.728-9.389 8.728 9.389c.197.212.513.167.668-.101.154-.267.137-.709-.074-.921L9.799.132C9.693.037 9.586-.002 9.487 0zM2.905 9.514L1.85 10.628v7.844c0 .292.236.528.528.528h4.748c.291 0 .527-.236.527-.528v-4.753h3.694v4.753c0 .292.236.528.527.528h4.748c.292 0 .528-.236.528-.528v-7.844l-1.055-1.114v8.43h-3.693V13.19c0-.291-.236-.528-.528-.528H7.126c-.292 0-.528.237-.528.528v4.753H2.905v-8.43z" transform="translate(-246 -22) translate(34 7) translate(212 13) translate(0 2)"/>
                    </g>
                </g>
            </g>
        </g>
    </g>
</svg>
