<svg xmlns="http://www.w3.org/2000/svg" width="24" height="24" viewBox="0 0 24 24">
    <path fill="#4A4A4A" fill-rule="evenodd" stroke="#4A4A4A" stroke-width=".2" d="M16.61 4.286C15.215 3.443 13.619 3 12 3c-1.928 0-3.768.598-5.32 1.75C4.375 6.437 3 9.163 3 12c0 4.965 4.034 9 9 9 4.965 0 9-4.035 9-9 0-3.147-1.685-6.096-4.39-7.714h0zm-12.7 8.157h8.201c.022 0 .044-.022.067-.022.022 0 .022 0 .044-.023 0 0 .022 0 .022-.022.023 0 .023-.023.044-.023l.023-.022.022-.023.045-.044 4.144-6.938c2.217 1.507 3.57 4.034 3.57 6.716 0 4.478-3.635 8.114-8.114 8.114-4.3-.043-7.847-3.457-8.069-7.713h0zm8.046-1.241l-4.39-5.985C8.875 4.353 10.405 3.909 12 3.909c1.307 0 2.616.31 3.768.931l-3.812 6.362zM6.858 5.749l4.278 5.808H3.909c.134-2.261 1.197-4.367 2.949-5.808h0z"/>
</svg>
