<?xml version="1.0" encoding="UTF-8"?>
<svg width="24px" height="24px" viewBox="0 0 24 24" version="1.1" xmlns="http://www.w3.org/2000/svg" xmlns:xlink="http://www.w3.org/1999/xlink">
    <!-- Generator: Sketch 56.3 (81716) - https://sketch.com -->
    <title>menu-support-mobileTrack</title>
    <desc>Created with Sketch.</desc>
    <g id="menu-support-mobileTrack" stroke="none" stroke-width="1" fill="none" fill-rule="evenodd">
        <path d="M5.61643587,17.2621207 L8.74325292,10.3813754 C8.8657946,10.1117152 9.20255507,10.0187512 9.4460817,10.1873569 L14.8391969,13.92128 L18.3159662,7.35699258 C17.6736366,6.93190302 17.25,6.20292432 17.25,5.375 C17.25,4.06332372 18.3133237,3 19.625,3 C20.9366763,3 22,4.06332372 22,5.375 C22,6.68667628 20.9366763,7.75 19.625,7.75 C19.4808618,7.75 19.3397226,7.73715984 19.2026638,7.71256096 L15.4283518,14.8386216 C15.2951469,15.090118 14.9721945,15.1688313 14.7382079,15.0068307 L9.37286614,11.2921366 L6.52954984,17.5490217 C7.25757044,17.9547757 7.75,18.7323813 7.75,19.625 C7.75,20.9366763 6.68667628,22 5.375,22 C4.06332372,22 3,20.9366763 3,19.625 C3,18.3133237 4.06332372,17.25 5.375,17.25 C5.45650266,17.25 5.53704646,17.2541054 5.61643587,17.2621207 Z M19.625,6.8 C20.4120058,6.8 21.05,6.16200577 21.05,5.375 C21.05,4.58799423 20.4120058,3.95 19.625,3.95 C18.8379942,3.95 18.2,4.58799423 18.2,5.375 C18.2,6.16200577 18.8379942,6.8 19.625,6.8 Z M5.375,21.05 C6.16200577,21.05 6.8,20.4120058 6.8,19.625 C6.8,18.8379942 6.16200577,18.2 5.375,18.2 C4.58799423,18.2 3.95,18.8379942 3.95,19.625 C3.95,20.4120058 4.58799423,21.05 5.375,21.05 Z" id="Combined-Shape" fill="#000000" fill-rule="nonzero"></path>
    </g>
</svg>