<?xml version="1.0" encoding="UTF-8"?>
<svg width="24px" height="24px" viewBox="0 0 24 24" version="1.1" xmlns="http://www.w3.org/2000/svg" xmlns:xlink="http://www.w3.org/1999/xlink">
    <!-- Generator: Sketch 56.3 (81716) - https://sketch.com -->
    <title>menu-field-data-pivot-view</title>
    <desc>Created with Sketch.</desc>
    <g id="menu-field-data-pivot-view" stroke="none" stroke-width="1" fill="none" fill-rule="evenodd">
        <path d="M14.6111111,11.5 C14.6111111,12.6662972 13.6662046,13.6111111 12.5,13.6111111 C11.3337954,13.6111111 10.3888889,12.6662046 10.3888889,11.5 C10.3888889,10.3337954 11.3337954,9.38888889 12.5,9.38888889 C13.6662046,9.38888889 14.6111111,10.3337954 14.6111111,11.5 Z M8.57436149,2 L8.57449112,2 C8.99984795,2 9.33333333,2.35056536 9.33333333,2.77543935 C9.33333333,3.20031334 8.98177367,3.55087871 8.55569461,3.55087871 L4.55527745,3.55087871 L4.55527745,7.55789398 C4.55527745,7.98276797 4.20371778,8.33333333 3.77763872,8.33333333 C3.35155967,8.33333333 3,7.98276797 3,7.55789398 L3,2.77547629 C3,2.35060229 3.35155967,2 3.77763872,2 L8.57436149,2 Z M21.2246987,14.6666667 L21.2246444,14.6666667 C21.6494725,14.6666667 22,15.0189856 22,15.4443424 L21.9992788,20.2223613 C21.9992788,20.6484403 21.6487513,21 21.2239232,21 L16.4420222,21 C16.0171942,21 15.6666667,20.6484403 15.6666667,20.2223613 C15.6666667,19.7962822 16.0171942,19.4447226 16.4420222,19.4447226 L20.4493431,19.4447226 L20.4493431,15.4443054 C20.4493431,15.0182263 20.7998706,14.6666667 21.2246987,14.6666667 Z M8.55866408,19.4498878 L8.55860868,19.4498324 C8.98276488,19.4498324 9.33405352,19.8003998 9.33333333,20.2245561 C9.33333333,20.6494326 8.98276488,21 8.55788848,21 L3.77544374,21 C3.35056735,21 3,20.6494326 3,20.2245561 L3,15.4421105 C3,15.0172341 3.35056735,14.6666667 3.77544374,14.6666667 C4.20032013,14.6666667 4.55088748,15.0172341 4.55088748,15.4421105 L4.55088748,19.4498878 L8.55866408,19.4498878 Z M21.2403935,2 L21.2405231,2 C21.6665536,2 22.0180844,2.3515967 21.9992789,2.77767576 L21.9992789,7.55569461 C21.9992789,7.98177367 21.6477592,8.33333333 21.2217287,8.33333333 C20.7956982,8.33333333 20.4441785,7.98177367 20.4441785,7.55569461 L20.4441785,3.55527745 L16.4442168,3.55527745 C16.0181863,3.55527745 15.6666667,3.20371778 15.6666667,2.77763872 C15.6666667,2.35155967 16.0181863,2 16.4442168,2 L21.2403935,2 Z" id="pivot" fill="#000000"></path>
    </g>
</svg>