<?xml version="1.0" encoding="UTF-8"?>
<svg width="24px" height="24px" viewBox="0 0 24 24" version="1.1" xmlns="http://www.w3.org/2000/svg" xmlns:xlink="http://www.w3.org/1999/xlink">
    <!-- Generator: Sketch 56.3 (81716) - https://sketch.com -->
    <title>menu-support-machine-map</title>
    <desc>Created with Sketch.</desc>
    <g id="menu-support-machine-map" stroke="none" stroke-width="1" fill="none" fill-rule="evenodd">
        <path d="M22.4310427,12.1092098 L22.1249571,12.1092098 L22.1249571,11.361654 C22.1249571,10.2939755 21.3084519,9.44002526 20.2875902,9.44002526 L19.3693558,9.44002526 L19.3693558,5.70412495 C19.3693558,4.2099292 18.0766251,3 16.4777863,3 C16.3076442,3 16.1375066,3.1421732 16.1375066,3.32012275 L16.0690981,4.45843349 C16.0006897,5.17020351 17.5661853,4.49420515 17.5661853,6.34427652 L17.5661853,9.44007222 L14.1984128,9.44007222 L10.4561439,4.56579073 C9.94572434,3.88978297 9.16341324,3.49811221 8.34690801,3.49811221 L2.76808057,3.49811221 C2.56373312,3.49811221 2.42780084,3.64028541 2.42780084,3.85399722 L2.42780084,13.1045185 C1.54376055,14.0309325 1,15.3114 1,16.734987 C1,19.6168666 3.24518168,22 6.03414636,22 C8.38103477,22 10.3886762,20.3278617 10.9322347,17.9797392 L15.4225981,17.9797392 L15.4225981,18.0512849 C15.4225981,19.7591854 16.7495454,21.1111539 18.3482943,21.1470806 C19.9471107,21.1828522 21.2739906,19.7592793 21.3083419,18.0872115 L21.3083419,17.9450383 C21.7845673,17.7670935 22.1590636,17.3047928 22.1590636,16.735203 L22.1590636,14.84936 L22.4651493,14.84936 C22.6694967,14.84936 22.805429,14.7071868 22.805429,14.493475 L22.805429,12.501214 C22.7712259,12.2874951 22.6352869,12.1095432 22.4309327,12.1095432 L22.4310427,12.1092098 Z M22.090763,14.1014708 L21.3426684,14.1014708 C21.0023887,14.1014708 20.7304972,13.8171338 20.7304972,13.4612253 C20.7304972,13.1053168 21.0023663,12.8209798 21.3426684,12.8209798 L22.090763,12.8209798 L22.090763,14.1014708 Z M16.7505849,4.1758576 L16.7848014,3.71355461 C17.8389816,3.85572781 18.6897034,4.67389937 18.6897034,5.67002987 L18.6897034,9.40593018 L18.247672,9.40593018 L18.247672,6.31013447 C18.2467948,5.27824171 17.600431,4.3885057 16.7505849,4.17571671 L16.7505849,4.1758576 Z M9.9124485,5.02980786 L13.3143478,9.47672678 L7.05500578,9.47672678 L7.05500578,4.24670116 L8.34773649,4.24670116 C8.95990772,4.21092951 9.53873801,4.53195394 9.91235869,5.03001919 L9.9124485,5.02980786 Z M3.10932349,4.21070409 L6.40861797,4.21070409 L6.40861797,9.4407297 L3.10932349,9.4407297 L3.10932349,4.21070409 Z M12.60038,10.1526876 C12.328511,10.4728103 12.1925652,10.9002433 12.1925652,11.3625228 L12.1925652,14.2087106 C12.1925652,14.6003814 11.8864796,14.9204807 11.5120057,14.9204807 L10.7296946,14.9204807 C10.0149186,12.8566716 8.14414341,11.5046326 6.03501974,11.5046326 C4.94662302,11.5046326 3.92578381,11.8963034 3.07497221,12.5007631 L3.07497221,10.1526171 L12.60038,10.1526876 Z M6.03412167,21.2890049 C3.61965329,21.2890049 1.68048987,19.2251959 1.68048987,16.7347757 C1.68048987,14.2443555 3.6538025,12.1805465 6.03501974,12.1805465 C7.93992168,12.1805465 9.60710379,13.461014 10.1850136,15.3467866 C10.3209526,15.8090895 10.389361,16.2365226 10.389361,16.7345878 C10.389361,17.0189248 10.3551579,17.3042011 10.3209526,17.5527758 C9.91226215,19.7229793 8.10996501,21.2886761 6.03400267,21.2886761 L6.03412167,21.2890049 Z M18.3493922,20.4350546 C17.0908556,20.4350546 16.1042105,19.3673761 16.1042105,18.0512168 C16.1042105,16.7350574 17.1250722,15.7030708 18.383519,15.7030708 C19.6420556,15.7030708 20.6287007,16.7707493 20.6287007,18.0869086 C20.5944976,19.3673761 19.5736449,20.4350546 18.3493922,20.4350546 Z M21.4443752,16.7348461 C21.4443752,16.948565 21.3426415,17.1265169 21.1725061,17.2329114 C20.8322264,15.9524439 19.675419,15.0269456 18.3494147,15.0269456 C16.9882733,15.0269456 15.8323415,15.9872904 15.5263232,17.3035436 L11.0359599,17.3035436 C11.0359599,17.1255987 11.070163,16.9476586 11.070163,16.7697161 C11.070163,16.3780453 11.0359599,16.0221603 10.968427,15.6314053 L11.5463817,15.6314053 C12.2944763,15.6314053 12.9075231,14.9911598 12.9075231,14.2078418 L12.9075231,11.361654 C12.9075231,10.6856463 13.4179427,10.1518188 14.0643081,10.1518188 L20.3236501,10.1518188 C20.9700154,10.1518188 21.480435,10.6856463 21.480435,11.361654 L21.480435,12.1092098 L21.3787014,12.1092098 C20.6639253,12.1092098 20.0859707,12.7136695 20.0859707,13.4612253 C20.0859707,14.2087811 20.6639253,14.8132408 21.3787014,14.8132408 L21.480435,14.8132408 L21.4443752,16.7348461 Z" id="Combined-Shape" stroke="#000000" stroke-width="0.1" fill="#000000"></path>
    </g>
</svg>