<?xml version="1.0" encoding="UTF-8"?>
<svg width="24px" height="24px" viewBox="0 0 24 24" version="1.1" xmlns="http://www.w3.org/2000/svg" xmlns:xlink="http://www.w3.org/1999/xlink">
    <!-- Generator: Sketch 56.3 (81716) - https://sketch.com -->
    <title>menu-support-properties</title>
    <desc>Created with Sketch.</desc>
    <g id="menu-support-properties" stroke="none" stroke-width="1" fill="none" fill-rule="evenodd">
        <path d="M21.6056546,2.39873933 L21.6057825,2.3987116 C22.951736,3.74267282 20.6848085,7.64423633 17.3288015,11.5000492 C20.6847253,15.355862 22.951625,19.2572314 21.6057825,20.6013867 C21.3392271,20.866749 20.9740553,21 20.5113491,21 C19.6563136,21 18.4686732,20.5461531 16.9592191,19.6406776 C15.5841383,18.8164443 14.0563202,17.6770025 12.5002625,16.3252775 C11.4274388,17.2567616 10.3687626,18.087511 9.36534479,18.782866 C9.37726446,18.8489356 9.38593327,18.9171707 9.38593327,18.987574 C9.38593327,19.6276955 8.86688676,20.1465084 8.22647697,20.1465084 C7.97290398,20.1465084 7.74102381,20.0631062 7.55031008,19.9255519 C6.27279157,20.6393182 5.24879056,21 4.48918121,21 C4.02539314,21 3.66131437,20.8678609 3.39474789,20.6014144 C2.04879435,19.2574532 4.31572186,15.3558897 7.67172884,11.5000769 C4.31577734,7.64426406 2.04887757,3.74289464 3.39363828,2.39873933 C4.09241341,1.70122151 5.47520591,1.92218349 7.50695218,3.05186511 C7.70523898,2.89481269 7.95229857,2.79624906 8.22536736,2.79624906 C8.86577715,2.79624906 9.38482366,3.31506191 9.38482366,3.9551834 C9.38482366,4.04291659 9.3729026,4.12848147 9.35448145,4.21079944 C10.3622822,4.90723588 11.424204,5.74014801 12.5002179,6.67487623 C14.0561646,5.32312353 15.5840937,4.18262811 16.9591744,3.35836701 C19.2845782,1.96333139 20.848209,1.64163471 21.6056546,2.39873933 Z M21.0172576,2.9868714 L21.0171189,2.98673276 C20.3519094,2.32182271 17.2125532,3.69406618 13.1264247,7.22934688 C13.7505787,7.79147038 14.3768965,8.38500935 14.9967231,9.00455689 C15.607867,9.61542567 16.2027552,10.2425706 16.7727327,10.8740133 C20.3085792,6.78972433 21.6825781,3.65189236 21.0172576,2.9868714 Z M16.2212856,11.5001046 C15.6642905,10.8816384 15.0607474,10.2437074 14.4084094,9.59166304 C13.7549894,8.93856499 13.117853,8.33851001 12.4980264,7.78179341 C11.8792817,8.33742863 11.2421452,8.94070002 10.590889,9.59166304 C9.93857869,10.2437074 9.33500785,10.8816384 8.77912238,11.5001046 C9.33608972,12.1185708 9.93963281,12.7565018 10.590889,13.4085462 C11.2432271,14.0605628 11.8814454,14.663862 12.5001901,15.2194972 C13.1189348,14.6627806 13.7571532,14.0595092 14.4094912,13.4085462 C15.0618016,12.7565018 15.6653724,12.1185708 16.2212856,11.5001046 Z M3.98312265,2.9868714 L3.98301003,2.98695736 C3.31780051,3.6507583 4.69066202,6.78953301 8.22864458,10.8729902 C8.79859432,10.2404383 9.39459209,9.61332114 10.0046541,9.00353374 C10.6244807,8.38401392 11.2507985,7.79044722 11.8749525,7.22832373 C10.8076214,6.30551842 9.8053132,5.53000261 8.8939928,4.89964126 C8.70547054,5.0328645 8.47573469,5.11301417 8.22759046,5.11301417 C7.58718066,5.11301417 7.06813415,4.59420133 7.06813415,3.95407984 C7.06813415,3.89017582 7.07680296,3.82844012 7.08655529,3.76670164 C5.94662808,3.13634029 5.05264529,2.82440376 4.49675983,2.82440376 C4.26485192,2.82440376 4.09148134,2.87856149 3.98312265,2.9868714 Z M8.93086116,18.0746176 L8.930986,18.0746952 C9.83134902,17.4497408 10.8206748,16.6818224 11.8739417,15.7709122 C11.2497876,15.2087887 10.6234699,14.6152498 10.0036433,13.9957022 C9.39249937,13.3848335 8.79761121,12.7576885 8.22763373,12.1262458 C4.69178716,16.2105348 3.3177883,19.3483668 3.98310878,20.0133877 C4.35047199,20.3805578 5.4741712,20.124964 7.09306037,19.2292209 C7.07680656,19.1512367 7.06705395,19.0710871 7.06705395,18.9887691 C7.06705395,18.3486476 7.58610046,17.8298348 8.22651025,17.8298348 C8.49309338,17.8298348 8.73472977,17.9229804 8.93086116,18.0746176 Z M21.0172576,20.0133933 L21.0173963,20.0132546 C21.6826058,19.3494537 20.3097443,16.2104017 16.773981,12.1261127 C16.2040312,12.7586645 15.6080335,13.3857817 14.9979714,13.9955691 C14.3781448,14.615089 13.7518271,15.2086557 13.127673,15.7707792 C17.2126919,19.3050339 20.3519371,20.6762515 21.0172576,20.0133933 Z M13.9554677,11.5000769 C13.9554677,13.4399339 11.044968,13.4399339 11.044968,11.5000769 C11.044968,9.56021984 13.9554677,9.56021984 13.9554677,11.5000769 Z" id="Dynamic-properties" fill="#000000"></path>
    </g>
</svg>