<?xml version="1.0" encoding="UTF-8"?>
<svg width="24px" height="24px" viewBox="0 0 24 24" version="1.1" xmlns="http://www.w3.org/2000/svg" xmlns:xlink="http://www.w3.org/1999/xlink">
    <!-- Generator: Sketch 56.3 (81716) - https://sketch.com -->
    <title>menu-chart</title>
    <desc>Created with Sketch.</desc>
    <g id="menu-chart" stroke="none" stroke-width="1" fill="none" fill-rule="evenodd">
        <path d="M17.3669893,3.35727322 C15.8927368,2.4679607 14.2082779,2 12.5,2 C10.4645732,2 8.52236343,2.63155976 6.88451308,3.8480704 C4.45160337,5.62669543 3,8.50474734 3,11.4999298 C3,16.7406217 7.25817694,21 12.5,21 C17.7406532,21 22,16.7408557 22,11.4999298 C22,8.17764281 20.2213881,5.06547017 17.3669893,3.35717963 L17.3669893,3.35727322 Z M3.95978031,11.9679841 L12.5,11.9679841 L12.5237629,11.9679841 L12.5703761,11.9679841 L12.6169893,11.9679841 C12.6407522,11.9679841 12.6636025,11.9442211 12.6873654,11.9442211 C12.7111283,11.9442211 12.7111283,11.9442211 12.7339786,11.920458 C12.7339786,11.920458 12.7577415,11.920458 12.7577415,11.896695 C12.7815044,11.896695 12.7815044,11.8729319 12.8043547,11.8729319 L12.8281176,11.8491689 L12.8518804,11.8254058 L12.8984937,11.7787923 L17.2736599,4.45497331 C19.6134461,6.04622688 21.0411837,8.71318171 21.0411837,11.5448119 C21.0411837,16.270981 17.2044022,20.1089607 12.4770982,20.1089607 C7.93744495,20.0641745 4.19378701,16.4602711 3.95978031,11.9680824 L3.95978031,11.9679841 Z M12.4534383,10.6573198 L7.82042757,4.3398503 C9.20052707,3.4277013 10.8155879,2.9597406 12.5,2.9597406 C13.8800995,2.9597406 15.2611817,3.28693872 16.4776366,3.94227089 L12.4534383,10.6573198 Z M7.07192995,4.9018711 L11.5879513,11.0319223 L3.95978031,11.0319223 C4.10053249,8.64555671 5.2228905,6.42274338 7.07192995,4.9018711 L7.07192995,4.9018711 Z" id="chart" stroke="#000000" stroke-width="0.2" fill="#000000"></path>
    </g>
</svg>