<?xml version="1.0" encoding="UTF-8"?>
<svg width="24px" height="24px" viewBox="0 0 24 24" version="1.1" xmlns="http://www.w3.org/2000/svg" xmlns:xlink="http://www.w3.org/1999/xlink">
    <!-- Generator: Sketch 56.3 (81716) - https://sketch.com -->
    <title>menu-support-mobileDevice</title>
    <desc>Created with Sketch.</desc>
    <g id="menu-support-mobileDevice" stroke="none" stroke-width="1" fill="none" fill-rule="evenodd">
        <path d="M17,3.98389966 L17,19.0161003 C17,20.1110348 16.1853596,21 15.1818507,21 L8.81814927,21 C7.81469414,21 7,20.1110934 7,19.0161003 L7,3.98389966 C7,2.8889652 7.81464043,2 8.81814927,2 L15.1818507,2 C16.1853059,2 17,2.8889066 17,3.98389966 Z M7.83907696,5.43371305 L7.83907696,16.5362062 L16.160744,16.5362062 L16.160744,5.43371305 L7.83907696,5.43371305 Z M15.1852522,20.0844096 L15.1851805,20.0844096 C15.7236435,20.0844096 16.1607082,19.5960531 16.1607082,19.0085015 L16.1607082,17.4518552 L7.83904116,17.4518552 L7.83904116,19.0085015 C7.83904116,19.5960531 8.27610591,20.0844096 8.81456883,20.0844096 L15.1852522,20.0844096 Z M16.1608514,3.99149848 C16.1608514,3.40394695 15.7237867,2.9155904 15.1853238,2.9155904 L8.81464043,2.9155904 C8.27617752,2.9155904 7.83911277,3.40394695 7.83911277,3.99149848 L7.83911277,4.51800545 L16.1608514,4.51800545 L16.1608514,3.99149848 Z M12.8379047,18.2857143 C13.0645589,18.2857143 13.25,18.5910685 13.25,18.9642857 C13.25,19.3375029 13.0645589,19.6428571 12.8379047,19.6428571 L11.1620953,19.6428571 C10.9354411,19.6428571 10.75,19.3375029 10.75,18.9642857 C10.75,18.5910685 10.9354411,18.2857143 11.1620953,18.2857143 L12.8379047,18.2857143 Z" id="mobile" fill="#000000"></path>
    </g>
</svg>