<?xml version="1.0" encoding="UTF-8"?>
<svg width="24px" height="24px" viewBox="0 0 24 24" version="1.1" xmlns="http://www.w3.org/2000/svg" xmlns:xlink="http://www.w3.org/1999/xlink">
    <!-- Generator: Sketch 56.3 (81716) - https://sketch.com -->
    <title>menu-data-treatments</title>
    <desc>Created with Sketch.</desc>
    <g id="menu-data-treatments" stroke="none" stroke-width="1" fill="none" fill-rule="evenodd">
        <path d="M4.17876598,21 C2.90409412,21 1.88289645,19.8974599 2.01084424,18.518292 C2.01084424,17.4157519 3.35010682,15.347662 3.73275327,14.727235 C3.98744275,14.313617 4.498037,14.313617 4.75273566,14.727235 C5.13538211,15.347662 6.4746447,17.4157519 6.4746447,18.518292 C6.4746447,19.8974599 5.45466231,21 4.17876598,21 Z M4.17876598,16.3817069 C3.6047963,17.2774712 3.1587836,18.2429879 3.1587836,18.5881108 C3.1587836,19.2085378 3.6047963,19.6906509 4.17876598,19.6906509 C4.75273566,19.6906509 5.19874836,19.2085378 5.19874836,18.5881108 C5.19874836,18.2429879 4.68936941,17.2774381 4.17876598,16.3817069 Z M6.02864117,15.2791768 C3.79612871,15.2791768 2.39349987,7.48893004 4.75274484,6.93699819 L7.55922699,6.31657121 C7.68717478,6.31657121 7.75055021,6.17956107 7.75055021,6.04125714 C7.55922699,5.21402116 8.06983041,4.38678518 8.89848957,4.17997618 L18.9106636,2.04339108 C19.6759565,1.83658208 20.4412494,2.38851393 20.6325726,3.28424506 L22.2265247,12.1085367 C22.4178479,12.9357727 21.9072445,13.7630087 21.0785853,13.9698177 L11.0664113,16.1064028 C10.3011184,16.3132118 9.5358255,15.76128 9.34450228,14.8655488 C9.34450228,14.7272449 9.2177514,14.6587398 9.08980361,14.6587398 C8.77052341,14.727235 6.28333065,15.2791668 6.02863199,15.2791668 Z M5.00864961,8.38465124 C4.43467993,9.48851494 5.13538211,13.0042348 6.02863199,13.8301803 C6.60260167,12.7276402 5.90189949,9.14339208 5.00864961,8.38465124 Z M7.81393789,7.69572911 L6.28335208,8.1093471 C7.17538668,9.55701008 7.55803313,12.038718 7.30333447,13.69319 L8.77055402,13.3480671 C9.59921318,13.1412581 10.3645061,13.69319 10.5558293,14.5889211 C10.5558293,14.7272251 10.6825802,14.7957301 10.810528,14.7957301 L20.822702,12.659145 C20.9506498,12.659145 21.0140252,12.5221349 21.0140252,12.383831 L19.4200732,3.62935798 C19.4200732,3.49105405 19.2933223,3.42254899 19.1653745,3.42254899 L9.15320048,5.55913409 C9.02525269,5.55913409 8.96187725,5.69614422 8.96187725,5.83444815 C9.15320048,6.66168413 8.64259705,7.48892012 7.81393789,7.69572911 Z" id="treatment-" fill="#000000"></path>
    </g>
</svg>