<?xml version="1.0" encoding="UTF-8"?>
<svg width="24px" height="24px" viewBox="0 0 24 24" version="1.1" xmlns="http://www.w3.org/2000/svg" xmlns:xlink="http://www.w3.org/1999/xlink">
    <!-- Generator: Sketch 56.3 (81716) - https://sketch.com -->
    <title>menu-support-material-map</title>
    <desc>Created with Sketch.</desc>
    <g id="menu-support-material-map" stroke="none" stroke-width="1" fill="none" fill-rule="evenodd">
        <path d="M20.6022153,5.64165857 L20.1791707,5.64165857 L20.1791707,5.21861396 C20.1791707,4.44675123 19.5532699,3.82082929 18.781386,3.82082929 L18.3583414,3.82082929 L18.3583414,3.39778467 C18.3583414,2.62592194 17.7324406,2 16.9605568,2 L4.39778467,2 C3.62592194,2 3,2.62590083 3,3.39778467 L3,15.9605568 C3,16.7324195 3.62590083,17.3583414 4.39778467,17.3583414 L4.82082929,17.3583414 L4.82082929,17.781386 C4.82082929,18.5532488 5.44673012,19.1791707 6.21861396,19.1791707 L6.64165857,19.1791707 L6.64165857,19.6022153 C6.64165857,20.3740781 7.26755941,21 8.03944325,21 L20.6022153,21 C21.3740781,21 22,20.3740992 22,19.6022153 L22,7.03944325 C22,6.26758052 21.3740992,5.64165857 20.6022153,5.64165857 Z M4.39778467,16.7002673 C3.98958113,16.7002673 3.65807409,16.3687603 3.65807409,15.9605568 L3.65807409,3.39778467 C3.65807409,2.98958113 3.98958113,2.65807409 4.39778467,2.65807409 L16.9605568,2.65807409 C17.367937,2.65807409 17.7002673,2.98958113 17.7002673,3.39778467 L17.7002673,15.9605568 C17.7002673,16.3687603 17.367937,16.7002673 16.9605568,16.7002673 L4.39778467,16.7002673 Z M6.21861396,18.5210966 C5.81041042,18.5210966 5.47890338,18.1895896 5.47890338,17.781386 L5.47890338,17.3583414 L16.9605779,17.3583414 C17.7324406,17.3583414 18.3583625,16.7324406 18.3583625,15.9605568 L18.3583625,4.47888227 L18.7814072,4.47888227 C19.1887874,4.47888227 19.5211177,4.81038931 19.5211177,5.21859285 L19.5211177,17.7813649 C19.5211177,18.1895685 19.1887874,18.5210966 18.7814072,18.5210966 L6.21861396,18.5210966 Z M21.3419681,19.6022153 C21.3419681,20.0104189 21.01044,20.3419259 20.6022364,20.3419259 L8.03946436,20.3419259 C7.63126082,20.3419259 7.29975378,20.0104189 7.29975378,19.6022153 L7.29975378,19.1791707 L18.7814283,19.1791707 C19.553291,19.1791707 20.1792129,18.5532699 20.1792129,17.781386 L20.1792129,6.29971156 L20.6022576,6.29971156 C21.0104611,6.29971156 21.3419681,6.6312186 21.3419681,7.03942213 L21.3419681,19.6022153 Z M5.04188324,7.53766436 C5.09383546,7.53766436 5.14661312,7.52529454 5.19609323,7.49972989 C5.76674641,7.19625834 6.12134895,6.60744965 6.12134895,5.96174664 C6.12134895,5.36470463 6.60707232,4.87898127 7.20329099,4.87898127 C7.80364744,4.87898127 8.35449843,4.57633305 8.67530217,4.06751418 C8.77261151,3.91412964 8.72643105,3.71044164 8.5730465,3.61396408 C8.41966196,3.51665474 8.21597396,3.56201186 8.1194964,3.71622185 C7.91910596,4.03206448 7.57687872,4.22090295 7.20331844,4.22090295 C6.24424279,4.22090295 5.4633023,5.00184344 5.4633023,5.96174242 C5.4633023,6.36333819 5.24229057,6.72948849 4.88768803,6.91832696 C4.72688083,7.00326521 4.66585296,7.20284077 4.75162089,7.36282042 C4.81017031,7.4741475 4.92397372,7.53766436 5.04189802,7.53766436 L5.04188324,7.53766436 Z M4.94375057,11.7482767 C5.07239717,11.7482767 5.19444446,11.6723972 5.24722212,11.5470523 C5.33793425,11.3326484 5.3841147,11.1042055 5.3841147,10.8700205 C5.3841147,10.2729785 5.86983807,9.78725514 6.46688007,9.78725514 C7.42595572,9.78725514 8.20689621,9.00713798 8.20689621,8.04723901 C8.20689621,7.450197 8.69261957,6.96447363 9.28883825,6.96447363 C10.2487372,6.96447363 11.0296777,6.18435648 11.0296777,5.2244575 C11.0296777,4.76429963 11.3207782,4.3536261 11.7545472,4.20187977 C11.9260746,4.14250491 12.0167889,3.95447921 11.9565864,3.78295182 C11.8963861,3.61142442 11.7091859,3.52153351 11.5376585,3.5809126 C10.8400011,3.82499872 10.37161,4.48556392 10.37161,5.22445117 C10.37161,5.82149317 9.88588659,6.30639321 9.28884458,6.30639321 C8.32976893,6.30639321 7.54882845,7.08733369 7.54882845,8.04723267 C7.54882845,8.64345135 7.06310508,9.12917471 6.46688641,9.12917471 C5.50698743,9.12917471 4.72604694,9.9101152 4.72604694,10.8700142 C4.72604694,11.0159782 4.6971839,11.1578213 4.64110869,11.2905888 C4.57018818,11.4579932 4.64853049,11.6509547 4.81593363,11.7218878 C4.85799109,11.7400303 4.90087189,11.7482767 4.94375479,11.7482767 L4.94375057,11.7482767 Z M10.2924498,10.1327841 C10.2924498,9.53574214 10.7781732,9.05084211 11.3743918,9.05084211 C12.3342908,9.05084211 13.1152313,8.26990162 13.1152313,7.31000264 C13.1152313,6.71296064 13.6009547,6.2280606 14.1971733,6.2280606 C15.1570723,6.2280606 15.9380128,5.44712012 15.9380128,4.48722114 C15.9380128,4.32723938 15.9718243,4.1738485 16.0386197,4.0303566 C16.115312,3.86542641 16.0443921,3.66999073 15.8794613,3.59329424 C15.7153565,3.51577652 15.5190954,3.58752163 15.4423989,3.75245266 C15.3343694,3.98336548 15.2799429,4.23074493 15.2799429,4.48722325 C15.2799429,5.08426526 14.7942196,5.56998862 14.1971776,5.56998862 C13.2372786,5.56998862 12.4571614,6.35010578 12.4571614,7.31000476 C12.4571614,7.90704676 11.9714381,8.3919468 11.3743961,8.3919468 C10.4153204,8.3919468 9.63437992,9.17288728 9.63437992,10.1327863 C9.63437992,10.7290049 9.14865656,11.2147283 8.55243788,11.2147283 C7.59253891,11.2147283 6.81159842,11.9956688 6.81159842,12.9555678 C6.81159842,13.5517864 6.32587505,14.0375098 5.72965638,14.0375098 C5.43194815,14.0375098 5.13837769,14.1142021 4.88027382,14.2585215 C4.72194084,14.3467595 4.66504652,14.547152 4.75410144,14.7063083 C4.81430175,14.8143379 4.92645427,14.8745382 5.04190857,14.8745382 C5.09633501,14.8745382 5.15076144,14.8613438 5.20189033,14.8324807 C5.36187208,14.7434173 5.54412179,14.6955881 5.72966693,14.6955881 C6.68956591,14.6955881 7.46968307,13.9146476 7.46968307,12.955572 C7.46968307,12.35853 7.95540643,11.8728066 8.55244844,11.8728066 C9.51152409,11.8728066 10.2924646,11.0918661 10.2924646,10.1327905 L10.2924498,10.1327841 Z M15.2007722,9.39554357 C15.2007722,8.79850156 15.6864956,8.31360153 16.2827143,8.31360153 C16.4649619,8.31360153 16.6117513,8.16598874 16.6117513,7.98456448 C16.6117513,7.80231688 16.464964,7.65552743 16.2827143,7.65552743 C15.3236386,7.65552743 14.5426981,8.43564459 14.5426981,9.39554357 C14.5426981,9.99258557 14.0569748,10.4774856 13.4599328,10.4774856 C12.5008571,10.4774856 11.7199166,11.2584261 11.7199166,12.2183251 C11.7199166,12.8145437 11.2341933,13.3002671 10.6371513,13.3002671 C9.6780756,13.3002671 8.89713512,14.0812076 8.89713512,15.0411066 C8.89713512,15.1136759 8.88971331,15.1870706 8.87569472,15.2579805 C8.83940902,15.4361051 8.95403577,15.6101131 9.13215193,15.6463819 C9.15441777,15.6505051 9.17668361,15.6529791 9.198124,15.6529791 C9.35150855,15.6529791 9.48840114,15.5449496 9.52055329,15.3890908 C9.54364457,15.2752895 9.5551881,15.1573547 9.5551881,15.041096 C9.5551881,14.444054 10.0409115,13.9583306 10.6371301,13.9583306 C11.5970291,13.9583306 12.3779696,13.1782135 12.3779696,12.2183145 C12.3779696,11.6212725 12.863693,11.1363725 13.4599116,11.1363725 C14.4198106,11.1363725 15.2007511,10.355432 15.2007511,9.39553301 L15.2007722,9.39554357 Z M16.3107498,12.2463817 C16.1070618,12.4508951 15.8349275,12.563871 15.546297,12.563871 C14.586398,12.563871 13.8054575,13.3439881 13.8054575,14.3038871 C13.8054575,14.5925176 13.6924796,14.8646392 13.4887916,15.0691632 C13.360145,15.1978098 13.360145,15.4064547 13.4887916,15.534261 C13.5531149,15.5985843 13.6372277,15.6307449 13.7213511,15.6307449 C13.805466,15.6307449 13.8895809,15.5985843 13.9539105,15.534261 C14.2829476,15.205224 14.4635527,14.7681616 14.4635527,14.3038871 C14.4635527,13.7068451 14.9492761,13.2219451 15.5463181,13.2219451 C16.0105926,13.2219451 16.447655,13.0405208 16.7766921,12.7123029 C16.9053387,12.5836563 16.9053387,12.3750114 16.7766921,12.2463817 C16.6480476,12.1177351 16.4402239,12.1177351 16.3107709,12.2463817 L16.3107498,12.2463817 Z" id="materials" stroke="#000000" stroke-width="0.1" fill="#000000"></path>
    </g>
</svg>