<svg xmlns="http://www.w3.org/2000/svg" width="25" height="18"><g fill="#9B9B9B" fill-rule="evenodd"><path fill-rule="nonzero" d="M24.785 3.238l-.088-.302-.266-.265-2.256-.105c-.39 0-.71.309-.713.688a.703.703 0 0 0 .708.696l.324.002-8.44 9.213L7.992 7.78a.726.726 0 0 0-.988.023L.408 14.254a.675.675 0 0 0 .004.978.72.72 0 0 0 .503.202.716.716 0 0 0 .506-.205l6.113-5.98 6.091 5.41a.7.7 0 0 0 .518.181.729.729 0 0 0 .496-.231l8.733-9.533v.04a.706.706 0 0 0 .718.687.703.703 0 0 0 .708-.696l-.013-1.87z"/><path d="M2.81 10.593v-4.05c0-.22.184-.399.41-.399h1.41c.226 0 .41.18.41.399V8.41l1.064-1.04v-.828c0-.79-.661-1.432-1.475-1.432H3.22c-.813 0-1.474.642-1.474 1.432v5.091l1.064-1.041zm2.23 2.409v3.541c0 .22-.184.399-.41.399H3.22a.405.405 0 0 1-.41-.399v-1.36l-.713.697a1.641 1.641 0 0 1-.352.256v.407c0 .79.662 1.431 1.475 1.431h1.409c.813 0 1.475-.642 1.475-1.43V11.96L5.04 13zm3.486-5.984V4.693c0-.22.184-.398.41-.398h1.41c.226 0 .41.179.41.398v4.289l1.065.946V4.693c0-.789-.662-1.431-1.475-1.431h-1.41c-.813 0-1.474.642-1.474 1.431v1.98c.375-.01.75.108 1.064.345zm2.231 6.347v3.178c0 .22-.184.399-.41.399h-1.41a.405.405 0 0 1-.41-.399v-5.16l-.96-.852-.104.102v5.91c0 .789.661 1.43 1.474 1.43h1.41c.813 0 1.474-.641 1.474-1.43V14.31l-1.064-.946zM13.985 11.85l.258-.282V3.307c0-.22.184-.399.41-.399h1.41c.226 0 .41.179.41.399v5.826l1.065-1.162V3.307c0-.79-.662-1.432-1.475-1.432h-1.41c-.813 0-1.474.642-1.474 1.432v7.827l.806.716zM16.473 14v2.543c0 .22-.184.399-.41.399h-1.41a.405.405 0 0 1-.41-.399v-.786c-.017.001-.033.006-.05.007a1.624 1.624 0 0 1-1.014-.279v1.058c0 .79.662 1.431 1.475 1.431h1.409c.813 0 1.475-.642 1.475-1.43v-3.706l-1.065 1.161zM19.96 5.328v-3.87c0-.22.184-.4.41-.4h1.41c.226 0 .41.18.41.4v.184l1.064.05v-.235c0-.79-.661-1.432-1.475-1.432H20.37c-.813 0-1.474.643-1.474 1.432v5.032l1.064-1.161zm2.23 2.431v8.784c0 .22-.184.399-.41.399h-1.41a.405.405 0 0 1-.41-.399v-6.35l-1.064 1.162v5.188c0 .79.661 1.431 1.474 1.431h1.41c.813 0 1.474-.642 1.474-1.43V6.596L22.19 7.759z"/></g></svg>