<svg xmlns="http://www.w3.org/2000/svg" width="18" height="19" viewBox="0 0 18 19">
    <g fill="none" fill-rule="evenodd">
        <g fill="#4A4A4A">
            <g>
                <g>
                    <g>
                        <path d="M9 0C6.597 0 4.419.374 2.796 1.01c-.81.318-1.481.698-1.976 1.157C.324 2.627 0 3.19 0 3.8v11.4c0 .61.324 1.166.82 1.625.495.46 1.166.84 1.976 1.158C4.42 18.62 6.597 19 9 19c2.403 0 4.581-.381 6.204-1.017.81-.318 1.481-.698 1.976-1.158.496-.459.82-1.015.82-1.625V3.8c0-.61-.324-1.174-.82-1.633-.495-.459-1.166-.84-1.976-1.158C13.58.374 11.403 0 9 0zm0 .95c2.292 0 4.368.367 5.823.935.726.284 1.296.613 1.66.95.366.337.517.657.517.965 0 .308-.151.62-.516.957-.365.337-.935.667-1.661.95-1.455.568-3.53.943-5.823.943-2.292 0-4.368-.375-5.823-.943-.726-.283-1.296-.613-1.66-.95C1.15 4.421 1 4.108 1 3.8c0-.308.151-.628.516-.965.365-.337.935-.666 1.661-.95C4.632 1.317 6.707.95 9 .95zM1 5.7c.47.372 1.07.685 1.774.954 1.628.624 3.815.998 6.226.998s4.598-.374 6.226-.998c.703-.27 1.303-.582 1.774-.954v1.952c0 .303-.151.61-.516.94-.365.33-.935.654-1.661.933-1.455.557-3.53.925-5.823.925-2.292 0-4.368-.368-5.822-.925-.727-.279-1.297-.602-1.662-.933-.365-.33-.516-.637-.516-.94V5.7zm0 3.8c.47.372 1.07.685 1.774.954 1.628.624 3.815.998 6.226.998s4.598-.374 6.226-.998c.703-.27 1.303-.582 1.774-.954v1.952c0 .303-.151.61-.516.94-.365.33-.935.654-1.661.933-1.455.557-3.53.925-5.823.925-2.292 0-4.368-.368-5.822-.925-.727-.279-1.297-.602-1.662-.933-.365-.33-.516-.637-.516-.94V9.5zm0 3.8c.47.372 1.07.685 1.774.954 1.628.624 3.815.998 6.226.998s4.598-.374 6.226-.998c.703-.27 1.303-.582 1.774-.954v1.952c0 .303-.151.61-.516.94-.365.33-.935.654-1.661.933-1.455.557-3.53.925-5.823.925-2.292 0-4.368-.368-5.822-.925-.727-.279-1.297-.602-1.662-.933-.365-.33-.516-.637-.516-.94V13.3z" transform="translate(-368 -22) translate(34 7) translate(334 13) translate(0 2)"/>
                    </g>
                </g>
            </g>
        </g>
    </g>
</svg>
