<?xml version="1.0" encoding="UTF-8"?>
<svg width="24px" height="24px" viewBox="0 0 24 24" version="1.1" xmlns="http://www.w3.org/2000/svg" xmlns:xlink="http://www.w3.org/1999/xlink">
    <!-- Generator: Sketch 57.1 (83088) - https://sketch.com -->
    <title>menu-management</title>
    <desc>Created with Sketch.</desc>
    <g id="menu-management" stroke="none" stroke-width="1" fill="none" fill-rule="evenodd">
        <path d="M14.6487,7.0397 C14.4847,5.9927 14.8167,4.9177 15.5917,4.1207 C16.3437,3.3477 17.3997,2.9517 18.4867,3.0047 C18.8357,3.0217 19.1427,3.2307 19.2707,3.5387 C19.3977,3.8327 19.3317,4.1777 19.1017,4.4187 L18.3497,5.1917 L19.6907,6.3827 L20.4257,5.6257 C20.6647,5.3817 21.0287,5.2907 21.3617,5.3937 C21.6917,5.4957 21.9287,5.7697 21.9707,6.0957 C22.1057,7.1207 21.7737,8.1497 21.0237,8.9197 C20.2487,9.7167 19.1517,10.1157 18.0447,10.0397 L10.3507,17.9597 C10.5157,19.0077 10.1837,20.0827 9.4077,20.8817 C8.6557,21.6537 7.6017,22.0487 6.5147,21.9957 C6.1677,21.9797 5.8627,21.7737 5.7317,21.4687 C5.6027,21.1657 5.6697,20.8187 5.9037,20.5777 L6.6507,19.8087 L5.3097,18.6177 L4.5747,19.3747 C4.3367,19.6187 3.9717,19.7107 3.6387,19.6077 C3.3087,19.5017 3.0757,19.2327 3.0297,18.9137 C2.8937,17.8827 3.2267,16.8527 3.9757,16.0817 C4.7517,15.2827 5.8487,14.8837 6.9567,14.9597 L14.6487,7.0397 Z M3.9997,18.2407 L4.3417,17.8877 C4.7367,17.4817 5.4017,17.4587 5.8267,17.8347 L7.4497,19.2787 C7.8697,19.6507 7.8927,20.2757 7.5027,20.6757 L7.1397,21.0497 C7.6277,20.9427 8.0747,20.7007 8.4267,20.3377 C9.0237,19.7227 9.2467,18.8727 9.0457,18.0657 L8.9727,17.7707 L17.7237,8.7507 L18.0487,8.8007 C18.8947,8.9317 19.7547,8.6577 20.3487,8.0457 C20.7017,7.6827 20.9227,7.2367 20.9997,6.7617 L20.6587,7.1137 C20.2637,7.5187 19.5977,7.5417 19.1747,7.1647 L17.5507,5.7217 C17.3497,5.5417 17.2317,5.2967 17.2207,5.0357 C17.2107,4.7737 17.3097,4.5207 17.4947,4.3287 L17.8617,3.9497 C17.3747,4.0577 16.9267,4.3007 16.5727,4.6647 C15.9777,5.2787 15.7537,6.1287 15.9537,6.9347 L16.0267,7.2287 L7.2777,16.2487 L6.9517,16.1987 C6.1067,16.0677 5.2457,16.3417 4.6517,16.9547 C4.2987,17.3187 4.0777,17.7657 3.9997,18.2407 L3.9997,18.2407 Z" id="Fill-1" fill="#010202"></path>
    </g>
</svg>