<?xml version="1.0" encoding="UTF-8"?>
<svg width="24px" height="24px" viewBox="0 0 24 24" version="1.1" xmlns="http://www.w3.org/2000/svg" xmlns:xlink="http://www.w3.org/1999/xlink">
    <!-- Generator: Sketch 56.3 (81716) - https://sketch.com -->
    <title>menu-folder</title>
    <desc>Created with Sketch.</desc>
    <g id="menu-folder" stroke="none" stroke-width="1" fill="none" fill-rule="evenodd">
        <path d="M4.68888889,2 C3.76445444,2 3,2.905275 3,4 L3,19 C3,20.094725 3.76445444,21 4.68888889,21 L20.3111111,21 C21.2355456,21 22,20.094725 22,19 L22,7.5 C22,6.405275 21.2355456,5.5 20.3111111,5.5 L13.6920166,5.5 C13.1032066,4.5996 12.6150122,3.368175 11.996541,2.625 C11.725221,2.3037 11.3137233,2 10.8156277,2 L4.68888889,2 Z M10.7321777,3.49995 C10.8187671,3.49995 10.8814396,3.52832 11.0158688,3.6875 C11.6310677,4.611325 12.1588455,5.63575 12.7377333,6.664 C12.8523603,6.8690775 13.0576933,6.99995 13.2655111,6.99995 L20.3111111,6.99995 C20.5560422,6.99995 20.7333333,7.20991 20.7333333,7.49995 L20.7333333,18.99995 C20.7333333,19.29 20.5560338,19.49995 20.3111111,19.49995 L4.68888889,19.49995 C4.44395778,19.49995 4.26666667,19.28999 4.26666667,18.99995 L4.26666667,3.99995 C4.26666667,3.7099 4.44396622,3.49995 4.68888889,3.49995 L10.7321777,3.49995 Z" id="folder" fill="#000000"></path>
    </g>
</svg>