<svg xmlns="http://www.w3.org/2000/svg" version="1.0" viewBox="0 0 200 200">
    <rect width="100%" height="100%" fill="none"/>
    <g fill="#4A4A4A">
        <path d="M83 2 67 8c-8 4-11 6-18 13S39 31 36 39c-8 17-10 34-5 51l3 9a1606 1606 0 0 0-30 55c-3 5-2 8 1 12l4 4 9-1 17-1 7-1 7 15c8 16 10 17 16 17 4 0 8-5 20-27l13-21 12 21c13 22 17 27 21 27 6 0 8-1 16-17l7-15 7 1 17 1 9 1 3-4c4-4 5-7 2-12l-16-28-14-25 1-4 3-9c4-15 2-33-6-48A70 70 0 0 0 83 2zm25 19c19 4 35 20 39 39 3 17-2 33-14 45a49 49 0 0 1-70 0 49 49 0 0 1 0-70c12-12 29-17 45-14zM67 133l12 5 3 1-7 12c-12 19-10 18-15 8-5-11-6-12-20-11H30l2-4 9-14 6-12 6 5 14 10zm88-3 9 14 2 4h-11c-13-1-14 0-19 11-5 9-5 9-6 6l-9-14-7-13 4-1c7-2 20-9 25-14l6-5 6 12z"/>
    </g>
</svg>