<?xml version="1.0" encoding="UTF-8"?>
<svg width="24px" height="24px" viewBox="0 0 24 24" version="1.1" xmlns="http://www.w3.org/2000/svg" xmlns:xlink="http://www.w3.org/1999/xlink">
    <!-- Generator: Sketch 56.3 (81716) - https://sketch.com -->
    <title>menu-chemicals</title>
    <desc>Created with Sketch.</desc>
    <g id="menu-chemicals" stroke="none" stroke-width="1" fill="none" fill-rule="evenodd">
        <path d="M9.37077301,2.00063249 C9.16421483,2.02171665 9.00693256,2.20894375 9.00771376,2.43243727 L9.00771376,8.79486493 L4.45069424,17.5522978 C4.18700806,18.0574663 4,18.5457943 4,19.0568785 C4,19.6379582 4.24726087,20.1642202 4.65100279,20.5007257 C5.0547447,20.8372312 5.59307393,21 6.20339405,21 L17.4206729,21 C18.030993,21 18.5693222,20.837229 18.9730641,20.5007257 C19.3768061,20.1642224 19.6240669,19.6379582 19.6240669,19.0568785 C19.6240669,18.5457943 19.4370609,18.0574879 19.1733727,17.5522978 L14.6163532,8.79486493 L14.6163532,2.43243727 C14.6163532,2.19375718 14.4371712,2.00063249 14.2157361,2.00063249 L9.40833086,2.00063249 C9.39581158,1.99978917 9.38329229,1.99978917 9.37077301,2.00063249 Z M9.80894796,2.86424206 L13.815119,2.86424206 L13.815119,8.9095091 C13.815119,8.98288137 13.8323331,9.0545696 13.8651961,9.11866455 L16.2438601,13.6862956 C15.0216575,13.8119573 14.1562444,14.326403 13.4145019,14.7995315 C12.5608469,15.3443396 11.8808995,15.8183317 10.8104907,15.8183317 C9.83945496,15.8183317 8.60168833,15.3789272 7.12361154,14.1855699 L9.63988755,9.34115196 L11.4113763,9.34115196 C11.5185734,9.34283859 11.6218605,9.29813989 11.6985386,9.21717649 C11.7744376,9.13536891 11.8174718,9.0248895 11.8174718,8.90934286 C11.8174718,8.79379621 11.7744376,8.68331464 11.6985386,8.60150922 C11.6218585,8.52054583 11.5185734,8.47584755 11.4113763,8.47753375 L9.8089079,8.47753375 L9.8089079,7.18211939 L11.0107592,7.18211939 C11.1179563,7.18380601 11.2212434,7.13910731 11.2979215,7.05814391 C11.3738205,6.97633634 11.4168547,6.86585692 11.4168547,6.75031028 C11.4168547,6.63476364 11.3738205,6.52428206 11.2979215,6.44247664 C11.2212414,6.36151325 11.1179563,6.31681497 11.0107592,6.31850117 L9.8089079,6.31850117 L9.8089079,5.02308681 L11.4113763,5.02308681 C11.5185734,5.02477344 11.6218605,4.98007473 11.6985386,4.89911133 C11.7744376,4.81730376 11.8174718,4.70682434 11.8174718,4.5912777 C11.8174718,4.47573106 11.7744376,4.36524948 11.6985386,4.28344407 C11.6218585,4.20248067 11.5185734,4.1577824 11.4113763,4.15946859 L9.8089079,4.15946859 L9.80894796,2.86424206 Z M16.5755711,14.5296643 C16.6107813,14.5279777 16.6459916,14.5305076 16.681985,14.5296643 L18.4722427,17.9707167 C18.7030582,18.4126473 18.8227827,18.7896345 18.8227827,19.0569648 C18.8227827,19.3968384 18.7108923,19.6313084 18.484762,19.8193593 C18.2586317,20.0074103 17.8971368,20.1364768 17.4206228,20.1364768 L6.20334398,20.1364768 C5.72682997,20.1364768 5.36533313,20.0074406 5.1392048,19.8193593 C4.91307648,19.6312781 4.80118412,19.3968384 4.80118412,19.0569648 C4.80118412,18.7896129 4.92090053,18.4126257 5.15172409,17.9707167 L6.7229043,14.9480832 C8.2674635,16.175186 9.63919648,16.6820385 10.8104006,16.6820385 C12.1069377,16.6820385 12.9833477,16.076497 13.8212384,15.5418148 C14.6068285,15.0400144 15.3705049,14.5845899 16.575481,14.5297723 L16.5755711,14.5296643 Z" id="Chemicals" fill="#000000"></path>
    </g>
</svg>