<?xml version="1.0" encoding="UTF-8"?>
<svg width="24px" height="24px" viewBox="0 0 24 24" version="1.1" xmlns="http://www.w3.org/2000/svg" xmlns:xlink="http://www.w3.org/1999/xlink">
    <!-- Generator: Sketch 56.3 (81716) - https://sketch.com -->
    <title>menu-alerts</title>
    <desc>Created with Sketch.</desc>
    <g id="menu-alerts" stroke="none" stroke-width="1" fill="none" fill-rule="evenodd">
        <path d="M22,16.6226415 C22,17.8101415 21.0166114,18.7735848 19.8034342,18.7735848 L5.19656579,18.7735848 C3.98338859,18.7735848 3,17.8115396 3,16.6226415 C3,15.4351415 3.9819636,14.4716981 5.19371582,14.4716981 C5.19228717,14.4716981 5.19228717,10.1698113 5.19228717,10.1698113 C5.19228717,6.20813207 8.46358701,3 12.4999233,3 C16.5362595,3 19.8075594,6.20960188 19.8075594,10.1698113 L19.8075594,14.4716981 C21.0150366,14.4716981 22,15.4351415 22,16.6226415 L22,16.6226415 Z M19.8062842,15.9056603 C18.9998866,15.9056603 18.346182,15.265683 18.346182,14.4716981 L18.346182,10.1698113 C18.346182,7.00222452 15.7299752,4.43396226 12.500073,4.43396226 C9.27017099,4.43396226 6.6539642,7.0008264 6.6539642,10.1698113 L6.6539642,14.4716981 C6.6539642,15.2628868 5.99883462,15.9056603 5.19386197,15.9056603 C4.78993238,15.9056603 4.46167337,16.2277426 4.46167337,16.6226415 C4.46167337,17.0189528 4.789947,17.3396226 5.19671194,17.3396226 L19.8035804,17.3396226 C20.2089349,17.3396226 20.538619,17.0175403 20.538619,16.6226415 C20.538619,16.2277426 20.2089203,15.9056603 19.8064303,15.9056603 L19.8062842,15.9056603 Z M9.21167337,18.7735848 L10.6732006,18.7735848 C10.6732006,19.7636283 11.4910347,20.5660377 12.5001096,20.5660377 C13.5091846,20.5660377 14.3270187,19.7636283 14.3270187,18.7735848 L15.7885458,18.7735848 C15.7885458,20.5548528 14.3156187,22 12.5001096,22 C10.6846005,22 9.21167337,20.5548528 9.21167337,18.7735848 Z" id="alerts" fill="#000000"></path>
    </g>
</svg>