<?xml version="1.0" encoding="UTF-8"?>
<svg width="24px" height="24px" viewBox="0 0 24 24" version="1.1" xmlns="http://www.w3.org/2000/svg" xmlns:xlink="http://www.w3.org/1999/xlink">
    <!-- Generator: Sketch 56.3 (81716) - https://sketch.com -->
    <title>menu-res-allchemicals</title>
    <desc>Created with Sketch.</desc>
    <g id="menu-res-allchemicals" stroke="none" stroke-width="1" fill="none" fill-rule="evenodd">
        <path d="M9.88142723,4.24204541 L21,4.24204541 L21,5.04697897 L9.88142723,5.04697897 L9.88142723,4.24204541 Z M6.15706121,2 C7.33811974,2 8.29153094,3.17671066 8.29153094,4.6620791 C8.29153094,6.11965074 7.3380518,7.29627754 6.15706121,7.29627754 C4.95344517,7.29627754 4,6.11956688 4,4.6620791 C4,3.17666873 4.95347915,2 6.15706121,2 Z M6.15706121,3.09317349 C5.45307348,3.09317349 4.88509322,3.79413105 4.88509322,4.66293858 C4.88509322,5.53174611 5.45307348,6.23270367 6.15706121,6.23270367 C6.86104894,6.23270367 7.4290292,5.53174611 7.4290292,4.66293858 C7.4290292,3.79413105 6.86104894,3.09317349 6.15706121,3.09317349 Z M9.88142723,11.1082348 L21,11.1082348 L21,11.9131683 L9.88142723,11.9131683 L9.88142723,11.1082348 Z M9.88142723,17.9465435 L21,17.9465435 L21,18.7514771 L9.88142723,18.7514771 L9.88142723,17.9465435 Z M6.15706121,8.8383716 C7.33811974,8.8383716 8.29153094,10.0437385 8.29153094,11.5004507 C8.29153094,12.9580223 7.3380518,14.1346491 6.15706121,14.1346491 C4.95344517,14.1346491 4,12.9579385 4,11.5004507 C4,10.0429629 4.95347915,8.8383716 6.15706121,8.8383716 Z M6.15706121,9.93154509 C5.45307348,9.93154509 4.88509322,10.6325027 4.88509322,11.5013102 C4.88509322,12.3701177 5.45307348,13.0710753 6.15706121,13.0710753 C6.86104894,13.0710753 7.4290292,12.3701177 7.4290292,11.5013102 C7.4290292,10.6325027 6.86104894,9.93154509 6.15706121,9.93154509 Z M6.15706121,15.6758418 C7.33811974,15.6758418 8.29153094,16.8812087 8.29153094,18.3379209 C8.29153094,19.7954925 7.3380518,21 6.15706121,21 C4.95344517,21 4,19.7946331 4,18.3379209 C4,16.8803493 4.95347915,15.6758418 6.15706121,15.6758418 Z M6.15706121,16.7690153 C5.45307348,16.7690153 4.88509322,17.4699728 4.88509322,18.3387804 C4.88509322,19.2075879 5.45307348,19.9085455 6.15706121,19.9085455 C6.86104894,19.9085455 7.4290292,19.2075879 7.4290292,18.3387804 C7.4290292,17.4699728 6.86104894,16.7690153 6.15706121,16.7690153 Z" id="All-Chemical-Types" stroke="#000000" stroke-width="0.1" fill="#000000"></path>
    </g>
</svg>