<svg xmlns="http://www.w3.org/2000/svg" width="24" height="24" viewBox="0 0 24 24">
    <path fill="#4A4A4A" fill-rule="evenodd" stroke="#4A4A4A" stroke-width=".3" d="M20.79 5.26l-5.563-2.237h-.223L8.897 5.208 3.445 3.023c-.1-.04-.214-.027-.303.037S3 3.23 3 3.344v15.07c0 .143.084.27.21.322l5.563 2.236v.002c.068.025.141.025.21 0l6.107-2.2 5.465 2.203c.1.04.214.027.303-.037.089-.065.142-.17.142-.285V5.582c0-.142-.084-.27-.21-.322h0zM3.654 3.846l4.91 1.974v14.33l-4.91-1.974V3.846zM9.218 5.83l5.564-2.006v14.344l-5.564 2.003V5.83zm11.127 14.32l-4.909-1.975V3.846l4.91 1.974v14.33z"/>
</svg>
