<?xml version="1.0" encoding="UTF-8"?>
<svg width="24px" height="24px" viewBox="0 0 24 24" version="1.1" xmlns="http://www.w3.org/2000/svg" xmlns:xlink="http://www.w3.org/1999/xlink">
    <!-- Generator: Sketch 56.3 (81716) - https://sketch.com -->
    <title>menu-support-view</title>
    <desc>Created with Sketch.</desc>
    <g id="menu-support-view" stroke="none" stroke-width="1" fill="none" fill-rule="evenodd">
        <path d="M4.60714286,5.5129715 C4.27226714,5.5129715 4,5.15480885 4,4.71428571 C4,4.27376258 4.27226714,3.91559993 4.60714286,3.91559993 L6.64107143,3.91559993 C6.90860286,2.77622674 7.70830714,2 8.61428571,2 C9.52026429,2 10.3199686,2.77622674 10.5875,3.91559993 L20.3928571,3.91559993 C20.7277329,3.91559993 21,4.27376258 21,4.71428571 C21,5.15480885 20.7277329,5.5129715 20.3928571,5.5129715 L10.5875,5.5129715 C10.3199686,6.65234469 9.52026429,7.42857143 8.61428571,7.42857143 C7.70830714,7.42857143 6.90860286,6.65234469 6.64107143,5.5129715 L4.60714286,5.5129715 Z M8.0137,3.92432158 L8.0137,3.92429283 C7.85338757,4.13271787 7.76421286,4.41724489 7.76421286,4.71425696 C7.76421286,5.24714012 8.04976429,5.7051321 8.44724857,5.80871206 C8.84378571,5.91231758 9.24126514,5.63402351 9.39589714,5.14232059 C9.55149571,4.65061768 9.42057143,4.08280959 9.08474857,3.78704666 C8.74795429,3.49127415 8.30019857,3.54868368 8.0137,3.92432158 Z M4.60714286,12.2986858 C4.27226714,12.2986858 4,11.9405231 4,11.5 C4,11.0594769 4.27226714,10.7013142 4.60714286,10.7013142 L14.4125,10.7013142 C14.6800314,9.56194103 15.4797357,8.78571429 16.3857143,8.78571429 C17.2916929,8.78571429 18.0913971,9.56194103 18.3589286,10.7013142 L20.3928571,10.7013142 C20.7277329,10.7013142 21,11.0594769 21,11.5 C21,11.9405231 20.7277329,12.2986858 20.3928571,12.2986858 L18.3589286,12.2986858 C18.0913971,13.438059 17.2916929,14.2142857 16.3857143,14.2142857 C15.4797357,14.2142857 14.6800314,13.438059 14.4125,12.2986858 L4.60714286,12.2986858 Z M15.7851286,10.7100359 L15.7851286,10.7100071 C15.6248161,10.9184322 15.5356414,11.2029592 15.5356414,11.4999712 C15.5356414,12.0328544 15.8211929,12.4908464 16.2186771,12.5944264 C16.6152143,12.6980319 17.0126937,12.4197378 17.1673257,11.9280349 C17.3229243,11.436332 17.192,10.8685239 16.8561771,10.5727609 C16.5193829,10.2769884 16.0716271,10.334398 15.7851286,10.7100359 Z M4.60714286,19.0844001 C4.27226714,19.0844001 4,18.7262374 4,18.2857143 C4,17.8451912 4.27226714,17.4870285 4.60714286,17.4870285 L8.58392857,17.4870285 C8.85146,16.3476553 9.65116429,15.5714286 10.5571429,15.5714286 C11.4631214,15.5714286 12.2628257,16.3476553 12.5303571,17.4870285 L20.3928571,17.4870285 C20.7277329,17.4870285 21,17.8451912 21,18.2857143 C21,18.7262374 20.7277329,19.0844001 20.3928571,19.0844001 L12.5303571,19.0844001 C12.2628257,20.2237733 11.4631214,21 10.5571429,21 C9.65116429,21 8.85146,20.2237733 8.58392857,19.0844001 L4.60714286,19.0844001 Z M9.95655714,17.4957502 L9.95655714,17.4957214 C9.79624471,17.7041464 9.70707,17.9886735 9.70707,18.2856855 C9.70707,18.8185687 9.99262143,19.2765607 10.3901057,19.3801406 C10.7866429,19.4837462 11.1841223,19.2054521 11.3387543,18.7137492 C11.4943529,18.2220462 11.3634286,17.6542382 11.0276057,17.3584752 C10.6908114,17.0627027 10.2430557,17.1201123 9.95655714,17.4957502 Z" id="custom-views" fill="#000000"></path>
    </g>
</svg>