<svg xmlns="http://www.w3.org/2000/svg" width="25" height="24" viewBox="0 0 25 24">
    <g fill="none" fill-rule="evenodd">
        <g fill="#4A4A4A" fill-rule="nonzero">
            <g>
                <g>
                    <path d="M11.6 2c2.545.002 4.985 1.015 6.785 2.815 1.8 1.8 2.813 4.24 2.815 6.785 0 2.545-1.012 4.987-2.812 6.788-1.8 1.8-4.243 2.812-6.788 2.812s-4.987-1.012-6.788-2.812C3.012 16.588 2 14.145 2 11.6s1.012-4.987 2.812-6.788c1.722-1.722 4.031-2.723 6.457-2.806L11.6 2zm3.682 14.181h-3.209v3.851l.05-.01c1.263-.295 2.401-1.657 3.113-3.701l.046-.14zm-4.156 0H7.917l.047.14c.711 2.043 1.85 3.406 3.113 3.702l.049.009v-3.851zm7.682 0H16.28l-.079.255c-.425 1.287-1.02 2.37-1.734 3.162l-.071.074.212-.076c1.685-.636 3.13-1.789 4.127-3.297l.073-.118zm-11.889 0H4.391l.074.118c.996 1.508 2.442 2.66 4.127 3.297l.212.076-.07-.074c-.715-.791-1.31-1.874-1.734-3.162l-.081-.255zm13.21-4.108h-3.208l-.012.39c-.039.81-.14 1.619-.3 2.416l-.078.355h2.801l.133-.293c.35-.823.57-1.697.647-2.588l.017-.28zm-13.851 0H3.07l.018.28c.078.891.296 1.765.647 2.588l.131.292h2.801l-.076-.354c-.161-.798-.261-1.606-.3-2.417l-.013-.389zm4.848 0h-3.9l.013.38c.04.802.145 1.6.314 2.386l.09.394h3.483v-3.16zm4.847 0h-3.9v3.16h3.482l.092-.393c.168-.786.273-1.584.314-2.387l.012-.38zM6.667 7.965h-2.8l-.132.294c-.351.823-.57 1.696-.647 2.588l-.018.279h3.208l.013-.388c.039-.812.139-1.62.3-2.418l.076-.355zm4.459 0H7.643l-.09.395c-.169.787-.273 1.585-.314 2.387l-.013.379h3.9V7.965zm4.43 0h-3.483v3.161h3.9l-.012-.38c-.04-.802-.146-1.6-.314-2.386l-.091-.395zm3.776 0h-2.801l.078.355c.16.797.261 1.605.3 2.417l.012.389h3.208l-.017-.279c-.078-.892-.296-1.765-.647-2.588l-.133-.294zm-4.935-4.437l.07.074c.71.785 1.3 1.859 1.725 3.135l.089.281h2.527l-.073-.117c-.996-1.508-2.442-2.66-4.127-3.297l-.211-.076zm-5.594 0l-.211.076c-1.68.634-3.121 1.78-4.117 3.281l-.085.133h2.527l.082-.254c.425-1.288 1.02-2.371 1.734-3.162l.07-.074zm2.323-.361l-.05.01c-1.263.296-2.4 1.658-3.112 3.702l-.047.139h3.209V3.167zm.947 0v3.851h3.209l-.046-.14c-.712-2.043-1.85-3.405-3.113-3.7l-.05-.011z" transform="translate(-1574 -20) translate(34 7) translate(1540.973 13)"/>
                </g>
            </g>
        </g>
    </g>
</svg>
