<?xml version="1.0" encoding="UTF-8"?>
<svg width="24px" height="24px" viewBox="0 0 24 24" version="1.1" xmlns="http://www.w3.org/2000/svg" xmlns:xlink="http://www.w3.org/1999/xlink">
    <!-- Generator: Sketch 56.3 (81716) - https://sketch.com -->
    <title>menu-map</title>
    <desc>Created with Sketch.</desc>
    <g id="menu-map" stroke="none" stroke-width="1" fill="none" fill-rule="evenodd">
        <path d="M21.7786319,4.38567014 L15.9058815,2.02452577 L15.6705404,2.02452577 L9.22460961,4.33091871 L3.46959064,2.02452577 C3.36379547,1.98118016 3.24396372,1.99600947 3.15005775,2.0633073 C3.05613797,2.13060629 3,2.24353148 3,2.36328672 L3,18.2709856 C3,18.4215505 3.08852238,18.5561485 3.22130734,18.6097728 L9.09405768,20.9709172 L9.09405768,20.9720577 C9.16530727,20.9994335 9.24303485,20.9994335 9.31536502,20.9720577 L15.7612958,18.6508308 L21.5304094,20.9754742 C21.6362045,21.0188198 21.7560363,21.0039905 21.8499422,20.9366927 C21.943862,20.868252 22,20.7564685 22,20.6355745 L22,4.72583156 C22,4.5752666 21.9114776,4.43952686 21.7786927,4.3859055 L21.7786319,4.38567014 Z M3.69083719,2.8925476 L8.87267572,4.97651835 L8.87267572,20.1028048 L3.69083719,18.0188341 L3.69083719,2.8925476 Z M9.56358752,4.98793584 L15.4363379,2.87088064 L15.4363379,18.0120595 L9.56358752,20.1256982 L9.56358752,4.98793584 Z M21.3090882,20.102834 L16.1272497,18.0188633 L16.1272497,2.8925768 L21.3090882,4.97654755 L21.3090882,20.102834 Z" id="map-" stroke="#000000" stroke-width="0.2" fill="#000000"></path>
    </g>
</svg>