<?xml version="1.0" encoding="UTF-8"?>
<svg width="24px" height="24px" viewBox="0 0 24 24" version="1.1" xmlns="http://www.w3.org/2000/svg" xmlns:xlink="http://www.w3.org/1999/xlink">
    <!-- Generator: Sketch 56.3 (81716) - https://sketch.com -->
    <title>menu-res-pesticidesherbicides</title>
    <desc>Created with Sketch.</desc>
    <g id="menu-res-pesticidesherbicides" stroke="none" stroke-width="1" fill="none" fill-rule="evenodd">
        <path d="M6.00062756,20.1078417 L6.00087545,20.1078417 C6.00087545,13.143347 6.00087545,14.9565894 6,8.88354851 C6,7.27188624 7.12055266,5.83319145 8.83477679,5.22849028 L8.83477679,3.53055956 C8.83477679,3.04128747 9.29616765,2.63840126 9.8564888,2.63840126 L11.1749917,2.63840126 C11.7353129,2.63840126 12.1967037,3.04128747 12.1967037,3.53055956 L12.1967037,5.22849028 C13.9108382,5.83244775 15.0314805,7.27200367 15.0314805,8.88354851 L15.0314805,20.1078417 C15.0314805,20.5971138 14.5700897,21 14.0097685,21 L7.02233957,21 C6.46201841,21 6.00062756,20.5971138 6.00062756,20.1078417 Z M14.3722739,16.7410626 L14.3713774,10.6680217 L6.65911698,10.6680217 L6.65911698,16.7410626 L14.3722739,16.7410626 Z M14.0098133,20.4250857 L14.0097237,20.4250857 C14.207591,20.4250857 14.3721842,20.2805958 14.3721842,20.1085854 L14.3721842,17.3166031 L6.65992384,17.3166031 L6.65992384,20.1085854 C6.65992384,20.2813611 6.82452155,20.4250857 7.02238439,20.4250857 L14.0098133,20.4250857 Z M9.49407308,3.53071613 L9.49407308,5.14226097 L11.5374971,5.14226097 L11.5374971,3.53071613 C11.5374971,3.35793849 11.3728994,3.2142158 11.1750365,3.2142158 L9.85653363,3.2142158 C9.6586663,3.2142158 9.49407308,3.35794241 9.49407308,3.53071613 Z M9.23054283,5.71795808 C7.68170309,6.17826527 6.65911698,7.44497114 6.65911698,8.88374422 L6.65911698,10.0924029 L14.4047725,10.0924029 L14.4047725,8.88374422 C14.4047725,7.47323149 13.3830157,6.20723017 11.8342432,5.71795808 L9.23054283,5.71795808 Z M10.2852914,3.96186269 L10.2852667,3.96186269 C10.4165836,3.84718906 10.647725,3.84718906 10.7466576,3.96186269 C10.8123205,4.01995299 10.8455901,4.07729959 10.8455901,4.16367765 C10.8455901,4.2500557 10.8123205,4.30739056 10.7475339,4.3654926 C10.6810059,4.42282942 10.6153452,4.45188044 10.5164126,4.45188044 C10.4174913,4.45188044 10.3509543,4.42282942 10.2852914,4.3654926 C10.2196285,4.3074023 10.1863588,4.2500557 10.1863588,4.16367765 C10.1863588,4.07729959 10.2187521,4.01996473 10.2852914,3.96186269 Z M13.2848026,4.422757 L13.2848003,4.42272765 C13.18587,4.39368446 13.0869375,4.27900691 13.0869375,4.16357001 C13.0869375,4.07718608 13.1526004,3.96174918 13.2848003,3.90441236 L18.5246997,2.03447315 C18.6892996,1.94808335 18.8871669,2.03447315 18.9528299,2.1781978 C19.0517669,2.32192637 18.9528299,2.494704 18.7882366,2.55204082 L15.097065,3.87612852 L18.6568974,3.87612852 C18.8538973,3.87612852 18.9860972,3.99081194 18.9860972,4.16358566 C18.9860972,4.3356059 18.8547602,4.4510428 18.6568974,4.4510428 L15.097065,4.4510428 L18.7891332,5.77589377 C18.9537286,5.83323646 19.0193915,6.00601213 18.9537286,6.14973679 C18.888059,6.29345949 18.6901939,6.35079631 18.5255984,6.29345949 L13.2848026,4.422757 Z" id="Pesticides-&amp;-Herbic…" stroke="#000000" stroke-width="0.1" fill="#000000"></path>
    </g>
</svg>