<?xml version="1.0" encoding="UTF-8"?>
<svg width="24px" height="24px" viewBox="0 0 24 24" version="1.1" xmlns="http://www.w3.org/2000/svg" xmlns:xlink="http://www.w3.org/1999/xlink">
    <!-- Generator: Sketch 56.3 (81716) - https://sketch.com -->
    <title>menu-auth-group</title>
    <desc>Created with Sketch.</desc>
    <g id="menu-auth-group" stroke="none" stroke-width="1" fill="none" fill-rule="evenodd">
        <path d="M17.56,15.4555556 C17.27,15.4555556 16.99,15.3816667 16.74,15.2444444 C16.18,14.9383333 15.77,14.3366667 15.68,13.6188889 C15.66,13.5027778 15.65,13.3866667 15.65,13.2705556 C15.65,12.1622222 16.39,11.4338889 17.56,11.4338889 C18.71,11.4338889 19.45,12.1622222 19.45,13.2705556 C19.45,14.4633333 18.6,15.4555556 17.56,15.4555556 M14.45,12.5527778 C14.43,12.6477778 14.41,12.7427778 14.41,12.8483333 C14.32,12.7955556 14.22,12.7638889 14.12,12.7322222 C14.23,12.69 14.34,12.6266667 14.45,12.5527778 M13.13,11.6661111 C13.05,11.6766667 12.97,11.6872222 12.88,11.6872222 L12.82,11.6872222 C12.11,11.6661111 11.49,11.1911111 11.19,10.5155556 C11.18,10.505 11.18,10.4838889 11.17,10.4733333 C11.14,10.41 11.11,10.3361111 11.08,10.2622222 L11.08,10.2516667 C11.01,10.0194444 10.97,9.76611111 10.97,9.51277778 C10.97,8.40444444 11.71,7.67611111 12.87,7.67611111 C14.03,7.67611111 14.77,8.40444444 14.77,9.51277778 C14.77,10.5894444 14.06,11.5183333 13.13,11.6661111 M9.73,9.175 L9.7,9.175 C9.63,9.15388889 9.56,9.14333333 9.49,9.13277778 C9.58,9.06944444 9.68,8.99555556 9.76,8.91111111 C9.74,8.99555556 9.73,9.08 9.73,9.175 M7.8,8.34111111 C6.75,8.34111111 5.9,7.37 5.9,6.16666667 C5.9,5.05833333 6.64,4.33 7.8,4.33 C8.96,4.33 9.7,5.05833333 9.7,6.16666667 C9.7,7.34888889 8.85,8.34111111 7.8,8.34111111 M21.97,19.6461111 C21.8,17.9994444 20.79,16.8172222 19.15,16.3 C20.09,15.6983333 20.72,14.5583333 20.72,13.26 C20.72,11.4127778 19.41,10.1144444 17.56,10.1144444 C16.93,10.1144444 16.37,10.2622222 15.9,10.5261111 C15.99,10.1988889 16.04,9.86111111 16.04,9.50222222 C16.04,7.655 14.73,6.34611111 12.87,6.34611111 C12.08,6.34611111 11.4,6.57833333 10.88,6.97944444 C10.94,6.71555556 10.97,6.44111111 10.97,6.15611111 C10.97,4.30888889 9.66,3 7.8,3 C5.94,3 4.63,4.30888889 4.63,6.15611111 C4.63,7.45444444 5.27,8.605 6.22,9.20666667 C4.46,9.65 3.34,10.7583333 3.06,12.3838889 C3.01,12.7005556 3,13.6188889 3,13.7244444 C3,14.0727778 3.25,14.3472222 3.58,14.3472222 C3.92,14.3472222 4.17,14.0727778 4.17,13.7244444 C4.17,13.4183333 4.19,12.7533333 4.21,12.6055556 C4.57,10.5366667 6.76,10.2411111 8.06,10.2411111 C8.38,10.2411111 8.83,10.2622222 9.31,10.3572222 C9.49,10.3888889 9.66,10.4311111 9.84,10.4944444 C9.85,10.5577778 9.87,10.6105556 9.89,10.6738889 C9.99,11.0011111 10.14,11.3072222 10.32,11.5816667 C10.54,11.9088889 10.81,12.1938889 11.11,12.4261111 C8.74,12.6372222 7.21,13.8405556 6.88,15.7933333 C6.83,16.0994444 6.81,17.0177778 6.81,17.1233333 C6.81,17.4716667 7.07,17.7461111 7.4,17.7461111 C7.73,17.7461111 7.98,17.4716667 7.98,17.1233333 C7.98,16.8172222 8.01,16.1522222 8.03,16.0044444 C8.37,14.0622222 10.33,13.6822222 11.64,13.6505556 L12.19,13.6505556 C12.85,13.6822222 13.78,13.8088889 14.53,14.2627778 L14.53,14.2733333 C14.57,14.4633333 14.63,14.6216667 14.71,14.7905556 L14.71,14.8011111 C14.93,15.2972222 15.25,15.73 15.64,16.0677778 C15.66,16.0677778 15.68,16.0572222 15.71,16.0572222 C15.72,16.0888889 15.72,16.11 15.73,16.1416667 C15.7,16.1205556 15.67,16.0994444 15.64,16.0677778 C15.57,16.0783333 15.5,16.0994444 15.43,16.11 C13.48,16.4688889 12.23,17.6194444 11.93,19.3505556 C11.88,19.6672222 11.87,20.5855556 11.87,20.6911111 C11.87,21.0394444 12.12,21.3138889 12.45,21.3138889 C12.78,21.3138889 13.03,21.0394444 13.03,20.6911111 C13.03,20.385 13.06,19.72 13.08,19.5722222 C13.34,18.0627778 14.58,17.4927778 15.73,17.3027778 C15.95,17.2605556 16.16,17.2394444 16.37,17.2288889 C16.57,17.2077778 16.75,17.2077778 16.92,17.2077778 L16.93,17.2077778 C17.1,17.2077778 17.32,17.2183333 17.56,17.2394444 C18.77,17.345 20.59,17.8305556 20.8,19.7938889 C20.8,19.8888889 20.81,20.3111111 20.81,20.5433333 C20.81,20.8811111 21.07,21.1555556 21.4,21.1555556 C21.74,21.1555556 21.99,20.8811111 21.99,20.5433333 C21.99,20.5433333 21.99,19.8677778 21.97,19.6461111" id="Fill-1" fill="#000000"></path>
    </g>
</svg>