<?xml version="1.0" encoding="UTF-8"?>
<svg width="24px" height="24px" viewBox="0 0 24 24" version="1.1" xmlns="http://www.w3.org/2000/svg" xmlns:xlink="http://www.w3.org/1999/xlink">
    <!-- Generator: Sketch 56.3 (81716) - https://sketch.com -->
    <title>menu-data-measurements</title>
    <desc>Created with Sketch.</desc>
    <g id="menu-data-measurements" stroke="none" stroke-width="1" fill="none" fill-rule="evenodd">
        <path d="M18.5309164,2.49165198 L21.508348,5.4690836 C22.163884,6.12651665 22.163884,7.18963145 21.508348,7.84611596 L8.84611596,20.508348 C8.18963145,21.163884 7.12651665,21.163884 6.4690836,20.508348 L3.49165198,17.5309164 C2.83611601,16.8734833 2.83611601,15.8103686 3.49165198,15.153884 L16.153884,2.49165198 C16.8103686,1.83611601 17.8734833,1.83611601 18.5309164,2.49165198 Z M20.8367112,7.17450351 L20.8367808,7.1744427 C21.1218038,6.88847112 21.1218038,6.42675276 20.8367808,6.14078118 L17.8593492,3.16334956 C17.5733776,2.87832652 17.1116592,2.87832652 16.8256877,3.16334956 L16.1492596,3.83977766 L17.4432335,5.13375164 C17.534439,5.22306 17.5857412,5.34465751 17.5866912,5.47196569 C17.5866912,5.59926658 17.5363385,5.72182235 17.446084,5.81112828 C17.3548786,5.90138517 17.2323325,5.95078762 17.1050244,5.94888739 C16.977721,5.94698788 16.8561138,5.89473569 16.7687074,5.80257929 L16.7677574,5.80257929 L15.476629,4.51145092 L13.2658581,6.72222187 L15.0766628,8.53302661 C15.2628727,8.71923161 15.2628727,9.01945069 15.0766628,9.20471202 C14.8914063,9.39092189 14.5911873,9.39092189 14.4049774,9.20471202 L12.5941726,7.39390729 L10.3834017,9.60467823 L11.6745301,10.8958066 C11.8607399,11.0820116 11.8607399,11.3822307 11.6745301,11.5684406 C11.4892736,11.7537019 11.188106,11.7537019 11.0028446,11.5684406 L9.71171628,10.2773122 L7.50094534,12.4880831 L9.31175008,14.2988879 C9.49701141,14.4841443 9.49700654,14.785312 9.31175008,14.9705733 C9.12649361,15.1558346 8.82532599,15.1558346 8.64006466,14.9705733 L6.82925992,13.1597685 L4.16338604,15.8256424 C3.878363,16.111614 3.878363,16.5733324 4.16338604,16.8593039 L7.14081766,19.8367356 C7.42678924,20.1217586 7.8885076,20.1217586 8.17447919,19.8367356 L20.8367112,7.17450351 Z M6.72066465,16.5752294 L7.42464725,17.279212 C7.60895859,17.4644685 7.60895859,17.7637391 7.42369726,17.9490004 C7.23844079,18.1342624 6.93917024,18.135211 6.75296037,17.9509006 L6.04897607,17.2469163 C5.86466644,17.0607113 5.86561498,16.7614408 6.05087631,16.5761794 C6.23613277,16.3909191 6.53540332,16.3909191 6.72066465,16.5752294 Z" id="Mesurements" fill="#000000"></path>
    </g>
</svg>