<?xml version="1.0" encoding="UTF-8"?>
<svg width="24px" height="24px" viewBox="0 0 24 24" version="1.1" xmlns="http://www.w3.org/2000/svg" xmlns:xlink="http://www.w3.org/1999/xlink">
    <!-- Generator: Sketch 56.3 (81716) - https://sketch.com -->
    <title>menu-res-adjuvants</title>
    <desc>Created with Sketch.</desc>
    <g id="menu-res-adjuvants" stroke="none" stroke-width="1" fill="none" fill-rule="evenodd">
        <path d="M5.09350388,20.8719668 C5.15582179,20.9579067 5.23721714,21 5.31861086,21 C5.40000458,21 5.48140156,20.9570289 5.54371784,20.8719668 L7.44120621,18.2552224 C7.70764574,18.5156845 8.02495737,18.6568711 8.35817365,18.6568711 L8.362625,18.6568711 C8.78868081,18.6551173 9.18865756,18.4244711 9.48817616,18.0070627 L9.77750407,17.6036629 C9.91040802,17.6676806 10.0515785,17.7010028 10.1965599,17.7010028 C10.536125,17.7010028 10.8553576,17.5185985 11.095718,17.1871053 L16.5638576,9.6462299 L17.0128017,10.2653495 C17.0751197,10.3512894 17.156515,10.3933827 17.2379087,10.3933827 C17.3193024,10.3933827 17.4006994,10.3504116 17.4630157,10.2653495 C17.5870166,10.0943451 17.5870166,9.8163542 17.4630157,9.64535436 L16.5320483,8.36149731 L17.7002017,6.73739165 L18.2375413,7.47841343 C18.2998592,7.56435337 18.3812545,7.60644667 18.4626483,7.60644667 C18.544042,7.60644667 18.625439,7.56347558 18.6877552,7.47841343 C18.8117562,7.3074091 18.8117562,7.02941817 18.6877552,6.85841832 L15.2558017,2.12825325 C15.1318008,1.95724892 14.9302203,1.95724892 14.8062227,2.12825325 C14.6822217,2.29925759 14.6822217,2.57724851 14.8062227,2.74824836 L15.4408459,3.62342992 L14.2676134,5.24138434 L13.2342669,3.81634073 C13.1102659,3.6453364 12.9086855,3.6453364 12.7846878,3.81634073 C12.6606869,3.98734507 12.6606869,4.26533599 12.7846878,4.43633584 L13.233632,5.0554554 L7.76549244,12.5954328 C7.5251157,12.926926 7.39284826,13.3671434 7.39284826,13.835423 C7.39284826,14.0353651 7.41701291,14.230045 7.46343267,14.4133248 L7.17091407,14.8123245 C6.86822105,15.2253552 6.70035128,15.7769683 6.6997164,16.3645235 C6.69908053,16.8257988 6.80082407,17.2660162 6.99096523,17.634327 L5.09347686,20.2510714 C4.96884105,20.4238291 4.96884105,20.7009422 5.09347686,20.8719421 L5.09350388,20.8719668 Z M15.8904341,4.24342727 L17.2487271,6.1165906 L16.0805737,7.74069626 L14.7172016,5.8605286 L15.8904341,4.24342727 Z M8.2151783,13.2154751 L13.683969,5.67459966 L16.113783,9.0254513 L15.128769,10.3838416 L13.9873295,8.80973152 C13.8633285,8.63872719 13.6617481,8.63872719 13.5377504,8.80973152 C13.4137527,8.98073586 13.4137495,9.25872678 13.5377504,9.42972663 L14.678555,11.0047122 L14.1176923,11.7781739 L13.2859295,10.6311257 C13.1619285,10.4601214 12.9603481,10.4601214 12.8363504,10.6311257 C12.7123495,10.80213 12.7123495,11.080121 12.8363504,11.2511208 L13.6681132,12.398169 L12.8878574,13.4741861 L11.7394178,11.9070804 C11.614782,11.7369539 11.4132016,11.7378294 11.2898388,11.9105882 C11.1664743,12.0824681 11.1671092,12.360459 11.2923824,12.5305833 L12.4382824,14.0950624 L11.6478521,15.1851106 L10.8160893,14.0222803 C10.6927249,13.8495226 10.4911428,13.8477693 10.3665103,14.0178956 C10.241238,14.1880222 10.2399666,14.4660153 10.3633308,14.6378907 L11.198268,15.8042232 L10.645675,16.5662805 C10.5254899,16.7320226 10.3658703,16.823218 10.1960959,16.823218 C10.0263052,16.823218 9.86670523,16.7320158 9.74651686,16.5662805 L8.21590988,14.4554864 C8.09572477,14.2897443 8.02959143,14.0696199 8.02959143,13.8354913 C8.02896007,13.6013403 8.09572965,13.3812428 8.215275,13.2154962 L8.2151783,13.2154751 Z M7.61869691,15.4358913 L7.82408993,15.1561448 L9.23833412,17.106468 L9.03548063,17.3897167 C8.85551551,17.6405254 8.61578993,17.7790854 8.3601597,17.7799609 L8.35761626,17.7799609 C8.10262091,17.7799609 7.86351393,17.6431565 7.68356509,17.3949924 L7.61615998,17.3020369 C7.43555998,17.0529792 7.33635533,16.7215084 7.3370033,16.3689798 C7.33637063,16.0155756 7.43684277,15.6840824 7.61871579,15.4359228 L7.61869691,15.4358913 Z" id="Adjuvants" fill="#000000"></path>
    </g>
</svg>