<svg xmlns="http://www.w3.org/2000/svg" width="1000" height="1000"><g fill="#9b9b9b" fill-rule="nonzero"><path d="M150 294.118h700c82.5 0 150-66.177 150-147.06C1000 66.177 932.5 0 850 0H150C67.5 0 0 66.176 0 147.059c0 80.882 67.5 147.059 150 147.059zm0-245.098h700c55 0 100 44.117 100 98.039 0 53.921-45 98.039-100 98.039H150c-55 0-100-44.118-100-98.04 0-53.92 45-98.038 100-98.038z"/><path d="M147.059 176.47c17.647 0 29.412-11.764 29.412-29.411 0-17.647-11.765-29.412-29.412-29.412-14.706 0-29.412 11.765-29.412 29.412s14.706 29.412 29.412 29.412zM264.706 176.47c17.647 0 29.412-11.764 29.412-29.411 0-17.647-11.765-29.412-29.412-29.412-14.706 0-29.412 11.765-29.412 29.412S250 176.47 264.706 176.47zM352.941 176.47c17.647 0 29.412-11.764 29.412-29.411 0-17.647-11.765-29.412-29.412-29.412-14.706 0-29.412 11.765-29.412 29.412s14.706 29.412 29.412 29.412zM850 352.941H150C67.5 352.941 0 419.118 0 500c0 80.882 67.5 147.059 150 147.059h700c82.5 0 150-66.177 150-147.059 0-80.882-67.5-147.059-150-147.059zm0 245.098H150c-55 0-100-44.117-100-98.039 0-53.922 45-98.04 100-98.04h700c55 0 100 44.118 100 98.04 0 53.922-45 98.04-100 98.04z"/><path d="M147.059 470.588c-14.706 0-29.412 11.765-29.412 29.412s14.706 29.412 29.412 29.412c17.647 0 29.412-11.765 29.412-29.412s-11.765-29.412-29.412-29.412zM264.706 470.588c-14.706 0-29.412 11.765-29.412 29.412s14.706 29.412 29.412 29.412c17.647 0 29.412-11.765 29.412-29.412s-11.765-29.412-29.412-29.412zM352.941 470.588c-14.706 0-29.412 11.765-29.412 29.412s14.706 29.412 29.412 29.412c17.647 0 29.412-11.765 29.412-29.412s-11.765-29.412-29.412-29.412zM850 705.882H150c-82.5 0-150 66.177-150 147.06C0 933.823 67.5 1000 150 1000h700c82.5 0 150-66.176 150-147.059 0-80.882-67.5-147.059-150-147.059zm0 245.098H150c-55 0-100-44.117-100-98.039 0-53.921 45-98.04 100-98.04h700c55 0 100 44.119 100 98.04 0 53.922-45 98.04-100 98.04z"/><path d="M147.059 823.53c-14.706 0-29.412 11.764-29.412 29.411 0 17.647 14.706 29.412 29.412 29.412 17.647 0 29.412-11.765 29.412-29.412s-11.765-29.412-29.412-29.412zM264.706 823.53c-14.706 0-29.412 11.764-29.412 29.411 0 17.647 14.706 29.412 29.412 29.412 17.647 0 29.412-11.765 29.412-29.412s-11.765-29.412-29.412-29.412zM352.941 823.53c-14.706 0-29.412 11.764-29.412 29.411 0 17.647 14.706 29.412 29.412 29.412 17.647 0 29.412-11.765 29.412-29.412s-11.765-29.412-29.412-29.412z"/></g></svg>