<svg xmlns="http://www.w3.org/2000/svg" width="27" height="26"><g fill="#9B9B9B"><path d="M16.352 17.333a.526.526 0 0 0-.056-.411l-.93-1.56c.18-.16.348-.322.504-.488l1.613.9a.58.58 0 0 0 .426 0 .558.558 0 0 0 .336-.25l1.12-1.874a.532.532 0 0 0-.202-.65l-1.613-.9a4.95 4.95 0 0 0 .18-.67h1.87c.159 0 .31-.065.417-.178a.53.53 0 0 0 .143-.419V8.667a.55.55 0 0 0-.56-.542h-1.87a11.167 11.167 0 0 0-.18-.672l1.613-.953a.532.532 0 0 0 .202-.737l-1.12-1.874a.562.562 0 0 0-.325-.206.578.578 0 0 0-.426 0l-1.612.9a1.873 1.873 0 0 0-.516-.434l.93-1.56a.532.532 0 0 0-.202-.736L14.157.768a.578.578 0 0 0-.426 0 .558.558 0 0 0-.336.25l-.94 1.505a5.401 5.401 0 0 0-.695-.173V.54a.55.55 0 0 0-.56-.541H8.96c-.31 0-.56.243-.56.542V2.35c-.231.05-.463.108-.694.173L6.72.964a.553.553 0 0 0-.28-.249.578.578 0 0 0-.426 0L4.077 1.798a.532.532 0 0 0-.202.737l.919 1.614c-.21.123-.377.285-.504.488l-1.613-.9a.577.577 0 0 0-.773.196L.784 5.806a.532.532 0 0 0 .213.693l1.613.953a4.95 4.95 0 0 0-.18.672H.56c-.31 0-.56.243-.56.542v2.166c0 .3.25.542.56.542h1.87c.053.224.112.448.18.672L.997 13a.532.532 0 0 0-.202.737l1.12 1.874a.558.558 0 0 0 .336.249.58.58 0 0 0 .426 0l1.613-.9c.127.138.295.268.504.39l-.93 1.56a.532.532 0 0 0 .202.738l1.937 1.083a.58.58 0 0 0 .426 0 .56.56 0 0 0 .291-.195l.93-1.56c.224.072.455.13.694.173v1.81c0 .153.066.3.183.403a.572.572 0 0 0 .433.138h2.24c.31 0 .56-.243.56-.542V17.15c.231-.05.463-.108.694-.173l.986 1.56a.558.558 0 0 0 .336.249.58.58 0 0 0 .426 0l1.937-1.083a.538.538 0 0 0 .213-.369zm-2.24-1.82l.885 1.484-.975.542-.884-1.484a.57.57 0 0 0-.684-.238 6.902 6.902 0 0 1-1.388.357.548.548 0 0 0-.47.531v1.712h-1.12v-1.712a.548.548 0 0 0-.471-.53 6.982 6.982 0 0 1-1.389-.358.57.57 0 0 0-.683.238l-.851 1.473-.975-.541.885-1.484a.53.53 0 0 0-.134-.694 6.68 6.68 0 0 1-1.02-.986.573.573 0 0 0-.716-.13l-1.535.856-.56-.942 1.535-.856a.533.533 0 0 0 .246-.661 6.268 6.268 0 0 1-.37-1.343.555.555 0 0 0-.548-.455H1.12V9.208h1.77a.555.555 0 0 0 .548-.455 6.28 6.28 0 0 1 .37-1.343.533.533 0 0 0-.246-.66l-1.524-.867.56-.943 1.535.867c.24.133.544.078.717-.13a6.68 6.68 0 0 1 1.019-.986.53.53 0 0 0 .134-.693l-.885-1.485.975-.541.873 1.484a.57.57 0 0 0 .684.238 6.902 6.902 0 0 1 1.388-.357.548.548 0 0 0 .482-.542V1.083h1.12v1.712c.002.264.2.489.47.53.475.072.94.191 1.39.358a.57.57 0 0 0 .682-.238l.885-1.484.975.541-.885 1.496a.53.53 0 0 0 .134.693 6.68 6.68 0 0 1 1.02.986.573.573 0 0 0 .716.13l1.535-.856.56.942-1.535.856a.533.533 0 0 0-.246.661c.173.434.297.884.37 1.343a.553.553 0 0 0 .548.455h1.781v1.084h-1.77a.555.555 0 0 0-.548.455 6.28 6.28 0 0 1-.37 1.343.533.533 0 0 0 .246.66l1.535.857-.56.942-1.535-.856a.573.573 0 0 0-.716.13 6.68 6.68 0 0 1-1.02.986.53.53 0 0 0-.145.694l-.045.01z"/><path d="M10.08 5.417c-2.474 0-4.48 1.94-4.48 4.333 0 2.393 2.006 4.333 4.48 4.333 2.474 0 4.48-1.94 4.48-4.333 0-1.15-.472-2.251-1.312-3.064a4.558 4.558 0 0 0-3.168-1.27zm0 7.583c-1.856 0-3.36-1.455-3.36-3.25S8.224 6.5 10.08 6.5c1.856 0 3.36 1.455 3.36 3.25 0 .862-.354 1.689-.984 2.298-.63.61-1.485.952-2.376.952zm16.24 5.958h-.907l.638-.617a.533.533 0 0 0 0-.77l-1.579-1.527a.585.585 0 0 0-.795 0l-.639.618v-.954a.534.534 0 0 0-.19-.412.573.573 0 0 0-.448-.13h-2.24c-.31 0-.56.243-.56.542v.878l-.638-.618a.57.57 0 0 0-.796 0l-1.579 1.528a.533.533 0 0 0 0 .769l.639.617h-.986c-.31 0-.56.243-.56.542v2.167c0 .299.25.541.56.541h.907l-.638.618a.533.533 0 0 0 0 .77l1.579 1.527a.585.585 0 0 0 .795 0l.639-.618v1.03c0 .298.25.541.56.541h2.24c.309 0 .56-.243.56-.542v-.877l.638.617a.57.57 0 0 0 .795 0l1.58-1.527a.533.533 0 0 0 0-.77l-.639-.617h1.064a.569.569 0 0 0 .427-.184.53.53 0 0 0 .133-.433V19.5a.55.55 0 0 0-.56-.542zm-.56 2.167h-.74a.558.558 0 0 0-.537.38c-.064.21-.15.413-.257.606a.529.529 0 0 0 .1.639l.527.51-.795.768-.538-.509a.574.574 0 0 0-.66-.097c-.2.103-.41.186-.628.249a.544.544 0 0 0-.403.52v.726h-1.12v-.715a.544.544 0 0 0-.403-.52 3.425 3.425 0 0 1-.628-.25.574.574 0 0 0-.66.098l-.527.51-.795-.77.549-.52a.529.529 0 0 0 .1-.64 3.191 3.191 0 0 1-.257-.606.558.558 0 0 0-.538-.379h-.75v-1.083h.74a.558.558 0 0 0 .537-.38c.064-.21.15-.413.257-.606a.528.528 0 0 0-.09-.64l-.526-.509.796-.769.526.51c.174.17.442.21.66.097.2-.103.41-.187.628-.25a.544.544 0 0 0 .403-.52v-.725h1.12v.715c0 .24.164.453.403.52.218.062.428.146.628.25.21.104.465.069.638-.087l.526-.51.796.77-.527.509a.529.529 0 0 0-.1.639c.106.193.193.396.257.607a.56.56 0 0 0 .538.379h.75v1.083z"/><path d="M21.28 18.417c-1.237 0-2.24.97-2.24 2.166 0 1.197 1.003 2.167 2.24 2.167 1.237 0 2.24-.97 2.24-2.167 0-1.196-1.003-2.166-2.24-2.166zm0 3.25c-.619 0-1.12-.485-1.12-1.084 0-.598.501-1.083 1.12-1.083.619 0 1.12.485 1.12 1.083 0 .599-.501 1.084-1.12 1.084z"/></g></svg>