<?xml version="1.0" encoding="UTF-8"?>
<svg width="24px" height="24px" viewBox="0 0 24 24" version="1.1" xmlns="http://www.w3.org/2000/svg" xmlns:xlink="http://www.w3.org/1999/xlink">
    <!-- Generator: Sketch 56.3 (81716) - https://sketch.com -->
    <title>menu-shape</title>
    <desc>Created with Sketch.</desc>
    <g id="menu-shape" stroke="none" stroke-width="1" fill="none" fill-rule="evenodd">
        <path d="M10.9746157,10.5413108 C10.4191805,10.3636756 9.82424147,10.2841229 9.24945099,10.2841229 C7.56379025,10.2841229 5.9570581,11.0355987 4.84710008,12.3207868 C4.7278029,12.4590332 4.7278029,12.6768323 4.82695941,12.8150747 C5.8580285,14.159696 7.4252567,14.9304292 9.15038173,14.9304292 C10.7167373,14.9304292 12.263698,14.277811 13.5527326,13.1309049 L16.4080436,15.9776078 C15.8526085,15.7999726 15.2576694,15.7204199 14.6828789,15.7204199 C12.9972182,15.7204199 11.390486,16.4718957 10.280528,17.7570838 C10.1612308,17.8953302 10.1612308,18.1131293 10.2603873,18.2513717 C11.311605,19.5967641 12.877921,20.3675171 14.6038393,20.3675171 C16.1701949,20.3675171 17.7171555,19.7148989 19.0061902,18.5679928 L21.3262543,20.8810625 C21.4052701,20.9598401 21.5044267,21 21.6035752,21 C21.7027238,21 21.8018883,20.9606112 21.8808962,20.8810625 C22.0397013,20.7227361 22.0397013,20.4856321 21.8808962,20.3273018 L19.5808617,17.9948561 C20.8698964,16.5907621 21.5043394,14.9101041 21.3858275,13.2103469 C21.286671,11.6286256 20.5329229,10.2446194 19.2833128,9.29538895 C19.1446484,9.17645142 18.9261907,9.19653137 18.7875302,9.3154689 C17.5379995,10.3828144 16.8044,11.8655991 16.7447077,13.4674873 C16.7245671,14.1394025 16.8043563,14.7920207 17.0026733,15.4446389 L14.1271344,12.5777691 C15.4161691,11.1736751 16.0506121,9.49301712 15.9321003,7.79325987 C15.8329438,6.21153857 15.0791956,4.82753244 13.8295856,3.87830195 C13.6909211,3.75936441 13.4724635,3.77944437 13.333803,3.8983819 C12.0842723,4.96572743 11.3506727,6.44851206 11.2909805,8.0504003 C11.2708398,8.72231551 11.3506291,9.37493371 11.5489461,10.0275519 L9.74398022,8.2280276 C9.68510505,4.64898774 7.26586062,2 4.09285218,2 C3.85426177,2 3.59706961,2.02007995 3.3584792,2.05946877 C3.18030685,2.07877704 3.02150571,2.21779511 3.02150571,2.41551423 C2.88284127,4.05670825 3.41813176,5.61830214 4.52900202,6.78541474 C5.65922763,8.03040734 7.32481908,8.72241041 9.18935817,8.76179527 L10.9746157,10.5413108 Z M9.16965776,14.139529 C7.82097052,14.139529 6.5521241,13.5857684 5.69917977,12.5971926 C6.65124095,11.6086168 7.900851,11.074944 9.26881427,11.074944 C10.5973529,11.074944 11.9258122,11.6086168 13.0165339,12.5778956 C11.8669331,13.6058563 10.5181863,14.139529 9.16965776,14.139529 Z M11.1333534,18.0343596 C12.0854145,17.0457838 13.3350246,16.512111 14.7029879,16.512111 C16.0315265,16.512111 17.3599858,17.0457838 18.4507075,18.0150626 C17.3204818,19.0237262 15.9515667,19.576696 14.6038313,19.576696 C13.2551441,19.576696 12.0055341,19.0229354 11.1333534,18.0343596 Z M19.0456465,10.1265044 C19.9582038,10.9173651 20.5128456,12.0248863 20.5926468,13.26978 C20.6918033,14.7325559 20.1363682,16.1961622 19.0456465,17.4419654 C18.0145774,16.2950593 17.4792909,14.9110136 17.5381502,13.5078291 C17.5784316,12.2025927 18.1137141,11.0162226 19.0456465,10.1265044 Z M13.6122662,4.70871354 C14.5248234,5.49957418 15.0794653,6.60709544 15.1592665,7.85198918 C15.258423,9.31476504 14.7029879,10.7783713 13.6122662,12.0241745 C12.5811971,10.8772684 12.0459106,9.49322274 12.1047699,8.09003824 C12.1442778,6.78480182 12.6795604,5.59843176 13.6122662,4.70871354 Z M8.95191005,7.97097417 C7.40490978,7.87211658 6.05614322,7.2789711 5.10503394,6.25101043 C4.2320005,5.30181948 3.77572188,4.09631059 3.79585065,2.81116204 C3.89500717,2.79103464 3.99416368,2.79103464 4.0933202,2.79103464 C6.75023882,2.79103464 8.79306132,4.98606837 8.95191005,7.97097417 Z" id="Shape" stroke="#000000" stroke-width="0.1" fill="#000000"></path>
    </g>
</svg>