<?xml version="1.0" encoding="UTF-8"?>
<svg width="24px" height="24px" viewBox="0 0 24 24" version="1.1" xmlns="http://www.w3.org/2000/svg" xmlns:xlink="http://www.w3.org/1999/xlink">
    <!-- Generator: Sketch 56.3 (81716) - https://sketch.com -->
    <title>menu-support-satellite-images</title>
    <desc>Created with Sketch.</desc>
    <g id="menu-support-satellite-images" stroke="none" stroke-width="1" fill="none" fill-rule="evenodd">
        <path d="M11.4402277,13.2944721 L16.6359694,18.4881094 C16.7415671,18.5936652 16.8050905,18.7412703 16.7836415,18.8888837 C16.7621925,19.036493 16.6994927,19.1849382 16.572446,19.2690535 C15.0940779,20.4087186 13.3194871,21 11.4401855,21 C9.18060543,21 7.0685665,20.1135423 5.46314321,18.5302051 C2.48570982,15.5531089 2.16891665,10.7826195 4.72395915,7.44684465 C4.8089442,7.31984834 4.95660783,7.23573302 5.10427991,7.23573302 C5.25194776,7.21429252 5.39961562,7.27779068 5.50521334,7.38334649 L10.7010437,12.5555814 L12.1373417,11.1198534 C12.3270797,10.9087418 12.6653303,10.9087418 12.8765257,11.1198534 C13.0877212,11.3095161 13.0877212,11.6476325 12.8765257,11.8587441 L11.4402277,13.2944721 Z M11.4402277,19.9444883 L11.44027,19.9442772 C12.876399,19.9442772 14.2492328,19.5435029 15.4314415,18.7831632 L5.21000435,8.56578272 C3.351231,11.458012 3.75313593,15.3213548 6.22391144,17.7698274 C7.61716779,19.1841487 9.47594114,19.9444883 11.4402277,19.9444883 Z M12.496205,2 C17.7340632,2 22,6.26424376 22,11.5000232 C22,11.7952417 21.7673471,12.0278023 21.4720114,12.0278023 C21.1766757,12.0278023 20.9440228,11.7952417 20.9440228,11.5000232 C20.9440228,6.83403404 17.1640467,3.05555814 12.496205,3.05555814 C12.2008693,3.05555814 11.9682164,2.82299757 11.9682164,2.52777907 C11.9682164,2.23256057 12.2008693,2 12.496205,2 Z M12.496205,4.11111627 C16.5724883,4.11111627 19.8880455,7.42535771 19.8880455,11.5000232 C19.8880455,11.7952417 19.6553926,12.0278023 19.3600569,12.0278023 C19.0647212,12.0278023 18.8320683,11.7952417 18.8320683,11.5000232 C18.8320683,8.01668137 15.9809298,5.16667441 12.496205,5.16667441 C12.2008693,5.16667441 11.9682164,4.93411384 11.9682164,4.63889534 C11.9682164,4.34367684 12.2008693,4.11111627 12.496205,4.11111627 Z M12.496205,6.22223254 C15.4109133,6.22223254 17.7760911,8.58647166 17.7760911,11.5000232 C17.7760911,11.7952417 17.5434382,12.0278023 17.2481025,12.0278023 C16.9527668,12.0278023 16.7201139,11.7952417 16.7201139,11.5000232 C16.7201139,9.17779532 14.8193549,7.27779068 12.496205,7.27779068 C12.2008693,7.27779068 11.9682164,7.04523011 11.9682164,6.75001161 C11.9682164,6.45479311 12.2008693,6.22223254 12.496205,6.22223254 Z M14.6081594,11.5000232 C14.6081594,10.3389093 13.6577799,9.38890695 12.496205,9.38890695 C12.2008693,9.38890695 11.9682164,9.15634638 11.9682164,8.86112788 C11.9682164,8.56590938 12.2008693,8.33334881 12.496205,8.33334881 C14.2492961,8.33334881 15.6641366,9.74762783 15.6641366,11.5000232 C15.6641366,11.7952417 15.4314837,12.0278023 15.136148,12.0278023 C14.8408123,12.0278023 14.6081594,11.7952417 14.6081594,11.5000232 Z" id="satellite/uav-imagery" fill="#000000"></path>
    </g>
</svg>