<?xml version="1.0" encoding="UTF-8"?>
<svg width="24px" height="24px" viewBox="0 0 24 24" version="1.1" xmlns="http://www.w3.org/2000/svg" xmlns:xlink="http://www.w3.org/1999/xlink">
    <!-- Generator: Sketch 56.3 (81716) - https://sketch.com -->
    <title>menu-places</title>
    <desc>Created with Sketch.</desc>
    <g id="menu-places" stroke="none" stroke-width="1" fill="none" fill-rule="evenodd">
        <path d="M11.6975748,2 L11.697875,2.00080959 C15.9431803,2.00080959 19.3954497,5.09844595 19.3954497,8.90950247 C19.3954497,11.6800682 17.5280743,14.6336526 15.6986186,16.9322666 C13.8690936,19.2309222 12.0387372,20.8736954 12.0387372,20.8736954 C11.8511013,21.0421015 11.5461959,21.0421015 11.35856,20.8736954 L11.35856,20.8728858 C11.35856,20.8728858 9.52813437,19.2300711 7.69867867,16.931457 C5.86915368,14.632843 4,11.6792586 4,8.90869288 C4,5.09846543 7.4513457,2 11.6975748,2 Z M11.6975748,2.86389751 C7.97095278,2.86389751 4.9616195,5.56564993 4.9616195,8.90952195 C4.9616195,11.3198541 6.70262654,14.1948834 8.48155334,16.4302804 C10.090049,18.4512161 11.4044009,19.6276339 11.6975748,19.8964412 C11.9899403,19.6292714 13.3060935,18.4519623 14.9154437,16.4302804 C16.6943012,14.1948834 18.43353,11.3206831 18.43353,8.90952195 C18.43353,5.56482086 15.423273,2.86389751 11.6975748,2.86389751 Z M11.6975748,5.88544539 C13.5513943,5.88544539 15.0660143,7.24405274 15.0660143,8.90867215 C15.0660143,10.5725039 13.5522718,11.9318989 11.6975748,11.9318989 C9.84380145,11.9318989 8.33098275,10.5732916 8.33098275,8.90867215 C8.33098275,7.24484036 9.8428777,5.88544539 11.6975748,5.88544539 Z M11.6975748,6.74934291 C10.3634085,6.74934291 9.293526,7.71119578 9.293526,8.90867215 C9.293526,10.1061485 10.3633623,11.0680014 11.6975748,11.0680014 C13.0317872,11.0680014 14.103471,10.1061485 14.103471,8.90867215 C14.103471,7.71119578 13.0317641,6.74934291 11.6975748,6.74934291 Z" id="locations" fill="#000000"></path>
    </g>
</svg>