<svg xmlns="http://www.w3.org/2000/svg" width="24" height="24" viewBox="0 0 24 24">
    <g fill="none" fill-rule="evenodd">
        <g fill="#3A79FF">
            <g>
                <g>
                    <path d="M11.991 13.133c2.467 0 4.699.888 6.136 1.633 1.144.594 1.855 1.764 1.855 3.053v.522c0 .905-.732 1.641-1.63 1.641H5.63c-.9 0-1.631-.736-1.631-1.64v-.523c0-1.29.71-2.459 1.856-3.053 1.437-.745 3.668-1.633 6.135-1.633zm0 1.141c-2.237 0-4.285.82-5.61 1.506-.765.396-1.24 1.178-1.24 2.039v.522c0 .276.22.5.49.5h12.72c.27 0 .49-.224.49-.5v-.522c0-.861-.475-1.643-1.24-2.04-1.325-.686-3.373-1.505-5.61-1.505zm0-10.274c2.203 0 3.996 1.793 3.996 3.996 0 2.202-1.793 3.995-3.996 3.995-2.203 0-3.995-1.793-3.995-3.995C7.996 5.793 9.788 4 11.99 4zm0 1.142c-1.573 0-2.854 1.28-2.854 2.854 0 1.573 1.28 2.854 2.854 2.854s2.854-1.28 2.854-2.854-1.28-2.854-2.854-2.854z" transform="translate(-1736 -20) translate(34 7) translate(1702 13)"/>
                </g>
            </g>
        </g>
    </g>
</svg>
