<?xml version="1.0" encoding="UTF-8"?>
<svg width="24px" height="24px" viewBox="0 0 24 24" version="1.1" xmlns="http://www.w3.org/2000/svg" xmlns:xlink="http://www.w3.org/1999/xlink">
    <!-- Generator: Sketch 56.3 (81716) - https://sketch.com -->
    <title>menu-res-activematerials</title>
    <desc>Created with Sketch.</desc>
    <g id="menu-res-activematerials" stroke="none" stroke-width="1" fill="none" fill-rule="evenodd">
        <path d="M12.2069649,17.843144 C11.8229094,15.5910445 11.6285477,14.4412576 11.5561314,13.8413172 C11.5401565,13.8417441 11.5241422,13.8419586 11.5080902,13.8419586 C10.4977613,13.8419586 9.63626214,12.9927231 9.32569786,11.8145185 L7.22105904,12.3226517 C7.19262451,12.9125611 6.81331488,13.3822697 6.35108927,13.3822697 C5.87163372,13.3822697 5.48062674,12.8743196 5.48062674,12.2514676 C5.48062674,11.6286155 5.87224274,11.1206654 6.35108927,11.1206654 C6.65547498,11.1206654 6.92390407,11.3243551 7.0798558,11.6319259 L9.21152806,11.1171423 C9.20538299,11.0282405 9.20224367,10.938231 9.20224367,10.8472864 C9.20224367,10.1132623 9.40682655,9.44003032 9.74583431,8.91867614 L7.43297426,5.77312552 C7.18655257,5.9798259 6.89317441,6.09987294 6.5786132,6.09987294 C5.70875969,6.09987294 5,5.18065749 5,4.04993647 C5,2.91913431 5.70882216,2 6.5786132,2 C7.44907573,2 8.1572264,2.91921545 8.1572264,4.04993647 C8.1572264,4.51470281 8.03759091,4.94371297 7.83623026,5.28784792 L10.1473508,8.43176925 C10.5290305,8.06829724 10.9996252,7.85342573 11.5080902,7.85342573 C12.0139278,7.85342573 12.4822607,8.06630075 12.8627822,8.42670599 L14.590591,5.95354528 C14.4483504,5.69437128 14.3645852,5.37739884 14.3645852,5.03552889 C14.3645852,4.1630532 14.9117514,3.45223951 15.5827518,3.45223951 C16.2549703,3.45223951 16.8021369,4.1630532 16.8021369,5.03552889 C16.8027464,5.90879574 16.2549703,6.61960943 15.5827518,6.61960943 C15.3722345,6.61960943 15.1740038,6.54977046 15.0010411,6.42698055 L13.2650037,8.91191947 C13.6064506,9.43420177 13.8126875,10.1100771 13.8126875,10.8472864 C13.8126875,10.945665 13.8090149,11.0429543 13.8018384,11.1389346 L16.9174104,12.1836019 C17.1041076,11.7311734 17.4719716,11.4226481 17.8946885,11.4226481 C18.5046776,11.4226481 18.9999994,12.0676934 18.9999994,12.8601192 C19.0006088,13.6525449 18.5052866,14.2975902 17.8946885,14.2975902 C17.2877834,14.2975902 16.7939471,13.6616256 16.7870007,12.8768894 L13.6834874,11.8362654 C13.4298369,12.7752523 12.8255835,13.5021198 12.0758605,13.7499655 C12.2003268,14.4958904 12.5079023,16.3025436 12.7510026,17.7303326 C13.4085579,17.7827061 13.9322273,18.4942486 13.9322273,19.3628301 C13.9316173,20.2654107 13.3667593,21 12.6731939,21 C11.9784104,21 11.4129424,20.2662019 11.4129424,19.3628301 C11.4129424,18.6745587 11.7419827,18.0841452 12.2069649,17.843144 Z M11.5080902,8.56669407 C10.5400282,8.56669407 9.75129936,9.59052627 9.75129936,10.8472864 C9.75129936,12.1048783 10.5394192,13.1286902 11.5080902,13.1286902 C12.4761522,13.1286902 13.2636318,12.104858 13.2636318,10.8472864 C13.2636318,9.58971482 12.47673,8.56669407 11.5080902,8.56669407 Z M6.5786132,2.71387694 C6.01131811,2.71387694 5.54893077,3.31374454 5.54893077,4.05070735 C5.54893077,4.78767017 6.0113025,5.38753777 6.5786132,5.38753777 C7.14592391,5.38753777 7.60829564,4.78767017 7.60829564,4.05070735 C7.60768568,3.31374454 7.14592391,2.71387694 6.5786132,2.71387694 Z M17.8946885,12.1358759 C17.5866333,12.1358759 17.3365444,12.4615734 17.3365444,12.8601597 C17.3365444,13.2595575 17.587258,13.5844436 17.8946885,13.5844436 C18.2015101,13.5844436 18.4510068,13.2595373 18.4510068,12.8601597 C18.4516156,12.4607619 18.2021191,12.1358759 17.8946885,12.1358759 Z M6.35108927,11.8330614 C6.17419214,11.8330614 6.02961997,12.0200773 6.02961997,12.2514676 C6.02961997,12.4820626 6.17418902,12.6690825 6.35108927,12.6690825 C6.52920444,12.6690825 6.67377661,12.4820666 6.67377661,12.2514676 C6.67377661,12.0200814 6.52920756,11.8330614 6.35108927,11.8330614 Z M15.5827518,4.16536585 C15.2137008,4.16536585 14.9135785,4.55524936 14.9135785,5.03546803 C14.9135785,5.51568669 15.2137008,5.90636137 15.5827518,5.90636137 C15.9524118,5.90636137 16.2525351,5.51568669 16.2525351,5.03546803 C16.2531441,4.55604053 15.9530209,4.16536585 15.5827518,4.16536585 Z M12.6731939,18.4404702 C12.2803598,18.4404702 11.9619356,18.8541293 11.9619356,19.3628706 C11.9619356,19.8724031 12.2803598,20.2868534 12.6731939,20.2868534 C13.0648099,20.2868534 13.3832341,19.8724031 13.3832341,19.3628706 C13.382624,18.8549205 13.0642009,18.4404702 12.6731939,18.4404702 Z" id="active-ingredients" stroke="#000000" stroke-width="0.1" fill="#000000"></path>
    </g>
</svg>