<?xml version="1.0" encoding="UTF-8"?>
<svg xmlns="http://www.w3.org/2000/svg" width="24px" height="24px" viewBox="0 0 24 24">
    <g fill="none" fill-rule="evenodd">
        <g fill="#4A4A4A">
            <path d="M12.7 3l.136.006.13.015c.679.112 1.223.65 1.333 1.34l.016.132.005.128v.558l.006.08.022.08c.046.13.146.236.277.29.147.06.296.062.424.003l.07-.04.062-.05.4-.4.11-.1.115-.087c.55-.38 1.29-.384 1.845.004l.11.084.11.101.988.988.098.107.086.112c.189.268.29.588.29.924 0 .335-.1.655-.29.925l-.088.114-.098.107-.394.394-.051.06-.042.072c-.06.125-.064.27-.01.4.06.147.165.254.296.304l.078.021.08.008h.569l.134.006.128.015c.68.112 1.224.65 1.335 1.34l.015.132.005.128v1.402l-.006.134-.015.129c-.112.68-.65 1.224-1.34 1.334l-.132.016-.128.005h-.558l-.091.009-.076.021c-.072.027-.137.07-.189.127l-.045.059-.044.081-.012.026-.029.094-.01.08c-.005.08.01.156.04.226l.036.065.057.072.4.4.1.11.087.115c.38.55.385 1.29-.004 1.845l-.084.11-.1.11-.988.988-.11.1-.115.087c-.55.38-1.29.384-1.845-.004l-.11-.085-.11-.1-.394-.394-.06-.05-.072-.042c-.125-.06-.269-.064-.4-.011-.147.06-.254.165-.304.296l-.021.078-.008.08v.569l-.005.134-.016.128c-.11.68-.65 1.224-1.339 1.335l-.132.015L12.7 21h-1.403l-.133-.006-.13-.015c-.679-.112-1.223-.65-1.333-1.34l-.016-.132-.005-.128v-.558l-.007-.079-.02-.08c-.047-.131-.147-.236-.278-.29-.146-.06-.296-.062-.424-.004l-.07.04-.062.05-.4.4-.11.1-.115.088c-.55.38-1.29.384-1.845-.004l-.11-.085-.11-.1-.988-.988-.1-.11-.087-.115c-.38-.55-.384-1.29.005-1.845l.084-.11.1-.11.394-.394.051-.06.042-.072c.06-.125.064-.27.01-.401-.06-.146-.165-.253-.296-.303l-.078-.021-.08-.008h-.569l-.134-.005-.128-.016c-.68-.11-1.224-.65-1.335-1.339l-.015-.132L3 12.7v-1.403l.006-.133.015-.13c.112-.679.65-1.223 1.34-1.333l.132-.016.128-.005h.558l.08-.007.08-.02c.13-.047.236-.147.289-.277.06-.147.062-.297.004-.425l-.04-.07-.05-.062-.4-.4-.099-.107-.086-.112c-.189-.27-.29-.59-.29-.925 0-.334.101-.655.29-.926l.088-.114.098-.107.988-.987.11-.1.115-.087c.55-.38 1.29-.384 1.845.004l.11.085.11.1.394.394.06.051.073.042c.125.06.27.064.4.01.146-.06.253-.165.303-.296l.021-.078.008-.08v-.569l.005-.134.016-.128c.11-.68.65-1.224 1.339-1.335l.132-.015L11.3 3h1.4zm.004 1.125h-1.406l-.084.007-.073.02c-.14.047-.253.154-.305.293l-.022.08-.008.084-.001.57-.007.141-.016.127c-.09.546-.458 1.009-.982 1.223-.53.22-1.116.16-1.57-.158l-.11-.086-.104-.095-.394-.395-.063-.053-.074-.043c-.127-.06-.275-.063-.405-.007l-.073.04-.073.058-.998.997-.048.056-.042.067c-.035.07-.054.145-.054.224 0 .074.016.145.047.21l.035.06.057.072.402.402.095.104.084.109c.316.447.383 1.029.168 1.547-.222.54-.687.915-1.242 1.005l-.13.016-.133.005h-.557l-.084.007-.073.018c-.14.048-.253.155-.305.294l-.022.08-.008.085v1.414l.007.084.018.072c.048.14.155.253.294.305l.08.022.085.008h.57l.141.007.127.016c.546.091 1.009.458 1.223.983.22.53.16 1.116-.158 1.569l-.086.11-.095.104-.395.394-.053.064-.043.074c-.06.128-.062.275-.006.405l.038.072.059.074.996.997.064.054.074.043c.128.06.276.063.406.007l.072-.039.074-.06.4-.4.107-.098.112-.085c.268-.187.589-.289.92-.289.213 0 .425.042.622.124.54.222.916.687 1.006 1.242l.015.13.005.133v.557l.007.084.018.072c.048.141.155.253.294.305l.08.022.085.009h1.414l.084-.007.072-.019c.14-.047.253-.155.305-.294l.022-.08.008-.084v-.57l.007-.14.016-.128c.091-.545.458-1.009.983-1.223.53-.22 1.116-.159 1.569.159l.11.085.104.095.394.395.064.053.074.043c.128.06.276.063.406.007l.072-.039.073-.059.997-.996.053-.064.043-.074c.06-.128.063-.276.007-.406l-.038-.072-.059-.073-.401-.402-.095-.103-.091-.12c-.255-.368-.346-.829-.245-1.272l.036-.135.05-.133-.043-.008.004-.006-.008.006-.01-.002.009-.012.054-.006.063-.133.068-.118c.244-.384.646-.65 1.104-.724l.129-.015.132-.005h.558l.084-.008.072-.018c.14-.048.253-.155.305-.294l.022-.08.009-.085-.058-.08.01.004.046-1.334-.007-.086-.019-.072c-.047-.14-.155-.253-.293-.305l-.08-.022-.085-.009h-.57l-.14-.006-.128-.016c-.545-.091-1.008-.458-1.223-.983-.22-.53-.16-1.116.159-1.569l.085-.11.095-.105.395-.393.049-.057.041-.067c.036-.069.054-.145.054-.224 0-.073-.016-.145-.047-.21l-.034-.06-.057-.07-.996-.998-.063-.053-.075-.044c-.128-.06-.275-.063-.405-.007l-.073.039-.074.059-.4.4-.104.096-.11.084c-.447.316-1.028.382-1.547.168-.54-.222-.915-.687-1.005-1.242l-.016-.13-.005-.133v-.558l-.007-.084-.02-.077c-.068-.195-.252-.33-.464-.33zm-.91 4.657c1.887 0 3.424 1.537 3.424 3.425 0 1.887-1.537 3.424-3.425 3.424-1.887 0-3.424-1.537-3.424-3.424 0-1.888 1.537-3.425 3.424-3.425zm0 1.144c-1.258 0-2.281 1.023-2.281 2.28 0 1.258 1.023 2.281 2.28 2.281 1.258 0 2.281-1.023 2.281-2.28 0-1.258-1.023-2.281-2.28-2.281z"/>
        </g>
    </g>
</svg>
