<?xml version="1.0" encoding="UTF-8"?>
<svg width="24px" height="24px" viewBox="0 0 24 24" version="1.1" xmlns="http://www.w3.org/2000/svg" xmlns:xlink="http://www.w3.org/1999/xlink">
    <!-- Generator: Sketch 56.3 (81716) - https://sketch.com -->
    <title>menu-data-boundaries</title>
    <desc>Created with Sketch.</desc>
    <g id="menu-data-boundaries" stroke="none" stroke-width="1" fill="none" fill-rule="evenodd">
        <path d="M13.0588235,4.79415052 C13.0588235,5.53895928 11.9411765,5.53895928 11.9411765,4.79415052 C11.9411765,4.04934176 13.0588235,4.04934176 13.0588235,4.79415052 Z M13.0588235,7.02947093 C13.0588235,7.7742797 11.9411765,7.7742797 11.9411765,7.02947093 C11.9411765,6.28466217 13.0588235,6.28466217 13.0588235,7.02947093 Z M13.0588235,9.26479135 C13.0588235,10.0096001 11.9411765,10.0096001 11.9411765,9.26479135 C11.9411765,8.51998259 13.0588235,8.51998259 13.0588235,9.26479135 Z M13.0588235,13.7354322 C13.0588235,14.4802409 11.9411765,14.4802409 11.9411765,13.7354322 C11.9411765,12.9906234 13.0588235,12.9906234 13.0588235,13.7354322 Z M13.0588235,15.9707526 C13.0588235,16.7155614 11.9411765,16.7155614 11.9411765,15.9707526 C11.9411765,15.2259438 13.0588235,15.2259438 13.0588235,15.9707526 Z M13.0588235,18.206073 C13.0588235,18.9508818 11.9411765,18.9508818 11.9411765,18.206073 C11.9411765,17.4612643 13.0588235,17.4612643 13.0588235,18.206073 Z M22,4.79415052 C22,5.53895928 20.8823529,5.53895928 20.8823529,4.79415052 C20.8823529,4.04934176 22,4.04934176 22,4.79415052 Z M22,7.02947093 C22,7.7742797 20.8823529,7.7742797 20.8823529,7.02947093 C20.8823529,6.28466217 22,6.28466217 22,7.02947093 Z M22,9.26479135 C22,10.0096001 20.8823529,10.0096001 20.8823529,9.26479135 C20.8823529,8.51998259 22,8.51998259 22,9.26479135 Z M22,11.5001118 C22,12.2449205 20.8823529,12.2449205 20.8823529,11.5001118 C20.8823529,10.755303 22,10.755303 22,11.5001118 Z M22,13.7354322 C22,14.4802409 20.8823529,14.4802409 20.8823529,13.7354322 C20.8823529,12.9906234 22,12.9906234 22,13.7354322 Z M22,15.9707526 C22,16.7155614 20.8823529,16.7155614 20.8823529,15.9707526 C20.8823529,15.2259438 22,15.2259438 22,15.9707526 Z M22,18.206073 C22,18.9508818 20.8823529,18.9508818 20.8823529,18.206073 C20.8823529,17.4612643 22,17.4612643 22,18.206073 Z M22,20.4413934 C22,21.1862022 20.8823529,21.1862022 20.8823529,20.4413934 C20.8823529,19.6965847 22,19.6965847 22,20.4413934 Z M19.7647059,20.4413934 C19.7647059,21.1862022 18.6470588,21.1862022 18.6470588,20.4413934 C18.6470588,19.6965847 19.7647059,19.6965847 19.7647059,20.4413934 Z M17.5294118,20.4413934 C17.5294118,21.1862022 16.4117647,21.1862022 16.4117647,20.4413934 C16.4117647,19.6965847 17.5294118,19.6965847 17.5294118,20.4413934 Z M15.2941176,20.4413934 C15.2941176,21.1862022 14.1764706,21.1862022 14.1764706,20.4413934 C14.1764706,19.6965847 15.2941176,19.6965847 15.2941176,20.4413934 Z M13.0588235,20.4413934 C13.0588235,21.1862022 11.9411765,21.1862022 11.9411765,20.4413934 C11.9411765,19.6965847 13.0588235,19.6965847 13.0588235,20.4413934 Z M10.8235294,20.4413934 C10.8235294,21.1862022 9.70588235,21.1862022 9.70588235,20.4413934 C9.70588235,19.6965847 10.8235294,19.6965847 10.8235294,20.4413934 Z M8.58823529,20.4413934 C8.58823529,21.1862022 7.47058824,21.1862022 7.47058824,20.4413934 C7.47058824,19.6965847 8.58823529,19.6965847 8.58823529,20.4413934 Z M6.35294118,20.4413934 C6.35294118,21.1862022 5.23529412,21.1862022 5.23529412,20.4413934 C5.23529412,19.6965847 6.35294118,19.6965847 6.35294118,20.4413934 Z M4.11764706,20.4413934 C4.11764706,21.1862022 3,21.1862022 3,20.4413934 C3,19.6965847 4.11764706,19.6965847 4.11764706,20.4413934 Z M4.11764706,18.206073 C4.11764706,18.9508818 3,18.9508818 3,18.206073 C3,17.4612643 4.11764706,17.4612643 4.11764706,18.206073 Z M4.11764706,15.9707526 C4.11764706,16.7155614 3,16.7155614 3,15.9707526 C3,15.2259438 4.11764706,15.2259438 4.11764706,15.9707526 Z M4.11764706,13.7354322 C4.11764706,14.4802409 3,14.4802409 3,13.7354322 C3,12.9906234 4.11764706,12.9906234 4.11764706,13.7354322 Z M4.11764706,11.5001118 C4.11764706,12.2449205 3,12.2449205 3,11.5001118 C3,10.755303 4.11764706,10.755303 4.11764706,11.5001118 Z M6.35294118,11.5001118 C6.35294118,12.2449205 5.23529412,12.2449205 5.23529412,11.5001118 C5.23529412,10.755303 6.35294118,10.755303 6.35294118,11.5001118 Z M8.58823529,11.5001118 C8.58823529,12.2449205 7.47058824,12.2449205 7.47058824,11.5001118 C7.47058824,10.755303 8.58823529,10.755303 8.58823529,11.5001118 Z M10.8235294,11.5001118 C10.8235294,12.2449205 9.70588235,12.2449205 9.70588235,11.5001118 C9.70588235,10.755303 10.8235294,10.755303 10.8235294,11.5001118 Z M13.0588235,11.5001118 C13.0588235,12.2449205 11.9411765,12.2449205 11.9411765,11.5001118 C11.9411765,10.755303 13.0588235,10.755303 13.0588235,11.5001118 Z M15.2941176,11.5001118 C15.2941176,12.2449205 14.1764706,12.2449205 14.1764706,11.5001118 C14.1764706,10.755303 15.2941176,10.755303 15.2941176,11.5001118 Z M17.5294118,11.5001118 C17.5294118,12.2449205 16.4117647,12.2449205 16.4117647,11.5001118 C16.4117647,10.755303 17.5294118,10.755303 17.5294118,11.5001118 Z M19.7647059,11.5001118 C19.7647059,12.2449205 18.6470588,12.2449205 18.6470588,11.5001118 C18.6470588,10.755303 19.7647059,10.755303 19.7647059,11.5001118 Z M4.11764706,9.26479135 C4.11764706,10.0096001 3,10.0096001 3,9.26479135 C3,8.51998259 4.11764706,8.51998259 4.11764706,9.26479135 Z M4.11764706,7.02947093 C4.11764706,7.7742797 3,7.7742797 3,7.02947093 C3,6.28466217 4.11764706,6.28466217 4.11764706,7.02947093 Z M4.11764706,4.79415052 C4.11764706,5.53895928 3,5.53895928 3,4.79415052 C3,4.04934176 4.11764706,4.04934176 4.11764706,4.79415052 Z M21.4411765,2 C21.75376,2 22,2.2462429 22,2.5588301 C22,2.87141731 21.75376,3.11766021 21.4411765,3.11766021 L3.55882353,3.11766021 C3.24624,3.11766021 3,2.87141731 3,2.5588301 C3,2.2462429 3.24624,2 3.55882353,2 L21.4411765,2 Z" id="Combined-Shape" stroke="#000000" stroke-width="0.2" fill="#000000"></path>
    </g>
</svg>