<?xml version="1.0" encoding="UTF-8"?>
<svg width="24px" height="24px" viewBox="0 0 24 24" version="1.1" xmlns="http://www.w3.org/2000/svg" xmlns:xlink="http://www.w3.org/1999/xlink">
    <!-- Generator: Sketch 56.3 (81716) - https://sketch.com -->
    <title>menu-data-georegions</title>
    <desc>Created with Sketch.</desc>
    <g id="menu-data-georegions" stroke="none" stroke-width="1" fill="none" fill-rule="evenodd">
        <path d="M12.1248632,21 C11.9422854,21 11.7784172,20.8947904 11.710724,20.734024 L9.26246,14.900394 C8.0422952,14.3945355 7.001156,13.5789606 6.244196,12.5345353 C5.4301676,11.4134242 5,10.0986489 5,8.73343207 C5,5.02088696 8.19656,2 12.125,2 C16.05344,2 19.25,5.02088696 19.25,8.73343207 C19.25,10.0986273 18.8198324,11.4134458 18.0066932,12.5345353 C17.2487756,13.5790684 16.2085256,14.3946432 14.9884292,14.900394 L12.5392532,20.734024 C12.4715646,20.8947839 12.3076964,21 12.125114,21 L12.1248632,21 Z M12.1248632,2.84171133 C8.6870792,2.84171133 5.8904312,5.48466422 5.8904312,8.73351826 C5.8904312,11.141609 7.4151812,13.2835946 9.7753232,14.1917999 C9.88754252,14.2347258 9.97660388,14.3197351 10.02113,14.4266189 L12.1247948,19.4380161 L14.2284596,14.4266189 C14.2729903,14.3197265 14.3620539,14.2355575 14.4742664,14.1917999 C16.8345224,13.2836377 18.3591584,11.141609 18.3591584,8.73351826 C18.3591584,5.48466422 15.5625104,2.84171133 12.1247264,2.84171133 L12.1248632,2.84171133 Z M12.125,13 C9.8802712,13 8.05357143,11.2053248 8.05357143,9 C8.05357143,6.79467516 9.88029436,5 12.125,5 C14.3697056,5 16.1964286,6.79467516 16.1964286,9 C16.1964286,11.2053248 14.3697056,13 12.125,13 Z M12.125,5.88883832 C10.3787884,5.88883832 8.95828186,7.28440096 8.95828186,9 C8.95828186,10.7155763 10.3787653,12.1111617 12.125,12.1111617 C13.8712347,12.1111617 15.2917181,10.715599 15.2917181,9 C15.2917181,7.28442371 13.8712347,5.88883832 12.125,5.88883832 Z" id="Geo.Regions" fill="#000000"></path>
    </g>
</svg>