<?xml version="1.0" encoding="UTF-8"?>
<svg width="24px" height="24px" viewBox="0 0 24 24" version="1.1" xmlns="http://www.w3.org/2000/svg" xmlns:xlink="http://www.w3.org/1999/xlink">
    <!-- Generator: Sketch 56.3 (81716) - https://sketch.com -->
    <title>menu-data-trees</title>
    <desc>Created with Sketch.</desc>
    <g id="menu-data-trees" stroke="none" stroke-width="1" fill="none" fill-rule="evenodd">
        <path d="M11.7885625,12.3284978 L9.08378393,9.61624382 C8.65959072,9.19902963 9.29626767,8.57282756 9.72046088,8.99004175 L11.7885818,11.0761127 L11.7885818,6.48607118 C11.7885818,5.91193997 12.6898908,5.91193997 12.6898908,6.48607118 L12.6898908,9.30246692 L14.8108568,7.2683716 C15.23505,6.8511574 15.871727,7.47735947 15.4475338,7.89457367 L12.6899101,10.554852 L12.6899101,15.4059142 C16.0313463,15.1448745 18.6294667,12.4326396 18.6294667,9.14693973 C18.6294667,5.70436097 15.7659593,2.88796523 12.2657943,2.88796523 C8.76562934,2.88796523 5.90212194,5.70436097 5.90212194,9.14693973 C5.90212194,12.4334011 8.50101671,15.1456551 11.7886399,15.4059142 L11.7885625,12.3284978 Z M12.6898714,16.2923564 L12.6898714,20.5694016 C12.6898714,21.1435328 11.7885625,21.1435328 11.7885625,20.5694016 L11.7885625,16.2923564 C8.02301055,16.0313167 5,12.9539193 5,9.14617818 C5,5.18231966 8.23477808,2 12.2657169,2 C16.2958815,2 19.5314338,5.18155811 19.5314338,9.14617818 C19.5314338,12.9539193 16.5084233,16.0313357 12.6898327,16.2923564 L12.6898714,16.2923564 Z" id="trees" fill="#000000"></path>
    </g>
</svg>