<?xml version="1.0" encoding="UTF-8"?>
<svg width="24px" height="24px" viewBox="0 0 24 24" version="1.1" xmlns="http://www.w3.org/2000/svg" xmlns:xlink="http://www.w3.org/1999/xlink">
    <!-- Generator: Sketch 56.3 (81716) - https://sketch.com -->
    <title>menu-support-statistics-serverstatistics</title>
    <desc>Created with Sketch.</desc>
    <g id="menu-support-statistics-serverstatistics" stroke="none" stroke-width="1" fill="none" fill-rule="evenodd">
        <path d="M2.90770245,2 L20.094318,2 C20.5880078,2 21.0010962,2.4004715 21.0010962,2.90508022 L21.0010962,7.12408793 C21.0010962,7.62867515 20.5880078,8.02916815 20.094318,8.02916815 L2.90770245,8.02916815 C2.41317431,8.02916815 2.00092423,7.61945433 2.00092423,7.12408793 L2.00092423,2.90508022 C2.00092423,2.41057357 2.41317431,2 2.90770245,2 Z M2.90770245,2.8597499 C2.87411847,2.8597499 2.86068488,2.8740239 2.86068488,2.90508881 L2.86068488,7.12409653 C2.86068488,7.1551623 2.87411847,7.16943544 2.90770245,7.16943544 L20.094318,7.16943544 C20.1119493,7.16943544 20.1413355,7.14592558 20.1413355,7.12409653 L20.1413355,2.90508881 C20.1413355,2.88325976 20.1119495,2.8597499 20.094318,2.8597499 L2.90770245,2.8597499 Z M2.81355984,14.9616325 L20.1882456,14.9616325 C20.640775,14.9616325 21.0009672,15.3302073 21.0009672,15.7735159 L21.0009672,20.1881167 C21.0009672,20.6305655 20.6298777,21 20.1882456,21 L2.81355984,21 C2.37278756,21 2.00083826,20.630587 2.00083826,20.1881167 L2.00083826,15.7735159 C2.00083826,15.3302073 2.36100898,14.9616325 2.81355984,14.9616325 Z M2.86057741,15.8213824 L2.86057741,20.1394763 L20.1419803,20.1394763 L20.1419803,15.8213824 L2.86057741,15.8213824 Z M2.8219639,8.51028419 L20.1706423,8.51028419 C20.6231931,8.51028419 21.0010102,8.87718246 21.0010102,9.33057158 L21.0010102,13.719165 C21.0010102,14.1725541 20.6231931,14.5394523 20.1706423,14.5394523 L2.8219639,14.5394523 C2.36857478,14.5394523 2,14.1725541 2,13.719165 L2,9.33057158 C2,8.87718246 2.36941304,8.51028419 2.8219639,8.51028419 Z M2.8597456,9.3700341 L2.8597456,13.6797454 L20.1411485,13.6797454 L20.1411485,9.3700341 L2.8597456,9.3700341 Z M17.8372595,3.90933259 C18.4392564,3.90933259 18.9396523,4.40805201 18.9396523,5.01004889 C18.9396523,5.61204577 18.4459625,6.11916926 17.8372595,6.11916926 C17.2293948,6.11916926 16.7348667,5.61204577 16.7348667,5.01004889 C16.7348667,4.40721375 17.2352626,3.90933259 17.8372595,3.90933259 Z M17.8372595,4.76908249 C17.6903304,4.76908249 17.5946166,4.8656367 17.5946166,5.01004889 C17.5946166,5.15530794 17.696209,5.25941935 17.8372595,5.25941935 C17.9783101,5.25941935 18.0799024,5.15445893 18.0799024,5.01004889 C18.0799024,4.8647963 17.985029,4.76908249 17.8372595,4.76908249 Z M17.8372595,10.4204335 C18.4451242,10.4204335 18.9396523,10.927557 18.9396523,11.5295539 C18.9396523,12.129036 18.4459625,12.6302702 17.8372595,12.6302702 C17.2293948,12.6302702 16.7348667,12.1281978 16.7348667,11.5295539 C16.7348667,10.9267188 17.2285566,10.4204335 17.8372595,10.4204335 Z M17.8372595,11.2801834 C17.696209,11.2801834 17.5946166,11.3851417 17.5946166,11.5295539 C17.5946166,11.6605325 17.696209,11.7705203 17.8372595,11.7705203 C17.9783101,11.7705203 18.0799024,11.6605325 18.0799024,11.5295539 C18.0799024,11.3842949 17.9783122,11.2801834 17.8372595,11.2801834 Z M17.8372595,16.8801644 C18.4392564,16.8801644 18.9396523,17.3788839 18.9396523,17.9808807 C18.9396523,18.5828776 18.4459625,19.0900011 17.8372595,19.0900011 C17.2293948,19.0900011 16.7348667,18.5828776 16.7348667,17.9808807 C16.7348667,17.3780456 17.2352626,16.8801644 17.8372595,16.8801644 Z M17.8372595,17.7399143 C17.6903304,17.7399143 17.5946166,17.8364686 17.5946166,17.9808807 C17.5946166,18.1261398 17.696209,18.2302512 17.8372595,18.2302512 C17.9783101,18.2302512 18.0799024,18.1252929 18.0799024,17.9808807 C18.0799024,17.8356281 17.985029,17.7399143 17.8372595,17.7399143 Z" id="Combined-Shape" fill="#000000"></path>
    </g>
</svg>