<?xml version="1.0" encoding="UTF-8"?>
<svg width="24px" height="24px" viewBox="0 0 24 24" version="1.1" xmlns="http://www.w3.org/2000/svg" xmlns:xlink="http://www.w3.org/1999/xlink">
    <!-- Generator: Sketch 56.3 (81716) - https://sketch.com -->
    <title>menu-data-warehouses</title>
    <desc>Created with Sketch.</desc>
    <g id="menu-data-warehouses" stroke="none" stroke-width="1" fill="none" fill-rule="evenodd">
        <path d="M19.4091224,3.3289014 L19.4091762,3.32886303 C19.5883808,3.40606961 19.6961852,3.61666094 19.6247815,3.82801972 C19.5526682,4.01988116 19.3559693,4.13455135 19.1585536,4.05810456 L18.4417211,3.73208708 L14.2120505,17.9878687 C14.5886743,18.2951601 14.839279,18.7935494 14.839279,19.3309256 C14.839279,20.2520324 14.140654,21 13.2803115,21 C12.4199691,21 11.721344,20.2520324 11.721344,19.3309256 L4.24854372,16.7789256 C4.05113162,16.7212126 3.96152755,16.4911277 4.01542977,16.2992624 C4.06933558,16.0879075 4.28424198,15.9919749 4.46345013,16.0496841 L11.8830256,18.5821138 C12.1343471,18.0447376 12.6719715,17.661007 13.2809925,17.661007 C13.352389,17.661007 13.4419931,17.661007 13.5315972,17.6804929 L17.850155,3.21346758 C17.8858532,3.09880505 17.9754645,2.98338658 18.0832689,2.94516318 C18.1903637,2.90619151 18.3156732,2.88745394 18.4234777,2.92567734 L19.4091224,3.3289014 Z M13.2803832,20.251994 C13.7465932,20.251994 14.1225181,19.84877 14.1225181,19.3503808 C14.1225181,18.8519915 13.7466111,18.4487675 13.2803832,18.4487675 C12.8148721,18.4487675 12.4382483,18.8512241 12.4382483,19.3503808 C12.4382483,19.84877 12.8141553,20.251994 13.2803832,20.251994 Z M6.90869172,15.6847551 C6.41318754,15.5154181 6.13053917,14.950019 6.27151837,14.4030331 L7.84576963,9.05096533 C8.00541679,8.52310497 8.5361587,8.22126478 9.04892614,8.37218488 L14.0557684,10.0308396 C14.5512725,10.2009117 14.8346109,10.7663108 14.6929417,11.3125617 L13.1186904,16.6646294 C12.9949922,17.0982528 12.605923,17.3809524 12.1988793,17.3809524 C12.1104224,17.3809524 12.0039909,17.3625468 11.9155339,17.3434061 L6.90869172,15.6847514 Z M6.94393652,14.6106439 C6.90868465,14.7424195 6.97918132,14.8933472 7.10288311,14.9500341 L12.126886,16.6270832 C12.2505842,16.665372 12.3922605,16.5895369 12.4454726,16.4577574 L14.0197239,11.1056897 C14.0556657,10.973914 13.9844791,10.8229864 13.8607773,10.7662995 L8.83677445,9.08925038 C8.7130762,9.05096156 8.57139996,9.12679665 8.51818778,9.2585761 L6.94393652,14.6106439 Z M9.15718821,10.8186566 L9.15718126,10.818667 C8.98341437,10.7484978 8.87888524,10.557035 8.9311498,10.3832967 C8.98341784,10.208873 9.19179493,10.1039488 9.36555836,10.1564109 L12.7016423,11.2724212 C12.8754092,11.3419102 12.9799383,11.5340515 12.9276737,11.7084717 C12.8930601,11.8651708 12.7539173,11.952381 12.5978012,11.952381 C12.5625064,11.952381 12.5278893,11.952381 12.4932721,11.9346668 L9.15718821,10.8186566 Z M10.4848932,7.965543 L10.4849108,7.9655544 C10.2392115,7.88985721 10.0456636,7.69990193 9.92281039,7.47210755 C9.79995722,7.22501372 9.78279833,6.95862043 9.85280436,6.69298696 L10.9948563,2.72330143 C11.1534083,2.19127087 11.6805092,1.88704608 12.189759,2.03915848 L15.844501,3.273127 C16.0902003,3.34956501 16.2837482,3.53952029 16.4066014,3.76731467 C16.5294545,4.0144085 16.5466134,4.28080179 16.4766074,4.54643526 L15.3352407,8.51612079 C15.2645389,8.78175426 15.0888386,8.9910052 14.8781388,9.12382574 C14.7195868,9.20025235 14.578893,9.23809524 14.4210368,9.23809524 C14.3331867,9.23809524 14.2274854,9.21954421 14.1396352,9.20025235 L10.4848932,7.965543 Z M10.520578,6.90148948 C10.5027338,6.97792369 10.5027338,7.03505844 10.5384221,7.11148504 C10.5734251,7.1686198 10.6262722,7.22501372 10.6791194,7.24430558 L14.3509043,8.47901493 C14.4216026,8.49756596 14.4744497,8.49756596 14.5444558,8.45972307 C14.5973029,8.42188018 14.6494648,8.36474543 14.6673089,8.30761068 L15.8093609,4.33792514 C15.8265198,4.26149094 15.8265198,4.20435619 15.7915168,4.1286704 C15.7565138,4.05298462 15.7036666,4.01514173 15.6508195,3.99584987 L11.9790346,2.76114052 C11.8561849,2.72254921 11.7154806,2.79898341 11.6626334,2.93180395 L10.5205815,6.90148948 Z M12.323455,4.4384403 C12.1039204,4.38972073 12.004275,4.19548869 12.0642177,4.03415532 C12.1241643,3.85573609 12.3631537,3.77475276 12.5624444,3.82346909 L13.5588979,4.08287489 C13.7784326,4.13159446 13.8780779,4.32582488 13.8181352,4.48779154 C13.7589858,4.63330239 13.5993898,4.71428571 13.4398018,4.71428571 C13.3993219,4.71428571 13.3596192,4.71428571 13.3199165,4.69783638 L12.323463,4.43843058 Z" id="Combined-Shape" fill="#000000"></path>
    </g>
</svg>