<svg xmlns="http://www.w3.org/2000/svg" width="24" height="24" viewBox="0 0 24 24">
    <g fill="none" fill-rule="evenodd">
        <g fill="#4A4A4A">
            <g>
                <g>
                    <path d="M13.92 3c.698 0 1.354.333 1.786.896l.103.145.044.071 1.703.001c.486 0 .956.161 1.345.454l.141.116.133.128c.338.351.559.8.637 1.29l.023.185.008.202v13.138c0 .628-.24 1.231-.668 1.676-.337.352-.772.584-1.245.666l-.179.023-.195.009H7.287c-.608 0-1.19-.251-1.619-.698-.337-.35-.559-.8-.637-1.29l-.023-.184L5 19.626V6.488c0-1.193.85-2.19 1.974-2.352l.155-.017.158-.006H8.99l.047-.076c.32-.49.805-.834 1.358-.972l.187-.038.173-.02.17-.007h2.994zm2.285 2.299l.001.52c0 .157-.06.307-.166.418-.06.063-.133.11-.22.141l-.09.025-.1.01H9.214c-.154 0-.301-.064-.41-.176-.06-.062-.105-.137-.134-.224l-.023-.092-.009-.101.002-.521H7.287c-.546 0-1.01.406-1.113.949l-.017.118-.006.122v13.138c0 .573.39 1.056.907 1.165l.113.017.116.006h10.27c.545 0 1.009-.406 1.113-.948l.017-.119.005-.121V6.488c0-.574-.39-1.057-.907-1.165l-.112-.018-.117-.006h-1.35zm.346 5.122c.179.158.223.4.114.609l-.048.076-.066.07-5.02 4.442c-.107.095-.25.147-.398.147-.083 0-.164-.016-.244-.05l-.079-.041-.076-.056-2.442-2.162c-.233-.206-.233-.548 0-.754.168-.149.414-.187.63-.102l.09.044.079.058 2.042 1.807 4.62-4.088c.222-.196.576-.196.798 0zM13.92 4.186h-2.995c-.546 0-1.01.406-1.113.948l-.014.092h5.248l-.013-.091c-.098-.504-.501-.89-.997-.943l-.116-.006z" transform="translate(-520 -20) translate(34 7) translate(486 13)"/>
                </g>
            </g>
        </g>
    </g>
</svg>
