<?xml version="1.0" encoding="UTF-8"?>
<svg width="24px" height="24px" viewBox="0 0 24 24" version="1.1" xmlns="http://www.w3.org/2000/svg" xmlns:xlink="http://www.w3.org/1999/xlink">
    <!-- Generator: Sketch 56.3 (81716) - https://sketch.com -->
    <title>menu-support-cmm</title>
    <desc>Created with Sketch.</desc>
    <g id="menu-support-cmm" stroke="none" stroke-width="1" fill="none" fill-rule="evenodd">
        <path d="M22,9.74067402 L21.9997973,9.74078661 C21.9997973,12.7668431 19.846487,15.3704496 16.9331847,15.9334159 L16.9331847,17.4815732 C16.9331847,17.9037979 16.6798541,18.1852811 16.2998581,18.1852811 C15.9198622,18.1852811 15.6665316,17.9037979 15.6665316,17.4815732 L15.6665316,16.0741575 L13.1332252,16.0741575 L13.1332252,17.4815732 C13.1332252,17.9037979 12.8798946,18.1852811 12.4998987,18.1852811 C12.1199027,18.1852811 11.8665721,17.9037979 11.8665721,17.4815732 L11.8665721,16.0741575 L9.33326578,16.0741575 L9.33326578,17.4815732 C9.33326578,17.9037979 9.07993515,18.1852811 8.6999392,18.1852811 C8.31994325,18.1852811 8.06661262,17.9037979 8.06661262,17.4815732 L8.06661262,16.0741575 L7.43328604,16.0741575 C4.96331239,16.0741575 3,13.8927757 3,11.1482024 C3,9.74078661 3.50666126,8.54448323 4.32998581,7.62966299 C4.26665316,7.41855063 4.26665316,7.13706748 4.26665316,6.92595512 C4.26665316,4.18149441 6.22986421,2 8.6999392,2 C10.219923,2 11.6766754,2.91470764 12.4366673,4.32212339 C13.3867585,3.75915709 14.5267464,3.40730315 15.6667342,3.40730315 C19.1501317,3.40730315 22,6.22213465 22,9.74067402 Z M8.70014187,3.40730315 L8.7002432,3.40719056 C7.05359409,3.40719056 5.66027562,4.88508969 5.53361031,6.71473016 C6.10360423,6.36287622 6.73693081,6.22213465 7.43359004,6.22213465 C8.32024725,6.22213465 9.20690446,6.5036178 9.96689635,7.0665841 C10.2835596,6.29250544 10.7902209,5.65916835 11.4235475,5.09620205 C10.8534522,4.04064024 9.84012971,3.40730315 8.70014187,3.40730315 Z M15.6667342,14.6666291 L15.6666329,14.6667417 C18.4532698,14.6667417 20.7332455,12.4147639 20.7332455,9.67030323 C20.7332455,6.92584252 18.4532698,4.74434811 15.6666329,4.74434811 C13.3866572,4.74434811 11.3601135,6.29250544 10.7901196,8.40362906 C10.7267869,8.68511221 10.5367889,8.82585378 10.346791,8.89622457 C10.0934603,8.96659536 9.84012971,8.89622457 9.71346439,8.68511221 C9.14347047,7.98140433 8.32014592,7.6295504 7.43348871,7.6295504 C5.66017429,7.6295504 4.26685582,9.17770772 4.26685582,11.1480898 C4.26685582,13.1184718 5.66017429,14.6666291 7.43348871,14.6666291 L15.6667342,14.6666291 Z M12.5001013,18.8888764 C12.8800973,18.8888764 13.1334279,19.1703595 13.1334279,19.5925843 L13.1334279,20.2962921 C13.1334279,20.7185169 12.8800973,21 12.5001013,21 C12.1201054,21 11.8667748,20.7185169 11.8667748,20.2962921 L11.8667748,19.5925843 C11.8667748,19.1703595 12.1201054,18.8888764 12.5001013,18.8888764 Z M8.70014187,18.8888764 C9.08013781,18.8888764 9.33346844,19.1703595 9.33346844,19.5925843 L9.33346844,20.2962921 C9.33346844,20.7185169 9.08013781,21 8.70014187,21 C8.32014592,21 8.06681529,20.7185169 8.06681529,20.2962921 L8.06681529,19.5925843 C8.06681529,19.1703595 8.32014592,18.8888764 8.70014187,18.8888764 Z M16.3000608,18.8888764 C16.6800567,18.8888764 16.9333874,19.1703595 16.9333874,19.5925843 L16.9333874,20.2962921 C16.9333874,20.7185169 16.6800567,21 16.3000608,21 C15.9200649,21 15.6667342,20.7185169 15.6667342,20.2962921 L15.6667342,19.5925843 C15.6667342,19.1703595 15.9200649,18.8888764 16.3000608,18.8888764 Z" id="Meteorology" fill="#000000"></path>
    </g>
</svg>