<svg xmlns="http://www.w3.org/2000/svg" width="24" height="24" viewBox="0 0 24 24">
    <g fill="none" fill-rule="evenodd">
        <g fill="#4A4A4A">
            <g>
                <g>
                    <path d="M17.617 18.682l2.63 2.63-.746.33c-1.573.695-3.43.365-4.667-.872-1.07-1.068-1.465-2.605-1.095-4.028l-5.48-5.48c-1.423.37-2.96-.026-4.03-1.095-1.236-1.237-1.566-3.093-.87-4.668l.33-.745.576.576 2.053 2.053c.294.295.77.295 1.065 0 .294-.294.294-.771 0-1.065l-2.63-2.63.746-.33c1.574-.695 3.431-.365 4.667.872 1.07 1.069 1.465 2.605 1.095 4.028l5.48 5.481c1.423-.37 2.96.026 4.03 1.094 1.236 1.237 1.566 3.094.87 4.668l-.33.746-2.629-2.63c-.294-.294-.771-.294-1.066 0-.294.295-.294.772 0 1.065zm-.79.791c-.731-.73-.732-1.915-.002-2.646.732-.731 1.916-.731 2.647 0l1.383 1.383c.124-.93-.18-1.892-.875-2.586-.848-.849-2.098-1.12-3.21-.726l-.332.118-6.454-6.454.117-.332c.394-1.113.124-2.362-.725-3.21-.694-.695-1.655-1-2.586-.875l1.384 1.383c.73.73.73 1.915 0 2.645-.732.731-1.917.731-2.646 0L4.145 6.79c-.124.931.18 1.892.875 2.587.848.848 2.098 1.119 3.21.725l.332-.118 6.454 6.454-.117.333c-.394 1.112-.124 2.361.725 3.21.694.693 1.655.998 2.586.875l-1.383-1.383z" transform="translate(-660 -20) translate(34 7) translate(626 13)"/>
                </g>
            </g>
        </g>
    </g>
</svg>
