<?xml version="1.0" encoding="UTF-8"?>
<svg width="24px" height="24px" viewBox="0 0 24 24" version="1.1" xmlns="http://www.w3.org/2000/svg" xmlns:xlink="http://www.w3.org/1999/xlink">
    <!-- Generator: Sketch 56.3 (81716) - https://sketch.com -->
    <title>menu-data-weather-forecast-stations</title>
    <desc>Created with Sketch.</desc>
    <g id="menu-data-weather-forecast-stations" stroke="none" stroke-width="1" fill="none" fill-rule="evenodd">
        <path d="M15.2742396,2.0002494 L15.2744821,2 C18.8809296,2 21.7912088,4.79743054 21.7912088,8.26403481 C21.7912088,11.7306391 18.8808083,14.5280696 15.2744821,14.5280696 L7.21253339,14.5565217 C4.87899964,14.5565217 3,12.7220627 3,10.5073331 C3,8.26428421 4.8788784,6.45814446 7.21253339,6.45814446 C7.81874052,6.45814446 8.39415233,6.57422431 8.93998124,6.80753192 C9.63590703,4.01010138 12.2122874,2.0002494 15.2742396,2.0002494 Z M15.2742396,13.3629172 L15.2739911,13.3629172 C18.1842703,13.3629172 20.5783035,11.0616565 20.5783035,8.26422594 C20.5783035,5.46679539 18.1842703,3.16559295 15.2739911,3.16559295 C12.5153849,3.16559295 10.242102,5.1470674 9.99938277,7.76922151 L9.90821528,8.81854931 L9.0296999,8.17781139 C8.48387099,7.79882854 7.87766385,7.59511048 7.21107849,7.59511048 C5.54400887,7.59511048 4.21083813,8.87658632 4.21083813,10.4790138 C4.21083813,12.0814413 5.57480419,13.3629172 7.21107849,13.3629172 L15.2742396,13.3629172 Z M20.2637076,13.8956522 L20.2637129,13.895685 C21.0596822,13.895685 21.7229783,14.5865031 21.6970679,15.4798659 C21.6970679,16.2573242 21.1923172,16.9200188 20.4761571,17.0347826 L19.9185541,17.0347826 L17,17.0347826 L17,15.8826511 L19.9185541,15.8837761 L20.3434956,15.8837761 C20.5290095,15.8264 20.661671,15.6531251 20.661671,15.4517268 C20.661671,15.2210758 20.4761518,15.0196775 20.2636864,15.0196775 C20.105124,15.0196775 19.9455162,15.1918174 19.8926586,15.3650865 C19.8657123,15.4224684 19.8657123,15.3077046 19.8657123,15.5957375 L18.8044199,15.5957375 C18.8044199,15.3077046 18.8303314,15.1344298 18.9101353,14.9330314 C19.122606,14.3277015 19.6532522,13.8956522 20.2637076,13.8956522 Z M19.944017,17.8608696 L19.9440461,17.8608696 C20.8155471,17.8608696 21.6870354,18.5554549 21.6586663,19.429933 C21.6586663,20.3054404 20.8155181,21 19.8282817,21 C18.8693981,21 18.0557647,20.4341007 18.0557647,19.4048185 L19.2177661,19.4048185 C19.2177661,19.6621391 19.5082665,19.9707163 19.8566345,19.9717214 C20.2050025,19.9717214 20.5250177,19.7395153 20.5250177,19.4309366 C20.5250177,19.1213388 20.2345174,18.8901517 19.944017,18.8901517 L6,18.8901517 L6,17.8608696 L19.944017,17.8608696 Z" id="Combined-Shape" fill="#000000"></path>
    </g>
</svg>