<svg xmlns="http://www.w3.org/2000/svg" width="30" height="30" viewBox="0 0 30 30">
    <path fill="#A2A2A2" d="M24.53 9.13c.626-.627.623-1.646 0-2.269l-.141-.141c-.626-.626-1.64-.627-2.268 0l-6.21 6.21c-.159.159-.411.16-.571 0L9.13 6.72c-.627-.626-1.646-.623-2.269 0l-.141.141c-.626.626-.627 1.64 0 2.268l6.21 6.21c.159.159.16.411 0 .571l-6.21 6.21c-.626.627-.623 1.646 0 2.269l.141.141c.626.626 1.64.627 2.268 0l6.21-6.21c.159-.159.411-.16.571 0l6.21 6.21c.627.626 1.646.623 2.269 0l.141-.141c.626-.626.627-1.64 0-2.268l-6.21-6.21c-.159-.159-.16-.411 0-.571l6.21-6.21z"/>
</svg>
