<?xml version="1.0" encoding="UTF-8"?>
<svg width="25px" height="25px" viewBox="0 0 25 25" version="1.1" xmlns="http://www.w3.org/2000/svg" xmlns:xlink="http://www.w3.org/1999/xlink">
    <!-- Generator: Sketch 62 (91390) - https://sketch.com -->
    <title>icons/General/notice blue circle</title>
    <desc>Created with Sketch.</desc>
    <g id="icons/General/notice-blue-circle" stroke="none" stroke-width="1" fill="none" fill-rule="evenodd">
        <path d="M12.418919,1 C18.7155186,1 23.837838,6.12231945 23.837838,12.4191266 C23.837838,18.7155186 18.7155186,23.837838 12.418919,23.837838 C6.12252706,23.837838 1,18.7155186 1,12.418919 C1,6.12252706 6.12252706,1 12.418919,1 Z M12.418919,2.38999387 C6.88884034,2.39020148 2.39020148,6.88884034 2.39020148,12.418919 C2.39020148,17.9485824 6.88904795,22.4476365 12.418919,22.4478441 C17.94879,22.4480517 22.4478441,17.9489977 22.4478441,12.418919 C22.4478441,6.88884034 17.94879,2.38999387 12.418919,2.38999387 Z M12.5766531,15.5556162 C13.3676606,15.5556162 13.9881596,16.1771995 13.9881596,16.9671227 C13.9881596,17.757073 13.3676335,18.3786293 12.5766531,18.3786293 C11.7856456,18.3786293 11.1651465,17.7570459 11.1651465,16.9671227 C11.1651465,16.1761152 11.7867299,15.5556162 12.5766531,15.5556162 Z M12.5766531,5.61461976 C13.1982365,5.61461976 13.7065089,6.12289224 13.7065089,6.74447559 L13.7065089,13.2387069 C13.7065089,13.8602903 13.1982365,14.3685627 12.5766531,14.3685627 C11.9550697,14.3685627 11.4467973,13.8602903 11.4467973,13.2387069 L11.4467973,6.74447559 C11.4467973,6.12289224 11.9550697,5.61461976 12.5766531,5.61461976 Z" id="Combined-Shape" fill="#4685FF"></path>
    </g>
</svg>