<svg xmlns="http://www.w3.org/2000/svg" width="19" height="19" viewBox="0 0 19 19">
    <g fill="none" fill-rule="evenodd">
        <g fill="#4A4A4A">
            <g>
                <g>
                    <path d="M19 13.623c0 1.187-.983 2.15-2.197 2.15H2.197C.983 15.774 0 14.813 0 13.624c0-1.188.982-2.151 2.194-2.151-.002 0-.002-4.302-.002-4.302C2.192 3.208 5.464 0 9.5 0s7.308 3.21 7.308 7.17v4.302c1.207 0 2.192.963 2.192 2.15zm-2.194-.717c-.806 0-1.46-.64-1.46-1.434V7.17c0-3.168-2.616-5.736-5.846-5.736S3.654 4.001 3.654 7.17v4.302c0 .79-.655 1.434-1.46 1.434-.404 0-.732.322-.732.717 0 .396.328.717.735.717h14.607c.405 0 .735-.322.735-.717 0-.395-.33-.717-.733-.717zM6.212 15.774h1.461c0 .99.818 1.792 1.827 1.792 1.01 0 1.827-.802 1.827-1.792h1.462c0 1.78-1.473 3.226-3.289 3.226-1.815 0-3.288-1.445-3.288-3.226z" transform="translate(-1497 -36) translate(1497 28) translate(0 8)"/>
                </g>
            </g>
        </g>
    </g>
</svg>
