<?xml version="1.0" encoding="UTF-8" standalone="no"?>
<svg
   xmlns:dc="http://purl.org/dc/elements/1.1/"
   xmlns:cc="http://creativecommons.org/ns#"
   xmlns:rdf="http://www.w3.org/1999/02/22-rdf-syntax-ns#"
   xmlns:svg="http://www.w3.org/2000/svg"
   xmlns="http://www.w3.org/2000/svg"
   xmlns:sodipodi="http://sodipodi.sourceforge.net/DTD/sodipodi-0.dtd"
   xmlns:inkscape="http://www.inkscape.org/namespaces/inkscape"
   width="24"
   height="25"
   viewBox="0 0 24 25"
   version="1.1"
   id="svg12"
   sodipodi:docname="notifications-pin.svg"
   inkscape:version="1.0.1 (3bc2e813f5, 2020-09-07)">
  <metadata
     id="metadata18">
    <rdf:RDF>
      <cc:Work
         rdf:about="">
        <dc:format>image/svg+xml</dc:format>
        <dc:type
           rdf:resource="http://purl.org/dc/dcmitype/StillImage" />
        <dc:title></dc:title>
      </cc:Work>
    </rdf:RDF>
  </metadata>
  <defs
     id="defs16" />
  <sodipodi:namedview
     pagecolor="#ffffff"
     bordercolor="#666666"
     borderopacity="1"
     objecttolerance="10"
     gridtolerance="10"
     guidetolerance="10"
     inkscape:pageopacity="0"
     inkscape:pageshadow="2"
     inkscape:window-width="1920"
     inkscape:window-height="1017"
     id="namedview14"
     showgrid="false"
     inkscape:zoom="34"
     inkscape:cx="6.8529412"
     inkscape:cy="12.019062"
     inkscape:window-x="-8"
     inkscape:window-y="-8"
     inkscape:window-maximized="1"
     inkscape:current-layer="svg12" />
  <path
     d="m 18.04092,3.0611822 c -0.698621,-0.6986215 -1.854034,-0.6986215 -2.552655,0 -0.489318,0.4893179 -0.618011,1.1978389 -0.424264,1.8200928 L 11.118345,7.2005853 C 9.8179756,6.8053126 8.5190205,6.8385466 7.6690781,7.6884889 c -0.2644579,0.264458 -0.2644579,0.6929647 0,0.9574226 l 3.8303979,3.8303975 -5.9043421,5.904342 c -0.2580939,0.249608 -0.2637508,0.714885 -0.010607,0.968029 0.2531443,0.253144 0.7177134,0.24678 0.9673221,-0.0099 l 5.9043416,-5.904341 3.82969,3.82969 c 0.264458,0.264458 0.693672,0.263751 0.95813,-7.07e-4 0.849942,-0.849942 0.883884,-2.148191 0.489318,-3.450681 l 2.318603,-3.944949 c 0.622254,0.193747 1.330775,0.065054 1.820093,-0.424264 0.698621,-0.6986215 0.698621,-1.854034 0,-2.5526555 L 18.041628,3.0604751 Z m -0.957422,0.9574226 3.830397,3.8303974 c 0.185262,0.185262 0.184555,0.4532554 0,0.6378103 -0.185262,0.185262 -0.453962,0.185262 -0.638517,7.071e-4 -0.148493,-0.1484924 -0.356382,-0.2192031 -0.564271,-0.192333 -0.207183,0.024749 -0.39103,0.1463711 -0.497804,0.3266833 l -1.361027,2.3134031 -1.432044,2.434112 c -0.103238,0.173948 -0.12233,0.383959 -0.05445,0.573463 0.252438,0.700743 0.296278,1.265014 0.214254,1.700592 L 9.2890598,8.3524622 c 0.4355777,-0.082024 0.9998492,-0.038184 1.6998842,0.2149605 0.190919,0.067882 0.40093,0.047376 0.574171,-0.055154 L 16.31063,5.7191966 c 0.180312,-0.1067732 0.301935,-0.2906209 0.327391,-0.4970961 0.02687,-0.2078894 -0.04455,-0.4164859 -0.193041,-0.5649783 -0.185262,-0.185262 -0.184554,-0.4532555 7.07e-4,-0.6385174 0.184555,-0.1845549 0.452549,-0.1838478 0.637104,7.071e-4 z"
     id="path2"
     sodipodi:nodetypes="csccssccsccssccsscccssscccccccccccsscc" />
</svg>
