<svg xmlns="http://www.w3.org/2000/svg" width="25" height="25" viewBox="0 0 25 25">
    <g fill="#4A4A4A" fill-rule="evenodd">
        <path stroke="#4A4A4A" stroke-width=".1" d="M12.433 7c5.13 0 9.145 5.415 9.314 5.646.16.218.16.515 0 .734l-.039.052c-.453.603-4.35 5.593-9.275 5.593-5.129 0-9.145-5.415-9.313-5.645-.16-.22-.16-.516 0-.735l.038-.051C3.611 11.99 7.51 7 12.433 7zm0 1.244c-3.786 0-7.051 3.592-8.019 4.768.969 1.175 4.241 4.77 8.02 4.77 3.786 0 7.051-3.593 8.018-4.769-.969-1.176-4.24-4.769-8.019-4.769zm0 1.037c2.058 0 3.732 1.674 3.732 3.732 0 2.057-1.674 3.731-3.732 3.731-2.057 0-3.732-1.674-3.732-3.731 0-2.058 1.675-3.732 3.732-3.732zm0 1.244c-1.372 0-2.488 1.116-2.488 2.488 0 1.371 1.116 2.488 2.488 2.488 1.372 0 2.488-1.117 2.488-2.488 0-1.372-1.116-2.488-2.488-2.488z"/>
        <path fill-rule="nonzero" d="M12.5 0C19.404 0 25 5.596 25 12.5S19.404 25 12.5 25 0 19.404 0 12.5 5.596 0 12.5 0zm0 1.415C6.378 1.415 1.415 6.378 1.415 12.5c0 6.122 4.963 11.085 11.085 11.085 6.122 0 11.085-4.963 11.085-11.085 0-6.122-4.963-11.085-11.085-11.085z"/>
    </g>
</svg>
