<svg xmlns="http://www.w3.org/2000/svg" width="40" height="20"><path fill="#656565" d="M4.345 19.983c2.342 0 4.248-1.889 4.248-4.21a4.14 4.14 0 0 0-.39-1.75l4.092-3.29a4.249 4.249 0 0 0 5.626-.52l3.244 1.74c-.081.325-.13.663-.13 1.012 0 2.322 1.906 4.21 4.248 4.21 2.342 0 4.248-1.888 4.248-4.21a4.14 4.14 0 0 0-.389-1.748l4.09-3.29a4.245 4.245 0 0 0 2.52.828c2.343 0 4.248-1.889 4.248-4.21C40 2.223 38.095.334 35.752.334c-2.342 0-4.248 1.889-4.248 4.21 0 .625.142 1.216.39 1.749l-4.092 3.29a4.248 4.248 0 0 0-5.625.52l-3.244-1.74c.081-.324.129-.662.129-1.011 0-2.322-1.906-4.21-4.248-4.21-2.342 0-4.248 1.888-4.248 4.21 0 .624.142 1.215.389 1.748l-4.09 3.29a4.243 4.243 0 0 0-2.52-.828c-2.343 0-4.248 1.889-4.248 4.21 0 2.322 1.905 4.21 4.248 4.21zM33.628 4.544c0-1.16.953-2.105 2.124-2.105 1.172 0 2.124.944 2.124 2.105a2.117 2.117 0 0 1-2.881 1.965 2.112 2.112 0 0 1-1.367-1.965zM23.16 12.965a2.1 2.1 0 0 1 1.014-1.791 2.122 2.122 0 0 1 3.234 1.791 2.117 2.117 0 0 1-2.124 2.106 2.116 2.116 0 0 1-2.12-2.046c-.001-.02-.004-.04-.004-.06zM12.69 7.351c0-1.16.953-2.105 2.124-2.105 1.151 0 2.089.913 2.12 2.046.002.02.004.039.004.06a2.1 2.1 0 0 1-1.014 1.79 2.122 2.122 0 0 1-3.234-1.79zm-8.345 6.316c.267 0 .522.051.757.14a2.113 2.113 0 0 1 1.367 1.965 2.117 2.117 0 0 1-2.124 2.105 2.117 2.117 0 0 1-2.124-2.105c0-1.161.952-2.105 2.124-2.105z"/></svg>