<svg xmlns="http://www.w3.org/2000/svg" width="19" height="18" viewBox="0 0 19 18">
    <path fill="#4A4A4A" d="M9.199 0c.644 0 1.239.35 1.572.91l7.263 13.445.044.026c.31.52.364 1.154.16 1.716l-.062.15-.074.148c-.329.58-.92.94-1.554.958l-.147-.002H1.963c-.696.034-1.352-.338-1.705-.964-.324-.575-.342-1.28-.058-1.866L7.55 1.047C7.868.405 8.504 0 9.2 0zm-.031 1.438c-.157 0-.303.084-.392.228l-.04.077-7.261 13.343c-.097.177-.097.395-.003.567.084.139.222.229.376.249l.078.004h14.466c.186.009.362-.087.46-.248.08-.146.093-.319.04-.474l-.04-.09L9.593 1.73c-.074-.179-.242-.293-.425-.293zm.167 11.175c.474 0 .858.486.858.88 0 .487-.384.881-.858.881s-.858-.486-.858-.88c0-.487.384-.881.858-.881zm0-6.165c.497.024.88.417.857.88v3.523c.022.463-.36.856-.857.881-.497-.025-.88-.418-.857-.881V7.328c-.023-.463.36-.856.857-.88z"/>
</svg>
