<svg xmlns="http://www.w3.org/2000/svg" width="18" height="16" viewBox="0 0 18 16">
    <path fill="#FFF" d="M10.11 0c2.861.146 5.444 1.696 6.838 4.103 1.394 2.407 1.403 5.336.026 7.751-1.378 2.417-3.95 3.982-6.81 4.146h-.053c-1.64.008-3.247-.455-4.614-1.33-1.366-.874-2.43-2.12-3.056-3.58-.079-.165-.084-.352-.014-.521.07-.168.209-.301.383-.369.366-.144.786.012.953.357.517 1.209 1.396 2.242 2.527 2.967 1.131.725 2.461 1.109 3.82 1.103h.053c2.36-.15 4.477-1.45 5.608-3.447 1.132-1.998 1.123-4.413-.025-6.401-1.149-1.989-3.275-3.274-5.636-3.406h-.08c-1.526.014-3.005.517-4.202 1.43-1.197.911-2.045 2.18-2.41 3.607l1.138-.84c.314-.231.765-.174 1.005.128.241.302.182.735-.132.967l-2.512 1.83c-.136.08-.292.125-.45.128h-.106c-.199-.027-.374-.14-.477-.305L.113 5.825c-.211-.325-.118-.751.211-.967.156-.103.35-.14.536-.101.185.038.345.149.443.305l.714 1.017c.446-1.725 1.475-3.258 2.925-4.358C6.392.621 8.183.015 10.031 0zm.258 2.824c.167 0 .328.071.447.198.118.126.185.299.185.478v4.534c.007.322-.198.605-.491.676l-2.717.702H7.63c-.29-.013-.537-.226-.61-.527-.041-.176-.016-.363.073-.518.088-.156.23-.267.396-.308l2.248-.551V3.5c0-.373.283-.676.632-.676z"/>
</svg>
