<?xml version="1.0" encoding="UTF-8" standalone="no"?>
<svg
   xmlns:dc="http://purl.org/dc/elements/1.1/"
   xmlns:cc="http://creativecommons.org/ns#"
   xmlns:rdf="http://www.w3.org/1999/02/22-rdf-syntax-ns#"
   xmlns:svg="http://www.w3.org/2000/svg"
   xmlns="http://www.w3.org/2000/svg"
   xmlns:sodipodi="http://sodipodi.sourceforge.net/DTD/sodipodi-0.dtd"
   xmlns:inkscape="http://www.inkscape.org/namespaces/inkscape"
   width="30px"
   height="30px"
   viewBox="0 0 30 30"
   version="1.1"
   id="svg9"
   sodipodi:docname="planned.svg"
   inkscape:version="1.0.1 (3bc2e813f5, 2020-09-07)">
  <metadata
     id="metadata15">
    <rdf:RDF>
      <cc:Work
         rdf:about="">
        <dc:format>image/svg+xml</dc:format>
        <dc:type
           rdf:resource="http://purl.org/dc/dcmitype/StillImage" />
      </cc:Work>
    </rdf:RDF>
  </metadata>
  <defs
     id="defs13" />
  <sodipodi:namedview
     pagecolor="#ffffff"
     bordercolor="#666666"
     borderopacity="1"
     objecttolerance="10"
     gridtolerance="10"
     guidetolerance="10"
     inkscape:pageopacity="0"
     inkscape:pageshadow="2"
     inkscape:window-width="1920"
     inkscape:window-height="1017"
     id="namedview11"
     showgrid="false"
     inkscape:zoom="14.166667"
     inkscape:cx="13.914994"
     inkscape:cy="9.670988"
     inkscape:window-x="-8"
     inkscape:window-y="-8"
     inkscape:window-maximized="1"
     inkscape:current-layer="Legend/Future-planned" />
  <!-- Generator: Sketch 58 (84663) - https://sketch.com -->
  <title
     id="title2">Legend/Future planned</title>
  <desc
     id="desc4">Created with Sketch.</desc>
  <g
     id="Legend/Future-planned"
     stroke="none"
     stroke-width="1"
     fill="none"
     fill-rule="evenodd">
    <path
       d="M27.2806895,10.7267232 C27.2753954,10.7002576 27.2683367,10.6773224 27.2577486,10.649092 C26.8201131,9.41224119 26.2007376,8.26893444 25.4277888,7.2349808 L25.4277888,7.23145178 C25.4189656,7.2173366 25.410142,7.20851473 25.3995542,7.19969285 C25.0342715,6.70744582 24.6266506,6.2416224 24.1925162,5.80935922 C23.7495863,5.36649498 23.2890109,4.96949491 22.8143091,4.61663807 L22.8125441,4.61134476 C22.8072505,4.61134476 22.8072505,4.60605146 22.803721,4.60605146 C21.7819919,3.82969415 20.6526102,3.21924098 19.4438104,2.78164791 C19.4349872,2.78164791 19.4208699,2.7763546 19.4120467,2.77282603 C19.3855767,2.76400371 19.362634,2.75871086 19.339694,2.74988853 C17.9526777,2.25231161 16.4932907,2 15.0021454,2 L14.94391,2 C11.9987083,2.01411518 9.12578714,3.03395365 6.81236163,4.90948801 C6.803538,4.91478132 6.79824436,4.91831034 6.79471482,4.92360319 C6.77706845,4.93242551 6.75942164,4.94124739 6.74530211,4.95536256 C6.43472214,5.21296341 6.11709482,5.49702401 5.81003852,5.80931947 C5.4976922,6.12161946 5.21711312,6.43214883 4.95947856,6.7444443 L4.95418447,6.7497376 C4.94889084,6.75503091 4.94536129,6.75855947 4.94536129,6.76385278 C3.05717059,9.05755773 2.01425434,11.9672716 2.00007861,14.9434284 C1.99486557,16.4572981 2.248976,17.9340843 2.75015947,19.3385557 C2.7589831,19.3614928 2.76427674,19.3844289 2.77310037,19.4108977 C2.77839401,19.4197196 2.78192355,19.4338347 2.78192355,19.4426571 C3.21955897,20.6530391 3.83012531,21.7822533 4.60659783,22.8038307 C4.60659783,22.8091236 4.61189192,22.8091236 4.61189192,22.8126526 L4.61718601,22.8179459 C4.97011779,23.2925772 5.36718582,23.7530707 5.81008415,24.1959485 C6.2530141,24.6388128 6.73125305,25.0534286 7.23238231,25.4292762 C8.26648938,26.2020652 9.41348945,26.8160867 10.6522857,27.2589645 C12.0481111,27.7512115 13.5022127,28 14.9845036,28 L15.1521445,28 C18.5667623,27.9647121 21.7802599,26.6131895 24.1962333,24.1959485 C26.6120711,21.7751844 27.9637603,18.56388 27.9990874,15.1482331 C28.0167342,13.6396933 27.7785056,12.154054 27.2808909,10.726637 L27.2806895,10.7267232 Z M5.62818322,7.34788866 L7.31697029,5.65406743 C7.32579347,5.64877413 7.32932301,5.63995226 7.33991074,5.63642324 L7.34873437,5.62760136 C9.18750333,4.12786947 11.4374576,3.20155251 13.7952452,2.96690181 L2.96718507,13.7933554 C3.20188414,11.4272904 4.13361051,9.16357739 5.62827944,7.34780103 L5.62818322,7.34788866 Z M2.90885792,15.1304326 L15.1328339,2.9082703 C16.2569301,2.91709218 17.3598391,3.08470776 18.4221355,3.39523261 L3.39593767,18.4192011 C3.0853577,17.3570171 2.91771228,16.2560333 2.90885792,15.1303874 L2.90885792,15.1304326 Z M3.72232899,19.372032 L19.3747012,3.72202719 C20.2517339,4.05549768 21.0828685,4.49481619 21.8505318,5.02766976 L5.0281653,21.8475404 C4.49875633,21.0800361 4.0611435,20.2489797 3.72232899,19.3720771 L3.72232899,19.372032 Z M6.44522313,23.555409 C6.13464316,23.2395814 5.83996488,22.9131572 5.57347597,22.5796777 L22.5810611,5.57461593 C22.9145811,5.8410382 23.2410266,6.13393828 23.5569372,6.44623375 C23.8781063,6.77088281 24.179859,7.10966964 24.4657281,7.4678112 L7.4667263,24.4624842 C7.11026633,24.1784146 6.76614824,23.8749315 6.44499725,23.5555897 L6.44522313,23.555409 Z M8.20276695,25.0039649 L25.0075603,8.20171006 C25.5369693,8.97449906 25.9692966,9.80027079 26.3081111,10.6859812 L10.6874067,26.3007545 C9.80156488,25.967284 8.97567062,25.5332502 8.20276695,25.0039198 L8.20276695,25.0039649 Z M23.5587894,23.555409 C21.5841333,25.5244875 19.0465481,26.7348696 16.3077071,27.0242194 L27.0277983,16.3057187 C26.7383965,19.0423014 25.5278439,21.5814072 23.5584732,23.5557252 L23.5587894,23.555409 Z M14.956063,27.0912496 C13.8319668,27.0912496 12.7202486,26.9324549 11.6455742,26.621903 L26.6256932,11.6440065 C26.9362732,12.7185215 27.0951095,13.8300747 27.0951095,14.9540042 L14.956063,27.0912496 Z"
       id="Shape"
       fill="#4A4A4A" />
  </g>
</svg>
