<?xml version="1.0" encoding="UTF-8"?>
<svg width="24px" height="24px" viewBox="0 0 24 24" version="1.1" xmlns="http://www.w3.org/2000/svg" xmlns:xlink="http://www.w3.org/1999/xlink">
    <!-- Generator: Sketch 56.3 (81716) - https://sketch.com -->
    <title>plus-button</title>
    <desc>Created with Sketch.</desc>
    <g id="plus-button" stroke="none" stroke-width="1" fill="none" fill-rule="evenodd">
        <path d="M12.5,3 C17.7393387,3 22,7.26066133 22,12.5 C22,17.7393387 17.7393387,22 12.5,22 C7.26066133,22 3,17.7393387 3,12.5 C3,7.26066133 7.26066133,3 12.5,3 Z M12.5,4.26666667 C7.94466133,4.26666667 4.26666667,7.945472 4.26666667,12.5 C4.26666667,17.0553387 7.945472,20.7333333 12.5,20.7333333 C17.0553387,20.7333333 20.7333333,17.054528 20.7333333,12.5 C20.7333333,7.94466133 17.054528,4.26666667 12.5,4.26666667 Z M12.4904747,8.05876267 L12.4904787,8.05875051 C12.6614686,8.05558485 12.8261434,8.12208384 12.9472691,8.2432096 C13.0683949,8.36355307 13.1356869,8.52821163 13.1341035,8.6984192 L13.1341035,11.8667072 L16.3015808,11.8667072 C16.4717803,11.8627471 16.636455,11.9276653 16.7583712,12.0472062 C16.8802874,12.1667593 16.9483712,12.3298249 16.9483712,12.5000446 C16.9483712,12.6702643 16.8802874,12.8333421 16.7583712,12.952883 C16.6364469,13.0724239 16.4717884,13.1373403 16.3015808,13.133382 L13.1341035,13.133382 L13.1341035,16.3008593 C13.1341035,16.6507836 12.849904,16.9341926 12.4999797,16.9341926 C12.1500555,16.9341926 11.8666464,16.6507836 11.8666464,16.3008593 L11.8666464,13.133382 L8.69916907,13.133382 C8.5289696,13.1373421 8.36429483,13.0724239 8.24237867,12.952883 C8.12046048,12.8333299 8.05158624,12.6702643 8.05158624,12.5000446 C8.05158624,12.3298249 8.12046251,12.1667471 8.24237867,12.0472062 C8.36430293,11.9276653 8.52896149,11.8627489 8.69916907,11.8667072 L11.8666464,11.8667072 L11.8666464,8.6984192 C11.8626741,8.350096 12.1421312,8.06351257 12.4904747,8.05876267 Z" id="add" fill="#000000"></path>
    </g>
</svg>