<?xml version="1.0" encoding="UTF-8"?>
<svg width="24px" height="24px" viewBox="0 0 24 24" version="1.1" xmlns="http://www.w3.org/2000/svg" xmlns:xlink="http://www.w3.org/1999/xlink">
    <title>web icons/menu/management/policy</title>
    <g id="web-icons/menu/management/policy" stroke="none" stroke-width="1" fill="none" fill-rule="evenodd">
        <g id="Group-7" transform="translate(2.000000, 3.000000)" fill="#4A4A4A" stroke="#4A4A4A" stroke-width="0.2">
            <g id="Group-6" transform="translate(0.577880, 0.041667)">
                <path d="M16.1100703,10.6139637 C15.8762593,10.6139637 15.6868707,10.8034371 15.6868707,11.0373752 L15.6868707,14.7959421 C15.6860229,15.4969936 15.1179419,16.0652865 14.4168904,16.0659223 L2.53873236,16.0659223 C1.83768087,16.0652865 1.26955745,15.4969936 1.26875208,14.7959421 L1.26875208,3.76456471 C1.26955745,3.06351322 1.83768087,2.49543219 2.53873236,2.49458443 L6.29742636,2.49458443 C6.53127975,2.49458443 6.72066835,2.30502628 6.72066835,2.0711729 C6.72066835,1.83757384 6.53127975,1.64784614 6.29742636,1.64784614 L2.53873236,1.64784614 C1.37039798,1.64911777 0.423412587,2.59610317 0.422140954,3.76456471 L0.422140954,14.7961116 C0.423412587,15.9646156 1.37039798,16.911389 2.53873236,16.9127454 L14.4168904,16.9127454 C15.5853519,16.911389 16.5321254,15.9646156 16.5334394,14.7961116 L16.5334394,11.0373752 C16.5334394,10.8034371 16.3440508,10.6139637 16.1100703,10.6139637" id="Fill-1"></path>
                <path d="M16.2638913,3.15094225 L15.8150047,3.59982884 L13.8212955,1.60624677 L14.2705212,1.15723302 C14.683802,0.744121717 15.3536985,0.744121717 15.7669793,1.15723302 L16.2638913,1.65393303 C16.6764939,2.06772253 16.6764939,2.7373223 16.2638913,3.15094225 L16.2638913,3.15094225 Z M6.64351835,9.18522423 L8.23602724,10.7780722 L6.03321909,11.3884139 L6.64351835,9.18522423 Z M7.04175154,8.38617219 L13.2227376,2.20497417 L15.2161078,4.19838668 L9.03495212,10.3797119 L7.04175154,8.38617219 Z M16.3657067,0.558675179 C15.6218012,-0.185272748 14.4156993,-0.185272748 13.6717938,0.558675179 L6.11930867,8.11111788 C6.06768036,8.16278858 6.03025195,8.22704846 6.01066879,8.29741217 L5.0175655,11.8829945 C4.97666129,12.0299953 5.0182437,12.1872964 5.12603583,12.2954276 C5.2339975,12.4032197 5.39142572,12.4446326 5.53846892,12.4040675 L9.12388168,11.4107522 C9.19441495,11.3912115 9.25846289,11.3537831 9.31030314,11.3019852 L16.8626187,3.74950009 C17.6053797,3.00504351 17.6053797,1.79983177 16.8626187,1.05537519 L16.3657067,0.558675179 Z" id="Fill-4"></path>
            </g>
        </g>
    </g>
</svg>