<?xml version="1.0" encoding="UTF-8"?>
<svg width="24px" height="24px" viewBox="0 0 24 24" version="1.1" xmlns="http://www.w3.org/2000/svg" xmlns:xlink="http://www.w3.org/1999/xlink">
    <!-- Generator: Sketch 58 (84663) - https://sketch.com -->
    <title>General/question </title>
    <desc>Created with Sketch.</desc>
    <g id="General/question-" stroke="none" stroke-width="1" fill="none" fill-rule="evenodd">
        <circle id="Oval" fill="#A2A2A2" cx="12" cy="12" r="7"></circle>
        <path d="M12,15.69572 L11.9316408,15.7099384 L11.7916408,15.7099384 C11.7495316,15.7017352 11.7074224,15.6946252 11.666954,15.683141 C11.284138,15.5830634 11.038046,15.211187 11.09602,14.819621 C11.1539884,14.428055 11.496882,14.143141 11.89227,14.157897 C12.287658,14.1726628 12.608678,14.482739 12.636566,14.877581 C12.6650028,15.271877 12.392112,15.624607 12.002744,15.695713 L12,15.69572 Z" id="Path" fill="#FFFFFF"></path>
        <path d="M14.24,10.61246 C14.1601566,10.870032 14.02125,11.105736 13.834224,11.299888 C13.619856,11.514256 13.38579,11.706756 13.134224,11.875204 C12.994224,11.9720014 12.86954,12.072632 12.73829,12.17325 L12.737743,12.17325 C12.6185246,12.2716868 12.529381,12.401296 12.479065,12.547316 C12.4511742,12.6227844 12.4189084,12.69825 12.3893782,12.77427 C12.3155506,12.979902 12.1208582,13.11825 11.9021082,13.119902 C11.781249,13.133027 11.6587462,13.1138863 11.5477402,13.0641204 C11.3771082,12.980448 11.2584442,12.8191204 11.2300102,12.6315484 C11.1851668,12.3712324 11.2458694,12.1043644 11.3978982,11.8894364 C11.5193048,11.7122524 11.6675102,11.5552984 11.8375822,11.4245944 C12.0207862,11.2747524 12.2100102,11.1320224 12.3975822,10.9821664 C12.5534442,10.862948 12.6836022,10.7141924 12.7809442,10.5441204 C12.9362602,10.2488044 12.8974284,9.8895084 12.6830534,9.6341204 C12.5720376,9.5127138 12.4249214,9.4312324 12.2630534,9.4016924 C12.0481254,9.3513792 11.8239154,9.3552082 11.6106254,9.4126299 C11.3896914,9.4733325 11.2053954,9.6264519 11.1053094,9.8326299 C11.0396844,9.9556773 10.982262,10.0819979 10.9204674,10.2066959 C10.875624,10.3007591 10.814374,10.3866239 10.7399934,10.4598999 C10.6098368,10.5741973 10.4381254,10.6294259 10.2653094,10.6124719 C10.1603094,10.6097374 10.0574934,10.5818469 9.96562542,10.5315351 C9.79335542,10.4418483 9.68507942,10.2635611 9.68562542,10.0694231 C9.67851608,9.7598971 9.77750042,9.4580151 9.96562542,9.2124691 C10.1838294,8.9182451 10.4725794,8.6841931 10.8056254,8.5321531 C11.0571914,8.4129347 11.3262574,8.3352851 11.6024214,8.3024691 L11.7593754,8.2871559 L12.0393754,8.2871559 L12.1903094,8.3013743 L12.1903094,8.30082746 C12.5649214,8.32489066 12.9313294,8.41949986 13.2698354,8.58082746 C13.5722634,8.72028006 13.8303814,8.94066946 14.0146774,9.21793946 C14.1552234,9.43668946 14.2421774,9.68496546 14.2678814,9.94309746 C14.3056156,10.1656695 14.2963182,10.3937295 14.2399906,10.6124655 L14.24,10.61246 Z" id="Path" fill="#FFFFFF"></path>
    </g>
</svg>