<svg xmlns="http://www.w3.org/2000/svg" width="30" height="30" viewBox="0 0 30 30">
    <g fill="none" fill-rule="evenodd">
        <g fill="#3A79FF">
            <path d="M10.552 2.907l.077.001.207.122c.354.89 2.144 1.57 4.314 1.601 2.001.03 3.707-.504 4.249-1.283l.064-.103.099-.143.233-.061.664.32.061.232c-.38.88.405 2.626 1.917 4.182 1.396 1.435 2.974 2.26 3.908 2.097l.123-.028.171-.031.208.121.245.696-.122.208c-.81.322-1.452 1.84-1.58 3.76l-.013.254-.008.299c-.029 2.004.504 3.707 1.28 4.247l.104.064.143.1.06.232-.317.665-.233.061c-.88-.38-2.624.404-4.181 1.917-1.435 1.395-2.261 2.974-2.097 3.907l.028.124.031.171-.121.208-.696.245-.208-.122c-.354-.89-2.142-1.57-4.312-1.602-2.006-.03-3.706.503-4.248 1.283l-.064.103-.1.144-.233.061-.664-.319-.061-.233c.378-.88-.406-2.626-1.917-4.181-1.395-1.436-2.973-2.263-3.907-2.099l-.124.029-.171.03-.208-.12-.245-.697.122-.207c.89-.355 1.57-2.143 1.601-4.313.03-2.005-.504-3.707-1.283-4.249l-.103-.064-.143-.099-.061-.232.318-.665.233-.061c.88.38 2.624-.403 4.182-1.917 1.435-1.396 2.26-2.973 2.097-3.907l-.028-.123-.032-.171.122-.208.62-.246zm4.359 18.204c-1.046-.016-1.965.426-2.4 1.126l-.08.144-1.048 2.439.04-.016c.825-.315 1.85-.5 2.924-.534l.518-.004c1.152.016 2.274.206 3.183.539l.322.128-.895-2.316-.067-.06c-.34-.857-1.32-1.43-2.497-1.446zm4.347-1.727c-.756.735-1.092 1.689-.902 2.493l.044.158.982 2.463.015-.032c.352-.787.929-1.622 1.643-2.392l.243-.255.173-.172c.828-.805 1.754-1.464 2.632-1.87l.318-.138-2.266-1.004-.093.006c-.849-.365-1.944-.078-2.789.743zm-11.297-.98l-2.458.98.035.014c.79.354 1.627.933 2.4 1.651l.254.244.163.164c.892.918 1.607 1.96 1.996 2.92l.01.03 1.006-2.267-.006-.093c.365-.848.078-1.944-.743-2.788-.783-.806-1.816-1.134-2.657-.856zm7.021-1.961l-1.643 3.826c.398-.144.82-.23 1.258-.254l.264-.007h.068c.466.006.918.081 1.34.22l.261.095-1.548-3.88zm1.025-.409l1.544 3.865.005-.012c.184-.391.434-.762.742-1.098l.192-.198c.334-.324.707-.591 1.102-.791l.252-.118-3.837-1.648zm-2.041-.026L10.1 17.55l.014.006c.39.184.762.434 1.098.742l.197.192c.325.335.592.708.792 1.103l.116.252 1.649-3.837zm10.968-4.38l-2.317.897-.06.067c-.857.34-1.43 1.32-1.446 2.498-.016 1.053.422 1.965 1.124 2.4l.144.08 2.438 1.046-.01-.026c-.337-.876-.525-1.977-.541-3.113v-.341c.016-1.152.205-2.274.539-3.184l.129-.324zm-19.752-.244l.011.027c.37.963.561 2.198.542 3.456-.016 1.152-.205 2.274-.539 3.183l-.13.324 2.318-.897.06-.067c.858-.341 1.43-1.32 1.446-2.497.016-1.054-.422-1.966-1.125-2.401l-.144-.08-2.439-1.048zm15.139 2.088l-3.879 1.547 3.824 1.645-.004-.014c-.147-.408-.233-.847-.252-1.301l-.005-.275c.007-.466.082-.918.22-1.34l.096-.262zm-10.589-.134l.006.014c.176.489.264 1.024.256 1.576-.006.466-.08.918-.22 1.339l-.096.261 3.88-1.547-3.826-1.643zm7.949-3.182l-1.648 3.835 3.865-1.542-.012-.005c-.391-.183-.762-.434-1.098-.742l-.197-.191c-.325-.333-.592-.706-.793-1.103l-.117-.252zm-5.232-.056l-.005.014c-.221.47-.538.91-.934 1.296-.333.325-.706.592-1.101.792l-.254.116 3.838 1.649-1.544-3.867zm1.021-.422l1.548 3.88 1.643-3.825-.013.005c-.407.147-.846.233-1.301.253l-.275.004c-.466-.007-.918-.081-1.34-.22l-.262-.097zm6.167-4.086l-1.005 2.269.006.093c-.366.847-.078 1.943.743 2.787.734.756 1.687 1.09 2.492.902l.159-.044 2.463-.984-.032-.013c-.787-.352-1.62-.928-2.39-1.64l-.253-.243-.174-.175c-.804-.827-1.464-1.754-1.872-2.632l-.137-.32zm-9.022-.089l-.014.034c-.35.78-.918 1.607-1.622 2.37l-.27.284v.002l-.165.161c-.828.805-1.754 1.464-2.631 1.871l-.319.137 2.266 1.006.093-.006c.848.365 1.943.077 2.789-.744.755-.734 1.09-1.688.901-2.493l-.045-.159-.983-2.463zm1.012-.436l.896 2.317.067.06c.342.858 1.32 1.43 2.498 1.447 1.055.017 1.963-.419 2.399-1.122l.08-.145 1.049-2.442-.026.011c-.875.335-1.977.524-3.114.542h-.342c-1.282-.017-2.524-.249-3.479-.654l-.028-.014z"/>
        </g>
    </g>
</svg>
