<svg xmlns="http://www.w3.org/2000/svg" width="30" height="30" viewBox="0 0 30 30">
    <g fill="none" fill-rule="evenodd">
        <g fill="#3A79FF">
            <path d="M14.575 3c-.328 0-.637.265-.637.606v2.318c0 .343.309.607.637.607s.585-.266.585-.607V3.606c0-.342-.257-.606-.585-.606zm6.212.332c-1.88 0-3.344 1.777-3.344 3.31v2.427c-1.572-.855-3.433-.986-5.098-.331-1.548.615-2.765 1.807-3.452 3.365-.688 1.567-.749 3.31-.158 4.91.59 1.628 1.779 2.883 3.292 3.586.801.374 1.638.608 2.496.608.604 0 1.215-.144 1.805-.332.676 1.89 2.41 3.256 4.46 3.256 2.612 0 4.726-2.229 4.726-4.967 0-1.32-.566-2.574-1.487-3.475v-.993h2.39c.328 0 .583-.263.583-.606 0-.342-.255-.608-.583-.608h-2.39v-1.6h2.39c.328 0 .583-.318.583-.66 0-.343-.255-.609-.583-.609h-2.39v-1.71h2.39c.328 0 .583-.264.583-.606 0-.343-.255-.608-.583-.608h-2.39V6.642c0-1.533-1.386-3.31-3.24-3.31zm0 1.267c1.201 0 2.07 1.225 2.071 2.043v9.323c0 .185.078.38.214.497.778.674 1.22 1.651 1.22 2.702 0 2.055-1.55 3.753-3.505 3.753-1.98 0-3.61-1.698-3.61-3.753 0-1.052.443-2.03 1.222-2.702.136-.118.212-.314.212-.497V6.642c0-.838.93-2.043 2.176-2.043zm-.105 1.655c-.328 0-.585.268-.585.608V17.18c-.854.269-1.486 1.052-1.486 2.04 0 1.196.973 2.152 2.125 2.152 1.15 0 2.07-.956 2.07-2.152 0-1.013-.65-1.793-1.54-2.04V6.862c0-.342-.256-.608-.584-.608zm-13.86.056c-.151 0-.308.1-.424.22-.233.243-.233.642 0 .885l1.54 1.599c.117.122.274.165.424.165.152 0 .31-.043.426-.165.233-.242.233-.642 0-.882L7.248 6.53c-.117-.12-.274-.221-.425-.221zm7.17 3.256c1.189-.136 2.426.21 3.451.938v5.186c-.92.898-1.434 2.153-1.434 3.474 0 .192.033.368.053.553-1.17.389-2.435.305-3.558-.22-1.22-.57-2.173-1.604-2.654-2.925-.477-1.29-.397-2.708.158-3.972.556-1.262 1.512-2.205 2.762-2.704.395-.154.812-.283 1.221-.33zM3.582 14.364c-.328 0-.583.266-.583.608 0 .343.255.662.583.662h2.232c.328 0 .583-.32.583-.662s-.255-.608-.583-.608H3.583zm17.152 3.918c.513 0 .903.409.903.938 0 .504-.416.938-.903.938-.486 0-.902-.434-.902-.938 0-.529.392-.938.902-.938zM8.362 20.82c-.152 0-.307.045-.425.167l-1.54 1.6c-.232.242-.232.64 0 .882.118.122.273.166.425.166.152 0 .306-.044.425-.166l1.541-1.6c.233-.242.233-.64 0-.882-.117-.12-.273-.165-.426-.167zm6.212 2.649c-.328 0-.637.267-.637.608v2.316c0 .343.31.608.637.608.328 0 .585-.265.585-.608v-2.316c0-.343-.257-.608-.585-.608z"/>
        </g>
    </g>
</svg>
