<svg xmlns="http://www.w3.org/2000/svg" width="30" height="30" viewBox="0 0 30 30">
    <g fill="none" fill-rule="evenodd">
        <g fill="#3A79FF">
            <path d="M23.755.583H1.245C.88.583.583.88.583 1.245v22.51c0 .366.296.662.662.662h22.51c.366 0 .662-.296.662-.662V1.245c0-.366-.296-.662-.662-.662zM8.086 23.093H1.907v-6.18h6.18v6.18zm0-7.503H1.907V9.41h6.18v6.18zm0-7.504H1.907V1.907h6.18v6.18zm7.504 15.007H9.41v-6.18h6.18v6.18zm0-7.503H9.41V9.41h6.18v6.18zm0-7.504H9.41V1.907h6.18v6.18zm7.503 15.007h-6.18v-6.18h6.18v6.18zm0-7.503h-6.18V9.41h6.18v6.18zm0-7.504h-6.18V1.907h6.18v6.18z" transform="translate(3 3)"/>
        </g>
    </g>
</svg>
