<svg xmlns="http://www.w3.org/2000/svg" width="30" height="30" viewBox="0 0 30 30">
    <g fill="none" fill-rule="evenodd">
        <g fill="#3A79FF">
            <path d="M3.229 3.324l.108.032 7.38 2.76 8.355-2.776.393.016 7.616 2.858c.236.089.403.297.44.54l.009.105v19.257c0 .23-.114.442-.306.573-.157.105-.35.142-.533.104l-.108-.031-7.398-2.784-8.272 2.781c-.074.026-.15.04-.227.04l-.115-.01-.112-.03-.166-.06-7.454-2.8c-.202-.077-.354-.24-.417-.438l-.024-.101-.008-.106V4c0-.196.084-.382.229-.511l.077-.06c.157-.106.35-.142.533-.105zm15.288 1.638l-7.116 2.394v17.795l7.116-2.391V4.962zM3.785 5v17.775l6.22 2.335V7.335L3.785 5zm16.128 0v17.775l6.22 2.335V7.335L19.913 5z"/>
        </g>
    </g>
</svg>
