<svg xmlns="http://www.w3.org/2000/svg" width="20" height="20"><g fill="#FFAF13"><path d="M18.428 1.572A5.336 5.336 0 0 0 14.633 0a5.339 5.339 0 0 0-3.796 1.572L9.293 3.116a.999.999 0 1 0 1.414 1.414l1.544-1.544c1.273-1.271 3.491-1.271 4.763 0 .635.637.986 1.482.986 2.381a3.35 3.35 0 0 1-.986 2.381l-3.089 3.088c-1.271 1.272-3.489 1.271-4.762 0a.999.999 0 1 0-1.414 1.414 5.33 5.33 0 0 0 3.795 1.572 5.334 5.334 0 0 0 3.795-1.572l3.089-3.088A5.333 5.333 0 0 0 20 5.367a5.336 5.336 0 0 0-1.572-3.795z"/><path d="M9.293 15.47l-1.544 1.544c-1.272 1.271-3.49 1.271-4.763 0a3.372 3.372 0 0 1 0-4.763l3.088-3.088a3.37 3.37 0 0 1 4.762 0 .999.999 0 1 0 1.414-1.414 5.373 5.373 0 0 0-7.59 0l-3.088 3.088a5.375 5.375 0 0 0 0 7.591A5.337 5.337 0 0 0 5.368 20a5.334 5.334 0 0 0 3.795-1.572l1.544-1.544a.999.999 0 1 0-1.414-1.414z"/></g></svg>