<svg xmlns="http://www.w3.org/2000/svg" width="24" height="24" viewBox="0 0 24 24">
    <g fill="none" fill-rule="evenodd">
        <g fill="#4A4A4A">
            <path d="M12 2.9c1.639 0 3.252.45 4.662 1.3C19.401 5.839 21.1 8.822 21.1 12c0 5.02-4.08 9.1-9.1 9.1S2.9 17.02 2.9 12c0-2.876 1.396-5.63 3.72-7.33C8.183 3.51 10.042 2.9 12 2.9zm4.553 2.569l-4.105 6.866-.066.067-.048.04-.017.01-.07.054-.057.015-.036.016-.043.006H4.016l.01.147c.336 4.01 3.66 7.193 7.699 7.36l.253.006c4.423 0 8.014-3.591 8.014-8.014 0-2.548-1.237-4.962-3.294-6.47l-.145-.103zm-9.712.425l-.141.121C5.18 7.36 4.23 9.233 4.033 11.258l-.016.198h6.921L6.841 5.894zM12 4.009c-1.473 0-2.88.382-4.1 1.116l-.19.119 4.237 5.777 3.68-6.141-.19-.097c-.956-.463-2.021-.724-3.11-.767L12 4.009z"/>
        </g>
    </g>
</svg>
