<?xml version="1.0" encoding="UTF-8"?>
<svg width="24px" height="24px" viewBox="0 0 24 24" version="1.1" xmlns="http://www.w3.org/2000/svg" xmlns:xlink="http://www.w3.org/1999/xlink">
    <title>web icons/menu/management/quotation</title>
    <g id="web-icons/menu/management/quotation" stroke="none" stroke-width="1" fill="none" fill-rule="evenodd">
        <g id="Group-5" transform="translate(3.000000, 3.000000)" fill="#4A4A4A">
            <path d="M9,16.9453125 C4.61901562,16.9453125 1.0546875,13.3809844 1.0546875,9 C1.0546875,4.61901562 4.61901562,1.0546875 9,1.0546875 C13.3809844,1.0546875 16.9453125,4.61901562 16.9453125,9 C16.9453125,13.3809844 13.3809844,16.9453125 9,16.9453125 M15.3640312,2.63596875 C13.6640625,0.936234375 11.4039844,0 9,0 C6.59601562,0 4.3359375,0.936234375 2.63596875,2.63596875 C0.936234375,4.3359375 0,6.59601562 0,9 C0,11.4039844 0.936234375,13.6640625 2.63596875,15.3640313 C4.3359375,17.0637656 6.59601562,18 9,18 C11.4039844,18 13.6640625,17.0637656 15.3640312,15.3640313 C17.0637656,13.6640625 18,11.4039844 18,9 C18,6.59601562 17.0637656,4.3359375 15.3640312,2.63596875" id="Fill-1"></path>
            <path d="M9.56488125,8.47265625 L8.4351,8.47265625 C7.79150625,8.47265625 7.26800625,7.94915625 7.26800625,7.3055625 C7.26800625,6.66192187 7.79150625,6.13823437 8.4351,6.13823437 L10.694475,6.13823437 C10.9857563,6.13823437 11.2218188,5.90221875 11.2218188,5.61089062 C11.2218188,5.31975 10.9857563,5.08354687 10.694475,5.08354687 L9.52733438,5.08354687 L9.52733438,3.91645312 C9.52733438,3.625125 9.29131875,3.38910937 8.99999063,3.38910937 C8.7086625,3.38910937 8.47264687,3.625125 8.47264687,3.91645312 L8.47264687,5.08354687 L8.4351,5.08354687 C7.20992813,5.08354687 6.21331875,6.08039062 6.21331875,7.3055625 C6.21331875,8.5306875 7.21011563,9.52734375 8.4351,9.52734375 L9.56488125,9.52734375 C10.208475,9.52734375 10.731975,10.0510312 10.731975,10.6944375 C10.731975,11.3380781 10.208475,11.8617656 9.56488125,11.8617656 L7.30555313,11.8617656 C7.014225,11.8617656 6.77820938,12.0977813 6.77820938,12.3891094 C6.77820938,12.68025 7.014225,12.9164531 7.30555313,12.9164531 L8.47264687,12.9164531 L8.47264687,14.0835469 C8.47264687,14.374875 8.7086625,14.6108906 8.99999063,14.6108906 C9.29131875,14.6108906 9.52733438,14.374875 9.52733438,14.0835469 L9.52733438,12.9164531 L9.56488125,12.9164531 C10.7900531,12.9164531 11.7866625,11.9196094 11.7866625,10.6944375 C11.7866625,9.4695 10.7900531,8.47265625 9.56488125,8.47265625" id="Fill-3"></path>
        </g>
    </g>
</svg>