<svg xmlns="http://www.w3.org/2000/svg" width="30" height="30" viewBox="0 0 30 30">
    <path fill="#4A4A4A" fill-rule="evenodd" d="M12.272 5c-.954 0-1.746.706-1.746 1.556v.666H5.71c-.199.01-.385.089-.517.22-.133.132-.203.305-.192.482.01.177.1.343.247.46.148.12.341.181.54.172h15.944l-.483 14.868c-.005.158-.099.243-.25.243H9.03c-.151 0-.244-.085-.25-.243l-.436-13.327c-.005-.177-.088-.344-.233-.466-.144-.122-.336-.188-.534-.183-.199.004-.387.079-.523.207-.138.129-.21.3-.206.477l.436 13.326C7.312 24.285 8.075 25 9.03 25H21c.954 0 1.718-.715 1.745-1.542l.483-14.902h1.013c.2.002.394-.067.536-.192.143-.125.223-.296.223-.475s-.08-.35-.223-.475c-.142-.125-.335-.194-.536-.192h-4.738v-.666c0-.85-.792-1.556-1.745-1.556h-5.486zm0 1.333h5.486c.15 0 .249.088.249.223v.666h-5.985v-.666c0-.135.099-.223.25-.223zm-.756 4.431c-.2.002-.39.075-.53.202-.138.129-.214.3-.21.479v9.333c-.003.179.074.35.215.477.14.128.332.2.533.2.2 0 .392-.072.532-.2.14-.126.219-.298.216-.477v-9.333c.003-.181-.074-.355-.217-.483-.142-.129-.337-.2-.54-.198zm3.49 0c-.199.002-.39.075-.53.202-.137.129-.213.3-.21.479v9.333c-.002.179.076.35.216.477.14.128.332.2.533.2.2 0 .392-.072.532-.2.14-.126.219-.298.216-.477v-9.333c.004-.181-.074-.355-.217-.483-.142-.129-.337-.2-.54-.198zm3.492 0c-.2.002-.39.075-.53.202-.138.129-.214.3-.21.479v9.333c-.003.179.075.35.215.477.14.128.332.2.533.2.2 0 .392-.072.533-.2.14-.126.218-.298.215-.477v-9.333c.004-.181-.074-.355-.216-.483-.143-.129-.337-.2-.54-.198z"/>
</svg>
