<svg xmlns="http://www.w3.org/2000/svg" width="30" height="30" viewBox="0 0 30 30">
    <path fill="#4A4A4A" fill-rule="evenodd" d="M1.394 11.576c-.234.235-.252.597-.038.81l4.628 4.629c.213.213.575.196.81-.039l1.06-1.06.965.964L6.697 19c-1.285 1.285-1.38 3.286-.212 4.455 1.169 1.168 3.17 1.073 4.455-.212l2.121-2.122.965.965-1.061 1.06c-.235.235-.252.597-.039.81l4.629 4.629c.213.213.575.196.81-.039l2.97-2.97c.22-.219.252-.554.074-.774-.011-.013-.023-.025-.036-.036l-4.628-4.628c-.213-.213-.576-.196-.81.038l-1.06 1.061-.965-.964 2.18-2.181.02.005c1.007.121 2.048-.144 2.795-.89.234-.235.251-.597.038-.81l-2.314-2.314.636-.637c.115-.112.185-.261.194-.415.007-.153-.046-.297-.15-.4-.102-.104-.247-.157-.4-.15-.154.01-.303.079-.415.194l-.636.636-2.315-2.314c-.213-.213-.575-.196-.81.039-.746.746-1.011 1.787-.89 2.795l.005.018-2.18 2.181-.965-.964 1.06-1.06c.235-.235.252-.597.04-.81l-4.63-4.629c-.013-.015-.026-.029-.041-.042-.22-.173-.552-.138-.768.08l-2.97 2.97zm1.196.348L4.71 9.802l3.857 3.857-2.121 2.122-3.857-3.857zm14.848-7.147c-.174.2-.208.48-.08.686.127.207.384.292.631.21.965-.313 2.997.04 4.618 1.66 1.621 1.622 1.968 3.649 1.656 4.613-.07.154-.073.325-.01.468.065.144.191.247.346.284.155.037.325.004.467-.09.143-.094.244-.242.277-.404.517-1.6-.037-3.869-1.887-5.719s-4.124-2.41-5.725-1.893c-.111.033-.213.097-.293.185zm-1.13 2.674c-.183.197-.222.48-.098.692.126.212.385.3.635.217.648-.2 2.189.067 3.429 1.307 1.24 1.24 1.5 2.775 1.302 3.423-.047.15-.035.306.034.434.07.129.191.22.336.252.145.032.303.004.439-.079.136-.082.238-.212.284-.362.399-1.3-.087-3.056-1.547-4.516S17.9 6.867 16.6 7.266c-.111.033-.213.097-.293.185zm-3.119 4.89l4.406 4.405c-.362.169-.764.268-1.248.211-.737-.088-1.554-.467-2.225-1.138-.671-.671-1.056-1.493-1.144-2.23-.058-.485.043-.887.211-1.248zm2.592-2.05c-.2.2-.245.497-.112.716.134.22.411.302.668.199.323-.121 1.173-.06 1.816.583.642.642.698 1.486.576 1.81-.054.147-.05.305.013.437.062.134.177.232.32.273.297.085.631-.095.745-.402.342-.911.094-2.067-.806-2.967-.9-.9-2.061-1.153-2.973-.812-.093.035-.178.09-.247.164zm-8.312 9.481l4.713-4.713c.247.576.607 1.124 1.092 1.609.482.482 1.033.845 1.608 1.091l-4.713 4.713c-.83.83-2.08.89-2.835.135-.755-.754-.695-2.004.135-2.835zm6.692 3.722l2.121-2.12 3.857 3.856-2.121 2.121-3.857-3.857z"/>
</svg>
