<svg xmlns="http://www.w3.org/2000/svg" width="25" height="25" viewBox="0 0 25 25">
    <path fill="#4A4A4A" fill-rule="evenodd" d="M6.824 12.412c0 .766-.657 1.412-1.412 1.412-.776 0-1.412-.646-1.412-1.412C4 11.645 4.656 11 5.412 11c.755 0 1.391.646 1.412 1.412zm6.588 0c0 .766-.656 1.412-1.412 1.412-.776 0-1.412-.646-1.412-1.412 0-.767.656-1.412 1.412-1.412.756 0 1.392.646 1.412 1.412zm6.588 0c0 .766-.656 1.412-1.412 1.412-.776 0-1.412-.646-1.412-1.412 0-.767.657-1.412 1.412-1.412.756 0 1.392.646 1.412 1.412z"/>
</svg>
