<svg xmlns="http://www.w3.org/2000/svg" width="40" height="39" viewBox="0 0 40 39">
    <path fill="#4A4A4A" fill-rule="evenodd" d="M22.78 29.694c.806 0 1.456.635 1.456 1.411-.022.78-.694 1.395-1.48 1.395-.804 0-1.456-.657-1.456-1.414.025-.774.696-1.411 1.48-1.392zm3.172-21.516c.347.135.5.496.347.8l-10.84 21.617c-.113.227-.363.36-.625.36-.094 0-.191-.016-.278-.052-.347-.136-.503-.496-.35-.801L25.049 8.485c.153-.307.563-.443.903-.307zm-3.106 17.301c1.57.02 3.092.536 4.35 1.45.178.142.313.336.29.577 0 .4-.34.696-.74.696-.159 0-.315-.058-.45-.158-.983-.737-2.217-1.153-3.469-1.153h-.09c-1.256 0-2.443.374-3.433 1.095-.019.017-.062.036-.11.058l1.078-2.126c.828-.303 1.68-.46 2.555-.439zM14.18 9.783c.26.606 1.614 1.07 3.277 1.089 1.659.019 3.017-.405 3.474-1.064l.548.367-.49.996-.743 1.186-.287.58.108.144-.561 1.133-1.567 3.24-.47.997-1.546 3.203-.537 1.093-1.654 3.034-.53-.348c.281-.585-.299-1.748-1.445-2.803-1.158-1.047-2.457-1.598-3.326-1.44l-.099-.603c.668-.233 1.188-1.429 1.228-2.894.024-1.454-.465-2.657-1.217-3.101l.38-.488c.668.27 1.983-.252 3.193-1.288 1.193-1.019 1.812-2.161 1.536-2.74l.076-.188.652-.105zm8.712 11.48c2.642.019 5.197.914 7.236 2.542.181.122.29.319.269.557 0 .38-.313.699-.719.699-.178 0-.356-.08-.471-.18-1.793-1.415-4.032-2.188-6.34-2.208h-.088c-.315 0-.606.02-.918.04l.715-1.431c.113-.02.203-.02.316-.02zm-10.574-1.246l-.281.055-1.25.291-.84.295.044.014c.77.258 1.593.792 2.315 1.454.66.588 1.217 1.3 1.359 1.957l.06.138.034.088.88-1.8c.227-.483.086-1.105-.363-1.643l-.212-.224-.27-.212c-.467-.318-.997-.464-1.476-.413zm12.32-2.856c3.091.339 6.027 1.553 8.426 3.502.153.12.268.32.268.558 0 .38-.334.698-.737.698-.18 0-.362-.08-.471-.183-2.308-1.869-5.157-2.983-8.161-3.219zm-8.027 1.267l-1.732.484-1.467.517.04.014c.422.153.812.384 1.165.695.335.3.581.651.586 1.028l.001.015.035.086 1.372-2.84zm-6.71-3.08l.164.427c.195.595.288 1.278.27 1.943-.023.867-.187 1.693-.599 2.222l-.065.137-.042.075 2.042-.718c.636-.237 1.073-.905 1.093-1.68 0-.67-.287-1.247-.752-1.563l-.21-.119-1.901-.724zm3.433 1.313l.124.352c.065.24.093.488.084.74 0 .421-.109.844-.398 1.095-.017.03-.03.058-.046.085l1.957-.559 1.436-.51-3.157-1.203zm2.088-2.194l-.141.248c-.157.244-.361.474-.602.677-.347.308-.745.532-1.151.51l-.089.027 1.88.85 1.388.527-1.285-2.839zm3.394-.282l.155-.066c-.458.215-.996.332-1.564.332-.32-.01-.615-.05-.886-.118l-.388-.125.606 1.652.533 1.197.933-1.614.611-1.258zm-4.784-2.779l-.215.393c-.325.528-.802 1.066-1.355 1.545-.705.602-1.477 1.083-2.186 1.185l-.163.054-.11.032.02-.005 1.991.768c.649.241 1.492.046 2.144-.513.536-.46.79-1.05.697-1.557l-.061-.212-.762-1.69zm.74-.276l.725 1.615c.268.587 1.007.971 1.917.971.746.014 1.394-.246 1.75-.666l.135-.19.65-1.008.348-.712-.093.04c-.764.288-1.768.427-2.749.407-.764 0-1.544-.102-2.208-.295l-.474-.162z"/>
</svg>
