<svg xmlns="http://www.w3.org/2000/svg" width="30" height="30" viewBox="0 0 30 30">
    <path fill="#4A4A4A" fill-rule="evenodd" d="M15.853 4.05l.165.007.156.019c.827.135 1.49.791 1.624 1.629l.019.161.005.156V6.7l.009.097.026.098c.056.159.177.287.337.352.178.074.36.075.516.005l.085-.049.076-.061.486-.486.134-.122.14-.106c.668-.463 1.57-.468 2.245.005l.134.102.134.123 1.201 1.202.12.13.104.136c.23.327.353.716.353 1.124 0 .407-.123.797-.354 1.126l-.106.139-.12.13-.478.478-.063.074-.051.088c-.073.152-.078.329-.012.487.073.178.2.309.36.369l.095.026.097.01h.692l.163.006.157.02c.826.135 1.49.79 1.623 1.629l.02.16.005.156v1.707l-.007.163-.019.156c-.135.827-.791 1.49-1.629 1.624l-.161.019-.156.005H23.3l-.111.011-.092.026c-.088.033-.166.086-.23.155l-.055.072-.054.098-.014.032-.035.114-.013.098c-.005.096.011.19.05.275l.043.079.07.087.486.487.122.134.106.14c.463.668.467 1.57-.005 2.245l-.102.134-.123.134-1.202 1.201-.133.122-.14.106c-.668.462-1.57.467-2.245-.006l-.134-.102-.134-.123-.478-.478-.074-.062-.088-.051c-.151-.072-.327-.077-.486-.013-.179.073-.31.2-.37.36l-.026.095-.01.097.001.693-.006.162-.02.157c-.135.826-.79 1.49-1.629 1.623l-.16.02-.156.005h-1.707l-.163-.007-.156-.019c-.827-.135-1.49-.791-1.624-1.629l-.019-.161-.005-.156V23.3l-.009-.096-.026-.099c-.056-.158-.177-.286-.337-.351-.178-.074-.36-.076-.516-.005l-.085.049-.076.061-.486.486-.134.122-.14.106c-.668.463-1.57.468-2.245-.005l-.134-.102-.134-.123-1.201-1.202-.122-.133-.106-.14c-.462-.669-.466-1.57.006-2.245l.102-.134.123-.134.478-.478.063-.074.051-.088c.073-.152.078-.329.012-.487-.073-.178-.2-.309-.36-.369l-.095-.026-.097-.01-.693.001-.162-.006-.157-.02c-.826-.135-1.49-.79-1.623-1.629l-.02-.16-.005-.156v-1.707l.007-.163.019-.156c.135-.827.791-1.49 1.629-1.624l.161-.019.156-.006H6.7l.096-.008.1-.026c.158-.056.286-.177.35-.336.074-.179.076-.361.005-.516l-.049-.086-.061-.075-.486-.486-.12-.13-.105-.137c-.23-.328-.353-.717-.353-1.126 0-.406.123-.797.354-1.126l.106-.14.12-.13 1.202-1.2.133-.122.14-.106c.668-.462 1.57-.467 2.245.006l.134.102.134.123.478.478.074.063.088.051c.152.072.329.077.487.012.178-.073.309-.2.369-.36l.026-.095.01-.097-.001-.693.006-.162.02-.157c.135-.826.79-1.49 1.629-1.623l.16-.02.156-.005h1.705zm.003 1.369h-1.71l-.103.009-.088.022c-.171.058-.307.189-.37.358l-.028.098-.01.102-.001.693-.008.172-.02.154c-.11.664-.557 1.228-1.195 1.488-.645.269-1.358.195-1.909-.192l-.135-.104-.126-.116-.48-.48-.076-.065-.09-.052c-.155-.073-.335-.077-.494-.009l-.088.048-.09.07-1.213 1.213-.059.07-.05.08c-.043.085-.066.177-.066.273 0 .09.02.177.058.256l.041.074.07.087.49.488.115.126.102.133c.384.545.465 1.252.204 1.883-.27.657-.836 1.114-1.511 1.223l-.159.02-.16.005h-.679l-.102.008-.089.023c-.17.058-.307.188-.37.357l-.027.098-.01.103-.001 1.72.009.102.023.088c.057.171.188.308.357.37l.098.028.102.01h.694l.172.008.155.02c.663.11 1.227.557 1.487 1.195.269.646.195 1.358-.192 1.91l-.104.134-.116.126-.48.48-.065.077-.052.09c-.073.156-.076.335-.008.493l.047.088.071.09 1.213 1.213.077.065.09.052c.156.074.336.078.494.01l.088-.048.09-.072.487-.488.13-.119.136-.104c.326-.228.716-.351 1.118-.351.26 0 .518.05.758.15.657.27 1.114.837 1.223 1.512l.02.159.006.16-.002.678.01.102.022.089c.058.17.189.307.357.37l.098.028.103.01h1.72l.102-.009.088-.022c.171-.058.308-.189.37-.358l.028-.098.01-.102v-.693l.008-.172.02-.154c.11-.664.557-1.227 1.195-1.488.646-.268 1.359-.194 1.91.193l.135.104.126.115.479.48.077.065.09.052c.156.073.336.077.494.009l.087-.047.09-.072 1.213-1.212.065-.078.052-.09c.073-.156.077-.335.009-.493l-.048-.088-.07-.09-.489-.488-.115-.126-.111-.145c-.31-.448-.421-1.009-.299-1.548l.045-.165.06-.162-.051-.008.003-.009-.009.008-.011-.002.01-.016.066-.006.076-.162.083-.144c.297-.467.786-.79 1.343-.88l.157-.02.16-.005h.68l.102-.01.088-.022c.17-.058.307-.188.37-.357l.028-.098.01-.103-.07-.098.013.005.055-1.623-.009-.104-.022-.088c-.058-.171-.189-.308-.358-.37l-.098-.028-.102-.01h-.693l-.172-.008-.154-.02c-.664-.11-1.227-.557-1.488-1.195-.268-.646-.195-1.358.192-1.91l.104-.134.116-.126.48-.48.06-.068.05-.081c.044-.085.066-.177.066-.274 0-.089-.02-.176-.057-.255l-.042-.073-.07-.086-1.211-1.214-.077-.065-.09-.052c-.156-.073-.336-.077-.494-.01l-.088.048-.09.072-.488.488-.126.116-.133.102c-.544.384-1.25.465-1.883.204-.657-.27-1.113-.836-1.223-1.511l-.02-.159-.005-.16v-.68l-.008-.102-.025-.093c-.083-.238-.307-.403-.565-.403zm-1.107 5.666c2.297 0 4.166 1.87 4.166 4.166 0 2.297-1.87 4.166-4.166 4.166-2.297 0-4.166-1.869-4.166-4.166 0-2.297 1.869-4.166 4.166-4.166zm0 1.392c-1.53 0-2.775 1.244-2.775 2.774s1.245 2.775 2.775 2.775c1.53 0 2.774-1.245 2.774-2.775 0-1.53-1.244-2.774-2.774-2.774z"/>
</svg>
