<?xml version="1.0" encoding="UTF-8"?>
<svg width="24px" height="24px" viewBox="0 0 24 24" version="1.1" xmlns="http://www.w3.org/2000/svg" xmlns:xlink="http://www.w3.org/1999/xlink">
    <!-- Generator: Sketch 57.1 (83088) - https://sketch.com -->
    <title>Tables-copy</title>
    <desc>Created with Sketch.</desc>
    <g id="Tables-copy" stroke="none" stroke-width="1" fill="none" fill-rule="evenodd">
        <path d="M13.6828652,9.84 C14.4921655,9.84 15.1394519,10.4873204 15.16,11.2966732 L15.16,11.2966732 L15.1592097,20.5433268 C15.1592097,21.3526796 14.4913752,22 13.7026312,22 L13.7026312,22 L4.45657853,22 C3.64727831,22 3,21.3321221 3,20.5433268 L3,20.5433268 L3,11.2966732 C3,10.4873204 3.64727831,9.84 4.45657853,9.84 L4.45657853,9.84 Z M13.7035429,11.073756 L4.45749021,11.073756 C4.33577145,11.073756 4.23460893,11.1749332 4.23460893,11.2966518 L4.23460893,11.2966518 L4.23381865,20.5228692 C4.23381865,20.6445959 4.33498927,20.745765 4.45669993,20.745765 L4.45669993,20.745765 L13.7027526,20.7465553 C13.8244713,20.7465553 13.9256339,20.6453781 13.9256339,20.5236595 L13.9256339,20.5236595 L13.9264241,11.2966518 C13.9264241,11.1749251 13.8252535,11.073756 13.7035429,11.073756 L13.7035429,11.073756 Z M19.0209573,3 C19.8316266,3 20.48,3.64836688 20.48,4.45902814 L20.48,4.45902814 L20.48,13.7009719 C20.48,14.5116331 19.8110356,15.16 19.0209573,15.16 L19.0209573,15.16 L16.8319473,15.16 L16.8319473,13.9440081 L19.0209573,13.9440081 C19.1428819,13.9440081 19.2442156,13.8426673 19.2442156,13.720752 L19.2442156,13.720752 L19.2442156,4.45914974 C19.2442156,4.33722629 19.1428738,4.23589363 19.0209573,4.23589363 L19.0209573,4.23589363 L9.7592624,4.23589363 C9.63733772,4.23589363 9.53600405,4.33723439 9.53600405,4.45914974 L9.53600405,4.45914974 L9.53600405,7.86412971 L8.32,7.86412971 L8.32,4.45914974 C8.32,3.64848848 8.96837336,3 9.77904273,3 L9.77904273,3 Z" id="Combined-Shape" stroke="#000000" stroke-width="0.2" fill="#000000"></path>
    </g>
</svg>