<?xml version="1.0" encoding="UTF-8"?>
<svg width="24px" height="24px" viewBox="0 0 24 24" version="1.1" xmlns="http://www.w3.org/2000/svg" xmlns:xlink="http://www.w3.org/1999/xlink">
    <!-- Generator: Sketch 57.1 (83088) - https://sketch.com -->
    <title>Tables-columns</title>
    <desc>Created with Sketch.</desc>
    <g id="Tables-columns" stroke="none" stroke-width="1" fill="none" fill-rule="evenodd">
        <path d="M19.9146341,3 C20.5544762,3 21.0731707,3.5186945 21.0731707,4.15853659 L21.0731707,20.8414634 C21.0731707,21.4813055 20.5544762,22 19.9146341,22 L4.15853659,22 C3.5186945,22 3,21.4813055 3,20.8414634 L3,4.15853659 C3,3.5186945 3.5186945,3 4.15853659,3 L19.9146341,3 Z M8.329,8.56 L4.39,8.56 L4.3902439,20.6097561 L8.32926829,20.6097561 L8.329,8.56 Z M13.89,8.56 L9.719,8.56 L9.7195122,20.6097561 L13.8902439,20.6097561 L13.89,8.56 Z M19.682,8.56 L15.28,8.56 L15.2804878,20.6097561 L19.6829268,20.6097561 L19.682,8.56 Z M8.32926829,4.3902439 L4.3902439,4.3902439 L4.39,7.17 L8.329,7.17 L8.32926829,4.3902439 Z M13.8902439,4.3902439 L9.7195122,4.3902439 L9.719,7.17 L13.89,7.17 L13.8902439,4.3902439 Z M19.6829268,4.3902439 L15.2804878,4.3902439 L15.28,7.17 L19.682,7.17 L19.6829268,4.3902439 Z" id="Combined-Shape" fill="#000000" fill-rule="nonzero"></path>
    </g>
</svg>