<?xml version="1.0" encoding="UTF-8"?>
<svg width="24px" height="24px" viewBox="0 0 24 24" version="1.1" xmlns="http://www.w3.org/2000/svg" xmlns:xlink="http://www.w3.org/1999/xlink">
    <!-- Generator: Sketch 57.1 (83088) - https://sketch.com -->
    <title>Tables-downloadxl</title>
    <desc>Created with Sketch.</desc>
    <g id="Tables-downloadxl" stroke="none" stroke-width="1" fill="none" fill-rule="evenodd">
        <path d="M15.6215393,3.00001226 C15.7414887,2.99911889 15.8605491,3.04708919 15.9462348,3.13036006 L15.9462348,3.13036006 L19.6406793,6.83767228 C19.7281706,6.92456241 19.7777778,7.04765676 19.7777778,7.17075111 L19.7777778,7.17075111 L19.7777778,21.536586 C19.7777778,21.7791554 19.5577043,22 19.3159722,22 L19.3159722,22 L5.46180556,22 C5.22007806,22 5,21.77916 5,21.536586 L5,21.536586 L5,3.46343889 C5,3.25798428 5.21468186,3.00183496 5.4618171,3.00001226 L5.4618171,3.00001226 Z M15.1597222,3.92685292 L5.92361111,3.92685292 L5.92361111,21.0731719 L18.8541667,21.0731719 L18.8541667,7.63416514 L15.6215278,7.63416514 C15.3798003,7.63416514 15.1597222,7.41332519 15.1597222,7.17075112 L15.1597222,7.17075112 L15.1597222,3.92685292 Z M15.9675332,14.6419959 C16.1689713,14.6419959 16.3611297,14.6658501 16.5440143,14.7135591 C16.7268989,14.7612681 16.9181738,14.8284132 17.1178449,14.9149962 L16.8527961,15.5537638 C16.6460571,15.4689477 16.4751023,15.4097541 16.3399267,15.3761811 C16.2047512,15.3426081 16.0717864,15.3258218 15.9410283,15.3258218 C15.7855322,15.3258218 15.6662615,15.3620448 15.5832124,15.4344918 C15.5001634,15.5069389 15.4586395,15.601472 15.4586395,15.718094 C15.4586395,15.7905411 15.4754258,15.8537104 15.5089988,15.9076039 C15.5425718,15.9614974 15.5960228,16.0136232 15.6693533,16.0639827 C15.7426838,16.1143422 15.916289,16.2048997 16.1901742,16.3356577 C16.5524093,16.5088238 16.8006692,16.682429 16.9349613,16.8564786 C17.0692533,17.0305282 17.1363983,17.2438903 17.1363983,17.4965714 C17.1363983,17.8464376 17.0105014,18.1220855 16.7587038,18.3235236 C16.5069062,18.5249617 16.1566036,18.6256793 15.7077854,18.6256793 C15.2943072,18.6256793 14.9285435,18.5479324 14.6104834,18.3924363 L14.6104834,17.6290958 C14.8719995,17.7457179 15.093313,17.8278822 15.2744306,17.8755912 C15.4555482,17.9233002 15.621202,17.9471544 15.7713971,17.9471544 C15.9516312,17.9471544 16.0898969,17.9126984 16.1861984,17.8437853 C16.2825,17.7748723 16.33065,17.6723878 16.33065,17.5363287 C16.33065,17.4603477 16.3094463,17.3927609 16.2670383,17.3335664 C16.2246303,17.2743719 16.1623445,17.217387 16.0801789,17.1626099 C15.9980134,17.1078329 15.8305926,17.0203677 15.5779115,16.9002116 C15.3411334,16.7888906 15.1635524,16.6819886 15.0451634,16.5795026 C14.9267743,16.4770166 14.8322412,16.3577458 14.7615612,16.2216867 C14.6908812,16.0856277 14.6555417,15.9266 14.6555417,15.7445989 C14.6555417,15.4018008 14.7717202,15.1323372 15.0040808,14.9362001 C15.2364414,14.740063 15.557589,14.6419959 15.9675332,14.6419959 Z M8.26213626,14.6976562 L9.09703995,16.0918128 L9.91604071,14.6976562 L10.8013037,14.6976562 L9.58472972,16.6192599 L10.8940707,18.5726695 L9.95579802,18.5726695 L9.05463214,17.1069497 L8.15346626,18.5726695 L7.27350427,18.5726695 L8.5589909,16.5742016 L7.3556694,14.6976562 L8.26213626,14.6976562 Z M12.4037379,14.6976562 L12.4037379,17.8941446 L13.9754772,17.8941446 L13.9754772,18.5726695 L11.5820867,18.5726695 L11.5820867,14.6976562 L12.4037379,14.6976562 Z M16.0833333,4.5785289 L16.0833333,6.70733709 L18.2047526,6.70733709 L16.0833333,4.5785289 Z" id="Combined-Shape" fill="#000000" fill-rule="nonzero"></path>
    </g>
</svg>