<?xml version="1.0" encoding="UTF-8"?>
<svg width="24px" height="24px" viewBox="0 0 24 24" version="1.1" xmlns="http://www.w3.org/2000/svg" xmlns:xlink="http://www.w3.org/1999/xlink">
    <!-- Generator: Sketch 57.1 (83088) - https://sketch.com -->
    <title>Tables-rescan</title>
    <desc>Created with Sketch.</desc>
    <g id="Tables-rescan" stroke="none" stroke-width="1" fill="none" fill-rule="evenodd">
        <path d="M21.0204238,16.4138451 L21.0431351,16.4244933 C21.0444478,16.4250652 21.045759,16.4256442 21.047069,16.4262304 L21.0594275,16.4311442 C21.0718335,16.4374033 21.0839774,16.444287 21.095813,16.4517875 L21.104,16.458 L21.1211461,16.468274 C21.2250696,16.5419401 21.2889708,16.6578139 21.2990696,16.7812191 L21.9776394,19.9171624 C22.0266892,20.1465509 21.882739,20.3727493 21.6534887,20.4239619 L21.5629995,20.4357044 C21.3614719,20.4367653 21.1876671,20.2959305 21.1471585,20.0996075 L20.6985076,18.0482954 C20.0517089,19.0777265 19.1874037,19.9593531 18.161702,20.6287192 C16.7957924,21.5195992 15.202718,21.9954526 13.5725471,21.9997135 C11.2915854,22.0063365 9.10796986,21.0749131 7.53293872,19.422236 C7.42631157,19.2493943 7.4572335,19.0242803 7.60651205,18.8855831 C7.75579334,18.7468831 7.98290901,18.7330133 8.14712716,18.8535745 C9.56208928,20.3366083 11.5240267,21.1741452 13.5723861,21.1698844 C15.040659,21.1634827 16.4748655,20.7324335 17.7021341,19.9269078 C18.6812636,19.2851139 19.4954809,18.4273725 20.0846721,17.424069 L17.8031517,17.9316092 C17.686927,17.9710852 17.5589728,17.9572155 17.452332,17.8953343 C17.3467694,17.8334531 17.2721288,17.7278269 17.2486725,17.6072603 C17.2262806,17.4866963 17.2561366,17.3618661 17.3318435,17.264778 C17.4075487,17.1676872 17.5216415,17.1079392 17.6442565,17.1004717 L20.7716623,16.3952406 C20.8556331,16.3768361 20.9420022,16.3836378 21.0204238,16.4138451 Z M11.2265205,5.71232841 C11.3086241,5.93318154 11.1955986,6.17963276 10.9738113,6.26072614 C8.9894631,7.01503931 7.40283077,8.55248127 6.58610752,10.5123244 C5.88731315,12.1913503 5.8059432,14.0536646 6.33862031,15.7730757 L7.4081938,13.726826 C7.46150737,13.6265341 7.55320858,13.5507832 7.66197035,13.5177094 C7.77073212,13.4846357 7.88802144,13.4963709 7.9882502,13.549718 C8.19724072,13.6617465 8.2761506,13.9210159 8.16418691,14.130127 L6.65218431,17.0215197 C6.59673884,17.1218116 6.50503764,17.1975625 6.39627587,17.2317042 L6.27045708,17.2370303 C6.19901564,17.2380975 6.1286415,17.2199595 6.06573033,17.1858178 L4.40738879,16.3701935 L3.22300576,15.6323702 C3.01507981,15.5192765 2.93936367,15.2600071 3.05240013,15.0519612 C3.16542568,14.8449778 3.42453877,14.768148 3.63245926,14.8812527 L5.48352772,15.8933534 C4.93610474,14.0199397 5.03999928,12.0025176 5.8002243,10.1795138 C6.70762786,8.0019012 8.47234516,6.29364147 10.6784533,5.4583988 C10.8991733,5.37731088 11.145476,5.49040733 11.2265205,5.71232841 Z M16.25518,3.00423294 C16.3671519,3.02023584 16.4673697,3.07998382 16.5356011,3.17067512 C16.6774167,3.35952245 16.6390318,3.62732725 16.4502983,3.76815496 L14.7586833,5.03799558 C16.741586,5.34136277 18.5682303,6.33692357 19.9020705,7.87039555 C21.4993759,9.70443333 22.2372384,12.132646 21.9322774,14.5460549 C21.9066866,14.7594405 21.7264833,14.9194832 21.5121508,14.9216765 L21.4607726,14.9216765 C21.3488116,14.9088733 21.2464482,14.8512599 21.1771305,14.7627045 C21.1078209,14.6741491 21.0758344,14.5610554 21.0907604,14.4490378 C21.1302126,14.1257568 21.1483405,13.8014106 21.1472732,13.4759992 C21.1600686,11.4531168 20.3688747,9.50709427 18.9485897,8.06658745 C17.7356473,6.8365153 16.1486605,6.06087411 14.4512836,5.85131719 L15.8425328,7.75098972 L15.8414663,7.75205685 C15.9086412,7.84381337 15.9352994,7.95797503 15.9171715,8.07107694 C15.8990447,8.18310544 15.8371998,8.28339465 15.7454986,8.34953669 C15.6697934,8.40608355 15.5770248,8.433823 15.4831917,8.4284887 C15.3488083,8.43060439 15.2219214,8.36658924 15.1419496,8.25776187 L13.2258437,5.64059532 C13.193312,5.59119698 13.1723124,5.53736679 13.1623136,5.48237685 C13.1514978,5.44635147 13.1459512,5.40745799 13.1459512,5.3672623 C13.1459512,5.16640346 13.2844529,4.99806129 13.4711562,4.95259055 L15.9384814,3.08532086 C16.0291153,3.0181054 16.1432081,2.98823004 16.25518,3.00423294 Z" id="Combined-Shape" stroke="#000000" stroke-width="0.5" fill="#000000"></path>
    </g>
</svg>