<?xml version="1.0" encoding="UTF-8"?>
<svg width="24px" height="24px" viewBox="0 0 24 24" version="1.1" xmlns="http://www.w3.org/2000/svg" xmlns:xlink="http://www.w3.org/1999/xlink">
    <!-- Generator: Sketch 57.1 (83088) - https://sketch.com -->
    <title>Tables-restore</title>
    <desc>Created with Sketch.</desc>
    <g id="Tables-restore" stroke="none" stroke-width="1" fill="none" fill-rule="evenodd">
        <path d="M11.5,3 C14.01959,3 16.4362,4.001205 18.21745,5.78255 C19.9987,7.563895 21,9.98041 21,12.5 C20.9970313,15.01902 19.995812,17.43335 18.2146,19.2146 C16.433388,20.99585 14.01902,21.99715 11.5,22 C8.98022,22 6.5638,20.998795 4.78255,19.21745 C3.0013,17.436105 2,15.01959 2,12.5 C2,9.98041 3.001205,7.5638 4.78255,5.78255 C6.563895,4.0013 8.98041,3 11.5,3 Z M11.5,4.58308 C9.40031,4.58308 7.38688,5.417294 5.90241,6.90241 C4.417294,8.386785 3.58308,10.40031 3.58308,12.5 C3.58308,14.59969 4.417294,16.61312 5.90241,18.09759 C7.386785,19.582706 9.40031,20.41692 11.5,20.41692 C13.59969,20.41692 15.61312,19.582706 17.09759,18.09759 C18.582706,16.613215 19.41692,14.59969 19.41692,12.5 C19.4146934,10.40107 18.579742,8.38897 17.09531,6.90469 C15.610878,5.42041 13.59893,4.58536 11.5,4.58308 Z M15.6987585,9.53423758 C15.9489732,9.8021099 15.9489732,10.2363561 15.6987585,10.5042284 L10.5786421,15.9856701 C10.4586346,16.1141465 10.2954167,16.1861016 10.1262157,16.1854755 C9.95633878,16.1854755 9.79372762,16.1135287 9.67372778,15.985044 L7.11336239,13.2439943 C6.86314766,12.976122 6.86374673,12.5425171 7.11336239,12.2746448 C7.36357712,12.0074138 7.76919872,12.0074138 8.01881438,12.2752873 L10.126185,14.5307167 L14.7933065,9.53423758 C15.0435212,9.26636525 15.4485437,9.26636525 15.6987585,9.53423758 Z" id="Combined-Shape" fill="#000000" fill-rule="nonzero"></path>
    </g>
</svg>