<?xml version="1.0" encoding="UTF-8"?>
<svg width="24px" height="24px" viewBox="0 0 24 24" version="1.1" xmlns="http://www.w3.org/2000/svg" xmlns:xlink="http://www.w3.org/1999/xlink">
    <!-- Generator: Sketch 57.1 (83088) - https://sketch.com -->
    <title>Tables-review</title>
    <desc>Created with Sketch.</desc>
    <g id="Tables-review" stroke="none" stroke-width="1" fill="none" fill-rule="evenodd">
        <path d="M18.8358478,3 C19.095201,3 19.3102742,3.18625619 19.3548664,3.43256754 L19.3633507,3.52750289 L19.3633507,6.16501734 C19.3633507,6.3691214 19.2365034,6.55996884 19.0540513,6.64480017 L18.9726609,6.67439523 L16.425033,7.35685737 C16.3796994,7.36922077 16.3335429,7.37499039 16.2882114,7.37499039 C16.0549496,7.37499039 15.8422984,7.21920823 15.7788335,6.98347774 C15.7121571,6.73365237 15.836305,6.47665317 16.0626874,6.36994839 L16.1522,6.3372867 L17.7569693,5.90703425 C16.2666681,4.71437131 14.4311269,4.06488865 12.4950225,4.06488865 C7.84139199,4.06488865 4.05497624,7.8513044 4.05497624,12.5049349 C4.05497624,17.1585654 7.84139199,20.9449811 12.4950225,20.9449811 C17.148653,20.9449811 20.9350687,17.1585654 20.9350687,12.5049349 C20.9350687,12.2131625 21.1707992,11.977432 21.4625716,11.977432 C21.7543736,11.9774451 21.990104,12.2131756 21.990104,12.504948 C21.990104,17.7403087 17.7304127,22 12.495052,22 C7.25969134,22 3,17.7403087 3,12.504948 C3,7.26958729 7.25969134,3.00989595 12.495052,3.00989595 C14.5097614,3.00989595 16.4264898,3.63480238 18.0288776,4.7908867 L18.3083449,5.00039646 L18.3083449,3.52750289 C18.3083449,3.23573049 18.5440754,3 18.8358478,3 Z M12.4950225,8.22308844 C16.9004523,8.22308844 18.7038433,12.1225881 18.7788479,12.2890807 C18.8406649,12.4267379 18.8406649,12.5841574 18.7788479,12.7218019 C18.7039425,12.8884928 16.9004523,16.7877942 12.4950225,16.7877942 C8.08959265,16.7877942 6.28620163,12.8874716 6.21119705,12.7218019 C6.14938005,12.5841447 6.14938005,12.4267252 6.21119705,12.2890807 C6.28610246,12.1223898 8.08952935,8.22308844 12.4950225,8.22308844 Z M12.4950225,9.27809422 C9.28883882,9.27809422 7.69892401,11.7425244 7.28350493,12.5049349 C7.6981222,13.2655941 9.28801591,15.7317756 12.4950225,15.7317756 C15.7012061,15.7317756 17.291121,13.2673454 17.70654,12.5049349 C17.2910788,11.7425877 15.7012061,9.27809422 12.4950225,9.27809422 Z M12.4950225,10.3949233 C13.6588205,10.3949233 14.605034,11.3411369 14.605034,12.5049349 C14.605034,13.6687329 13.6588205,14.6149465 12.4950225,14.6149465 C11.3312245,14.6149465 10.3850109,13.6687329 10.3850109,12.5049349 C10.3850109,11.3411369 11.3312245,10.3949233 12.4950225,10.3949233 Z M12.4950225,11.4499291 C11.9131235,11.4499291 11.4400167,11.9230359 11.4400167,12.5049349 C11.4400167,13.0868339 11.9131235,13.5599407 12.4950225,13.5599407 C13.0769215,13.5599407 13.5500283,13.0868339 13.5500283,12.5049349 C13.5500283,11.9230359 13.0769215,11.4499291 12.4950225,11.4499291 Z" id="Combined-Shape" stroke="#000000" stroke-width="0.4" fill="#000000"></path>
    </g>
</svg>