<?xml version="1.0" encoding="UTF-8"?>
<svg width="24px" height="24px" viewBox="0 0 24 24" version="1.1" xmlns="http://www.w3.org/2000/svg" xmlns:xlink="http://www.w3.org/1999/xlink">
    <!-- Generator: Sketch 57.1 (83088) - https://sketch.com -->
    <title>Tables-import</title>
    <desc>Created with Sketch.</desc>
    <g id="Tables-import" stroke="none" stroke-width="1" fill="none" fill-rule="evenodd">
        <path d="M11.5,3 C11.9769059,3 12.363936,3.38622167 12.363936,3.86312759 C12.363936,4.34003351 11.9769059,4.72706356 11.5,4.72706356 L3.72706356,4.72706356 L3.72706356,20.2729364 L19.2729364,20.2729364 L19.2729364,12.6384619 C19.2729364,12.161556 19.6599665,11.7745259 20.1368724,11.7745259 C20.6137783,11.7745259 21,12.161556 21,12.6384619 L21,21.1368724 C21,21.3660186 20.9093157,21.5854434 20.7473692,21.7473692 C20.5854227,21.909295 20.3660186,22 20.1368724,22 L2.86312759,22 C2.38622167,22 2,21.6137783 2,21.1368724 L2,3.86312759 C2,3.38622167 2.38622167,3 2.86312759,3 L11.5,3 Z M20.1368724,3.00002073 C20.6137783,3.00002073 21,3.38624239 21,3.86314832 C21,4.34005424 20.6137783,4.72708429 20.1368724,4.72708429 C18.0754275,4.72708429 16.0982619,5.54566777 14.6398518,7.00382919 C13.1824365,8.46124441 12.363936,10.4384307 12.363936,12.5000207 L12.363,13.873 L14.3152539,11.921091 C14.6585483,11.6279787 15.1686602,11.6474214 15.4876615,11.9664331 C15.8066835,12.2854551 15.8269139,12.7963547 15.5330036,13.1388406 L12.1389171,16.5356358 C12.129701,16.5457686 12.120226,16.5557042 12.1104968,16.5654323 C12.0733482,16.6025766 12.033176,16.6359732 11.9905562,16.665387 L12.0788987,16.5937554 C12.0434084,16.6259865 12.005529,16.6550199 11.9657131,16.6806738 C11.9388034,16.6991651 11.9103425,16.7152084 11.8810914,16.7295813 C11.8738554,16.7322629 11.867127,16.7354808 11.8603598,16.7386103 C11.8306981,16.7530648 11.7995931,16.7652346 11.7678508,16.7755749 C11.7597079,16.7777553 11.7516264,16.7802812 11.7435076,16.7826876 C11.7140924,16.7917412 11.6841389,16.7988253 11.6538024,16.8043021 C11.6427449,16.8061324 11.6319633,16.8078866 11.6211417,16.8094351 C11.5815761,16.8151673 11.5409435,16.8180631 11.5,16.8180631 L11.4999704,16.8180639 C11.2700454,16.8196618 11.0498122,16.7297874 10.8870781,16.5678575 L7.43216327,13.1129427 C7.09371925,12.7744987 7.09371925,12.2255428 7.43216327,11.8870781 C7.77060728,11.5478257 8.31956314,11.5478257 8.65883627,11.8870781 L10.636,13.871 L10.636064,12.5 C10.636064,9.98032493 11.6376328,7.564289 13.4189825,5.78211014 C15.2002908,4.00080184 17.6171973,3.00002073 20.1368724,3.00002073 Z" id="Combined-Shape" fill="#000000"></path>
    </g>
</svg>