<?xml version="1.0" encoding="UTF-8"?>
<svg width="24px" height="24px" viewBox="0 0 24 24" version="1.1" xmlns="http://www.w3.org/2000/svg" xmlns:xlink="http://www.w3.org/1999/xlink">
    <!-- Generator: Sketch 57.1 (83088) - https://sketch.com -->
    <title>Tables-attention</title>
    <desc>Created with Sketch.</desc>
    <g id="Tables-attention" stroke="none" stroke-width="1" fill="none" fill-rule="evenodd">
        <path d="M11.5,3 C16.7384727,3 21,7.26152727 21,12.5001727 C21,17.7384727 16.7384727,22 11.5,22 C6.2617,22 2,17.7384727 2,12.5 C2,7.2617 6.2617,3 11.5,3 Z M11.5,4.15640909 C6.89923636,4.15658182 3.15658182,7.89923636 3.15658182,12.5 C3.15658182,17.1004182 6.89940909,20.8434182 11.5,20.8435909 C16.1005909,20.8437636 19.8435909,17.1007636 19.8435909,12.5 C19.8435909,7.89923636 16.1005909,4.15640909 11.5,4.15640909 Z M11.6312273,15.1095835 C12.2893081,15.1095835 12.8055339,15.6267115 12.8055339,16.2838902 C12.8055339,16.9410914 12.2892856,17.4581968 11.6312273,17.4581968 C10.9731465,17.4581968 10.4569207,16.9410689 10.4569207,16.2838902 C10.4569207,15.6258094 10.9740486,15.1095835 11.6312273,15.1095835 Z M11.6312273,6.83914517 C12.1483552,6.83914517 12.5712139,7.26200381 12.5712139,7.77913173 L12.5712139,13.1820247 C12.5712139,13.6991526 12.1483552,14.1220113 11.6312273,14.1220113 C11.1140994,14.1220113 10.6912407,13.6991526 10.6912407,13.1820247 L10.6912407,7.77913173 C10.6912407,7.26200381 11.1140994,6.83914517 11.6312273,6.83914517 Z" id="Combined-Shape" fill="#000000"></path>
    </g>
</svg>