<?xml version="1.0" encoding="UTF-8"?>
<svg width="24px" height="24px" viewBox="0 0 24 24" version="1.1" xmlns="http://www.w3.org/2000/svg" xmlns:xlink="http://www.w3.org/1999/xlink">
    <!-- Generator: Sketch 57.1 (83088) - https://sketch.com -->
    <title>Tables-delete</title>
    <desc>Created with Sketch.</desc>
    <g id="Tables-delete" stroke="none" stroke-width="1" fill="none" fill-rule="evenodd">
        <path d="M8.90801684,3 C8.00207996,3 7.24974631,3.67044905 7.24974631,4.47778303 L7.24974631,5.11111862 L2.7487263,5.11111862 C2.7237409,5.11029401 2.69968176,5.11029401 2.67469636,5.11111862 C2.48591885,5.12018988 2.30916616,5.19523403 2.18332712,5.31975625 C2.05654996,5.44510392 1.99084929,5.60921172 2.0010287,5.77744676 C2.01028232,5.94567758 2.09541746,6.10319237 2.23514807,6.21533499 C2.37580494,6.32831361 2.55995589,6.38686338 2.74873814,6.3777919 L17.8953812,6.3777919 L17.4363956,20.5024421 C17.4317688,20.65253 17.3429331,20.7333563 17.1994998,20.7333563 L5.82850186,20.7333563 C5.68506857,20.7333563 5.59623265,20.6525405 5.59160607,20.5024421 L5.17703844,7.84227488 C5.17241163,7.67404406 5.09282909,7.51488261 4.9558749,7.39942553 C4.8189207,7.28314934 4.63661044,7.2212999 4.44785188,7.22542291 C4.25909331,7.22954593 4.08047389,7.30046685 3.95091558,7.42251484 C3.82043811,7.54456283 3.75103475,7.70703029 3.75566133,7.87524422 L4.17022896,20.5354115 C4.19614062,21.3204943 4.92163872,22 5.82849949,22 L17.1994974,22 C18.1063582,22 18.8318516,21.3204731 18.857768,20.5354115 L19.3167535,6.37782779 L20.2791427,6.37782779 C20.4697704,6.38030181 20.6529879,6.31432956 20.7880896,6.19557914 C20.9241199,6.07682872 21,5.91437814 21,5.74449642 C21,5.57461471 20.9241199,5.41216413 20.7880896,5.29341371 C20.6529856,5.17466329 20.469749,5.10869083 20.2791427,5.11116506 L15.7781227,5.11116506 L15.7781227,4.47782948 C15.7781227,3.6704955 15.025789,3 14.1198521,3 L8.90801684,3 Z M8.90801684,4.26667117 L14.1197242,4.26667117 C14.2631575,4.26667117 14.35662,4.34996113 14.35662,4.47778303 L14.35662,5.11111862 L8.67112105,5.11111862 L8.67112105,4.47778303 C8.67112105,4.34996113 8.76458355,4.26667117 8.90801684,4.26667117 Z M8.18993832,8.47577727 C8.00023691,8.47746868 7.81886476,8.54674039 7.68653477,8.66796504 C7.55513104,8.79001303 7.48295126,8.95330383 7.48665395,9.1223411 L7.48665395,17.9890393 C7.48387776,18.1589189 7.55790746,18.3221949 7.69116134,18.442592 C7.82441523,18.5638167 8.00670654,18.6314379 8.19733658,18.6314379 C8.38796662,18.6314379 8.57025793,18.5638167 8.70351181,18.442592 C8.8367657,18.3221928 8.91079563,18.1588999 8.90801921,17.9890393 L8.90801921,9.1223411 C8.91172071,8.95081271 8.83768959,8.78504768 8.70258555,8.66382725 C8.56748151,8.54177926 8.3823972,8.47415591 8.18991937,8.47577727 L8.18993832,8.47577727 Z M11.5064794,8.47577727 C11.316778,8.47746868 11.1354058,8.54674039 11.0030758,8.66796504 C10.8716721,8.79001303 10.7994923,8.95330383 10.803195,9.1223411 L10.803195,17.9890393 C10.8004188,18.1589189 10.8744485,18.3221949 11.0077024,18.442592 C11.1409563,18.5638167 11.3232476,18.6314379 11.5138776,18.6314379 C11.7045077,18.6314379 11.886799,18.5638167 12.0200529,18.442592 C12.1533068,18.3221928 12.2273367,18.1588999 12.2245603,17.9890393 L12.2245603,9.1223411 C12.2282618,8.95081271 12.1542307,8.78504768 12.0191266,8.66382725 C11.8840226,8.54177926 11.6989383,8.47415591 11.5064604,8.47577727 L11.5064794,8.47577727 Z M14.8230204,8.47577727 C14.633319,8.47746868 14.4519469,8.54674039 14.3196169,8.66796504 C14.1882132,8.79001303 14.1160334,8.95330383 14.1197361,9.1223411 L14.1197361,17.9890393 C14.1169599,18.1589189 14.1909896,18.3221949 14.3242435,18.442592 C14.4574973,18.5638167 14.6397887,18.6314379 14.8304187,18.6314379 C15.0210487,18.6314379 15.2033401,18.5638167 15.3365939,18.442592 C15.4698478,18.3221928 15.5438778,18.1588999 15.5411013,17.9890393 L15.5411013,9.1223411 C15.5448028,8.95081271 15.4707717,8.78504768 15.3356677,8.66382725 C15.2005636,8.54177926 15.0154793,8.47415591 14.8230015,8.47577727 L14.8230204,8.47577727 Z" id="Shape" fill="#000000"></path>
    </g>
</svg>