<?xml version="1.0" encoding="UTF-8"?>
<svg width="24px" height="24px" viewBox="0 0 24 24" version="1.1" xmlns="http://www.w3.org/2000/svg" xmlns:xlink="http://www.w3.org/1999/xlink">
    <!-- Generator: Sketch 57.1 (83088) - https://sketch.com -->
    <title>Tables-print</title>
    <desc>Created with Sketch.</desc>
    <g id="Tables-print" stroke="none" stroke-width="1" fill="none" fill-rule="evenodd">
        <path d="M7.91440162,3 L16.4724876,3 C17.2460004,3 17.8708122,3.58849196 17.941643,4.35377285 L17.9483328,4.49923425 L17.9483328,6.96682834 L19.9294129,6.96682834 C20.6850756,6.96682834 21.3256441,7.55532031 21.4142115,8.32121837 L21.4242424,8.46680287 L21.4242424,17.1033822 C21.4242424,17.8710027 20.8287768,18.5217319 20.0887385,18.5956322 L19.9483972,18.6026164 L17.9673744,18.6026164 L17.9666445,20.5007658 C17.9666445,21.2683863 17.3711789,21.9191155 16.6311406,21.9930157 L16.4907993,22 L7.93271328,22 C7.15920054,22 6.53438869,21.411508 6.46355793,20.6462272 L6.45686807,20.5007658 L6.45686807,18.6026164 L4.47584521,18.6026164 C3.70233247,18.6026164 3.07752062,18.0141245 3.00668986,17.2482264 L3,17.1026419 L3,8.46606259 C3,7.69844208 3.59546561,7.04771288 4.3355039,6.97381264 L4.47584521,6.96682834 L6.43855641,6.96682834 L6.43855641,4.49923425 C6.43855641,3.73161374 7.03402202,3.08088454 7.77406031,3.00698429 L7.91440162,3 L16.4724876,3 Z M16.7720141,15.0909074 L7.59712405,15.0909074 L7.59712405,20.519994 C7.59712405,20.6661656 7.70705259,20.7987207 7.8441791,20.8336105 L7.91462584,20.8425275 L16.4727119,20.8425275 C16.632869,20.8425275 16.7517377,20.7308569 16.7824316,20.5915572 L16.7902137,20.519994 L16.7720141,20.519994 L16.7720141,15.0909074 Z M15.0983002,18.5454545 C15.4104106,18.5454545 15.6666667,18.8057852 15.6666667,19.1212115 C15.6666667,19.4373803 15.4096776,19.6969697 15.0983002,19.6969697 L15.0983002,19.6969697 L9.32594227,19.6969697 C8.99594665,19.6969697 8.75757576,19.437363 8.75757576,19.1219367 C8.75757576,18.8057679 9.0145648,18.5461798 9.32594227,18.5461798 L9.32594227,18.5461798 Z M19.9295052,8.14347098 L17.9484823,8.14347098 L6.45698018,8.14421239 L4.47595732,8.14421239 C4.3320661,8.14421239 4.20157892,8.25588307 4.16723342,8.39518275 L4.15845553,8.46674592 L4.15845553,17.1033253 C4.15845553,17.2494969 4.26838407,17.382052 4.40551058,17.4169418 L4.47595732,17.4258588 L6.4379211,17.4258588 L6.4379211,13.9142826 L17.9484823,13.9142826 L17.9484823,17.4258588 L19.9104461,17.4258588 C20.0706032,17.4258588 20.1894719,17.3141881 20.2201659,17.1748884 L20.2279479,17.1033253 L20.247007,8.46600451 C20.247007,8.29547098 20.097382,8.14347098 19.9295052,8.14347098 Z M9.32594227,16.2424242 L15.0983002,16.2424242 C15.4104106,16.2424242 15.6666667,16.5027552 15.6666667,16.8181818 C15.6666667,17.1027341 15.4585055,17.3414559 15.1898791,17.3863547 L15.0983002,17.3939394 L9.32594227,17.3939394 C8.99594665,17.3939394 8.75757576,17.1336085 8.75757576,16.8181818 C8.75757576,16.5336296 8.96573688,16.2949077 9.23436328,16.2500089 L9.32594227,16.2424242 L15.0983002,16.2424242 Z M16.4909114,4.17670072 L7.93282539,4.17670072 C7.77266829,4.17670072 7.65379959,4.2883714 7.62310562,4.42767107 L7.6153236,4.49923425 L7.6153236,6.96682834 L16.8084132,6.96682834 L16.8084132,4.49923425 C16.8084132,4.32870072 16.6587882,4.17670072 16.4909114,4.17670072 Z" id="Combined-Shape" fill="#000000" fill-rule="nonzero"></path>
    </g>
</svg>