<?xml version="1.0" encoding="UTF-8"?>
<svg width="24px" height="24px" viewBox="0 0 24 24" version="1.1" xmlns="http://www.w3.org/2000/svg" xmlns:xlink="http://www.w3.org/1999/xlink">
    <!-- Generator: Sketch 63.1 (92452) - https://sketch.com -->
    <title>web icons/menu/settings/archive</title>
    <desc>Created with Sketch.</desc>
    <g id="web-icons/menu/settings/archive" stroke="none" stroke-width="1" fill="none" fill-rule="evenodd">
        <path d="M21.6422764,2.86116006 C21.8144142,2.86116006 21.9611804,2.96796408 22.0596188,3.12585984 L22.1047044,3.20880743 L22.1391599,3.32395462 L22.1391599,7.16685914 C22.1391599,7.39084619 22.0076606,7.57042903 21.8098998,7.64306117 L21.7212785,7.66745888 L21.6422764,7.67433863 L20.708,7.674 L20.7082656,21.4660946 C20.7082656,21.6580852 20.6116534,21.8174291 20.4595105,21.9047654 L20.3790016,21.9422507 L20.2903787,21.9666414 L20.2113821,21.9735182 L3.77777778,21.9735182 C3.55652071,21.9735182 3.38124499,21.8375283 3.31101079,21.6362723 L3.28751372,21.5462301 L3.28089431,21.4660946 L3.28,7.719 L2.34688347,7.71902356 C2.15722667,7.71902356 2.00136074,7.61910637 1.91647178,7.46380614 L1.88011421,7.38174695 L1.85661907,7.29169431 L1.85,7.21154407 L1.85,3.36863955 C1.85,3.16369345 1.96823183,2.97613887 2.16512293,2.89700587 L2.25420534,2.86999518 L2.34688347,2.86116006 L21.6422764,2.86116006 Z M19.714,7.674 L4.231,7.674 L4.231,20.958 L19.714,20.958 L19.714,7.674 Z M15.3727461,8.73235294 C15.7941441,8.73235294 16.1393284,8.98778665 16.239477,9.38158756 L16.2605881,9.49233045 L16.2676471,9.60757454 L16.2676471,11.6865431 C16.2676471,12.0820219 15.985772,12.4307357 15.5939372,12.5329298 L15.484476,12.5545387 L15.3727461,12.5617647 L8.62725392,12.5617647 C8.23491725,12.5617647 7.91419014,12.3052657 7.78472589,11.9309647 L7.75174415,11.815279 L7.73235294,11.6865431 L7.73235294,9.60757454 C7.73235294,9.2120958 8.01422803,8.86338195 8.40606284,8.76118789 L8.51552399,8.73957892 L8.62725392,8.73235294 L15.3727461,8.73235294 Z M15.346,9.709 L8.694,9.709 L8.694,11.488 L15.346,11.488 L15.346,9.709 Z M21.145,3.831 L2.8,3.831 L2.8,6.704 L21.145,6.704 L21.145,3.831 Z" id="Combined-Shape" fill="#4A4A4A"></path>
    </g>
</svg>