<?xml version="1.0" encoding="UTF-8"?>
<svg width="24px" height="24px" viewBox="0 0 24 24" version="1.1" xmlns="http://www.w3.org/2000/svg" xmlns:xlink="http://www.w3.org/1999/xlink">
    <!-- Generator: Sketch 57.1 (83088) - https://sketch.com -->
    <title>Tables-downloadpdf</title>
    <desc>Created with Sketch.</desc>
    <g id="Tables-downloadpdf" stroke="none" stroke-width="1" fill="none" fill-rule="evenodd">
        <path d="M15.6215393,3.00001226 C15.7414887,2.99911889 15.8605491,3.04708919 15.9462348,3.13036006 L15.9462348,3.13036006 L19.6406793,6.83767228 C19.7281706,6.92456241 19.7777778,7.04765676 19.7777778,7.17075111 L19.7777778,7.17075111 L19.7777778,21.536586 C19.7777778,21.7791554 19.5577043,22 19.3159722,22 L19.3159722,22 L5.46180556,22 C5.22007806,22 5,21.77916 5,21.536586 L5,21.536586 L5,3.46343889 C5,3.25798428 5.21468186,3.00183496 5.4618171,3.00001226 L5.4618171,3.00001226 Z M15.1597222,3.92685292 L5.92361111,3.92685292 L5.92361111,21.0731719 L18.8541667,21.0731719 L18.8541667,7.63416514 L15.6215278,7.63416514 C15.3798003,7.63416514 15.1597222,7.41332519 15.1597222,7.17075112 L15.1597222,7.17075112 L15.1597222,3.92685292 Z M8.54630741,14.9358974 C9.02962979,14.9358974 9.39711282,15.0399192 9.64876752,15.2479659 C9.90042222,15.4560125 10.0262477,15.7662609 10.0262477,16.1787202 C10.0262477,16.6075325 9.89224584,16.9354964 9.62423812,17.1626216 C9.35623041,17.3897467 8.97512008,17.5033076 8.48089569,17.5033076 L8.11840572,17.5033076 L8.11840572,18.9205617 L7.27350427,18.9205617 L7.27350427,14.9358974 L8.54630741,14.9358974 Z M12.2354765,14.9358974 C12.885963,14.9358974 13.3910818,15.1076015 13.7508481,15.4510148 C14.1106144,15.794428 14.2904948,16.2741092 14.2904948,16.8900727 C14.2904948,17.5460102 14.1038007,18.0484036 13.730407,18.3972679 C13.3570132,18.7461321 12.8178261,18.9205617 12.1128295,18.9205617 L10.9844773,18.9205617 L10.9844773,14.9358974 L12.2354765,14.9358974 Z M17.606272,14.9358974 L17.606272,15.6281715 L16.1535866,15.6281715 L16.1535866,16.6556807 L17.5054289,16.6556807 L17.5054289,17.3452293 L16.1535866,17.3452293 L16.1535866,18.9205617 L15.3223126,18.9205617 L15.3223126,14.9358974 L17.606272,14.9358974 Z M12.2790843,15.6281715 L11.8293787,15.6281715 L11.8293787,18.2228366 L12.1918687,18.2228366 C13.0058853,18.2228366 13.4128875,17.7858543 13.4128875,16.9118766 C13.4128875,16.0560689 13.0349569,15.6281715 12.2790843,15.6281715 Z M8.5026996,15.6281715 L8.11840572,15.6281715 L8.11840572,16.8110335 L8.39640554,16.8110335 C8.65623675,16.8110335 8.85065299,16.759704 8.97966009,16.6570434 C9.10866719,16.5543829 9.17316977,16.4049367 9.17316977,16.2087006 C9.17316977,16.0106474 9.11911479,15.864381 9.01100321,15.7698969 C8.90289162,15.6754128 8.73345878,15.6281715 8.5026996,15.6281715 Z M16.0833333,4.5785289 L16.0833333,6.70733709 L18.2047526,6.70733709 L16.0833333,4.5785289 Z" id="Combined-Shape" fill="#000000"></path>
    </g>
</svg>