<?xml version="1.0" encoding="UTF-8"?>
<svg width="24px" height="24px" viewBox="0 0 24 24" version="1.1" xmlns="http://www.w3.org/2000/svg" xmlns:xlink="http://www.w3.org/1999/xlink">
    <!-- Generator: Sketch 57.1 (83088) - https://sketch.com -->
    <title>Tables-view</title>
    <desc>Created with Sketch.</desc>
    <g id="Tables-view" stroke="none" stroke-width="1" fill="none" fill-rule="evenodd">
        <path d="M11.5,7 C7.57848149,7 4.11616954,8.6684083 2.13113039,11.2555253 C1.95628987,11.483144 1.95628987,11.7998382 2.13113039,12.0274568 C4.11623288,14.6146372 7.57848149,16.2897383 11.5,16.2897383 C15.4215185,16.2897383 18.8838305,14.6147216 20.8688696,12.0274568 C21.0437101,11.7998382 21.0437101,11.483144 20.8688696,11.2555253 C18.8837671,8.66834496 15.4215185,7 11.5,7 Z M11.2888705,8.47790619 C13.045531,8.47790619 14.4558124,9.88818762 14.4558124,11.644848 C14.4558124,13.4015084 13.045531,14.8117899 11.2888705,14.8117899 C9.53221013,14.8117899 8.12192871,13.4015084 8.12192871,11.644848 C8.12192871,9.88818762 9.53221013,8.47790619 11.2888705,8.47790619 Z M14.5613771,8.66924226 C16.5967917,9.21355511 18.3270821,10.2774576 19.5229193,11.6449008 C18.3262376,13.0114784 16.5968762,14.0819681 14.5613771,14.6271044 C15.2805263,13.8386625 15.7225891,12.7920938 15.7225891,11.6449008 C15.7225891,10.4985312 15.2797029,9.45781078 14.5613771,8.66924226 L14.5613771,8.66924226 Z M7.8645619,8.84078494 C7.23693737,9.60612922 6.85510974,10.5817796 6.85510974,11.6447952 C6.85510974,12.7111679 7.23942869,13.6892884 7.87117025,14.4553506 C6.08315711,13.8739212 4.55981586,12.8817816 3.47714401,11.6447952 C4.55835907,10.4085267 6.07910343,9.42223547 7.86462524,8.84078494 L7.8645619,8.84078494 Z M11.2888705,9.74467237 C10.2472423,9.74467237 9.38870544,10.6032092 9.38870544,11.6448375 C9.38870544,12.6864658 10.2472423,13.5450026 11.2888705,13.5450026 C12.3304988,13.5450026 13.1890356,12.6864658 13.1890356,11.6448375 C13.1890356,10.6032092 12.3304988,9.74467237 11.2888705,9.74467237 Z M11.2888705,11.0114491 C11.6459749,11.0114491 11.9222589,11.2877331 11.9222589,11.6448375 C11.9222589,12.0019418 11.6459749,12.2782258 11.2888705,12.2782258 C10.9317662,12.2782258 10.6554822,12.0019418 10.6554822,11.6448375 C10.6554822,11.2877331 10.9317662,11.0114491 11.2888705,11.0114491 Z" id="Shape" fill="#000000" fill-rule="nonzero"></path>
    </g>
</svg>