<?xml version="1.0" encoding="UTF-8"?>
<svg width="24px" height="24px" viewBox="0 0 24 24" version="1.1" xmlns="http://www.w3.org/2000/svg" xmlns:xlink="http://www.w3.org/1999/xlink">
    <!-- Generator: Sketch 59.1 (86144) - https://sketch.com -->
    <title>Tables-setproject</title>
    <desc>Created with Sketch.</desc>
    <g id="Tables-setproject" stroke="none" stroke-width="1" fill="none" fill-rule="evenodd">
        <path d="M13.7666653,3 C14.5748188,3 15.2444414,3.67044592 15.2444414,4.47777614 L15.2444414,5.2166642 C15.4027746,5.27521369 15.5586377,5.33871162 15.7128542,5.40798344 L16.2340447,4.8867929 C16.8055219,4.31531576 17.7538742,4.31531576 18.3253513,4.8867929 L20.1132071,6.67464869 C20.6846842,7.24612584 20.6846842,8.18789146 20.1132071,8.7593686 L19.5920166,9.28055913 C19.6621117,9.43724351 19.7239609,9.59475545 19.7833358,9.7555586 L20.5222239,9.7555586 C21.3303774,9.7555586 22,10.4260045 22,11.2333347 L22,13.7666653 C22,14.5739955 21.3303774,15.2444414 20.5222239,15.2444414 L19.7833358,15.2444414 C19.7247863,15.4027746 19.6612884,15.5586377 19.5920166,15.7128542 L20.1132071,16.2340447 C20.6846842,16.8055219 20.6846842,17.7472875 20.1132071,18.3187646 L18.3253513,20.1066204 C17.7538742,20.6780976 16.8055219,20.6780976 16.2340447,20.1066204 L15.7128542,19.5854299 C15.558644,19.6546996 15.4027746,19.7181996 15.2444414,19.7767491 L15.2444414,20.5222239 C15.2444414,21.3295541 14.5748188,22 13.7666653,22 L11.2333347,22 C10.4260045,22 9.7555586,21.3295541 9.7555586,20.5222239 L9.7555586,19.7767491 C9.59969967,19.7181996 9.44547895,19.6538763 9.29375356,19.5854299 L8.77256303,20.1066204 C8.20273255,20.6764509 7.25932027,20.6739809 6.68784312,20.1066204 L6.68124591,20.1066204 L4.88680346,18.3253724 L4.88680346,18.3187752 C4.31532632,17.7472981 4.31532632,16.8055324 4.88680346,16.2340553 L5.41458065,15.7062781 C5.34531095,15.5545422 5.27686458,15.4019829 5.2166642,15.2444731 L4.47777614,15.2444731 C3.67044592,15.2444731 3,14.5740271 3,13.7666969 L3,11.2333664 C3,10.4260362 3.67044592,9.75559027 4.47777614,9.75559027 L5.2166642,9.75559027 C5.27768791,9.59560834 5.34366006,9.44139395 5.41458065,9.28717746 L4.88680346,8.75940027 C4.31532632,8.18792312 4.31532632,7.2461575 4.88680346,6.67468036 L6.68124591,4.88682457 C7.25272305,4.31534743 8.20107533,4.31534743 8.77255247,4.88682457 L9.29374301,5.4080151 C9.44547895,5.33956873 9.59968489,5.27524536 9.75554805,5.21669587 L9.75554805,4.4778078 C9.75554805,3.67047759 10.425994,3 11.2333242,3 L13.7666653,3 Z M13.7666653,4.26663359 L11.2333347,4.26663359 C11.1055134,4.26663359 11.0222239,4.34995483 11.0222239,4.47777614 L11.0222239,5.63888596 C11.0197499,5.90606788 10.8292559,6.16089982 10.5736133,6.23924307 C10.174487,6.36211593 9.79678856,6.51714943 9.43889229,6.70765588 C9.20139255,6.83382841 8.88307957,6.78599702 8.69341756,6.59550323 L7.87536292,5.77744858 C7.78465068,5.68673635 7.66920048,5.68673635 7.5784988,5.77744858 L7.5784988,5.7840458 L5.78405635,7.56529382 C5.69334412,7.65600605 5.69334412,7.77805136 5.78405635,7.8687657 L6.60869766,8.69340701 C6.79919145,8.88307746 6.84702073,9.201382 6.72085031,9.43888173 C6.5278823,9.80338577 6.36624737,10.1810631 6.24585084,10.5736027 C6.1675097,10.831728 5.90855899,11.0230366 5.63890707,11.0222133 L4.47779725,11.0222133 C4.34997594,11.0222133 4.26668637,11.1055029 4.26668637,11.2333242 L4.26668637,13.7666547 C4.26668637,13.894476 4.34997594,13.9777656 4.47779725,13.9777656 L5.63890707,13.9777656 C5.90691233,13.9752916 6.16503759,14.1641364 6.24585084,14.4197895 C6.36624948,14.8123291 6.52787386,15.1966142 6.72085031,15.5610972 C6.84372317,15.7977736 6.79671934,16.1111465 6.60869766,16.2999852 L5.78405635,17.1246265 C5.69334412,17.2153388 5.69334412,17.3373841 5.78405635,17.4280984 L7.5784988,19.2159542 C7.66921103,19.3066664 7.78466124,19.3066664 7.87536292,19.2159542 L8.69341756,18.3978996 C8.88391135,18.2074058 9.20139255,18.1595765 9.43889229,18.2857469 C9.79678856,18.4762407 10.174487,18.6312721 10.5736133,18.7541597 C10.8317385,18.8325009 11.0230472,19.0914516 11.0222239,19.3611035 L11.0222239,20.5222133 C11.0222239,20.6500346 11.1055134,20.7333242 11.2333347,20.7333242 L13.7666653,20.7333242 C13.8944866,20.7333242 13.9777761,20.6500346 13.9777761,20.5222133 L13.9777761,19.3611035 C13.9777761,19.0914516 14.1682699,18.832503 14.4263867,18.7541597 C14.8288063,18.6304614 15.2097981,18.4762534 15.5676944,18.2857469 C15.8051941,18.1595744 16.1235071,18.2074058 16.3131691,18.3978996 L17.1312237,19.2159542 C17.221936,19.3066664 17.3373862,19.3066664 17.4280879,19.2159542 L19.2159436,17.4280984 C19.3066559,17.3373862 19.3066559,17.2153409 19.2159436,17.1246265 L18.397889,16.3065719 C18.2098694,16.1177269 18.1628593,15.8043602 18.2857363,15.5676838 C18.4762301,15.2097875 18.6304382,14.8222091 18.7541492,14.4197684 C18.8349645,14.1641343 19.0930877,13.9760978 19.3610929,13.9777445 L20.5222028,13.9777445 C20.6500241,13.9777445 20.7333136,13.8944549 20.7333136,13.7666336 L20.7333136,11.2333031 C20.7333136,11.1054818 20.6500241,11.0221922 20.5222028,11.0221922 L19.3610929,11.0221922 C19.091441,11.0221922 18.8324924,10.8316984 18.7541492,10.5735816 C18.6304509,10.171162 18.4762428,9.79017023 18.2857363,9.43227396 C18.1595638,9.19477423 18.2073952,8.87646125 18.397889,8.68679924 L19.2159436,7.86874459 C19.3066559,7.77803236 19.3066559,7.65598705 19.2159436,7.56527271 L17.4280879,5.77741691 C17.3373756,5.68670468 17.2219254,5.68670468 17.1312237,5.77741691 L16.3131691,6.59547156 C16.1234986,6.78596535 15.8051941,6.83379463 15.5676944,6.70762421 C15.2097981,6.51713043 14.8288063,6.36292237 14.4263867,6.2392114 C14.1707526,6.16087027 13.9802461,5.90605733 13.9777761,5.63885429 L13.9777761,4.47774447 C13.9777761,4.34992317 13.8944866,4.26663359 13.7666653,4.26663359 L13.7666653,4.26663359 Z M12.5,8.06666104 C14.940864,8.06666104 16.9333284,10.0590199 16.9333284,12.4999894 C16.9333284,14.940959 14.9409695,16.9333179 12.5,16.9333179 C10.0590305,16.9333179 8.06667159,14.940959 8.06667159,12.4999894 C8.06667159,10.0590199 10.0590305,8.06666104 12.5,8.06666104 Z M12.5,9.3333263 C10.7434942,9.3333263 9.33333685,10.7434836 9.33333685,12.4999894 C9.33333685,14.2564953 10.7434942,15.6666526 12.5,15.6666526 C14.2565058,15.6666526 15.6666631,14.2564953 15.6666631,12.4999894 C15.6666631,10.7434836 14.2565058,9.3333263 12.5,9.3333263 Z" id="settings" fill="#000000"></path>
    </g>
</svg>