<?xml version="1.0" encoding="UTF-8"?>
<svg width="24px" height="24px" viewBox="0 0 24 24" version="1.1" xmlns="http://www.w3.org/2000/svg" xmlns:xlink="http://www.w3.org/1999/xlink">
    <!-- Generator: Sketch 57.1 (83088) - https://sketch.com -->
    <title>Tables-move</title>
    <desc>Created with Sketch.</desc>
    <g id="Tables-move" stroke="none" stroke-width="1" fill="none" fill-rule="evenodd">
        <path d="M20.3398687,6.10239247 C20.6797399,6.10239247 20.95526,6.37791252 20.95526,6.71778373 L20.95526,6.71778373 L20.95526,21.3846087 C20.95526,21.7244799 20.6797399,22 20.3398687,22 L20.3398687,22 L9.79329331,22 C9.45342211,22 9.17790206,21.7244799 9.17790206,21.3846087 L9.17790206,21.3846087 L9.177,18.934 L8.73399983,18.934531 C8.39412862,18.934531 8.11860857,18.659011 8.11860857,18.3191397 C8.11860857,18.0101659 8.34631109,17.7543749 8.64306182,17.7104209 L8.73399983,17.7037485 L9.177,17.703 L9.17790206,16.7437381 C9.17790206,16.4347643 9.40560458,16.1789732 9.7023553,16.1350193 L9.79329331,16.1283469 C10.1331645,16.1283469 10.4086846,16.4038669 10.4086846,16.7437381 L10.4086846,16.7437381 L10.4086846,20.7692175 L19.7244775,20.7692175 L19.7244775,7.33317499 L10.4086846,7.33317499 L10.4086846,11.230653 C10.4086846,11.5705242 10.1331645,11.8460442 9.79329331,11.8460442 C9.45342211,11.8460442 9.17790206,11.5705242 9.17790206,11.230653 L9.17790206,11.230653 L9.17790206,6.71778373 C9.17790206,6.37791252 9.45342211,6.10239247 9.79329331,6.10239247 L9.79329331,6.10239247 Z M4.61547331,16.3704008 C4.92444714,16.3704008 5.18023819,16.5981033 5.22419215,16.894854 L5.23086457,16.985792 L5.23086457,17.7037485 L6.17479271,17.7037485 C6.51466392,17.7037485 6.79018397,17.9792685 6.79018397,18.3191397 C6.79018397,18.6281136 6.56248145,18.8839046 6.26573072,18.9278586 L6.17479271,18.934531 L4.61547331,18.934531 C4.30649949,18.934531 4.05070843,18.7068285 4.00675447,18.4100778 L4.00008205,18.3191397 L4.00008205,16.985792 C4.00008205,16.6459208 4.2756021,16.3704008 4.61547331,16.3704008 Z M13.736276,10.8174274 L13.8215051,10.8886348 L16.4850005,13.5521303 C16.4893995,13.5565293 16.4937181,13.5609784 16.4979561,13.5654756 C16.5144256,13.5834095 16.5297072,13.6016546 16.543908,13.6207512 C16.5499259,13.6283314 16.5554714,13.6361677 16.5608121,13.6441008 C16.5756715,13.6667003 16.5893931,13.6902765 16.601531,13.7147766 C16.6081401,13.7275947 16.6140064,13.7406106 16.6193973,13.7537754 C16.6284766,13.7763857 16.6364611,13.7996627 16.6430451,13.8235206 C16.6462479,13.8346878 16.6491076,13.8463903 16.6516199,13.8581522 L16.6608439,13.9135946 L16.6632566,13.9377026 C16.6639032,13.9457506 16.664392,13.9538089 16.6647231,13.9618724 L16.6651624,13.9876058 C16.6651624,13.9964336 16.6649765,14.005218 16.6646084,14.0139553 C16.6639974,14.0295912 16.6627218,14.0452945 16.6608463,14.0609395 C16.6587173,14.0788229 16.6558121,14.0965537 16.652167,14.114013 C16.6495038,14.1265437 16.6464491,14.1391521 16.6429914,14.1516724 C16.6251975,14.2163644 16.5970582,14.2767682 16.5604999,14.3310296 L16.541,14.357 L16.54,14.358 L16.4848697,14.4225556 L13.8213743,17.0844511 C13.5809769,17.3247041 13.1913327,17.324587 12.9510797,17.0841896 C12.7375215,16.870503 12.7138853,16.538893 12.8801081,16.2991026 L12.9513412,16.2138949 L14.563,14.602 L10.0513474,14.6029971 C8.94528641,14.6029971 8.14992779,14.2618865 7.6625647,13.6686904 L7.56284298,13.5377509 C7.26562344,13.1162636 7.16672137,12.6955042 7.16672137,12.3786038 C7.16672137,12.0387326 7.44224142,11.7632126 7.78211263,11.7632126 C8.12198384,11.7632126 8.39750389,12.0387326 8.39750389,12.3786038 C8.39750389,12.4639539 8.44042898,12.6465703 8.56869096,12.8284587 C8.78327209,13.1327564 9.17764269,13.3360809 9.85848143,13.3678552 L10.0513474,13.3722145 L14.564,13.372 L12.9512104,11.7589295 C12.737588,11.5453071 12.7138522,11.2137042 12.8800029,10.9738639 L12.9512104,10.8886348 C13.1648328,10.6750124 13.4964357,10.6512766 13.736276,10.8174274 Z M4.61539126,11.6781655 C4.92436508,11.6781655 5.18015614,11.905868 5.2241101,12.2026187 L5.23078252,12.2935567 L5.23078252,14.4265849 C5.23078252,14.7664561 4.95526247,15.0419762 4.61539126,15.0419762 C4.30641743,15.0419762 4.05062638,14.8142736 4.00667242,14.5175229 L4,14.4265849 L4,12.2935567 C4,11.9536855 4.27552005,11.6781655 4.61539126,11.6781655 Z M16.525,14.378 L16.5453929,14.3524552 C16.5288198,14.374931 16.5107545,14.3962389 16.4913431,14.4162328 L16.4848697,14.4225556 L16.525,14.378 Z M4.61539126,6.98437122 C4.92436508,6.98437122 5.18015614,7.21207374 5.2241101,7.50882447 L5.23078252,7.59976248 L5.23078252,9.73279064 C5.23078252,10.0726618 4.95526247,10.3481819 4.61539126,10.3481819 C4.30641743,10.3481819 4.05062638,10.1204794 4.00667242,9.82372865 L4,9.73279064 L4,7.59976248 C4,7.25989127 4.27552005,6.98437122 4.61539126,6.98437122 Z M15.1826028,3 C15.4915766,3 15.7473677,3.22770252 15.7913216,3.52445325 L15.797994,3.61539126 L15.797994,5.03850406 C15.797994,5.37837527 15.522474,5.65389532 15.1826028,5.65389532 C14.873629,5.65389532 14.6178379,5.4261928 14.5738839,5.12944207 L14.5672115,5.03850406 L14.5672115,4.23078252 L13.4277941,4.23078252 C13.0879229,4.23078252 12.8124028,3.95526247 12.8124028,3.61539126 C12.8124028,3.30641743 13.0401054,3.05062638 13.3368561,3.00667242 L13.4277941,3 L15.1826028,3 Z M6.17471066,3.00008205 C6.51458187,3.00008205 6.79010192,3.2756021 6.79010192,3.61547331 C6.79010192,3.92444714 6.5623994,4.18023819 6.26564867,4.22419215 L6.17471066,4.23086457 L5.23078252,4.23086457 L5.23078252,5.03858611 C5.23078252,5.37845732 4.95526247,5.65397737 4.61539126,5.65397737 C4.30641743,5.65397737 4.05062638,5.42627485 4.00667242,5.12952412 L4,5.03858611 L4,3.61547331 C4,3.30649949 4.22770252,3.05070843 4.52445325,3.00675447 L4.61539126,3.00008205 L6.17471066,3.00008205 Z M10.867028,3 C11.2068992,3 11.4824192,3.27552005 11.4824192,3.61539126 C11.4824192,3.92436508 11.2547167,4.18015614 10.957966,4.2241101 L10.867028,4.23078252 L8.73399983,4.23078252 C8.39412862,4.23078252 8.11860857,3.95526247 8.11860857,3.61539126 C8.11860857,3.30641743 8.34631109,3.05062638 8.64306182,3.00667242 L8.73399983,3 L10.867028,3 Z" id="Combined-Shape" fill="#000000" fill-rule="nonzero"></path>
    </g>
</svg>