<?xml version="1.0" encoding="UTF-8"?>
<svg width="24px" height="24px" viewBox="0 0 24 24" version="1.1" xmlns="http://www.w3.org/2000/svg" xmlns:xlink="http://www.w3.org/1999/xlink">
    <!-- Generator: Sketch 57.1 (83088) - https://sketch.com -->
    <title>Tables-comb.screenscript</title>
    <desc>Created with Sketch.</desc>
    <g id="Tables-comb.screenscript" stroke="none" stroke-width="1" fill="none" fill-rule="evenodd">
        <path d="M11.5,3 C16.7361136,3 21,7.26388641 21,12.5 C21,17.7361136 16.7361136,22 11.5,22 C6.26388641,22 2,17.7361136 2,12.5 C2,7.26388641 6.26388641,3 11.5,3 Z M11.5,4.32571292 C6.99319819,4.32571292 3.32571292,7.99319819 3.32571292,12.5 C3.32571292,17.0068018 6.9929154,20.6742871 11.5,20.6742871 C16.0068018,20.6742871 19.6742871,17.0068018 19.6742871,12.5 C19.6742871,7.99319819 16.0068018,4.32571292 11.5,4.32571292 Z M12.3449723,7.9434274 L12.3449949,7.94339742 C12.6713638,8.01370895 12.8927504,8.30765718 12.8722093,8.6344076 L12.8586521,8.73322596 L11.2127377,16.5486543 C11.146452,16.8579628 10.8758234,17.0733685 10.5665092,17.0733685 C10.5223235,17.0733685 10.4726149,17.0678454 10.4284292,17.0567988 C10.1020603,16.986513 9.88067376,16.6925438 9.90121487,16.3699536 L9.91477198,16.2725129 L11.5606864,8.4570846 C11.6239437,8.1633526 11.8683845,7.9546563 12.1518083,7.93082884 L12.2475317,7.92987029 Z M14.4509133,9.65313344 L14.5377433,9.71628565 L17.1778011,11.969811 C17.3269268,12.091297 17.4097754,12.2791251 17.4097754,12.4724111 C17.4097754,12.6270399 17.3567523,12.7746248 17.2591907,12.8925152 L17.1778011,12.9750113 L14.5377151,15.2229544 C14.4106864,15.3334201 14.2615664,15.3831287 14.1069149,15.3831287 C13.9191433,15.3831287 13.7368719,15.3058058 13.6043148,15.1511544 C13.3905622,14.9026002 13.4005085,14.5377391 13.6059559,14.294117 L13.6816405,14.2177258 L15.7307549,12.4723829 L13.6816405,10.7270399 C13.3999548,10.4895258 13.3668176,10.0697714 13.6043148,9.79361136 C13.8180775,9.54009421 14.1794548,9.48790139 14.4509133,9.65313344 Z M9.39577008,9.79371316 C9.60949717,10.0422063 9.6040219,10.4070681 9.39544275,10.6466648 L9.31841609,10.7215595 L7.26930166,12.4669024 L9.31841609,14.2122453 C9.6001018,14.4497595 9.63323897,14.8695139 9.3957418,15.1456739 C9.26871316,15.3003225 9.08093023,15.3776482 8.89314163,15.3776482 C8.76942954,15.3776482 8.64924665,15.3422983 8.54108042,15.274429 L8.46234149,15.217474 L5.82225546,12.9695309 C5.67312973,12.8480449 5.59028115,12.6602422 5.59028115,12.4669307 C5.59028115,12.3123019 5.64330424,12.164717 5.74086585,12.0468267 L5.82225546,11.9643305 L8.46234149,9.71638745 C8.73851283,9.47888462 9.15827291,9.51755313 9.39577008,9.79371316 Z" id="Combined-Shape" fill="#000000" fill-rule="nonzero"></path>
    </g>
</svg>