<?xml version="1.0" encoding="UTF-8"?>
<svg width="24px" height="24px" viewBox="0 0 24 24" version="1.1" xmlns="http://www.w3.org/2000/svg" xmlns:xlink="http://www.w3.org/1999/xlink">
    <!-- Generator: Sketch 57.1 (83088) - https://sketch.com -->
    <title>Tables-unavailable</title>
    <desc>Created with Sketch.</desc>
    <g id="Tables-unavailable" stroke="none" stroke-width="1" fill="none" fill-rule="evenodd">
        <path d="M19.7659021,13.4950253 L19.7539704,13.5784799 L19.7539704,13.6142462 C19.7539704,13.6380903 19.730107,13.7453891 19.730107,13.7692333 C19.6585167,14.1984283 19.563063,14.6157012 19.4318142,15.0210521 C19.3721556,15.2118054 19.3005654,15.3906367 19.2289751,15.58139 C19.2170434,15.6171563 19.19318,15.6767667 19.1693165,15.7244551 L19.1693165,15.7363771 L19.1573848,15.7602213 L19.1454531,15.7721434 C19.0977263,15.8794421 19.0499994,15.998663 18.9903409,16.1059617 C18.8113652,16.4874684 18.5965944,16.8451309 18.3579602,17.1908714 C18.2983017,17.2862481 18.2386431,17.3577806 18.1789845,17.4531572 C18.1551211,17.4889235 18.119326,17.5366118 18.0954626,17.5723781 L18.0835309,17.5843002 L18.0835309,17.5962222 C18.0715991,17.5962222 18.0715991,17.5962222 18.0715991,17.6081443 C17.9403503,17.7631314 17.7852381,17.9419627 17.6539893,18.0969498 C17.3676282,18.406924 17.0693354,18.693054 16.7471792,18.9553398 C16.7113841,18.9911061 16.6636573,19.0149502 16.6278621,19.0507165 L16.6159304,19.0626386 L16.6039987,19.0745607 L16.5801353,19.0864827 C16.4966133,19.1580153 16.4130913,19.2176257 16.3295694,19.2772361 C16.1505937,19.3964569 15.9835497,19.5037557 15.8045741,19.6110544 C15.6255984,19.7183532 15.434691,19.825652 15.2557154,19.9210286 C15.1602617,19.9567949 15.0767397,20.0044832 14.9932177,20.0521716 L14.8739006,20.0998599 L14.8500372,20.111782 C14.8261738,20.1237041 14.7903786,20.1356261 14.7665152,20.1475482 L14.7545835,20.1594703 L14.7426518,20.1594703 C14.3608371,20.3144574 13.9551589,20.4456003 13.5614124,20.5528991 C13.3585733,20.6005874 13.1438025,20.6482758 12.9290317,20.684042 L12.7739195,20.7198083 L12.6546024,20.7317303 L12.6068756,20.7436524 L12.547217,20.7436524 C12.4875584,20.7555745 12.4398316,20.7555745 12.3921048,20.7674966 C11.926768,20.8151849 11.4614313,20.8151849 10.9960946,20.7913408 C10.4949627,20.7674966 10.2921236,20.7317303 9.80292349,20.6363537 C9.38531361,20.540977 8.96770373,20.4217562 8.57395727,20.2786912 C8.47850358,20.2429249 8.3830499,20.2071586 8.29952792,20.1713924 L8.2756645,20.1594703 C8.26373279,20.1594703 8.25180108,20.1475482 8.23986937,20.1475482 L8.22793766,20.1356261 L8.21600594,20.1356261 L8.13248397,20.0879378 C7.91771317,19.9925611 7.71487409,19.8971845 7.512035,19.7898857 C7.15408367,19.5872103 6.79613235,19.3606907 6.46204444,19.1103269 C6.45011273,19.0984048 6.4143176,19.0745607 6.39045418,19.0626386 L6.37852247,19.0507165 L6.35465904,19.0268723 C6.33079562,19.0149502 6.31886391,18.9911061 6.29500049,18.979184 L6.1995468,18.9076515 C6.46204444,18.6334436 6.73647379,18.3592356 7.01090314,18.0850277 L13.6687978,11.4444269 L16.8068378,8.30891879 C17.1767208,7.93933418 17.5466039,7.58167166 17.9164869,7.21208706 C18.8113652,8.2969967 19.4079508,9.58458178 19.6704484,11.0152319 C19.7659021,11.456349 19.8136289,11.885544 19.8136289,12.3624274 C19.8255606,12.3981936 19.8255606,12.4458819 19.8255606,12.4935703 C19.8255606,12.5531807 19.8255606,12.6127911 19.8136289,12.6724015 C19.8136289,12.8393107 19.8136289,13.0062199 19.8016972,13.161207 C19.8016972,13.1969732 19.7897655,13.2327395 19.7897655,13.2685057 L19.7897655,13.2804278 C19.7778338,13.3519603 19.7778338,13.4234928 19.7659021,13.4950253 M5.17341967,17.8942743 C5.12569282,17.8227418 5.06603427,17.7631314 5.00637571,17.6915989 L4.95864887,17.6319885 L4.93478545,17.5962222 L4.89899032,17.560456 C4.87512689,17.5246897 4.85126347,17.4889235 4.85126347,17.4770014 C4.60069754,17.1431831 4.37399504,16.7974426 4.17115595,16.427858 C4.07570226,16.2371047 3.98024858,16.0463513 3.8967266,15.855598 L3.86093147,15.7840655 L3.84899976,15.7482992 L3.83706805,15.7482992 L3.83706805,15.7244551 C3.82513633,15.6886888 3.81320462,15.6767667 3.81320462,15.6648446 C3.76547778,15.569468 3.72968265,15.4621692 3.69388751,15.3667925 C3.55070698,14.9614417 3.43138987,14.5560908 3.3478679,14.1388179 C3.32400448,14.0315191 3.30014105,13.9242204 3.28820934,13.8169216 C3.27627763,13.7573112 3.26434592,13.7096229 3.26434592,13.6500124 L3.25241421,13.6380903 L3.25241421,13.6261683 L3.25241421,13.6142462 L3.25241421,13.590402 C3.22855079,13.3638824 3.20468737,13.1373628 3.19275566,12.8989211 C3.16889223,12.4458819 3.18082395,11.9928428 3.22855079,11.5517256 C3.2404825,11.5040373 3.2404825,11.456349 3.25241421,11.4086606 L3.25241421,11.3848165 C3.26434592,11.2775177 3.28820934,11.170219 3.30014105,11.0629202 C3.3478679,10.8244785 3.39559474,10.5979589 3.4552533,10.3714393 C3.50298014,10.180686 3.56263869,10.0018547 3.62229725,9.81110137 C3.65809238,9.7157247 3.69388751,9.60842594 3.72968265,9.51304927 C3.75354607,9.46536094 3.76547778,9.4176726 3.7893412,9.36998426 L3.7893412,9.3461401 C3.80127291,9.32229593 3.81320462,9.28652968 3.82513633,9.26268551 L3.82513633,9.23884134 L3.83706805,9.22691926 C4.004112,8.85733465 4.19501937,8.48775005 4.40979017,8.14200961 C4.50524386,7.98702252 4.61262925,7.82011334 4.72001465,7.66512625 L4.81546834,7.53398332 C4.83933176,7.49821707 4.87512689,7.45052874 4.89899032,7.41476248 L4.91092203,7.4028404 L4.91092203,7.39091832 C4.92285374,7.37899623 4.93478545,7.36707415 4.93478545,7.36707415 L4.93478545,7.35515206 L5.06603427,7.20016497 C5.34046362,6.89019079 5.62682468,6.5802166 5.93704916,6.30600867 L6.16375167,6.10333324 L6.37852247,5.92450198 C6.40238589,5.9125799 6.45011273,5.87681364 6.45011273,5.87681364 C6.48590786,5.85296948 6.50977129,5.82912531 6.53363471,5.80528114 C6.64102011,5.73374864 6.73647379,5.66221613 6.83192748,5.60260571 C7.18987881,5.36416403 7.54783013,5.1614886 7.92964488,4.97073526 C8.02509857,4.92304692 8.10862055,4.88728067 8.20407423,4.83959233 L8.21600594,4.83959233 C8.25180108,4.82767025 8.26373279,4.81574817 8.26373279,4.81574817 C8.31145963,4.80382608 8.35918648,4.77998191 8.40691332,4.75613775 C8.6097524,4.68460524 8.81259149,4.61307274 9.01543057,4.55346232 C9.43304046,4.42231939 9.86258205,4.32694272 10.2921236,4.25541022 L10.3279188,4.25541022 C10.3875773,4.24348813 10.4353042,4.24348813 10.4949627,4.23156605 C10.6023481,4.21964396 10.7097335,4.20772188 10.8171189,4.1957998 C11.0676848,4.18387771 11.3063191,4.17195563 11.556885,4.17195563 C12.093812,4.18387771 12.5233536,4.21964396 13.000622,4.31502064 C13.4898222,4.41039731 13.9790223,4.54154023 14.4562907,4.72037149 C14.694925,4.80382608 14.7545835,4.83959233 14.9932177,4.94689109 C15.231852,5.05418985 15.4704862,5.18533277 15.6971887,5.31647569 C15.9000278,5.43569653 16.0790034,5.55491738 16.2699108,5.6860603 L16.4011596,5.78143697 C16.5562719,5.88873573 16.6517255,5.96026823 16.8307012,6.11525532 L17.0931989,6.34177492 L16.2699108,7.16439872 C15.2676471,8.16585378 14.2653834,9.16730884 13.2511879,10.1687639 L9.62394783,13.8049995 L6.47397615,16.9405076 C6.10409312,17.3220143 5.71034666,17.6915989 5.34046362,18.0731056 C5.28080506,18.0134952 5.23307822,17.9538848 5.17341967,17.8942743 M20.9877093,12.0643753 C20.9137327,10.5335797 20.4853843,9.03378149 19.7038572,7.69731588 C19.4330074,7.2323546 19.1227829,6.78885307 18.7755701,6.37754117 C18.6443213,6.22255408 18.5130724,6.06756699 18.3579602,5.9125799 C17.0216086,4.51769606 15.231852,3.52816309 13.3347099,3.17050057 C11.3301825,2.78899388 9.2659965,3.05127973 7.41658131,3.92159186 C5.7580735,4.69652733 4.35013161,5.9841124 3.39559474,7.53398332 C2.41719445,9.13154258 1.91606259,11.039076 2.01151628,12.9108432 C2.09503825,14.7826104 2.72741893,16.6186114 3.83706805,18.1088719 C4.17115595,18.549989 4.52910728,18.9553398 4.94671716,19.3606907 C5.88932232,20.2667691 7.01090314,20.970172 8.26373279,21.4232112 C10.0534894,22.0908479 12.0460851,22.1743025 13.8955003,21.6974191 C15.6613935,21.24438 17.3079696,20.254847 18.5369359,18.8957294 C19.8649353,17.4281209 20.7431092,15.5563537 20.9471415,13.5832488 C20.999641,13.0765602 21.0127659,12.5698716 20.9877093,12.0643753" id="Fill-1" stroke="#000000" stroke-width="0.4" fill="#000000"></path>
    </g>
</svg>