<?xml version="1.0" encoding="UTF-8"?>
<svg width="24px" height="24px" viewBox="0 0 24 24" version="1.1" xmlns="http://www.w3.org/2000/svg" xmlns:xlink="http://www.w3.org/1999/xlink">
    <!-- Generator: Sketch 57.1 (83088) - https://sketch.com -->
    <title>Tables-morefunctions</title>
    <desc>Created with Sketch.</desc>
    <g id="Tables-morefunctions" stroke="none" stroke-width="1" fill="none" fill-rule="evenodd">
        <path d="M11.7305255,18.475223 C12.6780574,18.475223 13.461051,19.2913854 13.461051,20.2376115 C13.461051,21.2170064 12.6767516,22 11.7305255,22 C10.7829936,22 10,21.1838376 10,20.2376115 C10,19.2901122 10.7830262,18.5071043 11.7305255,18.475223 Z M11.7305255,10.7685604 C12.6780574,10.7685604 13.461051,11.5528598 13.461051,12.4990859 C13.461051,13.4466178 12.6767516,14.2296114 11.7305255,14.2296114 C10.7829936,14.2296114 10,13.445312 10,12.4990859 C10,11.5528272 10.7830262,10.7698356 11.7305255,10.7685604 Z M11.7305255,3 C12.6780574,3 13.461051,3.78429944 13.461051,4.73052551 C13.461051,5.67805743 12.6767516,6.46105101 11.7305255,6.46105101 C10.7829936,6.46105101 10,5.67675157 10,4.73052551 C10,3.78299358 10.7829936,3 11.7305255,3 Z" id="Combined-Shape" fill="#000000"></path>
    </g>
</svg>