<?xml version="1.0" encoding="UTF-8"?>
<svg width="24px" height="24px" viewBox="2 3 19 19" version="1.1" xmlns="http://www.w3.org/2000/svg" xmlns:xlink="http://www.w3.org/1999/xlink">
    <!-- Generator: Sketch 57.1 (83088) - https://sketch.com -->
    <title>Tables-photo</title>
    <desc>Created with Sketch.</desc>
    <g id="Tables-photo" stroke="none" stroke-width="1" fill="none" fill-rule="evenodd">
        <path d="M18.2041035,3 C19.745372,3 20.9982606,4.25277973 20.9991303,5.79413721 L20.9991303,5.79413721 L21,19.2058624 C21,20.7471086 19.7463528,22 18.2058629,22 L18.2058629,22 L4.79413822,22 C3.25289202,22 2,20.7463524 2,19.2058624 L2,19.2058624 L2,5.79413721 C2,4.25289095 3.25364827,3 4.79413822,3 L4.79413822,3 Z M7.62651066,12.1727196 L3.11723335,17.1833492 L3.11723335,19.2043053 C3.11723335,20.1296492 3.87055157,20.8812103 4.79413822,20.8812103 L4.79413822,20.8812103 L18.2040835,20.8812103 C19.1294273,20.8812103 19.8809884,20.127892 19.8809884,19.2043053 L19.8809884,19.2043053 L19.8818114,19.20455 L19.8809439,17.2305039 L17.0868068,14.9027976 L13.7181366,17.7100581 L7.62651066,12.1727196 Z M18.2059073,4.1174547 L4.79418271,4.1174547 C3.86883888,4.1174547 3.11727783,4.87077295 3.11727783,5.79435963 L3.11727783,5.79435963 L3.11727783,15.5133395 L7.54848301,10.5903465 L13.7495456,16.2293344 L17.0868512,13.4489877 L19.8809883,15.7766939 L19.8819425,15.7766939 L19.8828123,5.79435963 C19.8828123,4.86901577 19.129494,4.1174547 18.2059073,4.1174547 L18.2059073,4.1174547 Z M14.8529412,6.35294118 C16.3941766,6.35294118 17.6470588,7.60571214 17.6470588,9.14705882 C17.6470588,10.6882943 16.3934204,11.9411765 14.8529412,11.9411765 C13.3125732,11.9411765 12.0588235,10.687538 12.0588235,9.14705882 C12.0588235,7.60582335 13.312462,6.35294118 14.8529412,6.35294118 Z M14.8529412,7.47085515 C13.9284713,7.47085515 13.1769154,8.22241096 13.176048,9.14774835 C13.176048,10.0730857 13.9276038,10.8246415 14.8529412,10.8246415 C15.7782785,10.8246415 16.5298344,10.0730857 16.5298344,9.14774835 C16.5298344,8.22241096 15.7765214,7.47085515 14.8529412,7.47085515 Z" id="Combined-Shape" stroke="#000000" stroke-width="0.2" fill="#000000" fill-rule="nonzero"></path>
    </g>
</svg>