<?xml version="1.0" encoding="UTF-8"?>
<svg width="24px" height="24px" viewBox="0 0 24 24" version="1.1" xmlns="http://www.w3.org/2000/svg" xmlns:xlink="http://www.w3.org/1999/xlink">
    <!-- Generator: Sketch 57.1 (83088) - https://sketch.com -->
    <title>Tables-add</title>
    <desc>Created with Sketch.</desc>
    <g id="Tables-add" stroke="none" stroke-width="1" fill="none" fill-rule="evenodd">
        <path d="M11.5,3 C16.7384727,3 21,7.26152727 21,12.5001727 C21,17.7384727 16.7384727,22 11.5,22 C6.2617,22 2,17.7384727 2,12.5 C2,7.2617 6.2617,3 11.5,3 Z M11.5,4.15640909 C6.89923636,4.15658182 3.15658182,7.89923636 3.15658182,12.5 C3.15658182,17.1004182 6.89940909,20.8434182 11.5,20.8435909 C16.1005909,20.8437636 19.8435909,17.1007636 19.8435909,12.5 C19.8435909,7.89923636 16.1005909,4.15640909 11.5,4.15640909 Z M11.4781606,6.95313962 C11.8172168,6.95313962 12.0920925,7.22801537 12.0920925,7.56707159 L12.0920925,7.56707159 L12.0922759,11.864412 L16.3896163,11.8642286 C16.7286725,11.8642286 17.0037316,12.1391044 17.0037316,12.4781606 C17.0037316,12.8172168 16.7286725,13.0920925 16.3896163,13.0920925 L16.3896163,13.0920925 L12.0922759,13.0920925 L12.0924593,17.3894329 C12.0924593,17.7286725 11.8175835,18.0035483 11.4785273,18.0035483 C11.1394711,18.0035483 10.8645953,17.7286725 10.8645953,17.3894329 L10.8645953,17.3894329 L10.864412,13.0920925 L6.56707159,13.0924593 C6.22801537,13.0924593 5.95313962,12.8175835 5.95313962,12.4785273 C5.95313962,12.1394711 6.22801537,11.8645953 6.56707159,11.8645953 L6.56707159,11.8645953 L10.864412,11.864412 L10.8642286,7.56707159 C10.8642286,7.22801537 11.1391044,6.95313962 11.4781606,6.95313962 Z" id="Combined-Shape" fill="#000000"></path>
    </g>
</svg>