<svg xmlns="http://www.w3.org/2000/svg" width="24" height="24" viewBox="0 0 24 24">
    <path fill="#3A79FF" fill-rule="evenodd" d="M13.845 2.201c.267.26.287.678.056.961l-.041.046-2.118 2.18c.963-.061 1.93.055 2.9.328 3.842 1.08 5.917 4.772 5.95 7.634.036 3.298-1.319 5.859-4.209 7.535-1.957 1.135-4.035 1.395-6.226.819-4.169-1.096-6.227-4.94-6.155-8.027.01-.457.32-.788.743-.788.421 0 .743.336.74.791-.01 1.322.354 2.538 1.065 3.644 1.31 2.04 3.211 3.067 5.612 3.183 1.425.068 2.731-.368 3.893-1.147 2.265-1.519 3.282-3.708 3.004-6.395-.35-3.39-3.3-6.502-7.55-6.052l2.392 2.355c.265.262.282.68.049.962l-.042.045c-.261.266-.68.283-.961.05l-.046-.042-3.532-3.48c-.264-.26-.282-.676-.051-.958l.04-.045 3.48-3.584c.274-.282.725-.289 1.007-.015z"/>
</svg>
