<?xml version="1.0" encoding="UTF-8"?>
<svg width="24px" height="24px" viewBox="0 0 24 24" version="1.1" xmlns="http://www.w3.org/2000/svg" xmlns:xlink="http://www.w3.org/1999/xlink">
    <!-- Generator: Sketch 57.1 (83088) - https://sketch.com -->
    <title>Tables-seasonyear</title>
    <desc>Created with Sketch.</desc>
    <g id="Tables-seasonyear" stroke="none" stroke-width="1" fill="none" fill-rule="evenodd">
        <path d="M16.0034502,5.82617323 C17.8597928,5.82617323 19.3701036,7.66417894 19.3701036,9.9239862 C19.3701036,11.1906122 18.8773992,12.3883306 18.0635163,13.1591694 C18.1082126,13.2709063 18.1508306,13.3838967 18.1882491,13.5006538 C20.1340002,13.6035009 21.6890152,15.4692753 21.6890152,17.7479164 C21.6890152,20.0929582 20.0425428,22 18.0187456,22 L18.0187456,22 L5.67026957,22 C3.64647234,22 2,20.0918654 2,17.7479164 C2.00044412,15.5697762 3.42233098,13.7681912 5.2465558,13.5233766 C5.23304316,13.3651753 5.22680639,13.2069868 5.22680639,13.0500551 C5.22680639,10.262803 7.18506404,7.99544293 9.5934506,7.99544293 C10.7606299,7.99544293 11.854127,8.53905398 12.659681,9.46181718 C12.8488757,7.41933863 14.2758982,5.82617323 16.0034502,5.82617323 Z M9.59410254,9.06744334 C7.67533361,9.06744334 6.11409199,10.8553754 6.11409199,13.0511603 C6.11409199,13.3336363 6.14319497,13.6249024 6.19932538,13.9161685 C6.23050923,14.0781237 6.19828494,14.2476125 6.11097334,14.3769234 C6.02470484,14.5062343 5.89893697,14.5828177 5.75549497,14.5740298 C5.74821989,14.5740298 5.70040501,14.5702633 5.69208949,14.5702633 L5.69208949,14.5702633 C4.13380553,14.5700583 2.886478,15.9950044 2.886478,17.7488684 C2.886478,19.5027323 4.1359077,20.928932 5.67011391,20.928932 L5.67011391,20.928932 L18.0196543,20.9276766 C19.5538605,20.9276766 20.8022258,19.501477 20.8022258,17.747613 C20.8022258,15.9937491 19.5538605,14.5675494 18.0196543,14.5675494 L18.0196543,14.5675494 L17.8918029,14.575082 C17.6859879,14.5826349 17.5040843,14.4269437 17.4469161,14.1896626 C17.3637609,13.8431644 17.2379878,13.5205107 17.0820711,13.221711 C17.0197061,13.0999465 16.9511037,12.9831894 16.8783423,12.8714524 C16.8658682,12.8526186 16.8565133,12.833787 16.8440398,12.8162107 C16.7619224,12.6944366 16.6725326,12.581443 16.5800215,12.4722194 C16.5488376,12.4358115 16.5145351,12.4006603 16.4823135,12.3655059 C16.4157894,12.2939469 16.3471843,12.2248947 16.2765038,12.1596125 C16.2380449,12.1244613 16.1995833,12.0880535 16.1590461,12.0541557 C16.0717372,11.98134 15.9823474,11.912291 15.8898362,11.8482623 C15.8555364,11.8244082 15.8222743,11.8018117 15.7879718,11.7792133 C15.6881989,11.7151846 15.5852941,11.6574328 15.480311,11.6047044 C15.434577,11.5821069 15.3888403,11.5620196 15.3431063,11.5419323 C15.2599511,11.5055244 15.1757555,11.4728833 15.0905222,11.4427524 C15.0427073,11.4264305 14.9959328,11.408854 14.9481179,11.3950442 C14.8358704,11.3624031 14.7225718,11.3360389 14.6082328,11.3159516 C14.5624988,11.3084187 14.5157217,11.3033972 14.4699877,11.2971196 C14.3691717,11.2845652 14.2673073,11.2757769 14.1644024,11.2732662 C14.1030751,11.2720105 14.0427883,11.2745215 13.981461,11.2770323 C13.9076618,11.2807988 13.8338626,11.2845652 13.7579825,11.2946089 C13.7278391,11.298375 13.6976957,11.3033972 13.6675523,11.3071633 C13.5448951,11.3272506 13.4201623,11.3536148 13.2871141,11.3900227 L13.2871141,11.3900227 L13.2746408,11.3900227 C13.2361818,11.4013217 13.1977229,11.4075989 13.159264,11.4201536 C12.9638427,11.4829289 12.7590787,11.3774689 12.660333,11.1665521 C12.0523822,9.87218953 10.8767677,9.06744334 9.59410254,9.06744334 Z M19.9035604,12.0582134 L19.9761517,12.0993624 L20.7661498,12.6555369 C20.9781941,12.8036688 21.0499151,13.1313428 20.9262228,13.3874545 C20.8441054,13.5581967 20.6954692,13.6536131 20.5426713,13.6536131 C20.4920846,13.6536131 20.4410366,13.6430113 20.3919905,13.6214362 L20.3202305,13.5807974 L19.5302431,13.0246197 C19.3181988,12.8764878 19.2464778,12.548817 19.3701701,12.2927021 C19.4791869,12.0650472 19.7056531,11.9713069 19.9035604,12.0582134 Z M16.0033469,6.89818135 C14.6364888,6.89818135 13.5242835,8.25534487 13.5253222,9.92635265 C13.5253222,10.0330661 13.5294806,10.1397796 13.5398752,10.2477497 C13.5419539,10.2464944 13.5450723,10.2464944 13.5481907,10.2464944 C13.7228032,10.2201295 13.8974317,10.2038083 14.0699794,10.202553 C14.0782949,10.202553 14.0866104,10.2000422 14.0949259,10.2000422 C14.1302662,10.2000422 14.1656065,10.2063194 14.2019872,10.2075748 C14.3132129,10.2100859 14.4223524,10.2176184 14.5314946,10.2301732 C14.5886627,10.2377058 14.6447932,10.246494 14.7019613,10.2552823 C14.8017529,10.2716061 14.8994608,10.2929472 14.9971688,10.3168009 C15.051221,10.3306123 15.106311,10.3419114 15.1593227,10.3582322 C15.2965221,10.3996603 15.4326864,10.4461119 15.5646942,10.5013536 C15.6187464,10.5239542 15.6707177,10.5515735 15.7237295,10.5766826 C15.8068846,10.6156006 15.8889994,10.6557753 15.9700763,10.7009733 C16.0366005,10.7373812 16.1010464,10.7775558 16.1654923,10.8177305 C16.2309787,10.8591585 16.2943841,10.9018465 16.3577896,10.9470414 C16.4232733,10.9934929 16.488757,11.0374343 16.5511247,11.0876526 C16.6249239,11.1466611 16.6956072,11.2094332 16.7662877,11.2734619 C16.8535993,11.3525545 16.9377949,11.4341605 17.0199097,11.5207866 C17.0801965,11.5835619 17.1394456,11.646334 17.1966137,11.7128728 C17.2454691,11.7693712 17.2922435,11.8283765 17.339018,11.8886384 C17.401383,11.9677311 17.4606321,12.0505937 17.5188407,12.1359632 C17.5427494,12.1711176 17.5708136,12.2037587 17.5947208,12.2401665 C18.1497715,11.6702009 18.4823922,10.8202663 18.4823922,9.92511109 C18.4823922,8.25535676 17.3701885,6.89818135 16.0033304,6.89818135 Z M21.2451661,9.38773515 C21.4904832,9.38773515 21.6890152,9.62753595 21.6890152,9.92382551 C21.6890152,10.1872026 21.5321441,10.4059313 21.3249955,10.4512861 L21.2451661,10.4599159 L20.3325348,10.4599159 C20.0872178,10.4599159 19.8886858,10.2201247 19.8886858,9.92382551 C19.8886858,9.66044844 20.0455569,9.4417197 20.2527055,9.39636489 L20.3325348,9.38773515 L21.2451661,9.38773515 Z M11.6141488,6.22541534 L11.6864675,6.26656438 L12.4774927,6.82274206 C12.6895371,6.97212743 12.7612581,7.2997982 12.6375657,7.55591311 C12.5554484,7.72665211 12.4068122,7.82206848 12.2540142,7.82206848 C12.2034275,7.82206848 12.1523795,7.81146666 12.1033334,7.78989163 L12.0315735,7.74925275 L11.2405616,7.19307508 C11.029555,7.04368971 10.957834,6.71601894 11.0794481,6.45990402 C11.1893874,6.23224917 11.4167781,6.13850883 11.6141488,6.22541534 Z M20.9262069,6.45998758 C21.0361556,6.68650826 20.9917058,6.97058774 20.8315433,7.13584711 L20.7661338,7.19190519 L19.9761464,7.74808287 C19.9065036,7.79704482 19.8295858,7.82089859 19.7537057,7.82089859 C19.6009104,7.82089859 19.4522689,7.72548544 19.3701541,7.55474323 C19.2602054,7.32822256 19.3046573,7.04414307 19.4648184,6.8788837 L19.5302272,6.82282562 L20.3202252,6.26664795 C20.5312132,6.11724972 20.8035523,6.20512933 20.9262069,6.45998758 Z M13.7216956,4.04663877 L13.7674569,4.12606294 L14.2237592,5.08900078 C14.3443302,5.34508998 14.2715741,5.67277682 14.0584893,5.81966494 C13.989887,5.86737216 13.9140069,5.88997055 13.8391672,5.88997055 C13.7109775,5.88997055 13.5856685,5.82283873 13.4999396,5.7001997 L13.4535455,5.62004841 L12.9972431,4.65711057 C12.8766721,4.40102137 12.9494282,4.07333453 13.162513,3.92644641 C13.3519028,3.79699909 13.5864898,3.85204926 13.7216956,4.04663877 Z M18.8441531,3.92644641 C19.0335618,4.05700506 19.1129177,4.32942155 19.0428005,4.56910475 L19.009423,4.65711057 L18.5531207,5.62004841 C18.4710033,5.79330073 18.3213293,5.88997055 18.1674936,5.88997055 C18.0926592,5.88997055 18.0178196,5.86737312 17.9481768,5.81966494 C17.7587681,5.68910629 17.6794122,5.4166898 17.7495294,5.1770066 L17.7829069,5.08900078 L18.2392092,4.12606294 C18.3608154,3.86869457 18.6310683,3.7795583 18.8441531,3.92644641 Z M16.0033304,3 C16.22139,3 16.4024849,3.18947224 16.4400361,3.4396708 L16.447181,3.53609036 L16.447181,4.64841357 C16.447181,4.9434561 16.2486384,5.18324855 16.0043698,5.18450392 C15.7863102,5.18450392 15.6052166,4.99503169 15.5676656,4.74483312 L15.5605208,4.64841357 L15.5594814,3.53609036 C15.5594814,3.23979116 15.7580133,3 16.0033304,3 Z" id="Combined-Shape" stroke="#000000" stroke-width="0.3" fill="#000000"></path>
    </g>
</svg>