<?xml version="1.0" encoding="UTF-8"?>
<svg width="24px" height="24px" viewBox="0 0 24 24" version="1.1" xmlns="http://www.w3.org/2000/svg" xmlns:xlink="http://www.w3.org/1999/xlink">
    <!-- Generator: Sketch 57.1 (83088) - https://sketch.com -->
    <title>Tables-edit</title>
    <desc>Created with Sketch.</desc>
    <defs>
        <path d="M15.1153043,3.4981031 C15.7786216,2.8355552 16.8513733,2.83397079 17.5107298,3.49334175 L20.5059763,6.48869121 C21.166125,7.14886249 21.1645406,8.22163066 20.5020094,8.88419888 L7.93785773,21.4487824 C7.60699124,21.7796603 6.95636907,22.0256299 6.49298537,21.9978621 L3.09779025,21.7979054 C2.63044565,21.7709277 2.22897373,21.366255 2.20197873,20.9028756 L2.00202885,17.5075634 C1.97505214,17.0402027 2.22022321,16.3935192 2.55108969,16.0626414 L15.1153043,3.4981031 Z M6.56774387,20.3478261 C6.55019474,20.3462318 6.72966994,20.2784509 6.71690732,20.2912096 L19.3478261,7.66406982 C19.3510152,7.66088114 16.3413571,4.65217391 16.3413571,4.65217391 C16.3437504,4.65456644 3.7088073,17.2833965 3.7088073,17.2833965 C3.71997511,17.2730303 3.65297031,17.4484629 3.65217391,17.4325154 L3.8141,20.1851522 L6.56774387,20.3478261 Z M14.7451413,6.30434783 L17.6956522,9.25430076 L16.5157283,10.4347826 L13.5652174,7.48482967 L14.7451413,6.30434783 Z" id="path-1"></path>
    </defs>
    <g id="Tables-edit" stroke="none" stroke-width="1" fill="none" fill-rule="evenodd">
        <mask id="mask-2" fill="white">
            <use xlink:href="#path-1"></use>
        </mask>
        <use id="edit" fill="#000000" xlink:href="#path-1"></use>
    </g>
</svg>