<?xml version="1.0" encoding="UTF-8"?>
<svg width="24px" height="24px" viewBox="0 0 24 24" version="1.1" xmlns="http://www.w3.org/2000/svg" xmlns:xlink="http://www.w3.org/1999/xlink">
    <!-- Generator: Sketch 63.1 (92452) - https://sketch.com -->
    <title>web icons/menu/settings/file</title>
    <desc>Created with Sketch.</desc>
    <g id="web-icons/menu/settings/file" stroke="none" stroke-width="1" fill="none" fill-rule="evenodd">
        <path d="M15.3227608,2.85 L15.4182584,2.86129907 L15.4778871,2.87681584 C15.5008934,2.88392301 15.5008934,2.88392301 15.5272317,2.89419431 C15.5645222,2.91015613 15.5995661,2.93042433 15.6316386,2.95462804 L15.6774281,2.99383887 L19.2375847,6.45502817 C19.2660776,6.48304314 19.2909751,6.51430867 19.313241,6.55163394 L19.3447865,6.6125178 L19.3567075,6.64562341 L19.3746125,6.70936115 L19.3880952,6.80675285 L19.3880952,21.3413818 C19.3880952,21.5857718 19.2083952,21.7876853 18.9729153,21.8295378 L18.8822377,21.8375 L5.35597022,21.8375 C5.10840328,21.8375 4.9011764,21.6627603 4.85818237,21.4308137 L4.85,21.3413818 L4.85,3.3460087 C4.85,3.10160204 5.02971368,2.899788 5.26526361,2.8579578 L5.35597022,2.85 L15.3227608,2.85 Z M14.816,3.842 L5.861,3.842 L5.861,20.845 L18.376,20.845 L18.376,7.302 L15.3226106,7.30268853 C15.075175,7.30268853 14.8679647,7.12797612 14.8249727,6.89613958 L14.8167906,6.80675285 L14.816,3.842 Z M15.828,4.535 L15.828,6.31 L17.653,6.31 L15.828,4.535 Z" id="Combined-Shape" fill="#4A4A4A"></path>
    </g>
</svg>