<?xml version="1.0" encoding="utf-8"?>
<svg version="1.1" xmlns="http://www.w3.org/2000/svg" xmlns:xlink="http://www.w3.org/1999/xlink" x="0px" y="0px"
	 viewBox="0 0 14 13.8" style="enable-background:new 0 0 14 13.8;" xml:space="preserve">
<style type="text/css">
	.st0{fill:none;stroke:#231F20;stroke-width:2;stroke-miterlimit:10;}
	.st1{fill:#231F20;stroke:#231F20;stroke-width:2;stroke-miterlimit:10;}
</style>
<path class="st0" d="M13,1.7v10.4c0,0.4-0.3,0.7-0.7,0.7c0,0,0,0,0,0H1.7c-0.4,0-0.7-0.3-0.7-0.7c0-0.2,0.1-0.4,0.2-0.5L11.8,1.2
	c0.3-0.3,0.8-0.2,1,0.1C12.9,1.4,13,1.6,13,1.7z"/>
<path class="st1" d="M7,10.8c1.3,0,2.7,0,4,0V4.7C9.7,6,8.4,7.3,7.1,8.6C7,9.4,7,10.1,7,10.8z"/>
</svg>
