<?xml version="1.0" encoding="UTF-8"?>
<svg width="24px" height="24px" viewBox="0 0 24 24" version="1.1" xmlns="http://www.w3.org/2000/svg" xmlns:xlink="http://www.w3.org/1999/xlink">
    <!-- Generator: Sketch 56.3 (81716) - https://sketch.com -->
    <title>user</title>
    <desc>Created with Sketch.</desc>
    <g id="user" stroke="none" stroke-width="1" fill="none" fill-rule="evenodd">
        <path d="M12.4999757,13.0588235 C9.87133434,13.0588235 8.16927912,14.0985078 7.81645174,15.887109 C7.77243779,16.1575825 7.75,16.9267517 7.75,17.0095904 C7.75,17.3003577 7.99337799,17.5294118 8.30232841,17.5294118 C8.61127883,17.5294118 8.85465681,17.3003577 8.85465681,17.0095904 C8.85465681,16.7602425 8.8770946,16.1990018 8.89867076,16.073912 C9.2300678,14.3479389 11.2849504,14.098591 12.5000729,14.098591 C13.5167107,14.098591 15.901974,14.3065195 16.1229054,16.2606319 C16.1229054,16.3434789 16.1453432,16.6976145 16.1453432,16.8844175 C16.1453432,17.1751847 16.3887212,17.4042388 16.6976716,17.4042388 C17.006622,17.4042388 17.25,17.1751847 17.25,16.8844175 C17.25,16.8844175 17.25,16.3231768 17.2275622,16.135542 C17.0066308,14.2227659 15.2391799,13.0588235 12.5000729,13.0588235 L12.4999757,13.0588235 Z M11.90625,13.0588235 C13.5347284,13.0588235 14.875,11.7318463 14.875,10.1042007 C14.875,8.55659657 13.6534018,7.47058824 11.90625,7.47058824 C10.1580446,7.47058824 8.9375,8.55571213 8.9375,10.1042007 C8.9375,11.7326905 10.2778913,13.0588235 11.90625,13.0588235 Z M11.90625,8.58823529 C12.9896768,8.58823529 13.6875,9.19083346 13.6875,10.1142447 C13.6875,11.1126982 12.8927944,11.9411765 11.90625,11.9411765 C10.9187426,11.9411765 10.125,11.131082 10.125,10.1142447 C10.125,9.19085229 10.8228232,8.58823529 11.90625,8.58823529 Z M21.8453139,8.58046127 C21.4924907,7.59046648 20.8978728,6.88309636 20.039078,6.43773613 C19.1140188,5.93247176 18.1889596,5.44774133 17.2629311,4.96220249 C16.3378719,4.47747206 15.4128127,3.99193321 14.4867842,3.48666884 C13.8921663,3.18351022 13.2975483,3.02166393 12.6366658,3.00193841 C11.8432544,2.98141255 11.1608713,3.12351715 10.5662533,3.44640937 C10.0378998,3.72903405 9.50866512,3.99193321 9.00181234,4.27536631 C7.68004743,4.96220249 6.31444398,5.69010655 4.97020907,6.41809145 C3.69232675,7.12546157 3.00994359,8.21650924 3.00994359,9.55073055 C2.98757051,10.8644179 3.00994359,12.1987201 3.00994359,13.4917926 L3.00994359,15.4520567 C3.00994359,15.8357343 3.07620366,16.1996863 3.18635074,16.5028449 C3.53917385,17.4328547 4.13379183,18.1402248 4.97108584,18.5847362 C5.89614504,19.0694667 6.79970353,19.5550055 7.72476273,20.0397359 C8.64982194,20.5244664 9.55338043,21.0100052 10.4559696,21.4947356 C11.006705,21.7978943 11.5798223,21.9597405 12.2407047,22 L12.5487641,22 C13.275911,22 13.8929109,21.8381578 14.465147,21.5349951 C16.2713828,20.5647258 18.166309,19.5541971 19.9949707,18.583847 C20.5895887,18.2806883 21.0740596,17.8559429 21.4268827,17.2906935 C21.8235884,16.6638424 22,16.1388525 22,15.5727947 L22,9.53023703 C21.9991395,9.24761235 21.9552539,8.90417405 21.8451068,8.58050169 L21.8453139,8.58046127 Z M20.8125,15.5503416 C20.8125,15.9083925 20.6815946,16.2858491 20.3772801,16.7433143 C20.137561,17.1409719 19.811146,17.439215 19.3759261,17.6582448 C17.5483507,18.612782 15.6765569,19.6069259 13.8923729,20.5615427 C13.4350439,20.7999781 12.9352373,20.8993925 12.3257554,20.8799868 C11.8471876,20.8403762 11.4332064,20.7207687 11.0422048,20.5025303 C10.1496558,20.0256593 9.23586812,19.5479931 8.3220804,19.0711221 C7.40829269,18.5942512 6.49450497,18.1165849 5.60195599,17.639714 C4.99247403,17.3212698 4.5793633,16.8443989 4.31840544,16.1282971 C4.23170093,15.9294683 4.1875,15.6910329 4.1875,15.4121954 L4.1875,13.4837153 L4.1875,9.6065541 C4.1875,8.61241021 4.64482908,7.89630848 5.60196469,7.35959007 C6.90762441,6.64348834 8.25658851,5.94758761 9.56224823,5.25160735 C10.0841639,4.97356519 10.6069501,4.71492871 11.1288658,4.43609123 C11.5207378,4.21706145 11.9338485,4.11764706 12.4566347,4.11764706 L12.5875401,4.11764706 C13.0661079,4.13784011 13.5013278,4.25667212 13.915309,4.47569792 C14.8290967,4.97276987 15.7428844,5.44964082 16.6576296,5.92730708 C17.5714174,6.40417802 18.4852051,6.88184428 19.3999503,7.37891623 C20.0094322,7.6973604 20.422543,8.19443235 20.6835008,8.92993977 C20.7489535,9.12876855 20.7923058,9.36720402 20.7923058,9.60563949 L20.7914556,15.5502223 L20.8125,15.5503416 Z" fill="#000000"></path>
    </g>
</svg>