<svg xmlns="http://www.w3.org/2000/svg" width="40" height="39" viewBox="0 0 40 39">
    <path fill="#4A4A4A" fill-rule="evenodd" d="M18.724 8.125c-.342 0-.664.27-.664.616v2.354c0 .348.322.616.664.616.341 0 .61-.27.61-.616V8.741c0-.348-.269-.616-.61-.616zm6.471.337c-1.96 0-3.484 1.805-3.484 3.362v2.465c-1.637-.868-3.575-1.001-5.31-.337-1.613.625-2.88 1.836-3.595 3.419-.718 1.591-.78 3.361-.166 4.986.615 1.653 1.854 2.928 3.43 3.642.834.38 1.706.617 2.6.617.629 0 1.265-.146 1.88-.337.705 1.92 2.51 3.307 4.645 3.307 2.722 0 4.924-2.263 4.924-5.044 0-1.34-.59-2.615-1.55-3.53v-1.008h2.49c.342 0 .608-.268.608-.616 0-.347-.266-.617-.608-.617h-2.49v-1.624h2.49c.342 0 .608-.325.608-.672 0-.348-.266-.618-.608-.618h-2.49V14.12h2.49c.342 0 .608-.268.608-.616 0-.347-.266-.617-.608-.617h-2.49v-1.063c0-1.557-1.443-3.362-3.374-3.362zm0 1.287c1.251 0 2.155 1.244 2.157 2.075v9.469c0 .187.081.386.223.504.81.685 1.271 1.678 1.271 2.745 0 2.087-1.614 3.811-3.65 3.811-2.063 0-3.762-1.724-3.762-3.811 0-1.07.462-2.062 1.273-2.745.142-.12.221-.318.221-.504v-9.47c0-.85.97-2.074 2.267-2.074zm-.11 1.681c-.341 0-.609.272-.609.618v10.478c-.89.273-1.548 1.07-1.548 2.073 0 1.214 1.014 2.185 2.213 2.185 1.2 0 2.157-.97 2.157-2.185 0-1.03-.677-1.821-1.605-2.073V12.048c0-.348-.266-.618-.608-.618zm-14.437.057c-.158 0-.321.102-.442.224-.242.246-.242.652 0 .897l1.604 1.625c.122.124.286.167.442.167.158 0 .324-.043.444-.167.243-.246.243-.652 0-.896l-1.605-1.626c-.12-.122-.284-.224-.443-.224zm7.468 3.307c1.239-.139 2.528.213 3.595.952v5.267c-.958.912-1.493 2.187-1.493 3.53 0 .194.034.372.055.56-1.218.395-2.536.31-3.706-.224-1.271-.577-2.264-1.628-2.765-2.97-.496-1.31-.414-2.75.165-4.034.579-1.282 1.575-2.24 2.876-2.746.412-.157.847-.288 1.273-.335zM7.274 19.667c-.341 0-.607.27-.607.617 0 .348.266.672.607.672H9.6c.341 0 .607-.324.607-.672 0-.348-.266-.617-.607-.617H7.274zm17.867 3.979c.534 0 .94.415.94.952 0 .512-.433.953-.94.953-.507 0-.94-.44-.94-.953 0-.537.408-.952.94-.952zm-12.89 2.577c-.157 0-.32.045-.441.17l-1.604 1.624c-.243.245-.243.65 0 .896.122.123.284.169.442.169.158 0 .318-.046.443-.17l1.605-1.624c.243-.246.243-.65 0-.896-.122-.122-.284-.167-.444-.17zm6.472 2.69c-.341 0-.663.27-.663.617v2.353c0 .347.322.617.663.617.342 0 .61-.27.61-.617V29.53c0-.348-.268-.618-.61-.618z"/>
</svg>
