<?xml version="1.0" encoding="UTF-8"?>
<svg viewBox="0 0 450 450" xmlns="http://www.w3.org/2000/svg">
<defs>
<clipPath class="a">
<rect width="450" height="450"/>
</clipPath>
<clipPath class="c">
<path d="m0 0h450v450h-450z"/>
</clipPath>
<clipPath class="b">
<path d="m387.25 130h-328.25v198h328.25v-198"/>
</clipPath>
</defs>
<style>
    .left-wheel,
    .right-wheel,
    .tractor-body,
    .fence-1,
    .fence-2,
    .fence-3 {
        animation-iteration-count: infinite;
        animation-timing-function: linear;
    }
    .left-wheel,
    .right-wheel {
        animation-name: rotate;
        animation-duration: 5s;
    }
    .right-wheel{
            animation-duration: 4s;
    }
    .tractor-body {
        animation-name: updown;
        animation-timing-function: ease-in-out;
        animation-duration: 1.5s;
    }
    .fence-1,
    .fence-2,
    .fence-3 {
        --offset:115%;
        animation-name: infinty-fence;
        animation-duration: 10s;
    }
    .fence-2 {
        animation-delay: -3.333333s;
    }
    .fence-3 {
        animation-delay: -6.66666s;
    }
    @keyframes rotate {
        0% {
            transform: rotate(0deg);
        }   
        100% {
            transform: rotate(360deg);
        }
    }
    @keyframes updown {
        0% {
            transform: translateY(0px);
        }
        50% {
            transform: translateY(3px);
        }
        100% {
            transform: translateY(0px);
        }
    }
    @keyframes infinty-fence {
        0% {
            transform: translateX(var(--offset));
        }
        100% {
            transform: translateX(calc(-1 * var(--offset)));
        }
    }
</style>
<g clip-path="url(.a)">
<g clip-path="url(.c)">
<g class="fence" clip-path="url(.b)">
<g class="fence-1">
<g transform="translate(328.13 250.8)">
<path d="m6.242 41.042h-12.484v-74.903s5.562-6.754 5.562-6.754c0.352-0.427 1.008-0.427 1.36 0 0 0 5.562 6.754 5.562 6.754v74.903z" fill="#f2eada"/>
</g>
<g transform="translate(301.92 250.8)">
<path d="m6.242 41.042h-12.484v-74.903s5.562-6.754 5.562-6.754c0.352-0.427 1.008-0.427 1.36 0 0 0 5.562 6.754 5.562 6.754v74.903z" fill="#f2eada"/>
</g>
<g transform="translate(380.57 250.8)">
<path d="m6.242 41.042h-12.484v-74.903s5.562-6.754 5.562-6.754c0.352-0.427 1.008-0.427 1.36 0 0 0 5.562 6.754 5.562 6.754v74.903z" fill="#f2eada"/>
</g>
<g transform="translate(354.35 250.8)">
<path d="m6.242 41.042h-12.484v-74.903s5.562-6.754 5.562-6.754c0.352-0.427 1.008-0.427 1.36 0 0 0 5.562 6.754 5.562 6.754v74.903z" fill="#f2eada"/>
</g>
<g transform="translate(275.7 250.8)">
<path d="m6.242 41.042h-12.484v-74.903s5.562-6.754 5.562-6.754c0.352-0.427 1.008-0.427 1.36 0 0 0 5.562 6.754 5.562 6.754v74.903z" fill="#f2eada"/>
</g>
<g transform="translate(249.49 250.8)">
<path d="m6.242 41.042h-12.484v-74.903s5.562-6.754 5.562-6.754c0.352-0.427 1.008-0.427 1.36 0 0 0 5.562 6.754 5.562 6.754v74.903z" fill="#f2eada"/>
</g>
<g transform="translate(223.27 250.8)">
<path d="m6.242 41.042h-12.484v-74.903s5.562-6.754 5.562-6.754c0.352-0.427 1.008-0.427 1.36 0 0 0 5.562 6.754 5.562 6.754v74.903z" fill="#f2eada"/>
</g>
<g transform="translate(197.05 250.8)">
<path d="m6.242 41.042h-12.484v-74.903s5.562-6.754 5.562-6.754c0.352-0.427 1.008-0.427 1.36 0 0 0 5.562 6.754 5.562 6.754v74.903z" fill="#f2eada"/>
</g>
<g transform="translate(170.84 250.8)">
<path d="m6.242 41.042h-12.484v-74.903s5.562-6.754 5.562-6.754c0.352-0.427 1.008-0.427 1.36 0 0 0 5.562 6.754 5.562 6.754v74.903z" fill="#f2eada"/>
</g>
<g transform="translate(144.62 250.8)">
<path d="m6.242 41.042h-12.484v-74.903s5.562-6.754 5.562-6.754c0.352-0.427 1.008-0.427 1.36 0 0 0 5.562 6.754 5.562 6.754v74.903z" fill="#f2eada"/>
</g>
<g transform="translate(118.41 250.8)">
<path d="m6.242 41.042h-12.484v-74.903s5.562-6.754 5.562-6.754c0.352-0.427 1.008-0.427 1.36 0 0 0 5.562 6.754 5.562 6.754v74.903z" fill="#f2eada"/>
</g>
<g transform="translate(92.19 250.8)">
<path d="m6.242 41.042h-12.484v-74.903s5.562-6.754 5.562-6.754c0.352-0.427 1.008-0.427 1.36 0 0 0 5.562 6.754 5.562 6.754v74.903z" fill="#f2eada"/>
</g>
<g transform="translate(65.974 250.8)">
<path d="m6.242 41.042h-12.484v-74.903s5.562-6.754 5.562-6.754c0.352-0.427 1.008-0.427 1.36 0 0 0 5.562 6.754 5.562 6.754v74.903z" fill="#f2eada"/>
</g>
<g transform="translate(223.27 233.81)">
<path d="m172.99 2.497h-345.97v-4.994h345.97v4.994z" fill="#f2eada"/>
</g>
<g transform="translate(223.27 277.65)">
<path d="m172.99 2.497h-345.97v-4.994h345.97v4.994z" fill="#f2eada"/>
</g>
</g>
<g class="fence-2">
<g transform="translate(328.13 250.8)">
<path d="m6.242 41.042h-12.484v-74.903s5.562-6.754 5.562-6.754c0.352-0.427 1.008-0.427 1.36 0 0 0 5.562 6.754 5.562 6.754v74.903z" fill="#f2eada"/>
</g>
<g transform="translate(301.92 250.8)">
<path d="m6.242 41.042h-12.484v-74.903s5.562-6.754 5.562-6.754c0.352-0.427 1.008-0.427 1.36 0 0 0 5.562 6.754 5.562 6.754v74.903z" fill="#f2eada"/>
</g>
<g transform="translate(380.57 250.8)">
<path d="m6.242 41.042h-12.484v-74.903s5.562-6.754 5.562-6.754c0.352-0.427 1.008-0.427 1.36 0 0 0 5.562 6.754 5.562 6.754v74.903z" fill="#f2eada"/>
</g>
<g transform="translate(354.35 250.8)">
<path d="m6.242 41.042h-12.484v-74.903s5.562-6.754 5.562-6.754c0.352-0.427 1.008-0.427 1.36 0 0 0 5.562 6.754 5.562 6.754v74.903z" fill="#f2eada"/>
</g>
<g transform="translate(275.7 250.8)">
<path d="m6.242 41.042h-12.484v-74.903s5.562-6.754 5.562-6.754c0.352-0.427 1.008-0.427 1.36 0 0 0 5.562 6.754 5.562 6.754v74.903z" fill="#f2eada"/>
</g>
<g transform="translate(249.49 250.8)">
<path d="m6.242 41.042h-12.484v-74.903s5.562-6.754 5.562-6.754c0.352-0.427 1.008-0.427 1.36 0 0 0 5.562 6.754 5.562 6.754v74.903z" fill="#f2eada"/>
</g>
<g transform="translate(223.27 250.8)">
<path d="m6.242 41.042h-12.484v-74.903s5.562-6.754 5.562-6.754c0.352-0.427 1.008-0.427 1.36 0 0 0 5.562 6.754 5.562 6.754v74.903z" fill="#f2eada"/>
</g>
<g transform="translate(197.05 250.8)">
<path d="m6.242 41.042h-12.484v-74.903s5.562-6.754 5.562-6.754c0.352-0.427 1.008-0.427 1.36 0 0 0 5.562 6.754 5.562 6.754v74.903z" fill="#f2eada"/>
</g>
<g transform="translate(170.84 250.8)">
<path d="m6.242 41.042h-12.484v-74.903s5.562-6.754 5.562-6.754c0.352-0.427 1.008-0.427 1.36 0 0 0 5.562 6.754 5.562 6.754v74.903z" fill="#f2eada"/>
</g>
<g transform="translate(144.62 250.8)">
<path d="m6.242 41.042h-12.484v-74.903s5.562-6.754 5.562-6.754c0.352-0.427 1.008-0.427 1.36 0 0 0 5.562 6.754 5.562 6.754v74.903z" fill="#f2eada"/>
</g>
<g transform="translate(118.41 250.8)">
<path d="m6.242 41.042h-12.484v-74.903s5.562-6.754 5.562-6.754c0.352-0.427 1.008-0.427 1.36 0 0 0 5.562 6.754 5.562 6.754v74.903z" fill="#f2eada"/>
</g>
<g transform="translate(92.19 250.8)">
<path d="m6.242 41.042h-12.484v-74.903s5.562-6.754 5.562-6.754c0.352-0.427 1.008-0.427 1.36 0 0 0 5.562 6.754 5.562 6.754v74.903z" fill="#f2eada"/>
</g>
<g transform="translate(65.974 250.8)">
<path d="m6.242 41.042h-12.484v-74.903s5.562-6.754 5.562-6.754c0.352-0.427 1.008-0.427 1.36 0 0 0 5.562 6.754 5.562 6.754v74.903z" fill="#f2eada"/>
</g>
<g transform="translate(223.27 233.81)">
<path d="m172.99 2.497h-345.97v-4.994h345.97v4.994z" fill="#f2eada"/>
</g>
<g transform="translate(223.27 277.65)">
<path d="m172.99 2.497h-345.97v-4.994h345.97v4.994z" fill="#f2eada"/>
</g>
</g>
<g class="fence-3">
<g transform="translate(328.13 250.8)">
<path d="m6.242 41.042h-12.484v-74.903s5.562-6.754 5.562-6.754c0.352-0.427 1.008-0.427 1.36 0 0 0 5.562 6.754 5.562 6.754v74.903z" fill="#f2eada"/>
</g>
<g transform="translate(301.92 250.8)">
<path d="m6.242 41.042h-12.484v-74.903s5.562-6.754 5.562-6.754c0.352-0.427 1.008-0.427 1.36 0 0 0 5.562 6.754 5.562 6.754v74.903z" fill="#f2eada"/>
</g>
<g transform="translate(380.57 250.8)">
<path d="m6.242 41.042h-12.484v-74.903s5.562-6.754 5.562-6.754c0.352-0.427 1.008-0.427 1.36 0 0 0 5.562 6.754 5.562 6.754v74.903z" fill="#f2eada"/>
</g>
<g transform="translate(354.35 250.8)">
<path d="m6.242 41.042h-12.484v-74.903s5.562-6.754 5.562-6.754c0.352-0.427 1.008-0.427 1.36 0 0 0 5.562 6.754 5.562 6.754v74.903z" fill="#f2eada"/>
</g>
<g transform="translate(275.7 250.8)">
<path d="m6.242 41.042h-12.484v-74.903s5.562-6.754 5.562-6.754c0.352-0.427 1.008-0.427 1.36 0 0 0 5.562 6.754 5.562 6.754v74.903z" fill="#f2eada"/>
</g>
<g transform="translate(249.49 250.8)">
<path d="m6.242 41.042h-12.484v-74.903s5.562-6.754 5.562-6.754c0.352-0.427 1.008-0.427 1.36 0 0 0 5.562 6.754 5.562 6.754v74.903z" fill="#f2eada"/>
</g>
<g transform="translate(223.27 250.8)">
<path d="m6.242 41.042h-12.484v-74.903s5.562-6.754 5.562-6.754c0.352-0.427 1.008-0.427 1.36 0 0 0 5.562 6.754 5.562 6.754v74.903z" fill="#f2eada"/>
</g>
<g transform="translate(197.05 250.8)">
<path d="m6.242 41.042h-12.484v-74.903s5.562-6.754 5.562-6.754c0.352-0.427 1.008-0.427 1.36 0 0 0 5.562 6.754 5.562 6.754v74.903z" fill="#f2eada"/>
</g>
<g transform="translate(170.84 250.8)">
<path d="m6.242 41.042h-12.484v-74.903s5.562-6.754 5.562-6.754c0.352-0.427 1.008-0.427 1.36 0 0 0 5.562 6.754 5.562 6.754v74.903z" fill="#f2eada"/>
</g>
<g transform="translate(144.62 250.8)">
<path d="m6.242 41.042h-12.484v-74.903s5.562-6.754 5.562-6.754c0.352-0.427 1.008-0.427 1.36 0 0 0 5.562 6.754 5.562 6.754v74.903z" fill="#f2eada"/>
</g>
<g transform="translate(118.41 250.8)">
<path d="m6.242 41.042h-12.484v-74.903s5.562-6.754 5.562-6.754c0.352-0.427 1.008-0.427 1.36 0 0 0 5.562 6.754 5.562 6.754v74.903z" fill="#f2eada"/>
</g>
<g transform="translate(92.19 250.8)">
<path d="m6.242 41.042h-12.484v-74.903s5.562-6.754 5.562-6.754c0.352-0.427 1.008-0.427 1.36 0 0 0 5.562 6.754 5.562 6.754v74.903z" fill="#f2eada"/>
</g>
<g transform="translate(65.974 250.8)">
<path d="m6.242 41.042h-12.484v-74.903s5.562-6.754 5.562-6.754c0.352-0.427 1.008-0.427 1.36 0 0 0 5.562 6.754 5.562 6.754v74.903z" fill="#f2eada"/>
</g>
<g transform="translate(223.27 233.81)">
<path d="m172.99 2.497h-345.97v-4.994h345.97v4.994z" fill="#f2eada"/>
</g>
<g transform="translate(223.27 277.65)">
<path d="m172.99 2.497h-345.97v-4.994h345.97v4.994z" fill="#f2eada"/>
</g>
</g>
</g>
</g>
<g>
<g transform="translate(218.6 232.66)">
<path d="m95.727 34.977s-1.702-4.911-1.702-4.911l-0.015999-5.196-2.668-3.408 3.685-22.595 0.020996-0.146c0.793-6.663-1.017-13.288-4.966-18.179-3.704-4.588-9.067-7.428-15.051-7.991 0 0-16.426-1.744-16.426-1.744v-11.932c0-1.886-1.194-3.485-2.861-4.117v-8.074s1.989-2.386 1.989-2.386c0.91-0.981 1.395-2.299 1.333-3.639-0.063-1.383-0.704-2.69-1.759-3.586l-1.698-1.443c-2.051-1.743-5.089-1.563-6.918 0.412 0 0-6.079 6.557-6.079 6.557v12.159c-1.667 0.632-2.861 2.232-2.861 4.117v9.932s-22.126-2.349-22.126-2.349v-20.94-3.988h2.534c1.887 0 3.416-1.531 3.416-3.418 0-1.886-1.529-3.415-3.416-3.415h-2.534l-72.356-0.106v0.106h-3.002c-1.887 0-3.416 1.529-3.416 3.415 0 1.887 1.529 3.418 3.416 3.418h3.002v26.622c-0.21 0.011-0.419 0.011-0.629 0.025-15.349 1-29.672 8.46-39.297 20.469-1.181 1.472-0.944 3.623 0.528 4.803 1.473 1.181 3.623 0.943 4.802-0.53 8.429-10.515 20.971-17.048 34.411-17.924 0.062-0.0040016 0.123 0.0019989 0.185-0.0020008v2.198l-6.704 2.964-7.421 0.637-5.467 5.061-6.811 3.013s-3.526 6.56-3.526 6.56l-5.465 5.062-1.205 7.351s-3.526 6.561-3.526 6.561l1.248 7.343-1.204 7.351 3.564 6.541 1.248 7.344 5.496 5.029s3.564 6.539 3.564 6.539l6.83 2.973 5.496 5.029 7.424 0.593 6.83 2.971 7.216-1.85 7.426 0.594 6.222-4.094 7.216-1.849 4.558-5.891 6.224-4.093s2.397-7.052 2.397-7.052 4.559-5.892 4.559-5.892l-0.0050001-1.413h32.642c-0.059 1.751-0.048 3.516 0.118 5.305 0.175 1.879 1.84 3.262 3.719 3.087 1.879-0.175 3.26-1.839 3.086-3.718-0.147-1.577-0.149-3.133-0.086-4.674h3.689l0.099003 0.585-0.839 5.128 2.487 4.563 0.871 5.124 3.834 3.507s2.487 4.564 2.487 4.564l4.764 2.073 3.835 3.509 5.179 0.413 4.767 2.074 5.034-1.29 5.18 0.414 4.342-2.855 5.034-1.291s3.181-4.112 3.181-4.112l4.341-2.854 1.673-4.921s3.18-4.11 3.18-4.11-0.015999-5.198-0.015999-5.198l1.674-4.919z" fill-opacity="0" />
</g>
<g transform="translate(226.37 298.78)">
<path d="m66.571 0c0 1.712-29.805 3.101-66.571 3.101s-66.571-1.389-66.571-3.101 29.805-3.101 66.571-3.101 66.571 1.389 66.571 3.101z" fill="#aaa59b"/>
</g>
</g>
<g class="tractor-body" transform="translate(0 -.15298)">
<g transform="translate(269.58 180.41)">
<path d="m2.033 10.82h-7.667v-14.891s5.349-5.771 5.349-5.771c0.829-0.894 2.216-0.977 3.145-0.187l1.697 1.442c1.006 0.855 1.076 2.383 0.153 3.327 0 0-2.677 3.214-2.677 3.214v12.866z" fill="#e2ecf5"/>
</g>
<g transform="translate(269.47 180.26)">
<path d="m4.875 13.704h-13.133v-18.696s6.079-6.557 6.079-6.557c1.829-1.975 4.868-2.154 6.919-0.411l1.697 1.441c1.055 0.897 1.696 2.206 1.759 3.589 0.062 1.34-0.423 2.658-1.333 3.639l-1.988 2.384v14.611zm-7.667-5.466h2.201v-11.123l3.138-3.765-1.015-0.862s-4.324 4.664-4.324 4.664v11.086z" fill="#343833"/>
</g>
<g transform="translate(267.77 197.84)">
<path d="m5.335 7.906-10.92-1.115c-0.63-0.064-1.109-0.594-1.109-1.227v-12.249c0-0.715 0.579-1.295 1.294-1.295h10.86c0.682 0 1.234 0.553 1.234 1.234v13.424c0 0.731-0.632 1.302-1.359 1.228z" fill="#008ef4"/>
</g>
<g transform="translate(267.78 198.18)">
<path d="m5.012 10.259c-0.149 0-0.298-7e-3 -0.448-0.023l-10.024-1.022c-2.263-0.233-3.967 0.187-3.967-4.391v-11.459c0-2.434 1.98-4.415 4.414-4.415h10.026c2.435 0 4.414 1.981 4.414 4.415v12.481c0 5.206-3.328 4.414-4.415 4.414zm-8.973-6.386s7.922 0.807 7.922 0.807v-10.265h-7.922v9.458z" fill="#343833"/>
</g>
</g>
<g class="tractor-body" transform="translate(0 -.15298)">
<g transform="translate(240.63 219.3)">
<path d="m-5.418-18.313v-29.186h-68.491v94.998h40.03 28.461 72.284l5.64-35.006c1.403-11.943-5.922-22.704-17.893-23.845 0 0-60.031-6.961-60.031-6.961z" fill="#dfe8ef"/>
</g>
<g transform="translate(240.63 233.89)">
<path d="m-7.657-32.906 0.126 30.27h-16.855s-3.812-6.498-18.03-16.569c-16.639-11.785-31.493-10.949-31.493-10.949v63.06h40.031 28.46 72.285l5.639-35.005c1.403-11.943-5.922-22.705-17.893-23.846 0 0-62.27-6.961-62.27-6.961z" fill="#008ef4"/>
</g>
<g transform="translate(235.94 217.25)">
<path d="m72.737-4.041c-3.705-4.588-9.068-7.427-15.052-7.991 0 0-57.405-6.092-57.405-6.092v-20.94-3.989h2.534c1.886 0 3.416-1.53 3.416-3.417 0-1.886-1.53-3.416-3.416-3.416h-2.534l-72.357-0.105v0.105h-3.001c-1.886 0-3.416 1.53-3.416 3.416 0 1.887 1.53 3.417 3.416 3.417h3.001v93.044h143.93l5.825-35.706 0.021004-0.146c0.792-6.663-1.017-13.289-4.966-18.18zm-137.98-39.012h58.691v3.989 26.962 55.26h-58.691v-86.211zm136.17 56.314-4.877 29.897h-65.769v-54.522s56.713 6.13 56.713 6.13c4.246 0.4 7.852 2.296 10.426 5.485 2.787 3.45 4.063 8.188 3.507 13.01z" fill="#343833"/>
</g>
<g transform="translate(172.31 232.52)">
<path d="m45.758 33.629c-0.226 0.014999-0.458 0.0059967-0.692-0.026001-1.869-0.257-3.175-1.981-2.918-3.85 0.441-3.205 0.556-6.482 0.344-9.74-1.724-26.465-24.656-46.593-51.122-44.87-13.44 0.876-25.983 7.409-34.412 17.924-1.179 1.473-3.329 1.71-4.802 0.529-1.472-1.18-1.709-3.329-0.528-4.802 9.625-12.009 23.949-19.469 39.298-20.469 30.225-1.968 56.417 21.019 58.385 51.244 0.242 3.716 0.11 7.456-0.394 11.115-0.225 1.636-1.574 2.84-3.159 2.945z" fill="#343833"/>
</g>
<g transform="translate(262.6 251.3)">
<path d="m-16.068 24.327c-1.879 0.175-3.543-1.208-3.718-3.086-2.137-22.989 14.827-43.43 37.815-45.567 1.879-0.175 3.544 1.207 3.718 3.086 0.175 1.878-1.206 3.543-3.085 3.717-19.238 1.789-33.433 18.893-31.645 38.131 0.175 1.879-1.206 3.544-3.085 3.719z" fill="#343833"/>
</g>
<g transform="translate(222.76 231.25)">
<path d="m10.334 3.416h-20.667v-6.833h20.667v6.833z" fill="#343833"/>
</g>
<g transform="translate(246.38 218.15)">
<path d="m4.638 4.756-2.838 1.638c-0.523 0.303-1.193 0.123-1.495-0.4 0 0-5.343-9.255-5.343-9.255-0.303-0.524-0.123-1.193 0.4-1.496l2.838-1.638c0.524-0.302 1.193-0.123 1.495 0.401l5.344 9.255c0.302 0.523 0.123 1.193-0.401 1.495z" fill="#343833"/>
</g>
<g transform="translate(255.32 218.15)">
<path d="m4.638 4.756-2.838 1.638c-0.523 0.303-1.193 0.123-1.495-0.4 0 0-5.343-9.255-5.343-9.255-0.303-0.524-0.123-1.193 0.4-1.496l2.838-1.638c0.524-0.302 1.193-0.123 1.495 0.401l5.344 9.255c0.302 0.523 0.123 1.193-0.401 1.495z" fill="#343833"/>
</g>
<g transform="translate(264.25 218.15)">
<path d="m4.638 4.756-2.838 1.638c-0.523 0.303-1.193 0.123-1.495-0.4l-5.344-9.255c-0.302-0.524-0.122-1.193 0.401-1.496l2.838-1.638c0.524-0.302 1.193-0.123 1.495 0.401l5.344 9.255c0.302 0.523 0.123 1.193-0.401 1.495z" fill="#343833"/>
</g>
<g transform="translate(200.53 196.75)">
<path d="m15.402 13.665-1.738 1.738c-0.32 0.32-0.84 0.32-1.161 0 0 0-27.905-27.907-27.905-27.907-0.321-0.32-0.321-0.84 0-1.161 0 0 1.737-1.738 1.737-1.738 0.321-0.32 0.84-0.32 1.161 0l27.906 27.907c0.321 0.321 0.321 0.84 0 1.161z" fill="#fafbfd"/>
</g>
<g transform="translate(207.45 189.83)">
<path d="m6.36 4.622-1.738 1.739c-0.32 0.32-0.84 0.32-1.161 0l-9.822-9.822c-0.32-0.321-0.32-0.84 0-1.161l1.738-1.739c0.321-0.32 0.841-0.32 1.161 0l9.822 9.822c0.321 0.321 0.321 0.84 0 1.161z" fill="#fafbfd"/>
</g>
</g>
<g transform="matrix(-.022952 .99974 -.99974 -.022952 426.16 92.384)">
<g transform="translate(168.09 254.29)">
<path class="left-wheel" d="m35.014 27.302-6.224 4.093-4.558 5.89-7.215 1.85-6.225 4.094-7.424-0.594-7.215 1.851-6.831-2.973-7.426-0.592-5.494-5.03-6.83-2.972-3.565-6.541-5.495-5.028-1.248-7.343-3.565-6.541 1.205-7.351-1.248-7.344 3.526-6.561 1.204-7.351 5.466-5.061 3.525-6.562 6.812-3.011 5.465-5.062 7.423-0.637 6.812-3.012 7.226 1.808 7.421-0.637 6.249 4.055 7.225 1.807s4.594 5.864 4.594 5.864l6.248 4.056 2.438 7.038s4.593 5.865 4.593 5.865 0.022999 7.448 0.022999 7.448 2.438 7.039 2.438 7.039l-2.397 7.052 0.022003 7.448s-4.558 5.893-4.558 5.893-2.397 7.052-2.397 7.052z" fill="#343833"/>
</g>
<g transform="translate(168.09 254.29)">
<path d="m24.48 0c0 13.52-10.959 24.48-24.479 24.48-13.52 0-24.481-10.96-24.481-24.48s10.961-24.48 24.481-24.48c13.52 0 24.479 10.96 24.479 24.48z" fill="#f0c25f"/>
</g>
<g transform="translate(168.09 254.29)">
<path d="m19.545 0c0 10.794-8.751 19.545-19.545 19.545s-19.545-8.751-19.545-19.545 8.751-19.545 19.545-19.545 19.545 8.751 19.545 19.545z" fill="#f8e26b"/>
</g>
<g transform="translate(168.09 254.29)">
<path d="m6.833 0c0 3.774-3.059 6.833-6.833 6.833-3.773 0-6.832-3.059-6.832-6.833s3.059-6.833 6.832-6.833c3.774 0 6.833 3.059 6.833 6.833z" fill="#efc160"/>
</g>
</g>
<g transform="matrix(-.63908 .76914 -.76914 -.63908 670.21 221.01)">
<g transform="translate(283.39 267.74)">
<path class="right-wheel" d="m24.428 19.048-4.342 2.855s-3.18 4.111-3.18 4.111l-5.034 1.291-4.342 2.855-5.181-0.414-5.034 1.291-4.764-2.074-5.181-0.414-3.835-3.508-4.764-2.073-2.487-4.564-3.835-3.508-0.871-5.124s-2.487-4.563-2.487-4.563l0.841-5.128-0.871-5.124s2.46-4.578 2.46-4.578l0.84-5.128 3.813-3.531s2.46-4.578 2.46-4.578l4.754-2.102 3.813-3.531 5.178-0.445 4.753-2.101 5.041 1.261 5.179-0.445 4.359 2.83 5.04 1.26s3.205 4.092 3.205 4.092l4.359 2.83 1.702 4.91s3.204 4.092 3.204 4.092l0.015999 5.197 1.702 4.91-1.673 4.92 0.014999 5.197s-3.179 4.111-3.179 4.111-1.674 4.92-1.674 4.92z" fill="#343833"/>
</g>
<g transform="translate(283.39 267.74)">
<path d="m14.902 0c0 8.23-6.672 14.903-14.903 14.903-8.23 0-14.901-6.673-14.901-14.903s6.671-14.903 14.901-14.903c8.231 0 14.903 6.673 14.903 14.903z" fill="#f0c25f"/>
</g>
<g transform="translate(283.39 267.74)">
<path d="m11.892 0c0 6.568-5.324 11.892-11.892 11.892s-11.892-5.324-11.892-11.892 5.324-11.892 11.892-11.892 11.892 5.324 11.892 11.892z" fill="#f8e26b"/>
</g>
<g transform="translate(283.39 267.74)">
<path d="m4.16 0c0 2.297-1.862 4.159-4.159 4.159-2.298 0-4.16-1.862-4.16-4.159s1.862-4.159 4.16-4.159c2.297 0 4.159 1.862 4.159 4.159z" fill="#efc160"/>
</g>
</g>
</g>
</svg>
