<svg xmlns="http://www.w3.org/2000/svg" width="24" height="24" viewBox="0 0 24 24">
    <g fill="none" fill-rule="evenodd" transform="translate(3 3)">
        <circle cx="8.75" cy="8.75" r="8.75" fill="#FFF" stroke="#007AFF"/>
        <path fill="#007AFF" d="M11.875 6.162c0 1.372-1.166 2.364-1.537 2.67-.754.628-.768 1.066-.768 1.824 0 .278-.137.599-.81.599-.562 0-.754-.22-.754-.978 0-1.255.521-1.853.92-2.218.452-.408 1.22-.86 1.22-1.649 0-.67-.548-.992-1.234-.992-1.4 0-1.098 1.124-1.839 1.124-.37 0-.823-.263-.823-.832 0-.788.85-1.955 2.703-1.955 1.756 0 2.922 1.036 2.922 2.407m-2.044 7.136c0 .573-.467 1.077-1.057 1.077-.59 0-1.042-.504-1.042-1.077 0-.588.466-1.078 1.042-1.078.577 0 1.057.49 1.057 1.078"/>
    </g>
</svg>
