<svg xmlns="http://www.w3.org/2000/svg" viewBox="0 0 24 24">
    <defs/>
    <g fill="none" fill-rule="evenodd">
        <path fill="#010202" d="M20.92 12.28a11.11 11.11 0 00-6.14-2.87l-.48 1.12a10.12 10.12 0 015.94 2.63c.08.09.21.15.35.15.29 0 .53-.26.53-.57a.61.61 0 00-.2-.46m-4.27 5.15a5.12 5.12 0 00-3.16-1.18h-.03c-.64-.04-1.25.1-1.85.35l-.8 1.75.1-.06a3.9 3.9 0 012.49-.9h.06c.92 0 1.83.35 2.53.96.11.07.22.13.32.13.3 0 .55-.25.55-.58a.57.57 0 00-.21-.47m-3.22 2.27c-.57-.02-1.06.5-1.07 1.13 0 .62.47 1.17 1.05 1.17.58 0 1.07-.5 1.08-1.15 0-.64-.47-1.15-1.06-1.15m5.36-4.84a7.97 7.97 0 00-5.27-2.08c-.09 0-.15 0-.24.02l-.51 1.18c.21-.03.43-.05.66-.05h.07c1.68.02 3.32.65 4.61 1.82.09.08.22.14.35.14.3 0 .52-.25.52-.56a.5.5 0 00-.2-.47"/>
        <path fill="#020203" d="M10.99 5.93c-.25.47-.8.78-1.47.77-.7 0-1.27-.34-1.49-.86l-.64-1.6c.6.34 1.45.49 2.16.49.71.01 1.54-.1 2.15-.4zM9.48 9.47L8.4 6.76c.32.19.68.28 1.11.3.4 0 .78-.1 1.1-.26L9.47 9.45zm-3.74 4.1a4.64 4.64 0 00-1.82-1.22l1.65-.66c.5-.16 1.11.03 1.58.5.48.5.66 1.15.43 1.66h.01l-.68 1.58a4.64 4.64 0 00-1.18-1.86zm-1.48-3.7a4.5 4.5 0 00-.43-2.15l1.64.7c.47.24.77.81.77 1.47-.02.69-.36 1.29-.85 1.48v.01l-1.61.65c.34-.61.47-1.45.48-2.17zm2.22-1.42c.35-.09.7-.28 1-.57.3-.28.5-.62.6-.96l1.07 2.67zm2.66 1.82L8 12.94a2.2 2.2 0 00-.57-1 2.46 2.46 0 00-.96-.6l2.68-1.07zM6.35 8.79l2.66 1.14L6.3 11c.2-.31.3-.7.3-1.12a2.14 2.14 0 00-.26-1.1zm-.51-2.6c.5-.48 1.01-1.16 1.2-1.8l.65 1.64c.2.51 0 1.13-.48 1.58-.5.5-1.16.66-1.66.44l-1.59-.68a4.6 4.6 0 001.88-1.18zm6.54-2.56l-.34-.14c-.23.53-1.25.89-2.5.88-1.24-.03-2.27-.41-2.47-.97l-.34.15c.21.54-.25 1.52-1.15 2.38-.9.87-1.9 1.33-2.43 1.07L3 7.36c.53.22.92 1.25.9 2.5-.03 1.23-.43 2.26-.97 2.47l.13.34c.56-.22 1.53.27 2.4 1.15.86.9 1.31 1.9 1.07 2.43l.34.13 1.07-2.44.4-.89 1.12-2.63.34-.82 1.15-2.65.4-.93.68-1.57.35-.82z"/>
        <path stroke="#020203" stroke-width=".107132" d="M10.99 5.93c-.25.47-.8.78-1.47.77-.7 0-1.27-.34-1.49-.86l-.64-1.6c.6.34 1.45.49 2.16.49.71.01 1.54-.1 2.15-.4zM9.48 9.47L8.4 6.76c.32.19.68.28 1.11.3.4 0 .78-.1 1.1-.26L9.47 9.45zm-3.74 4.1a4.64 4.64 0 00-1.82-1.22l1.65-.66c.5-.16 1.11.03 1.58.5.48.5.66 1.15.43 1.66h.01l-.68 1.58a4.64 4.64 0 00-1.18-1.86zm-1.48-3.7a4.5 4.5 0 00-.43-2.15l1.64.7c.47.24.77.81.77 1.47-.02.69-.36 1.29-.85 1.48v.01l-1.61.65c.34-.61.47-1.45.48-2.17zm2.22-1.42c.35-.09.7-.28 1-.57.3-.28.5-.62.6-.96l1.07 2.67zm2.66 1.82L8 12.94a2.2 2.2 0 00-.57-1 2.46 2.46 0 00-.96-.6l2.68-1.07zM6.35 8.79l2.66 1.14L6.3 11c.2-.31.3-.7.3-1.12a2.14 2.14 0 00-.26-1.1zm-.51-2.6c.5-.48 1.01-1.16 1.2-1.8l.65 1.64c.2.51 0 1.13-.48 1.58-.5.5-1.16.66-1.66.44l-1.59-.68a4.6 4.6 0 001.88-1.18zm6.54-2.56l-.34-.14c-.23.53-1.25.89-2.5.88-1.24-.03-2.27-.41-2.47-.97l-.34.15c.21.54-.25 1.52-1.15 2.38-.9.87-1.9 1.33-2.43 1.07L3 7.36c.53.22.92 1.25.9 2.5-.03 1.23-.43 2.26-.97 2.47l.13.34c.56-.22 1.53.27 2.4 1.15.86.9 1.31 1.9 1.07 2.43l.34.13 1.07-2.44.4-.89 1.12-2.63.34-.82 1.15-2.65.4-.93h0l.68-1.57.35-.82z"/>
        <path fill="#010202" d="M7.65 20.23l7.9-17.74m-7.9 18.25a.5.5 0 01-.46-.7l7.9-17.74a.5.5 0 01.66-.26c.24.1.36.4.24.65L8.1 20.44a.5.5 0 01-.44.3"/>
    </g>
</svg>