<svg xmlns="http://www.w3.org/2000/svg" viewBox="0 0 24 24">
    <defs/>
    <path d="M12 3.67c-3.5 0-7.02 1.31-9.65 3.77-.26.17-.35.35-.35.61 0 .44.35.8.7.8l.44-.18a12.8 12.8 0 0117.63 0l.53.17c.35 0 .7-.35.7-.79a.8.8 0 00-.26-.61A14.43 14.43 0 0012 3.67zm0 4.56c-2.54 0-5 .88-7.02 2.63l-.17.61c0 .44.26.8.7.8l.44-.18A8.94 8.94 0 0112 9.72c2.2 0 4.39.88 6.14 2.37l.44.17c.35 0 .7-.35.7-.79 0-.26-.17-.43-.35-.61A10.2 10.2 0 0012 8.23zm0 4.56c-1.5 0-2.98.53-4.21 1.5a.8.8 0 00-.26.6c0 .44.35.8.7.8l.44-.18A5.26 5.26 0 0112 14.28a5.26 5.26 0 013.33 1.23l.44.17c.44 0 .7-.35.7-.79a.8.8 0 00-.26-.6 6.67 6.67 0 00-4.21-1.5zm0 4.47c-.79 0-1.4.7-1.4 1.58 0 .88.61 1.5 1.4 1.5.79 0 1.4-.7 1.4-1.5 0-.88-.61-1.58-1.4-1.58z"/>
</svg>