<svg xmlns="http://www.w3.org/2000/svg" viewBox="0 0 24 24">
  <defs/>
  <path d="M20.53 12.1c0-1.89.63-3.47 1.47-3.78l-.21-.53c-.84.32-2.32-.42-3.68-1.79-1.27-1.26-2-2.84-1.58-3.68L16 2.1c-.42.84-2 1.36-3.9 1.36-1.89 0-3.47-.63-3.78-1.47l-.53.21C8.1 3.05 7.37 4.53 6 5.9c-1.26 1.27-2.84 2-3.68 1.58L2.1 8c.84.42 1.36 2 1.36 3.9 0 1.89-.63 3.47-1.47 3.78l.21.53c.84-.32 2.32.42 3.68 1.79 1.27 1.26 2 2.84 1.58 3.68l.53.21c.42-.84 2-1.36 3.9-1.36 1.89 0 3.47.63 3.78 1.47l.53-.21c-.32-.84.42-2.32 1.79-3.68 1.26-1.27 2.84-2 3.68-1.58l.21-.53c-.84-.42-1.36-2-1.36-3.9zm0 3.27l-2.42-1.05c-.74-.32-1.16-1.27-1.06-2.21 0-1.06.42-2 1.27-2.32l2.42-1.05A7.8 7.8 0 0020 12.1c0 1.05.1 2.42.63 3.26zm-6.32-8c.21.63.53 1.05.95 1.58.42.42.95.73 1.47.94l-4.1 1.58 1.79-4.1zm-2.1 3.9l-1.8-4.22c.53.42 1.06.53 1.8.53.63 0 1.15-.1 1.68-.42L12 11.26zm-.64.2l-4.1-1.79c.63 0 1.05-.42 1.58-.84.42-.42.73-.95.94-1.47zm-.2.53l-4.22 1.68c.42-.52.53-1.05.53-1.79 0-.63-.1-1.15-.42-1.68zm.2.53l-1.79 4.1c0-.63-.42-1.05-.84-1.58a4.42 4.42 0 00-1.47-.94zm.53.2l1.68 4.22c-.52-.42-1.05-.53-1.79-.53-.63 0-1.15.1-1.68.42zm.53-.2l4.1 1.79c-.63 0-1.05.42-1.58.84-.42.42-.73.95-.94 1.47zm.2-.53l4.22-1.68c-.42.52-.53 1.05-.53 1.79 0 .63.1 1.15.42 1.68zm4.95-5.58a7.37 7.37 0 002.85 1.9L18 9.37c-.84.2-1.68 0-2.42-.84-.74-.74-1.05-1.8-.74-2.53l1.05-2.42a7.27 7.27 0 001.8 2.84zm-2.31-3.05l-1.05 2.52c-.32.74-1.27 1.16-2.21 1.06-1.06 0-2-.42-2.32-1.27L8.74 3.26A7.8 7.8 0 0012.1 4a7.37 7.37 0 003.26-.63zM6.42 6.32a7.37 7.37 0 001.9-2.85L9.37 6c.2.84 0 1.68-.84 2.42-.74.74-1.8 1.05-2.53.74L3.58 8.1a7.27 7.27 0 002.84-1.8zM3.37 8.63l2.52 1.05c.74.32 1.16 1.27 1.06 2.21 0 1.06-.42 2-1.27 2.32l-2.42 1.05A7.8 7.8 0 004 11.9a7.37 7.37 0 00-.63-3.26zm2.95 8.95a7.37 7.37 0 00-2.85-1.9L6 14.63c.84-.2 1.68 0 2.42.84.74.74 1.05 1.8.74 2.53L8.1 20.42a7.27 7.27 0 00-1.8-2.84zM11.79 20a7.7 7.7 0 00-3.16.63l1.05-2.52c.32-.74 1.27-1.16 2.21-1.06 1.06 0 2 .42 2.32 1.27l1.05 2.42A7.8 7.8 0 0011.9 20zm5.79-2.32a7.37 7.37 0 00-1.9 2.85L14.63 18c-.2-.84 0-1.68.84-2.42.74-.74 1.8-1.05 2.53-.74l2.42 1.05a7.27 7.27 0 00-2.84 1.8z"/>
</svg>