<svg xmlns="http://www.w3.org/2000/svg" viewBox="0 0 24 24">
  <defs/>
  <g fill="none" fill-rule="evenodd">
    <path fill="#010202" d="M20.92 12.29a11.11 11.11 0 00-6.14-2.88l-.49 1.12c2.2.19 4.27 1.1 5.95 2.64a.5.5 0 00.34.15c.3 0 .54-.26.54-.58a.6.6 0 00-.2-.45m-4.27 5.14a5.12 5.12 0 00-3.17-1.2h-.02a4.52 4.52 0 00-1.86.37l-.78 1.74.08-.04a3.9 3.9 0 012.5-.9h.06c.92 0 1.82.34 2.53.94.1.09.21.13.33.13.3 0 .54-.24.54-.57a.57.57 0 00-.21-.47m-3.22 2.27c-.57-.02-1.06.5-1.08 1.14 0 .62.48 1.16 1.06 1.16.58 0 1.07-.5 1.08-1.14 0-.64-.47-1.16-1.06-1.16m5.35-4.83a7.97 7.97 0 00-5.27-2.1c-.08 0-.15 0-.23.03l-.52 1.17c.23-.02.44-.03.67-.03h.06c1.69.01 3.32.65 4.62 1.8.09.09.22.16.35.16.3 0 .52-.27.52-.58a.5.5 0 00-.2-.45"/>
    <path fill="#020203" d="M10.99 5.93c-.25.48-.8.78-1.47.77-.7 0-1.28-.34-1.49-.86l-.63-1.6c.59.34 1.44.49 2.15.49.7.01 1.54-.1 2.14-.41L11 5.93zM9.47 9.46l-1.06-2.7c.3.2.68.3 1.11.32.4 0 .78-.1 1.1-.26zm-3.74 4.11a4.64 4.64 0 00-1.8-1.22l1.64-.66c.5-.16 1.1.02 1.58.5.48.5.66 1.16.43 1.66h.01l-.68 1.58a4.66 4.66 0 00-1.18-1.86zm-1.47-3.7a4.68 4.68 0 00-.42-2.16l1.63.7c.47.25.77.82.77 1.5-.02.67-.36 1.26-.86 1.46v.02l-1.6.63c.34-.6.47-1.44.48-2.15zm2.2-1.42a2.05 2.05 0 001-.57 2.18 2.18 0 00.6-.97L9.15 9.6zm2.67 1.83l-1.14 2.66a2.2 2.2 0 00-.57-1 2.46 2.46 0 00-.97-.6zm-2.8-1.49L9 9.93l-2.7 1.08c.18-.3.3-.7.3-1.1a2.14 2.14 0 00-.27-1.12zm-.48-2.6a4.7 4.7 0 001.2-1.79l.66 1.63c.18.5-.02 1.13-.5 1.59-.5.49-1.15.65-1.66.44l-1.58-.69A4.6 4.6 0 005.85 6.2zm6.54-2.56l-.34-.14c-.23.54-1.26.9-2.5.88-1.24-.02-2.27-.4-2.48-.96l-.34.14c.23.54-.25 1.52-1.14 2.38-.9.87-1.9 1.33-2.44 1.08l-.14.34c.54.23.91 1.26.9 2.5-.04 1.24-.43 2.27-.97 2.48l.13.35c.56-.22 1.54.26 2.4 1.14.87.9 1.3 1.9 1.08 2.43l.33.13 1.07-2.43.4-.9 1.12-2.63.34-.81 1.14-2.66.41-.93h-.01l.68-1.57.36-.82z"/>
    <path stroke="#020203" stroke-width=".091227" d="M10.99 5.93c-.25.48-.8.78-1.47.77-.7 0-1.28-.34-1.49-.86l-.63-1.6c.59.34 1.44.49 2.15.49.7.01 1.54-.1 2.14-.41L11 5.93zM9.47 9.46l-1.06-2.7c.3.2.68.3 1.11.32.4 0 .78-.1 1.1-.26zm-3.74 4.11a4.64 4.64 0 00-1.8-1.22l1.64-.66c.5-.16 1.1.02 1.58.5.48.5.66 1.16.43 1.66h.01l-.68 1.58a4.66 4.66 0 00-1.18-1.86zm-1.47-3.7a4.68 4.68 0 00-.42-2.16l1.63.7c.47.25.77.82.77 1.5-.02.67-.36 1.26-.86 1.46v.02l-1.6.63c.34-.6.47-1.44.48-2.15zm2.2-1.42a2.05 2.05 0 001-.57 2.18 2.18 0 00.6-.97L9.15 9.6zm2.67 1.83l-1.14 2.66a2.2 2.2 0 00-.57-1 2.46 2.46 0 00-.97-.6zm-2.8-1.49L9 9.93l-2.7 1.08c.18-.3.3-.7.3-1.1a2.14 2.14 0 00-.27-1.12zm-.48-2.6a4.7 4.7 0 001.2-1.79l.66 1.63c.18.5-.02 1.13-.5 1.59-.5.49-1.15.65-1.66.44l-1.58-.69A4.6 4.6 0 005.85 6.2zm6.54-2.56l-.34-.14c-.23.54-1.26.9-2.5.88-1.24-.02-2.27-.4-2.48-.96l-.34.14c.23.54-.25 1.52-1.14 2.38-.9.87-1.9 1.33-2.44 1.08l-.14.34c.54.23.91 1.26.9 2.5-.04 1.24-.43 2.27-.97 2.48l.13.35c.56-.22 1.54.26 2.4 1.14.87.9 1.3 1.9 1.08 2.43l.33.13 1.07-2.43.4-.9 1.12-2.63.34-.81 1.14-2.66.41-.93h-.01l.68-1.57.36-.82z"/>
    <path fill="#010202" d="M7.64 20.23l7.9-17.73m-7.9 18.23a.5.5 0 01-.45-.7l7.9-17.73c.1-.26.4-.37.65-.26.25.12.37.41.25.66L8.1 20.44a.5.5 0 01-.45.3"/>
  </g>
</svg>