<svg xmlns="http://www.w3.org/2000/svg" viewBox="0 0 24 24">
    <defs/>
    <path fill="#000" fill-rule="evenodd" d="M15.85 2.52c.69-.7 1.8-.7 2.5 0l3.13 3.13c.7.7.7 1.81 0 2.5L8.15 21.48c-.69.7-1.8.7-2.5 0l-3.13-3.13a1.77 1.77 0 010-2.5zm1.8.7a.77.77 0 00-1.1 0l-.7.72L17.2 5.3a.5.5 0 010 .71.5.5 0 01-.7 0l-1.37-1.37-2.32 2.33 1.9 1.9c.2.2.2.52 0 .71a.5.5 0 01-.7 0l-1.91-1.9L9.77 10l1.36 1.36a.5.5 0 11-.7.71l-1.37-1.36-2.32 2.33 1.9 1.9a.5.5 0 01-.7.71l-1.9-1.9-2.82 2.8c-.3.3-.3.79 0 1.1l3.14 3.13c.3.3.79.3 1.09 0L20.78 7.45c.3-.3.3-.79 0-1.1zM5.2 17.34c.2-.2.51-.2.7 0l.75.74a.5.5 0 01-.71.71l-.74-.74a.5.5 0 010-.7z"/>
</svg>