<svg xmlns="http://www.w3.org/2000/svg" viewBox="0 0 24 24">
  <defs/>
  <path fill-rule="evenodd" d="M12 12.59c-2.77 0-4.56 1.1-4.93 2.98-.05.28-.07 1.1-.07 1.18 0 .3.25.55.58.55.32 0 .58-.25.58-.55 0-.27.03-.85.05-1 .35-1.8 2.5-2.06 3.79-2.06 1.07 0 3.58.2 3.81 2.27l.03.65c0 .32.25.55.58.55.32 0 .58-.23.58-.55 0 0 0-.59-.02-.78-.23-2.02-2.1-3.24-4.98-3.24zm-.63-1a3.13 3.13 0 003.12-3.12c0-1.62-1.28-2.76-3.11-2.76-1.84 0-3.13 1.14-3.13 2.76a3.13 3.13 0 003.13 3.12zm0-4.7c1.15 0 1.88.63 1.88 1.6 0 1.05-.84 1.92-1.87 1.92A1.9 1.9 0 019.49 8.5c0-.97.74-1.6 1.89-1.6zm10.47.99a3.87 3.87 0 00-1.9-2.26c-.98-.52-1.95-1.05-2.93-1.56-.97-.5-1.95-1.02-2.92-1.54a4.59 4.59 0 00-4.12-.04c-.56.29-1.12.56-1.66.87-1.38.71-2.83 1.48-4.24 2.25a3.66 3.66 0 00-2.06 3.3c-.02 1.37 0 2.79 0 4.14v2.07c0 .4.07.79.19 1.1a4 4 0 001.87 2.19l2.9 1.54c.98.5 1.92 1.02 2.88 1.52.58.32 1.18.5 1.88.54h.31c.78 0 1.42-.17 2.03-.5l5.81-3.1a3.7 3.7 0 001.52-1.36c.42-.66.6-1.2.6-1.8V8.86c0-.29-.04-.66-.16-1zm-1.1 7.33c0 .38-.13.78-.45 1.26-.25.43-.6.73-1.05.95l-5.78 3.06a3.22 3.22 0 01-3-.06l-2.86-1.5c-.96-.5-1.93-1-2.86-1.5a2.74 2.74 0 01-1.35-1.6c-.1-.2-.14-.46-.14-.76v-6.1c0-1.05.48-1.8 1.49-2.37 1.36-.76 2.8-1.48 4.16-2.2.55-.31 1.11-.59 1.66-.87.42-.23.84-.34 1.4-.34h.13c.5.02.96.15 1.4.38.95.53 1.92 1.02 2.89 1.53.96.5 1.93 1 2.88 1.52a2.77 2.77 0 011.48 2.35v6.25z"/>
</svg>