<?xml version="1.0" encoding="UTF-8"?>
<svg width="24px" height="24px" viewBox="0 0 24 24" version="1.1" xmlns="http://www.w3.org/2000/svg" xmlns:xlink="http://www.w3.org/1999/xlink">
    <g id="map-crops" stroke="none" stroke-width="1" fill="none" fill-rule="evenodd">
        <path d="M20.8197624,3 C21.0606811,3 21.3203333,3.02122283 21.5566199,3.05993398 C21.7918503,3.08504284 21.9785645,3.27138064 21.9782114,3.5022727 C22.1184228,5.15757362 21.576788,6.7302497 20.460591,7.90161213 C19.3308841,9.14628925 17.6624895,9.85004842 15.8457321,9.86059301 L14.3470984,11.3550289 C14.7845064,11.2501621 15.2485321,11.1977083 15.7164812,11.1977083 C17.4073418,11.1977083 19.0270496,11.9494749 20.1473015,13.2475136 C20.2935756,13.4157287 20.301056,13.6820304 20.1709856,13.8614685 C19.1313637,15.219033 17.5495766,15.9942187 15.8144499,15.9942187 C14.2852761,15.9942187 12.7565261,15.3750625 11.462527,14.2495287 L8.96951057,16.734689 C9.40676664,16.6301584 9.87081745,16.5780729 10.3400749,16.5780729 C12.0310506,16.5780729 13.64971,17.328939 14.7713937,18.6274662 C14.9160407,18.7964237 14.9234717,19.0609654 14.7939879,19.2425976 C13.7315147,20.6022802 12.1507945,21.3745833 10.418252,21.3745833 C8.88823748,21.3745833 7.35944893,20.7555212 6.06534426,19.6298974 L3.83525739,21.8532554 C3.74030248,21.9482103 3.61783116,22 3.4911687,22 C3.36360577,22 3.24118988,21.9485593 3.14730109,21.8534757 C2.95101693,21.6584261 2.95101693,21.3599073 3.14659828,21.165563 L5.35687277,18.9245369 C4.10518917,17.5300433 3.49041281,15.867682 3.60813273,14.1869965 C3.70741744,12.6004469 4.46106012,11.2013904 5.7229591,10.2425283 C5.89509785,10.0963962 6.16418325,10.111471 6.34211755,10.2625238 C7.6021097,11.3390611 8.33812745,12.833368 8.39846865,14.4445561 C8.41513939,15.0046929 8.36235026,15.5430988 8.23632745,16.0726013 L10.7525991,13.5633314 C9.50249529,12.168239 8.88767852,10.5059829 9.00433481,8.82536784 C9.10459903,7.24019056 9.85895908,5.84104673 11.1201466,4.88195543 C11.2922854,4.73582325 11.5613708,4.75089807 11.7393348,4.90197627 C12.9989429,5.97904711 13.7353449,7.47359585 13.7956562,9.0839832 C13.8124053,9.64675416 13.7590397,10.1875894 13.6317321,10.7194982 L15.127693,9.26042458 C15.1878434,5.67245409 17.6173471,3 20.8197624,3 Z M10.3192937,17.5597396 C9.06431841,17.5597396 7.80739019,18.0507168 6.76160455,18.9482404 C7.84445529,19.8812108 9.1413768,20.3939062 10.418252,20.3939062 C11.694039,20.3939062 12.8765563,19.8821881 13.7163393,18.96884 C12.8008713,18.0521218 11.6157109,17.5597396 10.3192937,17.5597396 Z M6.01932203,11.2753126 C5.17090361,12.0420234 4.66537112,13.0910473 4.59036968,14.2582482 C4.49715144,15.634865 5.00196374,17.026073 6.02343758,18.2296151 C6.98072338,17.1271638 7.47067366,15.8151404 7.415905,14.4901908 C7.37727637,13.2606698 6.88628317,12.1351855 6.01932203,11.2753126 Z M15.6976791,12.1783854 C14.4417848,12.1783854 13.1847341,12.6693362 12.1388108,13.5670489 C13.2294808,14.5113288 14.5071422,15.0135417 15.7956479,15.0135417 C17.0782823,15.0135417 18.2751695,14.4977716 19.0944408,13.5900392 C18.1793635,12.6715123 16.994161,12.1783854 15.6976791,12.1783854 Z M11.3957973,5.91466814 C10.5477502,6.68090896 10.0417343,7.73015438 9.96677624,8.89668115 C9.87357427,10.2739992 10.3781682,11.6643531 11.39991,12.8681321 C12.358097,11.7666204 12.8480266,10.4545931 12.7923089,9.12855262 C12.7546188,7.89891415 12.2635607,6.7734999 11.3957973,5.91466814 Z M20.8793716,3.98086623 L20.8187729,3.98067708 C18.2838205,3.98067708 16.3164842,6.04822765 16.1161445,8.90092451 C17.5849648,8.78301525 18.8497005,8.2059647 19.7454746,7.23868002 C20.5717242,6.34050023 21.014211,5.20464322 21.0153326,3.98730231 C20.9980585,3.98551163 20.9800213,3.98414056 20.9610066,3.98313728 L20.9230933,3.98159194 L20.9230933,3.98159194 L20.8793716,3.98086623 Z" id="Combined-Shape" fill="#010202"></path>
    </g>
</svg>